0, 0, Header, 1, 3, 384
1, 0, Start_track
1, 0, Time_signature, 4, 2, 24, 8
1, 0, Tempo, 500000
1, 732800, End_track
2, 0, Start_track
2, 0, Text_t, "random instrument: random person i dunno whatev"
2, 0, Title_t, "Track 1"
2, 80, Note_on_c, 1, 45, 127
2, 320, Note_on_c, 1, 49, 127
2, 400, Note_off_c, 1, 49, 0
2, 440, Note_on_c, 1, 52, 127
2, 520, Note_off_c, 1, 45, 0
2, 520, Note_off_c, 1, 52, 0
2, 560, Note_on_c, 1, 57, 127
2, 640, Note_off_c, 1, 57, 0
2, 680, Note_on_c, 1, 56, 127
2, 760, Note_off_c, 1, 56, 0
2, 800, Note_on_c, 1, 54, 127
2, 880, Note_off_c, 1, 54, 0
2, 920, Note_on_c, 1, 52, 127
2, 1080, Note_on_c, 1, 56, 127
2, 1160, Note_off_c, 1, 56, 0
2, 1200, Note_on_c, 1, 59, 127
2, 1280, Note_off_c, 1, 59, 0
2, 1320, Note_on_c, 1, 62, 127
2, 1360, Note_off_c, 1, 52, 0
2, 1400, Note_off_c, 1, 62, 0
2, 1440, Note_on_c, 1, 61, 127
2, 1520, Note_off_c, 1, 61, 0
2, 1560, Note_on_c, 1, 59, 127
2, 1640, Note_off_c, 1, 59, 0
2, 1680, Note_on_c, 1, 57, 127
2, 1800, Note_on_c, 1, 61, 127
2, 1880, Note_off_c, 1, 61, 0
2, 1920, Note_on_c, 1, 64, 127
2, 2000, Note_off_c, 1, 64, 0
2, 2040, Note_on_c, 1, 69, 127
2, 2120, Note_off_c, 1, 57, 0
2, 2120, Note_off_c, 1, 69, 0
2, 2160, Note_on_c, 1, 68, 127
2, 2240, Note_off_c, 1, 68, 0
2, 2280, Note_on_c, 1, 66, 127
2, 2360, Note_off_c, 1, 66, 0
2, 2400, Note_on_c, 1, 64, 127
2, 2560, Note_on_c, 1, 68, 127
2, 2640, Note_off_c, 1, 68, 0
2, 2680, Note_on_c, 1, 71, 127
2, 2760, Note_off_c, 1, 71, 0
2, 2800, Note_on_c, 1, 74, 127
2, 2840, Note_off_c, 1, 64, 0
2, 2880, Note_off_c, 1, 74, 0
2, 2920, Note_on_c, 1, 73, 127
2, 3000, Note_off_c, 1, 73, 0
2, 3040, Note_on_c, 1, 71, 127
2, 3120, Note_off_c, 1, 71, 0
2, 3160, Note_on_c, 1, 69, 127
2, 3520, Note_off_c, 1, 69, 0
2, 3520, Note_on_c, 1, 71, 127
2, 3600, Note_off_c, 1, 71, 0
2, 3640, Note_on_c, 1, 73, 127
2, 3720, Note_off_c, 1, 73, 0
2, 3760, Note_on_c, 1, 74, 127
2, 3800, Note_off_c, 1, 74, 0
2, 3840, Note_on_c, 1, 76, 127
2, 3920, Note_off_c, 1, 76, 0
2, 3960, Note_on_c, 1, 78, 127
2, 4040, Note_off_c, 1, 78, 0
2, 4080, Note_on_c, 1, 80, 127
2, 4160, Note_off_c, 1, 80, 0
2, 4200, Note_on_c, 1, 81, 127
2, 4240, Note_off_c, 1, 81, 0
2, 4280, Note_on_c, 1, 83, 127
2, 4360, Note_off_c, 1, 83, 0
2, 4400, Note_on_c, 1, 80, 127
2, 4480, Note_off_c, 1, 80, 0
2, 4520, Note_on_c, 1, 76, 127
2, 4600, Note_off_c, 1, 76, 0
2, 4640, Note_on_c, 1, 80, 127
2, 4720, Note_off_c, 1, 80, 0
2, 4760, Note_on_c, 1, 81, 127
2, 5280, Note_on_c, 1, 80, 127
2, 5400, Note_off_c, 1, 80, 0
2, 5440, Note_on_c, 1, 78, 127
2, 5520, Note_off_c, 1, 78, 0
2, 5560, Note_on_c, 1, 76, 127
2, 5720, Note_on_c, 1, 74, 127
2, 5800, Note_off_c, 1, 74, 0
2, 5840, Note_on_c, 1, 73, 127
2, 6000, Note_on_c, 1, 71, 127
2, 6080, Note_off_c, 1, 71, 0
2, 6160, Note_on_c, 1, 69, 127
2, 6240, Note_off_c, 1, 69, 0
2, 6280, Note_on_c, 1, 68, 127
2, 6400, Note_off_c, 1, 68, 0
2, 6440, Note_on_c, 1, 69, 127
2, 6680, Note_on_c, 1, 64, 127
2, 7000, Note_on_c, 1, 57, 127
2, 7320, Note_off_c, 1, 81, 0
2, 7520, Note_off_c, 1, 73, 0
2, 7520, Note_off_c, 1, 76, 0
2, 8280, Note_off_c, 1, 69, 0
2, 8400, Note_off_c, 1, 64, 0
2, 9800, Note_off_c, 1, 57, 0
2, 10200, Note_on_c, 1, 81, 127
2, 10360, Note_off_c, 1, 81, 0
2, 10400, Note_on_c, 1, 80, 127
2, 10560, Note_off_c, 1, 80, 0
2, 10600, Note_on_c, 1, 78, 127
2, 10760, Note_off_c, 1, 78, 0
2, 10800, Note_on_c, 1, 76, 127
2, 10960, Note_off_c, 1, 76, 0
2, 11000, Note_on_c, 1, 78, 127
2, 11160, Note_off_c, 1, 78, 0
2, 11200, Note_on_c, 1, 74, 127
2, 11360, Note_off_c, 1, 74, 0
2, 11400, Note_on_c, 1, 69, 127
2, 11400, Note_on_c, 1, 73, 127
2, 11440, Note_on_c, 1, 71, 127
2, 11440, Note_off_c, 1, 73, 0
2, 11480, Note_off_c, 1, 71, 0
2, 11520, Note_on_c, 1, 73, 127
2, 11560, Note_off_c, 1, 69, 0
2, 11600, Note_on_c, 1, 68, 127
2, 11760, Note_off_c, 1, 68, 0
2, 11800, Note_on_c, 1, 66, 127
2, 11960, Note_off_c, 1, 66, 0
2, 12000, Note_on_c, 1, 64, 127
2, 12160, Note_off_c, 1, 64, 0
2, 12200, Note_on_c, 1, 66, 127
2, 12360, Note_off_c, 1, 66, 0
2, 12360, Note_off_c, 1, 73, 0
2, 12400, Note_on_c, 1, 62, 127
2, 12400, Note_on_c, 1, 76, 127
2, 12440, Note_on_c, 1, 74, 127
2, 12440, Note_off_c, 1, 76, 0
2, 12480, Note_off_c, 1, 74, 0
2, 12520, Note_on_c, 1, 73, 127
2, 12560, Note_off_c, 1, 62, 0
2, 12560, Note_off_c, 1, 73, 0
2, 12560, Note_on_c, 1, 74, 127
2, 12600, Note_on_c, 1, 61, 127
2, 12600, Note_off_c, 1, 74, 0
2, 12600, Note_on_c, 1, 76, 127
2, 12760, Note_off_c, 1, 76, 0
2, 12800, Note_on_c, 1, 74, 127
2, 12960, Note_off_c, 1, 74, 0
2, 13000, Note_on_c, 1, 73, 127
2, 13160, Note_off_c, 1, 73, 0
2, 13200, Note_on_c, 1, 71, 127
2, 13280, Note_off_c, 1, 61, 0
2, 13360, Note_off_c, 1, 71, 0
2, 13400, Note_on_c, 1, 73, 127
2, 13560, Note_off_c, 1, 73, 0
2, 13600, Note_on_c, 1, 62, 127
2, 13600, Note_on_c, 1, 69, 127
2, 13760, Note_off_c, 1, 62, 0
2, 13760, Note_off_c, 1, 69, 0
2, 13800, Note_on_c, 1, 64, 127
2, 13800, Note_on_c, 1, 68, 127
2, 14000, Note_on_c, 1, 62, 127
2, 14160, Note_off_c, 1, 62, 0
2, 14200, Note_on_c, 1, 61, 127
2, 14400, Note_off_c, 1, 61, 0
2, 14440, Note_on_c, 1, 59, 127
2, 14600, Note_off_c, 1, 59, 0
2, 14640, Note_on_c, 1, 61, 127
2, 14800, Note_off_c, 1, 61, 0
2, 14800, Note_off_c, 1, 68, 0
2, 14840, Note_on_c, 1, 57, 127
2, 14840, Note_on_c, 1, 69, 127
2, 15000, Note_off_c, 1, 57, 0
2, 15000, Note_off_c, 1, 69, 0
2, 15040, Note_on_c, 1, 56, 127
2, 15040, Note_on_c, 1, 71, 127
2, 15200, Note_off_c, 1, 71, 0
2, 15240, Note_on_c, 1, 73, 127
2, 15400, Note_off_c, 1, 64, 0
2, 15400, Note_off_c, 1, 73, 0
2, 15440, Note_on_c, 1, 59, 127
2, 15440, Note_on_c, 1, 74, 127
2, 15600, Note_off_c, 1, 59, 0
2, 15600, Note_off_c, 1, 74, 0
2, 15640, Note_on_c, 1, 64, 127
2, 15640, Note_on_c, 1, 73, 127
2, 15800, Note_off_c, 1, 73, 0
2, 15840, Note_on_c, 1, 74, 127
2, 16000, Note_off_c, 1, 56, 0
2, 16000, Note_off_c, 1, 74, 0
2, 16040, Note_on_c, 1, 52, 127
2, 16040, Note_on_c, 1, 71, 127
2, 16200, Note_off_c, 1, 52, 0
2, 16200, Note_off_c, 1, 71, 0
2, 16240, Note_on_c, 1, 57, 127
2, 16240, Note_on_c, 1, 69, 127
2, 16240, Note_on_c, 1, 71, 127
2, 16360, Note_off_c, 1, 71, 0
2, 16400, Note_off_c, 1, 57, 0
2, 16400, Note_on_c, 1, 73, 127
2, 16440, Note_on_c, 1, 56, 127
2, 16440, Note_on_c, 1, 71, 127
2, 16440, Note_off_c, 1, 73, 0
2, 16480, Note_off_c, 1, 71, 0
2, 16520, Note_on_c, 1, 73, 127
2, 16600, Note_off_c, 1, 56, 0
2, 16600, Note_off_c, 1, 64, 0
2, 16640, Note_on_c, 1, 54, 127
2, 16800, Note_off_c, 1, 54, 0
2, 16840, Note_on_c, 1, 52, 127
2, 17000, Note_off_c, 1, 52, 0
2, 17040, Note_on_c, 1, 54, 127
2, 17040, Note_off_c, 1, 73, 0
2, 17200, Note_off_c, 1, 54, 0
2, 17240, Note_on_c, 1, 50, 127
2, 17240, Note_on_c, 1, 74, 127
2, 17400, Note_off_c, 1, 50, 0
2, 17400, Note_off_c, 1, 74, 0
2, 17440, Note_on_c, 1, 49, 127
2, 17440, Note_on_c, 1, 76, 127
2, 17600, Note_off_c, 1, 76, 0
2, 17640, Note_on_c, 1, 78, 127
2, 17800, Note_off_c, 1, 78, 0
2, 17840, Note_on_c, 1, 52, 127
2, 17840, Note_on_c, 1, 79, 127
2, 18000, Note_off_c, 1, 52, 0
2, 18000, Note_off_c, 1, 79, 0
2, 18040, Note_on_c, 1, 57, 127
2, 18040, Note_on_c, 1, 78, 127
2, 18200, Note_off_c, 1, 78, 0
2, 18240, Note_on_c, 1, 79, 127
2, 18400, Note_off_c, 1, 79, 0
2, 18440, Note_off_c, 1, 49, 0
2, 18480, Note_on_c, 1, 45, 127
2, 18480, Note_on_c, 1, 76, 127
2, 18640, Note_off_c, 1, 45, 0
2, 18640, Note_off_c, 1, 76, 0
2, 18680, Note_on_c, 1, 50, 127
2, 18680, Note_on_c, 1, 78, 127
2, 18720, Note_on_c, 1, 76, 127
2, 18720, Note_off_c, 1, 78, 0
2, 18760, Note_off_c, 1, 76, 0
2, 18800, Note_on_c, 1, 78, 127
2, 18840, Note_off_c, 1, 57, 0
2, 18880, Note_on_c, 1, 57, 127
2, 19040, Note_off_c, 1, 57, 0
2, 19040, Note_off_c, 1, 78, 0
2, 19080, Note_on_c, 1, 55, 127
2, 19080, Note_on_c, 1, 76, 127
2, 19240, Note_off_c, 1, 50, 0
2, 19240, Note_off_c, 1, 55, 0
2, 19240, Note_off_c, 1, 76, 0
2, 19280, Note_on_c, 1, 54, 127
2, 19280, Note_on_c, 1, 74, 127
2, 19440, Note_off_c, 1, 54, 0
2, 19480, Note_on_c, 1, 55, 127
2, 19640, Note_off_c, 1, 55, 0
2, 19640, Note_off_c, 1, 74, 0
2, 19680, Note_on_c, 1, 52, 127
2, 19680, Note_on_c, 1, 76, 127
2, 19840, Note_off_c, 1, 52, 0
2, 19840, Note_off_c, 1, 69, 0
2, 19840, Note_off_c, 1, 76, 0
2, 19880, Note_on_c, 1, 51, 127
2, 19880, Note_on_c, 1, 78, 127
2, 20040, Note_off_c, 1, 78, 0
2, 20080, Note_on_c, 1, 80, 127
2, 20240, Note_off_c, 1, 51, 0
2, 20240, Note_off_c, 1, 80, 0
2, 20280, Note_on_c, 1, 54, 127
2, 20280, Note_on_c, 1, 81, 127
2, 20440, Note_off_c, 1, 54, 0
2, 20440, Note_off_c, 1, 81, 0
2, 20480, Note_on_c, 1, 51, 127
2, 20480, Note_on_c, 1, 83, 127
2, 20640, Note_off_c, 1, 83, 0
2, 20680, Note_on_c, 1, 80, 127
2, 20840, Note_off_c, 1, 51, 0
2, 20840, Note_off_c, 1, 80, 0
2, 20880, Note_on_c, 1, 47, 127
2, 20880, Note_on_c, 1, 81, 127
2, 21040, Note_off_c, 1, 47, 0
2, 21040, Note_off_c, 1, 81, 0
2, 21080, Note_on_c, 1, 52, 127
2, 21080, Note_on_c, 1, 76, 127
2, 21080, Note_on_c, 1, 81, 127
2, 21240, Note_off_c, 1, 52, 0
2, 21280, Note_on_c, 1, 51, 127
2, 21440, Note_off_c, 1, 51, 0
2, 21480, Note_on_c, 1, 49, 127
2, 21640, Note_off_c, 1, 49, 0
2, 21640, Note_off_c, 1, 81, 0
2, 21680, Note_on_c, 1, 47, 127
2, 21680, Note_on_c, 1, 80, 127
2, 21840, Note_off_c, 1, 47, 0
2, 21880, Note_on_c, 1, 49, 127
2, 21960, Note_off_c, 1, 80, 0
2, 22000, Note_on_c, 1, 83, 127
2, 22040, Note_off_c, 1, 49, 0
2, 22040, Note_off_c, 1, 83, 0
2, 22080, Note_on_c, 1, 45, 127
2, 22080, Note_on_c, 1, 81, 127
2, 22120, Note_off_c, 1, 81, 0
2, 22160, Note_on_c, 1, 80, 127
2, 22200, Note_off_c, 1, 80, 0
2, 22240, Note_off_c, 1, 45, 0
2, 22240, Note_on_c, 1, 81, 127
2, 22280, Note_off_c, 1, 81, 0
2, 22320, Note_on_c, 1, 44, 127
2, 22320, Note_on_c, 1, 83, 127
2, 22480, Note_off_c, 1, 83, 0
2, 22520, Note_on_c, 1, 47, 127
2, 22520, Note_on_c, 1, 81, 127
2, 22680, Note_off_c, 1, 47, 0
2, 22680, Note_off_c, 1, 81, 0
2, 22720, Note_on_c, 1, 52, 127
2, 22720, Note_on_c, 1, 80, 127
2, 22840, Note_off_c, 1, 76, 0
2, 22880, Note_off_c, 1, 44, 0
2, 22880, Note_off_c, 1, 52, 0
2, 22880, Note_off_c, 1, 80, 0
2, 22920, Note_on_c, 1, 45, 127
2, 22920, Note_on_c, 1, 78, 127
2, 23080, Note_off_c, 1, 78, 0
2, 23120, Note_on_c, 1, 49, 127
2, 23120, Note_on_c, 1, 80, 127
2, 23280, Note_off_c, 1, 49, 0
2, 23280, Note_off_c, 1, 80, 0
2, 23320, Note_on_c, 1, 54, 127
2, 23320, Note_on_c, 1, 76, 127
2, 23480, Note_off_c, 1, 45, 0
2, 23480, Note_off_c, 1, 54, 0
2, 23480, Note_off_c, 1, 76, 0
2, 23520, Note_on_c, 1, 47, 127
2, 23520, Note_on_c, 1, 75, 127
2, 23680, Note_off_c, 1, 75, 0
2, 23720, Note_on_c, 1, 59, 127
2, 23720, Note_on_c, 1, 76, 127
2, 23880, Note_off_c, 1, 47, 0
2, 23880, Note_off_c, 1, 59, 0
2, 23880, Note_off_c, 1, 76, 0
2, 23920, Note_on_c, 1, 61, 127
2, 23920, Note_on_c, 1, 78, 127
2, 24080, Note_off_c, 1, 61, 0
2, 24120, Note_on_c, 1, 63, 127
2, 24120, Note_on_c, 1, 71, 127
2, 24280, Note_off_c, 1, 63, 0
2, 24280, Note_off_c, 1, 71, 0
2, 24320, Note_on_c, 1, 61, 127
2, 24320, Note_on_c, 1, 73, 127
2, 24480, Note_off_c, 1, 61, 0
2, 24480, Note_off_c, 1, 73, 0
2, 24520, Note_on_c, 1, 59, 127
2, 24520, Note_on_c, 1, 69, 127
2, 24680, Note_off_c, 1, 59, 0
2, 24680, Note_off_c, 1, 69, 0
2, 24720, Note_on_c, 1, 64, 127
2, 24720, Note_on_c, 1, 68, 127
2, 24880, Note_off_c, 1, 64, 0
2, 24880, Note_off_c, 1, 78, 0
2, 24920, Note_on_c, 1, 56, 127
2, 24920, Note_on_c, 1, 71, 127
2, 25080, Note_off_c, 1, 56, 0
2, 25080, Note_off_c, 1, 71, 0
2, 25120, Note_on_c, 1, 57, 127
2, 25120, Note_on_c, 1, 76, 127
2, 25280, Note_off_c, 1, 57, 0
2, 25280, Note_off_c, 1, 68, 0
2, 25320, Note_on_c, 1, 59, 127
2, 25320, Note_on_c, 1, 66, 127
2, 25480, Note_off_c, 1, 59, 0
2, 25480, Note_off_c, 1, 76, 0
2, 25520, Note_on_c, 1, 57, 127
2, 25520, Note_on_c, 1, 76, 127
2, 25680, Note_off_c, 1, 57, 0
2, 25680, Note_off_c, 1, 76, 0
2, 25720, Note_on_c, 1, 59, 127
2, 25720, Note_on_c, 1, 75, 127
2, 25880, Note_off_c, 1, 59, 0
2, 25880, Note_off_c, 1, 66, 0
2, 25880, Note_off_c, 1, 75, 0
2, 25920, Note_on_c, 1, 52, 127
2, 25920, Note_on_c, 1, 64, 127
2, 25920, Note_on_c, 1, 76, 127
2, 26080, Note_off_c, 1, 76, 0
2, 26160, Note_on_c, 1, 75, 127
2, 26320, Note_off_c, 1, 75, 0
2, 26360, Note_on_c, 1, 54, 127
2, 26360, Note_on_c, 1, 73, 127
2, 26520, Note_off_c, 1, 54, 0
2, 26520, Note_off_c, 1, 73, 0
2, 26560, Note_on_c, 1, 56, 127
2, 26560, Note_on_c, 1, 71, 127
2, 26720, Note_off_c, 1, 71, 0
2, 26760, Note_on_c, 1, 73, 127
2, 26920, Note_off_c, 1, 56, 0
2, 26920, Note_off_c, 1, 73, 0
2, 26960, Note_on_c, 1, 57, 127
2, 26960, Note_on_c, 1, 69, 127
2, 27120, Note_off_c, 1, 57, 0
2, 27120, Note_off_c, 1, 69, 0
2, 27160, Note_on_c, 1, 59, 127
2, 27160, Note_on_c, 1, 68, 127
2, 27320, Note_off_c, 1, 59, 0
2, 27320, Note_off_c, 1, 64, 0
2, 27360, Note_on_c, 1, 63, 127
2, 27520, Note_off_c, 1, 63, 0
2, 27520, Note_off_c, 1, 68, 0
2, 27560, Note_on_c, 1, 61, 127
2, 27560, Note_on_c, 1, 69, 127
2, 27720, Note_off_c, 1, 61, 0
2, 27720, Note_off_c, 1, 69, 0
2, 27760, Note_on_c, 1, 59, 127
2, 27760, Note_on_c, 1, 69, 127
2, 27800, Note_off_c, 1, 69, 0
2, 27840, Note_on_c, 1, 68, 127
2, 27880, Note_off_c, 1, 68, 0
2, 27920, Note_off_c, 1, 59, 0
2, 27920, Note_on_c, 1, 69, 127
2, 27960, Note_on_c, 1, 61, 127
2, 27960, Note_on_c, 1, 68, 127
2, 27960, Note_off_c, 1, 69, 0
2, 28000, Note_off_c, 1, 68, 0
2, 28000, Note_on_c, 1, 69, 127
2, 28040, Note_on_c, 1, 68, 127
2, 28040, Note_off_c, 1, 69, 0
2, 28120, Note_off_c, 1, 61, 0
2, 28120, Note_off_c, 1, 68, 0
2, 28160, Note_on_c, 1, 57, 127
2, 28160, Note_on_c, 1, 66, 127
2, 28320, Note_off_c, 1, 57, 0
2, 28320, Note_off_c, 1, 66, 0
2, 28360, Note_on_c, 1, 56, 127
2, 28360, Note_on_c, 1, 64, 127
2, 28520, Note_off_c, 1, 52, 0
2, 28560, Note_on_c, 1, 51, 127
2, 28720, Note_off_c, 1, 51, 0
2, 28720, Note_off_c, 1, 56, 0
2, 28760, Note_on_c, 1, 49, 127
2, 28760, Note_on_c, 1, 57, 127
2, 28920, Note_off_c, 1, 49, 0
2, 28920, Note_off_c, 1, 57, 0
2, 28960, Note_on_c, 1, 47, 127
2, 28960, Note_on_c, 1, 56, 127
2, 29120, Note_off_c, 1, 47, 0
2, 29160, Note_on_c, 1, 49, 127
2, 29320, Note_off_c, 1, 49, 0
2, 29320, Note_off_c, 1, 56, 0
2, 29360, Note_on_c, 1, 45, 127
2, 29360, Note_on_c, 1, 54, 127
2, 29520, Note_off_c, 1, 45, 0
2, 29520, Note_off_c, 1, 54, 0
2, 29560, Note_on_c, 1, 44, 127
2, 29560, Note_on_c, 1, 52, 127
2, 29720, Note_off_c, 1, 64, 0
2, 29760, Note_on_c, 1, 62, 127
2, 29920, Note_off_c, 1, 44, 0
2, 29920, Note_off_c, 1, 62, 0
2, 29960, Note_on_c, 1, 45, 127
2, 29960, Note_on_c, 1, 61, 127
2, 30120, Note_off_c, 1, 45, 0
2, 30120, Note_off_c, 1, 61, 0
2, 30200, Note_on_c, 1, 44, 127
2, 30200, Note_on_c, 1, 59, 127
2, 30360, Note_off_c, 1, 44, 0
2, 30360, Note_off_c, 1, 59, 0
2, 30400, Note_on_c, 1, 42, 127
2, 30400, Note_on_c, 1, 62, 127
2, 30560, Note_off_c, 1, 42, 0
2, 30560, Note_off_c, 1, 62, 0
2, 30600, Note_on_c, 1, 40, 127
2, 30600, Note_on_c, 1, 61, 127
2, 30760, Note_off_c, 1, 40, 0
2, 30760, Note_off_c, 1, 52, 0
2, 30760, Note_off_c, 1, 61, 0
2, 30800, Note_on_c, 1, 42, 127
2, 30800, Note_on_c, 1, 62, 127
2, 30960, Note_off_c, 1, 42, 0
2, 30960, Note_off_c, 1, 62, 0
2, 31000, Note_on_c, 1, 44, 127
2, 31000, Note_on_c, 1, 64, 127
2, 31160, Note_off_c, 1, 44, 0
2, 31160, Note_off_c, 1, 64, 0
2, 31200, Note_on_c, 1, 45, 127
2, 31200, Note_on_c, 1, 66, 127
2, 31360, Note_off_c, 1, 45, 0
2, 31360, Note_off_c, 1, 66, 0
2, 31400, Note_on_c, 1, 44, 127
2, 31400, Note_on_c, 1, 64, 127
2, 31560, Note_off_c, 1, 44, 0
2, 31560, Note_off_c, 1, 64, 0
2, 31600, Note_on_c, 1, 45, 127
2, 31600, Note_on_c, 1, 66, 127
2, 31760, Note_off_c, 1, 45, 0
2, 31760, Note_off_c, 1, 66, 0
2, 31800, Note_on_c, 1, 47, 127
2, 31800, Note_on_c, 1, 62, 127
2, 31960, Note_off_c, 1, 47, 0
2, 31960, Note_off_c, 1, 62, 0
2, 32000, Note_on_c, 1, 45, 127
2, 32000, Note_on_c, 1, 61, 127
2, 32000, Note_on_c, 1, 69, 127
2, 32160, Note_off_c, 1, 69, 0
2, 32200, Note_on_c, 1, 68, 127
2, 32360, Note_off_c, 1, 45, 0
2, 32360, Note_off_c, 1, 68, 0
2, 32400, Note_on_c, 1, 47, 127
2, 32400, Note_on_c, 1, 66, 127
2, 32560, Note_off_c, 1, 47, 0
2, 32560, Note_off_c, 1, 66, 0
2, 32600, Note_on_c, 1, 49, 127
2, 32600, Note_on_c, 1, 64, 127
2, 32760, Note_off_c, 1, 49, 0
2, 32760, Note_off_c, 1, 64, 0
2, 32800, Note_on_c, 1, 47, 127
2, 32800, Note_on_c, 1, 67, 127
2, 32960, Note_off_c, 1, 47, 0
2, 32960, Note_off_c, 1, 67, 0
2, 33000, Note_on_c, 1, 45, 127
2, 33000, Note_on_c, 1, 66, 127
2, 33160, Note_off_c, 1, 45, 0
2, 33160, Note_off_c, 1, 61, 0
2, 33160, Note_off_c, 1, 66, 0
2, 33200, Note_on_c, 1, 47, 127
2, 33200, Note_on_c, 1, 62, 127
2, 33200, Note_on_c, 1, 67, 127
2, 33360, Note_off_c, 1, 47, 0
2, 33360, Note_off_c, 1, 67, 0
2, 33400, Note_on_c, 1, 49, 127
2, 33400, Note_on_c, 1, 69, 127
2, 33560, Note_off_c, 1, 49, 0
2, 33560, Note_off_c, 1, 69, 0
2, 33600, Note_on_c, 1, 50, 127
2, 33600, Note_on_c, 1, 71, 127
2, 33760, Note_off_c, 1, 50, 0
2, 33760, Note_off_c, 1, 62, 0
2, 33760, Note_off_c, 1, 71, 0
2, 33800, Note_on_c, 1, 49, 127
2, 33800, Note_on_c, 1, 64, 127
2, 33800, Note_on_c, 1, 69, 127
2, 33960, Note_off_c, 1, 49, 0
2, 33960, Note_off_c, 1, 69, 0
2, 34000, Note_on_c, 1, 50, 127
2, 34000, Note_on_c, 1, 71, 127
2, 34200, Note_off_c, 1, 50, 0
2, 34200, Note_off_c, 1, 71, 0
2, 34240, Note_on_c, 1, 52, 127
2, 34240, Note_on_c, 1, 67, 127
2, 34400, Note_off_c, 1, 52, 0
2, 34400, Note_off_c, 1, 67, 0
2, 34440, Note_on_c, 1, 50, 127
2, 34440, Note_on_c, 1, 66, 127
2, 34600, Note_off_c, 1, 50, 0
2, 34600, Note_off_c, 1, 66, 0
2, 34640, Note_on_c, 1, 52, 127
2, 34640, Note_on_c, 1, 68, 127
2, 34800, Note_off_c, 1, 52, 0
2, 34800, Note_off_c, 1, 68, 0
2, 34840, Note_on_c, 1, 54, 127
2, 34840, Note_on_c, 1, 69, 127
2, 35000, Note_off_c, 1, 54, 0
2, 35000, Note_off_c, 1, 64, 0
2, 35000, Note_off_c, 1, 69, 0
2, 35040, Note_on_c, 1, 44, 127
2, 35040, Note_on_c, 1, 62, 127
2, 35040, Note_on_c, 1, 71, 127
2, 35200, Note_off_c, 1, 44, 0
2, 35240, Note_on_c, 1, 45, 127
2, 35400, Note_off_c, 1, 45, 0
2, 35440, Note_on_c, 1, 47, 127
2, 35600, Note_off_c, 1, 47, 0
2, 35600, Note_off_c, 1, 62, 0
2, 35640, Note_on_c, 1, 42, 127
2, 35640, Note_on_c, 1, 61, 127
2, 35680, Note_off_c, 1, 42, 0
2, 35720, Note_on_c, 1, 41, 127
2, 35760, Note_off_c, 1, 41, 0
2, 35800, Note_on_c, 1, 39, 127
2, 35800, Note_off_c, 1, 71, 0
2, 35840, Note_off_c, 1, 39, 0
2, 35840, Note_on_c, 1, 41, 127
2, 35840, Note_on_c, 1, 69, 127
2, 35880, Note_off_c, 1, 41, 0
2, 35920, Note_on_c, 1, 42, 127
2, 35960, Note_off_c, 1, 42, 0
2, 36000, Note_on_c, 1, 41, 127
2, 36000, Note_off_c, 1, 69, 0
2, 36040, Note_off_c, 1, 41, 0
2, 36040, Note_on_c, 1, 68, 127
2, 36080, Note_on_c, 1, 39, 127
2, 36120, Note_off_c, 1, 39, 0
2, 36160, Note_on_c, 1, 41, 127
2, 36200, Note_off_c, 1, 41, 0
2, 36200, Note_off_c, 1, 68, 0
2, 36240, Note_on_c, 1, 42, 127
2, 36240, Note_on_c, 1, 69, 127
2, 36400, Note_off_c, 1, 42, 0
2, 36400, Note_off_c, 1, 69, 0
2, 36440, Note_on_c, 1, 40, 127
2, 36440, Note_on_c, 1, 66, 127
2, 36600, Note_off_c, 1, 40, 0
2, 36600, Note_off_c, 1, 61, 0
2, 36600, Note_off_c, 1, 66, 0
2, 36640, Note_on_c, 1, 38, 127
2, 36640, Note_on_c, 1, 59, 127
2, 36640, Note_on_c, 1, 68, 127
2, 36800, Note_off_c, 1, 38, 0
2, 36800, Note_off_c, 1, 59, 0
2, 36800, Note_off_c, 1, 68, 0
2, 36840, Note_on_c, 1, 37, 127
2, 36840, Note_on_c, 1, 61, 127
2, 36840, Note_on_c, 1, 65, 127
2, 37000, Note_off_c, 1, 61, 0
2, 37040, Note_on_c, 1, 59, 127
2, 37200, Note_off_c, 1, 59, 0
2, 37240, Note_on_c, 1, 57, 127
2, 37400, Note_off_c, 1, 57, 0
2, 37440, Note_on_c, 1, 56, 127
2, 37600, Note_off_c, 1, 56, 0
2, 37640, Note_on_c, 1, 59, 127
2, 37800, Note_off_c, 1, 59, 0
2, 37840, Note_on_c, 1, 57, 127
2, 38000, Note_off_c, 1, 57, 0
2, 38080, Note_on_c, 1, 59, 127
2, 38200, Note_off_c, 1, 65, 0
2, 38280, Note_on_c, 1, 66, 127
2, 38440, Note_off_c, 1, 66, 0
2, 38480, Note_on_c, 1, 68, 127
2, 38640, Note_off_c, 1, 68, 0
2, 38680, Note_on_c, 1, 61, 127
2, 38840, Note_off_c, 1, 61, 0
2, 38880, Note_on_c, 1, 66, 127
2, 39040, Note_off_c, 1, 37, 0
2, 39040, Note_off_c, 1, 66, 0
2, 39080, Note_on_c, 1, 49, 127
2, 39080, Note_on_c, 1, 65, 127
2, 39240, Note_off_c, 1, 49, 0
2, 39240, Note_off_c, 1, 59, 0
2, 39240, Note_off_c, 1, 65, 0
2, 39280, Note_on_c, 1, 50, 127
2, 39280, Note_on_c, 1, 57, 127
2, 39280, Note_on_c, 1, 66, 127
2, 39440, Note_off_c, 1, 66, 0
2, 39480, Note_on_c, 1, 68, 127
2, 39640, Note_off_c, 1, 68, 0
2, 39680, Note_on_c, 1, 69, 127
2, 39840, Note_off_c, 1, 50, 0
2, 39840, Note_off_c, 1, 69, 0
2, 39880, Note_on_c, 1, 51, 127
2, 39880, Note_on_c, 1, 71, 127
2, 40040, Note_off_c, 1, 57, 0
2, 40080, Note_on_c, 1, 56, 127
2, 40240, Note_off_c, 1, 56, 0
2, 40280, Note_on_c, 1, 54, 127
2, 40440, Note_off_c, 1, 51, 0
2, 40440, Note_off_c, 1, 54, 0
2, 40480, Note_on_c, 1, 52, 127
2, 40480, Note_on_c, 1, 56, 127
2, 40640, Note_off_c, 1, 71, 0
2, 40680, Note_on_c, 1, 73, 127
2, 40840, Note_off_c, 1, 73, 0
2, 40880, Note_on_c, 1, 74, 127
2, 41040, Note_off_c, 1, 52, 0
2, 41040, Note_off_c, 1, 74, 0
2, 41080, Note_on_c, 1, 53, 127
2, 41080, Note_on_c, 1, 73, 127
2, 41240, Note_off_c, 1, 56, 0
2, 41240, Note_off_c, 1, 73, 0
2, 41280, Note_on_c, 1, 56, 127
2, 41280, Note_on_c, 1, 74, 127
2, 41440, Note_off_c, 1, 56, 0
2, 41440, Note_off_c, 1, 74, 0
2, 41480, Note_on_c, 1, 61, 127
2, 41480, Note_on_c, 1, 71, 127
2, 41640, Note_off_c, 1, 53, 0
2, 41640, Note_off_c, 1, 61, 0
2, 41640, Note_off_c, 1, 71, 0
2, 41680, Note_on_c, 1, 54, 127
2, 41680, Note_on_c, 1, 69, 127
2, 41840, Note_off_c, 1, 69, 0
2, 41880, Note_on_c, 1, 71, 127
2, 42080, Note_off_c, 1, 71, 0
2, 42120, Note_on_c, 1, 47, 127
2, 42120, Note_on_c, 1, 68, 127
2, 42280, Note_off_c, 1, 47, 0
2, 42280, Note_off_c, 1, 68, 0
2, 42320, Note_on_c, 1, 49, 127
2, 42320, Note_on_c, 1, 69, 127
2, 42360, Note_off_c, 1, 69, 0
2, 42400, Note_on_c, 1, 68, 127
2, 42440, Note_off_c, 1, 68, 0
2, 42440, Note_on_c, 1, 69, 127
2, 42480, Note_off_c, 1, 54, 0
2, 42480, Note_off_c, 1, 69, 0
2, 42520, Note_on_c, 1, 54, 127
2, 42520, Note_on_c, 1, 68, 127
2, 42560, Note_off_c, 1, 68, 0
2, 42560, Note_on_c, 1, 69, 127
2, 42600, Note_off_c, 1, 69, 0
2, 42640, Note_on_c, 1, 68, 127
2, 42680, Note_off_c, 1, 54, 0
2, 42680, Note_off_c, 1, 68, 0
2, 42720, Note_on_c, 1, 53, 127
2, 42720, Note_on_c, 1, 66, 127
2, 42880, Note_off_c, 1, 49, 0
2, 42880, Note_off_c, 1, 53, 0
2, 42880, Note_off_c, 1, 66, 0
2, 42920, Note_on_c, 1, 42, 127
2, 42920, Note_on_c, 1, 54, 127
2, 42920, Note_on_c, 1, 66, 127
2, 42920, Note_on_c, 1, 78, 127
2, 43080, Note_off_c, 1, 78, 0
2, 43120, Note_on_c, 1, 76, 127
2, 43280, Note_off_c, 1, 76, 0
2, 43320, Note_on_c, 1, 56, 127
2, 43320, Note_on_c, 1, 74, 127
2, 43480, Note_off_c, 1, 42, 0
2, 43480, Note_off_c, 1, 56, 0
2, 43480, Note_off_c, 1, 74, 0
2, 43520, Note_on_c, 1, 58, 127
2, 43520, Note_on_c, 1, 73, 127
2, 43680, Note_off_c, 1, 73, 0
2, 43720, Note_on_c, 1, 74, 127
2, 43880, Note_off_c, 1, 58, 0
2, 43880, Note_off_c, 1, 74, 0
2, 43920, Note_on_c, 1, 59, 127
2, 43920, Note_on_c, 1, 71, 127
2, 44080, Note_off_c, 1, 59, 0
2, 44080, Note_off_c, 1, 71, 0
2, 44120, Note_on_c, 1, 61, 127
2, 44120, Note_on_c, 1, 70, 127
2, 44280, Note_off_c, 1, 61, 0
2, 44280, Note_off_c, 1, 66, 0
2, 44320, Note_on_c, 1, 64, 127
2, 44480, Note_off_c, 1, 64, 0
2, 44480, Note_off_c, 1, 70, 0
2, 44520, Note_on_c, 1, 62, 127
2, 44520, Note_on_c, 1, 71, 127
2, 44680, Note_off_c, 1, 62, 0
2, 44680, Note_off_c, 1, 71, 0
2, 44720, Note_on_c, 1, 61, 127
2, 44720, Note_on_c, 1, 71, 127
2, 44800, Note_off_c, 1, 71, 0
2, 44840, Note_on_c, 1, 70, 127
2, 44880, Note_off_c, 1, 61, 0
2, 44880, Note_off_c, 1, 70, 0
2, 44880, Note_on_c, 1, 71, 127
2, 44920, Note_on_c, 1, 62, 127
2, 44920, Note_off_c, 1, 71, 0
2, 44960, Note_on_c, 1, 70, 127
2, 45000, Note_off_c, 1, 70, 0
2, 45000, Note_on_c, 1, 71, 127
2, 45040, Note_off_c, 1, 71, 0
2, 45080, Note_off_c, 1, 62, 0
2, 45080, Note_on_c, 1, 70, 127
2, 45120, Note_on_c, 1, 59, 127
2, 45120, Note_on_c, 1, 68, 127
2, 45120, Note_off_c, 1, 70, 0
2, 45280, Note_off_c, 1, 59, 0
2, 45280, Note_off_c, 1, 68, 0
2, 45320, Note_on_c, 1, 58, 127
2, 45320, Note_on_c, 1, 66, 127
2, 45520, Note_on_c, 1, 64, 127
2, 45680, Note_off_c, 1, 58, 0
2, 45680, Note_off_c, 1, 64, 0
2, 45720, Note_on_c, 1, 59, 127
2, 45720, Note_on_c, 1, 62, 127
2, 45880, Note_off_c, 1, 59, 0
2, 45880, Note_off_c, 1, 62, 0
2, 45920, Note_on_c, 1, 58, 127
2, 45920, Note_on_c, 1, 61, 127
2, 46080, Note_off_c, 1, 61, 0
2, 46120, Note_on_c, 1, 62, 127
2, 46280, Note_off_c, 1, 58, 0
2, 46280, Note_off_c, 1, 62, 0
2, 46360, Note_on_c, 1, 56, 127
2, 46360, Note_on_c, 1, 59, 127
2, 46480, Note_off_c, 1, 54, 0
2, 46520, Note_off_c, 1, 56, 0
2, 46520, Note_off_c, 1, 59, 0
2, 46560, Note_on_c, 1, 54, 127
2, 46560, Note_on_c, 1, 58, 127
2, 46720, Note_off_c, 1, 66, 0
2, 46760, Note_on_c, 1, 68, 127
2, 46920, Note_off_c, 1, 54, 0
2, 46920, Note_off_c, 1, 58, 0
2, 46920, Note_off_c, 1, 68, 0
2, 46960, Note_on_c, 1, 52, 127
2, 46960, Note_on_c, 1, 70, 127
2, 47120, Note_off_c, 1, 52, 0
2, 47120, Note_off_c, 1, 70, 0
2, 47160, Note_on_c, 1, 50, 127
2, 47160, Note_on_c, 1, 71, 127
2, 47320, Note_off_c, 1, 71, 0
2, 47360, Note_on_c, 1, 70, 127
2, 47520, Note_off_c, 1, 50, 0
2, 47520, Note_off_c, 1, 70, 0
2, 47560, Note_on_c, 1, 49, 127
2, 47560, Note_on_c, 1, 73, 127
2, 47720, Note_off_c, 1, 49, 0
2, 47720, Note_off_c, 1, 73, 0
2, 47760, Note_on_c, 1, 47, 127
2, 47760, Note_on_c, 1, 59, 127
2, 47760, Note_on_c, 1, 74, 127
2, 47920, Note_off_c, 1, 59, 0
2, 47960, Note_on_c, 1, 61, 127
2, 48120, Note_off_c, 1, 47, 0
2, 48120, Note_off_c, 1, 61, 0
2, 48160, Note_on_c, 1, 62, 127
2, 48320, Note_off_c, 1, 62, 0
2, 48360, Note_on_c, 1, 64, 127
2, 48520, Note_off_c, 1, 64, 0
2, 48560, Note_on_c, 1, 62, 127
2, 48720, Note_off_c, 1, 62, 0
2, 48760, Note_on_c, 1, 66, 127
2, 48920, Note_off_c, 1, 66, 0
2, 48960, Note_on_c, 1, 67, 127
2, 49120, Note_off_c, 1, 74, 0
2, 49160, Note_on_c, 1, 73, 127
2, 49320, Note_off_c, 1, 73, 0
2, 49360, Note_on_c, 1, 71, 127
2, 49520, Note_off_c, 1, 71, 0
2, 49560, Note_on_c, 1, 76, 127
2, 49720, Note_off_c, 1, 67, 0
2, 49760, Note_on_c, 1, 66, 127
2, 49920, Note_off_c, 1, 66, 0
2, 49960, Note_on_c, 1, 64, 127
2, 50120, Note_off_c, 1, 64, 0
2, 50200, Note_on_c, 1, 71, 127
2, 50360, Note_off_c, 1, 76, 0
2, 50400, Note_on_c, 1, 74, 127
2, 50560, Note_off_c, 1, 74, 0
2, 50600, Note_on_c, 1, 73, 127
2, 50760, Note_off_c, 1, 73, 0
2, 50800, Note_on_c, 1, 74, 127
2, 50960, Note_off_c, 1, 74, 0
2, 51000, Note_on_c, 1, 78, 127
2, 51160, Note_off_c, 1, 78, 0
2, 51200, Note_on_c, 1, 76, 127
2, 51360, Note_off_c, 1, 71, 0
2, 51360, Note_off_c, 1, 76, 0
2, 51400, Note_on_c, 1, 54, 127
2, 51400, Note_on_c, 1, 70, 127
2, 51400, Note_on_c, 1, 78, 127
2, 51560, Note_off_c, 1, 54, 0
2, 51560, Note_off_c, 1, 70, 0
2, 51600, Note_on_c, 1, 56, 127
2, 51600, Note_on_c, 1, 71, 127
2, 51760, Note_off_c, 1, 56, 0
2, 51760, Note_off_c, 1, 71, 0
2, 51800, Note_on_c, 1, 58, 127
2, 51800, Note_on_c, 1, 73, 127
2, 51960, Note_off_c, 1, 58, 0
2, 51960, Note_off_c, 1, 73, 0
2, 52000, Note_on_c, 1, 59, 127
2, 52000, Note_on_c, 1, 74, 127
2, 52160, Note_off_c, 1, 59, 0
2, 52160, Note_off_c, 1, 74, 0
2, 52200, Note_on_c, 1, 58, 127
2, 52200, Note_on_c, 1, 76, 127
2, 52360, Note_off_c, 1, 58, 0
2, 52360, Note_off_c, 1, 76, 0
2, 52400, Note_on_c, 1, 61, 127
2, 52400, Note_on_c, 1, 70, 127
2, 52560, Note_off_c, 1, 61, 0
2, 52560, Note_off_c, 1, 70, 0
2, 52600, Note_on_c, 1, 62, 127
2, 52600, Note_on_c, 1, 71, 127
2, 52760, Note_off_c, 1, 78, 0
2, 52800, Note_on_c, 1, 79, 127
2, 52960, Note_off_c, 1, 79, 0
2, 53000, Note_on_c, 1, 81, 127
2, 53160, Note_off_c, 1, 81, 0
2, 53200, Note_on_c, 1, 83, 127
2, 53360, Note_off_c, 1, 83, 0
2, 53400, Note_on_c, 1, 84, 127
2, 53560, Note_off_c, 1, 62, 0
2, 53560, Note_off_c, 1, 84, 0
2, 53600, Note_on_c, 1, 63, 127
2, 53600, Note_on_c, 1, 81, 127
2, 53760, Note_off_c, 1, 63, 0
2, 53760, Note_off_c, 1, 81, 0
2, 53800, Note_on_c, 1, 64, 127
2, 53800, Note_on_c, 1, 79, 127
2, 53960, Note_off_c, 1, 64, 0
2, 53960, Note_off_c, 1, 79, 0
2, 54000, Note_on_c, 1, 66, 127
2, 54000, Note_on_c, 1, 78, 127
2, 54200, Note_off_c, 1, 66, 0
2, 54200, Note_off_c, 1, 78, 0
2, 54240, Note_on_c, 1, 67, 127
2, 54240, Note_on_c, 1, 76, 127
2, 54400, Note_off_c, 1, 67, 0
2, 54400, Note_off_c, 1, 76, 0
2, 54440, Note_on_c, 1, 66, 127
2, 54440, Note_on_c, 1, 74, 127
2, 54600, Note_off_c, 1, 66, 0
2, 54600, Note_off_c, 1, 74, 0
2, 54640, Note_on_c, 1, 67, 127
2, 54640, Note_on_c, 1, 76, 127
2, 54800, Note_off_c, 1, 67, 0
2, 54800, Note_off_c, 1, 76, 0
2, 54840, Note_on_c, 1, 64, 127
2, 54840, Note_on_c, 1, 73, 127
2, 55000, Note_off_c, 1, 64, 0
2, 55000, Note_off_c, 1, 73, 0
2, 55040, Note_on_c, 1, 62, 127
2, 55040, Note_on_c, 1, 78, 127
2, 55200, Note_off_c, 1, 62, 0
2, 55240, Note_on_c, 1, 66, 127
2, 55400, Note_off_c, 1, 66, 0
2, 55400, Note_off_c, 1, 78, 0
2, 55440, Note_on_c, 1, 64, 127
2, 55440, Note_on_c, 1, 79, 127
2, 55600, Note_off_c, 1, 64, 0
2, 55600, Note_off_c, 1, 71, 0
2, 55600, Note_off_c, 1, 79, 0
2, 55640, Note_on_c, 1, 66, 127
2, 55640, Note_on_c, 1, 70, 127
2, 55640, Note_on_c, 1, 74, 127
2, 55680, Note_off_c, 1, 74, 0
2, 55720, Note_on_c, 1, 73, 127
2, 55760, Note_off_c, 1, 73, 0
2, 55800, Note_off_c, 1, 66, 0
2, 55800, Note_on_c, 1, 74, 127
2, 55840, Note_on_c, 1, 61, 127
2, 55840, Note_on_c, 1, 73, 127
2, 55840, Note_off_c, 1, 74, 0
2, 55880, Note_off_c, 1, 73, 0
2, 55920, Note_on_c, 1, 74, 127
2, 55960, Note_on_c, 1, 73, 127
2, 55960, Note_off_c, 1, 74, 0
2, 56000, Note_off_c, 1, 61, 0
2, 56000, Note_off_c, 1, 70, 0
2, 56000, Note_off_c, 1, 73, 0
2, 56040, Note_on_c, 1, 64, 127
2, 56040, Note_on_c, 1, 71, 127
2, 56200, Note_off_c, 1, 64, 0
2, 56200, Note_off_c, 1, 71, 0
2, 56240, Note_on_c, 1, 64, 127
2, 56240, Note_on_c, 1, 71, 127
2, 56240, Note_on_c, 1, 83, 127
2, 56280, Note_off_c, 1, 64, 0
2, 56320, Note_on_c, 1, 63, 127
2, 56360, Note_off_c, 1, 63, 0
2, 56400, Note_on_c, 1, 64, 127
2, 56400, Note_off_c, 1, 83, 0
2, 56440, Note_on_c, 1, 63, 127
2, 56440, Note_off_c, 1, 64, 0
2, 56440, Note_on_c, 1, 81, 127
2, 56600, Note_off_c, 1, 81, 0
2, 56640, Note_on_c, 1, 80, 127
2, 56800, Note_off_c, 1, 80, 0
2, 56840, Note_on_c, 1, 78, 127
2, 57000, Note_off_c, 1, 78, 0
2, 57040, Note_on_c, 1, 80, 127
2, 57200, Note_off_c, 1, 63, 0
2, 57200, Note_off_c, 1, 80, 0
2, 57240, Note_on_c, 1, 64, 127
2, 57240, Note_on_c, 1, 76, 127
2, 57400, Note_off_c, 1, 64, 0
2, 57400, Note_off_c, 1, 76, 0
2, 57440, Note_on_c, 1, 66, 127
2, 57440, Note_on_c, 1, 75, 127
2, 57600, Note_off_c, 1, 66, 0
2, 57600, Note_off_c, 1, 75, 0
2, 57640, Note_on_c, 1, 59, 127
2, 57640, Note_on_c, 1, 76, 127
2, 57800, Note_off_c, 1, 59, 0
2, 57800, Note_off_c, 1, 76, 0
2, 57840, Note_on_c, 1, 57, 127
2, 57840, Note_on_c, 1, 78, 127
2, 58000, Note_off_c, 1, 57, 0
2, 58000, Note_off_c, 1, 71, 0
2, 58000, Note_off_c, 1, 78, 0
2, 58040, Note_on_c, 1, 56, 127
2, 58040, Note_on_c, 1, 71, 127
2, 58240, Note_off_c, 1, 56, 0
2, 58280, Note_on_c, 1, 57, 127
2, 58280, Note_on_c, 1, 73, 127
2, 58400, Note_off_c, 1, 71, 0
2, 58440, Note_off_c, 1, 57, 0
2, 58440, Note_off_c, 1, 73, 0
2, 58480, Note_on_c, 1, 54, 127
2, 58480, Note_on_c, 1, 69, 127
2, 58480, Note_on_c, 1, 75, 127
2, 58640, Note_off_c, 1, 54, 0
2, 58640, Note_off_c, 1, 69, 0
2, 58640, Note_off_c, 1, 75, 0
2, 58680, Note_on_c, 1, 52, 127
2, 58680, Note_on_c, 1, 68, 127
2, 58680, Note_on_c, 1, 76, 127
2, 58840, Note_off_c, 1, 52, 0
2, 58840, Note_off_c, 1, 76, 0
2, 58880, Note_on_c, 1, 54, 127
2, 58880, Note_on_c, 1, 71, 127
2, 59040, Note_off_c, 1, 54, 0
2, 59040, Note_off_c, 1, 71, 0
2, 59080, Note_on_c, 1, 56, 127
2, 59080, Note_on_c, 1, 76, 127
2, 59240, Note_off_c, 1, 56, 0
2, 59240, Note_off_c, 1, 68, 0
2, 59280, Note_on_c, 1, 57, 127
2, 59280, Note_on_c, 1, 66, 127
2, 59440, Note_off_c, 1, 57, 0
2, 59440, Note_off_c, 1, 76, 0
2, 59480, Note_on_c, 1, 54, 127
2, 59480, Note_on_c, 1, 76, 127
2, 59640, Note_off_c, 1, 54, 0
2, 59640, Note_off_c, 1, 76, 0
2, 59680, Note_on_c, 1, 59, 127
2, 59680, Note_on_c, 1, 74, 127
2, 59840, Note_off_c, 1, 59, 0
2, 59840, Note_off_c, 1, 66, 0
2, 59880, Note_on_c, 1, 56, 127
2, 59880, Note_on_c, 1, 64, 127
2, 60040, Note_off_c, 1, 56, 0
2, 60040, Note_off_c, 1, 74, 0
2, 60080, Note_on_c, 1, 52, 127
2, 60080, Note_on_c, 1, 74, 127
2, 60240, Note_off_c, 1, 52, 0
2, 60240, Note_off_c, 1, 74, 0
2, 60280, Note_on_c, 1, 57, 127
2, 60280, Note_on_c, 1, 73, 127
2, 60440, Note_off_c, 1, 57, 0
2, 60440, Note_off_c, 1, 64, 0
2, 60480, Note_on_c, 1, 51, 127
2, 60480, Note_on_c, 1, 66, 127
2, 60640, Note_off_c, 1, 73, 0
2, 60680, Note_on_c, 1, 54, 127
2, 60680, Note_on_c, 1, 71, 127
2, 60840, Note_off_c, 1, 54, 0
2, 60840, Note_off_c, 1, 71, 0
2, 60880, Note_on_c, 1, 59, 127
2, 60880, Note_on_c, 1, 69, 127
2, 61040, Note_off_c, 1, 51, 0
2, 61040, Note_off_c, 1, 66, 0
2, 61040, Note_off_c, 1, 69, 0
2, 61080, Note_on_c, 1, 52, 127
2, 61080, Note_on_c, 1, 68, 127
2, 61240, Note_off_c, 1, 59, 0
2, 61280, Note_on_c, 1, 61, 127
2, 61440, Note_off_c, 1, 61, 0
2, 61480, Note_on_c, 1, 47, 127
2, 61480, Note_on_c, 1, 63, 127
2, 61640, Note_off_c, 1, 47, 0
2, 61640, Note_off_c, 1, 63, 0
2, 61680, Note_on_c, 1, 44, 127
2, 61680, Note_on_c, 1, 64, 127
2, 61840, Note_off_c, 1, 44, 0
2, 61840, Note_off_c, 1, 64, 0
2, 61880, Note_on_c, 1, 45, 127
2, 61880, Note_on_c, 1, 63, 127
2, 62040, Note_off_c, 1, 45, 0
2, 62040, Note_off_c, 1, 63, 0
2, 62120, Note_on_c, 1, 47, 127
2, 62120, Note_on_c, 1, 66, 127
2, 62280, Note_off_c, 1, 47, 0
2, 62280, Note_off_c, 1, 66, 0
2, 62320, Note_on_c, 1, 40, 127
2, 62320, Note_on_c, 1, 64, 127
2, 62480, Note_off_c, 1, 52, 0
2, 62480, Note_off_c, 1, 68, 0
2, 62520, Note_on_c, 1, 54, 127
2, 62520, Note_on_c, 1, 69, 127
2, 62680, Note_off_c, 1, 40, 0
2, 62680, Note_off_c, 1, 54, 0
2, 62680, Note_off_c, 1, 69, 0
2, 62720, Note_on_c, 1, 56, 127
2, 62720, Note_on_c, 1, 71, 127
2, 62880, Note_off_c, 1, 56, 0
2, 62880, Note_off_c, 1, 71, 0
2, 62920, Note_on_c, 1, 57, 127
2, 62920, Note_on_c, 1, 73, 127
2, 63080, Note_off_c, 1, 57, 0
2, 63080, Note_off_c, 1, 73, 0
2, 63120, Note_on_c, 1, 56, 127
2, 63120, Note_on_c, 1, 71, 127
2, 63280, Note_off_c, 1, 56, 0
2, 63280, Note_off_c, 1, 71, 0
2, 63320, Note_on_c, 1, 59, 127
2, 63320, Note_on_c, 1, 74, 127
2, 63480, Note_off_c, 1, 59, 0
2, 63480, Note_off_c, 1, 74, 0
2, 63520, Note_on_c, 1, 57, 127
2, 63520, Note_on_c, 1, 73, 127
2, 63680, Note_off_c, 1, 64, 0
2, 63720, Note_on_c, 1, 66, 127
2, 63880, Note_off_c, 1, 66, 0
2, 63920, Note_on_c, 1, 52, 127
2, 63920, Note_on_c, 1, 68, 127
2, 64080, Note_off_c, 1, 52, 0
2, 64080, Note_off_c, 1, 68, 0
2, 64120, Note_on_c, 1, 49, 127
2, 64120, Note_on_c, 1, 69, 127
2, 64280, Note_off_c, 1, 49, 0
2, 64280, Note_off_c, 1, 69, 0
2, 64320, Note_on_c, 1, 50, 127
2, 64320, Note_on_c, 1, 68, 127
2, 64480, Note_off_c, 1, 50, 0
2, 64480, Note_off_c, 1, 68, 0
2, 64520, Note_on_c, 1, 52, 127
2, 64520, Note_on_c, 1, 71, 127
2, 64680, Note_off_c, 1, 52, 0
2, 64680, Note_off_c, 1, 71, 0
2, 64720, Note_on_c, 1, 45, 127
2, 64720, Note_on_c, 1, 69, 127
2, 64880, Note_off_c, 1, 57, 0
2, 64880, Note_off_c, 1, 73, 0
2, 64920, Note_on_c, 1, 59, 127
2, 64920, Note_on_c, 1, 74, 127
2, 65080, Note_off_c, 1, 45, 0
2, 65080, Note_off_c, 1, 59, 0
2, 65080, Note_off_c, 1, 74, 0
2, 65120, Note_on_c, 1, 61, 127
2, 65120, Note_on_c, 1, 76, 127
2, 65280, Note_off_c, 1, 61, 0
2, 65280, Note_off_c, 1, 76, 0
2, 65320, Note_on_c, 1, 62, 127
2, 65320, Note_on_c, 1, 78, 127
2, 65480, Note_off_c, 1, 62, 0
2, 65480, Note_off_c, 1, 78, 0
2, 65520, Note_on_c, 1, 61, 127
2, 65520, Note_on_c, 1, 76, 127
2, 65680, Note_off_c, 1, 61, 0
2, 65680, Note_off_c, 1, 76, 0
2, 65720, Note_on_c, 1, 64, 127
2, 65720, Note_on_c, 1, 79, 127
2, 65880, Note_off_c, 1, 64, 0
2, 65880, Note_off_c, 1, 79, 0
2, 65960, Note_on_c, 1, 62, 127
2, 65960, Note_on_c, 1, 78, 127
2, 66080, Note_off_c, 1, 69, 0
2, 66160, Note_on_c, 1, 71, 127
2, 66320, Note_off_c, 1, 71, 0
2, 66360, Note_on_c, 1, 57, 127
2, 66360, Note_on_c, 1, 73, 127
2, 66520, Note_off_c, 1, 57, 0
2, 66520, Note_off_c, 1, 73, 0
2, 66560, Note_on_c, 1, 54, 127
2, 66560, Note_on_c, 1, 74, 127
2, 66720, Note_off_c, 1, 54, 0
2, 66720, Note_off_c, 1, 74, 0
2, 66760, Note_on_c, 1, 55, 127
2, 66760, Note_on_c, 1, 73, 127
2, 66920, Note_off_c, 1, 55, 0
2, 66920, Note_off_c, 1, 73, 0
2, 66960, Note_on_c, 1, 57, 127
2, 66960, Note_on_c, 1, 76, 127
2, 67120, Note_off_c, 1, 57, 0
2, 67120, Note_off_c, 1, 62, 0
2, 67120, Note_off_c, 1, 76, 0
2, 67160, Note_on_c, 1, 50, 127
2, 67160, Note_on_c, 1, 74, 127
2, 67320, Note_off_c, 1, 50, 0
2, 67320, Note_off_c, 1, 78, 0
2, 67360, Note_on_c, 1, 54, 127
2, 67360, Note_on_c, 1, 80, 127
2, 67520, Note_off_c, 1, 54, 0
2, 67520, Note_off_c, 1, 80, 0
2, 67560, Note_on_c, 1, 50, 127
2, 67560, Note_on_c, 1, 81, 127
2, 67720, Note_off_c, 1, 50, 0
2, 67720, Note_off_c, 1, 81, 0
2, 67760, Note_on_c, 1, 47, 127
2, 67760, Note_on_c, 1, 83, 127
2, 67920, Note_off_c, 1, 47, 0
2, 67920, Note_off_c, 1, 83, 0
2, 67960, Note_on_c, 1, 50, 127
2, 67960, Note_on_c, 1, 78, 127
2, 68120, Note_off_c, 1, 50, 0
2, 68120, Note_off_c, 1, 78, 0
2, 68160, Note_on_c, 1, 47, 127
2, 68160, Note_on_c, 1, 81, 127
2, 68320, Note_off_c, 1, 47, 0
2, 68320, Note_off_c, 1, 81, 0
2, 68360, Note_on_c, 1, 52, 127
2, 68360, Note_on_c, 1, 80, 127
2, 68520, Note_off_c, 1, 80, 0
2, 68560, Note_on_c, 1, 78, 127
2, 68720, Note_off_c, 1, 78, 0
2, 68760, Note_on_c, 1, 76, 127
2, 68920, Note_off_c, 1, 74, 0
2, 68920, Note_off_c, 1, 76, 0
2, 68960, Note_on_c, 1, 73, 127
2, 68960, Note_on_c, 1, 81, 127
2, 69120, Note_off_c, 1, 73, 0
2, 69160, Note_on_c, 1, 71, 127
2, 69320, Note_off_c, 1, 71, 0
2, 69360, Note_on_c, 1, 69, 127
2, 69520, Note_off_c, 1, 69, 0
2, 69560, Note_on_c, 1, 71, 127
2, 69720, Note_off_c, 1, 81, 0
2, 69800, Note_on_c, 1, 80, 127
2, 69960, Note_off_c, 1, 80, 0
2, 70000, Note_on_c, 1, 78, 127
2, 70160, Note_off_c, 1, 78, 0
2, 70200, Note_on_c, 1, 80, 127
2, 70360, Note_off_c, 1, 52, 0
2, 70360, Note_off_c, 1, 71, 0
2, 70360, Note_off_c, 1, 80, 0
2, 70400, Note_on_c, 1, 64, 127
2, 70400, Note_on_c, 1, 73, 127
2, 70400, Note_on_c, 1, 76, 127
2, 70560, Note_off_c, 1, 64, 0
2, 70560, Note_off_c, 1, 73, 0
2, 70560, Note_off_c, 1, 76, 0
2, 70600, Note_on_c, 1, 62, 127
2, 70600, Note_on_c, 1, 74, 127
2, 70600, Note_on_c, 1, 78, 127
2, 70760, Note_off_c, 1, 62, 0
2, 70760, Note_off_c, 1, 74, 0
2, 70760, Note_off_c, 1, 78, 0
2, 70800, Note_on_c, 1, 61, 127
2, 70800, Note_on_c, 1, 76, 127
2, 70800, Note_on_c, 1, 79, 127
2, 70960, Note_off_c, 1, 61, 0
2, 70960, Note_off_c, 1, 76, 0
2, 71000, Note_on_c, 1, 62, 127
2, 71000, Note_on_c, 1, 74, 127
2, 71160, Note_off_c, 1, 62, 0
2, 71160, Note_off_c, 1, 74, 0
2, 71200, Note_on_c, 1, 59, 127
2, 71200, Note_on_c, 1, 78, 127
2, 71360, Note_off_c, 1, 59, 0
2, 71360, Note_off_c, 1, 78, 0
2, 71400, Note_on_c, 1, 61, 127
2, 71400, Note_on_c, 1, 76, 127
2, 71560, Note_off_c, 1, 61, 0
2, 71600, Note_on_c, 1, 59, 127
2, 71760, Note_off_c, 1, 59, 0
2, 71800, Note_on_c, 1, 57, 127
2, 71960, Note_off_c, 1, 57, 0
2, 71960, Note_off_c, 1, 79, 0
2, 72000, Note_on_c, 1, 62, 127
2, 72000, Note_on_c, 1, 78, 127
2, 72160, Note_off_c, 1, 76, 0
2, 72200, Note_on_c, 1, 69, 127
2, 72360, Note_off_c, 1, 69, 0
2, 72400, Note_on_c, 1, 73, 127
2, 72560, Note_off_c, 1, 73, 0
2, 72600, Note_on_c, 1, 74, 127
2, 72760, Note_off_c, 1, 62, 0
2, 72800, Note_on_c, 1, 59, 127
2, 72960, Note_off_c, 1, 59, 0
2, 73000, Note_on_c, 1, 62, 127
2, 73160, Note_off_c, 1, 62, 0
2, 73160, Note_off_c, 1, 78, 0
2, 73200, Note_on_c, 1, 56, 127
2, 73200, Note_on_c, 1, 76, 127
2, 73360, Note_off_c, 1, 56, 0
2, 73360, Note_off_c, 1, 74, 0
2, 73400, Note_on_c, 1, 59, 127
2, 73400, Note_on_c, 1, 68, 127
2, 73560, Note_off_c, 1, 59, 0
2, 73560, Note_off_c, 1, 68, 0
2, 73600, Note_on_c, 1, 52, 127
2, 73600, Note_on_c, 1, 71, 127
2, 73800, Note_off_c, 1, 52, 0
2, 73800, Note_off_c, 1, 71, 0
2, 73840, Note_on_c, 1, 57, 127
2, 73840, Note_on_c, 1, 73, 127
2, 74000, Note_off_c, 1, 57, 0
2, 74040, Note_on_c, 1, 49, 127
2, 74200, Note_off_c, 1, 49, 0
2, 74240, Note_on_c, 1, 52, 127
2, 74400, Note_off_c, 1, 52, 0
2, 74400, Note_off_c, 1, 76, 0
2, 74440, Note_on_c, 1, 42, 127
2, 74440, Note_on_c, 1, 74, 127
2, 74600, Note_off_c, 1, 73, 0
2, 74640, Note_on_c, 1, 71, 127
2, 74800, Note_off_c, 1, 71, 0
2, 74840, Note_on_c, 1, 69, 127
2, 75000, Note_off_c, 1, 42, 0
2, 75000, Note_off_c, 1, 69, 0
2, 75040, Note_on_c, 1, 42, 127
2, 75040, Note_on_c, 1, 71, 127
2, 75080, Note_off_c, 1, 42, 0
2, 75120, Note_on_c, 1, 44, 127
2, 75160, Note_off_c, 1, 44, 0
2, 75160, Note_on_c, 1, 45, 127
2, 75200, Note_off_c, 1, 45, 0
2, 75200, Note_off_c, 1, 74, 0
2, 75240, Note_on_c, 1, 44, 127
2, 75240, Note_on_c, 1, 73, 127
2, 75280, Note_off_c, 1, 44, 0
2, 75320, Note_on_c, 1, 45, 127
2, 75360, Note_off_c, 1, 45, 0
2, 75400, Note_on_c, 1, 44, 127
2, 75400, Note_off_c, 1, 71, 0
2, 75400, Note_off_c, 1, 73, 0
2, 75440, Note_off_c, 1, 44, 0
2, 75440, Note_on_c, 1, 71, 127
2, 75480, Note_on_c, 1, 42, 127
2, 75520, Note_off_c, 1, 42, 0
2, 75520, Note_on_c, 1, 44, 127
2, 75600, Note_off_c, 1, 44, 0
2, 75600, Note_off_c, 1, 71, 0
2, 75640, Note_on_c, 1, 45, 127
2, 75640, Note_on_c, 1, 73, 127
2, 75800, Note_off_c, 1, 45, 0
2, 75840, Note_on_c, 1, 49, 127
2, 75840, Note_on_c, 1, 69, 127
2, 76000, Note_off_c, 1, 49, 0
2, 76000, Note_off_c, 1, 69, 0
2, 76040, Note_on_c, 1, 52, 127
2, 76040, Note_on_c, 1, 67, 127
2, 76200, Note_off_c, 1, 52, 0
2, 76200, Note_off_c, 1, 67, 0
2, 76240, Note_on_c, 1, 57, 127
2, 76240, Note_on_c, 1, 66, 127
2, 76400, Note_off_c, 1, 57, 0
2, 76400, Note_off_c, 1, 66, 0
2, 76440, Note_on_c, 1, 45, 127
2, 76440, Note_on_c, 1, 67, 127
2, 76600, Note_off_c, 1, 45, 0
2, 76600, Note_off_c, 1, 67, 0
2, 76640, Note_on_c, 1, 49, 127
2, 76640, Note_on_c, 1, 64, 127
2, 76800, Note_off_c, 1, 49, 0
2, 76800, Note_off_c, 1, 64, 0
2, 76840, Note_on_c, 1, 38, 127
2, 76840, Note_on_c, 1, 66, 127
2, 77000, Note_off_c, 1, 73, 0
2, 77040, Note_on_c, 1, 74, 127
2, 77200, Note_off_c, 1, 74, 0
2, 77240, Note_on_c, 1, 73, 127
2, 77400, Note_off_c, 1, 38, 0
2, 77400, Note_off_c, 1, 73, 0
2, 77440, Note_on_c, 1, 37, 127
2, 77440, Note_on_c, 1, 71, 127
2, 77480, Note_off_c, 1, 37, 0
2, 77520, Note_on_c, 1, 39, 127
2, 77560, Note_off_c, 1, 39, 0
2, 77600, Note_on_c, 1, 40, 127
2, 77640, Note_off_c, 1, 40, 0
2, 77640, Note_off_c, 1, 71, 0
2, 77680, Note_on_c, 1, 39, 127
2, 77680, Note_on_c, 1, 73, 127
2, 77720, Note_off_c, 1, 39, 0
2, 77760, Note_on_c, 1, 40, 127
2, 77800, Note_on_c, 1, 39, 127
2, 77800, Note_off_c, 1, 40, 0
2, 77840, Note_off_c, 1, 39, 0
2, 77840, Note_off_c, 1, 73, 0
2, 77880, Note_on_c, 1, 37, 127
2, 77880, Note_on_c, 1, 69, 127
2, 77920, Note_off_c, 1, 37, 0
2, 77960, Note_on_c, 1, 39, 127
2, 78040, Note_off_c, 1, 39, 0
2, 78040, Note_off_c, 1, 66, 0
2, 78040, Note_off_c, 1, 69, 0
2, 78080, Note_on_c, 1, 40, 127
2, 78080, Note_on_c, 1, 64, 127
2, 78080, Note_on_c, 1, 69, 127
2, 78120, Note_off_c, 1, 69, 0
2, 78160, Note_on_c, 1, 68, 127
2, 78200, Note_off_c, 1, 68, 0
2, 78240, Note_off_c, 1, 64, 0
2, 78240, Note_on_c, 1, 69, 127
2, 78280, Note_on_c, 1, 62, 127
2, 78280, Note_off_c, 1, 69, 0
2, 78320, Note_on_c, 1, 68, 127
2, 78360, Note_off_c, 1, 68, 0
2, 78400, Note_on_c, 1, 69, 127
2, 78440, Note_off_c, 1, 40, 0
2, 78440, Note_off_c, 1, 62, 0
2, 78440, Note_off_c, 1, 69, 0
2, 78480, Note_on_c, 1, 61, 127
2, 78480, Note_on_c, 1, 68, 127
2, 78640, Note_off_c, 1, 61, 0
2, 78680, Note_on_c, 1, 59, 127
2, 78840, Note_off_c, 1, 59, 0
2, 78840, Note_off_c, 1, 68, 0
2, 78880, Note_on_c, 1, 61, 127
2, 78880, Note_on_c, 1, 69, 127
2, 79040, Note_off_c, 1, 61, 0
2, 79040, Note_off_c, 1, 69, 0
2, 79080, Note_on_c, 1, 57, 127
2, 79080, Note_on_c, 1, 71, 127
2, 79240, Note_off_c, 1, 57, 0
2, 79240, Note_off_c, 1, 71, 0
2, 79280, Note_on_c, 1, 56, 127
2, 79280, Note_on_c, 1, 64, 127
2, 79480, Note_on_c, 1, 62, 127
2, 79640, Note_off_c, 1, 56, 0
2, 79640, Note_off_c, 1, 62, 0
2, 79680, Note_on_c, 1, 57, 127
2, 79680, Note_on_c, 1, 61, 127
2, 79840, Note_off_c, 1, 57, 0
2, 79840, Note_off_c, 1, 61, 0
2, 79880, Note_on_c, 1, 56, 127
2, 79880, Note_on_c, 1, 59, 127
2, 80040, Note_off_c, 1, 59, 0
2, 80040, Note_off_c, 1, 64, 0
2, 80080, Note_on_c, 1, 61, 127
2, 80240, Note_off_c, 1, 56, 0
2, 80240, Note_off_c, 1, 61, 0
2, 80280, Note_on_c, 1, 54, 127
2, 80280, Note_on_c, 1, 57, 127
2, 80440, Note_off_c, 1, 54, 0
2, 80440, Note_off_c, 1, 57, 0
2, 80480, Note_on_c, 1, 52, 127
2, 80480, Note_on_c, 1, 56, 127
2, 80480, Note_on_c, 1, 76, 127
2, 80640, Note_off_c, 1, 76, 0
2, 80680, Note_on_c, 1, 74, 127
2, 80840, Note_off_c, 1, 52, 0
2, 80840, Note_off_c, 1, 56, 0
2, 80840, Note_off_c, 1, 74, 0
2, 80880, Note_on_c, 1, 54, 127
2, 80880, Note_on_c, 1, 57, 127
2, 80880, Note_on_c, 1, 73, 127
2, 81040, Note_off_c, 1, 54, 0
2, 81040, Note_off_c, 1, 57, 0
2, 81040, Note_off_c, 1, 73, 0
2, 81080, Note_on_c, 1, 56, 127
2, 81080, Note_on_c, 1, 59, 127
2, 81080, Note_on_c, 1, 71, 127
2, 81240, Note_off_c, 1, 59, 0
2, 81240, Note_off_c, 1, 71, 0
2, 81280, Note_on_c, 1, 64, 127
2, 81280, Note_on_c, 1, 74, 127
2, 81440, Note_off_c, 1, 56, 0
2, 81440, Note_off_c, 1, 64, 0
2, 81440, Note_off_c, 1, 74, 0
2, 81480, Note_on_c, 1, 57, 127
2, 81480, Note_on_c, 1, 66, 127
2, 81480, Note_on_c, 1, 73, 127
2, 81680, Note_off_c, 1, 57, 0
2, 81680, Note_off_c, 1, 66, 0
2, 81680, Note_off_c, 1, 73, 0
2, 81720, Note_on_c, 1, 52, 127
2, 81720, Note_on_c, 1, 59, 127
2, 81720, Note_on_c, 1, 68, 127
2, 81720, Note_on_c, 1, 74, 127
2, 81880, Note_off_c, 1, 52, 0
2, 81920, Note_on_c, 1, 50, 127
2, 82080, Note_off_c, 1, 50, 0
2, 82080, Note_off_c, 1, 59, 0
2, 82120, Note_on_c, 1, 49, 127
2, 82280, Note_off_c, 1, 49, 0
2, 82320, Note_on_c, 1, 47, 127
2, 82480, Note_off_c, 1, 47, 0
2, 82520, Note_on_c, 1, 49, 127
2, 82680, Note_off_c, 1, 49, 0
2, 82680, Note_off_c, 1, 68, 0
2, 82720, Note_on_c, 1, 45, 127
2, 82720, Note_on_c, 1, 69, 127
2, 82880, Note_off_c, 1, 45, 0
2, 82880, Note_off_c, 1, 69, 0
2, 82920, Note_on_c, 1, 44, 127
2, 82920, Note_on_c, 1, 71, 127
2, 83080, Note_off_c, 1, 44, 0
2, 83120, Note_on_c, 1, 42, 127
2, 83280, Note_off_c, 1, 42, 0
2, 83320, Note_on_c, 1, 40, 127
2, 83480, Note_off_c, 1, 40, 0
2, 83480, Note_off_c, 1, 74, 0
2, 83520, Note_on_c, 1, 45, 127
2, 83520, Note_on_c, 1, 73, 127
2, 83680, Note_off_c, 1, 45, 0
2, 83680, Note_off_c, 1, 71, 0
2, 83720, Note_on_c, 1, 47, 127
2, 83720, Note_on_c, 1, 69, 127
2, 83880, Note_off_c, 1, 47, 0
2, 83880, Note_off_c, 1, 69, 0
2, 83920, Note_on_c, 1, 49, 127
2, 83920, Note_on_c, 1, 67, 127
2, 84080, Note_off_c, 1, 49, 0
2, 84080, Note_off_c, 1, 67, 0
2, 84120, Note_on_c, 1, 50, 127
2, 84120, Note_on_c, 1, 66, 127
2, 84280, Note_off_c, 1, 50, 0
2, 84280, Note_off_c, 1, 73, 0
2, 84320, Note_on_c, 1, 49, 127
2, 84320, Note_on_c, 1, 74, 127
2, 84480, Note_off_c, 1, 49, 0
2, 84480, Note_off_c, 1, 74, 0
2, 84520, Note_on_c, 1, 52, 127
2, 84520, Note_on_c, 1, 73, 127
2, 84680, Note_off_c, 1, 52, 0
2, 84680, Note_off_c, 1, 66, 0
2, 84680, Note_off_c, 1, 73, 0
2, 84720, Note_on_c, 1, 50, 127
2, 84720, Note_on_c, 1, 65, 127
2, 84720, Note_on_c, 1, 71, 127
2, 84880, Note_off_c, 1, 50, 0
2, 84880, Note_off_c, 1, 71, 0
2, 84920, Note_on_c, 1, 52, 127
2, 84920, Note_on_c, 1, 72, 127
2, 85080, Note_off_c, 1, 52, 0
2, 85080, Note_off_c, 1, 72, 0
2, 85120, Note_on_c, 1, 53, 127
2, 85120, Note_on_c, 1, 69, 127
2, 85280, Note_off_c, 1, 53, 0
2, 85280, Note_off_c, 1, 69, 0
2, 85320, Note_on_c, 1, 52, 127
2, 85320, Note_on_c, 1, 68, 127
2, 85520, Note_off_c, 1, 65, 0
2, 85560, Note_on_c, 1, 64, 127
2, 85720, Note_off_c, 1, 64, 0
2, 85760, Note_on_c, 1, 62, 127
2, 85920, Note_off_c, 1, 52, 0
2, 85920, Note_off_c, 1, 62, 0
2, 85960, Note_on_c, 1, 61, 127
2, 86120, Note_off_c, 1, 61, 0
2, 86120, Note_off_c, 1, 68, 0
2, 86160, Note_on_c, 1, 62, 127
2, 86160, Note_on_c, 1, 71, 127
2, 86320, Note_off_c, 1, 62, 0
2, 86320, Note_off_c, 1, 71, 0
2, 86360, Note_on_c, 1, 59, 127
2, 86360, Note_on_c, 1, 68, 127
2, 86520, Note_off_c, 1, 59, 0
2, 86520, Note_off_c, 1, 68, 0
2, 86560, Note_on_c, 1, 61, 127
2, 86560, Note_on_c, 1, 64, 127
2, 86720, Note_off_c, 1, 64, 0
2, 86760, Note_on_c, 1, 76, 127
2, 86920, Note_off_c, 1, 76, 0
2, 86960, Note_on_c, 1, 69, 127
2, 87120, Note_off_c, 1, 61, 0
2, 87160, Note_on_c, 1, 59, 127
2, 87160, Note_on_c, 1, 62, 127
2, 87320, Note_off_c, 1, 69, 0
2, 87360, Note_on_c, 1, 71, 127
2, 87520, Note_off_c, 1, 71, 0
2, 87560, Note_on_c, 1, 68, 127
2, 87720, Note_off_c, 1, 62, 0
2, 87720, Note_off_c, 1, 68, 0
2, 87760, Note_off_c, 1, 59, 0
2, 87800, Note_on_c, 1, 57, 127
2, 87800, Note_on_c, 1, 61, 127
2, 87800, Note_on_c, 1, 69, 127
2, 87800, Note_on_c, 1, 81, 127
2, 87960, Note_off_c, 1, 81, 0
2, 88000, Note_on_c, 1, 80, 127
2, 88160, Note_off_c, 1, 61, 0
2, 88160, Note_off_c, 1, 80, 0
2, 88200, Note_on_c, 1, 62, 127
2, 88200, Note_on_c, 1, 78, 127
2, 88360, Note_off_c, 1, 62, 0
2, 88360, Note_off_c, 1, 78, 0
2, 88400, Note_on_c, 1, 61, 127
2, 88400, Note_on_c, 1, 76, 127
2, 88560, Note_off_c, 1, 76, 0
2, 88600, Note_on_c, 1, 78, 127
2, 88760, Note_off_c, 1, 61, 0
2, 88760, Note_off_c, 1, 78, 0
2, 88800, Note_on_c, 1, 59, 127
2, 88800, Note_on_c, 1, 74, 127
2, 88960, Note_off_c, 1, 57, 0
2, 88960, Note_off_c, 1, 59, 0
2, 88960, Note_off_c, 1, 74, 0
2, 89000, Note_on_c, 1, 57, 127
2, 89000, Note_on_c, 1, 73, 127
2, 89160, Note_off_c, 1, 69, 0
2, 89200, Note_on_c, 1, 68, 127
2, 89360, Note_off_c, 1, 68, 0
2, 89360, Note_off_c, 1, 73, 0
2, 89400, Note_on_c, 1, 66, 127
2, 89400, Note_on_c, 1, 74, 127
2, 89560, Note_off_c, 1, 66, 0
2, 89560, Note_off_c, 1, 74, 0
2, 89600, Note_on_c, 1, 64, 127
2, 89600, Note_on_c, 1, 74, 127
2, 89680, Note_off_c, 1, 74, 0
2, 89720, Note_on_c, 1, 73, 127
2, 89760, Note_off_c, 1, 64, 0
2, 89760, Note_off_c, 1, 73, 0
2, 89760, Note_on_c, 1, 74, 127
2, 89800, Note_on_c, 1, 66, 127
2, 89800, Note_on_c, 1, 73, 127
2, 89800, Note_off_c, 1, 74, 0
2, 89840, Note_off_c, 1, 73, 0
2, 89880, Note_on_c, 1, 74, 127
2, 89920, Note_on_c, 1, 73, 127
2, 89920, Note_off_c, 1, 74, 0
2, 89960, Note_off_c, 1, 66, 0
2, 89960, Note_off_c, 1, 73, 0
2, 90000, Note_on_c, 1, 62, 127
2, 90000, Note_on_c, 1, 71, 127
2, 90160, Note_off_c, 1, 57, 0
2, 90200, Note_off_c, 1, 62, 0
2, 90200, Note_off_c, 1, 71, 0
2, 90240, Note_on_c, 1, 57, 127
2, 90240, Note_on_c, 1, 61, 127
2, 90240, Note_on_c, 1, 69, 127
2, 90400, Note_off_c, 1, 61, 0
2, 90440, Note_on_c, 1, 62, 127
2, 90440, Note_on_c, 1, 71, 127
2, 90600, Note_off_c, 1, 62, 0
2, 90600, Note_off_c, 1, 71, 0
2, 90640, Note_on_c, 1, 64, 127
2, 90640, Note_on_c, 1, 73, 127
2, 90800, Note_off_c, 1, 64, 0
2, 90800, Note_off_c, 1, 73, 0
2, 90840, Note_on_c, 1, 66, 127
2, 90840, Note_on_c, 1, 74, 127
2, 91000, Note_off_c, 1, 66, 0
2, 91000, Note_off_c, 1, 74, 0
2, 91040, Note_on_c, 1, 62, 127
2, 91040, Note_on_c, 1, 78, 127
2, 91240, Note_off_c, 1, 62, 0
2, 91240, Note_off_c, 1, 78, 0
2, 91280, Note_on_c, 1, 61, 127
2, 91280, Note_on_c, 1, 76, 127
2, 91440, Note_off_c, 1, 61, 0
2, 91440, Note_off_c, 1, 76, 0
2, 91480, Note_on_c, 1, 62, 127
2, 91480, Note_on_c, 1, 78, 127
2, 91640, Note_off_c, 1, 62, 0
2, 91640, Note_off_c, 1, 69, 0
2, 91640, Note_off_c, 1, 78, 0
2, 91680, Note_on_c, 1, 66, 127
2, 91680, Note_on_c, 1, 74, 127
2, 91840, Note_off_c, 1, 66, 0
2, 91880, Note_on_c, 1, 64, 127
2, 91880, Note_on_c, 1, 76, 127
2, 92080, Note_off_c, 1, 64, 0
2, 92080, Note_off_c, 1, 76, 0
2, 92120, Note_on_c, 1, 62, 127
2, 92120, Note_on_c, 1, 78, 127
2, 92280, Note_off_c, 1, 62, 0
2, 92320, Note_on_c, 1, 66, 127
2, 92320, Note_on_c, 1, 81, 127
2, 92480, Note_off_c, 1, 66, 0
2, 92480, Note_off_c, 1, 81, 0
2, 92520, Note_on_c, 1, 64, 127
2, 92520, Note_on_c, 1, 80, 127
2, 92680, Note_off_c, 1, 57, 0
2, 92720, Note_off_c, 1, 64, 0
2, 92720, Note_off_c, 1, 80, 0
2, 92760, Note_on_c, 1, 57, 127
2, 92760, Note_on_c, 1, 66, 127
2, 92760, Note_on_c, 1, 81, 127
2, 92920, Note_off_c, 1, 66, 0
2, 92960, Note_on_c, 1, 69, 127
2, 93200, Note_on_c, 1, 68, 127
2, 93360, Note_off_c, 1, 68, 0
2, 93360, Note_off_c, 1, 69, 0
2, 93440, Note_on_c, 1, 69, 127
2, 93640, Note_off_c, 1, 74, 0
2, 93640, Note_off_c, 1, 78, 0
2, 93680, Note_on_c, 1, 73, 127
2, 93680, Note_on_c, 1, 76, 127
2, 93920, Note_off_c, 1, 73, 0
2, 93920, Note_off_c, 1, 76, 0
2, 94000, Note_on_c, 1, 71, 127
2, 94000, Note_on_c, 1, 74, 127
2, 94160, Note_off_c, 1, 69, 0
2, 94200, Note_off_c, 1, 71, 0
2, 94200, Note_off_c, 1, 74, 0
2, 94280, Note_on_c, 1, 45, 127
2, 94280, Note_on_c, 1, 69, 127
2, 94280, Note_on_c, 1, 73, 127
2, 96680, Note_off_c, 1, 57, 0
2, 96680, Note_off_c, 1, 81, 0
2, 97680, Note_off_c, 1, 45, 0
2, 97680, Note_off_c, 1, 69, 0
2, 97680, Note_off_c, 1, 73, 0
2, 99600, Note_on_c, 1, 81, 127
2, 99760, Note_off_c, 1, 81, 0
2, 99800, Note_on_c, 1, 81, 127
2, 100000, Note_on_c, 1, 57, 127
2, 100200, Note_on_c, 1, 61, 127
2, 100400, Note_on_c, 1, 64, 127
2, 100600, Note_on_c, 1, 69, 127
2, 100800, Note_on_c, 1, 73, 127
2, 100960, Note_off_c, 1, 73, 0
2, 100960, Note_off_c, 1, 81, 0
2, 101000, Note_on_c, 1, 76, 127
2, 101160, Note_off_c, 1, 76, 0
2, 101200, Note_on_c, 1, 81, 127
2, 101320, Note_off_c, 1, 69, 0
2, 101360, Note_off_c, 1, 61, 0
2, 101360, Note_off_c, 1, 64, 0
2, 101400, Note_on_c, 1, 62, 127
2, 101400, Note_on_c, 1, 71, 127
2, 101520, Note_off_c, 1, 81, 0
2, 101600, Note_on_c, 1, 81, 127
2, 101720, Note_off_c, 1, 81, 0
2, 101760, Note_on_c, 1, 80, 127
2, 101920, Note_off_c, 1, 80, 0
2, 101960, Note_on_c, 1, 78, 127
2, 102120, Note_off_c, 1, 78, 0
2, 102160, Note_on_c, 1, 80, 127
2, 102320, Note_off_c, 1, 80, 0
2, 102360, Note_on_c, 1, 83, 127
2, 102520, Note_off_c, 1, 83, 0
2, 102560, Note_on_c, 1, 76, 127
2, 102720, Note_off_c, 1, 76, 0
2, 102760, Note_on_c, 1, 78, 127
2, 102920, Note_off_c, 1, 62, 0
2, 102920, Note_off_c, 1, 71, 0
2, 102920, Note_off_c, 1, 78, 0
2, 102960, Note_on_c, 1, 64, 127
2, 102960, Note_on_c, 1, 79, 127
2, 103040, Note_on_c, 1, 62, 127
2, 103040, Note_off_c, 1, 64, 0
2, 103080, Note_off_c, 1, 62, 0
2, 103120, Note_on_c, 1, 64, 127
2, 103160, Note_on_c, 1, 76, 127
2, 103360, Note_on_c, 1, 73, 127
2, 103560, Note_on_c, 1, 69, 127
2, 103720, Note_off_c, 1, 64, 0
2, 103760, Note_on_c, 1, 66, 127
2, 103920, Note_off_c, 1, 69, 0
2, 103960, Note_on_c, 1, 69, 127
2, 104120, Note_off_c, 1, 73, 0
2, 104120, Note_off_c, 1, 76, 0
2, 104120, Note_off_c, 1, 79, 0
2, 104160, Note_on_c, 1, 74, 127
2, 104160, Note_on_c, 1, 78, 127
2, 104320, Note_off_c, 1, 66, 0
2, 104320, Note_off_c, 1, 69, 0
2, 104360, Note_on_c, 1, 68, 127
2, 104520, Note_off_c, 1, 68, 0
2, 104520, Note_off_c, 1, 74, 0
2, 104520, Note_off_c, 1, 78, 0
2, 104560, Note_on_c, 1, 69, 127
2, 104560, Note_on_c, 1, 76, 127
2, 104760, Note_on_c, 1, 74, 127
2, 104920, Note_off_c, 1, 74, 0
2, 104960, Note_on_c, 1, 73, 127
2, 105120, Note_off_c, 1, 73, 0
2, 105160, Note_on_c, 1, 71, 127
2, 105320, Note_off_c, 1, 71, 0
2, 105360, Note_on_c, 1, 73, 127
2, 105520, Note_off_c, 1, 69, 0
2, 105560, Note_on_c, 1, 71, 127
2, 105680, Note_off_c, 1, 71, 0
2, 105720, Note_on_c, 1, 64, 127
2, 105880, Note_off_c, 1, 64, 0
2, 105920, Note_on_c, 1, 66, 127
2, 106080, Note_off_c, 1, 66, 0
2, 106120, Note_on_c, 1, 67, 127
2, 106160, Note_off_c, 1, 57, 0
2, 106320, Note_on_c, 1, 64, 127
2, 106520, Note_on_c, 1, 61, 127
2, 106720, Note_on_c, 1, 57, 127
2, 106880, Note_off_c, 1, 61, 0
2, 106880, Note_off_c, 1, 64, 0
2, 106880, Note_off_c, 1, 67, 0
2, 106880, Note_off_c, 1, 76, 0
2, 106920, Note_on_c, 1, 66, 127
2, 107080, Note_off_c, 1, 73, 0
2, 107120, Note_on_c, 1, 69, 127
2, 107280, Note_off_c, 1, 66, 0
2, 107320, Note_on_c, 1, 65, 127
2, 107320, Note_on_c, 1, 74, 127
2, 107480, Note_off_c, 1, 69, 0
2, 107520, Note_on_c, 1, 68, 127
2, 107680, Note_off_c, 1, 65, 0
2, 107680, Note_off_c, 1, 68, 0
2, 107720, Note_on_c, 1, 64, 127
2, 107720, Note_on_c, 1, 69, 127
2, 107880, Note_off_c, 1, 74, 0
2, 107920, Note_on_c, 1, 74, 127
2, 108080, Note_off_c, 1, 74, 0
2, 108120, Note_on_c, 1, 73, 127
2, 108280, Note_off_c, 1, 73, 0
2, 108320, Note_on_c, 1, 71, 127
2, 108480, Note_off_c, 1, 64, 0
2, 108480, Note_off_c, 1, 69, 0
2, 108480, Note_off_c, 1, 71, 0
2, 108520, Note_on_c, 1, 64, 127
2, 108520, Note_on_c, 1, 69, 127
2, 108520, Note_on_c, 1, 73, 127
2, 108560, Note_on_c, 1, 68, 127
2, 108560, Note_off_c, 1, 69, 0
2, 108640, Note_off_c, 1, 68, 0
2, 108640, Note_on_c, 1, 69, 127
2, 108680, Note_off_c, 1, 57, 0
2, 108720, Note_on_c, 1, 61, 127
2, 108880, Note_off_c, 1, 61, 0
2, 108920, Note_on_c, 1, 54, 127
2, 109080, Note_off_c, 1, 54, 0
2, 109120, Note_on_c, 1, 56, 127
2, 109240, Note_off_c, 1, 64, 0
2, 109240, Note_off_c, 1, 69, 0
2, 109240, Note_off_c, 1, 73, 0
2, 109280, Note_off_c, 1, 56, 0
2, 109320, Note_on_c, 1, 57, 127
2, 109320, Note_on_c, 1, 63, 127
2, 109320, Note_on_c, 1, 66, 127
2, 109320, Note_on_c, 1, 71, 127
2, 109520, Note_on_c, 1, 54, 127
2, 109720, Note_on_c, 1, 51, 127
2, 109880, Note_on_c, 1, 47, 127
2, 110040, Note_off_c, 1, 47, 0
2, 110040, Note_off_c, 1, 51, 0
2, 110040, Note_off_c, 1, 54, 0
2, 110040, Note_off_c, 1, 57, 0
2, 110040, Note_off_c, 1, 63, 0
2, 110080, Note_on_c, 1, 56, 127
2, 110280, Note_on_c, 1, 59, 127
2, 110440, Note_off_c, 1, 66, 0
2, 110480, Note_on_c, 1, 64, 127
2, 110640, Note_off_c, 1, 71, 0
2, 110680, Note_on_c, 1, 73, 127
2, 110840, Note_off_c, 1, 56, 0
2, 110840, Note_off_c, 1, 59, 0
2, 110840, Note_off_c, 1, 73, 0
2, 110880, Note_on_c, 1, 54, 127
2, 110880, Note_on_c, 1, 61, 127
2, 110880, Note_on_c, 1, 69, 127
2, 111040, Note_off_c, 1, 69, 0
2, 111080, Note_on_c, 1, 73, 127
2, 111240, Note_off_c, 1, 73, 0
2, 111280, Note_on_c, 1, 66, 127
2, 111440, Note_off_c, 1, 66, 0
2, 111480, Note_on_c, 1, 68, 127
2, 111640, Note_off_c, 1, 68, 0
2, 111680, Note_on_c, 1, 69, 127
2, 111840, Note_off_c, 1, 64, 0
2, 111880, Note_on_c, 1, 66, 127
2, 112040, Note_off_c, 1, 61, 0
2, 112040, Note_off_c, 1, 66, 0
2, 112080, Note_on_c, 1, 59, 127
2, 112080, Note_on_c, 1, 63, 127
2, 112240, Note_off_c, 1, 59, 0
2, 112280, Note_on_c, 1, 57, 127
2, 112440, Note_off_c, 1, 54, 0
2, 112440, Note_off_c, 1, 57, 0
2, 112440, Note_off_c, 1, 63, 0
2, 112480, Note_on_c, 1, 52, 127
2, 112480, Note_on_c, 1, 59, 127
2, 112480, Note_on_c, 1, 64, 127
2, 112640, Note_off_c, 1, 69, 0
2, 112680, Note_on_c, 1, 69, 127
2, 112840, Note_off_c, 1, 69, 0
2, 112880, Note_on_c, 1, 68, 127
2, 113040, Note_off_c, 1, 68, 0
2, 113080, Note_on_c, 1, 66, 127
2, 113200, Note_off_c, 1, 59, 0
2, 113200, Note_off_c, 1, 64, 0
2, 113240, Note_off_c, 1, 66, 0
2, 113280, Note_on_c, 1, 59, 127
2, 113280, Note_on_c, 1, 64, 127
2, 113280, Note_on_c, 1, 68, 127
2, 113320, Note_off_c, 1, 64, 0
2, 113360, Note_on_c, 1, 63, 127
2, 113400, Note_off_c, 1, 63, 0
2, 113400, Note_on_c, 1, 64, 127
2, 113440, Note_off_c, 1, 52, 0
2, 113480, Note_on_c, 1, 54, 127
2, 113640, Note_off_c, 1, 54, 0
2, 113680, Note_on_c, 1, 47, 127
2, 113800, Note_off_c, 1, 47, 0
2, 113880, Note_on_c, 1, 49, 127
2, 114000, Note_off_c, 1, 49, 0
2, 114040, Note_on_c, 1, 50, 127
2, 114240, Note_on_c, 1, 47, 127
2, 114440, Note_on_c, 1, 44, 127
2, 114560, Note_off_c, 1, 64, 0
2, 114600, Note_off_c, 1, 59, 0
2, 114600, Note_off_c, 1, 68, 0
2, 114640, Note_on_c, 1, 40, 127
2, 114640, Note_on_c, 1, 68, 127
2, 114800, Note_off_c, 1, 40, 0
2, 114800, Note_off_c, 1, 44, 0
2, 114800, Note_off_c, 1, 47, 0
2, 114800, Note_off_c, 1, 50, 0
2, 114800, Note_off_c, 1, 68, 0
2, 114840, Note_on_c, 1, 49, 127
2, 114840, Note_on_c, 1, 64, 127
2, 114840, Note_on_c, 1, 69, 127
2, 115000, Note_off_c, 1, 69, 0
2, 115040, Note_on_c, 1, 57, 127
2, 115040, Note_on_c, 1, 71, 127
2, 115200, Note_off_c, 1, 49, 0
2, 115200, Note_off_c, 1, 71, 0
2, 115240, Note_on_c, 1, 47, 127
2, 115240, Note_on_c, 1, 73, 127
2, 115320, Note_off_c, 1, 73, 0
2, 115360, Note_on_c, 1, 71, 127
2, 115400, Note_off_c, 1, 57, 0
2, 115400, Note_off_c, 1, 71, 0
2, 115440, Note_on_c, 1, 56, 127
2, 115440, Note_on_c, 1, 69, 127
2, 115520, Note_off_c, 1, 69, 0
2, 115560, Note_on_c, 1, 71, 127
2, 115600, Note_off_c, 1, 47, 0
2, 115600, Note_off_c, 1, 56, 0
2, 115600, Note_off_c, 1, 71, 0
2, 115640, Note_on_c, 1, 45, 127
2, 115640, Note_on_c, 1, 73, 127
2, 115840, Note_on_c, 1, 71, 127
2, 116000, Note_off_c, 1, 71, 0
2, 116040, Note_on_c, 1, 69, 127
2, 116200, Note_off_c, 1, 69, 0
2, 116240, Note_on_c, 1, 52, 127
2, 116240, Note_on_c, 1, 68, 127
2, 116400, Note_off_c, 1, 45, 0
2, 116400, Note_off_c, 1, 52, 0
2, 116400, Note_off_c, 1, 68, 0
2, 116440, Note_on_c, 1, 57, 127
2, 116440, Note_on_c, 1, 69, 127
2, 116600, Note_off_c, 1, 57, 0
2, 116640, Note_on_c, 1, 59, 127
2, 116800, Note_off_c, 1, 59, 0
2, 116840, Note_on_c, 1, 52, 127
2, 117000, Note_off_c, 1, 52, 0
2, 117040, Note_on_c, 1, 54, 127
2, 117200, Note_off_c, 1, 54, 0
2, 117240, Note_on_c, 1, 55, 127
2, 117440, Note_on_c, 1, 52, 127
2, 117640, Note_on_c, 1, 49, 127
2, 117680, Note_off_c, 1, 64, 0
2, 117760, Note_off_c, 1, 69, 0
2, 117760, Note_off_c, 1, 73, 0
2, 117840, Note_on_c, 1, 45, 127
2, 117840, Note_on_c, 1, 73, 127
2, 117960, Note_off_c, 1, 45, 0
2, 117960, Note_off_c, 1, 49, 0
2, 117960, Note_off_c, 1, 52, 0
2, 117960, Note_off_c, 1, 55, 0
2, 117960, Note_off_c, 1, 73, 0
2, 118000, Note_on_c, 1, 54, 127
2, 118000, Note_on_c, 1, 69, 127
2, 118000, Note_on_c, 1, 74, 127
2, 118160, Note_off_c, 1, 74, 0
2, 118200, Note_on_c, 1, 62, 127
2, 118200, Note_on_c, 1, 73, 127
2, 118280, Note_off_c, 1, 73, 0
2, 118320, Note_on_c, 1, 74, 127
2, 118360, Note_off_c, 1, 54, 0
2, 118360, Note_off_c, 1, 74, 0
2, 118400, Note_on_c, 1, 52, 127
2, 118400, Note_on_c, 1, 76, 127
2, 118560, Note_off_c, 1, 62, 0
2, 118560, Note_off_c, 1, 76, 0
2, 118600, Note_on_c, 1, 61, 127
2, 118600, Note_on_c, 1, 74, 127
2, 118680, Note_off_c, 1, 74, 0
2, 118720, Note_on_c, 1, 76, 127
2, 118760, Note_off_c, 1, 52, 0
2, 118760, Note_off_c, 1, 61, 0
2, 118760, Note_off_c, 1, 76, 0
2, 118800, Note_on_c, 1, 50, 127
2, 118800, Note_on_c, 1, 78, 127
2, 119000, Note_on_c, 1, 76, 127
2, 119160, Note_off_c, 1, 76, 0
2, 119200, Note_on_c, 1, 74, 127
2, 119360, Note_off_c, 1, 74, 0
2, 119400, Note_on_c, 1, 57, 127
2, 119400, Note_on_c, 1, 73, 127
2, 119560, Note_off_c, 1, 50, 0
2, 119560, Note_off_c, 1, 57, 0
2, 119560, Note_off_c, 1, 73, 0
2, 119600, Note_on_c, 1, 62, 127
2, 119600, Note_on_c, 1, 74, 127
2, 119760, Note_off_c, 1, 62, 0
2, 119800, Note_on_c, 1, 66, 127
2, 119960, Note_off_c, 1, 66, 0
2, 120000, Note_on_c, 1, 59, 127
2, 120160, Note_off_c, 1, 59, 0
2, 120160, Note_off_c, 1, 74, 0
2, 120160, Note_off_c, 1, 78, 0
2, 120200, Note_on_c, 1, 61, 127
2, 120200, Note_on_c, 1, 78, 127
2, 120360, Note_off_c, 1, 61, 0
2, 120360, Note_off_c, 1, 69, 0
2, 120360, Note_off_c, 1, 78, 0
2, 120400, Note_on_c, 1, 62, 127
2, 120400, Note_on_c, 1, 76, 127
2, 120400, Note_on_c, 1, 80, 127
2, 120560, Note_off_c, 1, 80, 0
2, 120600, Note_on_c, 1, 59, 127
2, 120600, Note_on_c, 1, 81, 127
2, 120760, Note_off_c, 1, 81, 0
2, 120800, Note_on_c, 1, 56, 127
2, 120800, Note_on_c, 1, 80, 127
2, 120960, Note_off_c, 1, 80, 0
2, 121000, Note_on_c, 1, 52, 127
2, 121000, Note_on_c, 1, 81, 127
2, 121120, Note_off_c, 1, 59, 0
2, 121120, Note_off_c, 1, 62, 0
2, 121160, Note_off_c, 1, 52, 0
2, 121160, Note_off_c, 1, 56, 0
2, 121160, Note_off_c, 1, 81, 0
2, 121200, Note_on_c, 1, 61, 127
2, 121200, Note_on_c, 1, 83, 127
2, 121400, Note_on_c, 1, 64, 127
2, 121400, Note_on_c, 1, 81, 127
2, 121400, Note_off_c, 1, 83, 0
2, 121440, Note_off_c, 1, 81, 0
2, 121480, Note_on_c, 1, 83, 127
2, 121520, Note_off_c, 1, 61, 0
2, 121520, Note_off_c, 1, 83, 0
2, 121560, Note_on_c, 1, 81, 127
2, 121600, Note_on_c, 1, 59, 127
2, 121600, Note_off_c, 1, 81, 0
2, 121640, Note_on_c, 1, 83, 127
2, 121680, Note_off_c, 1, 83, 0
2, 121720, Note_off_c, 1, 59, 0
2, 121720, Note_on_c, 1, 81, 127
2, 121760, Note_off_c, 1, 81, 0
2, 121800, Note_on_c, 1, 57, 127
2, 121800, Note_on_c, 1, 80, 127
2, 121880, Note_off_c, 1, 80, 0
2, 121920, Note_off_c, 1, 57, 0
2, 121920, Note_on_c, 1, 81, 127
2, 121960, Note_on_c, 1, 56, 127
2, 121960, Note_off_c, 1, 81, 0
2, 121960, Note_on_c, 1, 83, 127
2, 122120, Note_off_c, 1, 76, 0
2, 122160, Note_on_c, 1, 81, 127
2, 122320, Note_off_c, 1, 81, 0
2, 122360, Note_on_c, 1, 80, 127
2, 122520, Note_off_c, 1, 80, 0
2, 122560, Note_on_c, 1, 57, 127
2, 122560, Note_on_c, 1, 78, 127
2, 122720, Note_off_c, 1, 57, 0
2, 122720, Note_off_c, 1, 78, 0
2, 122760, Note_on_c, 1, 59, 127
2, 122760, Note_on_c, 1, 76, 127
2, 122920, Note_off_c, 1, 76, 0
2, 122960, Note_on_c, 1, 74, 127
2, 123120, Note_off_c, 1, 64, 0
2, 123120, Note_off_c, 1, 74, 0
2, 123160, Note_on_c, 1, 64, 127
2, 123160, Note_on_c, 1, 73, 127
2, 123320, Note_off_c, 1, 73, 0
2, 123360, Note_on_c, 1, 71, 127
2, 123520, Note_off_c, 1, 56, 0
2, 123520, Note_off_c, 1, 59, 0
2, 123520, Note_off_c, 1, 71, 0
2, 123560, Note_on_c, 1, 57, 127
2, 123560, Note_on_c, 1, 73, 127
2, 123720, Note_off_c, 1, 83, 0
2, 123760, Note_on_c, 1, 76, 127
2, 123920, Note_off_c, 1, 57, 0
2, 123920, Note_off_c, 1, 76, 0
2, 123960, Note_on_c, 1, 61, 127
2, 123960, Note_on_c, 1, 81, 127
2, 124120, Note_off_c, 1, 61, 0
2, 124120, Note_off_c, 1, 73, 0
2, 124160, Note_on_c, 1, 57, 127
2, 124160, Note_on_c, 1, 73, 127
2, 124320, Note_off_c, 1, 57, 0
2, 124320, Note_off_c, 1, 64, 0
2, 124320, Note_off_c, 1, 73, 0
2, 124320, Note_off_c, 1, 81, 0
2, 124360, Note_on_c, 1, 64, 127
2, 124360, Note_on_c, 1, 71, 127
2, 124560, Note_on_c, 1, 74, 127
2, 124760, Note_on_c, 1, 52, 127
2, 124760, Note_on_c, 1, 81, 127
2, 124920, Note_off_c, 1, 81, 0
2, 124960, Note_on_c, 1, 80, 127
2, 125080, Note_off_c, 1, 71, 0
2, 125080, Note_off_c, 1, 74, 0
2, 125120, Note_off_c, 1, 52, 0
2, 125160, Note_on_c, 1, 57, 127
2, 125160, Note_on_c, 1, 73, 127
2, 125320, Note_off_c, 1, 64, 0
2, 125320, Note_off_c, 1, 80, 0
2, 125360, Note_on_c, 1, 64, 127
2, 125360, Note_on_c, 1, 80, 127
2, 125520, Note_off_c, 1, 64, 0
2, 125520, Note_off_c, 1, 80, 0
2, 125560, Note_on_c, 1, 66, 127
2, 125560, Note_on_c, 1, 78, 127
2, 125680, Note_off_c, 1, 66, 0
2, 125680, Note_off_c, 1, 78, 0
2, 125760, Note_on_c, 1, 68, 127
2, 125760, Note_on_c, 1, 76, 127
2, 125880, Note_off_c, 1, 68, 0
2, 125880, Note_off_c, 1, 76, 0
2, 125920, Note_on_c, 1, 69, 127
2, 125920, Note_on_c, 1, 78, 127
2, 126080, Note_off_c, 1, 78, 0
2, 126120, Note_on_c, 1, 81, 127
2, 126280, Note_off_c, 1, 57, 0
2, 126280, Note_off_c, 1, 73, 0
2, 126280, Note_off_c, 1, 81, 0
2, 126320, Note_on_c, 1, 57, 127
2, 126320, Note_on_c, 1, 73, 127
2, 126480, Note_off_c, 1, 69, 0
2, 126480, Note_off_c, 1, 73, 0
2, 126520, Note_on_c, 1, 68, 127
2, 126520, Note_on_c, 1, 75, 127
2, 126680, Note_off_c, 1, 57, 0
2, 126680, Note_off_c, 1, 68, 0
2, 126680, Note_off_c, 1, 75, 0
2, 126720, Note_on_c, 1, 58, 127
2, 126720, Note_on_c, 1, 76, 127
2, 126920, Note_on_c, 1, 73, 127
2, 127120, Note_on_c, 1, 70, 127
2, 127320, Note_on_c, 1, 66, 127
2, 127480, Note_off_c, 1, 76, 0
2, 127520, Note_on_c, 1, 76, 127
2, 127680, Note_off_c, 1, 58, 0
2, 127720, Note_on_c, 1, 54, 127
2, 127880, Note_off_c, 1, 54, 0
2, 127920, Note_on_c, 1, 56, 127
2, 128080, Note_off_c, 1, 56, 0
2, 128080, Note_off_c, 1, 76, 0
2, 128120, Note_on_c, 1, 58, 127
2, 128120, Note_on_c, 1, 78, 127
2, 128280, Note_off_c, 1, 58, 0
2, 128280, Note_off_c, 1, 70, 0
2, 128280, Note_off_c, 1, 73, 0
2, 128280, Note_off_c, 1, 78, 0
2, 128320, Note_on_c, 1, 59, 127
2, 128320, Note_on_c, 1, 75, 127
2, 128520, Note_on_c, 1, 73, 127
2, 128680, Note_off_c, 1, 73, 0
2, 128720, Note_on_c, 1, 71, 127
2, 128880, Note_off_c, 1, 71, 0
2, 128920, Note_on_c, 1, 70, 127
2, 129080, Note_off_c, 1, 70, 0
2, 129120, Note_on_c, 1, 71, 127
2, 129280, Note_off_c, 1, 59, 0
2, 129320, Note_on_c, 1, 61, 127
2, 129480, Note_off_c, 1, 61, 0
2, 129520, Note_on_c, 1, 54, 127
2, 129640, Note_off_c, 1, 54, 0
2, 129720, Note_on_c, 1, 56, 127
2, 129840, Note_off_c, 1, 56, 0
2, 129880, Note_on_c, 1, 57, 127
2, 130080, Note_on_c, 1, 54, 127
2, 130280, Note_on_c, 1, 51, 127
2, 130480, Note_on_c, 1, 47, 127
2, 130600, Note_off_c, 1, 66, 0
2, 130640, Note_off_c, 1, 47, 0
2, 130640, Note_off_c, 1, 51, 0
2, 130640, Note_off_c, 1, 54, 0
2, 130640, Note_off_c, 1, 57, 0
2, 130640, Note_off_c, 1, 71, 0
2, 130640, Note_off_c, 1, 75, 0
2, 130680, Note_on_c, 1, 56, 127
2, 130680, Note_on_c, 1, 71, 127
2, 130680, Note_on_c, 1, 74, 127
2, 130760, Note_off_c, 1, 74, 0
2, 130800, Note_on_c, 1, 73, 127
2, 130840, Note_off_c, 1, 73, 0
2, 130880, Note_on_c, 1, 59, 127
2, 130880, Note_on_c, 1, 74, 127
2, 131080, Note_on_c, 1, 64, 127
2, 131240, Note_off_c, 1, 74, 0
2, 131280, Note_on_c, 1, 76, 127
2, 131440, Note_off_c, 1, 56, 0
2, 131440, Note_off_c, 1, 59, 0
2, 131440, Note_off_c, 1, 76, 0
2, 131480, Note_on_c, 1, 57, 127
2, 131480, Note_on_c, 1, 73, 127
2, 131640, Note_off_c, 1, 71, 0
2, 131680, Note_on_c, 1, 71, 127
2, 131840, Note_off_c, 1, 57, 0
2, 131840, Note_off_c, 1, 71, 0
2, 131880, Note_on_c, 1, 56, 127
2, 131880, Note_on_c, 1, 69, 127
2, 132040, Note_off_c, 1, 69, 0
2, 132080, Note_on_c, 1, 68, 127
2, 132240, Note_off_c, 1, 56, 0
2, 132240, Note_off_c, 1, 64, 0
2, 132240, Note_off_c, 1, 68, 0
2, 132240, Note_off_c, 1, 73, 0
2, 132280, Note_on_c, 1, 54, 127
2, 132280, Note_on_c, 1, 69, 127
2, 132440, Note_off_c, 1, 69, 0
2, 132480, Note_on_c, 1, 73, 127
2, 132640, Note_off_c, 1, 54, 0
2, 132640, Note_off_c, 1, 73, 0
2, 132680, Note_on_c, 1, 52, 127
2, 132680, Note_on_c, 1, 66, 127
2, 132840, Note_off_c, 1, 66, 0
2, 132880, Note_on_c, 1, 68, 127
2, 133040, Note_off_c, 1, 52, 0
2, 133040, Note_off_c, 1, 68, 0
2, 133080, Note_on_c, 1, 51, 127
2, 133080, Note_on_c, 1, 69, 127
2, 133280, Note_on_c, 1, 66, 127
2, 133440, Note_off_c, 1, 51, 0
2, 133480, Note_on_c, 1, 47, 127
2, 133480, Note_on_c, 1, 63, 127
2, 133680, Note_on_c, 1, 59, 127
2, 133800, Note_off_c, 1, 47, 0
2, 133800, Note_off_c, 1, 59, 0
2, 133800, Note_off_c, 1, 63, 0
2, 133800, Note_off_c, 1, 66, 0
2, 133800, Note_off_c, 1, 69, 0
2, 133880, Note_on_c, 1, 52, 127
2, 133880, Note_on_c, 1, 68, 127
2, 134040, Note_on_c, 1, 59, 127
2, 134200, Note_off_c, 1, 59, 0
2, 134240, Note_on_c, 1, 40, 127
2, 134240, Note_on_c, 1, 64, 127
2, 134400, Note_off_c, 1, 68, 0
2, 134440, Note_on_c, 1, 68, 127
2, 134600, Note_off_c, 1, 40, 0
2, 134600, Note_off_c, 1, 64, 0
2, 134640, Note_on_c, 1, 45, 127
2, 134640, Note_on_c, 1, 61, 127
2, 134800, Note_off_c, 1, 52, 0
2, 134800, Note_off_c, 1, 68, 0
2, 134840, Note_on_c, 1, 52, 127
2, 134840, Note_on_c, 1, 68, 127
2, 135000, Note_off_c, 1, 52, 0
2, 135000, Note_off_c, 1, 68, 0
2, 135040, Note_on_c, 1, 54, 127
2, 135040, Note_on_c, 1, 66, 127
2, 135200, Note_off_c, 1, 54, 0
2, 135200, Note_off_c, 1, 66, 0
2, 135240, Note_on_c, 1, 56, 127
2, 135240, Note_on_c, 1, 64, 127
2, 135400, Note_off_c, 1, 56, 0
2, 135400, Note_off_c, 1, 64, 0
2, 135440, Note_on_c, 1, 57, 127
2, 135440, Note_on_c, 1, 66, 127
2, 135600, Note_off_c, 1, 66, 0
2, 135640, Note_on_c, 1, 69, 127
2, 135800, Note_off_c, 1, 45, 0
2, 135800, Note_off_c, 1, 61, 0
2, 135800, Note_off_c, 1, 69, 0
2, 135840, Note_on_c, 1, 45, 127
2, 135840, Note_on_c, 1, 61, 127
2, 136000, Note_off_c, 1, 57, 0
2, 136000, Note_off_c, 1, 61, 0
2, 136040, Note_on_c, 1, 59, 127
2, 136040, Note_on_c, 1, 63, 127
2, 136200, Note_off_c, 1, 45, 0
2, 136200, Note_off_c, 1, 59, 0
2, 136200, Note_off_c, 1, 63, 0
2, 136240, Note_on_c, 1, 46, 127
2, 136240, Note_on_c, 1, 64, 127
2, 136440, Note_on_c, 1, 61, 127
2, 136640, Note_on_c, 1, 58, 127
2, 136840, Note_on_c, 1, 54, 127
2, 137000, Note_off_c, 1, 64, 0
2, 137040, Note_on_c, 1, 64, 127
2, 137200, Note_off_c, 1, 46, 0
2, 137240, Note_on_c, 1, 42, 127
2, 137400, Note_off_c, 1, 42, 0
2, 137440, Note_on_c, 1, 44, 127
2, 137600, Note_off_c, 1, 44, 0
2, 137600, Note_off_c, 1, 64, 0
2, 137640, Note_on_c, 1, 46, 127
2, 137640, Note_on_c, 1, 66, 127
2, 137760, Note_off_c, 1, 46, 0
2, 137760, Note_off_c, 1, 58, 0
2, 137760, Note_off_c, 1, 61, 0
2, 137760, Note_off_c, 1, 66, 0
2, 137800, Note_off_c, 1, 54, 0
2, 137840, Note_on_c, 1, 35, 127
2, 137840, Note_on_c, 1, 64, 127
2, 137920, Note_off_c, 1, 64, 0
2, 137960, Note_off_c, 1, 35, 0
2, 137960, Note_on_c, 1, 63, 127
2, 138000, Note_on_c, 1, 47, 127
2, 138000, Note_off_c, 1, 63, 0
2, 138000, Note_on_c, 1, 64, 127
2, 138040, Note_off_c, 1, 64, 0
2, 138080, Note_on_c, 1, 63, 127
2, 138120, Note_off_c, 1, 63, 0
2, 138160, Note_on_c, 1, 64, 127
2, 138200, Note_on_c, 1, 51, 127
2, 138200, Note_on_c, 1, 63, 127
2, 138200, Note_off_c, 1, 64, 0
2, 138400, Note_on_c, 1, 54, 127
2, 138560, Note_off_c, 1, 63, 0
2, 138600, Note_on_c, 1, 59, 127
2, 138800, Note_on_c, 1, 63, 127
2, 138960, Note_off_c, 1, 63, 0
2, 139000, Note_on_c, 1, 66, 127
2, 139160, Note_off_c, 1, 66, 0
2, 139200, Note_on_c, 1, 71, 127
2, 139360, Note_off_c, 1, 51, 0
2, 139360, Note_off_c, 1, 54, 0
2, 139360, Note_off_c, 1, 59, 0
2, 139400, Note_on_c, 1, 52, 127
2, 139400, Note_on_c, 1, 61, 127
2, 139560, Note_off_c, 1, 71, 0
2, 139600, Note_on_c, 1, 71, 127
2, 139760, Note_off_c, 1, 71, 0
2, 139800, Note_on_c, 1, 70, 127
2, 139960, Note_off_c, 1, 70, 0
2, 140000, Note_on_c, 1, 68, 127
2, 140160, Note_off_c, 1, 68, 0
2, 140200, Note_on_c, 1, 70, 127
2, 140360, Note_off_c, 1, 70, 0
2, 140400, Note_on_c, 1, 73, 127
2, 140560, Note_off_c, 1, 73, 0
2, 140600, Note_on_c, 1, 66, 127
2, 140760, Note_off_c, 1, 66, 0
2, 140800, Note_on_c, 1, 68, 127
2, 140960, Note_off_c, 1, 52, 0
2, 140960, Note_off_c, 1, 61, 0
2, 140960, Note_off_c, 1, 68, 0
2, 141000, Note_on_c, 1, 54, 127
2, 141000, Note_on_c, 1, 69, 127
2, 141200, Note_on_c, 1, 66, 127
2, 141400, Note_on_c, 1, 63, 127
2, 141600, Note_on_c, 1, 59, 127
2, 141640, Note_off_c, 1, 63, 0
2, 141720, Note_off_c, 1, 54, 0
2, 141760, Note_on_c, 1, 56, 127
2, 141920, Note_off_c, 1, 59, 0
2, 141960, Note_on_c, 1, 59, 127
2, 142120, Note_off_c, 1, 66, 0
2, 142120, Note_off_c, 1, 69, 0
2, 142160, Note_on_c, 1, 64, 127
2, 142160, Note_on_c, 1, 68, 127
2, 142320, Note_off_c, 1, 56, 0
2, 142360, Note_on_c, 1, 58, 127
2, 142520, Note_off_c, 1, 58, 0
2, 142520, Note_off_c, 1, 59, 0
2, 142520, Note_off_c, 1, 68, 0
2, 142560, Note_on_c, 1, 59, 127
2, 142560, Note_on_c, 1, 66, 127
2, 142720, Note_off_c, 1, 64, 0
2, 142760, Note_on_c, 1, 64, 127
2, 142920, Note_off_c, 1, 64, 0
2, 142960, Note_on_c, 1, 63, 127
2, 143120, Note_off_c, 1, 63, 0
2, 143160, Note_on_c, 1, 61, 127
2, 143320, Note_off_c, 1, 61, 0
2, 143360, Note_on_c, 1, 63, 127
2, 143520, Note_off_c, 1, 59, 0
2, 143560, Note_on_c, 1, 61, 127
2, 143720, Note_off_c, 1, 61, 0
2, 143760, Note_on_c, 1, 54, 127
2, 143920, Note_off_c, 1, 54, 0
2, 143960, Note_on_c, 1, 56, 127
2, 144120, Note_off_c, 1, 56, 0
2, 144160, Note_on_c, 1, 57, 127
2, 144320, Note_off_c, 1, 57, 0
2, 144360, Note_on_c, 1, 54, 127
2, 144560, Note_off_c, 1, 47, 0
2, 144560, Note_on_c, 1, 51, 127
2, 144760, Note_on_c, 1, 47, 127
2, 144880, Note_off_c, 1, 54, 0
2, 144920, Note_off_c, 1, 51, 0
2, 144960, Note_on_c, 1, 56, 127
2, 145120, Note_off_c, 1, 63, 0
2, 145160, Note_on_c, 1, 59, 127
2, 145240, Note_off_c, 1, 66, 0
2, 145320, Note_off_c, 1, 56, 0
2, 145360, Note_on_c, 1, 55, 127
2, 145360, Note_on_c, 1, 64, 127
2, 145480, Note_off_c, 1, 59, 0
2, 145560, Note_on_c, 1, 58, 127
2, 145680, Note_off_c, 1, 55, 0
2, 145680, Note_off_c, 1, 58, 0
2, 145760, Note_on_c, 1, 54, 127
2, 145760, Note_on_c, 1, 59, 127
2, 145800, Note_off_c, 1, 64, 0
2, 145840, Note_on_c, 1, 66, 127
2, 145920, Note_off_c, 1, 66, 0
2, 145960, Note_on_c, 1, 68, 127
2, 146000, Note_off_c, 1, 68, 0
2, 146040, Note_on_c, 1, 69, 127
2, 146080, Note_off_c, 1, 54, 0
2, 146120, Note_off_c, 1, 69, 0
2, 146160, Note_on_c, 1, 52, 127
2, 146160, Note_on_c, 1, 68, 127
2, 146200, Note_off_c, 1, 68, 0
2, 146240, Note_on_c, 1, 66, 127
2, 146320, Note_off_c, 1, 66, 0
2, 146360, Note_on_c, 1, 68, 127
2, 146400, Note_off_c, 1, 68, 0
2, 146440, Note_on_c, 1, 69, 127
2, 146520, Note_off_c, 1, 52, 0
2, 146520, Note_off_c, 1, 69, 0
2, 146560, Note_on_c, 1, 54, 127
2, 146560, Note_on_c, 1, 64, 127
2, 146640, Note_off_c, 1, 64, 0
2, 146680, Note_on_c, 1, 63, 127
2, 146720, Note_off_c, 1, 54, 0
2, 146720, Note_off_c, 1, 63, 0
2, 146760, Note_on_c, 1, 56, 127
2, 146760, Note_on_c, 1, 64, 127
2, 146800, Note_on_c, 1, 63, 127
2, 146800, Note_off_c, 1, 64, 0
2, 146840, Note_off_c, 1, 63, 0
2, 146880, Note_on_c, 1, 64, 127
2, 146920, Note_off_c, 1, 56, 0
2, 146920, Note_off_c, 1, 64, 0
2, 146960, Note_on_c, 1, 57, 127
2, 146960, Note_on_c, 1, 63, 127
2, 147080, Note_off_c, 1, 63, 0
2, 147160, Note_on_c, 1, 64, 127
2, 147200, Note_off_c, 1, 47, 0
2, 147280, Note_off_c, 1, 64, 0
2, 147320, Note_on_c, 1, 52, 127
2, 147320, Note_on_c, 1, 64, 127
2, 147480, Note_off_c, 1, 59, 0
2, 147520, Note_on_c, 1, 59, 127
2, 147680, Note_off_c, 1, 57, 0
2, 147680, Note_off_c, 1, 59, 0
2, 147720, Note_on_c, 1, 56, 127
2, 147720, Note_on_c, 1, 61, 127
2, 147880, Note_off_c, 1, 61, 0
2, 147920, Note_on_c, 1, 62, 127
2, 148080, Note_off_c, 1, 62, 0
2, 148120, Note_on_c, 1, 61, 127
2, 148280, Note_off_c, 1, 56, 0
2, 148320, Note_on_c, 1, 57, 127
2, 148480, Note_off_c, 1, 57, 0
2, 148520, Note_on_c, 1, 54, 127
2, 148680, Note_off_c, 1, 61, 0
2, 148680, Note_off_c, 1, 64, 0
2, 148720, Note_on_c, 1, 57, 127
2, 148720, Note_on_c, 1, 60, 127
2, 148720, Note_on_c, 1, 63, 127
2, 148880, Note_off_c, 1, 52, 0
2, 148880, Note_off_c, 1, 54, 0
2, 148880, Note_off_c, 1, 57, 0
2, 148880, Note_off_c, 1, 60, 0
2, 148880, Note_off_c, 1, 63, 0
2, 148920, Note_on_c, 1, 52, 127
2, 148920, Note_on_c, 1, 56, 127
2, 148920, Note_on_c, 1, 59, 127
2, 148920, Note_on_c, 1, 64, 127
2, 149120, Note_on_c, 1, 40, 127
2, 149320, Note_on_c, 1, 44, 127
2, 149480, Note_off_c, 1, 44, 0
2, 149520, Note_on_c, 1, 47, 127
2, 149680, Note_off_c, 1, 52, 0
2, 149720, Note_on_c, 1, 52, 127
2, 150240, Note_off_c, 1, 56, 0
2, 150240, Note_off_c, 1, 59, 0
2, 150240, Note_off_c, 1, 64, 0
2, 150320, Note_on_c, 1, 71, 127
2, 150440, Note_off_c, 1, 47, 0
2, 150440, Note_off_c, 1, 52, 0
2, 150480, Note_off_c, 1, 40, 0
2, 150480, Note_off_c, 1, 71, 0
2, 150520, Note_on_c, 1, 71, 127
2, 150720, Note_on_c, 1, 52, 127
2, 150920, Note_on_c, 1, 56, 127
2, 151120, Note_on_c, 1, 59, 127
2, 151280, Note_on_c, 1, 64, 127
2, 151480, Note_on_c, 1, 68, 127
2, 151640, Note_off_c, 1, 71, 0
2, 151680, Note_on_c, 1, 71, 127
2, 151880, Note_on_c, 1, 76, 127
2, 152040, Note_off_c, 1, 56, 0
2, 152040, Note_off_c, 1, 59, 0
2, 152040, Note_off_c, 1, 64, 0
2, 152040, Note_off_c, 1, 68, 0
2, 152040, Note_off_c, 1, 71, 0
2, 152040, Note_off_c, 1, 76, 0
2, 152080, Note_on_c, 1, 61, 127
2, 152080, Note_on_c, 1, 66, 127
2, 152080, Note_on_c, 1, 71, 127
2, 152200, Note_off_c, 1, 71, 0
2, 152240, Note_off_c, 1, 52, 0
2, 152240, Note_on_c, 1, 70, 127
2, 152280, Note_on_c, 1, 55, 127
2, 152280, Note_off_c, 1, 70, 0
2, 152280, Note_on_c, 1, 71, 127
2, 152320, Note_off_c, 1, 71, 0
2, 152360, Note_on_c, 1, 70, 127
2, 152400, Note_off_c, 1, 70, 0
2, 152440, Note_off_c, 1, 55, 0
2, 152440, Note_on_c, 1, 71, 127
2, 152480, Note_on_c, 1, 49, 127
2, 152480, Note_on_c, 1, 70, 127
2, 152480, Note_off_c, 1, 71, 0
2, 152520, Note_off_c, 1, 70, 0
2, 152560, Note_on_c, 1, 71, 127
2, 152600, Note_on_c, 1, 70, 127
2, 152600, Note_off_c, 1, 71, 0
2, 152640, Note_off_c, 1, 49, 0
2, 152680, Note_on_c, 1, 52, 127
2, 152840, Note_off_c, 1, 52, 0
2, 152880, Note_on_c, 1, 46, 127
2, 153040, Note_off_c, 1, 46, 0
2, 153080, Note_on_c, 1, 49, 127
2, 153240, Note_off_c, 1, 49, 0
2, 153280, Note_on_c, 1, 42, 127
2, 153440, Note_off_c, 1, 42, 0
2, 153480, Note_on_c, 1, 52, 127
2, 153640, Note_off_c, 1, 52, 0
2, 153680, Note_on_c, 1, 50, 127
2, 153760, Note_off_c, 1, 70, 0
2, 153880, Note_on_c, 1, 54, 127
2, 154080, Note_on_c, 1, 58, 127
2, 154240, Note_off_c, 1, 66, 0
2, 154280, Note_on_c, 1, 64, 127
2, 154400, Note_off_c, 1, 54, 0
2, 154440, Note_off_c, 1, 58, 0
2, 154440, Note_off_c, 1, 61, 0
2, 154440, Note_off_c, 1, 64, 0
2, 154480, Note_on_c, 1, 59, 127
2, 154480, Note_on_c, 1, 62, 127
2, 154680, Note_on_c, 1, 66, 127
2, 154840, Note_off_c, 1, 50, 0
2, 154880, Note_on_c, 1, 50, 127
2, 154880, Note_on_c, 1, 54, 127
2, 154880, Note_on_c, 1, 71, 127
2, 155080, Note_on_c, 1, 74, 127
2, 155200, Note_off_c, 1, 50, 0
2, 155200, Note_off_c, 1, 54, 0
2, 155200, Note_off_c, 1, 62, 0
2, 155200, Note_off_c, 1, 66, 0
2, 155200, Note_off_c, 1, 71, 0
2, 155200, Note_off_c, 1, 74, 0
2, 155240, Note_on_c, 1, 49, 127
2, 155240, Note_on_c, 1, 55, 127
2, 155240, Note_on_c, 1, 76, 127
2, 155400, Note_off_c, 1, 76, 0
2, 155440, Note_on_c, 1, 79, 127
2, 155600, Note_off_c, 1, 55, 0
2, 155600, Note_off_c, 1, 59, 0
2, 155600, Note_off_c, 1, 79, 0
2, 155640, Note_on_c, 1, 52, 127
2, 155640, Note_on_c, 1, 55, 127
2, 155640, Note_on_c, 1, 73, 127
2, 155800, Note_off_c, 1, 73, 0
2, 155840, Note_on_c, 1, 76, 127
2, 156000, Note_off_c, 1, 49, 0
2, 156000, Note_off_c, 1, 52, 0
2, 156000, Note_off_c, 1, 55, 0
2, 156000, Note_off_c, 1, 76, 0
2, 156040, Note_on_c, 1, 54, 127
2, 156040, Note_on_c, 1, 70, 127
2, 156200, Note_off_c, 1, 70, 0
2, 156240, Note_on_c, 1, 73, 127
2, 156400, Note_off_c, 1, 73, 0
2, 156440, Note_on_c, 1, 42, 127
2, 156440, Note_on_c, 1, 66, 127
2, 156640, Note_on_c, 1, 76, 127
2, 156800, Note_off_c, 1, 42, 0
2, 156800, Note_off_c, 1, 54, 0
2, 156800, Note_off_c, 1, 76, 0
2, 156840, Note_on_c, 1, 47, 127
2, 156840, Note_on_c, 1, 74, 127
2, 157000, Note_off_c, 1, 66, 0
2, 157040, Note_on_c, 1, 66, 127
2, 157200, Note_off_c, 1, 66, 0
2, 157240, Note_on_c, 1, 68, 127
2, 157400, Note_off_c, 1, 68, 0
2, 157440, Note_on_c, 1, 70, 127
2, 157600, Note_off_c, 1, 70, 0
2, 157600, Note_off_c, 1, 74, 0
2, 157640, Note_on_c, 1, 71, 127
2, 157840, Note_on_c, 1, 74, 127
2, 158000, Note_off_c, 1, 74, 0
2, 158040, Note_on_c, 1, 67, 127
2, 158200, Note_off_c, 1, 71, 0
2, 158240, Note_on_c, 1, 71, 127
2, 158400, Note_off_c, 1, 67, 0
2, 158400, Note_off_c, 1, 71, 0
2, 158440, Note_on_c, 1, 65, 127
2, 158440, Note_on_c, 1, 68, 127
2, 158440, Note_on_c, 1, 73, 127
2, 158600, Note_off_c, 1, 47, 0
2, 158640, Note_on_c, 1, 50, 127
2, 158800, Note_off_c, 1, 50, 0
2, 158840, Note_on_c, 1, 44, 127
2, 158960, Note_off_c, 1, 44, 0
2, 159040, Note_on_c, 1, 47, 127
2, 159160, Note_off_c, 1, 47, 0
2, 159200, Note_on_c, 1, 41, 127
2, 159360, Note_off_c, 1, 41, 0
2, 159400, Note_on_c, 1, 44, 127
2, 159560, Note_off_c, 1, 44, 0
2, 159600, Note_on_c, 1, 37, 127
2, 159760, Note_off_c, 1, 37, 0
2, 159800, Note_on_c, 1, 47, 127
2, 159960, Note_off_c, 1, 47, 0
2, 159960, Note_off_c, 1, 65, 0
2, 159960, Note_off_c, 1, 68, 0
2, 160000, Note_on_c, 1, 45, 127
2, 160000, Note_on_c, 1, 66, 127
2, 160000, Note_on_c, 1, 69, 127
2, 160200, Note_on_c, 1, 49, 127
2, 160400, Note_on_c, 1, 54, 127
2, 160600, Note_on_c, 1, 57, 127
2, 160760, Note_off_c, 1, 49, 0
2, 160760, Note_off_c, 1, 54, 0
2, 160760, Note_off_c, 1, 57, 0
2, 160760, Note_off_c, 1, 66, 0
2, 160760, Note_off_c, 1, 69, 0
2, 160760, Note_off_c, 1, 73, 0
2, 160800, Note_on_c, 1, 51, 127
2, 160800, Note_on_c, 1, 59, 127
2, 161000, Note_on_c, 1, 63, 127
2, 161160, Note_off_c, 1, 45, 0
2, 161160, Note_off_c, 1, 51, 0
2, 161200, Note_on_c, 1, 45, 127
2, 161200, Note_on_c, 1, 66, 127
2, 161400, Note_on_c, 1, 71, 127
2, 161520, Note_off_c, 1, 63, 0
2, 161560, Note_off_c, 1, 45, 0
2, 161560, Note_off_c, 1, 59, 0
2, 161560, Note_off_c, 1, 66, 0
2, 161600, Note_on_c, 1, 44, 127
2, 161600, Note_on_c, 1, 65, 127
2, 161760, Note_off_c, 1, 44, 0
2, 161760, Note_off_c, 1, 71, 0
2, 161800, Note_on_c, 1, 49, 127
2, 161800, Note_on_c, 1, 68, 127
2, 161960, Note_off_c, 1, 49, 0
2, 161960, Note_off_c, 1, 65, 0
2, 161960, Note_off_c, 1, 68, 0
2, 162000, Note_on_c, 1, 51, 127
2, 162000, Note_on_c, 1, 73, 127
2, 162160, Note_off_c, 1, 51, 0
2, 162160, Note_off_c, 1, 73, 0
2, 162200, Note_on_c, 1, 53, 127
2, 162200, Note_on_c, 1, 71, 127
2, 162360, Note_off_c, 1, 53, 0
2, 162360, Note_off_c, 1, 71, 0
2, 162400, Note_on_c, 1, 54, 127
2, 162400, Note_on_c, 1, 69, 127
2, 162560, Note_off_c, 1, 54, 0
2, 162600, Note_on_c, 1, 53, 127
2, 162600, Note_on_c, 1, 66, 127
2, 162720, Note_off_c, 1, 69, 0
2, 162760, Note_off_c, 1, 53, 0
2, 162800, Note_on_c, 1, 54, 127
2, 162800, Note_on_c, 1, 74, 127
2, 162920, Note_off_c, 1, 54, 0
2, 162920, Note_off_c, 1, 66, 0
2, 163000, Note_on_c, 1, 56, 127
2, 163000, Note_on_c, 1, 65, 127
2, 163120, Note_off_c, 1, 56, 0
2, 163120, Note_off_c, 1, 65, 0
2, 163120, Note_off_c, 1, 74, 0
2, 163160, Note_on_c, 1, 57, 127
2, 163160, Note_on_c, 1, 73, 127
2, 163320, Note_off_c, 1, 57, 0
2, 163360, Note_on_c, 1, 56, 127
2, 163360, Note_on_c, 1, 65, 127
2, 163520, Note_off_c, 1, 56, 0
2, 163520, Note_off_c, 1, 65, 0
2, 163560, Note_on_c, 1, 57, 127
2, 163560, Note_on_c, 1, 66, 127
2, 163720, Note_off_c, 1, 57, 0
2, 163720, Note_off_c, 1, 73, 0
2, 163760, Note_on_c, 1, 59, 127
2, 163760, Note_on_c, 1, 68, 127
2, 163920, Note_off_c, 1, 59, 0
2, 163920, Note_off_c, 1, 68, 0
2, 163960, Note_on_c, 1, 61, 127
2, 163960, Note_on_c, 1, 69, 127
2, 164120, Note_off_c, 1, 66, 0
2, 164160, Note_on_c, 1, 66, 127
2, 164320, Note_off_c, 1, 61, 0
2, 164320, Note_off_c, 1, 69, 0
2, 164360, Note_on_c, 1, 49, 127
2, 164360, Note_on_c, 1, 68, 127
2, 164520, Note_off_c, 1, 66, 0
2, 164560, Note_on_c, 1, 65, 127
2, 164720, Note_off_c, 1, 49, 0
2, 164720, Note_off_c, 1, 65, 0
2, 164720, Note_off_c, 1, 68, 0
2, 164760, Note_on_c, 1, 54, 127
2, 164760, Note_on_c, 1, 66, 127
2, 164960, Note_on_c, 1, 57, 127
2, 164960, Note_off_c, 1, 66, 0
2, 164960, Note_on_c, 1, 73, 127
2, 165120, Note_off_c, 1, 57, 0
2, 165120, Note_off_c, 1, 73, 0
2, 165160, Note_on_c, 1, 61, 127
2, 165160, Note_on_c, 1, 78, 127
2, 165320, Note_off_c, 1, 61, 0
2, 165320, Note_off_c, 1, 78, 0
2, 165360, Note_on_c, 1, 65, 127
2, 165360, Note_on_c, 1, 80, 127
2, 165520, Note_off_c, 1, 54, 0
2, 165520, Note_off_c, 1, 65, 0
2, 165520, Note_off_c, 1, 80, 0
2, 165560, Note_on_c, 1, 66, 127
2, 165560, Note_on_c, 1, 81, 127
2, 165640, Note_off_c, 1, 81, 0
2, 165680, Note_on_c, 1, 80, 127
2, 165720, Note_off_c, 1, 66, 0
2, 165720, Note_off_c, 1, 80, 0
2, 165760, Note_on_c, 1, 69, 127
2, 165760, Note_on_c, 1, 81, 127
2, 165920, Note_off_c, 1, 69, 0
2, 165960, Note_on_c, 1, 54, 127
2, 165960, Note_on_c, 1, 62, 127
2, 166120, Note_off_c, 1, 62, 0
2, 166120, Note_off_c, 1, 81, 0
2, 166160, Note_on_c, 1, 66, 127
2, 166160, Note_on_c, 1, 81, 127
2, 166320, Note_off_c, 1, 54, 0
2, 166320, Note_off_c, 1, 66, 0
2, 166320, Note_off_c, 1, 81, 0
2, 166360, Note_on_c, 1, 56, 127
2, 166360, Note_on_c, 1, 60, 127
2, 166360, Note_on_c, 1, 81, 127
2, 166520, Note_off_c, 1, 81, 0
2, 166560, Note_on_c, 1, 78, 127
2, 166720, Note_off_c, 1, 78, 0
2, 166760, Note_on_c, 1, 75, 127
2, 166920, Note_off_c, 1, 75, 0
2, 166960, Note_on_c, 1, 78, 127
2, 167120, Note_off_c, 1, 60, 0
2, 167120, Note_off_c, 1, 78, 0
2, 167160, Note_on_c, 1, 72, 127
2, 167320, Note_off_c, 1, 56, 0
2, 167320, Note_off_c, 1, 72, 0
2, 167360, Note_on_c, 1, 56, 127
2, 167360, Note_on_c, 1, 75, 127
2, 167520, Note_off_c, 1, 56, 0
2, 167520, Note_off_c, 1, 75, 0
2, 167560, Note_on_c, 1, 58, 127
2, 167560, Note_on_c, 1, 68, 127
2, 167720, Note_off_c, 1, 58, 0
2, 167720, Note_off_c, 1, 68, 0
2, 167760, Note_on_c, 1, 60, 127
2, 167760, Note_on_c, 1, 78, 127
2, 167920, Note_off_c, 1, 60, 0
2, 167920, Note_off_c, 1, 78, 0
2, 167960, Note_on_c, 1, 61, 127
2, 167960, Note_on_c, 1, 76, 127
2, 168120, Note_off_c, 1, 61, 0
2, 168160, Note_on_c, 1, 64, 127
2, 168160, Note_on_c, 1, 75, 127
2, 168320, Note_off_c, 1, 64, 0
2, 168320, Note_off_c, 1, 75, 0
2, 168360, Note_on_c, 1, 57, 127
2, 168360, Note_on_c, 1, 73, 127
2, 168480, Note_off_c, 1, 57, 0
2, 168480, Note_off_c, 1, 73, 0
2, 168560, Note_on_c, 1, 61, 127
2, 168560, Note_on_c, 1, 71, 127
2, 168680, Note_off_c, 1, 61, 0
2, 168680, Note_off_c, 1, 71, 0
2, 168720, Note_on_c, 1, 54, 127
2, 168720, Note_on_c, 1, 69, 127
2, 168880, Note_off_c, 1, 54, 0
2, 168880, Note_off_c, 1, 76, 0
2, 168920, Note_on_c, 1, 57, 127
2, 168920, Note_on_c, 1, 76, 127
2, 169080, Note_off_c, 1, 57, 0
2, 169080, Note_off_c, 1, 76, 0
2, 169120, Note_on_c, 1, 51, 127
2, 169120, Note_on_c, 1, 75, 127
2, 169280, Note_off_c, 1, 51, 0
2, 169280, Note_off_c, 1, 75, 0
2, 169320, Note_on_c, 1, 54, 127
2, 169320, Note_on_c, 1, 73, 127
2, 169480, Note_off_c, 1, 54, 0
2, 169480, Note_off_c, 1, 73, 0
2, 169520, Note_on_c, 1, 44, 127
2, 169520, Note_on_c, 1, 72, 127
2, 169680, Note_off_c, 1, 69, 0
2, 169720, Note_on_c, 1, 51, 127
2, 169720, Note_on_c, 1, 68, 127
2, 169880, Note_off_c, 1, 51, 0
2, 169880, Note_off_c, 1, 72, 0
2, 169920, Note_on_c, 1, 56, 127
2, 169920, Note_on_c, 1, 70, 127
2, 170080, Note_off_c, 1, 56, 0
2, 170080, Note_off_c, 1, 70, 0
2, 170120, Note_on_c, 1, 54, 127
2, 170120, Note_on_c, 1, 72, 127
2, 170280, Note_off_c, 1, 44, 0
2, 170280, Note_off_c, 1, 54, 0
2, 170280, Note_off_c, 1, 72, 0
2, 170320, Note_on_c, 1, 52, 127
2, 170320, Note_on_c, 1, 73, 127
2, 170480, Note_off_c, 1, 73, 0
2, 170520, Note_on_c, 1, 61, 127
2, 170520, Note_on_c, 1, 72, 127
2, 170680, Note_off_c, 1, 52, 0
2, 170680, Note_off_c, 1, 72, 0
2, 170720, Note_on_c, 1, 51, 127
2, 170720, Note_on_c, 1, 73, 127
2, 170880, Note_off_c, 1, 61, 0
2, 170880, Note_off_c, 1, 73, 0
2, 170920, Note_on_c, 1, 60, 127
2, 170920, Note_on_c, 1, 75, 127
2, 171080, Note_off_c, 1, 51, 0
2, 171080, Note_off_c, 1, 60, 0
2, 171080, Note_off_c, 1, 68, 0
2, 171080, Note_off_c, 1, 75, 0
2, 171120, Note_on_c, 1, 49, 127
2, 171120, Note_on_c, 1, 76, 127
2, 171280, Note_off_c, 1, 49, 0
2, 171280, Note_off_c, 1, 76, 0
2, 171320, Note_on_c, 1, 51, 127
2, 171320, Note_on_c, 1, 78, 127
2, 171480, Note_off_c, 1, 51, 0
2, 171480, Note_off_c, 1, 78, 0
2, 171520, Note_on_c, 1, 52, 127
2, 171520, Note_on_c, 1, 80, 127
2, 171680, Note_off_c, 1, 52, 0
2, 171680, Note_off_c, 1, 80, 0
2, 171720, Note_on_c, 1, 54, 127
2, 171720, Note_on_c, 1, 81, 127
2, 171880, Note_off_c, 1, 54, 0
2, 171880, Note_off_c, 1, 81, 0
2, 171920, Note_on_c, 1, 56, 127
2, 171920, Note_on_c, 1, 72, 127
2, 171920, Note_on_c, 1, 76, 127
2, 172000, Note_off_c, 1, 76, 0
2, 172040, Note_on_c, 1, 75, 127
2, 172080, Note_off_c, 1, 75, 0
2, 172120, Note_on_c, 1, 76, 127
2, 172160, Note_on_c, 1, 75, 127
2, 172160, Note_off_c, 1, 76, 0
2, 172200, Note_off_c, 1, 75, 0
2, 172240, Note_on_c, 1, 76, 127
2, 172280, Note_off_c, 1, 76, 0
2, 172320, Note_on_c, 1, 44, 127
2, 172320, Note_on_c, 1, 75, 127
2, 172440, Note_off_c, 1, 75, 0
2, 172480, Note_on_c, 1, 73, 127
2, 172640, Note_off_c, 1, 44, 0
2, 172640, Note_off_c, 1, 72, 0
2, 172640, Note_off_c, 1, 73, 0
2, 172680, Note_on_c, 1, 49, 127
2, 172680, Note_on_c, 1, 73, 127
2, 172880, Note_on_c, 1, 68, 127
2, 173080, Note_on_c, 1, 64, 127
2, 173240, Note_off_c, 1, 56, 0
2, 173280, Note_on_c, 1, 56, 127
2, 173440, Note_off_c, 1, 49, 0
2, 173440, Note_off_c, 1, 56, 0
2, 173480, Note_on_c, 1, 61, 127
2, 173560, Note_off_c, 1, 61, 0
2, 173600, Note_on_c, 1, 60, 127
2, 173640, Note_off_c, 1, 60, 0
2, 173640, Note_off_c, 1, 64, 0
2, 173640, Note_off_c, 1, 68, 0
2, 173640, Note_off_c, 1, 73, 0
2, 173680, Note_on_c, 1, 61, 127
2, 173680, Note_on_c, 1, 74, 127
2, 173840, Note_off_c, 1, 74, 0
2, 173880, Note_on_c, 1, 73, 127
2, 174040, Note_off_c, 1, 61, 0
2, 174040, Note_off_c, 1, 73, 0
2, 174080, Note_on_c, 1, 59, 127
2, 174080, Note_on_c, 1, 74, 127
2, 174240, Note_off_c, 1, 59, 0
2, 174240, Note_off_c, 1, 74, 0
2, 174280, Note_on_c, 1, 58, 127
2, 174280, Note_on_c, 1, 76, 127
2, 174440, Note_off_c, 1, 58, 0
2, 174440, Note_off_c, 1, 76, 0
2, 174480, Note_on_c, 1, 59, 127
2, 174480, Note_on_c, 1, 79, 127
2, 174640, Note_off_c, 1, 59, 0
2, 174640, Note_off_c, 1, 79, 0
2, 174680, Note_on_c, 1, 58, 127
2, 174680, Note_on_c, 1, 73, 127
2, 174840, Note_off_c, 1, 58, 0
2, 174840, Note_off_c, 1, 73, 0
2, 174880, Note_on_c, 1, 56, 127
2, 174880, Note_on_c, 1, 76, 127
2, 175040, Note_off_c, 1, 56, 0
2, 175040, Note_off_c, 1, 76, 0
2, 175080, Note_on_c, 1, 54, 127
2, 175080, Note_on_c, 1, 70, 127
2, 175240, Note_off_c, 1, 54, 0
2, 175240, Note_off_c, 1, 70, 0
2, 175280, Note_on_c, 1, 52, 127
2, 175280, Note_on_c, 1, 73, 127
2, 175440, Note_off_c, 1, 52, 0
2, 175440, Note_off_c, 1, 73, 0
2, 175480, Note_on_c, 1, 50, 127
2, 175480, Note_on_c, 1, 66, 127
2, 175640, Note_off_c, 1, 50, 0
2, 175640, Note_off_c, 1, 66, 0
2, 175680, Note_on_c, 1, 49, 127
2, 175680, Note_on_c, 1, 76, 127
2, 175840, Note_off_c, 1, 49, 0
2, 175840, Note_off_c, 1, 76, 0
2, 175880, Note_on_c, 1, 47, 127
2, 175880, Note_on_c, 1, 74, 127
2, 176080, Note_on_c, 1, 71, 127
2, 176280, Note_on_c, 1, 66, 127
2, 176440, Note_on_c, 1, 54, 127
2, 176600, Note_off_c, 1, 47, 0
2, 176600, Note_off_c, 1, 54, 0
2, 176640, Note_on_c, 1, 59, 127
2, 176720, Note_off_c, 1, 59, 0
2, 176760, Note_on_c, 1, 58, 127
2, 176800, Note_off_c, 1, 58, 0
2, 176800, Note_off_c, 1, 66, 0
2, 176800, Note_off_c, 1, 71, 0
2, 176800, Note_off_c, 1, 74, 0
2, 176840, Note_on_c, 1, 59, 127
2, 176840, Note_on_c, 1, 73, 127
2, 177000, Note_off_c, 1, 73, 0
2, 177040, Note_on_c, 1, 71, 127
2, 177200, Note_off_c, 1, 59, 0
2, 177200, Note_off_c, 1, 71, 0
2, 177240, Note_on_c, 1, 57, 127
2, 177240, Note_on_c, 1, 73, 127
2, 177400, Note_off_c, 1, 57, 0
2, 177400, Note_off_c, 1, 73, 0
2, 177440, Note_on_c, 1, 56, 127
2, 177440, Note_on_c, 1, 74, 127
2, 177600, Note_off_c, 1, 56, 0
2, 177600, Note_off_c, 1, 74, 0
2, 177640, Note_on_c, 1, 57, 127
2, 177640, Note_on_c, 1, 76, 127
2, 177720, Note_off_c, 1, 76, 0
2, 177760, Note_on_c, 1, 78, 127
2, 177800, Note_off_c, 1, 57, 0
2, 177800, Note_off_c, 1, 78, 0
2, 177840, Note_on_c, 1, 56, 127
2, 177840, Note_on_c, 1, 71, 127
2, 178000, Note_off_c, 1, 56, 0
2, 178000, Note_off_c, 1, 71, 0
2, 178040, Note_on_c, 1, 54, 127
2, 178040, Note_on_c, 1, 73, 127
2, 178080, Note_off_c, 1, 73, 0
2, 178160, Note_on_c, 1, 74, 127
2, 178200, Note_off_c, 1, 54, 0
2, 178200, Note_off_c, 1, 74, 0
2, 178240, Note_on_c, 1, 52, 127
2, 178240, Note_on_c, 1, 68, 127
2, 178400, Note_off_c, 1, 52, 0
2, 178400, Note_off_c, 1, 68, 0
2, 178440, Note_on_c, 1, 50, 127
2, 178440, Note_on_c, 1, 69, 127
2, 178480, Note_off_c, 1, 69, 0
2, 178520, Note_on_c, 1, 71, 127
2, 178600, Note_off_c, 1, 50, 0
2, 178600, Note_off_c, 1, 71, 0
2, 178640, Note_on_c, 1, 49, 127
2, 178640, Note_on_c, 1, 64, 127
2, 178800, Note_off_c, 1, 49, 0
2, 178800, Note_off_c, 1, 64, 0
2, 178840, Note_on_c, 1, 47, 127
2, 178840, Note_on_c, 1, 74, 127
2, 179000, Note_off_c, 1, 47, 0
2, 179000, Note_off_c, 1, 74, 0
2, 179040, Note_on_c, 1, 45, 127
2, 179040, Note_on_c, 1, 73, 127
2, 179240, Note_on_c, 1, 69, 127
2, 179440, Note_on_c, 1, 64, 127
2, 179640, Note_on_c, 1, 52, 127
2, 179760, Note_off_c, 1, 45, 0
2, 179800, Note_off_c, 1, 52, 0
2, 179840, Note_on_c, 1, 57, 127
2, 179880, Note_off_c, 1, 57, 0
2, 179920, Note_on_c, 1, 56, 127
2, 179960, Note_off_c, 1, 56, 0
2, 179960, Note_off_c, 1, 64, 0
2, 179960, Note_off_c, 1, 69, 0
2, 180000, Note_off_c, 1, 73, 0
2, 180040, Note_on_c, 1, 57, 127
2, 180040, Note_on_c, 1, 69, 127
2, 180160, Note_off_c, 1, 69, 0
2, 180200, Note_on_c, 1, 71, 127
2, 180360, Note_off_c, 1, 57, 0
2, 180360, Note_off_c, 1, 71, 0
2, 180400, Note_on_c, 1, 55, 127
2, 180400, Note_on_c, 1, 73, 127
2, 180560, Note_off_c, 1, 55, 0
2, 180560, Note_off_c, 1, 73, 0
2, 180600, Note_on_c, 1, 54, 127
2, 180600, Note_on_c, 1, 74, 127
2, 180760, Note_off_c, 1, 54, 0
2, 180760, Note_off_c, 1, 74, 0
2, 180800, Note_on_c, 1, 55, 127
2, 180800, Note_on_c, 1, 76, 127
2, 180960, Note_off_c, 1, 55, 0
2, 180960, Note_off_c, 1, 76, 0
2, 181000, Note_on_c, 1, 54, 127
2, 181000, Note_on_c, 1, 74, 127
2, 181160, Note_off_c, 1, 54, 0
2, 181160, Note_off_c, 1, 74, 0
2, 181200, Note_on_c, 1, 52, 127
2, 181200, Note_on_c, 1, 73, 127
2, 181360, Note_off_c, 1, 52, 0
2, 181360, Note_off_c, 1, 73, 0
2, 181400, Note_on_c, 1, 50, 127
2, 181400, Note_on_c, 1, 71, 127
2, 181560, Note_off_c, 1, 50, 0
2, 181560, Note_off_c, 1, 71, 0
2, 181600, Note_on_c, 1, 49, 127
2, 181600, Note_on_c, 1, 69, 127
2, 181760, Note_off_c, 1, 49, 0
2, 181760, Note_off_c, 1, 69, 0
2, 181800, Note_on_c, 1, 47, 127
2, 181800, Note_on_c, 1, 68, 127
2, 181960, Note_off_c, 1, 47, 0
2, 181960, Note_off_c, 1, 68, 0
2, 182000, Note_on_c, 1, 45, 127
2, 182000, Note_on_c, 1, 69, 127
2, 182160, Note_off_c, 1, 45, 0
2, 182160, Note_off_c, 1, 69, 0
2, 182200, Note_on_c, 1, 52, 127
2, 182200, Note_on_c, 1, 69, 127
2, 182240, Note_off_c, 1, 69, 0
2, 182280, Note_on_c, 1, 68, 127
2, 182320, Note_off_c, 1, 68, 0
2, 182320, Note_on_c, 1, 69, 127
2, 182360, Note_off_c, 1, 69, 0
2, 182400, Note_on_c, 1, 68, 127
2, 182560, Note_off_c, 1, 68, 0
2, 182600, Note_on_c, 1, 64, 127
2, 182760, Note_off_c, 1, 52, 0
2, 182760, Note_off_c, 1, 64, 0
2, 182800, Note_on_c, 1, 50, 127
2, 182800, Note_on_c, 1, 71, 127
2, 182960, Note_off_c, 1, 50, 0
2, 182960, Note_off_c, 1, 71, 0
2, 183000, Note_on_c, 1, 49, 127
2, 183000, Note_on_c, 1, 76, 127
2, 183160, Note_off_c, 1, 49, 0
2, 183200, Note_on_c, 1, 45, 127
2, 183360, Note_off_c, 1, 45, 0
2, 183400, Note_on_c, 1, 49, 127
2, 183560, Note_off_c, 1, 49, 0
2, 183560, Note_off_c, 1, 76, 0
2, 183600, Note_on_c, 1, 52, 127
2, 183600, Note_on_c, 1, 74, 127
2, 183720, Note_off_c, 1, 52, 0
2, 183720, Note_off_c, 1, 74, 0
2, 183800, Note_on_c, 1, 57, 127
2, 183800, Note_on_c, 1, 73, 127
2, 183920, Note_off_c, 1, 73, 0
2, 183960, Note_on_c, 1, 69, 127
2, 184120, Note_off_c, 1, 69, 0
2, 184160, Note_on_c, 1, 73, 127
2, 184320, Note_off_c, 1, 57, 0
2, 184320, Note_off_c, 1, 73, 0
2, 184360, Note_on_c, 1, 55, 127
2, 184360, Note_on_c, 1, 76, 127
2, 184520, Note_off_c, 1, 55, 0
2, 184520, Note_off_c, 1, 76, 0
2, 184560, Note_on_c, 1, 54, 127
2, 184560, Note_on_c, 1, 81, 127
2, 184720, Note_off_c, 1, 54, 0
2, 184760, Note_on_c, 1, 50, 127
2, 184920, Note_off_c, 1, 50, 0
2, 184960, Note_on_c, 1, 54, 127
2, 185120, Note_off_c, 1, 54, 0
2, 185120, Note_off_c, 1, 81, 0
2, 185160, Note_on_c, 1, 57, 127
2, 185160, Note_on_c, 1, 79, 127
2, 185320, Note_off_c, 1, 57, 0
2, 185320, Note_off_c, 1, 79, 0
2, 185360, Note_on_c, 1, 62, 127
2, 185360, Note_on_c, 1, 78, 127
2, 185520, Note_off_c, 1, 78, 0
2, 185560, Note_on_c, 1, 81, 127
2, 185720, Note_off_c, 1, 62, 0
2, 185720, Note_off_c, 1, 81, 0
2, 185760, Note_on_c, 1, 61, 127
2, 185760, Note_on_c, 1, 74, 127
2, 185920, Note_off_c, 1, 74, 0
2, 185960, Note_on_c, 1, 76, 127
2, 186120, Note_off_c, 1, 61, 0
2, 186120, Note_off_c, 1, 76, 0
2, 186160, Note_on_c, 1, 59, 127
2, 186160, Note_on_c, 1, 78, 127
2, 186320, Note_off_c, 1, 78, 0
2, 186360, Note_on_c, 1, 74, 127
2, 186520, Note_off_c, 1, 59, 0
2, 186520, Note_off_c, 1, 74, 0
2, 186560, Note_on_c, 1, 57, 127
2, 186560, Note_on_c, 1, 71, 127
2, 186720, Note_off_c, 1, 71, 0
2, 186760, Note_on_c, 1, 73, 127
2, 186920, Note_off_c, 1, 57, 0
2, 186920, Note_off_c, 1, 73, 0
2, 186960, Note_on_c, 1, 59, 127
2, 186960, Note_on_c, 1, 74, 127
2, 187120, Note_off_c, 1, 74, 0
2, 187160, Note_on_c, 1, 78, 127
2, 187320, Note_off_c, 1, 59, 0
2, 187320, Note_off_c, 1, 78, 0
2, 187360, Note_on_c, 1, 57, 127
2, 187360, Note_on_c, 1, 71, 127
2, 187480, Note_off_c, 1, 71, 0
2, 187560, Note_on_c, 1, 73, 127
2, 187680, Note_off_c, 1, 57, 0
2, 187680, Note_off_c, 1, 73, 0
2, 187720, Note_on_c, 1, 56, 127
2, 187720, Note_on_c, 1, 74, 127
2, 187880, Note_off_c, 1, 74, 0
2, 187920, Note_on_c, 1, 71, 127
2, 188080, Note_off_c, 1, 56, 0
2, 188080, Note_off_c, 1, 71, 0
2, 188120, Note_on_c, 1, 54, 127
2, 188120, Note_on_c, 1, 68, 127
2, 188280, Note_off_c, 1, 68, 0
2, 188320, Note_on_c, 1, 69, 127
2, 188480, Note_off_c, 1, 54, 0
2, 188480, Note_off_c, 1, 69, 0
2, 188520, Note_on_c, 1, 52, 127
2, 188520, Note_on_c, 1, 69, 127
2, 188560, Note_off_c, 1, 69, 0
2, 188600, Note_on_c, 1, 68, 127
2, 188640, Note_off_c, 1, 68, 0
2, 188680, Note_on_c, 1, 69, 127
2, 188720, Note_on_c, 1, 54, 127
2, 188720, Note_on_c, 1, 68, 127
2, 188720, Note_off_c, 1, 69, 0
2, 188880, Note_off_c, 1, 54, 0
2, 188920, Note_on_c, 1, 56, 127
2, 189000, Note_off_c, 1, 68, 0
2, 189120, Note_on_c, 1, 59, 127
2, 189120, Note_on_c, 1, 66, 127
2, 189280, Note_off_c, 1, 66, 0
2, 189320, Note_on_c, 1, 64, 127
2, 189520, Note_on_c, 1, 68, 127
2, 189680, Note_off_c, 1, 68, 0
2, 189720, Note_on_c, 1, 71, 127
2, 189880, Note_off_c, 1, 71, 0
2, 189920, Note_on_c, 1, 76, 127
2, 190080, Note_off_c, 1, 56, 0
2, 190080, Note_off_c, 1, 59, 0
2, 190080, Note_off_c, 1, 64, 0
2, 190120, Note_on_c, 1, 57, 127
2, 190120, Note_on_c, 1, 66, 127
2, 190280, Note_off_c, 1, 76, 0
2, 190320, Note_on_c, 1, 76, 127
2, 190480, Note_off_c, 1, 76, 0
2, 190520, Note_on_c, 1, 75, 127
2, 190680, Note_off_c, 1, 75, 0
2, 190720, Note_on_c, 1, 73, 127
2, 190880, Note_off_c, 1, 73, 0
2, 190920, Note_on_c, 1, 75, 127
2, 191040, Note_off_c, 1, 75, 0
2, 191120, Note_on_c, 1, 78, 127
2, 191240, Note_off_c, 1, 78, 0
2, 191280, Note_on_c, 1, 71, 127
2, 191440, Note_off_c, 1, 71, 0
2, 191480, Note_on_c, 1, 73, 127
2, 191640, Note_off_c, 1, 57, 0
2, 191640, Note_off_c, 1, 66, 0
2, 191640, Note_off_c, 1, 73, 0
2, 191680, Note_on_c, 1, 59, 127
2, 191680, Note_on_c, 1, 74, 127
2, 191880, Note_on_c, 1, 71, 127
2, 192080, Note_on_c, 1, 68, 127
2, 192280, Note_on_c, 1, 64, 127
2, 192440, Note_off_c, 1, 59, 0
2, 192480, Note_on_c, 1, 61, 127
2, 192640, Note_off_c, 1, 64, 0
2, 192680, Note_on_c, 1, 64, 127
2, 192840, Note_off_c, 1, 68, 0
2, 192840, Note_off_c, 1, 71, 0
2, 192840, Note_off_c, 1, 74, 0
2, 192880, Note_on_c, 1, 69, 127
2, 192880, Note_on_c, 1, 73, 127
2, 193040, Note_off_c, 1, 61, 0
2, 193080, Note_on_c, 1, 63, 127
2, 193240, Note_off_c, 1, 63, 0
2, 193240, Note_off_c, 1, 64, 0
2, 193240, Note_off_c, 1, 73, 0
2, 193280, Note_on_c, 1, 64, 127
2, 193280, Note_on_c, 1, 71, 127
2, 193440, Note_off_c, 1, 69, 0
2, 193480, Note_on_c, 1, 69, 127
2, 193640, Note_off_c, 1, 69, 0
2, 193680, Note_on_c, 1, 68, 127
2, 193840, Note_off_c, 1, 68, 0
2, 193880, Note_on_c, 1, 66, 127
2, 194040, Note_off_c, 1, 66, 0
2, 194080, Note_on_c, 1, 68, 127
2, 194240, Note_off_c, 1, 64, 0
2, 194280, Note_on_c, 1, 66, 127
2, 194440, Note_off_c, 1, 66, 0
2, 194480, Note_on_c, 1, 59, 127
2, 194640, Note_off_c, 1, 59, 0
2, 194680, Note_on_c, 1, 61, 127
2, 194840, Note_off_c, 1, 61, 0
2, 194880, Note_on_c, 1, 62, 127
2, 195080, Note_on_c, 1, 59, 127
2, 195280, Note_off_c, 1, 52, 0
2, 195280, Note_on_c, 1, 56, 127
2, 195440, Note_on_c, 1, 52, 127
2, 195600, Note_off_c, 1, 56, 0
2, 195600, Note_off_c, 1, 59, 0
2, 195600, Note_off_c, 1, 62, 0
2, 195640, Note_on_c, 1, 61, 127
2, 195800, Note_off_c, 1, 68, 0
2, 195840, Note_on_c, 1, 64, 127
2, 195960, Note_off_c, 1, 71, 0
2, 196000, Note_off_c, 1, 61, 0
2, 196040, Note_on_c, 1, 60, 127
2, 196040, Note_on_c, 1, 69, 127
2, 196200, Note_off_c, 1, 64, 0
2, 196240, Note_on_c, 1, 63, 127
2, 196400, Note_off_c, 1, 60, 0
2, 196400, Note_off_c, 1, 63, 0
2, 196440, Note_on_c, 1, 59, 127
2, 196440, Note_on_c, 1, 64, 127
2, 196480, Note_off_c, 1, 69, 0
2, 196560, Note_on_c, 1, 71, 127
2, 196600, Note_off_c, 1, 71, 0
2, 196640, Note_on_c, 1, 73, 127
2, 196720, Note_off_c, 1, 73, 0
2, 196760, Note_on_c, 1, 74, 127
2, 196800, Note_off_c, 1, 59, 0
2, 196800, Note_off_c, 1, 74, 0
2, 196840, Note_on_c, 1, 57, 127
2, 196840, Note_on_c, 1, 73, 127
2, 196920, Note_off_c, 1, 73, 0
2, 196960, Note_on_c, 1, 71, 127
2, 197000, Note_off_c, 1, 71, 0
2, 197040, Note_on_c, 1, 73, 127
2, 197120, Note_off_c, 1, 73, 0
2, 197160, Note_on_c, 1, 74, 127
2, 197200, Note_off_c, 1, 57, 0
2, 197200, Note_off_c, 1, 74, 0
2, 197240, Note_on_c, 1, 59, 127
2, 197240, Note_on_c, 1, 69, 127
2, 197320, Note_off_c, 1, 69, 0
2, 197360, Note_on_c, 1, 68, 127
2, 197400, Note_off_c, 1, 59, 0
2, 197400, Note_off_c, 1, 68, 0
2, 197440, Note_on_c, 1, 61, 127
2, 197440, Note_on_c, 1, 69, 127
2, 197480, Note_off_c, 1, 69, 0
2, 197520, Note_on_c, 1, 68, 127
2, 197560, Note_off_c, 1, 68, 0
2, 197560, Note_on_c, 1, 69, 127
2, 197600, Note_off_c, 1, 61, 0
2, 197600, Note_off_c, 1, 69, 0
2, 197640, Note_on_c, 1, 62, 127
2, 197640, Note_on_c, 1, 68, 127
2, 197800, Note_off_c, 1, 52, 0
2, 197800, Note_off_c, 1, 68, 0
2, 197840, Note_on_c, 1, 69, 127
2, 198000, Note_off_c, 1, 69, 0
2, 198040, Note_on_c, 1, 57, 127
2, 198040, Note_on_c, 1, 69, 127
2, 198200, Note_off_c, 1, 64, 0
2, 198240, Note_on_c, 1, 64, 127
2, 198400, Note_off_c, 1, 62, 0
2, 198400, Note_off_c, 1, 64, 0
2, 198440, Note_on_c, 1, 61, 127
2, 198440, Note_on_c, 1, 66, 127
2, 198600, Note_off_c, 1, 66, 0
2, 198640, Note_on_c, 1, 67, 127
2, 198800, Note_off_c, 1, 67, 0
2, 198840, Note_on_c, 1, 66, 127
2, 199040, Note_off_c, 1, 61, 0
2, 199080, Note_on_c, 1, 62, 127
2, 199240, Note_off_c, 1, 62, 0
2, 199280, Note_on_c, 1, 59, 127
2, 199440, Note_off_c, 1, 66, 0
2, 199440, Note_off_c, 1, 69, 0
2, 199480, Note_on_c, 1, 62, 127
2, 199480, Note_on_c, 1, 65, 127
2, 199480, Note_on_c, 1, 68, 127
2, 199680, Note_off_c, 1, 57, 0
2, 199680, Note_off_c, 1, 59, 0
2, 199680, Note_off_c, 1, 62, 0
2, 199680, Note_off_c, 1, 65, 0
2, 199680, Note_off_c, 1, 68, 0
2, 199720, Note_on_c, 1, 57, 127
2, 199720, Note_on_c, 1, 61, 127
2, 199720, Note_on_c, 1, 64, 127
2, 199720, Note_on_c, 1, 69, 127
2, 199960, Note_on_c, 1, 45, 127
2, 200200, Note_on_c, 1, 49, 127
2, 200440, Note_on_c, 1, 52, 127
2, 200640, Note_off_c, 1, 49, 0
2, 200640, Note_off_c, 1, 57, 0
2, 200680, Note_on_c, 1, 57, 127
2, 203200, Note_off_c, 1, 45, 0
2, 203200, Note_off_c, 1, 52, 0
2, 203200, Note_off_c, 1, 57, 0
2, 203200, Note_off_c, 1, 61, 0
2, 203200, Note_off_c, 1, 64, 0
2, 203200, Note_off_c, 1, 69, 0
2, 204960, Note_on_c, 1, 81, 127
2, 205160, Note_off_c, 1, 81, 0
2, 205200, Note_on_c, 1, 57, 127
2, 205200, Note_on_c, 1, 73, 127
2, 205320, Note_on_c, 1, 76, 127
2, 205400, Note_on_c, 1, 81, 127
2, 205440, Note_on_c, 1, 45, 127
2, 205600, Note_off_c, 1, 45, 0
2, 205640, Note_on_c, 1, 47, 127
2, 205800, Note_off_c, 1, 47, 0
2, 205800, Note_off_c, 1, 73, 0
2, 205800, Note_off_c, 1, 76, 0
2, 205800, Note_off_c, 1, 81, 0
2, 205840, Note_on_c, 1, 49, 127
2, 205840, Note_on_c, 1, 80, 127
2, 206000, Note_off_c, 1, 49, 0
2, 206000, Note_off_c, 1, 80, 0
2, 206040, Note_on_c, 1, 50, 127
2, 206040, Note_on_c, 1, 78, 127
2, 206200, Note_off_c, 1, 78, 0
2, 206240, Note_on_c, 1, 76, 127
2, 206400, Note_off_c, 1, 50, 0
2, 206400, Note_off_c, 1, 57, 0
2, 206400, Note_off_c, 1, 76, 0
2, 206440, Note_on_c, 1, 52, 127
2, 206440, Note_on_c, 1, 56, 127
2, 206440, Note_on_c, 1, 74, 127
2, 206600, Note_off_c, 1, 74, 0
2, 206640, Note_on_c, 1, 73, 127
2, 206800, Note_off_c, 1, 52, 0
2, 206800, Note_off_c, 1, 56, 0
2, 206800, Note_off_c, 1, 73, 0
2, 206840, Note_on_c, 1, 54, 127
2, 206840, Note_on_c, 1, 73, 127
2, 206920, Note_on_c, 1, 56, 127
2, 206960, Note_off_c, 1, 56, 0
2, 207000, Note_on_c, 1, 57, 127
2, 207000, Note_off_c, 1, 73, 0
2, 207040, Note_on_c, 1, 74, 127
2, 207080, Note_on_c, 1, 73, 127
2, 207080, Note_off_c, 1, 74, 0
2, 207120, Note_off_c, 1, 73, 0
2, 207160, Note_off_c, 1, 54, 0
2, 207160, Note_off_c, 1, 57, 0
2, 207160, Note_on_c, 1, 74, 127
2, 207240, Note_on_c, 1, 56, 127
2, 207320, Note_on_c, 1, 57, 127
2, 207360, Note_off_c, 1, 57, 0
2, 207360, Note_off_c, 1, 74, 0
2, 207400, Note_on_c, 1, 59, 127
2, 207400, Note_on_c, 1, 76, 127
2, 207560, Note_off_c, 1, 56, 0
2, 207560, Note_off_c, 1, 59, 0
2, 207560, Note_off_c, 1, 76, 0
2, 207600, Note_on_c, 1, 57, 127
2, 207600, Note_on_c, 1, 74, 127
2, 207640, Note_off_c, 1, 74, 0
2, 207680, Note_on_c, 1, 73, 127
2, 207720, Note_off_c, 1, 73, 0
2, 207760, Note_on_c, 1, 74, 127
2, 207800, Note_on_c, 1, 61, 127
2, 207800, Note_on_c, 1, 73, 127
2, 207800, Note_off_c, 1, 74, 0
2, 208000, Note_on_c, 1, 64, 127
2, 208160, Note_off_c, 1, 57, 0
2, 208160, Note_off_c, 1, 73, 0
2, 208200, Note_on_c, 1, 56, 127
2, 208200, Note_on_c, 1, 71, 127
2, 208360, Note_off_c, 1, 56, 0
2, 208360, Note_off_c, 1, 61, 0
2, 208360, Note_off_c, 1, 64, 0
2, 208360, Note_off_c, 1, 71, 0
2, 208400, Note_on_c, 1, 54, 127
2, 208400, Note_on_c, 1, 69, 127
2, 208560, Note_off_c, 1, 54, 0
2, 208560, Note_off_c, 1, 69, 0
2, 208600, Note_on_c, 1, 52, 127
2, 208600, Note_on_c, 1, 68, 127
2, 208760, Note_off_c, 1, 52, 0
2, 208760, Note_off_c, 1, 68, 0
2, 208800, Note_on_c, 1, 50, 127
2, 208800, Note_on_c, 1, 66, 127
2, 208960, Note_off_c, 1, 50, 0
2, 208960, Note_off_c, 1, 66, 0
2, 209000, Note_on_c, 1, 49, 127
2, 209000, Note_on_c, 1, 74, 127
2, 209160, Note_off_c, 1, 49, 0
2, 209160, Note_off_c, 1, 74, 0
2, 209200, Note_on_c, 1, 50, 127
2, 209200, Note_on_c, 1, 73, 127
2, 209280, Note_off_c, 1, 73, 0
2, 209320, Note_on_c, 1, 71, 127
2, 209360, Note_off_c, 1, 71, 0
2, 209400, Note_on_c, 1, 54, 127
2, 209400, Note_on_c, 1, 73, 127
2, 209440, Note_off_c, 1, 73, 0
2, 209480, Note_on_c, 1, 71, 127
2, 209520, Note_off_c, 1, 71, 0
2, 209520, Note_on_c, 1, 73, 127
2, 209560, Note_off_c, 1, 50, 0
2, 209560, Note_off_c, 1, 73, 0
2, 209600, Note_on_c, 1, 47, 127
2, 209600, Note_on_c, 1, 71, 127
2, 209760, Note_off_c, 1, 71, 0
2, 209800, Note_on_c, 1, 69, 127
2, 209920, Note_off_c, 1, 54, 0
2, 209960, Note_off_c, 1, 47, 0
2, 209960, Note_off_c, 1, 69, 0
2, 210000, Note_on_c, 1, 52, 127
2, 210000, Note_on_c, 1, 69, 127
2, 210040, Note_on_c, 1, 68, 127
2, 210040, Note_off_c, 1, 69, 0
2, 210080, Note_off_c, 1, 68, 0
2, 210120, Note_on_c, 1, 69, 127
2, 210160, Note_off_c, 1, 69, 0
2, 210200, Note_on_c, 1, 56, 127
2, 210200, Note_on_c, 1, 68, 127
2, 210400, Note_on_c, 1, 59, 127
2, 210560, Note_off_c, 1, 68, 0
2, 210600, Note_on_c, 1, 66, 127
2, 210720, Note_off_c, 1, 52, 0
2, 210760, Note_off_c, 1, 66, 0
2, 210800, Note_on_c, 1, 50, 127
2, 210800, Note_on_c, 1, 64, 127
2, 210960, Note_off_c, 1, 64, 0
2, 211000, Note_on_c, 1, 66, 127
2, 211120, Note_off_c, 1, 50, 0
2, 211120, Note_off_c, 1, 59, 0
2, 211120, Note_off_c, 1, 66, 0
2, 211160, Note_off_c, 1, 56, 0
2, 211200, Note_on_c, 1, 49, 127
2, 211200, Note_on_c, 1, 52, 127
2, 211200, Note_on_c, 1, 57, 127
2, 211200, Note_on_c, 1, 68, 127
2, 211320, Note_off_c, 1, 68, 0
2, 211360, Note_on_c, 1, 69, 127
2, 211520, Note_off_c, 1, 49, 0
2, 211520, Note_off_c, 1, 52, 0
2, 211520, Note_off_c, 1, 57, 0
2, 211520, Note_off_c, 1, 69, 0
2, 211560, Note_on_c, 1, 47, 127
2, 211560, Note_on_c, 1, 50, 127
2, 211560, Note_on_c, 1, 69, 127
2, 211720, Note_off_c, 1, 69, 0
2, 211760, Note_on_c, 1, 56, 127
2, 211760, Note_on_c, 1, 71, 127
2, 211800, Note_off_c, 1, 71, 0
2, 211840, Note_on_c, 1, 69, 127
2, 211880, Note_off_c, 1, 69, 0
2, 211920, Note_off_c, 1, 47, 0
2, 211920, Note_off_c, 1, 50, 0
2, 211920, Note_off_c, 1, 56, 0
2, 211920, Note_on_c, 1, 71, 127
2, 211960, Note_on_c, 1, 45, 127
2, 211960, Note_on_c, 1, 52, 127
2, 212120, Note_off_c, 1, 71, 0
2, 212160, Note_on_c, 1, 57, 127
2, 212160, Note_on_c, 1, 73, 127
2, 212320, Note_off_c, 1, 45, 0
2, 212320, Note_off_c, 1, 52, 0
2, 212320, Note_off_c, 1, 57, 0
2, 212320, Note_off_c, 1, 73, 0
2, 212360, Note_on_c, 1, 44, 127
2, 212360, Note_on_c, 1, 74, 127
2, 212560, Note_on_c, 1, 47, 127
2, 212560, Note_on_c, 1, 71, 127
2, 212720, Note_off_c, 1, 47, 0
2, 212720, Note_off_c, 1, 71, 0
2, 212760, Note_on_c, 1, 52, 127
2, 212760, Note_on_c, 1, 68, 127
2, 212920, Note_off_c, 1, 44, 0
2, 212920, Note_off_c, 1, 74, 0
2, 212960, Note_on_c, 1, 40, 127
2, 212960, Note_on_c, 1, 76, 127
2, 213120, Note_off_c, 1, 40, 0
2, 213120, Note_off_c, 1, 68, 0
2, 213120, Note_off_c, 1, 76, 0
2, 213160, Note_on_c, 1, 45, 127
2, 213160, Note_on_c, 1, 69, 127
2, 213160, Note_on_c, 1, 74, 127
2, 213200, Note_off_c, 1, 74, 0
2, 213240, Note_on_c, 1, 73, 127
2, 213280, Note_off_c, 1, 73, 0
2, 213280, Note_on_c, 1, 74, 127
2, 213320, Note_off_c, 1, 74, 0
2, 213360, Note_on_c, 1, 73, 127
2, 213520, Note_off_c, 1, 45, 0
2, 213520, Note_off_c, 1, 52, 0
2, 213560, Note_on_c, 1, 50, 127
2, 213560, Note_on_c, 1, 54, 127
2, 213720, Note_off_c, 1, 73, 0
2, 213760, Note_on_c, 1, 71, 127
2, 213920, Note_off_c, 1, 50, 0
2, 213920, Note_off_c, 1, 54, 0
2, 213920, Note_off_c, 1, 69, 0
2, 213920, Note_off_c, 1, 71, 0
2, 213960, Note_on_c, 1, 52, 127
2, 213960, Note_on_c, 1, 68, 127
2, 213960, Note_on_c, 1, 73, 127
2, 214040, Note_off_c, 1, 73, 0
2, 214080, Note_on_c, 1, 71, 127
2, 214120, Note_off_c, 1, 71, 0
2, 214160, Note_on_c, 1, 73, 127
2, 214200, Note_on_c, 1, 71, 127
2, 214200, Note_off_c, 1, 73, 0
2, 214240, Note_off_c, 1, 71, 0
2, 214280, Note_on_c, 1, 73, 127
2, 214320, Note_off_c, 1, 73, 0
2, 214360, Note_on_c, 1, 40, 127
2, 214360, Note_on_c, 1, 71, 127
2, 214520, Note_off_c, 1, 71, 0
2, 214560, Note_on_c, 1, 69, 127
2, 214680, Note_off_c, 1, 40, 0
2, 214680, Note_off_c, 1, 52, 0
2, 214680, Note_off_c, 1, 68, 0
2, 214680, Note_off_c, 1, 69, 0
2, 214760, Note_on_c, 1, 45, 127
2, 214760, Note_on_c, 1, 61, 127
2, 214840, Note_on_c, 1, 64, 127
2, 214920, Note_on_c, 1, 52, 127
2, 214920, Note_on_c, 1, 69, 127
2, 215080, Note_off_c, 1, 52, 0
2, 215120, Note_on_c, 1, 54, 127
2, 215280, Note_off_c, 1, 54, 0
2, 215320, Note_on_c, 1, 56, 127
2, 215480, Note_off_c, 1, 45, 0
2, 215480, Note_off_c, 1, 56, 0
2, 215480, Note_off_c, 1, 61, 0
2, 215480, Note_off_c, 1, 64, 0
2, 215520, Note_on_c, 1, 57, 127
2, 215680, Note_off_c, 1, 69, 0
2, 215720, Note_on_c, 1, 73, 127
2, 215880, Note_off_c, 1, 57, 0
2, 215880, Note_off_c, 1, 73, 0
2, 215920, Note_on_c, 1, 56, 127
2, 215920, Note_on_c, 1, 71, 127
2, 216080, Note_off_c, 1, 56, 0
2, 216080, Note_off_c, 1, 71, 0
2, 216120, Note_on_c, 1, 54, 127
2, 216120, Note_on_c, 1, 69, 127
2, 216280, Note_off_c, 1, 54, 0
2, 216280, Note_off_c, 1, 69, 0
2, 216320, Note_on_c, 1, 53, 127
2, 216320, Note_on_c, 1, 69, 127
2, 216400, Note_off_c, 1, 69, 0
2, 216440, Note_on_c, 1, 68, 127
2, 216480, Note_off_c, 1, 68, 0
2, 216520, Note_on_c, 1, 56, 127
2, 216520, Note_on_c, 1, 69, 127
2, 216560, Note_off_c, 1, 69, 0
2, 216600, Note_on_c, 1, 68, 127
2, 216640, Note_off_c, 1, 68, 0
2, 216640, Note_on_c, 1, 69, 127
2, 216680, Note_off_c, 1, 53, 0
2, 216680, Note_off_c, 1, 69, 0
2, 216720, Note_on_c, 1, 49, 127
2, 216720, Note_on_c, 1, 68, 127
2, 216880, Note_off_c, 1, 68, 0
2, 216920, Note_on_c, 1, 69, 127
2, 217080, Note_off_c, 1, 49, 0
2, 217080, Note_off_c, 1, 56, 0
2, 217080, Note_off_c, 1, 69, 0
2, 217120, Note_on_c, 1, 54, 127
2, 217120, Note_on_c, 1, 71, 127
2, 217280, Note_off_c, 1, 71, 0
2, 217320, Note_on_c, 1, 69, 127
2, 217480, Note_off_c, 1, 69, 0
2, 217520, Note_on_c, 1, 68, 127
2, 217680, Note_off_c, 1, 54, 0
2, 217680, Note_off_c, 1, 68, 0
2, 217720, Note_on_c, 1, 56, 127
2, 217720, Note_on_c, 1, 66, 127
2, 217880, Note_off_c, 1, 56, 0
2, 217880, Note_off_c, 1, 66, 0
2, 217920, Note_on_c, 1, 57, 127
2, 217920, Note_on_c, 1, 78, 127
2, 217960, Note_on_c, 1, 76, 127
2, 217960, Note_off_c, 1, 78, 0
2, 218000, Note_off_c, 1, 76, 0
2, 218040, Note_on_c, 1, 78, 127
2, 218080, Note_off_c, 1, 57, 0
2, 218120, Note_on_c, 1, 61, 127
2, 218280, Note_off_c, 1, 61, 0
2, 218320, Note_on_c, 1, 59, 127
2, 218440, Note_off_c, 1, 59, 0
2, 218440, Note_off_c, 1, 78, 0
2, 218520, Note_on_c, 1, 57, 127
2, 218520, Note_on_c, 1, 75, 127
2, 218640, Note_off_c, 1, 57, 0
2, 218640, Note_off_c, 1, 75, 0
2, 218680, Note_on_c, 1, 56, 127
2, 218680, Note_on_c, 1, 75, 127
2, 218800, Note_on_c, 1, 57, 127
2, 218800, Note_off_c, 1, 75, 0
2, 218840, Note_off_c, 1, 57, 0
2, 218840, Note_on_c, 1, 76, 127
2, 218880, Note_on_c, 1, 59, 127
2, 218880, Note_on_c, 1, 75, 127
2, 218880, Note_off_c, 1, 76, 0
2, 218920, Note_off_c, 1, 75, 0
2, 218960, Note_on_c, 1, 76, 127
2, 219040, Note_off_c, 1, 56, 0
2, 219040, Note_off_c, 1, 59, 0
2, 219080, Note_on_c, 1, 58, 127
2, 219200, Note_on_c, 1, 59, 127
2, 219240, Note_off_c, 1, 59, 0
2, 219240, Note_off_c, 1, 76, 0
2, 219280, Note_on_c, 1, 61, 127
2, 219280, Note_on_c, 1, 78, 127
2, 219440, Note_off_c, 1, 58, 0
2, 219440, Note_off_c, 1, 61, 0
2, 219440, Note_off_c, 1, 78, 0
2, 219480, Note_on_c, 1, 59, 127
2, 219480, Note_on_c, 1, 76, 127
2, 219520, Note_off_c, 1, 76, 0
2, 219560, Note_on_c, 1, 75, 127
2, 219600, Note_off_c, 1, 75, 0
2, 219640, Note_on_c, 1, 76, 127
2, 219680, Note_on_c, 1, 63, 127
2, 219680, Note_on_c, 1, 75, 127
2, 219680, Note_off_c, 1, 76, 0
2, 219880, Note_on_c, 1, 66, 127
2, 220040, Note_off_c, 1, 75, 0
2, 220080, Note_on_c, 1, 73, 127
2, 220240, Note_off_c, 1, 59, 0
2, 220240, Note_off_c, 1, 73, 0
2, 220280, Note_on_c, 1, 57, 127
2, 220280, Note_on_c, 1, 71, 127
2, 220440, Note_off_c, 1, 71, 0
2, 220480, Note_on_c, 1, 73, 127
2, 220640, Note_off_c, 1, 57, 0
2, 220640, Note_off_c, 1, 63, 0
2, 220640, Note_off_c, 1, 66, 0
2, 220640, Note_off_c, 1, 73, 0
2, 220680, Note_on_c, 1, 56, 127
2, 220680, Note_on_c, 1, 59, 127
2, 220680, Note_on_c, 1, 64, 127
2, 220680, Note_on_c, 1, 75, 127
2, 220840, Note_off_c, 1, 75, 0
2, 220880, Note_on_c, 1, 76, 127
2, 221040, Note_off_c, 1, 56, 0
2, 221040, Note_off_c, 1, 59, 0
2, 221040, Note_off_c, 1, 64, 0
2, 221040, Note_off_c, 1, 76, 0
2, 221080, Note_on_c, 1, 54, 127
2, 221080, Note_on_c, 1, 57, 127
2, 221080, Note_on_c, 1, 76, 127
2, 221240, Note_off_c, 1, 76, 0
2, 221280, Note_on_c, 1, 63, 127
2, 221280, Note_on_c, 1, 78, 127
2, 221320, Note_on_c, 1, 76, 127
2, 221320, Note_off_c, 1, 78, 0
2, 221360, Note_off_c, 1, 76, 0
2, 221400, Note_on_c, 1, 78, 127
2, 221440, Note_off_c, 1, 54, 0
2, 221440, Note_off_c, 1, 57, 0
2, 221440, Note_off_c, 1, 63, 0
2, 221480, Note_on_c, 1, 52, 127
2, 221480, Note_on_c, 1, 59, 127
2, 221640, Note_off_c, 1, 78, 0
2, 221680, Note_on_c, 1, 64, 127
2, 221680, Note_on_c, 1, 80, 127
2, 221840, Note_off_c, 1, 52, 0
2, 221840, Note_off_c, 1, 59, 0
2, 221840, Note_off_c, 1, 64, 0
2, 221840, Note_off_c, 1, 80, 0
2, 221880, Note_on_c, 1, 51, 127
2, 221880, Note_on_c, 1, 81, 127
2, 222080, Note_on_c, 1, 54, 127
2, 222080, Note_on_c, 1, 78, 127
2, 222240, Note_off_c, 1, 54, 0
2, 222240, Note_off_c, 1, 78, 0
2, 222280, Note_on_c, 1, 59, 127
2, 222280, Note_on_c, 1, 75, 127
2, 222400, Note_off_c, 1, 51, 0
2, 222400, Note_off_c, 1, 81, 0
2, 222480, Note_on_c, 1, 47, 127
2, 222480, Note_on_c, 1, 83, 127
2, 222600, Note_off_c, 1, 47, 0
2, 222600, Note_off_c, 1, 75, 0
2, 222600, Note_off_c, 1, 83, 0
2, 222640, Note_on_c, 1, 52, 127
2, 222640, Note_on_c, 1, 76, 127
2, 222640, Note_on_c, 1, 81, 127
2, 222680, Note_off_c, 1, 81, 0
2, 222720, Note_on_c, 1, 80, 127
2, 222760, Note_off_c, 1, 80, 0
2, 222800, Note_on_c, 1, 81, 127
2, 222840, Note_on_c, 1, 80, 127
2, 222840, Note_off_c, 1, 81, 0
2, 222880, Note_off_c, 1, 80, 0
2, 222920, Note_on_c, 1, 81, 127
2, 222960, Note_off_c, 1, 81, 0
2, 223000, Note_off_c, 1, 52, 0
2, 223000, Note_off_c, 1, 59, 0
2, 223000, Note_on_c, 1, 80, 127
2, 223040, Note_on_c, 1, 57, 127
2, 223040, Note_on_c, 1, 61, 127
2, 223200, Note_off_c, 1, 80, 0
2, 223240, Note_on_c, 1, 78, 127
2, 223400, Note_off_c, 1, 57, 0
2, 223400, Note_off_c, 1, 61, 0
2, 223400, Note_off_c, 1, 76, 0
2, 223400, Note_off_c, 1, 78, 0
2, 223440, Note_on_c, 1, 59, 127
2, 223440, Note_on_c, 1, 75, 127
2, 223440, Note_on_c, 1, 80, 127
2, 223560, Note_off_c, 1, 80, 0
2, 223600, Note_on_c, 1, 78, 127
2, 223640, Note_off_c, 1, 78, 0
2, 223640, Note_on_c, 1, 80, 127
2, 223680, Note_off_c, 1, 80, 0
2, 223720, Note_on_c, 1, 78, 127
2, 223760, Note_off_c, 1, 78, 0
2, 223760, Note_on_c, 1, 80, 127
2, 223800, Note_off_c, 1, 80, 0
2, 223840, Note_on_c, 1, 56, 127
2, 223840, Note_on_c, 1, 78, 127
2, 224000, Note_off_c, 1, 78, 0
2, 224040, Note_on_c, 1, 76, 127
2, 224200, Note_off_c, 1, 56, 0
2, 224200, Note_off_c, 1, 59, 0
2, 224200, Note_off_c, 1, 75, 0
2, 224200, Note_off_c, 1, 76, 0
2, 224240, Note_on_c, 1, 61, 127
2, 224240, Note_on_c, 1, 76, 127
2, 224400, Note_off_c, 1, 61, 0
2, 224440, Note_on_c, 1, 63, 127
2, 224600, Note_off_c, 1, 63, 0
2, 224640, Note_on_c, 1, 61, 127
2, 224800, Note_off_c, 1, 61, 0
2, 224840, Note_on_c, 1, 59, 127
2, 224840, Note_on_c, 1, 75, 127
2, 225000, Note_off_c, 1, 59, 0
2, 225000, Note_off_c, 1, 75, 0
2, 225040, Note_on_c, 1, 57, 127
2, 225040, Note_on_c, 1, 73, 127
2, 225200, Note_off_c, 1, 57, 0
2, 225200, Note_off_c, 1, 73, 0
2, 225240, Note_on_c, 1, 56, 127
2, 225240, Note_on_c, 1, 71, 127
2, 225400, Note_off_c, 1, 56, 0
2, 225400, Note_off_c, 1, 71, 0
2, 225440, Note_on_c, 1, 54, 127
2, 225440, Note_on_c, 1, 69, 127
2, 225600, Note_off_c, 1, 54, 0
2, 225600, Note_off_c, 1, 69, 0
2, 225640, Note_on_c, 1, 52, 127
2, 225640, Note_on_c, 1, 68, 127
2, 225800, Note_off_c, 1, 52, 0
2, 225800, Note_off_c, 1, 68, 0
2, 225800, Note_off_c, 1, 76, 0
2, 225840, Note_on_c, 1, 59, 127
2, 225840, Note_on_c, 1, 66, 127
2, 226040, Note_on_c, 1, 69, 127
2, 226200, Note_on_c, 1, 47, 127
2, 226200, Note_on_c, 1, 76, 127
2, 226360, Note_off_c, 1, 76, 0
2, 226400, Note_on_c, 1, 75, 127
2, 226560, Note_off_c, 1, 47, 0
2, 226560, Note_off_c, 1, 59, 0
2, 226560, Note_off_c, 1, 66, 0
2, 226560, Note_off_c, 1, 69, 0
2, 226560, Note_off_c, 1, 75, 0
2, 226600, Note_on_c, 1, 52, 127
2, 226600, Note_on_c, 1, 76, 127
2, 227000, Note_on_c, 1, 40, 127
2, 227200, Note_on_c, 1, 71, 127
2, 227360, Note_off_c, 1, 52, 0
2, 227360, Note_off_c, 1, 71, 0
2, 227400, Note_on_c, 1, 47, 127
2, 227400, Note_on_c, 1, 73, 127
2, 227560, Note_off_c, 1, 73, 0
2, 227600, Note_on_c, 1, 69, 127
2, 227760, Note_off_c, 1, 47, 0
2, 227760, Note_off_c, 1, 69, 0
2, 227760, Note_off_c, 1, 76, 0
2, 227800, Note_on_c, 1, 52, 127
2, 227800, Note_on_c, 1, 68, 127
2, 227880, Note_on_c, 1, 71, 127
2, 227960, Note_on_c, 1, 76, 127
2, 228560, Note_off_c, 1, 68, 0
2, 228560, Note_off_c, 1, 71, 0
2, 228760, Note_off_c, 1, 40, 0
2, 228760, Note_off_c, 1, 52, 0
2, 228760, Note_off_c, 1, 76, 0
2, 228800, Note_on_c, 1, 71, 127
2, 228960, Note_off_c, 1, 71, 0
2, 229000, Note_on_c, 1, 40, 127
2, 229000, Note_on_c, 1, 64, 127
2, 229080, Note_on_c, 1, 68, 127
2, 229160, Note_on_c, 1, 71, 127
2, 229200, Note_on_c, 1, 47, 127
2, 229360, Note_off_c, 1, 47, 0
2, 229400, Note_on_c, 1, 49, 127
2, 229520, Note_off_c, 1, 64, 0
2, 229520, Note_off_c, 1, 68, 0
2, 229560, Note_off_c, 1, 49, 0
2, 229560, Note_off_c, 1, 71, 0
2, 229600, Note_on_c, 1, 51, 127
2, 229600, Note_on_c, 1, 69, 127
2, 229720, Note_off_c, 1, 40, 0
2, 229760, Note_off_c, 1, 51, 0
2, 229760, Note_off_c, 1, 69, 0
2, 229800, Note_on_c, 1, 52, 127
2, 229800, Note_on_c, 1, 68, 127
2, 229960, Note_off_c, 1, 68, 0
2, 230000, Note_on_c, 1, 54, 127
2, 230000, Note_on_c, 1, 69, 127
2, 230160, Note_off_c, 1, 54, 0
2, 230160, Note_off_c, 1, 69, 0
2, 230200, Note_on_c, 1, 56, 127
2, 230200, Note_on_c, 1, 71, 127
2, 230320, Note_off_c, 1, 71, 0
2, 230400, Note_on_c, 1, 73, 127
2, 230520, Note_off_c, 1, 52, 0
2, 230520, Note_off_c, 1, 56, 0
2, 230520, Note_off_c, 1, 73, 0
2, 230560, Note_on_c, 1, 54, 127
2, 230560, Note_on_c, 1, 73, 127
2, 230680, Note_on_c, 1, 56, 127
2, 230720, Note_off_c, 1, 56, 0
2, 230720, Note_off_c, 1, 73, 0
2, 230760, Note_on_c, 1, 57, 127
2, 230760, Note_on_c, 1, 74, 127
2, 230800, Note_off_c, 1, 74, 0
2, 230840, Note_on_c, 1, 73, 127
2, 230880, Note_off_c, 1, 73, 0
2, 230920, Note_off_c, 1, 54, 0
2, 230920, Note_off_c, 1, 57, 0
2, 230920, Note_on_c, 1, 74, 127
2, 230960, Note_on_c, 1, 56, 127
2, 231040, Note_on_c, 1, 57, 127
2, 231120, Note_off_c, 1, 57, 0
2, 231120, Note_off_c, 1, 74, 0
2, 231160, Note_on_c, 1, 59, 127
2, 231160, Note_on_c, 1, 76, 127
2, 231320, Note_off_c, 1, 56, 0
2, 231320, Note_off_c, 1, 59, 0
2, 231320, Note_off_c, 1, 76, 0
2, 231360, Note_on_c, 1, 57, 127
2, 231360, Note_on_c, 1, 74, 127
2, 231400, Note_off_c, 1, 74, 0
2, 231440, Note_on_c, 1, 73, 127
2, 231480, Note_off_c, 1, 73, 0
2, 231480, Note_on_c, 1, 74, 127
2, 231520, Note_off_c, 1, 74, 0
2, 231560, Note_on_c, 1, 61, 127
2, 231560, Note_on_c, 1, 73, 127
2, 231720, Note_off_c, 1, 61, 0
2, 231760, Note_on_c, 1, 64, 127
2, 231920, Note_off_c, 1, 57, 0
2, 231920, Note_off_c, 1, 73, 0
2, 231960, Note_on_c, 1, 59, 127
2, 231960, Note_on_c, 1, 71, 127
2, 232120, Note_off_c, 1, 59, 0
2, 232120, Note_off_c, 1, 71, 0
2, 232160, Note_on_c, 1, 61, 127
2, 232160, Note_on_c, 1, 69, 127
2, 232320, Note_off_c, 1, 69, 0
2, 232360, Note_on_c, 1, 81, 127
2, 232520, Note_off_c, 1, 61, 0
2, 232520, Note_off_c, 1, 64, 0
2, 232520, Note_off_c, 1, 81, 0
2, 232560, Note_on_c, 1, 57, 127
2, 232560, Note_on_c, 1, 61, 127
2, 232560, Note_on_c, 1, 80, 127
2, 232720, Note_off_c, 1, 80, 0
2, 232760, Note_on_c, 1, 78, 127
2, 232920, Note_off_c, 1, 57, 0
2, 232920, Note_off_c, 1, 61, 0
2, 232920, Note_off_c, 1, 78, 0
2, 232960, Note_on_c, 1, 62, 127
2, 232960, Note_on_c, 1, 66, 127
2, 232960, Note_on_c, 1, 83, 127
2, 233120, Note_off_c, 1, 83, 0
2, 233160, Note_on_c, 1, 80, 127
2, 233320, Note_off_c, 1, 62, 0
2, 233320, Note_off_c, 1, 66, 0
2, 233320, Note_off_c, 1, 80, 0
2, 233360, Note_on_c, 1, 59, 127
2, 233360, Note_on_c, 1, 62, 127
2, 233360, Note_on_c, 1, 81, 127
2, 233520, Note_off_c, 1, 81, 0
2, 233560, Note_on_c, 1, 78, 127
2, 233720, Note_off_c, 1, 59, 0
2, 233720, Note_off_c, 1, 62, 0
2, 233720, Note_off_c, 1, 78, 0
2, 233760, Note_on_c, 1, 61, 127
2, 233760, Note_on_c, 1, 78, 127
2, 233840, Note_off_c, 1, 78, 0
2, 233880, Note_on_c, 1, 77, 127
2, 233920, Note_off_c, 1, 77, 0
2, 233960, Note_on_c, 1, 73, 127
2, 233960, Note_on_c, 1, 78, 127
2, 234000, Note_on_c, 1, 77, 127
2, 234000, Note_off_c, 1, 78, 0
2, 234040, Note_off_c, 1, 77, 0
2, 234080, Note_on_c, 1, 78, 127
2, 234120, Note_on_c, 1, 68, 127
2, 234120, Note_on_c, 1, 77, 127
2, 234120, Note_off_c, 1, 78, 0
2, 234160, Note_off_c, 1, 77, 0
2, 234200, Note_on_c, 1, 78, 127
2, 234240, Note_off_c, 1, 78, 0
2, 234280, Note_off_c, 1, 61, 0
2, 234280, Note_on_c, 1, 77, 127
2, 234320, Note_on_c, 1, 59, 127
2, 234480, Note_off_c, 1, 59, 0
2, 234520, Note_on_c, 1, 57, 127
2, 234680, Note_off_c, 1, 57, 0
2, 234720, Note_on_c, 1, 56, 127
2, 234880, Note_off_c, 1, 56, 0
2, 234880, Note_off_c, 1, 68, 0
2, 234880, Note_off_c, 1, 73, 0
2, 234880, Note_off_c, 1, 77, 0
2, 234920, Note_on_c, 1, 54, 127
2, 234920, Note_on_c, 1, 69, 127
2, 235000, Note_on_c, 1, 73, 127
2, 235080, Note_off_c, 1, 54, 0
2, 235120, Note_on_c, 1, 53, 127
2, 235120, Note_on_c, 1, 78, 127
2, 235280, Note_off_c, 1, 53, 0
2, 235280, Note_off_c, 1, 69, 0
2, 235280, Note_off_c, 1, 73, 0
2, 235280, Note_off_c, 1, 78, 0
2, 235320, Note_on_c, 1, 54, 127
2, 235320, Note_on_c, 1, 76, 127
2, 235400, Note_on_c, 1, 56, 127
2, 235400, Note_off_c, 1, 76, 0
2, 235440, Note_off_c, 1, 56, 0
2, 235440, Note_on_c, 1, 75, 127
2, 235480, Note_on_c, 1, 57, 127
2, 235480, Note_off_c, 1, 75, 0
2, 235520, Note_on_c, 1, 76, 127
2, 235560, Note_off_c, 1, 76, 0
2, 235600, Note_on_c, 1, 75, 127
2, 235640, Note_off_c, 1, 75, 0
2, 235640, Note_on_c, 1, 76, 127
2, 235680, Note_off_c, 1, 54, 0
2, 235680, Note_off_c, 1, 57, 0
2, 235680, Note_off_c, 1, 76, 0
2, 235720, Note_on_c, 1, 56, 127
2, 235720, Note_on_c, 1, 75, 127
2, 235800, Note_on_c, 1, 57, 127
2, 235840, Note_off_c, 1, 57, 0
2, 235880, Note_on_c, 1, 59, 127
2, 235880, Note_off_c, 1, 75, 0
2, 235920, Note_on_c, 1, 76, 127
2, 236080, Note_off_c, 1, 56, 0
2, 236080, Note_off_c, 1, 59, 0
2, 236080, Note_off_c, 1, 76, 0
2, 236120, Note_on_c, 1, 57, 127
2, 236120, Note_on_c, 1, 73, 127
2, 236160, Note_off_c, 1, 73, 0
2, 236200, Note_on_c, 1, 71, 127
2, 236240, Note_off_c, 1, 71, 0
2, 236240, Note_on_c, 1, 73, 127
2, 236320, Note_on_c, 1, 61, 127
2, 236480, Note_off_c, 1, 61, 0
2, 236520, Note_on_c, 1, 66, 127
2, 236680, Note_off_c, 1, 57, 0
2, 236680, Note_off_c, 1, 73, 0
2, 236720, Note_on_c, 1, 59, 127
2, 236720, Note_on_c, 1, 74, 127
2, 236880, Note_off_c, 1, 59, 0
2, 236880, Note_off_c, 1, 66, 0
2, 236880, Note_off_c, 1, 74, 0
2, 236920, Note_on_c, 1, 56, 127
2, 236920, Note_on_c, 1, 65, 127
2, 236920, Note_on_c, 1, 73, 127
2, 237000, Note_off_c, 1, 73, 0
2, 237040, Note_on_c, 1, 71, 127
2, 237080, Note_off_c, 1, 71, 0
2, 237120, Note_on_c, 1, 73, 127
2, 237160, Note_on_c, 1, 71, 127
2, 237160, Note_off_c, 1, 73, 0
2, 237200, Note_off_c, 1, 71, 0
2, 237240, Note_off_c, 1, 65, 0
2, 237240, Note_on_c, 1, 73, 127
2, 237280, Note_off_c, 1, 56, 0
2, 237280, Note_off_c, 1, 73, 0
2, 237320, Note_on_c, 1, 54, 127
2, 237320, Note_on_c, 1, 66, 127
2, 237320, Note_on_c, 1, 71, 127
2, 237440, Note_off_c, 1, 71, 0
2, 237520, Note_on_c, 1, 69, 127
2, 237640, Note_off_c, 1, 54, 0
2, 237640, Note_off_c, 1, 66, 0
2, 237640, Note_off_c, 1, 69, 0
2, 237680, Note_on_c, 1, 61, 127
2, 237680, Note_on_c, 1, 65, 127
2, 237680, Note_on_c, 1, 69, 127
2, 237800, Note_off_c, 1, 69, 0
2, 237840, Note_on_c, 1, 68, 127
2, 237880, Note_off_c, 1, 68, 0
2, 237880, Note_on_c, 1, 69, 127
2, 237920, Note_off_c, 1, 69, 0
2, 237960, Note_on_c, 1, 68, 127
2, 238000, Note_off_c, 1, 68, 0
2, 238040, Note_off_c, 1, 61, 0
2, 238040, Note_on_c, 1, 69, 127
2, 238080, Note_on_c, 1, 49, 127
2, 238080, Note_on_c, 1, 68, 127
2, 238080, Note_off_c, 1, 69, 0
2, 238240, Note_off_c, 1, 68, 0
2, 238280, Note_on_c, 1, 66, 127
2, 238440, Note_off_c, 1, 49, 0
2, 238440, Note_off_c, 1, 65, 0
2, 238440, Note_off_c, 1, 66, 0
2, 238480, Note_on_c, 1, 42, 127
2, 238480, Note_on_c, 1, 57, 127
2, 238560, Note_on_c, 1, 61, 127
2, 238680, Note_on_c, 1, 49, 127
2, 238680, Note_on_c, 1, 66, 127
2, 238840, Note_off_c, 1, 49, 0
2, 238880, Note_on_c, 1, 51, 127
2, 239040, Note_off_c, 1, 51, 0
2, 239080, Note_on_c, 1, 53, 127
2, 239240, Note_off_c, 1, 42, 0
2, 239240, Note_off_c, 1, 53, 0
2, 239240, Note_off_c, 1, 57, 0
2, 239240, Note_off_c, 1, 61, 0
2, 239280, Note_on_c, 1, 54, 127
2, 239440, Note_off_c, 1, 66, 0
2, 239480, Note_on_c, 1, 57, 127
2, 239480, Note_on_c, 1, 78, 127
2, 239640, Note_off_c, 1, 54, 0
2, 239640, Note_off_c, 1, 57, 0
2, 239640, Note_off_c, 1, 78, 0
2, 239680, Note_on_c, 1, 56, 127
2, 239680, Note_on_c, 1, 76, 127
2, 239840, Note_off_c, 1, 76, 0
2, 239880, Note_on_c, 1, 59, 127
2, 239880, Note_on_c, 1, 74, 127
2, 240040, Note_off_c, 1, 56, 0
2, 240040, Note_off_c, 1, 59, 0
2, 240040, Note_off_c, 1, 74, 0
2, 240080, Note_on_c, 1, 58, 127
2, 240080, Note_on_c, 1, 74, 127
2, 240160, Note_off_c, 1, 74, 0
2, 240200, Note_on_c, 1, 73, 127
2, 240240, Note_off_c, 1, 73, 0
2, 240280, Note_on_c, 1, 61, 127
2, 240280, Note_on_c, 1, 74, 127
2, 240320, Note_on_c, 1, 73, 127
2, 240320, Note_off_c, 1, 74, 0
2, 240360, Note_off_c, 1, 73, 0
2, 240400, Note_on_c, 1, 74, 127
2, 240440, Note_off_c, 1, 58, 0
2, 240440, Note_off_c, 1, 74, 0
2, 240480, Note_on_c, 1, 54, 127
2, 240480, Note_on_c, 1, 73, 127
2, 240640, Note_off_c, 1, 73, 0
2, 240680, Note_on_c, 1, 74, 127
2, 240800, Note_off_c, 1, 61, 0
2, 240840, Note_off_c, 1, 54, 0
2, 240840, Note_off_c, 1, 74, 0
2, 240880, Note_on_c, 1, 59, 127
2, 240880, Note_on_c, 1, 76, 127
2, 241040, Note_off_c, 1, 76, 0
2, 241080, Note_on_c, 1, 74, 127
2, 241200, Note_off_c, 1, 74, 0
2, 241280, Note_on_c, 1, 73, 127
2, 241400, Note_off_c, 1, 59, 0
2, 241400, Note_off_c, 1, 73, 0
2, 241440, Note_on_c, 1, 61, 127
2, 241440, Note_on_c, 1, 71, 127
2, 241600, Note_off_c, 1, 61, 0
2, 241600, Note_off_c, 1, 71, 0
2, 241640, Note_on_c, 1, 62, 127
2, 241640, Note_on_c, 1, 83, 127
2, 241680, Note_off_c, 1, 83, 0
2, 241720, Note_on_c, 1, 81, 127
2, 241760, Note_off_c, 1, 81, 0
2, 241800, Note_off_c, 1, 62, 0
2, 241800, Note_on_c, 1, 83, 127
2, 241840, Note_on_c, 1, 66, 127
2, 242000, Note_off_c, 1, 66, 0
2, 242040, Note_on_c, 1, 64, 127
2, 242200, Note_off_c, 1, 64, 0
2, 242200, Note_off_c, 1, 83, 0
2, 242240, Note_on_c, 1, 62, 127
2, 242240, Note_on_c, 1, 80, 127
2, 242400, Note_off_c, 1, 62, 0
2, 242400, Note_off_c, 1, 80, 0
2, 242440, Note_on_c, 1, 61, 127
2, 242440, Note_on_c, 1, 80, 127
2, 242520, Note_on_c, 1, 62, 127
2, 242560, Note_off_c, 1, 62, 0
2, 242600, Note_off_c, 1, 80, 0
2, 242640, Note_on_c, 1, 64, 127
2, 242640, Note_on_c, 1, 81, 127
2, 242680, Note_off_c, 1, 81, 0
2, 242720, Note_on_c, 1, 80, 127
2, 242760, Note_off_c, 1, 80, 0
2, 242760, Note_on_c, 1, 81, 127
2, 242800, Note_off_c, 1, 61, 0
2, 242800, Note_off_c, 1, 64, 0
2, 242840, Note_on_c, 1, 63, 127
2, 242920, Note_on_c, 1, 64, 127
2, 242960, Note_off_c, 1, 64, 0
2, 243000, Note_on_c, 1, 66, 127
2, 243000, Note_off_c, 1, 81, 0
2, 243040, Note_on_c, 1, 83, 127
2, 243200, Note_off_c, 1, 63, 0
2, 243200, Note_off_c, 1, 66, 0
2, 243200, Note_off_c, 1, 83, 0
2, 243240, Note_on_c, 1, 64, 127
2, 243240, Note_on_c, 1, 81, 127
2, 243320, Note_off_c, 1, 81, 0
2, 243360, Note_on_c, 1, 80, 127
2, 243400, Note_off_c, 1, 80, 0
2, 243440, Note_on_c, 1, 68, 127
2, 243440, Note_on_c, 1, 81, 127
2, 243480, Note_off_c, 1, 81, 0
2, 243520, Note_on_c, 1, 80, 127
2, 243560, Note_off_c, 1, 80, 0
2, 243560, Note_on_c, 1, 81, 127
2, 243600, Note_off_c, 1, 81, 0
2, 243640, Note_on_c, 1, 71, 127
2, 243640, Note_on_c, 1, 80, 127
2, 243760, Note_off_c, 1, 64, 0
2, 243800, Note_off_c, 1, 68, 0
2, 243800, Note_off_c, 1, 80, 0
2, 243840, Note_on_c, 1, 62, 127
2, 243840, Note_on_c, 1, 78, 127
2, 244000, Note_off_c, 1, 62, 0
2, 244000, Note_off_c, 1, 71, 0
2, 244000, Note_off_c, 1, 78, 0
2, 244040, Note_on_c, 1, 61, 127
2, 244040, Note_on_c, 1, 76, 127
2, 244200, Note_off_c, 1, 61, 0
2, 244200, Note_off_c, 1, 76, 0
2, 244240, Note_on_c, 1, 59, 127
2, 244240, Note_on_c, 1, 74, 127
2, 244400, Note_off_c, 1, 59, 0
2, 244400, Note_off_c, 1, 74, 0
2, 244440, Note_on_c, 1, 57, 127
2, 244440, Note_on_c, 1, 73, 127
2, 244600, Note_off_c, 1, 57, 0
2, 244600, Note_off_c, 1, 73, 0
2, 244640, Note_on_c, 1, 56, 127
2, 244640, Note_on_c, 1, 71, 127
2, 244760, Note_off_c, 1, 56, 0
2, 244760, Note_off_c, 1, 71, 0
2, 244840, Note_on_c, 1, 54, 127
2, 244840, Note_on_c, 1, 69, 127
2, 244960, Note_off_c, 1, 54, 0
2, 244960, Note_off_c, 1, 69, 0
2, 245000, Note_on_c, 1, 52, 127
2, 245000, Note_on_c, 1, 68, 127
2, 245160, Note_off_c, 1, 52, 0
2, 245160, Note_off_c, 1, 68, 0
2, 245200, Note_on_c, 1, 50, 127
2, 245200, Note_on_c, 1, 69, 127
2, 245360, Note_off_c, 1, 50, 0
2, 245360, Note_off_c, 1, 69, 0
2, 245400, Note_on_c, 1, 49, 127
2, 245400, Note_on_c, 1, 66, 127
2, 245560, Note_off_c, 1, 49, 0
2, 245560, Note_off_c, 1, 66, 0
2, 245600, Note_on_c, 1, 47, 127
2, 245600, Note_on_c, 1, 74, 127
2, 245640, Note_off_c, 1, 74, 0
2, 245680, Note_on_c, 1, 73, 127
2, 245720, Note_off_c, 1, 73, 0
2, 245760, Note_off_c, 1, 47, 0
2, 245760, Note_on_c, 1, 74, 127
2, 245800, Note_on_c, 1, 45, 127
2, 245960, Note_off_c, 1, 45, 0
2, 246000, Note_on_c, 1, 47, 127
2, 246160, Note_off_c, 1, 47, 0
2, 246160, Note_off_c, 1, 74, 0
2, 246200, Note_on_c, 1, 44, 127
2, 246200, Note_on_c, 1, 76, 127
2, 246360, Note_off_c, 1, 44, 0
2, 246360, Note_off_c, 1, 76, 0
2, 246400, Note_on_c, 1, 45, 127
2, 246400, Note_on_c, 1, 74, 127
2, 246480, Note_off_c, 1, 74, 0
2, 246520, Note_on_c, 1, 73, 127
2, 246560, Note_off_c, 1, 73, 0
2, 246600, Note_on_c, 1, 74, 127
2, 246640, Note_off_c, 1, 74, 0
2, 246680, Note_on_c, 1, 73, 127
2, 246720, Note_off_c, 1, 73, 0
2, 246720, Note_on_c, 1, 74, 127
2, 246760, Note_off_c, 1, 45, 0
2, 246760, Note_off_c, 1, 74, 0
2, 246800, Note_on_c, 1, 50, 127
2, 246800, Note_on_c, 1, 69, 127
2, 246800, Note_on_c, 1, 73, 127
2, 246960, Note_off_c, 1, 73, 0
2, 247000, Note_on_c, 1, 71, 127
2, 247160, Note_off_c, 1, 50, 0
2, 247160, Note_off_c, 1, 69, 0
2, 247160, Note_off_c, 1, 71, 0
2, 247200, Note_on_c, 1, 52, 127
2, 247200, Note_on_c, 1, 68, 127
2, 247200, Note_on_c, 1, 73, 127
2, 247280, Note_off_c, 1, 73, 0
2, 247320, Note_on_c, 1, 71, 127
2, 247360, Note_off_c, 1, 71, 0
2, 247400, Note_on_c, 1, 73, 127
2, 247440, Note_on_c, 1, 71, 127
2, 247440, Note_off_c, 1, 73, 0
2, 247480, Note_off_c, 1, 71, 0
2, 247520, Note_on_c, 1, 73, 127
2, 247560, Note_off_c, 1, 73, 0
2, 247600, Note_on_c, 1, 49, 127
2, 247600, Note_on_c, 1, 71, 127
2, 247760, Note_off_c, 1, 71, 0
2, 247800, Note_on_c, 1, 69, 127
2, 247920, Note_off_c, 1, 52, 0
2, 247920, Note_off_c, 1, 68, 0
2, 247960, Note_off_c, 1, 49, 0
2, 247960, Note_off_c, 1, 69, 0
2, 248000, Note_on_c, 1, 54, 127
2, 248000, Note_on_c, 1, 69, 127
2, 248160, Note_off_c, 1, 54, 0
2, 248200, Note_on_c, 1, 56, 127
2, 248320, Note_off_c, 1, 56, 0
2, 248400, Note_on_c, 1, 54, 127
2, 248520, Note_off_c, 1, 54, 0
2, 248560, Note_on_c, 1, 52, 127
2, 248560, Note_on_c, 1, 68, 127
2, 248720, Note_off_c, 1, 52, 0
2, 248720, Note_off_c, 1, 68, 0
2, 248760, Note_on_c, 1, 50, 127
2, 248760, Note_on_c, 1, 66, 127
2, 248920, Note_off_c, 1, 50, 0
2, 248920, Note_off_c, 1, 66, 0
2, 248960, Note_on_c, 1, 49, 127
2, 248960, Note_on_c, 1, 64, 127
2, 249120, Note_off_c, 1, 49, 0
2, 249120, Note_off_c, 1, 64, 0
2, 249160, Note_on_c, 1, 47, 127
2, 249160, Note_on_c, 1, 62, 127
2, 249320, Note_off_c, 1, 47, 0
2, 249320, Note_off_c, 1, 62, 0
2, 249360, Note_on_c, 1, 45, 127
2, 249360, Note_on_c, 1, 61, 127
2, 249520, Note_off_c, 1, 45, 0
2, 249520, Note_off_c, 1, 61, 0
2, 249520, Note_off_c, 1, 69, 0
2, 249560, Note_on_c, 1, 52, 127
2, 249560, Note_on_c, 1, 59, 127
2, 249760, Note_on_c, 1, 62, 127
2, 249960, Note_on_c, 1, 40, 127
2, 249960, Note_on_c, 1, 69, 127
2, 250120, Note_off_c, 1, 69, 0
2, 250160, Note_on_c, 1, 68, 127
2, 250320, Note_off_c, 1, 40, 0
2, 250320, Note_off_c, 1, 52, 0
2, 250320, Note_off_c, 1, 59, 0
2, 250320, Note_off_c, 1, 62, 0
2, 250320, Note_off_c, 1, 68, 0
2, 250360, Note_on_c, 1, 45, 127
2, 250360, Note_on_c, 1, 69, 127
2, 250760, Note_on_c, 1, 33, 127
2, 250960, Note_on_c, 1, 64, 127
2, 251120, Note_off_c, 1, 45, 0
2, 251120, Note_off_c, 1, 64, 0
2, 251160, Note_on_c, 1, 40, 127
2, 251160, Note_on_c, 1, 66, 127
2, 251320, Note_off_c, 1, 66, 0
2, 251360, Note_on_c, 1, 62, 127
2, 251520, Note_off_c, 1, 40, 0
2, 251520, Note_off_c, 1, 62, 0
2, 251520, Note_off_c, 1, 69, 0
2, 251560, Note_on_c, 1, 45, 127
2, 251560, Note_on_c, 1, 61, 127
2, 251640, Note_on_c, 1, 64, 127
2, 251720, Note_on_c, 1, 69, 127
2, 252280, Note_off_c, 1, 45, 0
2, 252320, Note_off_c, 1, 33, 0
2, 252480, Note_off_c, 1, 69, 0
2, 252520, Note_off_c, 1, 61, 0
2, 252520, Note_off_c, 1, 64, 0
2, 252560, Note_on_c, 1, 69, 127
2, 252680, Note_off_c, 1, 69, 0
2, 252720, Note_on_c, 1, 45, 127
2, 252720, Note_on_c, 1, 69, 127
2, 252920, Note_on_c, 1, 64, 127
2, 253120, Note_on_c, 1, 61, 127
2, 253280, Note_off_c, 1, 45, 0
2, 253320, Note_on_c, 1, 47, 127
2, 253400, Note_off_c, 1, 47, 0
2, 253440, Note_on_c, 1, 49, 127
2, 253480, Note_off_c, 1, 49, 0
2, 253520, Note_on_c, 1, 47, 127
2, 253680, Note_off_c, 1, 47, 0
2, 253720, Note_on_c, 1, 49, 127
2, 253800, Note_off_c, 1, 49, 0
2, 253840, Note_on_c, 1, 50, 127
2, 253880, Note_off_c, 1, 50, 0
2, 253880, Note_off_c, 1, 61, 0
2, 253880, Note_off_c, 1, 64, 0
2, 253880, Note_off_c, 1, 69, 0
2, 253920, Note_on_c, 1, 49, 127
2, 253920, Note_on_c, 1, 64, 127
2, 254280, Note_off_c, 1, 49, 0
2, 254280, Note_off_c, 1, 64, 0
2, 254320, Note_on_c, 1, 49, 127
2, 254320, Note_on_c, 1, 66, 127
2, 254360, Note_off_c, 1, 66, 0
2, 254400, Note_off_c, 1, 49, 0
2, 254400, Note_on_c, 1, 64, 127
2, 254440, Note_on_c, 1, 47, 127
2, 254440, Note_off_c, 1, 64, 0
2, 254440, Note_on_c, 1, 66, 127
2, 254480, Note_off_c, 1, 47, 0
2, 254520, Note_on_c, 1, 49, 127
2, 254560, Note_off_c, 1, 49, 0
2, 254600, Note_on_c, 1, 47, 127
2, 254680, Note_off_c, 1, 47, 0
2, 254720, Note_on_c, 1, 45, 127
2, 254880, Note_off_c, 1, 66, 0
2, 254920, Note_on_c, 1, 67, 127
2, 255080, Note_off_c, 1, 45, 0
2, 255080, Note_off_c, 1, 67, 0
2, 255120, Note_on_c, 1, 50, 127
2, 255120, Note_on_c, 1, 67, 127
2, 255200, Note_off_c, 1, 67, 0
2, 255240, Note_on_c, 1, 66, 127
2, 255280, Note_off_c, 1, 66, 0
2, 255320, Note_on_c, 1, 67, 127
2, 255360, Note_on_c, 1, 66, 127
2, 255360, Note_off_c, 1, 67, 0
2, 255400, Note_off_c, 1, 66, 0
2, 255440, Note_on_c, 1, 67, 127
2, 255480, Note_off_c, 1, 50, 0
2, 255480, Note_off_c, 1, 67, 0
2, 255520, Note_on_c, 1, 50, 127
2, 255520, Note_on_c, 1, 66, 127
2, 255600, Note_off_c, 1, 50, 0
2, 255640, Note_on_c, 1, 49, 127
2, 255680, Note_off_c, 1, 49, 0
2, 255680, Note_off_c, 1, 66, 0
2, 255720, Note_on_c, 1, 50, 127
2, 255720, Note_on_c, 1, 69, 127
2, 255760, Note_on_c, 1, 49, 127
2, 255760, Note_off_c, 1, 50, 0
2, 255880, Note_off_c, 1, 49, 0
2, 255880, Note_off_c, 1, 69, 0
2, 255920, Note_on_c, 1, 47, 127
2, 255920, Note_on_c, 1, 74, 127
2, 255960, Note_off_c, 1, 74, 0
2, 256000, Note_on_c, 1, 73, 127
2, 256040, Note_off_c, 1, 73, 0
2, 256120, Note_on_c, 1, 74, 127
2, 256240, Note_off_c, 1, 47, 0
2, 256280, Note_on_c, 1, 56, 127
2, 256440, Note_off_c, 1, 74, 0
2, 256480, Note_on_c, 1, 76, 127
2, 256640, Note_off_c, 1, 56, 0
2, 256640, Note_off_c, 1, 76, 0
2, 256680, Note_on_c, 1, 57, 127
2, 256680, Note_on_c, 1, 74, 127
2, 256720, Note_off_c, 1, 57, 0
2, 256760, Note_on_c, 1, 56, 127
2, 256800, Note_off_c, 1, 56, 0
2, 256800, Note_off_c, 1, 74, 0
2, 256840, Note_on_c, 1, 57, 127
2, 256840, Note_on_c, 1, 73, 127
2, 256880, Note_off_c, 1, 73, 0
2, 256880, Note_on_c, 1, 74, 127
2, 256920, Note_off_c, 1, 74, 0
2, 256960, Note_on_c, 1, 73, 127
2, 257000, Note_off_c, 1, 73, 0
2, 257040, Note_off_c, 1, 57, 0
2, 257040, Note_on_c, 1, 74, 127
2, 257080, Note_on_c, 1, 45, 127
2, 257080, Note_on_c, 1, 73, 127
2, 257080, Note_off_c, 1, 74, 0
2, 257240, Note_off_c, 1, 73, 0
2, 257280, Note_on_c, 1, 71, 127
2, 257440, Note_off_c, 1, 45, 0
2, 257440, Note_off_c, 1, 71, 0
2, 257480, Note_on_c, 1, 52, 127
2, 257480, Note_on_c, 1, 71, 127
2, 257680, Note_on_c, 1, 68, 127
2, 257880, Note_on_c, 1, 64, 127
2, 258040, Note_off_c, 1, 52, 0
2, 258080, Note_on_c, 1, 54, 127
2, 258120, Note_off_c, 1, 54, 0
2, 258160, Note_on_c, 1, 56, 127
2, 258240, Note_off_c, 1, 56, 0
2, 258280, Note_on_c, 1, 54, 127
2, 258440, Note_off_c, 1, 54, 0
2, 258480, Note_on_c, 1, 56, 127
2, 258520, Note_off_c, 1, 56, 0
2, 258560, Note_on_c, 1, 57, 127
2, 258640, Note_off_c, 1, 57, 0
2, 258640, Note_off_c, 1, 64, 0
2, 258640, Note_off_c, 1, 68, 0
2, 258640, Note_off_c, 1, 71, 0
2, 258680, Note_on_c, 1, 56, 127
2, 258680, Note_on_c, 1, 76, 127
2, 258720, Note_on_c, 1, 74, 127
2, 258720, Note_off_c, 1, 76, 0
2, 258760, Note_off_c, 1, 74, 0
2, 258800, Note_on_c, 1, 76, 127
2, 259040, Note_off_c, 1, 56, 0
2, 259040, Note_off_c, 1, 76, 0
2, 259080, Note_on_c, 1, 56, 127
2, 259080, Note_on_c, 1, 76, 127
2, 259160, Note_off_c, 1, 56, 0
2, 259160, Note_off_c, 1, 76, 0
2, 259200, Note_on_c, 1, 54, 127
2, 259200, Note_on_c, 1, 74, 127
2, 259240, Note_off_c, 1, 54, 0
2, 259240, Note_off_c, 1, 74, 0
2, 259280, Note_on_c, 1, 56, 127
2, 259280, Note_on_c, 1, 76, 127
2, 259320, Note_on_c, 1, 54, 127
2, 259320, Note_off_c, 1, 56, 0
2, 259320, Note_on_c, 1, 74, 127
2, 259320, Note_off_c, 1, 76, 0
2, 259360, Note_off_c, 1, 74, 0
2, 259400, Note_on_c, 1, 76, 127
2, 259440, Note_off_c, 1, 54, 0
2, 259440, Note_off_c, 1, 76, 0
2, 259480, Note_on_c, 1, 52, 127
2, 259480, Note_on_c, 1, 74, 127
2, 259600, Note_off_c, 1, 74, 0
2, 259680, Note_on_c, 1, 76, 127
2, 259800, Note_off_c, 1, 52, 0
2, 259800, Note_off_c, 1, 76, 0
2, 259840, Note_on_c, 1, 57, 127
2, 259840, Note_on_c, 1, 74, 127
2, 259880, Note_off_c, 1, 74, 0
2, 259920, Note_on_c, 1, 73, 127
2, 259960, Note_off_c, 1, 73, 0
2, 260000, Note_on_c, 1, 74, 127
2, 260040, Note_on_c, 1, 73, 127
2, 260040, Note_off_c, 1, 74, 0
2, 260200, Note_off_c, 1, 57, 0
2, 260240, Note_on_c, 1, 59, 127
2, 260400, Note_off_c, 1, 73, 0
2, 260440, Note_on_c, 1, 71, 127
2, 260600, Note_off_c, 1, 59, 0
2, 260600, Note_off_c, 1, 71, 0
2, 260640, Note_on_c, 1, 61, 127
2, 260640, Note_on_c, 1, 69, 127
2, 260800, Note_off_c, 1, 69, 0
2, 260840, Note_on_c, 1, 73, 127
2, 261000, Note_off_c, 1, 61, 0
2, 261000, Note_off_c, 1, 73, 0
2, 261040, Note_on_c, 1, 54, 127
2, 261040, Note_on_c, 1, 57, 127
2, 261040, Note_on_c, 1, 78, 127
2, 261400, Note_off_c, 1, 54, 0
2, 261400, Note_off_c, 1, 57, 0
2, 261400, Note_off_c, 1, 78, 0
2, 261440, Note_on_c, 1, 56, 127
2, 261440, Note_on_c, 1, 59, 127
2, 261440, Note_on_c, 1, 78, 127
2, 261520, Note_off_c, 1, 78, 0
2, 261560, Note_on_c, 1, 76, 127
2, 261600, Note_off_c, 1, 76, 0
2, 261640, Note_on_c, 1, 78, 127
2, 261680, Note_off_c, 1, 78, 0
2, 261720, Note_on_c, 1, 76, 127
2, 261760, Note_off_c, 1, 76, 0
2, 261760, Note_on_c, 1, 78, 127
2, 261800, Note_off_c, 1, 56, 0
2, 261800, Note_off_c, 1, 59, 0
2, 261800, Note_off_c, 1, 78, 0
2, 261840, Note_on_c, 1, 58, 127
2, 261840, Note_on_c, 1, 61, 127
2, 261840, Note_on_c, 1, 76, 127
2, 262000, Note_off_c, 1, 76, 0
2, 262040, Note_on_c, 1, 78, 127
2, 262200, Note_off_c, 1, 58, 0
2, 262200, Note_off_c, 1, 61, 0
2, 262200, Note_off_c, 1, 78, 0
2, 262240, Note_on_c, 1, 59, 127
2, 262240, Note_on_c, 1, 76, 127
2, 262280, Note_on_c, 1, 75, 127
2, 262280, Note_off_c, 1, 76, 0
2, 262320, Note_off_c, 1, 75, 0
2, 262360, Note_on_c, 1, 76, 127
2, 262400, Note_off_c, 1, 76, 0
2, 262440, Note_on_c, 1, 75, 127
2, 262600, Note_off_c, 1, 59, 0
2, 262640, Note_on_c, 1, 61, 127
2, 262800, Note_off_c, 1, 75, 0
2, 262840, Note_on_c, 1, 73, 127
2, 263000, Note_off_c, 1, 61, 0
2, 263000, Note_off_c, 1, 73, 0
2, 263040, Note_on_c, 1, 63, 127
2, 263040, Note_on_c, 1, 71, 127
2, 263240, Note_on_c, 1, 78, 127
2, 263360, Note_off_c, 1, 63, 0
2, 263360, Note_off_c, 1, 78, 0
2, 263400, Note_on_c, 1, 56, 127
2, 263400, Note_on_c, 1, 83, 127
2, 263760, Note_off_c, 1, 56, 0
2, 263760, Note_off_c, 1, 71, 0
2, 263760, Note_off_c, 1, 83, 0
2, 263800, Note_on_c, 1, 61, 127
2, 263800, Note_on_c, 1, 76, 127
2, 263800, Note_on_c, 1, 83, 127
2, 263920, Note_off_c, 1, 83, 0
2, 263960, Note_on_c, 1, 81, 127
2, 264000, Note_off_c, 1, 81, 0
2, 264000, Note_on_c, 1, 83, 127
2, 264040, Note_off_c, 1, 83, 0
2, 264080, Note_on_c, 1, 81, 127
2, 264120, Note_off_c, 1, 81, 0
2, 264160, Note_off_c, 1, 61, 0
2, 264160, Note_off_c, 1, 76, 0
2, 264160, Note_on_c, 1, 83, 127
2, 264200, Note_on_c, 1, 63, 127
2, 264200, Note_on_c, 1, 78, 127
2, 264200, Note_on_c, 1, 81, 127
2, 264200, Note_off_c, 1, 83, 0
2, 264360, Note_off_c, 1, 81, 0
2, 264400, Note_on_c, 1, 83, 127
2, 264560, Note_off_c, 1, 63, 0
2, 264560, Note_off_c, 1, 78, 0
2, 264560, Note_off_c, 1, 83, 0
2, 264600, Note_on_c, 1, 64, 127
2, 264600, Note_on_c, 1, 71, 127
2, 264600, Note_on_c, 1, 81, 127
2, 264680, Note_off_c, 1, 81, 0
2, 264760, Note_on_c, 1, 80, 127
2, 264800, Note_off_c, 1, 80, 0
2, 264800, Note_on_c, 1, 81, 127
2, 264840, Note_off_c, 1, 81, 0
2, 264880, Note_on_c, 1, 80, 127
2, 264920, Note_off_c, 1, 80, 0
2, 264920, Note_on_c, 1, 81, 127
2, 264960, Note_off_c, 1, 64, 0
2, 264960, Note_off_c, 1, 81, 0
2, 265000, Note_on_c, 1, 52, 127
2, 265000, Note_on_c, 1, 80, 127
2, 265160, Note_off_c, 1, 52, 0
2, 265160, Note_off_c, 1, 80, 0
2, 265200, Note_on_c, 1, 54, 127
2, 265200, Note_on_c, 1, 81, 127
2, 265360, Note_off_c, 1, 54, 0
2, 265360, Note_off_c, 1, 81, 0
2, 265400, Note_on_c, 1, 56, 127
2, 265400, Note_on_c, 1, 83, 127
2, 265560, Note_off_c, 1, 83, 0
2, 265600, Note_on_c, 1, 80, 127
2, 265760, Note_off_c, 1, 56, 0
2, 265760, Note_off_c, 1, 80, 0
2, 265800, Note_on_c, 1, 52, 127
2, 265800, Note_on_c, 1, 81, 127
2, 265960, Note_off_c, 1, 81, 0
2, 266000, Note_on_c, 1, 83, 127
2, 266160, Note_off_c, 1, 52, 0
2, 266160, Note_off_c, 1, 71, 0
2, 266160, Note_off_c, 1, 83, 0
2, 266200, Note_on_c, 1, 57, 127
2, 266200, Note_on_c, 1, 74, 127
2, 266240, Note_on_c, 1, 73, 127
2, 266240, Note_off_c, 1, 74, 0
2, 266280, Note_off_c, 1, 73, 0
2, 266320, Note_on_c, 1, 74, 127
2, 266360, Note_off_c, 1, 74, 0
2, 266400, Note_on_c, 1, 71, 127
2, 266400, Note_on_c, 1, 73, 127
2, 266440, Note_off_c, 1, 73, 0
2, 266440, Note_on_c, 1, 74, 127
2, 266480, Note_off_c, 1, 74, 0
2, 266520, Note_on_c, 1, 73, 127
2, 266560, Note_off_c, 1, 57, 0
2, 266560, Note_off_c, 1, 71, 0
2, 266600, Note_on_c, 1, 54, 127
2, 266600, Note_on_c, 1, 69, 127
2, 266720, Note_off_c, 1, 73, 0
2, 266800, Note_on_c, 1, 81, 127
2, 266920, Note_off_c, 1, 54, 0
2, 266920, Note_off_c, 1, 81, 0
2, 267000, Note_on_c, 1, 59, 127
2, 267000, Note_on_c, 1, 76, 127
2, 267080, Note_off_c, 1, 76, 0
2, 267120, Note_off_c, 1, 59, 0
2, 267120, Note_on_c, 1, 75, 127
2, 267160, Note_on_c, 1, 61, 127
2, 267160, Note_off_c, 1, 75, 0
2, 267160, Note_on_c, 1, 76, 127
2, 267200, Note_off_c, 1, 76, 0
2, 267240, Note_on_c, 1, 75, 127
2, 267280, Note_off_c, 1, 75, 0
2, 267320, Note_off_c, 1, 61, 0
2, 267320, Note_on_c, 1, 76, 127
2, 267360, Note_on_c, 1, 59, 127
2, 267360, Note_on_c, 1, 75, 127
2, 267360, Note_off_c, 1, 76, 0
2, 267520, Note_off_c, 1, 59, 0
2, 267520, Note_off_c, 1, 75, 0
2, 267560, Note_on_c, 1, 57, 127
2, 267560, Note_on_c, 1, 73, 127
2, 267720, Note_off_c, 1, 57, 0
2, 267720, Note_off_c, 1, 69, 0
2, 267720, Note_off_c, 1, 73, 0
2, 267760, Note_on_c, 1, 56, 127
2, 267760, Note_on_c, 1, 71, 127
2, 267920, Note_off_c, 1, 56, 0
2, 267920, Note_off_c, 1, 71, 0
2, 267960, Note_on_c, 1, 54, 127
2, 267960, Note_on_c, 1, 69, 127
2, 268120, Note_off_c, 1, 54, 0
2, 268120, Note_off_c, 1, 69, 0
2, 268160, Note_on_c, 1, 52, 127
2, 268160, Note_on_c, 1, 68, 127
2, 268320, Note_off_c, 1, 68, 0
2, 268360, Note_on_c, 1, 76, 127
2, 268520, Note_off_c, 1, 52, 0
2, 268520, Note_off_c, 1, 76, 0
2, 268560, Note_on_c, 1, 59, 127
2, 268560, Note_on_c, 1, 63, 127
2, 268560, Note_on_c, 1, 68, 127
2, 268640, Note_off_c, 1, 68, 0
2, 268680, Note_on_c, 1, 66, 127
2, 268720, Note_off_c, 1, 66, 0
2, 268760, Note_on_c, 1, 68, 127
2, 268800, Note_off_c, 1, 68, 0
2, 268840, Note_on_c, 1, 66, 127
2, 268880, Note_off_c, 1, 66, 0
2, 268880, Note_on_c, 1, 68, 127
2, 268920, Note_off_c, 1, 68, 0
2, 268960, Note_on_c, 1, 47, 127
2, 268960, Note_on_c, 1, 66, 127
2, 269120, Note_off_c, 1, 66, 0
2, 269160, Note_on_c, 1, 64, 127
2, 269320, Note_off_c, 1, 47, 0
2, 269320, Note_off_c, 1, 59, 0
2, 269320, Note_off_c, 1, 63, 0
2, 269320, Note_off_c, 1, 64, 0
2, 269360, Note_on_c, 1, 52, 127
2, 269360, Note_on_c, 1, 64, 127
2, 269760, Note_on_c, 1, 40, 127
2, 270080, Note_off_c, 1, 52, 0
2, 270160, Note_on_c, 1, 47, 127
2, 270520, Note_off_c, 1, 47, 0
2, 270560, Note_on_c, 1, 52, 127
2, 270560, Note_on_c, 1, 56, 127
2, 270560, Note_on_c, 1, 59, 127
2, 271280, Note_off_c, 1, 40, 0
2, 271280, Note_off_c, 1, 52, 0
2, 271280, Note_off_c, 1, 64, 0
2, 271480, Note_off_c, 1, 56, 0
2, 271480, Note_off_c, 1, 59, 0
2, 271520, Note_on_c, 1, 71, 127
2, 271680, Note_off_c, 1, 71, 0
2, 271720, Note_on_c, 1, 40, 127
2, 271720, Note_on_c, 1, 71, 127
2, 271920, Note_on_c, 1, 68, 127
2, 272120, Note_on_c, 1, 64, 127
2, 272200, Note_off_c, 1, 40, 0
2, 272240, Note_on_c, 1, 47, 127
2, 272280, Note_off_c, 1, 47, 0
2, 272320, Note_on_c, 1, 49, 127
2, 272400, Note_off_c, 1, 49, 0
2, 272440, Note_on_c, 1, 50, 127
2, 272480, Note_off_c, 1, 50, 0
2, 272520, Note_on_c, 1, 49, 127
2, 272680, Note_off_c, 1, 49, 0
2, 272720, Note_on_c, 1, 50, 127
2, 272800, Note_off_c, 1, 50, 0
2, 272840, Note_on_c, 1, 52, 127
2, 272880, Note_off_c, 1, 52, 0
2, 272880, Note_off_c, 1, 64, 0
2, 272880, Note_off_c, 1, 68, 0
2, 272880, Note_off_c, 1, 71, 0
2, 272920, Note_on_c, 1, 50, 127
2, 272920, Note_on_c, 1, 64, 127
2, 272920, Note_on_c, 1, 68, 127
2, 273280, Note_off_c, 1, 50, 0
2, 273280, Note_off_c, 1, 64, 0
2, 273280, Note_off_c, 1, 68, 0
2, 273320, Note_on_c, 1, 50, 127
2, 273320, Note_on_c, 1, 66, 127
2, 273320, Note_on_c, 1, 68, 127
2, 273400, Note_off_c, 1, 50, 0
2, 273440, Note_on_c, 1, 49, 127
2, 273480, Note_off_c, 1, 49, 0
2, 273480, Note_off_c, 1, 68, 0
2, 273520, Note_on_c, 1, 50, 127
2, 273520, Note_on_c, 1, 69, 127
2, 273560, Note_off_c, 1, 50, 0
2, 273560, Note_off_c, 1, 69, 0
2, 273600, Note_on_c, 1, 49, 127
2, 273600, Note_on_c, 1, 68, 127
2, 273640, Note_off_c, 1, 68, 0
2, 273640, Note_on_c, 1, 69, 127
2, 273680, Note_off_c, 1, 49, 0
2, 273720, Note_on_c, 1, 47, 127
2, 273840, Note_off_c, 1, 66, 0
2, 273880, Note_off_c, 1, 69, 0
2, 273920, Note_on_c, 1, 68, 127
2, 273920, Note_on_c, 1, 71, 127
2, 274080, Note_off_c, 1, 47, 0
2, 274080, Note_off_c, 1, 68, 0
2, 274080, Note_off_c, 1, 71, 0
2, 274120, Note_on_c, 1, 45, 127
2, 274120, Note_on_c, 1, 69, 127
2, 274120, Note_on_c, 1, 73, 127
2, 274480, Note_off_c, 1, 45, 0
2, 274520, Note_on_c, 1, 49, 127
2, 274680, Note_off_c, 1, 69, 0
2, 274680, Note_off_c, 1, 73, 0
2, 274720, Note_on_c, 1, 69, 127
2, 274880, Note_off_c, 1, 49, 0
2, 274920, Note_on_c, 1, 50, 127
2, 274920, Note_on_c, 1, 78, 127
2, 274960, Note_on_c, 1, 76, 127
2, 274960, Note_off_c, 1, 78, 0
2, 275000, Note_off_c, 1, 76, 0
2, 275040, Note_on_c, 1, 78, 127
2, 275240, Note_off_c, 1, 50, 0
2, 275240, Note_off_c, 1, 69, 0
2, 275280, Note_on_c, 1, 55, 127
2, 275280, Note_on_c, 1, 71, 127
2, 275440, Note_off_c, 1, 78, 0
2, 275480, Note_on_c, 1, 79, 127
2, 275640, Note_off_c, 1, 55, 0
2, 275640, Note_off_c, 1, 79, 0
2, 275680, Note_on_c, 1, 49, 127
2, 275680, Note_on_c, 1, 78, 127
2, 275840, Note_off_c, 1, 78, 0
2, 275880, Note_on_c, 1, 76, 127
2, 275920, Note_off_c, 1, 76, 0
2, 275960, Note_on_c, 1, 78, 127
2, 276000, Note_off_c, 1, 78, 0
2, 276040, Note_off_c, 1, 49, 0
2, 276040, Note_off_c, 1, 71, 0
2, 276040, Note_on_c, 1, 76, 127
2, 276080, Note_on_c, 1, 54, 127
2, 276080, Note_on_c, 1, 70, 127
2, 276080, Note_off_c, 1, 76, 0
2, 276080, Note_on_c, 1, 78, 127
2, 276120, Note_off_c, 1, 78, 0
2, 276160, Note_on_c, 1, 76, 127
2, 276320, Note_off_c, 1, 76, 0
2, 276360, Note_on_c, 1, 74, 127
2, 276400, Note_on_c, 1, 73, 127
2, 276400, Note_off_c, 1, 74, 0
2, 276440, Note_off_c, 1, 54, 0
2, 276440, Note_off_c, 1, 70, 0
2, 276440, Note_off_c, 1, 73, 0
2, 276480, Note_on_c, 1, 47, 127
2, 276480, Note_on_c, 1, 71, 127
2, 276480, Note_on_c, 1, 74, 127
2, 276520, Note_off_c, 1, 74, 0
2, 276560, Note_on_c, 1, 73, 127
2, 276600, Note_off_c, 1, 73, 0
2, 276600, Note_on_c, 1, 74, 127
2, 277040, Note_off_c, 1, 47, 0
2, 277080, Note_on_c, 1, 49, 127
2, 277120, Note_off_c, 1, 49, 0
2, 277160, Note_on_c, 1, 50, 127
2, 277240, Note_off_c, 1, 50, 0
2, 277280, Note_on_c, 1, 49, 127
2, 277440, Note_off_c, 1, 49, 0
2, 277480, Note_on_c, 1, 50, 127
2, 277520, Note_off_c, 1, 50, 0
2, 277560, Note_on_c, 1, 52, 127
2, 277640, Note_off_c, 1, 52, 0
2, 277640, Note_off_c, 1, 71, 0
2, 277640, Note_off_c, 1, 74, 0
2, 277680, Note_on_c, 1, 50, 127
2, 277680, Note_on_c, 1, 71, 127
2, 277760, Note_on_c, 1, 78, 127
2, 277840, Note_on_c, 1, 83, 127
2, 278040, Note_off_c, 1, 50, 0
2, 278040, Note_off_c, 1, 71, 0
2, 278040, Note_off_c, 1, 78, 0
2, 278040, Note_off_c, 1, 83, 0
2, 278080, Note_on_c, 1, 52, 127
2, 278080, Note_on_c, 1, 78, 127
2, 278080, Note_on_c, 1, 83, 127
2, 278160, Note_off_c, 1, 83, 0
2, 278200, Note_on_c, 1, 81, 127
2, 278240, Note_off_c, 1, 52, 0
2, 278240, Note_off_c, 1, 81, 0
2, 278280, Note_on_c, 1, 51, 127
2, 278280, Note_on_c, 1, 83, 127
2, 278320, Note_on_c, 1, 81, 127
2, 278320, Note_off_c, 1, 83, 0
2, 278360, Note_off_c, 1, 81, 0
2, 278400, Note_on_c, 1, 83, 127
2, 278440, Note_off_c, 1, 51, 0
2, 278440, Note_off_c, 1, 83, 0
2, 278480, Note_on_c, 1, 49, 127
2, 278480, Note_on_c, 1, 81, 127
2, 278520, Note_off_c, 1, 49, 0
2, 278520, Note_on_c, 1, 51, 127
2, 278560, Note_off_c, 1, 51, 0
2, 278600, Note_on_c, 1, 49, 127
2, 278600, Note_off_c, 1, 81, 0
2, 278640, Note_off_c, 1, 49, 0
2, 278680, Note_on_c, 1, 47, 127
2, 278680, Note_on_c, 1, 83, 127
2, 278800, Note_off_c, 1, 47, 0
2, 278800, Note_off_c, 1, 78, 0
2, 278800, Note_off_c, 1, 83, 0
2, 278840, Note_on_c, 1, 52, 127
2, 278840, Note_on_c, 1, 76, 127
2, 278840, Note_on_c, 1, 81, 127
2, 278880, Note_off_c, 1, 81, 0
2, 278920, Note_on_c, 1, 79, 127
2, 278960, Note_off_c, 1, 79, 0
2, 279000, Note_on_c, 1, 81, 127
2, 279040, Note_on_c, 1, 79, 127
2, 279040, Note_off_c, 1, 81, 0
2, 279200, Note_off_c, 1, 52, 0
2, 279240, Note_on_c, 1, 54, 127
2, 279400, Note_off_c, 1, 79, 0
2, 279440, Note_on_c, 1, 78, 127
2, 279600, Note_off_c, 1, 54, 0
2, 279600, Note_off_c, 1, 76, 0
2, 279600, Note_off_c, 1, 78, 0
2, 279640, Note_on_c, 1, 55, 127
2, 279640, Note_on_c, 1, 76, 127
2, 279800, Note_off_c, 1, 76, 0
2, 279840, Note_on_c, 1, 79, 127
2, 280000, Note_off_c, 1, 55, 0
2, 280000, Note_off_c, 1, 79, 0
2, 280040, Note_on_c, 1, 54, 127
2, 280040, Note_on_c, 1, 62, 127
2, 280040, Note_on_c, 1, 67, 127
2, 280040, Note_on_c, 1, 71, 127
2, 280400, Note_off_c, 1, 54, 0
2, 280400, Note_off_c, 1, 62, 0
2, 280400, Note_off_c, 1, 67, 0
2, 280400, Note_off_c, 1, 71, 0
2, 280440, Note_on_c, 1, 54, 127
2, 280440, Note_on_c, 1, 64, 127
2, 280480, Note_off_c, 1, 54, 0
2, 280520, Note_on_c, 1, 67, 127
2, 280560, Note_on_c, 1, 52, 127
2, 280560, Note_on_c, 1, 69, 127
2, 280600, Note_off_c, 1, 52, 0
2, 280640, Note_on_c, 1, 54, 127
2, 280640, Note_on_c, 1, 73, 127
2, 280680, Note_off_c, 1, 54, 0
2, 280720, Note_on_c, 1, 52, 127
2, 280800, Note_off_c, 1, 52, 0
2, 280800, Note_off_c, 1, 64, 0
2, 280800, Note_off_c, 1, 67, 0
2, 280800, Note_off_c, 1, 69, 0
2, 280840, Note_on_c, 1, 50, 127
2, 280840, Note_on_c, 1, 66, 127
2, 281000, Note_off_c, 1, 73, 0
2, 281040, Note_on_c, 1, 74, 127
2, 281200, Note_off_c, 1, 50, 0
2, 281200, Note_off_c, 1, 66, 0
2, 281200, Note_off_c, 1, 74, 0
2, 281240, Note_on_c, 1, 57, 127
2, 281240, Note_on_c, 1, 64, 127
2, 281240, Note_on_c, 1, 74, 127
2, 281280, Note_on_c, 1, 73, 127
2, 281280, Note_off_c, 1, 74, 0
2, 281320, Note_off_c, 1, 73, 0
2, 281360, Note_on_c, 1, 74, 127
2, 281400, Note_off_c, 1, 74, 0
2, 281440, Note_on_c, 1, 73, 127
2, 281600, Note_off_c, 1, 57, 0
2, 281640, Note_on_c, 1, 59, 127
2, 281800, Note_off_c, 1, 73, 0
2, 281840, Note_on_c, 1, 71, 127
2, 282000, Note_off_c, 1, 59, 0
2, 282000, Note_off_c, 1, 71, 0
2, 282040, Note_on_c, 1, 61, 127
2, 282040, Note_on_c, 1, 69, 127
2, 282200, Note_off_c, 1, 69, 0
2, 282240, Note_on_c, 1, 76, 127
2, 282360, Note_off_c, 1, 61, 0
2, 282360, Note_off_c, 1, 64, 0
2, 282360, Note_off_c, 1, 76, 0
2, 282440, Note_on_c, 1, 57, 127
2, 282440, Note_on_c, 1, 61, 127
2, 282440, Note_on_c, 1, 81, 127
2, 282760, Note_off_c, 1, 57, 0
2, 282760, Note_off_c, 1, 61, 0
2, 282760, Note_off_c, 1, 81, 0
2, 282800, Note_on_c, 1, 59, 127
2, 282800, Note_on_c, 1, 62, 127
2, 282800, Note_on_c, 1, 81, 127
2, 282920, Note_off_c, 1, 81, 0
2, 282960, Note_on_c, 1, 79, 127
2, 283000, Note_off_c, 1, 79, 0
2, 283000, Note_on_c, 1, 81, 127
2, 283040, Note_off_c, 1, 81, 0
2, 283080, Note_on_c, 1, 79, 127
2, 283120, Note_off_c, 1, 79, 0
2, 283160, Note_off_c, 1, 59, 0
2, 283160, Note_off_c, 1, 62, 0
2, 283160, Note_on_c, 1, 81, 127
2, 283200, Note_on_c, 1, 61, 127
2, 283200, Note_on_c, 1, 64, 127
2, 283200, Note_on_c, 1, 79, 127
2, 283200, Note_off_c, 1, 81, 0
2, 283360, Note_off_c, 1, 79, 0
2, 283400, Note_on_c, 1, 81, 127
2, 283560, Note_off_c, 1, 61, 0
2, 283560, Note_off_c, 1, 64, 0
2, 283560, Note_off_c, 1, 81, 0
2, 283600, Note_on_c, 1, 62, 127
2, 283600, Note_on_c, 1, 78, 127
2, 283640, Note_off_c, 1, 78, 0
2, 283680, Note_on_c, 1, 76, 127
2, 283720, Note_off_c, 1, 76, 0
2, 283720, Note_on_c, 1, 78, 127
2, 284000, Note_on_c, 1, 50, 127
2, 284160, Note_off_c, 1, 50, 0
2, 284160, Note_off_c, 1, 78, 0
2, 284200, Note_on_c, 1, 52, 127
2, 284200, Note_on_c, 1, 76, 127
2, 284360, Note_off_c, 1, 52, 0
2, 284360, Note_off_c, 1, 76, 0
2, 284400, Note_on_c, 1, 54, 127
2, 284400, Note_on_c, 1, 74, 127
2, 284560, Note_off_c, 1, 74, 0
2, 284600, Note_on_c, 1, 73, 127
2, 284760, Note_off_c, 1, 54, 0
2, 284760, Note_off_c, 1, 62, 0
2, 284760, Note_off_c, 1, 73, 0
2, 284800, Note_on_c, 1, 55, 127
2, 284800, Note_on_c, 1, 71, 127
2, 284960, Note_off_c, 1, 71, 0
2, 285000, Note_on_c, 1, 76, 127
2, 285160, Note_off_c, 1, 55, 0
2, 285160, Note_off_c, 1, 76, 0
2, 285200, Note_on_c, 1, 57, 127
2, 285200, Note_on_c, 1, 74, 127
2, 285280, Note_off_c, 1, 74, 0
2, 285320, Note_on_c, 1, 73, 127
2, 285360, Note_off_c, 1, 73, 0
2, 285400, Note_on_c, 1, 74, 127
2, 285440, Note_on_c, 1, 73, 127
2, 285440, Note_off_c, 1, 74, 0
2, 285480, Note_off_c, 1, 73, 0
2, 285520, Note_on_c, 1, 74, 127
2, 285560, Note_off_c, 1, 74, 0
2, 285600, Note_on_c, 1, 45, 127
2, 285600, Note_on_c, 1, 73, 127
2, 285760, Note_off_c, 1, 73, 0
2, 285800, Note_on_c, 1, 74, 127
2, 285920, Note_off_c, 1, 57, 0
2, 285960, Note_off_c, 1, 45, 0
2, 285960, Note_off_c, 1, 74, 0
2, 286000, Note_on_c, 1, 50, 127
2, 286000, Note_on_c, 1, 74, 127
2, 286200, Note_on_c, 1, 69, 127
2, 286360, Note_on_c, 1, 66, 127
2, 286520, Note_off_c, 1, 50, 0
2, 286560, Note_on_c, 1, 52, 127
2, 286640, Note_off_c, 1, 52, 0
2, 286680, Note_on_c, 1, 54, 127
2, 286720, Note_off_c, 1, 54, 0
2, 286760, Note_on_c, 1, 52, 127
2, 286920, Note_off_c, 1, 52, 0
2, 286960, Note_on_c, 1, 54, 127
2, 287040, Note_off_c, 1, 54, 0
2, 287080, Note_on_c, 1, 55, 127
2, 287120, Note_off_c, 1, 55, 0
2, 287120, Note_off_c, 1, 66, 0
2, 287120, Note_off_c, 1, 69, 0
2, 287120, Note_off_c, 1, 74, 0
2, 287200, Note_on_c, 1, 46, 127
2, 287200, Note_on_c, 1, 73, 127
2, 287200, Note_on_c, 1, 78, 127
2, 287560, Note_off_c, 1, 46, 0
2, 287560, Note_off_c, 1, 73, 0
2, 287560, Note_off_c, 1, 78, 0
2, 287600, Note_on_c, 1, 47, 127
2, 287600, Note_on_c, 1, 74, 127
2, 287600, Note_on_c, 1, 78, 127
2, 287720, Note_off_c, 1, 78, 0
2, 287800, Note_on_c, 1, 79, 127
2, 287840, Note_on_c, 1, 78, 127
2, 287840, Note_off_c, 1, 79, 0
2, 287880, Note_off_c, 1, 78, 0
2, 287920, Note_off_c, 1, 47, 0
2, 287920, Note_off_c, 1, 74, 0
2, 287920, Note_on_c, 1, 79, 127
2, 287960, Note_on_c, 1, 45, 127
2, 287960, Note_on_c, 1, 72, 127
2, 288120, Note_off_c, 1, 79, 0
2, 288160, Note_on_c, 1, 78, 127
2, 288320, Note_off_c, 1, 45, 0
2, 288320, Note_off_c, 1, 72, 0
2, 288320, Note_off_c, 1, 78, 0
2, 288360, Note_on_c, 1, 43, 127
2, 288360, Note_on_c, 1, 71, 127
2, 288360, Note_on_c, 1, 78, 127
2, 288400, Note_off_c, 1, 78, 0
2, 288440, Note_on_c, 1, 76, 127
2, 288480, Note_off_c, 1, 76, 0
2, 288520, Note_on_c, 1, 78, 127
2, 288560, Note_on_c, 1, 76, 127
2, 288560, Note_off_c, 1, 78, 0
2, 288720, Note_off_c, 1, 43, 0
2, 288720, Note_off_c, 1, 71, 0
2, 288760, Note_on_c, 1, 43, 127
2, 288760, Note_on_c, 1, 69, 127
2, 288840, Note_off_c, 1, 43, 0
2, 288880, Note_on_c, 1, 42, 127
2, 288920, Note_off_c, 1, 42, 0
2, 288920, Note_off_c, 1, 76, 0
2, 288960, Note_on_c, 1, 43, 127
2, 288960, Note_on_c, 1, 74, 127
2, 289040, Note_off_c, 1, 43, 0
2, 289080, Note_on_c, 1, 42, 127
2, 289120, Note_off_c, 1, 42, 0
2, 289120, Note_off_c, 1, 69, 0
2, 289120, Note_off_c, 1, 74, 0
2, 289160, Note_on_c, 1, 40, 127
2, 289160, Note_on_c, 1, 67, 127
2, 289160, Note_on_c, 1, 74, 127
2, 289320, Note_off_c, 1, 74, 0
2, 289360, Note_on_c, 1, 72, 127
2, 289520, Note_off_c, 1, 40, 0
2, 289520, Note_off_c, 1, 72, 0
2, 289560, Note_on_c, 1, 49, 127
2, 289560, Note_on_c, 1, 71, 127
2, 289720, Note_off_c, 1, 71, 0
2, 289760, Note_on_c, 1, 70, 127
2, 289920, Note_off_c, 1, 49, 0
2, 289920, Note_off_c, 1, 67, 0
2, 289920, Note_off_c, 1, 70, 0
2, 289960, Note_on_c, 1, 50, 127
2, 289960, Note_on_c, 1, 66, 127
2, 289960, Note_on_c, 1, 71, 127
2, 290000, Note_off_c, 1, 71, 0
2, 290040, Note_on_c, 1, 70, 127
2, 290080, Note_off_c, 1, 70, 0
2, 290080, Note_on_c, 1, 71, 127
2, 290320, Note_off_c, 1, 50, 0
2, 290320, Note_off_c, 1, 66, 0
2, 290360, Note_on_c, 1, 52, 127
2, 290360, Note_on_c, 1, 67, 127
2, 290520, Note_off_c, 1, 71, 0
2, 290560, Note_on_c, 1, 73, 127
2, 290720, Note_off_c, 1, 52, 0
2, 290720, Note_off_c, 1, 67, 0
2, 290720, Note_off_c, 1, 73, 0
2, 290760, Note_on_c, 1, 54, 127
2, 290760, Note_on_c, 1, 61, 127
2, 290760, Note_on_c, 1, 71, 127
2, 290840, Note_off_c, 1, 71, 0
2, 290880, Note_on_c, 1, 70, 127
2, 290920, Note_off_c, 1, 70, 0
2, 290960, Note_on_c, 1, 71, 127
2, 291000, Note_on_c, 1, 70, 127
2, 291000, Note_off_c, 1, 71, 0
2, 291040, Note_off_c, 1, 70, 0
2, 291080, Note_on_c, 1, 71, 127
2, 291120, Note_off_c, 1, 54, 0
2, 291120, Note_off_c, 1, 71, 0
2, 291160, Note_on_c, 1, 56, 127
2, 291160, Note_on_c, 1, 70, 127
2, 291320, Note_off_c, 1, 70, 0
2, 291360, Note_on_c, 1, 68, 127
2, 291480, Note_off_c, 1, 56, 0
2, 291480, Note_off_c, 1, 68, 0
2, 291560, Note_on_c, 1, 58, 127
2, 291560, Note_on_c, 1, 66, 127
2, 291680, Note_off_c, 1, 66, 0
2, 291720, Note_on_c, 1, 73, 127
2, 291880, Note_off_c, 1, 58, 0
2, 291880, Note_off_c, 1, 61, 0
2, 291880, Note_off_c, 1, 73, 0
2, 291920, Note_on_c, 1, 54, 127
2, 291920, Note_on_c, 1, 58, 127
2, 291920, Note_on_c, 1, 78, 127
2, 292280, Note_off_c, 1, 54, 0
2, 292280, Note_off_c, 1, 58, 0
2, 292280, Note_off_c, 1, 78, 0
2, 292320, Note_on_c, 1, 56, 127
2, 292320, Note_on_c, 1, 59, 127
2, 292320, Note_on_c, 1, 78, 127
2, 292440, Note_off_c, 1, 78, 0
2, 292480, Note_on_c, 1, 76, 127
2, 292520, Note_off_c, 1, 76, 0
2, 292520, Note_on_c, 1, 78, 127
2, 292560, Note_off_c, 1, 78, 0
2, 292600, Note_on_c, 1, 76, 127
2, 292640, Note_off_c, 1, 76, 0
2, 292680, Note_off_c, 1, 56, 0
2, 292680, Note_off_c, 1, 59, 0
2, 292680, Note_on_c, 1, 78, 127
2, 292720, Note_on_c, 1, 58, 127
2, 292720, Note_on_c, 1, 61, 127
2, 292720, Note_on_c, 1, 76, 127
2, 292720, Note_off_c, 1, 78, 0
2, 292880, Note_off_c, 1, 76, 0
2, 292920, Note_on_c, 1, 78, 127
2, 293080, Note_off_c, 1, 58, 0
2, 293080, Note_off_c, 1, 61, 0
2, 293080, Note_off_c, 1, 78, 0
2, 293120, Note_on_c, 1, 59, 127
2, 293120, Note_on_c, 1, 76, 127
2, 293160, Note_off_c, 1, 76, 0
2, 293200, Note_on_c, 1, 74, 127
2, 293240, Note_off_c, 1, 74, 0
2, 293240, Note_on_c, 1, 76, 127
2, 293280, Note_off_c, 1, 59, 0
2, 293280, Note_off_c, 1, 76, 0
2, 293320, Note_on_c, 1, 61, 127
2, 293320, Note_on_c, 1, 74, 127
2, 293480, Note_off_c, 1, 61, 0
2, 293520, Note_on_c, 1, 59, 127
2, 293680, Note_off_c, 1, 59, 0
2, 293680, Note_off_c, 1, 74, 0
2, 293720, Note_on_c, 1, 57, 127
2, 293720, Note_on_c, 1, 73, 127
2, 293880, Note_off_c, 1, 57, 0
2, 293880, Note_off_c, 1, 73, 0
2, 293920, Note_on_c, 1, 55, 127
2, 293920, Note_on_c, 1, 71, 127
2, 294080, Note_off_c, 1, 55, 0
2, 294080, Note_off_c, 1, 71, 0
2, 294120, Note_on_c, 1, 54, 127
2, 294120, Note_on_c, 1, 70, 127
2, 294280, Note_off_c, 1, 54, 0
2, 294280, Note_off_c, 1, 70, 0
2, 294320, Note_on_c, 1, 55, 127
2, 294320, Note_on_c, 1, 71, 127
2, 294480, Note_off_c, 1, 55, 0
2, 294480, Note_off_c, 1, 71, 0
2, 294520, Note_on_c, 1, 52, 127
2, 294520, Note_on_c, 1, 73, 127
2, 294680, Note_off_c, 1, 52, 0
2, 294680, Note_off_c, 1, 73, 0
2, 294720, Note_on_c, 1, 54, 127
2, 294720, Note_on_c, 1, 70, 127
2, 294720, Note_on_c, 1, 74, 127
2, 294800, Note_off_c, 1, 74, 0
2, 294840, Note_on_c, 1, 73, 127
2, 294880, Note_off_c, 1, 73, 0
2, 294920, Note_on_c, 1, 74, 127
2, 294960, Note_on_c, 1, 73, 127
2, 294960, Note_off_c, 1, 74, 0
2, 295000, Note_off_c, 1, 73, 0
2, 295040, Note_on_c, 1, 74, 127
2, 295080, Note_off_c, 1, 74, 0
2, 295120, Note_on_c, 1, 42, 127
2, 295120, Note_on_c, 1, 73, 127
2, 295240, Note_off_c, 1, 73, 0
2, 295280, Note_on_c, 1, 71, 127
2, 295440, Note_off_c, 1, 42, 0
2, 295440, Note_off_c, 1, 54, 0
2, 295440, Note_off_c, 1, 70, 0
2, 295440, Note_off_c, 1, 71, 0
2, 295480, Note_on_c, 1, 47, 127
2, 295480, Note_on_c, 1, 71, 127
2, 295680, Note_on_c, 1, 66, 127
2, 295880, Note_on_c, 1, 62, 127
2, 296040, Note_off_c, 1, 47, 0
2, 296080, Note_on_c, 1, 50, 127
2, 296160, Note_off_c, 1, 50, 0
2, 296200, Note_on_c, 1, 49, 127
2, 296240, Note_off_c, 1, 49, 0
2, 296280, Note_on_c, 1, 47, 127
2, 296440, Note_off_c, 1, 47, 0
2, 296480, Note_on_c, 1, 49, 127
2, 296560, Note_off_c, 1, 49, 0
2, 296600, Note_on_c, 1, 50, 127
2, 296640, Note_off_c, 1, 50, 0
2, 296640, Note_off_c, 1, 62, 0
2, 296640, Note_off_c, 1, 66, 0
2, 296640, Note_off_c, 1, 71, 0
2, 296680, Note_on_c, 1, 44, 127
2, 296680, Note_on_c, 1, 71, 127
2, 296720, Note_off_c, 1, 71, 0
2, 296760, Note_on_c, 1, 69, 127
2, 296800, Note_off_c, 1, 69, 0
2, 296800, Note_on_c, 1, 71, 127
2, 297040, Note_off_c, 1, 44, 0
2, 297040, Note_off_c, 1, 71, 0
2, 297080, Note_on_c, 1, 44, 127
2, 297080, Note_on_c, 1, 64, 127
2, 297160, Note_off_c, 1, 44, 0
2, 297160, Note_on_c, 1, 71, 127
2, 297200, Note_on_c, 1, 42, 127
2, 297240, Note_off_c, 1, 42, 0
2, 297240, Note_on_c, 1, 76, 127
2, 297280, Note_on_c, 1, 44, 127
2, 297320, Note_off_c, 1, 44, 0
2, 297360, Note_on_c, 1, 42, 127
2, 297440, Note_off_c, 1, 42, 0
2, 297480, Note_on_c, 1, 40, 127
2, 297640, Note_off_c, 1, 76, 0
2, 297680, Note_on_c, 1, 74, 127
2, 297840, Note_off_c, 1, 40, 0
2, 297840, Note_off_c, 1, 64, 0
2, 297840, Note_off_c, 1, 71, 0
2, 297840, Note_off_c, 1, 74, 0
2, 297880, Note_on_c, 1, 45, 127
2, 297880, Note_on_c, 1, 64, 127
2, 297880, Note_on_c, 1, 74, 127
2, 297920, Note_on_c, 1, 73, 127
2, 297920, Note_off_c, 1, 74, 0
2, 297960, Note_off_c, 1, 73, 0
2, 298000, Note_on_c, 1, 74, 127
2, 298040, Note_off_c, 1, 74, 0
2, 298080, Note_on_c, 1, 73, 127
2, 298240, Note_off_c, 1, 45, 0
2, 298280, Note_on_c, 1, 47, 127
2, 298440, Note_off_c, 1, 73, 0
2, 298480, Note_on_c, 1, 71, 127
2, 298640, Note_off_c, 1, 47, 0
2, 298640, Note_off_c, 1, 71, 0
2, 298680, Note_on_c, 1, 49, 127
2, 298680, Note_on_c, 1, 69, 127
2, 298800, Note_off_c, 1, 69, 0
2, 298880, Note_on_c, 1, 73, 127
2, 299000, Note_off_c, 1, 49, 0
2, 299000, Note_off_c, 1, 64, 0
2, 299000, Note_off_c, 1, 73, 0
2, 299040, Note_on_c, 1, 50, 127
2, 299040, Note_on_c, 1, 57, 127
2, 299040, Note_on_c, 1, 66, 127
2, 299400, Note_off_c, 1, 50, 0
2, 299400, Note_off_c, 1, 57, 0
2, 299400, Note_off_c, 1, 66, 0
2, 299440, Note_on_c, 1, 49, 127
2, 299440, Note_on_c, 1, 62, 127
2, 299560, Note_off_c, 1, 49, 0
2, 299560, Note_on_c, 1, 64, 127
2, 299600, Note_on_c, 1, 47, 127
2, 299640, Note_off_c, 1, 47, 0
2, 299640, Note_on_c, 1, 49, 127
2, 299640, Note_on_c, 1, 68, 127
2, 299680, Note_off_c, 1, 49, 0
2, 299720, Note_on_c, 1, 47, 127
2, 299800, Note_off_c, 1, 47, 0
2, 299800, Note_off_c, 1, 62, 0
2, 299800, Note_off_c, 1, 64, 0
2, 299840, Note_on_c, 1, 45, 127
2, 299840, Note_on_c, 1, 61, 127
2, 300000, Note_off_c, 1, 68, 0
2, 300040, Note_on_c, 1, 69, 127
2, 300200, Note_off_c, 1, 45, 0
2, 300200, Note_off_c, 1, 61, 0
2, 300200, Note_off_c, 1, 69, 0
2, 300240, Note_on_c, 1, 52, 127
2, 300240, Note_on_c, 1, 59, 127
2, 300240, Note_on_c, 1, 69, 127
2, 300280, Note_off_c, 1, 69, 0
2, 300320, Note_on_c, 1, 68, 127
2, 300360, Note_off_c, 1, 68, 0
2, 300400, Note_on_c, 1, 69, 127
2, 300440, Note_on_c, 1, 68, 127
2, 300440, Note_off_c, 1, 69, 0
2, 300600, Note_off_c, 1, 52, 0
2, 300640, Note_on_c, 1, 54, 127
2, 300800, Note_off_c, 1, 68, 0
2, 300840, Note_on_c, 1, 66, 127
2, 301000, Note_off_c, 1, 54, 0
2, 301000, Note_off_c, 1, 66, 0
2, 301040, Note_on_c, 1, 56, 127
2, 301040, Note_on_c, 1, 64, 127
2, 301400, Note_off_c, 1, 56, 0
2, 301400, Note_off_c, 1, 59, 0
2, 301400, Note_off_c, 1, 64, 0
2, 301440, Note_on_c, 1, 52, 127
2, 301440, Note_on_c, 1, 71, 127
2, 301600, Note_off_c, 1, 71, 0
2, 301640, Note_on_c, 1, 73, 127
2, 301680, Note_off_c, 1, 73, 0
2, 301720, Note_on_c, 1, 74, 127
2, 301800, Note_off_c, 1, 52, 0
2, 301800, Note_off_c, 1, 74, 0
2, 301840, Note_on_c, 1, 57, 127
2, 301840, Note_on_c, 1, 74, 127
2, 301920, Note_off_c, 1, 74, 0
2, 301960, Note_on_c, 1, 73, 127
2, 302000, Note_off_c, 1, 73, 0
2, 302040, Note_on_c, 1, 74, 127
2, 302080, Note_on_c, 1, 73, 127
2, 302080, Note_off_c, 1, 74, 0
2, 302120, Note_off_c, 1, 73, 0
2, 302160, Note_on_c, 1, 74, 127
2, 302200, Note_off_c, 1, 57, 0
2, 302200, Note_off_c, 1, 74, 0
2, 302240, Note_on_c, 1, 59, 127
2, 302240, Note_on_c, 1, 73, 127
2, 302400, Note_off_c, 1, 73, 0
2, 302440, Note_on_c, 1, 71, 127
2, 302600, Note_off_c, 1, 59, 0
2, 302600, Note_off_c, 1, 71, 0
2, 302640, Note_on_c, 1, 61, 127
2, 302640, Note_on_c, 1, 71, 127
2, 302760, Note_off_c, 1, 71, 0
2, 302840, Note_on_c, 1, 76, 127
2, 303000, Note_on_c, 1, 59, 127
2, 303160, Note_off_c, 1, 76, 0
2, 303200, Note_on_c, 1, 78, 127
2, 303360, Note_off_c, 1, 59, 0
2, 303360, Note_off_c, 1, 61, 0
2, 303360, Note_off_c, 1, 78, 0
2, 303400, Note_on_c, 1, 57, 127
2, 303400, Note_on_c, 1, 79, 127
2, 303560, Note_off_c, 1, 79, 0
2, 303600, Note_on_c, 1, 76, 127
2, 303760, Note_off_c, 1, 57, 0
2, 303760, Note_off_c, 1, 76, 0
2, 303800, Note_on_c, 1, 45, 127
2, 303800, Note_on_c, 1, 73, 127
2, 303800, Note_on_c, 1, 81, 127
2, 304160, Note_off_c, 1, 45, 0
2, 304160, Note_off_c, 1, 73, 0
2, 304160, Note_off_c, 1, 81, 0
2, 304200, Note_on_c, 1, 47, 127
2, 304200, Note_on_c, 1, 74, 127
2, 304200, Note_on_c, 1, 81, 127
2, 304280, Note_off_c, 1, 81, 0
2, 304320, Note_on_c, 1, 79, 127
2, 304360, Note_off_c, 1, 79, 0
2, 304400, Note_on_c, 1, 81, 127
2, 304440, Note_off_c, 1, 81, 0
2, 304480, Note_on_c, 1, 79, 127
2, 304520, Note_off_c, 1, 79, 0
2, 304520, Note_on_c, 1, 81, 127
2, 304560, Note_off_c, 1, 47, 0
2, 304560, Note_off_c, 1, 74, 0
2, 304560, Note_off_c, 1, 81, 0
2, 304600, Note_on_c, 1, 49, 127
2, 304600, Note_on_c, 1, 76, 127
2, 304600, Note_on_c, 1, 79, 127
2, 304760, Note_off_c, 1, 79, 0
2, 304800, Note_on_c, 1, 81, 127
2, 304960, Note_off_c, 1, 49, 0
2, 304960, Note_off_c, 1, 81, 0
2, 305000, Note_on_c, 1, 50, 127
2, 305000, Note_on_c, 1, 69, 127
2, 305000, Note_on_c, 1, 79, 127
2, 305160, Note_off_c, 1, 76, 0
2, 305160, Note_off_c, 1, 79, 0
2, 305200, Note_on_c, 1, 78, 127
2, 305360, Note_off_c, 1, 50, 0
2, 305360, Note_off_c, 1, 69, 0
2, 305400, Note_on_c, 1, 47, 127
2, 305400, Note_on_c, 1, 74, 127
2, 305520, Note_off_c, 1, 78, 0
2, 305600, Note_on_c, 1, 80, 127
2, 305760, Note_off_c, 1, 47, 0
2, 305760, Note_off_c, 1, 74, 0
2, 305760, Note_off_c, 1, 80, 0
2, 305800, Note_on_c, 1, 49, 127
2, 305800, Note_on_c, 1, 73, 127
2, 305800, Note_on_c, 1, 81, 127
2, 305960, Note_off_c, 1, 73, 0
2, 305960, Note_off_c, 1, 81, 0
2, 306000, Note_on_c, 1, 71, 127
2, 306000, Note_on_c, 1, 74, 127
2, 306160, Note_off_c, 1, 49, 0
2, 306160, Note_off_c, 1, 71, 0
2, 306160, Note_off_c, 1, 74, 0
2, 306200, Note_on_c, 1, 50, 127
2, 306200, Note_on_c, 1, 69, 127
2, 306200, Note_on_c, 1, 73, 127
2, 306360, Note_off_c, 1, 69, 0
2, 306360, Note_off_c, 1, 73, 0
2, 306400, Note_on_c, 1, 71, 127
2, 306560, Note_off_c, 1, 50, 0
2, 306560, Note_off_c, 1, 71, 0
2, 306600, Note_on_c, 1, 52, 127
2, 306600, Note_on_c, 1, 68, 127
2, 306600, Note_on_c, 1, 73, 127
2, 306680, Note_off_c, 1, 73, 0
2, 306720, Note_on_c, 1, 71, 127
2, 306760, Note_off_c, 1, 71, 0
2, 306800, Note_on_c, 1, 73, 127
2, 306840, Note_on_c, 1, 71, 127
2, 306840, Note_off_c, 1, 73, 0
2, 306880, Note_off_c, 1, 71, 0
2, 306920, Note_on_c, 1, 73, 127
2, 306960, Note_on_c, 1, 40, 127
2, 306960, Note_on_c, 1, 71, 127
2, 306960, Note_off_c, 1, 73, 0
2, 307120, Note_off_c, 1, 71, 0
2, 307160, Note_on_c, 1, 69, 127
2, 307320, Note_off_c, 1, 40, 0
2, 307320, Note_off_c, 1, 52, 0
2, 307320, Note_off_c, 1, 68, 0
2, 307320, Note_off_c, 1, 69, 0
2, 307360, Note_on_c, 1, 45, 127
2, 307360, Note_on_c, 1, 69, 127
2, 307760, Note_on_c, 1, 33, 127
2, 308120, Note_off_c, 1, 45, 0
2, 308160, Note_on_c, 1, 40, 127
2, 308520, Note_off_c, 1, 40, 0
2, 308560, Note_on_c, 1, 45, 127
2, 308560, Note_on_c, 1, 61, 127
2, 308560, Note_on_c, 1, 64, 127
2, 309320, Note_off_c, 1, 33, 0
2, 309320, Note_off_c, 1, 45, 0
2, 309480, Note_off_c, 1, 69, 0
2, 309520, Note_off_c, 1, 61, 0
2, 309520, Note_off_c, 1, 64, 0
2, 309560, Note_on_c, 1, 69, 127
2, 309720, Note_off_c, 1, 69, 0
2, 309760, Note_on_c, 1, 45, 127
2, 309760, Note_on_c, 1, 69, 127
2, 309960, Note_on_c, 1, 64, 127
2, 310160, Note_on_c, 1, 61, 127
2, 310200, Note_off_c, 1, 45, 0
2, 310240, Note_on_c, 1, 57, 127
2, 310320, Note_off_c, 1, 57, 0
2, 310360, Note_on_c, 1, 56, 127
2, 310400, Note_off_c, 1, 56, 0
2, 310440, Note_on_c, 1, 54, 127
2, 310520, Note_off_c, 1, 54, 0
2, 310560, Note_on_c, 1, 52, 127
2, 310720, Note_off_c, 1, 52, 0
2, 310760, Note_on_c, 1, 54, 127
2, 310800, Note_off_c, 1, 54, 0
2, 310840, Note_on_c, 1, 50, 127
2, 310920, Note_off_c, 1, 50, 0
2, 310920, Note_off_c, 1, 61, 0
2, 310920, Note_off_c, 1, 64, 0
2, 310920, Note_off_c, 1, 69, 0
2, 310960, Note_on_c, 1, 49, 127
2, 310960, Note_on_c, 1, 64, 127
2, 311080, Note_off_c, 1, 49, 0
2, 311160, Note_on_c, 1, 50, 127
2, 311200, Note_off_c, 1, 50, 0
2, 311240, Note_on_c, 1, 52, 127
2, 311280, Note_off_c, 1, 52, 0
2, 311280, Note_off_c, 1, 64, 0
2, 311320, Note_on_c, 1, 50, 127
2, 311320, Note_on_c, 1, 64, 127
2, 311480, Note_off_c, 1, 50, 0
2, 311480, Note_off_c, 1, 64, 0
2, 311520, Note_on_c, 1, 52, 127
2, 311520, Note_on_c, 1, 66, 127
2, 311560, Note_off_c, 1, 66, 0
2, 311600, Note_off_c, 1, 52, 0
2, 311600, Note_on_c, 1, 64, 127
2, 311640, Note_on_c, 1, 49, 127
2, 311640, Note_off_c, 1, 64, 0
2, 311680, Note_off_c, 1, 49, 0
2, 311680, Note_on_c, 1, 66, 127
2, 311720, Note_on_c, 1, 47, 127
2, 311880, Note_off_c, 1, 47, 0
2, 311880, Note_off_c, 1, 66, 0
2, 311920, Note_on_c, 1, 49, 127
2, 311920, Note_on_c, 1, 67, 127
2, 312000, Note_off_c, 1, 49, 0
2, 312040, Note_on_c, 1, 45, 127
2, 312080, Note_off_c, 1, 45, 0
2, 312080, Note_off_c, 1, 67, 0
2, 312120, Note_on_c, 1, 50, 127
2, 312120, Note_on_c, 1, 67, 127
2, 312200, Note_off_c, 1, 67, 0
2, 312240, Note_on_c, 1, 66, 127
2, 312280, Note_off_c, 1, 66, 0
2, 312280, Note_on_c, 1, 67, 127
2, 312320, Note_on_c, 1, 66, 127
2, 312320, Note_off_c, 1, 67, 0
2, 312400, Note_off_c, 1, 66, 0
2, 312440, Note_on_c, 1, 62, 127
2, 312480, Note_off_c, 1, 50, 0
2, 312480, Note_off_c, 1, 62, 0
2, 312480, Note_on_c, 1, 64, 127
2, 312520, Note_on_c, 1, 49, 127
2, 312520, Note_off_c, 1, 64, 0
2, 312560, Note_on_c, 1, 66, 127
2, 312600, Note_off_c, 1, 66, 0
2, 312640, Note_on_c, 1, 68, 127
2, 312680, Note_off_c, 1, 68, 0
2, 312720, Note_on_c, 1, 69, 127
2, 312760, Note_off_c, 1, 69, 0
2, 312800, Note_on_c, 1, 71, 127
2, 312840, Note_off_c, 1, 71, 0
2, 312840, Note_on_c, 1, 73, 127
2, 312880, Note_off_c, 1, 49, 0
2, 312880, Note_off_c, 1, 73, 0
2, 312920, Note_on_c, 1, 47, 127
2, 312920, Note_on_c, 1, 74, 127
2, 313120, Note_on_c, 1, 71, 127
2, 313280, Note_off_c, 1, 47, 0
2, 313280, Note_off_c, 1, 71, 0
2, 313320, Note_on_c, 1, 52, 127
2, 313320, Note_on_c, 1, 68, 127
2, 313480, Note_off_c, 1, 74, 0
2, 313520, Note_on_c, 1, 76, 127
2, 313680, Note_off_c, 1, 52, 0
2, 313680, Note_off_c, 1, 68, 0
2, 313680, Note_off_c, 1, 76, 0
2, 313720, Note_on_c, 1, 45, 127
2, 313720, Note_on_c, 1, 74, 127
2, 313760, Note_off_c, 1, 74, 0
2, 313800, Note_on_c, 1, 73, 127
2, 313840, Note_off_c, 1, 73, 0
2, 313840, Note_on_c, 1, 74, 127
2, 313880, Note_off_c, 1, 74, 0
2, 313920, Note_on_c, 1, 73, 127
2, 314000, Note_on_c, 1, 71, 127
2, 314080, Note_off_c, 1, 45, 0
2, 314080, Note_off_c, 1, 71, 0
2, 314120, Note_on_c, 1, 38, 127
2, 314120, Note_on_c, 1, 69, 127
2, 314280, Note_off_c, 1, 73, 0
2, 314320, Note_off_c, 1, 69, 0
2, 314320, Note_on_c, 1, 71, 127
2, 314480, Note_off_c, 1, 38, 0
2, 314480, Note_off_c, 1, 71, 0
2, 314520, Note_on_c, 1, 40, 127
2, 314520, Note_on_c, 1, 71, 127
2, 314720, Note_on_c, 1, 68, 127
2, 314920, Note_on_c, 1, 64, 127
2, 314960, Note_off_c, 1, 40, 0
2, 315000, Note_on_c, 1, 52, 127
2, 315040, Note_off_c, 1, 52, 0
2, 315080, Note_on_c, 1, 50, 127
2, 315160, Note_off_c, 1, 50, 0
2, 315200, Note_on_c, 1, 49, 127
2, 315240, Note_off_c, 1, 49, 0
2, 315280, Note_on_c, 1, 47, 127
2, 315440, Note_off_c, 1, 47, 0
2, 315480, Note_on_c, 1, 49, 127
2, 315560, Note_off_c, 1, 49, 0
2, 315600, Note_on_c, 1, 45, 127
2, 315640, Note_off_c, 1, 45, 0
2, 315640, Note_off_c, 1, 64, 0
2, 315640, Note_off_c, 1, 68, 0
2, 315640, Note_off_c, 1, 71, 0
2, 315680, Note_on_c, 1, 44, 127
2, 315680, Note_on_c, 1, 64, 127
2, 315800, Note_on_c, 1, 71, 127
2, 315840, Note_off_c, 1, 44, 0
2, 315880, Note_on_c, 1, 45, 127
2, 315880, Note_on_c, 1, 76, 127
2, 315960, Note_off_c, 1, 45, 0
2, 316000, Note_on_c, 1, 47, 127
2, 316040, Note_off_c, 1, 47, 0
2, 316040, Note_off_c, 1, 64, 0
2, 316040, Note_off_c, 1, 71, 0
2, 316040, Note_off_c, 1, 76, 0
2, 316080, Note_on_c, 1, 45, 127
2, 316080, Note_on_c, 1, 71, 127
2, 316080, Note_on_c, 1, 76, 127
2, 316120, Note_off_c, 1, 76, 0
2, 316160, Note_on_c, 1, 74, 127
2, 316200, Note_off_c, 1, 74, 0
2, 316240, Note_off_c, 1, 45, 0
2, 316240, Note_on_c, 1, 73, 127
2, 316280, Note_on_c, 1, 47, 127
2, 316280, Note_off_c, 1, 73, 0
2, 316280, Note_on_c, 1, 74, 127
2, 316320, Note_off_c, 1, 74, 0
2, 316360, Note_off_c, 1, 47, 0
2, 316360, Note_on_c, 1, 76, 127
2, 316400, Note_on_c, 1, 44, 127
2, 316400, Note_on_c, 1, 74, 127
2, 316400, Note_off_c, 1, 76, 0
2, 316440, Note_off_c, 1, 44, 0
2, 316440, Note_off_c, 1, 74, 0
2, 316480, Note_on_c, 1, 42, 127
2, 316480, Note_on_c, 1, 76, 127
2, 316520, Note_off_c, 1, 76, 0
2, 316560, Note_on_c, 1, 74, 127
2, 316600, Note_on_c, 1, 73, 127
2, 316600, Note_off_c, 1, 74, 0
2, 316640, Note_off_c, 1, 42, 0
2, 316640, Note_off_c, 1, 73, 0
2, 316680, Note_on_c, 1, 44, 127
2, 316680, Note_on_c, 1, 74, 127
2, 316720, Note_off_c, 1, 44, 0
2, 316720, Note_off_c, 1, 74, 0
2, 316760, Note_on_c, 1, 76, 127
2, 316800, Note_on_c, 1, 40, 127
2, 316840, Note_off_c, 1, 40, 0
2, 316840, Note_off_c, 1, 71, 0
2, 316840, Note_off_c, 1, 76, 0
2, 316880, Note_on_c, 1, 45, 127
2, 316880, Note_on_c, 1, 74, 127
2, 317040, Note_off_c, 1, 74, 0
2, 317080, Note_on_c, 1, 73, 127
2, 317240, Note_off_c, 1, 45, 0
2, 317240, Note_off_c, 1, 73, 0
2, 317280, Note_on_c, 1, 47, 127
2, 317280, Note_on_c, 1, 71, 127
2, 317440, Note_off_c, 1, 71, 0
2, 317480, Note_on_c, 1, 69, 127
2, 317640, Note_off_c, 1, 47, 0
2, 317640, Note_off_c, 1, 69, 0
2, 317680, Note_on_c, 1, 49, 127
2, 317680, Note_on_c, 1, 68, 127
2, 317840, Note_off_c, 1, 68, 0
2, 317880, Note_on_c, 1, 66, 127
2, 318040, Note_off_c, 1, 49, 0
2, 318040, Note_off_c, 1, 66, 0
2, 318080, Note_on_c, 1, 42, 127
2, 318080, Note_on_c, 1, 78, 127
2, 318440, Note_off_c, 1, 42, 0
2, 318440, Note_off_c, 1, 78, 0
2, 318480, Note_on_c, 1, 44, 127
2, 318480, Note_on_c, 1, 78, 127
2, 318520, Note_on_c, 1, 76, 127
2, 318520, Note_off_c, 1, 78, 0
2, 318560, Note_off_c, 1, 76, 0
2, 318600, Note_on_c, 1, 75, 127
2, 318640, Note_off_c, 1, 75, 0
2, 318680, Note_on_c, 1, 76, 127
2, 318720, Note_off_c, 1, 76, 0
2, 318720, Note_on_c, 1, 78, 127
2, 318760, Note_off_c, 1, 78, 0
2, 318800, Note_off_c, 1, 44, 0
2, 318800, Note_on_c, 1, 76, 127
2, 318840, Note_on_c, 1, 46, 127
2, 318840, Note_off_c, 1, 76, 0
2, 318840, Note_on_c, 1, 78, 127
2, 318880, Note_off_c, 1, 78, 0
2, 318920, Note_on_c, 1, 76, 127
2, 318960, Note_off_c, 1, 76, 0
2, 319000, Note_on_c, 1, 75, 127
2, 319040, Note_off_c, 1, 75, 0
2, 319040, Note_on_c, 1, 76, 127
2, 319080, Note_off_c, 1, 76, 0
2, 319120, Note_on_c, 1, 78, 127
2, 319200, Note_off_c, 1, 46, 0
2, 319200, Note_off_c, 1, 78, 0
2, 319240, Note_on_c, 1, 47, 127
2, 319240, Note_on_c, 1, 76, 127
2, 319400, Note_off_c, 1, 76, 0
2, 319440, Note_on_c, 1, 75, 127
2, 319600, Note_off_c, 1, 47, 0
2, 319600, Note_off_c, 1, 75, 0
2, 319640, Note_on_c, 1, 49, 127
2, 319640, Note_on_c, 1, 73, 127
2, 319800, Note_off_c, 1, 73, 0
2, 319840, Note_on_c, 1, 71, 127
2, 320000, Note_off_c, 1, 49, 0
2, 320000, Note_off_c, 1, 71, 0
2, 320040, Note_on_c, 1, 51, 127
2, 320040, Note_on_c, 1, 69, 127
2, 320200, Note_off_c, 1, 69, 0
2, 320240, Note_on_c, 1, 68, 127
2, 320400, Note_off_c, 1, 51, 0
2, 320400, Note_off_c, 1, 68, 0
2, 320440, Note_on_c, 1, 44, 127
2, 320440, Note_on_c, 1, 83, 127
2, 320800, Note_off_c, 1, 44, 0
2, 320800, Note_off_c, 1, 83, 0
2, 320840, Note_on_c, 1, 49, 127
2, 320840, Note_on_c, 1, 83, 127
2, 320880, Note_off_c, 1, 83, 0
2, 320920, Note_on_c, 1, 81, 127
2, 320960, Note_on_c, 1, 80, 127
2, 320960, Note_off_c, 1, 81, 0
2, 321000, Note_off_c, 1, 80, 0
2, 321040, Note_on_c, 1, 81, 127
2, 321080, Note_off_c, 1, 81, 0
2, 321080, Note_on_c, 1, 83, 127
2, 321120, Note_off_c, 1, 83, 0
2, 321160, Note_on_c, 1, 81, 127
2, 321200, Note_off_c, 1, 49, 0
2, 321200, Note_off_c, 1, 81, 0
2, 321240, Note_on_c, 1, 51, 127
2, 321240, Note_on_c, 1, 83, 127
2, 321280, Note_on_c, 1, 81, 127
2, 321280, Note_off_c, 1, 83, 0
2, 321320, Note_off_c, 1, 81, 0
2, 321360, Note_on_c, 1, 80, 127
2, 321400, Note_off_c, 1, 80, 0
2, 321440, Note_on_c, 1, 81, 127
2, 321480, Note_off_c, 1, 81, 0
2, 321480, Note_on_c, 1, 83, 127
2, 321600, Note_off_c, 1, 51, 0
2, 321600, Note_off_c, 1, 83, 0
2, 321640, Note_on_c, 1, 52, 127
2, 321640, Note_on_c, 1, 81, 127
2, 321680, Note_on_c, 1, 80, 127
2, 321680, Note_off_c, 1, 81, 0
2, 321720, Note_off_c, 1, 80, 0
2, 321720, Note_on_c, 1, 81, 127
2, 321760, Note_on_c, 1, 80, 127
2, 321760, Note_off_c, 1, 81, 0
2, 321800, Note_off_c, 1, 80, 0
2, 321840, Note_on_c, 1, 78, 127
2, 322000, Note_off_c, 1, 52, 0
2, 322000, Note_off_c, 1, 78, 0
2, 322040, Note_on_c, 1, 54, 127
2, 322040, Note_on_c, 1, 80, 127
2, 322160, Note_off_c, 1, 80, 0
2, 322240, Note_on_c, 1, 81, 127
2, 322360, Note_off_c, 1, 54, 0
2, 322360, Note_off_c, 1, 81, 0
2, 322400, Note_on_c, 1, 56, 127
2, 322400, Note_on_c, 1, 83, 127
2, 322560, Note_off_c, 1, 83, 0
2, 322600, Note_on_c, 1, 80, 127
2, 322760, Note_off_c, 1, 56, 0
2, 322760, Note_off_c, 1, 80, 0
2, 322800, Note_on_c, 1, 52, 127
2, 322800, Note_on_c, 1, 81, 127
2, 322960, Note_off_c, 1, 81, 0
2, 323000, Note_on_c, 1, 83, 127
2, 323160, Note_off_c, 1, 52, 0
2, 323160, Note_off_c, 1, 83, 0
2, 323200, Note_on_c, 1, 57, 127
2, 323200, Note_on_c, 1, 74, 127
2, 323240, Note_off_c, 1, 74, 0
2, 323280, Note_on_c, 1, 73, 127
2, 323320, Note_off_c, 1, 73, 0
2, 323320, Note_on_c, 1, 74, 127
2, 323360, Note_off_c, 1, 74, 0
2, 323400, Note_on_c, 1, 73, 127
2, 323440, Note_on_c, 1, 71, 127
2, 323440, Note_off_c, 1, 73, 0
2, 323560, Note_off_c, 1, 57, 0
2, 323560, Note_off_c, 1, 71, 0
2, 323600, Note_on_c, 1, 54, 127
2, 323600, Note_on_c, 1, 73, 127
2, 323760, Note_off_c, 1, 73, 0
2, 323800, Note_on_c, 1, 81, 127
2, 323960, Note_off_c, 1, 54, 0
2, 323960, Note_off_c, 1, 81, 0
2, 324000, Note_on_c, 1, 59, 127
2, 324000, Note_on_c, 1, 76, 127
2, 324040, Note_off_c, 1, 76, 0
2, 324080, Note_on_c, 1, 75, 127
2, 324120, Note_off_c, 1, 75, 0
2, 324120, Note_on_c, 1, 76, 127
2, 324160, Note_off_c, 1, 76, 0
2, 324200, Note_on_c, 1, 75, 127
2, 324240, Note_on_c, 1, 73, 127
2, 324240, Note_off_c, 1, 75, 0
2, 324360, Note_off_c, 1, 59, 0
2, 324360, Note_off_c, 1, 73, 0
2, 324400, Note_on_c, 1, 61, 127
2, 324400, Note_on_c, 1, 75, 127
2, 324560, Note_off_c, 1, 75, 0
2, 324600, Note_on_c, 1, 76, 127
2, 324760, Note_off_c, 1, 61, 0
2, 324760, Note_off_c, 1, 76, 0
2, 324800, Note_on_c, 1, 63, 127
2, 324800, Note_on_c, 1, 78, 127
2, 325000, Note_on_c, 1, 69, 127
2, 325160, Note_off_c, 1, 63, 0
2, 325160, Note_off_c, 1, 69, 0
2, 325200, Note_on_c, 1, 64, 127
2, 325200, Note_on_c, 1, 68, 127
2, 325320, Note_off_c, 1, 78, 0
2, 325360, Note_off_c, 1, 64, 0
2, 325400, Note_on_c, 1, 57, 127
2, 325400, Note_on_c, 1, 76, 127
2, 325560, Note_off_c, 1, 57, 0
2, 325560, Note_off_c, 1, 68, 0
2, 325600, Note_on_c, 1, 59, 127
2, 325600, Note_on_c, 1, 66, 127
2, 325760, Note_off_c, 1, 76, 0
2, 325800, Note_on_c, 1, 69, 127
2, 325960, Note_off_c, 1, 59, 0
2, 326000, Note_on_c, 1, 47, 127
2, 326000, Note_on_c, 1, 76, 127
2, 326160, Note_off_c, 1, 76, 0
2, 326200, Note_on_c, 1, 75, 127
2, 326320, Note_off_c, 1, 66, 0
2, 326320, Note_off_c, 1, 69, 0
2, 326360, Note_off_c, 1, 47, 0
2, 326360, Note_off_c, 1, 75, 0
2, 326400, Note_on_c, 1, 52, 127
2, 326400, Note_on_c, 1, 76, 127
2, 326600, Note_on_c, 1, 71, 127
2, 326800, Note_on_c, 1, 68, 127
2, 326960, Note_on_c, 1, 63, 127
2, 327120, Note_off_c, 1, 63, 0
2, 327160, Note_on_c, 1, 64, 127
2, 327360, Note_on_c, 1, 47, 127
2, 327520, Note_off_c, 1, 47, 0
2, 327560, Note_on_c, 1, 40, 127
2, 328320, Note_off_c, 1, 52, 0
2, 328320, Note_off_c, 1, 68, 0
2, 328320, Note_off_c, 1, 71, 0
2, 328320, Note_off_c, 1, 76, 0
2, 328400, Note_on_c, 1, 71, 127
2, 328520, Note_off_c, 1, 64, 0
2, 328680, Note_off_c, 1, 71, 0
2, 328720, Note_off_c, 1, 40, 0
2, 328760, Note_on_c, 1, 40, 127
2, 328760, Note_on_c, 1, 71, 127
2, 328960, Note_on_c, 1, 68, 127
2, 329160, Note_on_c, 1, 64, 127
2, 329200, Note_off_c, 1, 40, 0
2, 329240, Note_on_c, 1, 56, 127
2, 329320, Note_off_c, 1, 56, 0
2, 329360, Note_on_c, 1, 54, 127
2, 329400, Note_off_c, 1, 54, 0
2, 329440, Note_on_c, 1, 52, 127
2, 329520, Note_off_c, 1, 52, 0
2, 329560, Note_on_c, 1, 50, 127
2, 329720, Note_off_c, 1, 50, 0
2, 329760, Note_on_c, 1, 52, 127
2, 329800, Note_off_c, 1, 52, 0
2, 329840, Note_on_c, 1, 49, 127
2, 329920, Note_off_c, 1, 49, 0
2, 329920, Note_off_c, 1, 64, 0
2, 329920, Note_off_c, 1, 68, 0
2, 329920, Note_off_c, 1, 71, 0
2, 329960, Note_on_c, 1, 50, 127
2, 329960, Note_on_c, 1, 64, 127
2, 329960, Note_on_c, 1, 68, 127
2, 330120, Note_off_c, 1, 50, 0
2, 330160, Note_on_c, 1, 52, 127
2, 330200, Note_off_c, 1, 52, 0
2, 330240, Note_on_c, 1, 54, 127
2, 330320, Note_off_c, 1, 54, 0
2, 330320, Note_off_c, 1, 64, 0
2, 330320, Note_off_c, 1, 68, 0
2, 330360, Note_on_c, 1, 52, 127
2, 330360, Note_on_c, 1, 66, 127
2, 330360, Note_on_c, 1, 68, 127
2, 330520, Note_off_c, 1, 52, 0
2, 330520, Note_off_c, 1, 68, 0
2, 330560, Note_on_c, 1, 54, 127
2, 330560, Note_on_c, 1, 69, 127
2, 330600, Note_off_c, 1, 54, 0
2, 330600, Note_on_c, 1, 68, 127
2, 330600, Note_off_c, 1, 69, 0
2, 330640, Note_on_c, 1, 50, 127
2, 330640, Note_off_c, 1, 68, 0
2, 330680, Note_off_c, 1, 50, 0
2, 330680, Note_on_c, 1, 69, 127
2, 330760, Note_on_c, 1, 49, 127
2, 330880, Note_off_c, 1, 49, 0
2, 330880, Note_off_c, 1, 66, 0
2, 330880, Note_off_c, 1, 69, 0
2, 330960, Note_on_c, 1, 50, 127
2, 330960, Note_on_c, 1, 68, 127
2, 330960, Note_on_c, 1, 71, 127
2, 331000, Note_off_c, 1, 50, 0
2, 331040, Note_on_c, 1, 47, 127
2, 331080, Note_off_c, 1, 47, 0
2, 331080, Note_off_c, 1, 68, 0
2, 331080, Note_off_c, 1, 71, 0
2, 331120, Note_on_c, 1, 45, 127
2, 331120, Note_on_c, 1, 69, 127
2, 331120, Note_on_c, 1, 71, 127
2, 331200, Note_off_c, 1, 71, 0
2, 331240, Note_on_c, 1, 73, 127
2, 331280, Note_off_c, 1, 69, 0
2, 331280, Note_off_c, 1, 73, 0
2, 331320, Note_on_c, 1, 71, 127
2, 331400, Note_off_c, 1, 71, 0
2, 331440, Note_on_c, 1, 69, 127
2, 331480, Note_off_c, 1, 45, 0
2, 331480, Note_off_c, 1, 69, 0
2, 331520, Note_on_c, 1, 49, 127
2, 331520, Note_on_c, 1, 71, 127
2, 331600, Note_off_c, 1, 71, 0
2, 331640, Note_on_c, 1, 73, 127
2, 331680, Note_off_c, 1, 73, 0
2, 331720, Note_on_c, 1, 74, 127
2, 331800, Note_off_c, 1, 74, 0
2, 331840, Note_on_c, 1, 76, 127
2, 331880, Note_off_c, 1, 49, 0
2, 331880, Note_off_c, 1, 76, 0
2, 331920, Note_on_c, 1, 50, 127
2, 331920, Note_on_c, 1, 78, 127
2, 332120, Note_on_c, 1, 74, 127
2, 332280, Note_off_c, 1, 50, 0
2, 332280, Note_off_c, 1, 74, 0
2, 332320, Note_on_c, 1, 55, 127
2, 332320, Note_on_c, 1, 71, 127
2, 332480, Note_off_c, 1, 78, 0
2, 332520, Note_on_c, 1, 79, 127
2, 332680, Note_off_c, 1, 55, 0
2, 332680, Note_off_c, 1, 79, 0
2, 332720, Note_on_c, 1, 49, 127
2, 332720, Note_on_c, 1, 78, 127
2, 332880, Note_off_c, 1, 78, 0
2, 332920, Note_on_c, 1, 76, 127
2, 333080, Note_off_c, 1, 49, 0
2, 333080, Note_off_c, 1, 71, 0
2, 333080, Note_off_c, 1, 76, 0
2, 333120, Note_on_c, 1, 54, 127
2, 333120, Note_on_c, 1, 70, 127
2, 333120, Note_on_c, 1, 74, 127
2, 333280, Note_off_c, 1, 74, 0
2, 333320, Note_on_c, 1, 73, 127
2, 333480, Note_off_c, 1, 54, 0
2, 333480, Note_off_c, 1, 70, 0
2, 333480, Note_off_c, 1, 73, 0
2, 333520, Note_on_c, 1, 47, 127
2, 333520, Note_on_c, 1, 73, 127
2, 333720, Note_on_c, 1, 71, 127
2, 333920, Note_on_c, 1, 66, 127
2, 333960, Note_off_c, 1, 47, 0
2, 334000, Note_on_c, 1, 59, 127
2, 334040, Note_off_c, 1, 73, 0
2, 334080, Note_off_c, 1, 59, 0
2, 334120, Note_on_c, 1, 57, 127
2, 334120, Note_on_c, 1, 74, 127
2, 334160, Note_off_c, 1, 57, 0
2, 334200, Note_on_c, 1, 55, 127
2, 334280, Note_off_c, 1, 55, 0
2, 334320, Note_on_c, 1, 54, 127
2, 334480, Note_off_c, 1, 54, 0
2, 334520, Note_on_c, 1, 55, 127
2, 334560, Note_off_c, 1, 55, 0
2, 334600, Note_on_c, 1, 52, 127
2, 334640, Note_off_c, 1, 52, 0
2, 334640, Note_off_c, 1, 66, 0
2, 334640, Note_off_c, 1, 74, 0
2, 334680, Note_off_c, 1, 71, 0
2, 334720, Note_on_c, 1, 50, 127
2, 334720, Note_on_c, 1, 71, 127
2, 334800, Note_on_c, 1, 78, 127
2, 334840, Note_off_c, 1, 50, 0
2, 334880, Note_on_c, 1, 52, 127
2, 334880, Note_on_c, 1, 83, 127
2, 334960, Note_off_c, 1, 52, 0
2, 335000, Note_on_c, 1, 54, 127
2, 335040, Note_off_c, 1, 54, 0
2, 335040, Note_off_c, 1, 71, 0
2, 335040, Note_off_c, 1, 78, 0
2, 335040, Note_off_c, 1, 83, 0
2, 335080, Note_on_c, 1, 52, 127
2, 335080, Note_on_c, 1, 78, 127
2, 335080, Note_on_c, 1, 83, 127
2, 335120, Note_off_c, 1, 83, 0
2, 335160, Note_on_c, 1, 81, 127
2, 335200, Note_off_c, 1, 81, 0
2, 335240, Note_off_c, 1, 52, 0
2, 335240, Note_on_c, 1, 80, 127
2, 335280, Note_on_c, 1, 54, 127
2, 335280, Note_off_c, 1, 80, 0
2, 335280, Note_on_c, 1, 81, 127
2, 335320, Note_off_c, 1, 81, 0
2, 335360, Note_off_c, 1, 54, 0
2, 335360, Note_on_c, 1, 83, 127
2, 335400, Note_on_c, 1, 51, 127
2, 335400, Note_off_c, 1, 83, 0
2, 335440, Note_off_c, 1, 51, 0
2, 335440, Note_on_c, 1, 81, 127
2, 335480, Note_on_c, 1, 49, 127
2, 335480, Note_off_c, 1, 81, 0
2, 335480, Note_on_c, 1, 83, 127
2, 335520, Note_off_c, 1, 83, 0
2, 335560, Note_on_c, 1, 81, 127
2, 335600, Note_off_c, 1, 81, 0
2, 335640, Note_off_c, 1, 49, 0
2, 335640, Note_on_c, 1, 80, 127
2, 335680, Note_on_c, 1, 51, 127
2, 335680, Note_off_c, 1, 80, 0
2, 335680, Note_on_c, 1, 81, 127
2, 335720, Note_off_c, 1, 81, 0
2, 335760, Note_off_c, 1, 51, 0
2, 335760, Note_on_c, 1, 83, 127
2, 335800, Note_on_c, 1, 47, 127
2, 335840, Note_off_c, 1, 47, 0
2, 335840, Note_off_c, 1, 78, 0
2, 335840, Note_off_c, 1, 83, 0
2, 335880, Note_on_c, 1, 52, 127
2, 335880, Note_on_c, 1, 81, 127
2, 336040, Note_off_c, 1, 81, 0
2, 336080, Note_on_c, 1, 79, 127
2, 336240, Note_off_c, 1, 52, 0
2, 336240, Note_off_c, 1, 79, 0
2, 336280, Note_on_c, 1, 54, 127
2, 336280, Note_on_c, 1, 78, 127
2, 336440, Note_off_c, 1, 78, 0
2, 336480, Note_on_c, 1, 76, 127
2, 336640, Note_off_c, 1, 54, 0
2, 336640, Note_off_c, 1, 76, 0
2, 336680, Note_on_c, 1, 55, 127
2, 336680, Note_on_c, 1, 74, 127
2, 336840, Note_off_c, 1, 74, 0
2, 336880, Note_on_c, 1, 73, 127
2, 337040, Note_off_c, 1, 55, 0
2, 337040, Note_off_c, 1, 73, 0
2, 337080, Note_on_c, 1, 54, 127
2, 337080, Note_on_c, 1, 71, 127
2, 337240, Note_off_c, 1, 71, 0
2, 337280, Note_on_c, 1, 73, 127
2, 337440, Note_off_c, 1, 54, 0
2, 337440, Note_off_c, 1, 73, 0
2, 337480, Note_on_c, 1, 52, 127
2, 337480, Note_on_c, 1, 74, 127
2, 337520, Note_off_c, 1, 52, 0
2, 337560, Note_on_c, 1, 54, 127
2, 337640, Note_off_c, 1, 54, 0
2, 337640, Note_off_c, 1, 74, 0
2, 337680, Note_on_c, 1, 52, 127
2, 337680, Note_on_c, 1, 78, 127
2, 337840, Note_off_c, 1, 52, 0
2, 337840, Note_off_c, 1, 78, 0
2, 337880, Note_on_c, 1, 50, 127
2, 337880, Note_on_c, 1, 76, 127
2, 338040, Note_off_c, 1, 76, 0
2, 338080, Note_on_c, 1, 74, 127
2, 338240, Note_off_c, 1, 50, 0
2, 338240, Note_off_c, 1, 74, 0
2, 338280, Note_on_c, 1, 57, 127
2, 338280, Note_on_c, 1, 74, 127
2, 338320, Note_on_c, 1, 73, 127
2, 338320, Note_off_c, 1, 74, 0
2, 338360, Note_off_c, 1, 73, 0
2, 338400, Note_on_c, 1, 74, 127
2, 338440, Note_on_c, 1, 73, 127
2, 338440, Note_off_c, 1, 74, 0
2, 338480, Note_off_c, 1, 73, 0
2, 338520, Note_on_c, 1, 71, 127
2, 338600, Note_off_c, 1, 71, 0
2, 338680, Note_on_c, 1, 61, 127
2, 338680, Note_on_c, 1, 69, 127
2, 338800, Note_off_c, 1, 69, 0
2, 338840, Note_on_c, 1, 71, 127
2, 339000, Note_off_c, 1, 61, 0
2, 339000, Note_off_c, 1, 71, 0
2, 339040, Note_on_c, 1, 64, 127
2, 339040, Note_on_c, 1, 73, 127
2, 339200, Note_off_c, 1, 73, 0
2, 339240, Note_on_c, 1, 74, 127
2, 339400, Note_off_c, 1, 57, 0
2, 339400, Note_off_c, 1, 64, 0
2, 339400, Note_off_c, 1, 74, 0
2, 339440, Note_on_c, 1, 57, 127
2, 339440, Note_on_c, 1, 61, 127
2, 339440, Note_on_c, 1, 76, 127
2, 339600, Note_off_c, 1, 76, 0
2, 339640, Note_on_c, 1, 78, 127
2, 339800, Note_off_c, 1, 57, 0
2, 339800, Note_off_c, 1, 61, 0
2, 339800, Note_off_c, 1, 78, 0
2, 339840, Note_on_c, 1, 59, 127
2, 339840, Note_on_c, 1, 62, 127
2, 339840, Note_on_c, 1, 79, 127
2, 340000, Note_off_c, 1, 79, 0
2, 340040, Note_on_c, 1, 83, 127
2, 340200, Note_off_c, 1, 59, 0
2, 340200, Note_off_c, 1, 62, 0
2, 340200, Note_off_c, 1, 83, 0
2, 340240, Note_on_c, 1, 61, 127
2, 340240, Note_on_c, 1, 64, 127
2, 340240, Note_on_c, 1, 81, 127
2, 340400, Note_off_c, 1, 81, 0
2, 340440, Note_on_c, 1, 79, 127
2, 340600, Note_off_c, 1, 61, 0
2, 340600, Note_off_c, 1, 64, 0
2, 340600, Note_off_c, 1, 79, 0
2, 340640, Note_on_c, 1, 62, 127
2, 340640, Note_on_c, 1, 78, 127
2, 340800, Note_off_c, 1, 78, 0
2, 340840, Note_on_c, 1, 79, 127
2, 341000, Note_off_c, 1, 62, 0
2, 341000, Note_off_c, 1, 79, 0
2, 341040, Note_on_c, 1, 50, 127
2, 341040, Note_on_c, 1, 78, 127
2, 341200, Note_off_c, 1, 50, 0
2, 341200, Note_off_c, 1, 78, 0
2, 341240, Note_on_c, 1, 52, 127
2, 341240, Note_on_c, 1, 76, 127
2, 341400, Note_off_c, 1, 52, 0
2, 341400, Note_off_c, 1, 76, 0
2, 341440, Note_on_c, 1, 54, 127
2, 341440, Note_on_c, 1, 74, 127
2, 341600, Note_off_c, 1, 74, 0
2, 341640, Note_on_c, 1, 73, 127
2, 341800, Note_off_c, 1, 54, 0
2, 341800, Note_off_c, 1, 73, 0
2, 341840, Note_on_c, 1, 55, 127
2, 341840, Note_on_c, 1, 71, 127
2, 342000, Note_off_c, 1, 71, 0
2, 342040, Note_on_c, 1, 76, 127
2, 342200, Note_off_c, 1, 55, 0
2, 342200, Note_off_c, 1, 76, 0
2, 342240, Note_on_c, 1, 57, 127
2, 342240, Note_on_c, 1, 74, 127
2, 342320, Note_off_c, 1, 74, 0
2, 342360, Note_on_c, 1, 73, 127
2, 342400, Note_off_c, 1, 73, 0
2, 342440, Note_on_c, 1, 74, 127
2, 342480, Note_on_c, 1, 73, 127
2, 342480, Note_off_c, 1, 74, 0
2, 342520, Note_off_c, 1, 73, 0
2, 342560, Note_off_c, 1, 57, 0
2, 342560, Note_on_c, 1, 74, 127
2, 342600, Note_on_c, 1, 45, 127
2, 342600, Note_on_c, 1, 73, 127
2, 342600, Note_off_c, 1, 74, 0
2, 342760, Note_off_c, 1, 73, 0
2, 342800, Note_on_c, 1, 74, 127
2, 342960, Note_off_c, 1, 45, 0
2, 342960, Note_off_c, 1, 74, 0
2, 343000, Note_on_c, 1, 38, 127
2, 343000, Note_on_c, 1, 74, 127
2, 343200, Note_on_c, 1, 69, 127
2, 343400, Note_on_c, 1, 66, 127
2, 343480, Note_off_c, 1, 38, 0
2, 343520, Note_on_c, 1, 54, 127
2, 343560, Note_off_c, 1, 54, 0
2, 343600, Note_on_c, 1, 52, 127
2, 343680, Note_off_c, 1, 52, 0
2, 343720, Note_on_c, 1, 50, 127
2, 343760, Note_off_c, 1, 50, 0
2, 343800, Note_on_c, 1, 49, 127
2, 343960, Note_off_c, 1, 49, 0
2, 344000, Note_on_c, 1, 50, 127
2, 344080, Note_off_c, 1, 50, 0
2, 344120, Note_on_c, 1, 47, 127
2, 344160, Note_off_c, 1, 47, 0
2, 344160, Note_off_c, 1, 66, 0
2, 344160, Note_off_c, 1, 69, 0
2, 344160, Note_off_c, 1, 74, 0
2, 344200, Note_on_c, 1, 46, 127
2, 344200, Note_on_c, 1, 78, 127
2, 344360, Note_off_c, 1, 46, 0
2, 344360, Note_off_c, 1, 78, 0
2, 344400, Note_on_c, 1, 47, 127
2, 344400, Note_on_c, 1, 79, 127
2, 344440, Note_off_c, 1, 47, 0
2, 344440, Note_off_c, 1, 79, 0
2, 344480, Note_on_c, 1, 49, 127
2, 344480, Note_on_c, 1, 81, 127
2, 344560, Note_off_c, 1, 49, 0
2, 344560, Note_off_c, 1, 81, 0
2, 344600, Note_on_c, 1, 47, 127
2, 344600, Note_on_c, 1, 81, 127
2, 344680, Note_off_c, 1, 81, 0
2, 344720, Note_on_c, 1, 79, 127
2, 344760, Note_off_c, 1, 47, 0
2, 344760, Note_off_c, 1, 79, 0
2, 344800, Note_on_c, 1, 49, 127
2, 344800, Note_on_c, 1, 81, 127
2, 344840, Note_off_c, 1, 49, 0
2, 344840, Note_off_c, 1, 81, 0
2, 344880, Note_on_c, 1, 45, 127
2, 344880, Note_on_c, 1, 79, 127
2, 344920, Note_off_c, 1, 79, 0
2, 344920, Note_on_c, 1, 81, 127
2, 344960, Note_off_c, 1, 45, 0
2, 344960, Note_off_c, 1, 81, 0
2, 345000, Note_on_c, 1, 43, 127
2, 345000, Note_on_c, 1, 79, 127
2, 345160, Note_off_c, 1, 43, 0
2, 345160, Note_off_c, 1, 79, 0
2, 345200, Note_on_c, 1, 45, 127
2, 345200, Note_on_c, 1, 78, 127
2, 345240, Note_off_c, 1, 45, 0
2, 345280, Note_on_c, 1, 42, 127
2, 345360, Note_off_c, 1, 42, 0
2, 345360, Note_off_c, 1, 78, 0
2, 345400, Note_on_c, 1, 43, 127
2, 345400, Note_on_c, 1, 78, 127
2, 345560, Note_off_c, 1, 78, 0
2, 345600, Note_on_c, 1, 76, 127
2, 345760, Note_off_c, 1, 43, 0
2, 345760, Note_off_c, 1, 76, 0
2, 345800, Note_on_c, 1, 42, 127
2, 345800, Note_on_c, 1, 74, 127
2, 345840, Note_off_c, 1, 42, 0
2, 345880, Note_on_c, 1, 43, 127
2, 345960, Note_off_c, 1, 43, 0
2, 345960, Note_off_c, 1, 74, 0
2, 346000, Note_on_c, 1, 42, 127
2, 346000, Note_on_c, 1, 73, 127
2, 346120, Note_off_c, 1, 42, 0
2, 346120, Note_off_c, 1, 73, 0
2, 346200, Note_on_c, 1, 40, 127
2, 346200, Note_on_c, 1, 74, 127
2, 346320, Note_off_c, 1, 74, 0
2, 346360, Note_on_c, 1, 73, 127
2, 346520, Note_off_c, 1, 40, 0
2, 346520, Note_off_c, 1, 73, 0
2, 346560, Note_on_c, 1, 49, 127
2, 346560, Note_on_c, 1, 71, 127
2, 346720, Note_off_c, 1, 71, 0
2, 346760, Note_on_c, 1, 70, 127
2, 346920, Note_off_c, 1, 49, 0
2, 346920, Note_off_c, 1, 70, 0
2, 346960, Note_on_c, 1, 50, 127
2, 346960, Note_on_c, 1, 71, 127
2, 347120, Note_off_c, 1, 71, 0
2, 347160, Note_on_c, 1, 70, 127
2, 347320, Note_off_c, 1, 50, 0
2, 347320, Note_off_c, 1, 70, 0
2, 347360, Note_on_c, 1, 52, 127
2, 347360, Note_on_c, 1, 71, 127
2, 347520, Note_off_c, 1, 71, 0
2, 347560, Note_on_c, 1, 73, 127
2, 347720, Note_off_c, 1, 52, 0
2, 347720, Note_off_c, 1, 73, 0
2, 347760, Note_on_c, 1, 54, 127
2, 347760, Note_on_c, 1, 70, 127
2, 347920, Note_off_c, 1, 70, 0
2, 347960, Note_on_c, 1, 68, 127
2, 348120, Note_off_c, 1, 68, 0
2, 348160, Note_on_c, 1, 58, 127
2, 348160, Note_on_c, 1, 66, 127
2, 348320, Note_off_c, 1, 66, 0
2, 348360, Note_on_c, 1, 68, 127
2, 348520, Note_off_c, 1, 58, 0
2, 348520, Note_off_c, 1, 68, 0
2, 348560, Note_on_c, 1, 61, 127
2, 348560, Note_on_c, 1, 70, 127
2, 348720, Note_off_c, 1, 70, 0
2, 348760, Note_on_c, 1, 71, 127
2, 348920, Note_off_c, 1, 54, 0
2, 348920, Note_off_c, 1, 61, 0
2, 348920, Note_off_c, 1, 71, 0
2, 348960, Note_on_c, 1, 54, 127
2, 348960, Note_on_c, 1, 58, 127
2, 348960, Note_on_c, 1, 73, 127
2, 349120, Note_off_c, 1, 73, 0
2, 349160, Note_on_c, 1, 74, 127
2, 349320, Note_off_c, 1, 54, 0
2, 349320, Note_off_c, 1, 58, 0
2, 349320, Note_off_c, 1, 74, 0
2, 349360, Note_on_c, 1, 56, 127
2, 349360, Note_on_c, 1, 59, 127
2, 349360, Note_on_c, 1, 76, 127
2, 349520, Note_off_c, 1, 76, 0
2, 349560, Note_on_c, 1, 79, 127
2, 349720, Note_off_c, 1, 56, 0
2, 349720, Note_off_c, 1, 59, 0
2, 349720, Note_off_c, 1, 79, 0
2, 349760, Note_on_c, 1, 58, 127
2, 349760, Note_on_c, 1, 61, 127
2, 349760, Note_on_c, 1, 78, 127
2, 349880, Note_off_c, 1, 78, 0
2, 349960, Note_on_c, 1, 76, 127
2, 350080, Note_off_c, 1, 58, 0
2, 350080, Note_off_c, 1, 61, 0
2, 350080, Note_off_c, 1, 76, 0
2, 350120, Note_on_c, 1, 59, 127
2, 350120, Note_on_c, 1, 74, 127
2, 350280, Note_off_c, 1, 59, 0
2, 350280, Note_off_c, 1, 74, 0
2, 350320, Note_on_c, 1, 61, 127
2, 350320, Note_on_c, 1, 76, 127
2, 350480, Note_off_c, 1, 61, 0
2, 350480, Note_off_c, 1, 76, 0
2, 350520, Note_on_c, 1, 59, 127
2, 350520, Note_on_c, 1, 74, 127
2, 350680, Note_off_c, 1, 59, 0
2, 350680, Note_off_c, 1, 74, 0
2, 350720, Note_on_c, 1, 57, 127
2, 350720, Note_on_c, 1, 73, 127
2, 350880, Note_off_c, 1, 57, 0
2, 350880, Note_off_c, 1, 73, 0
2, 350920, Note_on_c, 1, 55, 127
2, 350920, Note_on_c, 1, 71, 127
2, 351080, Note_off_c, 1, 55, 0
2, 351080, Note_off_c, 1, 71, 0
2, 351120, Note_on_c, 1, 54, 127
2, 351120, Note_on_c, 1, 70, 127
2, 351280, Note_off_c, 1, 54, 0
2, 351280, Note_off_c, 1, 70, 0
2, 351320, Note_on_c, 1, 55, 127
2, 351320, Note_on_c, 1, 71, 127
2, 351480, Note_off_c, 1, 55, 0
2, 351480, Note_off_c, 1, 71, 0
2, 351520, Note_on_c, 1, 52, 127
2, 351520, Note_on_c, 1, 73, 127
2, 351680, Note_off_c, 1, 52, 0
2, 351680, Note_off_c, 1, 73, 0
2, 351720, Note_on_c, 1, 54, 127
2, 351720, Note_on_c, 1, 70, 127
2, 351720, Note_on_c, 1, 74, 127
2, 351760, Note_off_c, 1, 74, 0
2, 351800, Note_on_c, 1, 73, 127
2, 351840, Note_off_c, 1, 73, 0
2, 351840, Note_on_c, 1, 74, 127
2, 351880, Note_off_c, 1, 74, 0
2, 351920, Note_on_c, 1, 73, 127
2, 351960, Note_off_c, 1, 73, 0
2, 352000, Note_on_c, 1, 74, 127
2, 352040, Note_on_c, 1, 73, 127
2, 352040, Note_off_c, 1, 74, 0
2, 352080, Note_off_c, 1, 54, 0
2, 352120, Note_on_c, 1, 42, 127
2, 352240, Note_off_c, 1, 70, 0
2, 352280, Note_off_c, 1, 73, 0
2, 352320, Note_on_c, 1, 71, 127
2, 352480, Note_off_c, 1, 42, 0
2, 352480, Note_off_c, 1, 71, 0
2, 352520, Note_on_c, 1, 35, 127
2, 352520, Note_on_c, 1, 71, 127
2, 352720, Note_on_c, 1, 66, 127
2, 352920, Note_on_c, 1, 62, 127
2, 352960, Note_off_c, 1, 35, 0
2, 353000, Note_on_c, 1, 52, 127
2, 353080, Note_off_c, 1, 52, 0
2, 353120, Note_on_c, 1, 50, 127
2, 353160, Note_off_c, 1, 50, 0
2, 353200, Note_on_c, 1, 49, 127
2, 353280, Note_off_c, 1, 49, 0
2, 353320, Note_on_c, 1, 47, 127
2, 353480, Note_off_c, 1, 47, 0
2, 353520, Note_on_c, 1, 49, 127
2, 353560, Note_off_c, 1, 49, 0
2, 353600, Note_on_c, 1, 45, 127
2, 353640, Note_off_c, 1, 45, 0
2, 353640, Note_off_c, 1, 62, 0
2, 353640, Note_off_c, 1, 71, 0
2, 353680, Note_off_c, 1, 66, 0
2, 353720, Note_on_c, 1, 44, 127
2, 353720, Note_on_c, 1, 71, 127
2, 353840, Note_off_c, 1, 44, 0
2, 353880, Note_on_c, 1, 45, 127
2, 353960, Note_off_c, 1, 45, 0
2, 354000, Note_on_c, 1, 47, 127
2, 354040, Note_off_c, 1, 47, 0
2, 354040, Note_off_c, 1, 71, 0
2, 354080, Note_on_c, 1, 45, 127
2, 354080, Note_on_c, 1, 73, 127
2, 354120, Note_off_c, 1, 73, 0
2, 354160, Note_on_c, 1, 74, 127
2, 354200, Note_off_c, 1, 74, 0
2, 354240, Note_off_c, 1, 45, 0
2, 354240, Note_on_c, 1, 76, 127
2, 354280, Note_on_c, 1, 47, 127
2, 354360, Note_off_c, 1, 47, 0
2, 354400, Note_on_c, 1, 44, 127
2, 354440, Note_off_c, 1, 44, 0
2, 354480, Note_on_c, 1, 42, 127
2, 354640, Note_off_c, 1, 42, 0
2, 354640, Note_off_c, 1, 76, 0
2, 354680, Note_on_c, 1, 44, 127
2, 354680, Note_on_c, 1, 74, 127
2, 354760, Note_off_c, 1, 44, 0
2, 354800, Note_on_c, 1, 40, 127
2, 354840, Note_off_c, 1, 40, 0
2, 354840, Note_off_c, 1, 74, 0
2, 354880, Note_on_c, 1, 45, 127
2, 354880, Note_on_c, 1, 73, 127
2, 355040, Note_off_c, 1, 73, 0
2, 355080, Note_on_c, 1, 74, 127
2, 355240, Note_off_c, 1, 45, 0
2, 355240, Note_off_c, 1, 74, 0
2, 355280, Note_on_c, 1, 47, 127
2, 355280, Note_on_c, 1, 73, 127
2, 355440, Note_off_c, 1, 73, 0
2, 355480, Note_on_c, 1, 71, 127
2, 355640, Note_off_c, 1, 47, 0
2, 355640, Note_off_c, 1, 71, 0
2, 355680, Note_on_c, 1, 49, 127
2, 355680, Note_on_c, 1, 69, 127
2, 355840, Note_off_c, 1, 69, 0
2, 355880, Note_on_c, 1, 68, 127
2, 356040, Note_off_c, 1, 49, 0
2, 356040, Note_off_c, 1, 68, 0
2, 356080, Note_on_c, 1, 50, 127
2, 356080, Note_on_c, 1, 66, 127
2, 356240, Note_off_c, 1, 50, 0
2, 356240, Note_off_c, 1, 66, 0
2, 356280, Note_on_c, 1, 49, 127
2, 356280, Note_on_c, 1, 68, 127
2, 356440, Note_off_c, 1, 49, 0
2, 356440, Note_off_c, 1, 68, 0
2, 356480, Note_on_c, 1, 47, 127
2, 356480, Note_on_c, 1, 69, 127
2, 356520, Note_off_c, 1, 47, 0
2, 356560, Note_on_c, 1, 49, 127
2, 356640, Note_off_c, 1, 49, 0
2, 356640, Note_off_c, 1, 69, 0
2, 356680, Note_on_c, 1, 47, 127
2, 356680, Note_on_c, 1, 73, 127
2, 356840, Note_off_c, 1, 47, 0
2, 356840, Note_off_c, 1, 73, 0
2, 356880, Note_on_c, 1, 45, 127
2, 356880, Note_on_c, 1, 71, 127
2, 357040, Note_off_c, 1, 71, 0
2, 357080, Note_on_c, 1, 69, 127
2, 357240, Note_off_c, 1, 45, 0
2, 357240, Note_off_c, 1, 69, 0
2, 357280, Note_on_c, 1, 52, 127
2, 357280, Note_on_c, 1, 68, 127
2, 357400, Note_off_c, 1, 68, 0
2, 357480, Note_on_c, 1, 66, 127
2, 357600, Note_off_c, 1, 66, 0
2, 357640, Note_on_c, 1, 56, 127
2, 357640, Note_on_c, 1, 64, 127
2, 357800, Note_off_c, 1, 64, 0
2, 357840, Note_on_c, 1, 66, 127
2, 358000, Note_off_c, 1, 56, 0
2, 358000, Note_off_c, 1, 66, 0
2, 358040, Note_on_c, 1, 59, 127
2, 358040, Note_on_c, 1, 68, 127
2, 358200, Note_off_c, 1, 68, 0
2, 358240, Note_on_c, 1, 69, 127
2, 358400, Note_off_c, 1, 52, 0
2, 358400, Note_off_c, 1, 69, 0
2, 358440, Note_on_c, 1, 52, 127
2, 358440, Note_on_c, 1, 71, 127
2, 358600, Note_off_c, 1, 71, 0
2, 358640, Note_on_c, 1, 73, 127
2, 358800, Note_off_c, 1, 52, 0
2, 358800, Note_off_c, 1, 59, 0
2, 358800, Note_off_c, 1, 73, 0
2, 358840, Note_on_c, 1, 57, 127
2, 358840, Note_on_c, 1, 74, 127
2, 359000, Note_off_c, 1, 74, 0
2, 359040, Note_on_c, 1, 73, 127
2, 359200, Note_off_c, 1, 57, 0
2, 359200, Note_off_c, 1, 73, 0
2, 359240, Note_on_c, 1, 59, 127
2, 359240, Note_on_c, 1, 71, 127
2, 359280, Note_off_c, 1, 71, 0
2, 359320, Note_on_c, 1, 73, 127
2, 359360, Note_on_c, 1, 71, 127
2, 359360, Note_off_c, 1, 73, 0
2, 359400, Note_off_c, 1, 71, 0
2, 359440, Note_on_c, 1, 69, 127
2, 359600, Note_off_c, 1, 59, 0
2, 359600, Note_off_c, 1, 69, 0
2, 359640, Note_on_c, 1, 61, 127
2, 359640, Note_on_c, 1, 76, 127
2, 359800, Note_off_c, 1, 76, 0
2, 359840, Note_on_c, 1, 74, 127
2, 360000, Note_off_c, 1, 74, 0
2, 360040, Note_on_c, 1, 64, 127
2, 360040, Note_on_c, 1, 73, 127
2, 360200, Note_off_c, 1, 73, 0
2, 360240, Note_on_c, 1, 74, 127
2, 360400, Note_off_c, 1, 64, 0
2, 360400, Note_off_c, 1, 74, 0
2, 360440, Note_on_c, 1, 69, 127
2, 360440, Note_on_c, 1, 76, 127
2, 360600, Note_off_c, 1, 76, 0
2, 360640, Note_on_c, 1, 78, 127
2, 360800, Note_off_c, 1, 61, 0
2, 360800, Note_off_c, 1, 69, 0
2, 360800, Note_off_c, 1, 78, 0
2, 360840, Note_on_c, 1, 57, 127
2, 360840, Note_on_c, 1, 61, 127
2, 360840, Note_on_c, 1, 79, 127
2, 360960, Note_off_c, 1, 79, 0
2, 361040, Note_on_c, 1, 78, 127
2, 361160, Note_off_c, 1, 57, 0
2, 361160, Note_off_c, 1, 61, 0
2, 361160, Note_off_c, 1, 78, 0
2, 361200, Note_on_c, 1, 59, 127
2, 361200, Note_on_c, 1, 62, 127
2, 361200, Note_on_c, 1, 79, 127
2, 361360, Note_off_c, 1, 79, 0
2, 361400, Note_on_c, 1, 83, 127
2, 361560, Note_off_c, 1, 59, 0
2, 361560, Note_off_c, 1, 62, 0
2, 361560, Note_off_c, 1, 83, 0
2, 361600, Note_on_c, 1, 61, 127
2, 361600, Note_on_c, 1, 64, 127
2, 361600, Note_on_c, 1, 81, 127
2, 361760, Note_off_c, 1, 81, 0
2, 361800, Note_on_c, 1, 79, 127
2, 361960, Note_off_c, 1, 61, 0
2, 361960, Note_off_c, 1, 64, 0
2, 361960, Note_off_c, 1, 79, 0
2, 362000, Note_on_c, 1, 62, 127
2, 362000, Note_on_c, 1, 78, 127
2, 362160, Note_off_c, 1, 78, 0
2, 362200, Note_on_c, 1, 76, 127
2, 362360, Note_off_c, 1, 62, 0
2, 362360, Note_off_c, 1, 76, 0
2, 362400, Note_on_c, 1, 61, 127
2, 362400, Note_on_c, 1, 78, 127
2, 362560, Note_off_c, 1, 61, 0
2, 362560, Note_off_c, 1, 78, 0
2, 362600, Note_on_c, 1, 59, 127
2, 362600, Note_on_c, 1, 80, 127
2, 362760, Note_off_c, 1, 59, 0
2, 362760, Note_off_c, 1, 80, 0
2, 362800, Note_on_c, 1, 61, 127
2, 362800, Note_on_c, 1, 81, 127
2, 362960, Note_off_c, 1, 81, 0
2, 363000, Note_on_c, 1, 74, 127
2, 363160, Note_off_c, 1, 61, 0
2, 363160, Note_off_c, 1, 74, 0
2, 363200, Note_on_c, 1, 62, 127
2, 363200, Note_on_c, 1, 73, 127
2, 363360, Note_off_c, 1, 73, 0
2, 363400, Note_on_c, 1, 71, 127
2, 363560, Note_off_c, 1, 62, 0
2, 363560, Note_off_c, 1, 71, 0
2, 363600, Note_on_c, 1, 64, 127
2, 363600, Note_on_c, 1, 68, 127
2, 363600, Note_on_c, 1, 73, 127
2, 363680, Note_off_c, 1, 73, 0
2, 363720, Note_on_c, 1, 71, 127
2, 363760, Note_off_c, 1, 71, 0
2, 363800, Note_on_c, 1, 73, 127
2, 363840, Note_on_c, 1, 71, 127
2, 363840, Note_off_c, 1, 73, 0
2, 363880, Note_off_c, 1, 71, 0
2, 363920, Note_on_c, 1, 73, 127
2, 363960, Note_off_c, 1, 64, 0
2, 363960, Note_off_c, 1, 73, 0
2, 364000, Note_on_c, 1, 52, 127
2, 364000, Note_on_c, 1, 71, 127
2, 364040, Note_off_c, 1, 71, 0
2, 364040, Note_on_c, 1, 73, 127
2, 364080, Note_off_c, 1, 73, 0
2, 364120, Note_off_c, 1, 68, 0
2, 364120, Note_on_c, 1, 71, 127
2, 364160, Note_off_c, 1, 71, 0
2, 364200, Note_on_c, 1, 69, 127
2, 364360, Note_off_c, 1, 52, 0
2, 364360, Note_off_c, 1, 69, 0
2, 364400, Note_on_c, 1, 45, 127
2, 364400, Note_on_c, 1, 69, 127
2, 364600, Note_on_c, 1, 64, 127
2, 364800, Note_on_c, 1, 61, 127
2, 364960, Note_on_c, 1, 56, 127
2, 365120, Note_off_c, 1, 56, 0
2, 365160, Note_on_c, 1, 57, 127
2, 365320, Note_off_c, 1, 45, 0
2, 365360, Note_on_c, 1, 40, 127
2, 365520, Note_off_c, 1, 40, 0
2, 365560, Note_on_c, 1, 33, 127
2, 366320, Note_off_c, 1, 61, 0
2, 366320, Note_off_c, 1, 64, 0
2, 366320, Note_off_c, 1, 69, 0
2, 366520, Note_off_c, 1, 57, 0
2, 366560, Note_on_c, 1, 69, 127
2, 366720, Note_off_c, 1, 33, 0
2, 366720, Note_off_c, 1, 69, 0
2, 366760, Note_on_c, 1, 57, 127
2, 366760, Note_on_c, 1, 69, 127
2, 366960, Note_on_c, 1, 64, 127
2, 367160, Note_on_c, 1, 61, 127
2, 367320, Note_off_c, 1, 57, 0
2, 367360, Note_on_c, 1, 45, 127
2, 367520, Note_off_c, 1, 45, 0
2, 367560, Note_on_c, 1, 47, 127
2, 367720, Note_off_c, 1, 47, 0
2, 367760, Note_on_c, 1, 50, 127
2, 367920, Note_off_c, 1, 50, 0
2, 367920, Note_off_c, 1, 61, 0
2, 367920, Note_off_c, 1, 64, 0
2, 367920, Note_off_c, 1, 69, 0
2, 367960, Note_on_c, 1, 49, 127
2, 367960, Note_on_c, 1, 64, 127
2, 368120, Note_off_c, 1, 49, 0
2, 368160, Note_on_c, 1, 52, 127
2, 368320, Note_off_c, 1, 52, 0
2, 368320, Note_off_c, 1, 64, 0
2, 368360, Note_on_c, 1, 50, 127
2, 368360, Note_on_c, 1, 64, 127
2, 368440, Note_off_c, 1, 64, 0
2, 368480, Note_on_c, 1, 66, 127
2, 368520, Note_off_c, 1, 50, 0
2, 368520, Note_off_c, 1, 66, 0
2, 368560, Note_on_c, 1, 49, 127
2, 368560, Note_on_c, 1, 64, 127
2, 368600, Note_off_c, 1, 64, 0
2, 368600, Note_on_c, 1, 66, 127
2, 368680, Note_off_c, 1, 49, 0
2, 368760, Note_on_c, 1, 47, 127
2, 368880, Note_off_c, 1, 47, 0
2, 368880, Note_off_c, 1, 66, 0
2, 368920, Note_on_c, 1, 45, 127
2, 368920, Note_on_c, 1, 67, 127
2, 369080, Note_off_c, 1, 45, 0
2, 369080, Note_off_c, 1, 67, 0
2, 369120, Note_on_c, 1, 50, 127
2, 369120, Note_on_c, 1, 67, 127
2, 369240, Note_off_c, 1, 67, 0
2, 369280, Note_off_c, 1, 50, 0
2, 369280, Note_on_c, 1, 66, 127
2, 369320, Note_on_c, 1, 52, 127
2, 369320, Note_off_c, 1, 66, 0
2, 369320, Note_on_c, 1, 67, 127
2, 369360, Note_off_c, 1, 67, 0
2, 369400, Note_on_c, 1, 66, 127
2, 369440, Note_off_c, 1, 66, 0
2, 369480, Note_off_c, 1, 52, 0
2, 369480, Note_on_c, 1, 67, 127
2, 369520, Note_on_c, 1, 50, 127
2, 369520, Note_on_c, 1, 66, 127
2, 369520, Note_off_c, 1, 67, 0
2, 369680, Note_off_c, 1, 50, 0
2, 369680, Note_off_c, 1, 66, 0
2, 369720, Note_on_c, 1, 49, 127
2, 369720, Note_on_c, 1, 69, 127
2, 369880, Note_off_c, 1, 49, 0
2, 369880, Note_off_c, 1, 69, 0
2, 369920, Note_on_c, 1, 47, 127
2, 369920, Note_on_c, 1, 74, 127
2, 370080, Note_off_c, 1, 47, 0
2, 370120, Note_on_c, 1, 45, 127
2, 370120, Note_on_c, 1, 73, 127
2, 370280, Note_off_c, 1, 45, 0
2, 370280, Note_off_c, 1, 73, 0
2, 370320, Note_on_c, 1, 44, 127
2, 370320, Note_on_c, 1, 71, 127
2, 370480, Note_off_c, 1, 44, 0
2, 370480, Note_off_c, 1, 74, 0
2, 370520, Note_on_c, 1, 40, 127
2, 370520, Note_on_c, 1, 76, 127
2, 370680, Note_off_c, 1, 40, 0
2, 370680, Note_off_c, 1, 76, 0
2, 370720, Note_on_c, 1, 45, 127
2, 370720, Note_on_c, 1, 74, 127
2, 370800, Note_off_c, 1, 74, 0
2, 370840, Note_on_c, 1, 73, 127
2, 370880, Note_off_c, 1, 45, 0
2, 370880, Note_off_c, 1, 73, 0
2, 370920, Note_on_c, 1, 40, 127
2, 370920, Note_on_c, 1, 74, 127
2, 370960, Note_off_c, 1, 74, 0
2, 371000, Note_on_c, 1, 73, 127
2, 371040, Note_off_c, 1, 73, 0
2, 371040, Note_on_c, 1, 74, 127
2, 371080, Note_off_c, 1, 40, 0
2, 371080, Note_off_c, 1, 71, 0
2, 371080, Note_off_c, 1, 74, 0
2, 371120, Note_on_c, 1, 37, 127
2, 371120, Note_on_c, 1, 69, 127
2, 371120, Note_on_c, 1, 73, 127
2, 371280, Note_off_c, 1, 37, 0
2, 371280, Note_off_c, 1, 69, 0
2, 371280, Note_off_c, 1, 73, 0
2, 371320, Note_on_c, 1, 33, 127
2, 371320, Note_on_c, 1, 71, 127
2, 371480, Note_off_c, 1, 33, 0
2, 371480, Note_off_c, 1, 71, 0
2, 371520, Note_on_c, 1, 40, 127
2, 371520, Note_on_c, 1, 71, 127
2, 371720, Note_on_c, 1, 68, 127
2, 371920, Note_on_c, 1, 64, 127
2, 372080, Note_off_c, 1, 40, 0
2, 372120, Note_on_c, 1, 52, 127
2, 372280, Note_off_c, 1, 52, 0
2, 372320, Note_on_c, 1, 54, 127
2, 372440, Note_off_c, 1, 54, 0
2, 372520, Note_on_c, 1, 57, 127
2, 372640, Note_off_c, 1, 57, 0
2, 372640, Note_off_c, 1, 64, 0
2, 372640, Note_off_c, 1, 68, 0
2, 372640, Note_off_c, 1, 71, 0
2, 372680, Note_on_c, 1, 56, 127
2, 372680, Note_on_c, 1, 64, 127
2, 372800, Note_on_c, 1, 71, 127
2, 372840, Note_off_c, 1, 56, 0
2, 372880, Note_on_c, 1, 59, 127
2, 372880, Note_on_c, 1, 76, 127
2, 373040, Note_off_c, 1, 59, 0
2, 373040, Note_off_c, 1, 64, 0
2, 373040, Note_off_c, 1, 71, 0
2, 373040, Note_off_c, 1, 76, 0
2, 373080, Note_on_c, 1, 57, 127
2, 373080, Note_on_c, 1, 71, 127
2, 373080, Note_on_c, 1, 76, 127
2, 373120, Note_off_c, 1, 76, 0
2, 373160, Note_on_c, 1, 74, 127
2, 373200, Note_off_c, 1, 74, 0
2, 373240, Note_off_c, 1, 57, 0
2, 373240, Note_on_c, 1, 73, 127
2, 373280, Note_on_c, 1, 56, 127
2, 373280, Note_off_c, 1, 73, 0
2, 373280, Note_on_c, 1, 74, 127
2, 373320, Note_off_c, 1, 74, 0
2, 373360, Note_on_c, 1, 76, 127
2, 373400, Note_off_c, 1, 76, 0
2, 373440, Note_off_c, 1, 56, 0
2, 373440, Note_on_c, 1, 74, 127
2, 373480, Note_on_c, 1, 54, 127
2, 373480, Note_off_c, 1, 74, 0
2, 373480, Note_on_c, 1, 76, 127
2, 373520, Note_off_c, 1, 76, 0
2, 373560, Note_on_c, 1, 74, 127
2, 373600, Note_off_c, 1, 74, 0
2, 373640, Note_off_c, 1, 54, 0
2, 373640, Note_on_c, 1, 73, 127
2, 373680, Note_on_c, 1, 52, 127
2, 373680, Note_off_c, 1, 73, 0
2, 373680, Note_on_c, 1, 74, 127
2, 373720, Note_off_c, 1, 74, 0
2, 373760, Note_on_c, 1, 76, 127
2, 373840, Note_off_c, 1, 52, 0
2, 373840, Note_off_c, 1, 71, 0
2, 373840, Note_off_c, 1, 76, 0
2, 373880, Note_on_c, 1, 57, 127
2, 373880, Note_on_c, 1, 69, 127
2, 373880, Note_on_c, 1, 74, 127
2, 373920, Note_off_c, 1, 74, 0
2, 373960, Note_on_c, 1, 73, 127
2, 374000, Note_off_c, 1, 73, 0
2, 374000, Note_on_c, 1, 74, 127
2, 374040, Note_off_c, 1, 57, 0
2, 374040, Note_off_c, 1, 74, 0
2, 374080, Note_on_c, 1, 59, 127
2, 374080, Note_on_c, 1, 73, 127
2, 374240, Note_off_c, 1, 59, 0
2, 374280, Note_on_c, 1, 57, 127
2, 374440, Note_off_c, 1, 57, 0
2, 374440, Note_off_c, 1, 69, 0
2, 374440, Note_off_c, 1, 73, 0
2, 374480, Note_on_c, 1, 56, 127
2, 374480, Note_on_c, 1, 71, 127
2, 374640, Note_off_c, 1, 56, 0
2, 374640, Note_off_c, 1, 71, 0
2, 374680, Note_on_c, 1, 54, 127
2, 374680, Note_on_c, 1, 69, 127
2, 374840, Note_off_c, 1, 54, 0
2, 374840, Note_off_c, 1, 69, 0
2, 374880, Note_on_c, 1, 56, 127
2, 374880, Note_on_c, 1, 73, 127
2, 375040, Note_off_c, 1, 56, 0
2, 375040, Note_off_c, 1, 73, 0
2, 375080, Note_on_c, 1, 57, 127
2, 375080, Note_on_c, 1, 78, 127
2, 375240, Note_off_c, 1, 57, 0
2, 375280, Note_on_c, 1, 54, 127
2, 375440, Note_off_c, 1, 54, 0
2, 375440, Note_off_c, 1, 78, 0
2, 375480, Note_on_c, 1, 56, 127
2, 375480, Note_on_c, 1, 78, 127
2, 375520, Note_on_c, 1, 76, 127
2, 375520, Note_off_c, 1, 78, 0
2, 375560, Note_off_c, 1, 76, 0
2, 375600, Note_on_c, 1, 75, 127
2, 375640, Note_off_c, 1, 56, 0
2, 375640, Note_off_c, 1, 75, 0
2, 375680, Note_on_c, 1, 59, 127
2, 375680, Note_on_c, 1, 76, 127
2, 375720, Note_off_c, 1, 76, 0
2, 375720, Note_on_c, 1, 78, 127
2, 375760, Note_off_c, 1, 78, 0
2, 375800, Note_off_c, 1, 59, 0
2, 375800, Note_on_c, 1, 76, 127
2, 375840, Note_off_c, 1, 76, 0
2, 375880, Note_on_c, 1, 58, 127
2, 375880, Note_on_c, 1, 78, 127
2, 375920, Note_on_c, 1, 76, 127
2, 375920, Note_off_c, 1, 78, 0
2, 375960, Note_off_c, 1, 76, 0
2, 376000, Note_off_c, 1, 58, 0
2, 376000, Note_on_c, 1, 75, 127
2, 376040, Note_on_c, 1, 61, 127
2, 376040, Note_off_c, 1, 75, 0
2, 376040, Note_on_c, 1, 76, 127
2, 376080, Note_off_c, 1, 76, 0
2, 376120, Note_on_c, 1, 78, 127
2, 376200, Note_off_c, 1, 61, 0
2, 376200, Note_off_c, 1, 78, 0
2, 376240, Note_on_c, 1, 59, 127
2, 376240, Note_on_c, 1, 76, 127
2, 376280, Note_off_c, 1, 76, 0
2, 376320, Note_on_c, 1, 75, 127
2, 376360, Note_off_c, 1, 75, 0
2, 376400, Note_off_c, 1, 59, 0
2, 376400, Note_on_c, 1, 76, 127
2, 376440, Note_on_c, 1, 61, 127
2, 376440, Note_on_c, 1, 75, 127
2, 376440, Note_off_c, 1, 76, 0
2, 376600, Note_off_c, 1, 61, 0
2, 376640, Note_on_c, 1, 59, 127
2, 376800, Note_off_c, 1, 59, 0
2, 376800, Note_off_c, 1, 75, 0
2, 376840, Note_on_c, 1, 57, 127
2, 376840, Note_on_c, 1, 73, 127
2, 377000, Note_off_c, 1, 57, 0
2, 377000, Note_off_c, 1, 73, 0
2, 377040, Note_on_c, 1, 56, 127
2, 377040, Note_on_c, 1, 71, 127
2, 377200, Note_off_c, 1, 56, 0
2, 377200, Note_off_c, 1, 71, 0
2, 377240, Note_on_c, 1, 57, 127
2, 377240, Note_on_c, 1, 78, 127
2, 377400, Note_off_c, 1, 57, 0
2, 377400, Note_off_c, 1, 78, 0
2, 377440, Note_on_c, 1, 59, 127
2, 377440, Note_on_c, 1, 83, 127
2, 377600, Note_off_c, 1, 59, 0
2, 377640, Note_on_c, 1, 56, 127
2, 377800, Note_off_c, 1, 56, 0
2, 377800, Note_off_c, 1, 83, 0
2, 377840, Note_on_c, 1, 61, 127
2, 377840, Note_on_c, 1, 83, 127
2, 377880, Note_off_c, 1, 83, 0
2, 377920, Note_on_c, 1, 81, 127
2, 377960, Note_on_c, 1, 80, 127
2, 377960, Note_off_c, 1, 81, 0
2, 378000, Note_off_c, 1, 61, 0
2, 378000, Note_off_c, 1, 80, 0
2, 378040, Note_on_c, 1, 64, 127
2, 378040, Note_on_c, 1, 81, 127
2, 378080, Note_off_c, 1, 81, 0
2, 378120, Note_on_c, 1, 83, 127
2, 378160, Note_on_c, 1, 81, 127
2, 378160, Note_off_c, 1, 83, 0
2, 378200, Note_off_c, 1, 64, 0
2, 378200, Note_off_c, 1, 81, 0
2, 378240, Note_on_c, 1, 63, 127
2, 378240, Note_on_c, 1, 83, 127
2, 378280, Note_on_c, 1, 81, 127
2, 378280, Note_off_c, 1, 83, 0
2, 378320, Note_off_c, 1, 81, 0
2, 378360, Note_on_c, 1, 80, 127
2, 378400, Note_off_c, 1, 63, 0
2, 378400, Note_off_c, 1, 80, 0
2, 378440, Note_on_c, 1, 66, 127
2, 378440, Note_on_c, 1, 81, 127
2, 378480, Note_off_c, 1, 81, 0
2, 378480, Note_on_c, 1, 83, 127
2, 378600, Note_off_c, 1, 66, 0
2, 378600, Note_off_c, 1, 83, 0
2, 378640, Note_on_c, 1, 64, 127
2, 378640, Note_on_c, 1, 81, 127
2, 378680, Note_on_c, 1, 80, 127
2, 378680, Note_off_c, 1, 81, 0
2, 378720, Note_off_c, 1, 80, 0
2, 378760, Note_on_c, 1, 81, 127
2, 378800, Note_off_c, 1, 64, 0
2, 378800, Note_off_c, 1, 81, 0
2, 378840, Note_on_c, 1, 63, 127
2, 378840, Note_on_c, 1, 80, 127
2, 378960, Note_off_c, 1, 63, 0
2, 379040, Note_on_c, 1, 64, 127
2, 379160, Note_off_c, 1, 64, 0
2, 379160, Note_off_c, 1, 80, 0
2, 379200, Note_on_c, 1, 66, 127
2, 379200, Note_on_c, 1, 81, 127
2, 379360, Note_off_c, 1, 66, 0
2, 379360, Note_off_c, 1, 81, 0
2, 379400, Note_on_c, 1, 68, 127
2, 379400, Note_on_c, 1, 83, 127
2, 379560, Note_off_c, 1, 68, 0
2, 379560, Note_off_c, 1, 83, 0
2, 379600, Note_on_c, 1, 64, 127
2, 379600, Note_on_c, 1, 80, 127
2, 379760, Note_off_c, 1, 64, 0
2, 379760, Note_off_c, 1, 80, 0
2, 379800, Note_on_c, 1, 66, 127
2, 379800, Note_on_c, 1, 81, 127
2, 379960, Note_off_c, 1, 66, 0
2, 379960, Note_off_c, 1, 81, 0
2, 380000, Note_on_c, 1, 68, 127
2, 380000, Note_on_c, 1, 83, 127
2, 380160, Note_off_c, 1, 68, 0
2, 380160, Note_off_c, 1, 83, 0
2, 380200, Note_on_c, 1, 69, 127
2, 380200, Note_on_c, 1, 74, 127
2, 380240, Note_off_c, 1, 74, 0
2, 380280, Note_on_c, 1, 73, 127
2, 380320, Note_off_c, 1, 73, 0
2, 380360, Note_off_c, 1, 69, 0
2, 380360, Note_on_c, 1, 74, 127
2, 380400, Note_on_c, 1, 68, 127
2, 380400, Note_on_c, 1, 73, 127
2, 380400, Note_off_c, 1, 74, 0
2, 380560, Note_off_c, 1, 68, 0
2, 380600, Note_on_c, 1, 69, 127
2, 380760, Note_off_c, 1, 69, 0
2, 380760, Note_off_c, 1, 73, 0
2, 380800, Note_on_c, 1, 66, 127
2, 380800, Note_on_c, 1, 81, 127
2, 380960, Note_off_c, 1, 66, 0
2, 380960, Note_off_c, 1, 81, 0
2, 381000, Note_on_c, 1, 71, 127
2, 381000, Note_on_c, 1, 76, 127
2, 381040, Note_off_c, 1, 76, 0
2, 381080, Note_on_c, 1, 75, 127
2, 381120, Note_off_c, 1, 75, 0
2, 381120, Note_on_c, 1, 76, 127
2, 381160, Note_off_c, 1, 76, 0
2, 381200, Note_on_c, 1, 47, 127
2, 381200, Note_on_c, 1, 75, 127
2, 381360, Note_off_c, 1, 47, 0
2, 381400, Note_on_c, 1, 49, 127
2, 381520, Note_off_c, 1, 71, 0
2, 381560, Note_off_c, 1, 49, 0
2, 381560, Note_off_c, 1, 75, 0
2, 381600, Note_on_c, 1, 51, 127
2, 381600, Note_on_c, 1, 73, 127
2, 381760, Note_off_c, 1, 51, 0
2, 381760, Note_off_c, 1, 73, 0
2, 381800, Note_on_c, 1, 52, 127
2, 381800, Note_on_c, 1, 71, 127
2, 381960, Note_off_c, 1, 52, 0
2, 381960, Note_off_c, 1, 71, 0
2, 382000, Note_on_c, 1, 54, 127
2, 382000, Note_on_c, 1, 69, 127
2, 382160, Note_off_c, 1, 54, 0
2, 382160, Note_off_c, 1, 69, 0
2, 382200, Note_on_c, 1, 56, 127
2, 382200, Note_on_c, 1, 68, 127
2, 382360, Note_off_c, 1, 56, 0
2, 382360, Note_off_c, 1, 68, 0
2, 382400, Note_on_c, 1, 57, 127
2, 382400, Note_on_c, 1, 76, 127
2, 382560, Note_off_c, 1, 57, 0
2, 382560, Note_off_c, 1, 76, 0
2, 382600, Note_on_c, 1, 59, 127
2, 382600, Note_on_c, 1, 63, 127
2, 382600, Note_on_c, 1, 68, 127
2, 382680, Note_off_c, 1, 68, 0
2, 382720, Note_off_c, 1, 59, 0
2, 382720, Note_on_c, 1, 66, 127
2, 382760, Note_off_c, 1, 66, 0
2, 382800, Note_on_c, 1, 57, 127
2, 382800, Note_on_c, 1, 68, 127
2, 382840, Note_on_c, 1, 66, 127
2, 382840, Note_off_c, 1, 68, 0
2, 382880, Note_off_c, 1, 66, 0
2, 382920, Note_off_c, 1, 57, 0
2, 382920, Note_on_c, 1, 68, 127
2, 382960, Note_on_c, 1, 59, 127
2, 382960, Note_on_c, 1, 66, 127
2, 382960, Note_off_c, 1, 68, 0
2, 383120, Note_off_c, 1, 59, 0
2, 383120, Note_off_c, 1, 63, 0
2, 383120, Note_off_c, 1, 66, 0
2, 383160, Note_on_c, 1, 47, 127
2, 383160, Note_on_c, 1, 64, 127
2, 383320, Note_off_c, 1, 47, 0
2, 383320, Note_off_c, 1, 64, 0
2, 383360, Note_on_c, 1, 52, 127
2, 383360, Note_on_c, 1, 64, 127
2, 383560, Note_on_c, 1, 59, 127
2, 383760, Note_on_c, 1, 56, 127
2, 383920, Note_off_c, 1, 52, 0
2, 383960, Note_on_c, 1, 47, 127
2, 384120, Note_off_c, 1, 47, 0
2, 384160, Note_on_c, 1, 40, 127
2, 384360, Note_on_c, 1, 47, 127
2, 384560, Note_on_c, 1, 52, 127
2, 385120, Note_off_c, 1, 59, 0
2, 385320, Note_off_c, 1, 40, 0
2, 385320, Note_off_c, 1, 47, 0
2, 385320, Note_off_c, 1, 64, 0
2, 385400, Note_on_c, 1, 71, 127
2, 385520, Note_off_c, 1, 52, 0
2, 385520, Note_off_c, 1, 56, 0
2, 385680, Note_off_c, 1, 71, 0
2, 385760, Note_on_c, 1, 40, 127
2, 385760, Note_on_c, 1, 71, 127
2, 385960, Note_on_c, 1, 68, 127
2, 386160, Note_on_c, 1, 64, 127
2, 386320, Note_off_c, 1, 40, 0
2, 386360, Note_on_c, 1, 47, 127
2, 386520, Note_off_c, 1, 47, 0
2, 386560, Note_on_c, 1, 49, 127
2, 386680, Note_off_c, 1, 49, 0
2, 386760, Note_on_c, 1, 52, 127
2, 386880, Note_off_c, 1, 52, 0
2, 386880, Note_off_c, 1, 64, 0
2, 386880, Note_off_c, 1, 68, 0
2, 386880, Note_off_c, 1, 71, 0
2, 386920, Note_on_c, 1, 50, 127
2, 386920, Note_on_c, 1, 64, 127
2, 386920, Note_on_c, 1, 68, 127
2, 387080, Note_off_c, 1, 50, 0
2, 387120, Note_on_c, 1, 54, 127
2, 387280, Note_off_c, 1, 54, 0
2, 387280, Note_off_c, 1, 64, 0
2, 387280, Note_off_c, 1, 68, 0
2, 387320, Note_on_c, 1, 52, 127
2, 387320, Note_on_c, 1, 66, 127
2, 387320, Note_on_c, 1, 68, 127
2, 387440, Note_off_c, 1, 68, 0
2, 387480, Note_off_c, 1, 52, 0
2, 387480, Note_on_c, 1, 69, 127
2, 387520, Note_on_c, 1, 50, 127
2, 387520, Note_on_c, 1, 68, 127
2, 387520, Note_off_c, 1, 69, 0
2, 387560, Note_off_c, 1, 68, 0
2, 387600, Note_on_c, 1, 69, 127
2, 387680, Note_off_c, 1, 50, 0
2, 387720, Note_on_c, 1, 49, 127
2, 387880, Note_off_c, 1, 49, 0
2, 387880, Note_off_c, 1, 66, 0
2, 387880, Note_off_c, 1, 69, 0
2, 387920, Note_on_c, 1, 47, 127
2, 387920, Note_on_c, 1, 68, 127
2, 387920, Note_on_c, 1, 71, 127
2, 388080, Note_off_c, 1, 47, 0
2, 388080, Note_off_c, 1, 68, 0
2, 388080, Note_off_c, 1, 71, 0
2, 388120, Note_on_c, 1, 45, 127
2, 388120, Note_on_c, 1, 69, 127
2, 388120, Note_on_c, 1, 73, 127
2, 388280, Note_off_c, 1, 45, 0
2, 388320, Note_on_c, 1, 57, 127
2, 388480, Note_off_c, 1, 57, 0
2, 388520, Note_on_c, 1, 59, 127
2, 388680, Note_off_c, 1, 59, 0
2, 388680, Note_off_c, 1, 69, 0
2, 388680, Note_off_c, 1, 73, 0
2, 388720, Note_on_c, 1, 61, 127
2, 388720, Note_on_c, 1, 69, 127
2, 388880, Note_off_c, 1, 61, 0
2, 388920, Note_on_c, 1, 62, 127
2, 388920, Note_on_c, 1, 78, 127
2, 389080, Note_off_c, 1, 62, 0
2, 389120, Note_on_c, 1, 61, 127
2, 389240, Note_off_c, 1, 69, 0
2, 389280, Note_off_c, 1, 61, 0
2, 389320, Note_on_c, 1, 59, 127
2, 389320, Note_on_c, 1, 74, 127
2, 389440, Note_off_c, 1, 78, 0
2, 389480, Note_off_c, 1, 59, 0
2, 389520, Note_on_c, 1, 57, 127
2, 389520, Note_on_c, 1, 79, 127
2, 389680, Note_off_c, 1, 57, 0
2, 389680, Note_off_c, 1, 79, 0
2, 389720, Note_on_c, 1, 56, 127
2, 389720, Note_on_c, 1, 78, 127
2, 389800, Note_off_c, 1, 78, 0
2, 389840, Note_off_c, 1, 74, 0
2, 389840, Note_on_c, 1, 76, 127
2, 389880, Note_off_c, 1, 56, 0
2, 389880, Note_off_c, 1, 76, 0
2, 389920, Note_on_c, 1, 59, 127
2, 389920, Note_on_c, 1, 78, 127
2, 389960, Note_on_c, 1, 76, 127
2, 389960, Note_off_c, 1, 78, 0
2, 390000, Note_off_c, 1, 76, 0
2, 390040, Note_on_c, 1, 78, 127
2, 390080, Note_off_c, 1, 59, 0
2, 390080, Note_off_c, 1, 78, 0
2, 390120, Note_on_c, 1, 58, 127
2, 390120, Note_on_c, 1, 73, 127
2, 390120, Note_on_c, 1, 76, 127
2, 390280, Note_off_c, 1, 58, 0
2, 390280, Note_off_c, 1, 73, 0
2, 390280, Note_off_c, 1, 76, 0
2, 390320, Note_on_c, 1, 61, 127
2, 390320, Note_on_c, 1, 74, 127
2, 390360, Note_off_c, 1, 74, 0
2, 390400, Note_on_c, 1, 73, 127
2, 390480, Note_off_c, 1, 61, 0
2, 390480, Note_off_c, 1, 73, 0
2, 390520, Note_on_c, 1, 59, 127
2, 390520, Note_on_c, 1, 74, 127
2, 390640, Note_off_c, 1, 59, 0
2, 390720, Note_on_c, 1, 58, 127
2, 390720, Note_on_c, 1, 71, 127
2, 390840, Note_off_c, 1, 58, 0
2, 390880, Note_on_c, 1, 59, 127
2, 390880, Note_on_c, 1, 66, 127
2, 391040, Note_off_c, 1, 59, 0
2, 391080, Note_on_c, 1, 62, 127
2, 391240, Note_off_c, 1, 62, 0
2, 391280, Note_on_c, 1, 61, 127
2, 391440, Note_off_c, 1, 61, 0
2, 391480, Note_on_c, 1, 64, 127
2, 391640, Note_off_c, 1, 64, 0
2, 391640, Note_off_c, 1, 66, 0
2, 391640, Note_off_c, 1, 71, 0
2, 391640, Note_off_c, 1, 74, 0
2, 391680, Note_on_c, 1, 62, 127
2, 391680, Note_on_c, 1, 71, 127
2, 391760, Note_on_c, 1, 78, 127
2, 391840, Note_off_c, 1, 62, 0
2, 391880, Note_on_c, 1, 66, 127
2, 391880, Note_on_c, 1, 83, 127
2, 392040, Note_off_c, 1, 66, 0
2, 392040, Note_off_c, 1, 71, 0
2, 392040, Note_off_c, 1, 78, 0
2, 392040, Note_off_c, 1, 83, 0
2, 392080, Note_on_c, 1, 64, 127
2, 392080, Note_on_c, 1, 78, 127
2, 392080, Note_on_c, 1, 83, 127
2, 392120, Note_off_c, 1, 83, 0
2, 392160, Note_on_c, 1, 81, 127
2, 392200, Note_on_c, 1, 80, 127
2, 392200, Note_off_c, 1, 81, 0
2, 392240, Note_off_c, 1, 64, 0
2, 392240, Note_off_c, 1, 80, 0
2, 392280, Note_on_c, 1, 63, 127
2, 392280, Note_on_c, 1, 81, 127
2, 392320, Note_off_c, 1, 81, 0
2, 392360, Note_on_c, 1, 83, 127
2, 392400, Note_on_c, 1, 81, 127
2, 392400, Note_off_c, 1, 83, 0
2, 392440, Note_off_c, 1, 63, 0
2, 392440, Note_off_c, 1, 81, 0
2, 392480, Note_on_c, 1, 61, 127
2, 392480, Note_on_c, 1, 83, 127
2, 392520, Note_off_c, 1, 83, 0
2, 392560, Note_on_c, 1, 81, 127
2, 392600, Note_on_c, 1, 80, 127
2, 392600, Note_off_c, 1, 81, 0
2, 392640, Note_off_c, 1, 61, 0
2, 392640, Note_off_c, 1, 80, 0
2, 392680, Note_on_c, 1, 59, 127
2, 392680, Note_on_c, 1, 81, 127
2, 392720, Note_off_c, 1, 81, 0
2, 392760, Note_on_c, 1, 83, 127
2, 392840, Note_off_c, 1, 59, 0
2, 392840, Note_off_c, 1, 78, 0
2, 392840, Note_off_c, 1, 83, 0
2, 392880, Note_on_c, 1, 64, 127
2, 392880, Note_on_c, 1, 76, 127
2, 392880, Note_on_c, 1, 81, 127
2, 392960, Note_off_c, 1, 81, 0
2, 393000, Note_on_c, 1, 79, 127
2, 393040, Note_off_c, 1, 64, 0
2, 393040, Note_off_c, 1, 79, 0
2, 393080, Note_on_c, 1, 66, 127
2, 393080, Note_on_c, 1, 81, 127
2, 393120, Note_off_c, 1, 81, 0
2, 393160, Note_on_c, 1, 79, 127
2, 393200, Note_off_c, 1, 79, 0
2, 393200, Note_on_c, 1, 81, 127
2, 393240, Note_off_c, 1, 66, 0
2, 393240, Note_off_c, 1, 81, 0
2, 393280, Note_on_c, 1, 64, 127
2, 393280, Note_on_c, 1, 79, 127
2, 393400, Note_off_c, 1, 76, 0
2, 393440, Note_off_c, 1, 64, 0
2, 393440, Note_off_c, 1, 79, 0
2, 393480, Note_on_c, 1, 62, 127
2, 393480, Note_on_c, 1, 78, 127
2, 393640, Note_off_c, 1, 62, 0
2, 393640, Note_off_c, 1, 78, 0
2, 393680, Note_on_c, 1, 61, 127
2, 393680, Note_on_c, 1, 76, 127
2, 393840, Note_off_c, 1, 61, 0
2, 393840, Note_off_c, 1, 76, 0
2, 393880, Note_on_c, 1, 59, 127
2, 393880, Note_on_c, 1, 79, 127
2, 394040, Note_off_c, 1, 59, 0
2, 394040, Note_off_c, 1, 79, 0
2, 394080, Note_on_c, 1, 57, 127
2, 394080, Note_on_c, 1, 62, 127
2, 394080, Note_on_c, 1, 71, 127
2, 394240, Note_off_c, 1, 57, 0
2, 394280, Note_on_c, 1, 55, 127
2, 394400, Note_off_c, 1, 55, 0
2, 394400, Note_off_c, 1, 62, 0
2, 394400, Note_off_c, 1, 71, 0
2, 394480, Note_on_c, 1, 54, 127
2, 394480, Note_on_c, 1, 64, 127
2, 394520, Note_on_c, 1, 67, 127
2, 394560, Note_on_c, 1, 69, 127
2, 394600, Note_off_c, 1, 54, 0
2, 394600, Note_on_c, 1, 73, 127
2, 394680, Note_on_c, 1, 52, 127
2, 394800, Note_off_c, 1, 52, 0
2, 394840, Note_on_c, 1, 54, 127
2, 394960, Note_off_c, 1, 69, 0
2, 395000, Note_off_c, 1, 54, 0
2, 395000, Note_off_c, 1, 64, 0
2, 395000, Note_off_c, 1, 67, 0
2, 395000, Note_off_c, 1, 73, 0
2, 395040, Note_on_c, 1, 50, 127
2, 395040, Note_on_c, 1, 66, 127
2, 395040, Note_on_c, 1, 74, 127
2, 395200, Note_off_c, 1, 50, 0
2, 395200, Note_off_c, 1, 66, 0
2, 395200, Note_off_c, 1, 74, 0
2, 395240, Note_on_c, 1, 57, 127
2, 395240, Note_on_c, 1, 64, 127
2, 395240, Note_on_c, 1, 74, 127
2, 395280, Note_off_c, 1, 74, 0
2, 395320, Note_on_c, 1, 73, 127
2, 395360, Note_off_c, 1, 73, 0
2, 395400, Note_off_c, 1, 57, 0
2, 395400, Note_on_c, 1, 74, 127
2, 395440, Note_on_c, 1, 59, 127
2, 395440, Note_on_c, 1, 73, 127
2, 395440, Note_off_c, 1, 74, 0
2, 395480, Note_off_c, 1, 73, 0
2, 395520, Note_on_c, 1, 74, 127
2, 395560, Note_off_c, 1, 74, 0
2, 395600, Note_off_c, 1, 59, 0
2, 395600, Note_on_c, 1, 73, 127
2, 395640, Note_on_c, 1, 57, 127
2, 395800, Note_off_c, 1, 57, 0
2, 395800, Note_off_c, 1, 73, 0
2, 395840, Note_on_c, 1, 55, 127
2, 395840, Note_on_c, 1, 71, 127
2, 396000, Note_off_c, 1, 55, 0
2, 396000, Note_off_c, 1, 64, 0
2, 396000, Note_off_c, 1, 71, 0
2, 396040, Note_on_c, 1, 54, 127
2, 396040, Note_on_c, 1, 69, 127
2, 396200, Note_off_c, 1, 54, 0
2, 396240, Note_on_c, 1, 52, 127
2, 396240, Note_on_c, 1, 76, 127
2, 396400, Note_off_c, 1, 52, 0
2, 396440, Note_on_c, 1, 50, 127
2, 396440, Note_on_c, 1, 81, 127
2, 396600, Note_off_c, 1, 50, 0
2, 396640, Note_on_c, 1, 49, 127
2, 396800, Note_off_c, 1, 49, 0
2, 396800, Note_off_c, 1, 69, 0
2, 396800, Note_off_c, 1, 76, 0
2, 396800, Note_off_c, 1, 81, 0
2, 396840, Note_on_c, 1, 47, 127
2, 396840, Note_on_c, 1, 74, 127
2, 396840, Note_on_c, 1, 81, 127
2, 396880, Note_off_c, 1, 81, 0
2, 396920, Note_on_c, 1, 79, 127
2, 396960, Note_on_c, 1, 78, 127
2, 396960, Note_off_c, 1, 79, 0
2, 397000, Note_off_c, 1, 47, 0
2, 397000, Note_off_c, 1, 78, 0
2, 397040, Note_on_c, 1, 50, 127
2, 397040, Note_on_c, 1, 79, 127
2, 397080, Note_off_c, 1, 79, 0
2, 397080, Note_on_c, 1, 81, 127
2, 397120, Note_off_c, 1, 81, 0
2, 397160, Note_on_c, 1, 79, 127
2, 397200, Note_off_c, 1, 50, 0
2, 397200, Note_off_c, 1, 74, 0
2, 397200, Note_off_c, 1, 79, 0
2, 397240, Note_on_c, 1, 49, 127
2, 397240, Note_on_c, 1, 76, 127
2, 397240, Note_on_c, 1, 81, 127
2, 397280, Note_on_c, 1, 79, 127
2, 397280, Note_off_c, 1, 81, 0
2, 397320, Note_off_c, 1, 79, 0
2, 397360, Note_on_c, 1, 78, 127
2, 397400, Note_off_c, 1, 49, 0
2, 397400, Note_off_c, 1, 78, 0
2, 397440, Note_on_c, 1, 52, 127
2, 397440, Note_on_c, 1, 79, 127
2, 397480, Note_off_c, 1, 79, 0
2, 397480, Note_on_c, 1, 81, 127
2, 397600, Note_off_c, 1, 52, 0
2, 397600, Note_off_c, 1, 76, 0
2, 397600, Note_off_c, 1, 81, 0
2, 397640, Note_on_c, 1, 50, 127
2, 397640, Note_on_c, 1, 69, 127
2, 397640, Note_on_c, 1, 79, 127
2, 397720, Note_off_c, 1, 79, 0
2, 397760, Note_on_c, 1, 78, 127
2, 397800, Note_off_c, 1, 50, 0
2, 397800, Note_off_c, 1, 78, 0
2, 397840, Note_on_c, 1, 54, 127
2, 397840, Note_on_c, 1, 79, 127
2, 397880, Note_on_c, 1, 78, 127
2, 397880, Note_off_c, 1, 79, 0
2, 398000, Note_off_c, 1, 54, 0
2, 398040, Note_on_c, 1, 52, 127
2, 398160, Note_off_c, 1, 52, 0
2, 398160, Note_off_c, 1, 78, 0
2, 398240, Note_on_c, 1, 55, 127
2, 398240, Note_on_c, 1, 76, 127
2, 398360, Note_off_c, 1, 55, 0
2, 398360, Note_off_c, 1, 76, 0
2, 398400, Note_on_c, 1, 54, 127
2, 398400, Note_on_c, 1, 74, 127
2, 398560, Note_off_c, 1, 54, 0
2, 398560, Note_off_c, 1, 74, 0
2, 398600, Note_on_c, 1, 57, 127
2, 398600, Note_on_c, 1, 73, 127
2, 398760, Note_off_c, 1, 57, 0
2, 398760, Note_off_c, 1, 69, 0
2, 398760, Note_off_c, 1, 73, 0
2, 398800, Note_on_c, 1, 55, 127
2, 398800, Note_on_c, 1, 71, 127
2, 398960, Note_off_c, 1, 55, 0
2, 398960, Note_off_c, 1, 71, 0
2, 399000, Note_on_c, 1, 59, 127
2, 399000, Note_on_c, 1, 76, 127
2, 399160, Note_off_c, 1, 59, 0
2, 399160, Note_off_c, 1, 76, 0
2, 399200, Note_on_c, 1, 57, 127
2, 399200, Note_on_c, 1, 67, 127
2, 399200, Note_on_c, 1, 74, 127
2, 399320, Note_off_c, 1, 74, 0
2, 399360, Note_off_c, 1, 57, 0
2, 399360, Note_on_c, 1, 73, 127
2, 399400, Note_on_c, 1, 55, 127
2, 399400, Note_off_c, 1, 73, 0
2, 399400, Note_on_c, 1, 74, 127
2, 399440, Note_off_c, 1, 74, 0
2, 399480, Note_on_c, 1, 73, 127
2, 399520, Note_off_c, 1, 73, 0
2, 399520, Note_on_c, 1, 74, 127
2, 399560, Note_off_c, 1, 55, 0
2, 399560, Note_off_c, 1, 74, 0
2, 399600, Note_on_c, 1, 57, 127
2, 399600, Note_on_c, 1, 73, 127
2, 399760, Note_off_c, 1, 57, 0
2, 399760, Note_off_c, 1, 73, 0
2, 399800, Note_on_c, 1, 45, 127
2, 399800, Note_on_c, 1, 74, 127
2, 399960, Note_off_c, 1, 45, 0
2, 399960, Note_off_c, 1, 67, 0
2, 399960, Note_off_c, 1, 74, 0
2, 400000, Note_on_c, 1, 50, 127
2, 400000, Note_on_c, 1, 66, 127
2, 400000, Note_on_c, 1, 69, 127
2, 400000, Note_on_c, 1, 74, 127
2, 400160, Note_off_c, 1, 50, 0
2, 400200, Note_on_c, 1, 57, 127
2, 400360, Note_off_c, 1, 57, 0
2, 400400, Note_on_c, 1, 59, 127
2, 400560, Note_off_c, 1, 59, 0
2, 400600, Note_on_c, 1, 62, 127
2, 400760, Note_off_c, 1, 62, 0
2, 400800, Note_on_c, 1, 61, 127
2, 400960, Note_off_c, 1, 61, 0
2, 401000, Note_on_c, 1, 64, 127
2, 401160, Note_off_c, 1, 64, 0
2, 401160, Note_off_c, 1, 66, 0
2, 401160, Note_off_c, 1, 69, 0
2, 401160, Note_off_c, 1, 74, 0
2, 401200, Note_on_c, 1, 62, 127
2, 401200, Note_on_c, 1, 78, 127
2, 401240, Note_off_c, 1, 78, 0
2, 401280, Note_on_c, 1, 76, 127
2, 401320, Note_off_c, 1, 76, 0
2, 401320, Note_on_c, 1, 78, 127
2, 401360, Note_off_c, 1, 62, 0
2, 401400, Note_on_c, 1, 66, 127
2, 401560, Note_off_c, 1, 66, 0
2, 401560, Note_off_c, 1, 78, 0
2, 401600, Note_on_c, 1, 64, 127
2, 401600, Note_on_c, 1, 78, 127
2, 401760, Note_off_c, 1, 64, 0
2, 401760, Note_off_c, 1, 78, 0
2, 401800, Note_on_c, 1, 62, 127
2, 401800, Note_on_c, 1, 79, 127
2, 401840, Note_off_c, 1, 79, 0
2, 401880, Note_on_c, 1, 78, 127
2, 401920, Note_off_c, 1, 78, 0
2, 401920, Note_on_c, 1, 79, 127
2, 401960, Note_off_c, 1, 62, 0
2, 402000, Note_on_c, 1, 61, 127
2, 402160, Note_off_c, 1, 61, 0
2, 402160, Note_off_c, 1, 79, 0
2, 402200, Note_on_c, 1, 59, 127
2, 402200, Note_on_c, 1, 78, 127
2, 402360, Note_off_c, 1, 59, 0
2, 402360, Note_off_c, 1, 78, 0
2, 402400, Note_on_c, 1, 58, 127
2, 402400, Note_on_c, 1, 78, 127
2, 402480, Note_off_c, 1, 78, 0
2, 402520, Note_on_c, 1, 76, 127
2, 402560, Note_off_c, 1, 58, 0
2, 402560, Note_off_c, 1, 76, 0
2, 402600, Note_on_c, 1, 59, 127
2, 402600, Note_on_c, 1, 78, 127
2, 402640, Note_on_c, 1, 76, 127
2, 402640, Note_off_c, 1, 78, 0
2, 402680, Note_off_c, 1, 76, 0
2, 402720, Note_on_c, 1, 78, 127
2, 402760, Note_off_c, 1, 59, 0
2, 402760, Note_off_c, 1, 78, 0
2, 402800, Note_on_c, 1, 61, 127
2, 402800, Note_on_c, 1, 76, 127
2, 402960, Note_off_c, 1, 61, 0
2, 402960, Note_off_c, 1, 76, 0
2, 403000, Note_on_c, 1, 62, 127
2, 403000, Note_on_c, 1, 74, 127
2, 403120, Note_off_c, 1, 62, 0
2, 403120, Note_off_c, 1, 74, 0
2, 403200, Note_on_c, 1, 64, 127
2, 403200, Note_on_c, 1, 74, 127
2, 403280, Note_off_c, 1, 74, 0
2, 403320, Note_off_c, 1, 64, 0
2, 403320, Note_on_c, 1, 73, 127
2, 403360, Note_on_c, 1, 62, 127
2, 403360, Note_off_c, 1, 73, 0
2, 403360, Note_on_c, 1, 74, 127
2, 403400, Note_off_c, 1, 74, 0
2, 403440, Note_on_c, 1, 73, 127
2, 403520, Note_off_c, 1, 62, 0
2, 403520, Note_off_c, 1, 73, 0
2, 403560, Note_on_c, 1, 64, 127
2, 403560, Note_on_c, 1, 71, 127
2, 403720, Note_off_c, 1, 64, 0
2, 403720, Note_off_c, 1, 71, 0
2, 403760, Note_on_c, 1, 66, 127
2, 403760, Note_on_c, 1, 70, 127
2, 403920, Note_off_c, 1, 66, 0
2, 403920, Note_off_c, 1, 70, 0
2, 403960, Note_on_c, 1, 67, 127
2, 403960, Note_on_c, 1, 70, 127
2, 404080, Note_off_c, 1, 70, 0
2, 404120, Note_off_c, 1, 67, 0
2, 404120, Note_on_c, 1, 71, 127
2, 404160, Note_on_c, 1, 66, 127
2, 404160, Note_on_c, 1, 70, 127
2, 404160, Note_off_c, 1, 71, 0
2, 404200, Note_off_c, 1, 70, 0
2, 404240, Note_on_c, 1, 71, 127
2, 404320, Note_off_c, 1, 66, 0
2, 404360, Note_on_c, 1, 67, 127
2, 404520, Note_off_c, 1, 67, 0
2, 404520, Note_off_c, 1, 71, 0
2, 404560, Note_on_c, 1, 64, 127
2, 404560, Note_on_c, 1, 73, 127
2, 404720, Note_off_c, 1, 64, 0
2, 404720, Note_off_c, 1, 73, 0
2, 404760, Note_on_c, 1, 66, 127
2, 404760, Note_on_c, 1, 71, 127
2, 404800, Note_off_c, 1, 71, 0
2, 404840, Note_on_c, 1, 70, 127
2, 404880, Note_off_c, 1, 70, 0
2, 404880, Note_on_c, 1, 71, 127
2, 404920, Note_off_c, 1, 66, 0
2, 404920, Note_off_c, 1, 71, 0
2, 404960, Note_on_c, 1, 67, 127
2, 404960, Note_on_c, 1, 70, 127
2, 405120, Note_off_c, 1, 67, 0
2, 405160, Note_on_c, 1, 66, 127
2, 405320, Note_off_c, 1, 66, 0
2, 405320, Note_off_c, 1, 70, 0
2, 405360, Note_on_c, 1, 64, 127
2, 405360, Note_on_c, 1, 68, 127
2, 405520, Note_off_c, 1, 64, 0
2, 405520, Note_off_c, 1, 68, 0
2, 405560, Note_on_c, 1, 62, 127
2, 405560, Note_on_c, 1, 66, 127
2, 405720, Note_off_c, 1, 62, 0
2, 405760, Note_on_c, 1, 61, 127
2, 405760, Note_on_c, 1, 73, 127
2, 405920, Note_off_c, 1, 61, 0
2, 405960, Note_on_c, 1, 59, 127
2, 405960, Note_on_c, 1, 78, 127
2, 406120, Note_off_c, 1, 59, 0
2, 406160, Note_on_c, 1, 57, 127
2, 406280, Note_off_c, 1, 66, 0
2, 406280, Note_off_c, 1, 73, 0
2, 406320, Note_off_c, 1, 57, 0
2, 406320, Note_off_c, 1, 78, 0
2, 406360, Note_on_c, 1, 56, 127
2, 406360, Note_on_c, 1, 71, 127
2, 406360, Note_on_c, 1, 78, 127
2, 406440, Note_off_c, 1, 78, 0
2, 406480, Note_on_c, 1, 76, 127
2, 406520, Note_off_c, 1, 56, 0
2, 406520, Note_off_c, 1, 76, 0
2, 406560, Note_on_c, 1, 59, 127
2, 406560, Note_on_c, 1, 78, 127
2, 406600, Note_on_c, 1, 76, 127
2, 406600, Note_off_c, 1, 78, 0
2, 406640, Note_off_c, 1, 76, 0
2, 406680, Note_off_c, 1, 71, 0
2, 406680, Note_on_c, 1, 78, 127
2, 406720, Note_off_c, 1, 59, 0
2, 406720, Note_off_c, 1, 78, 0
2, 406760, Note_on_c, 1, 58, 127
2, 406760, Note_on_c, 1, 73, 127
2, 406760, Note_on_c, 1, 76, 127
2, 406880, Note_off_c, 1, 58, 0
2, 406880, Note_off_c, 1, 76, 0
2, 406960, Note_on_c, 1, 61, 127
2, 406960, Note_on_c, 1, 78, 127
2, 407080, Note_off_c, 1, 61, 0
2, 407080, Note_off_c, 1, 73, 0
2, 407080, Note_off_c, 1, 78, 0
2, 407120, Note_on_c, 1, 59, 127
2, 407120, Note_on_c, 1, 66, 127
2, 407120, Note_on_c, 1, 76, 127
2, 407160, Note_off_c, 1, 76, 0
2, 407200, Note_on_c, 1, 74, 127
2, 407240, Note_off_c, 1, 74, 0
2, 407280, Note_off_c, 1, 59, 0
2, 407280, Note_on_c, 1, 76, 127
2, 407320, Note_on_c, 1, 61, 127
2, 407320, Note_on_c, 1, 74, 127
2, 407320, Note_off_c, 1, 76, 0
2, 407480, Note_off_c, 1, 61, 0
2, 407520, Note_on_c, 1, 59, 127
2, 407680, Note_off_c, 1, 59, 0
2, 407680, Note_off_c, 1, 74, 0
2, 407720, Note_on_c, 1, 57, 127
2, 407720, Note_on_c, 1, 73, 127
2, 407880, Note_off_c, 1, 57, 0
2, 407880, Note_off_c, 1, 66, 0
2, 407880, Note_off_c, 1, 73, 0
2, 407920, Note_on_c, 1, 55, 127
2, 407920, Note_on_c, 1, 71, 127
2, 408080, Note_off_c, 1, 55, 0
2, 408080, Note_off_c, 1, 71, 0
2, 408120, Note_on_c, 1, 54, 127
2, 408120, Note_on_c, 1, 70, 127
2, 408280, Note_off_c, 1, 54, 0
2, 408280, Note_off_c, 1, 70, 0
2, 408320, Note_on_c, 1, 55, 127
2, 408320, Note_on_c, 1, 71, 127
2, 408480, Note_off_c, 1, 55, 0
2, 408480, Note_off_c, 1, 71, 0
2, 408520, Note_on_c, 1, 52, 127
2, 408520, Note_on_c, 1, 73, 127
2, 408680, Note_off_c, 1, 52, 0
2, 408680, Note_off_c, 1, 73, 0
2, 408720, Note_on_c, 1, 54, 127
2, 408720, Note_on_c, 1, 70, 127
2, 408720, Note_on_c, 1, 74, 127
2, 408800, Note_off_c, 1, 70, 0
2, 408800, Note_off_c, 1, 74, 0
2, 408840, Note_on_c, 1, 73, 127
2, 408880, Note_off_c, 1, 54, 0
2, 408880, Note_off_c, 1, 73, 0
2, 408920, Note_on_c, 1, 52, 127
2, 408920, Note_on_c, 1, 74, 127
2, 408960, Note_off_c, 1, 74, 0
2, 409000, Note_on_c, 1, 73, 127
2, 409040, Note_off_c, 1, 73, 0
2, 409040, Note_on_c, 1, 74, 127
2, 409080, Note_off_c, 1, 52, 0
2, 409080, Note_off_c, 1, 74, 0
2, 409120, Note_on_c, 1, 54, 127
2, 409120, Note_on_c, 1, 73, 127
2, 409160, Note_off_c, 1, 73, 0
2, 409200, Note_on_c, 1, 74, 127
2, 409240, Note_on_c, 1, 73, 127
2, 409240, Note_off_c, 1, 74, 0
2, 409280, Note_off_c, 1, 54, 0
2, 409280, Note_off_c, 1, 73, 0
2, 409320, Note_on_c, 1, 42, 127
2, 409320, Note_on_c, 1, 71, 127
2, 409480, Note_off_c, 1, 42, 0
2, 409480, Note_off_c, 1, 71, 0
2, 409520, Note_on_c, 1, 47, 127
2, 409520, Note_on_c, 1, 62, 127
2, 409520, Note_on_c, 1, 66, 127
2, 409520, Note_on_c, 1, 71, 127
2, 409680, Note_off_c, 1, 47, 0
2, 409720, Note_on_c, 1, 49, 127
2, 409880, Note_off_c, 1, 49, 0
2, 409920, Note_on_c, 1, 50, 127
2, 410080, Note_off_c, 1, 50, 0
2, 410120, Note_on_c, 1, 49, 127
2, 410280, Note_off_c, 1, 49, 0
2, 410320, Note_on_c, 1, 47, 127
2, 410440, Note_off_c, 1, 47, 0
2, 410520, Note_on_c, 1, 45, 127
2, 410640, Note_off_c, 1, 45, 0
2, 410640, Note_off_c, 1, 62, 0
2, 410640, Note_off_c, 1, 66, 0
2, 410640, Note_off_c, 1, 71, 0
2, 410680, Note_on_c, 1, 44, 127
2, 410680, Note_on_c, 1, 71, 127
2, 410840, Note_off_c, 1, 44, 0
2, 410880, Note_on_c, 1, 47, 127
2, 411040, Note_off_c, 1, 47, 0
2, 411040, Note_off_c, 1, 71, 0
2, 411080, Note_on_c, 1, 45, 127
2, 411080, Note_on_c, 1, 71, 127
2, 411080, Note_on_c, 1, 73, 127
2, 411120, Note_off_c, 1, 73, 0
2, 411160, Note_on_c, 1, 74, 127
2, 411200, Note_off_c, 1, 74, 0
2, 411240, Note_off_c, 1, 45, 0
2, 411240, Note_on_c, 1, 76, 127
2, 411280, Note_on_c, 1, 44, 127
2, 411440, Note_off_c, 1, 44, 0
2, 411480, Note_on_c, 1, 42, 127
2, 411640, Note_off_c, 1, 42, 0
2, 411640, Note_off_c, 1, 76, 0
2, 411680, Note_on_c, 1, 40, 127
2, 411680, Note_on_c, 1, 74, 127
2, 411840, Note_off_c, 1, 40, 0
2, 411840, Note_off_c, 1, 71, 0
2, 411840, Note_off_c, 1, 74, 0
2, 411880, Note_on_c, 1, 45, 127
2, 411880, Note_on_c, 1, 69, 127
2, 411880, Note_on_c, 1, 74, 127
2, 411960, Note_off_c, 1, 74, 0
2, 412000, Note_on_c, 1, 73, 127
2, 412040, Note_off_c, 1, 45, 0
2, 412040, Note_off_c, 1, 73, 0
2, 412080, Note_on_c, 1, 47, 127
2, 412080, Note_on_c, 1, 74, 127
2, 412120, Note_off_c, 1, 74, 0
2, 412160, Note_on_c, 1, 73, 127
2, 412200, Note_off_c, 1, 73, 0
2, 412200, Note_on_c, 1, 74, 127
2, 412240, Note_off_c, 1, 47, 0
2, 412240, Note_off_c, 1, 74, 0
2, 412280, Note_on_c, 1, 45, 127
2, 412280, Note_on_c, 1, 73, 127
2, 412440, Note_off_c, 1, 45, 0
2, 412440, Note_off_c, 1, 69, 0
2, 412440, Note_off_c, 1, 73, 0
2, 412480, Note_on_c, 1, 44, 127
2, 412480, Note_on_c, 1, 71, 127
2, 412640, Note_off_c, 1, 44, 0
2, 412640, Note_off_c, 1, 71, 0
2, 412680, Note_on_c, 1, 42, 127
2, 412680, Note_on_c, 1, 69, 127
2, 412840, Note_off_c, 1, 42, 0
2, 412840, Note_off_c, 1, 69, 0
2, 412880, Note_on_c, 1, 40, 127
2, 412880, Note_on_c, 1, 73, 127
2, 413040, Note_off_c, 1, 40, 0
2, 413040, Note_off_c, 1, 73, 0
2, 413080, Note_on_c, 1, 38, 127
2, 413080, Note_on_c, 1, 57, 127
2, 413080, Note_on_c, 1, 66, 127
2, 413240, Note_off_c, 1, 38, 0
2, 413280, Note_on_c, 1, 40, 127
2, 413440, Note_off_c, 1, 40, 0
2, 413440, Note_off_c, 1, 57, 0
2, 413440, Note_off_c, 1, 66, 0
2, 413480, Note_on_c, 1, 38, 127
2, 413480, Note_on_c, 1, 59, 127
2, 413520, Note_off_c, 1, 59, 0
2, 413520, Note_on_c, 1, 62, 127
2, 413560, Note_on_c, 1, 64, 127
2, 413600, Note_on_c, 1, 68, 127
2, 413640, Note_off_c, 1, 38, 0
2, 413680, Note_on_c, 1, 37, 127
2, 413840, Note_off_c, 1, 37, 0
2, 413880, Note_on_c, 1, 35, 127
2, 414040, Note_off_c, 1, 35, 0
2, 414040, Note_off_c, 1, 62, 0
2, 414040, Note_off_c, 1, 64, 0
2, 414040, Note_off_c, 1, 68, 0
2, 414080, Note_on_c, 1, 33, 127
2, 414080, Note_on_c, 1, 61, 127
2, 414080, Note_on_c, 1, 69, 127
2, 414240, Note_off_c, 1, 33, 0
2, 414240, Note_off_c, 1, 61, 0
2, 414240, Note_off_c, 1, 69, 0
2, 414280, Note_on_c, 1, 40, 127
2, 414280, Note_on_c, 1, 59, 127
2, 414280, Note_on_c, 1, 69, 127
2, 414320, Note_on_c, 1, 68, 127
2, 414320, Note_off_c, 1, 69, 0
2, 414360, Note_off_c, 1, 68, 0
2, 414400, Note_off_c, 1, 40, 0
2, 414400, Note_on_c, 1, 69, 127
2, 414440, Note_off_c, 1, 69, 0
2, 414480, Note_on_c, 1, 38, 127
2, 414480, Note_on_c, 1, 68, 127
2, 414600, Note_off_c, 1, 38, 0
2, 414640, Note_on_c, 1, 40, 127
2, 414800, Note_off_c, 1, 40, 0
2, 414800, Note_off_c, 1, 68, 0
2, 414840, Note_on_c, 1, 42, 127
2, 414840, Note_on_c, 1, 66, 127
2, 415000, Note_off_c, 1, 42, 0
2, 415000, Note_off_c, 1, 59, 0
2, 415000, Note_off_c, 1, 66, 0
2, 415040, Note_on_c, 1, 44, 127
2, 415040, Note_on_c, 1, 64, 127
2, 415200, Note_off_c, 1, 44, 0
2, 415240, Note_on_c, 1, 42, 127
2, 415400, Note_off_c, 1, 42, 0
2, 415400, Note_off_c, 1, 64, 0
2, 415440, Note_on_c, 1, 44, 127
2, 415440, Note_on_c, 1, 71, 127
2, 415600, Note_off_c, 1, 44, 0
2, 415600, Note_off_c, 1, 71, 0
2, 415640, Note_on_c, 1, 40, 127
2, 415640, Note_on_c, 1, 73, 127
2, 415720, Note_off_c, 1, 73, 0
2, 415760, Note_on_c, 1, 74, 127
2, 415800, Note_off_c, 1, 40, 0
2, 415800, Note_off_c, 1, 74, 0
2, 415840, Note_on_c, 1, 45, 127
2, 415840, Note_on_c, 1, 74, 127
2, 415920, Note_off_c, 1, 74, 0
2, 415960, Note_on_c, 1, 73, 127
2, 416000, Note_off_c, 1, 45, 0
2, 416000, Note_off_c, 1, 73, 0
2, 416040, Note_on_c, 1, 44, 127
2, 416040, Note_on_c, 1, 74, 127
2, 416080, Note_off_c, 1, 74, 0
2, 416120, Note_on_c, 1, 73, 127
2, 416160, Note_off_c, 1, 73, 0
2, 416160, Note_on_c, 1, 74, 127
2, 416200, Note_off_c, 1, 44, 0
2, 416200, Note_off_c, 1, 74, 0
2, 416240, Note_on_c, 1, 45, 127
2, 416240, Note_on_c, 1, 73, 127
2, 416400, Note_off_c, 1, 45, 0
2, 416400, Note_off_c, 1, 73, 0
2, 416440, Note_on_c, 1, 47, 127
2, 416440, Note_on_c, 1, 71, 127
2, 416600, Note_off_c, 1, 47, 0
2, 416600, Note_off_c, 1, 71, 0
2, 416640, Note_on_c, 1, 49, 127
2, 416640, Note_on_c, 1, 71, 127
2, 416800, Note_off_c, 1, 49, 0
2, 416840, Note_on_c, 1, 47, 127
2, 416840, Note_on_c, 1, 76, 127
2, 417000, Note_off_c, 1, 47, 0
2, 417000, Note_off_c, 1, 71, 0
2, 417040, Note_on_c, 1, 49, 127
2, 417040, Note_on_c, 1, 69, 127
2, 417200, Note_off_c, 1, 49, 0
2, 417200, Note_off_c, 1, 76, 0
2, 417240, Note_on_c, 1, 45, 127
2, 417240, Note_on_c, 1, 78, 127
2, 417400, Note_off_c, 1, 45, 0
2, 417400, Note_off_c, 1, 69, 0
2, 417400, Note_off_c, 1, 78, 0
2, 417440, Note_on_c, 1, 47, 127
2, 417440, Note_on_c, 1, 79, 127
2, 417600, Note_off_c, 1, 47, 0
2, 417600, Note_off_c, 1, 79, 0
2, 417640, Note_on_c, 1, 50, 127
2, 417640, Note_on_c, 1, 76, 127
2, 417800, Note_off_c, 1, 50, 0
2, 417800, Note_off_c, 1, 76, 0
2, 417840, Note_on_c, 1, 49, 127
2, 417840, Note_on_c, 1, 69, 127
2, 417880, Note_on_c, 1, 76, 127
2, 417960, Note_off_c, 1, 49, 0
2, 417960, Note_on_c, 1, 81, 127
2, 418040, Note_on_c, 1, 52, 127
2, 418160, Note_off_c, 1, 52, 0
2, 418160, Note_off_c, 1, 69, 0
2, 418160, Note_off_c, 1, 76, 0
2, 418160, Note_off_c, 1, 81, 0
2, 418200, Note_on_c, 1, 50, 127
2, 418200, Note_on_c, 1, 76, 127
2, 418200, Note_on_c, 1, 81, 127
2, 418240, Note_off_c, 1, 81, 0
2, 418280, Note_on_c, 1, 79, 127
2, 418320, Note_off_c, 1, 79, 0
2, 418360, Note_off_c, 1, 50, 0
2, 418360, Note_on_c, 1, 78, 127
2, 418400, Note_on_c, 1, 49, 127
2, 418400, Note_off_c, 1, 78, 0
2, 418400, Note_on_c, 1, 79, 127
2, 418440, Note_off_c, 1, 79, 0
2, 418480, Note_on_c, 1, 81, 127
2, 418520, Note_off_c, 1, 81, 0
2, 418560, Note_off_c, 1, 49, 0
2, 418560, Note_on_c, 1, 79, 127
2, 418600, Note_on_c, 1, 47, 127
2, 418600, Note_off_c, 1, 79, 0
2, 418600, Note_on_c, 1, 81, 127
2, 418640, Note_off_c, 1, 81, 0
2, 418680, Note_on_c, 1, 79, 127
2, 418720, Note_off_c, 1, 79, 0
2, 418760, Note_off_c, 1, 47, 0
2, 418760, Note_on_c, 1, 78, 127
2, 418800, Note_on_c, 1, 45, 127
2, 418800, Note_off_c, 1, 78, 0
2, 418800, Note_on_c, 1, 79, 127
2, 418840, Note_off_c, 1, 79, 0
2, 418880, Note_on_c, 1, 81, 127
2, 418960, Note_off_c, 1, 45, 0
2, 418960, Note_off_c, 1, 76, 0
2, 418960, Note_off_c, 1, 81, 0
2, 419000, Note_on_c, 1, 50, 127
2, 419000, Note_on_c, 1, 69, 127
2, 419000, Note_on_c, 1, 79, 127
2, 419120, Note_off_c, 1, 79, 0
2, 419160, Note_off_c, 1, 50, 0
2, 419160, Note_on_c, 1, 78, 127
2, 419200, Note_on_c, 1, 54, 127
2, 419200, Note_off_c, 1, 78, 0
2, 419200, Note_on_c, 1, 79, 127
2, 419240, Note_off_c, 1, 79, 0
2, 419280, Note_on_c, 1, 78, 127
2, 419320, Note_off_c, 1, 78, 0
2, 419360, Note_off_c, 1, 54, 0
2, 419360, Note_on_c, 1, 79, 127
2, 419400, Note_on_c, 1, 52, 127
2, 419400, Note_on_c, 1, 78, 127
2, 419400, Note_off_c, 1, 79, 0
2, 419560, Note_off_c, 1, 52, 0
2, 419560, Note_off_c, 1, 69, 0
2, 419560, Note_off_c, 1, 78, 0
2, 419600, Note_on_c, 1, 50, 127
2, 419600, Note_on_c, 1, 71, 127
2, 419600, Note_on_c, 1, 80, 127
2, 419800, Note_off_c, 1, 50, 0
2, 419800, Note_off_c, 1, 71, 0
2, 419800, Note_off_c, 1, 80, 0
2, 419840, Note_on_c, 1, 49, 127
2, 419840, Note_on_c, 1, 73, 127
2, 419840, Note_on_c, 1, 81, 127
2, 420000, Note_off_c, 1, 49, 0
2, 420000, Note_off_c, 1, 73, 0
2, 420000, Note_off_c, 1, 81, 0
2, 420040, Note_on_c, 1, 47, 127
2, 420040, Note_on_c, 1, 74, 127
2, 420200, Note_off_c, 1, 47, 0
2, 420200, Note_off_c, 1, 74, 0
2, 420240, Note_on_c, 1, 45, 127
2, 420240, Note_on_c, 1, 73, 127
2, 420400, Note_off_c, 1, 45, 0
2, 420400, Note_off_c, 1, 73, 0
2, 420440, Note_on_c, 1, 50, 127
2, 420440, Note_on_c, 1, 71, 127
2, 420640, Note_off_c, 1, 50, 0
2, 420640, Note_off_c, 1, 71, 0
2, 420680, Note_on_c, 1, 52, 127
2, 420680, Note_on_c, 1, 68, 127
2, 420680, Note_on_c, 1, 73, 127
2, 420760, Note_off_c, 1, 73, 0
2, 420800, Note_on_c, 1, 71, 127
2, 420840, Note_off_c, 1, 52, 0
2, 420840, Note_off_c, 1, 71, 0
2, 420880, Note_on_c, 1, 50, 127
2, 420880, Note_on_c, 1, 73, 127
2, 420920, Note_off_c, 1, 73, 0
2, 420960, Note_on_c, 1, 71, 127
2, 421000, Note_off_c, 1, 71, 0
2, 421040, Note_off_c, 1, 50, 0
2, 421040, Note_on_c, 1, 73, 127
2, 421080, Note_on_c, 1, 52, 127
2, 421080, Note_on_c, 1, 71, 127
2, 421080, Note_off_c, 1, 73, 0
2, 421120, Note_off_c, 1, 71, 0
2, 421160, Note_on_c, 1, 73, 127
2, 421200, Note_off_c, 1, 73, 0
2, 421240, Note_off_c, 1, 68, 0
2, 421240, Note_on_c, 1, 71, 127
2, 421280, Note_off_c, 1, 52, 0
2, 421280, Note_off_c, 1, 71, 0
2, 421320, Note_on_c, 1, 40, 127
2, 421320, Note_on_c, 1, 69, 127
2, 421520, Note_off_c, 1, 40, 0
2, 421520, Note_off_c, 1, 69, 0
2, 421560, Note_on_c, 1, 45, 127
2, 421560, Note_on_c, 1, 69, 127
2, 421800, Note_on_c, 1, 64, 127
2, 422040, Note_on_c, 1, 61, 127
2, 422240, Note_off_c, 1, 45, 0
2, 422280, Note_on_c, 1, 40, 127
2, 422480, Note_off_c, 1, 40, 0
2, 422520, Note_on_c, 1, 33, 127
2, 422760, Note_on_c, 1, 40, 127
2, 422960, Note_off_c, 1, 40, 0
2, 423000, Note_on_c, 1, 45, 127
2, 425440, Note_off_c, 1, 33, 0
2, 425440, Note_off_c, 1, 45, 0
2, 425440, Note_off_c, 1, 61, 0
2, 425440, Note_off_c, 1, 64, 0
2, 425440, Note_off_c, 1, 69, 0
2, 427240, Note_on_c, 1, 45, 127
2, 427240, Note_on_c, 1, 64, 127
2, 427280, Note_on_c, 1, 52, 127
2, 427280, Note_on_c, 1, 69, 127
2, 427360, Note_on_c, 1, 57, 127
2, 427360, Note_on_c, 1, 71, 127
2, 427400, Note_off_c, 1, 71, 0
2, 427440, Note_on_c, 1, 73, 127
2, 427600, Note_off_c, 1, 64, 0
2, 427600, Note_off_c, 1, 69, 0
2, 427840, Note_off_c, 1, 73, 0
2, 427880, Note_on_c, 1, 74, 127
2, 427920, Note_off_c, 1, 74, 0
2, 427960, Note_on_c, 1, 76, 127
2, 428040, Note_off_c, 1, 76, 0
2, 428080, Note_on_c, 1, 74, 127
2, 428520, Note_off_c, 1, 74, 0
2, 428560, Note_on_c, 1, 73, 127
2, 428920, Note_off_c, 1, 73, 0
2, 428960, Note_on_c, 1, 73, 127
2, 429000, Note_off_c, 1, 73, 0
2, 429040, Note_on_c, 1, 71, 127
2, 429080, Note_off_c, 1, 71, 0
2, 429080, Note_on_c, 1, 73, 127
2, 429120, Note_off_c, 1, 73, 0
2, 429160, Note_on_c, 1, 71, 127
2, 429320, Note_off_c, 1, 71, 0
2, 429360, Note_on_c, 1, 69, 127
2, 429720, Note_off_c, 1, 52, 0
2, 429760, Note_off_c, 1, 45, 0
2, 429760, Note_off_c, 1, 57, 0
2, 429760, Note_off_c, 1, 69, 0
2, 429800, Note_on_c, 1, 57, 127
2, 429800, Note_on_c, 1, 61, 127
2, 429800, Note_on_c, 1, 64, 127
2, 429800, Note_on_c, 1, 69, 127
2, 429800, Note_on_c, 1, 76, 127
2, 429800, Note_on_c, 1, 79, 127
2, 430160, Note_off_c, 1, 76, 0
2, 430160, Note_off_c, 1, 79, 0
2, 430200, Note_on_c, 1, 74, 127
2, 430200, Note_on_c, 1, 78, 127
2, 430560, Note_off_c, 1, 61, 0
2, 430560, Note_off_c, 1, 64, 0
2, 430560, Note_off_c, 1, 69, 0
2, 430560, Note_off_c, 1, 74, 0
2, 430560, Note_off_c, 1, 78, 0
2, 430600, Note_on_c, 1, 62, 127
2, 430600, Note_on_c, 1, 66, 127
2, 430600, Note_on_c, 1, 69, 127
2, 430600, Note_on_c, 1, 76, 127
2, 430600, Note_on_c, 1, 79, 127
2, 431400, Note_off_c, 1, 76, 0
2, 431400, Note_off_c, 1, 79, 0
2, 431440, Note_on_c, 1, 74, 127
2, 431440, Note_on_c, 1, 78, 127
2, 432240, Note_off_c, 1, 57, 0
2, 432240, Note_off_c, 1, 62, 0
2, 432240, Note_off_c, 1, 66, 0
2, 432240, Note_off_c, 1, 69, 0
2, 432240, Note_off_c, 1, 74, 0
2, 432240, Note_off_c, 1, 78, 0
2, 432280, Note_on_c, 1, 59, 127
2, 432280, Note_on_c, 1, 62, 127
2, 432280, Note_on_c, 1, 71, 127
2, 432280, Note_on_c, 1, 74, 127
2, 432280, Note_on_c, 1, 76, 127
2, 432280, Note_on_c, 1, 81, 127
2, 432640, Note_off_c, 1, 81, 0
2, 432680, Note_on_c, 1, 80, 127
2, 433080, Note_off_c, 1, 59, 0
2, 433080, Note_off_c, 1, 62, 0
2, 433080, Note_off_c, 1, 71, 0
2, 433080, Note_off_c, 1, 74, 0
2, 433080, Note_off_c, 1, 76, 0
2, 433080, Note_off_c, 1, 80, 0
2, 433120, Note_on_c, 1, 61, 127
2, 433120, Note_on_c, 1, 64, 127
2, 433120, Note_on_c, 1, 69, 127
2, 433120, Note_on_c, 1, 73, 127
2, 433120, Note_on_c, 1, 76, 127
2, 433120, Note_on_c, 1, 80, 127
2, 433480, Note_off_c, 1, 80, 0
2, 433520, Note_on_c, 1, 81, 127
2, 433880, Note_off_c, 1, 61, 0
2, 433880, Note_off_c, 1, 64, 0
2, 433880, Note_off_c, 1, 69, 0
2, 433880, Note_off_c, 1, 73, 0
2, 433880, Note_off_c, 1, 76, 0
2, 433880, Note_off_c, 1, 81, 0
2, 433920, Note_on_c, 1, 62, 127
2, 433920, Note_on_c, 1, 66, 127
2, 433920, Note_on_c, 1, 71, 127
2, 434160, Note_on_c, 1, 83, 127
2, 434200, Note_off_c, 1, 83, 0
2, 434240, Note_on_c, 1, 81, 127
2, 434320, Note_off_c, 1, 81, 0
2, 434360, Note_on_c, 1, 80, 127
2, 434400, Note_off_c, 1, 80, 0
2, 434440, Note_on_c, 1, 81, 127
2, 434520, Note_off_c, 1, 81, 0
2, 434560, Note_on_c, 1, 83, 127
2, 434720, Note_off_c, 1, 62, 0
2, 434720, Note_off_c, 1, 66, 0
2, 434720, Note_off_c, 1, 71, 0
2, 434720, Note_off_c, 1, 83, 0
2, 434760, Note_on_c, 1, 64, 127
2, 434760, Note_on_c, 1, 71, 127
2, 434760, Note_on_c, 1, 81, 127
2, 434840, Note_off_c, 1, 81, 0
2, 434880, Note_on_c, 1, 80, 127
2, 434920, Note_off_c, 1, 80, 0
2, 434960, Note_on_c, 1, 81, 127
2, 435000, Note_off_c, 1, 81, 0
2, 435040, Note_on_c, 1, 80, 127
2, 435080, Note_off_c, 1, 80, 0
2, 435120, Note_on_c, 1, 81, 127
2, 435160, Note_on_c, 1, 80, 127
2, 435160, Note_off_c, 1, 81, 0
2, 435200, Note_off_c, 1, 80, 0
2, 435240, Note_on_c, 1, 81, 127
2, 435280, Note_off_c, 1, 81, 0
2, 435320, Note_on_c, 1, 80, 127
2, 435360, Note_off_c, 1, 80, 0
2, 435400, Note_on_c, 1, 81, 127
2, 435440, Note_on_c, 1, 80, 127
2, 435440, Note_off_c, 1, 81, 0
2, 435600, Note_on_c, 1, 52, 127
2, 435960, Note_off_c, 1, 71, 0
2, 435960, Note_off_c, 1, 80, 0
2, 436000, Note_on_c, 1, 69, 127
2, 436000, Note_on_c, 1, 78, 127
2, 436360, Note_off_c, 1, 69, 0
2, 436360, Note_off_c, 1, 78, 0
2, 436400, Note_on_c, 1, 68, 127
2, 436400, Note_on_c, 1, 76, 127
2, 436800, Note_off_c, 1, 52, 0
2, 436800, Note_off_c, 1, 76, 0
2, 436840, Note_on_c, 1, 54, 127
2, 436840, Note_on_c, 1, 74, 127
2, 437200, Note_off_c, 1, 54, 0
2, 437200, Note_off_c, 1, 64, 0
2, 437200, Note_off_c, 1, 68, 0
2, 437200, Note_off_c, 1, 74, 0
2, 437240, Note_on_c, 1, 55, 127
2, 437240, Note_on_c, 1, 64, 127
2, 437240, Note_on_c, 1, 69, 127
2, 437240, Note_on_c, 1, 73, 127
2, 437840, Note_off_c, 1, 69, 0
2, 437840, Note_off_c, 1, 73, 0
2, 437880, Note_on_c, 1, 74, 127
2, 437920, Note_off_c, 1, 74, 0
2, 437960, Note_on_c, 1, 76, 127
2, 438040, Note_off_c, 1, 76, 0
2, 438080, Note_on_c, 1, 74, 127
2, 438440, Note_off_c, 1, 74, 0
2, 438480, Note_on_c, 1, 73, 127
2, 438840, Note_off_c, 1, 73, 0
2, 438880, Note_on_c, 1, 73, 127
2, 438920, Note_off_c, 1, 73, 0
2, 438960, Note_on_c, 1, 71, 127
2, 439000, Note_off_c, 1, 71, 0
2, 439040, Note_on_c, 1, 73, 127
2, 439080, Note_off_c, 1, 73, 0
2, 439120, Note_on_c, 1, 71, 127
2, 439280, Note_off_c, 1, 71, 0
2, 439320, Note_on_c, 1, 69, 127
2, 439680, Note_off_c, 1, 55, 0
2, 439680, Note_off_c, 1, 64, 0
2, 439680, Note_off_c, 1, 69, 0
2, 439720, Note_on_c, 1, 47, 127
2, 439720, Note_on_c, 1, 73, 127
2, 439720, Note_on_c, 1, 76, 127
2, 439800, Note_off_c, 1, 47, 0
2, 439800, Note_on_c, 1, 78, 127
2, 439840, Note_on_c, 1, 46, 127
2, 439840, Note_off_c, 1, 78, 0
2, 439880, Note_on_c, 1, 79, 127
2, 439920, Note_off_c, 1, 46, 0
2, 439960, Note_on_c, 1, 47, 127
2, 440040, Note_off_c, 1, 47, 0
2, 440080, Note_on_c, 1, 46, 127
2, 440080, Note_off_c, 1, 79, 0
2, 440120, Note_on_c, 1, 78, 127
2, 440520, Note_off_c, 1, 46, 0
2, 440520, Note_off_c, 1, 76, 0
2, 440520, Note_off_c, 1, 78, 0
2, 440560, Note_on_c, 1, 47, 127
2, 440560, Note_on_c, 1, 76, 127
2, 440640, Note_off_c, 1, 76, 0
2, 440680, Note_on_c, 1, 74, 127
2, 440720, Note_off_c, 1, 74, 0
2, 440760, Note_on_c, 1, 76, 127
2, 440800, Note_off_c, 1, 76, 0
2, 440840, Note_on_c, 1, 74, 127
2, 440880, Note_off_c, 1, 74, 0
2, 440880, Note_on_c, 1, 76, 127
2, 440920, Note_off_c, 1, 76, 0
2, 440960, Note_on_c, 1, 74, 127
2, 441000, Note_off_c, 1, 74, 0
2, 441040, Note_on_c, 1, 76, 127
2, 441080, Note_on_c, 1, 74, 127
2, 441080, Note_off_c, 1, 76, 0
2, 441120, Note_off_c, 1, 47, 0
2, 441160, Note_on_c, 1, 49, 127
2, 441240, Note_off_c, 1, 49, 0
2, 441280, Note_on_c, 1, 50, 127
2, 441320, Note_off_c, 1, 50, 0
2, 441320, Note_off_c, 1, 73, 0
2, 441360, Note_on_c, 1, 45, 127
2, 441360, Note_on_c, 1, 71, 127
2, 441440, Note_off_c, 1, 45, 0
2, 441480, Note_on_c, 1, 44, 127
2, 441520, Note_off_c, 1, 44, 0
2, 441600, Note_on_c, 1, 45, 127
2, 441640, Note_off_c, 1, 45, 0
2, 441680, Note_on_c, 1, 44, 127
2, 441760, Note_off_c, 1, 74, 0
2, 441800, Note_on_c, 1, 76, 127
2, 442160, Note_off_c, 1, 44, 0
2, 442160, Note_off_c, 1, 76, 0
2, 442200, Note_on_c, 1, 45, 127
2, 442200, Note_on_c, 1, 74, 127
2, 442360, Note_off_c, 1, 74, 0
2, 442400, Note_on_c, 1, 73, 127
2, 442560, Note_off_c, 1, 73, 0
2, 442600, Note_on_c, 1, 74, 127
2, 442800, Note_off_c, 1, 45, 0
2, 442800, Note_off_c, 1, 74, 0
2, 442840, Note_on_c, 1, 47, 127
2, 442840, Note_on_c, 1, 76, 127
2, 442880, Note_off_c, 1, 47, 0
2, 442920, Note_on_c, 1, 49, 127
2, 443000, Note_off_c, 1, 49, 0
2, 443000, Note_off_c, 1, 76, 0
2, 443040, Note_on_c, 1, 42, 127
2, 443040, Note_on_c, 1, 76, 127
2, 443280, Note_off_c, 1, 76, 0
2, 443320, Note_on_c, 1, 75, 127
2, 443360, Note_off_c, 1, 75, 0
2, 443360, Note_on_c, 1, 76, 127
2, 443400, Note_off_c, 1, 71, 0
2, 443400, Note_off_c, 1, 76, 0
2, 443440, Note_on_c, 1, 69, 127
2, 443440, Note_on_c, 1, 75, 127
2, 443480, Note_off_c, 1, 75, 0
2, 443520, Note_on_c, 1, 76, 127
2, 443560, Note_off_c, 1, 76, 0
2, 443600, Note_on_c, 1, 75, 127
2, 443640, Note_off_c, 1, 75, 0
2, 443640, Note_on_c, 1, 76, 127
2, 443680, Note_off_c, 1, 76, 0
2, 443720, Note_on_c, 1, 75, 127
2, 443760, Note_off_c, 1, 75, 0
2, 443800, Note_off_c, 1, 42, 0
2, 443800, Note_off_c, 1, 69, 0
2, 443800, Note_on_c, 1, 76, 127
2, 443840, Note_on_c, 1, 47, 127
2, 443840, Note_on_c, 1, 73, 127
2, 443840, Note_on_c, 1, 75, 127
2, 443840, Note_off_c, 1, 76, 0
2, 443880, Note_off_c, 1, 75, 0
2, 443920, Note_on_c, 1, 76, 127
2, 443960, Note_off_c, 1, 76, 0
2, 444000, Note_on_c, 1, 75, 127
2, 444240, Note_off_c, 1, 73, 0
2, 444280, Note_on_c, 1, 71, 127
2, 444400, Note_off_c, 1, 75, 0
2, 444440, Note_on_c, 1, 73, 127
2, 444520, Note_off_c, 1, 73, 0
2, 444560, Note_on_c, 1, 75, 127
2, 444640, Note_off_c, 1, 47, 0
2, 444640, Note_off_c, 1, 71, 0
2, 444640, Note_off_c, 1, 75, 0
2, 444680, Note_on_c, 1, 40, 127
2, 444680, Note_on_c, 1, 69, 127
2, 444680, Note_on_c, 1, 76, 127
2, 445080, Note_on_c, 1, 47, 127
2, 445280, Note_off_c, 1, 76, 0
2, 445320, Note_on_c, 1, 78, 127
2, 445360, Note_off_c, 1, 78, 0
2, 445400, Note_on_c, 1, 75, 127
2, 445480, Note_off_c, 1, 47, 0
2, 445480, Note_off_c, 1, 69, 0
2, 445480, Note_off_c, 1, 75, 0
2, 445520, Note_on_c, 1, 52, 127
2, 445520, Note_on_c, 1, 69, 127
2, 445520, Note_on_c, 1, 75, 127
2, 446280, Note_off_c, 1, 69, 0
2, 446280, Note_off_c, 1, 75, 0
2, 446320, Note_on_c, 1, 68, 127
2, 446320, Note_on_c, 1, 76, 127
2, 446400, Note_off_c, 1, 68, 0
2, 446440, Note_on_c, 1, 69, 127
2, 446480, Note_off_c, 1, 69, 0
2, 446520, Note_on_c, 1, 68, 127
2, 446560, Note_off_c, 1, 68, 0
2, 446600, Note_on_c, 1, 69, 127
2, 446640, Note_off_c, 1, 69, 0
2, 446680, Note_on_c, 1, 68, 127
2, 447160, Note_off_c, 1, 40, 0
2, 447160, Note_off_c, 1, 52, 0
2, 447160, Note_off_c, 1, 68, 0
2, 447160, Note_off_c, 1, 76, 0
2, 447200, Note_on_c, 1, 50, 127
2, 447200, Note_on_c, 1, 59, 127
2, 447200, Note_on_c, 1, 64, 127
2, 447200, Note_on_c, 1, 68, 127
2, 447760, Note_off_c, 1, 68, 0
2, 447800, Note_on_c, 1, 69, 127
2, 447880, Note_off_c, 1, 69, 0
2, 447920, Note_on_c, 1, 71, 127
2, 448000, Note_off_c, 1, 71, 0
2, 448040, Note_on_c, 1, 69, 127
2, 448400, Note_off_c, 1, 69, 0
2, 448440, Note_on_c, 1, 68, 127
2, 448800, Note_off_c, 1, 68, 0
2, 448840, Note_on_c, 1, 68, 127
2, 448880, Note_off_c, 1, 68, 0
2, 448920, Note_on_c, 1, 66, 127
2, 448960, Note_off_c, 1, 66, 0
2, 449000, Note_on_c, 1, 68, 127
2, 449040, Note_on_c, 1, 66, 127
2, 449040, Note_off_c, 1, 68, 0
2, 449240, Note_off_c, 1, 64, 0
2, 449240, Note_off_c, 1, 66, 0
2, 449280, Note_on_c, 1, 64, 127
2, 449640, Note_off_c, 1, 50, 0
2, 449640, Note_off_c, 1, 59, 0
2, 449640, Note_off_c, 1, 64, 0
2, 449680, Note_on_c, 1, 49, 127
2, 449680, Note_on_c, 1, 57, 127
2, 449680, Note_on_c, 1, 67, 127
2, 449680, Note_on_c, 1, 76, 127
2, 450040, Note_off_c, 1, 67, 0
2, 450040, Note_off_c, 1, 76, 0
2, 450080, Note_on_c, 1, 66, 127
2, 450080, Note_on_c, 1, 74, 127
2, 450480, Note_off_c, 1, 66, 0
2, 450480, Note_off_c, 1, 74, 0
2, 450520, Note_on_c, 1, 66, 127
2, 450520, Note_on_c, 1, 74, 127
2, 450680, Note_off_c, 1, 49, 0
2, 450680, Note_off_c, 1, 57, 0
2, 450720, Note_on_c, 1, 50, 127
2, 450880, Note_off_c, 1, 50, 0
2, 450920, Note_on_c, 1, 52, 127
2, 451080, Note_off_c, 1, 52, 0
2, 451120, Note_on_c, 1, 50, 127
2, 451280, Note_off_c, 1, 50, 0
2, 451280, Note_off_c, 1, 66, 0
2, 451280, Note_off_c, 1, 74, 0
2, 451320, Note_on_c, 1, 49, 127
2, 451320, Note_on_c, 1, 67, 127
2, 451320, Note_on_c, 1, 76, 127
2, 451520, Note_off_c, 1, 49, 0
2, 451560, Note_on_c, 1, 47, 127
2, 451720, Note_off_c, 1, 47, 0
2, 451760, Note_on_c, 1, 46, 127
2, 451920, Note_off_c, 1, 46, 0
2, 451960, Note_on_c, 1, 47, 127
2, 452120, Note_off_c, 1, 47, 0
2, 452120, Note_off_c, 1, 67, 0
2, 452160, Note_on_c, 1, 46, 127
2, 452160, Note_on_c, 1, 66, 127
2, 452760, Note_off_c, 1, 76, 0
2, 452800, Note_on_c, 1, 78, 127
2, 452840, Note_off_c, 1, 78, 0
2, 452880, Note_on_c, 1, 79, 127
2, 452960, Note_off_c, 1, 79, 0
2, 453000, Note_on_c, 1, 49, 127
2, 453000, Note_on_c, 1, 78, 127
2, 453360, Note_off_c, 1, 78, 0
2, 453400, Note_on_c, 1, 76, 127
2, 453760, Note_off_c, 1, 49, 0
2, 453760, Note_off_c, 1, 76, 0
2, 453800, Note_on_c, 1, 54, 127
2, 453800, Note_on_c, 1, 76, 127
2, 453840, Note_off_c, 1, 76, 0
2, 453880, Note_on_c, 1, 74, 127
2, 453920, Note_off_c, 1, 74, 0
2, 453960, Note_on_c, 1, 76, 127
2, 454000, Note_off_c, 1, 76, 0
2, 454040, Note_on_c, 1, 74, 127
2, 454200, Note_off_c, 1, 74, 0
2, 454240, Note_on_c, 1, 73, 127
2, 454600, Note_off_c, 1, 46, 0
2, 454600, Note_off_c, 1, 73, 0
2, 454640, Note_on_c, 1, 47, 127
2, 454640, Note_on_c, 1, 74, 127
2, 455000, Note_off_c, 1, 66, 0
2, 455000, Note_off_c, 1, 74, 0
2, 455040, Note_on_c, 1, 64, 127
2, 455040, Note_on_c, 1, 70, 127
2, 455040, Note_on_c, 1, 73, 127
2, 455440, Note_off_c, 1, 54, 0
2, 455440, Note_off_c, 1, 64, 0
2, 455440, Note_off_c, 1, 70, 0
2, 455440, Note_off_c, 1, 73, 0
2, 455480, Note_on_c, 1, 59, 127
2, 455480, Note_on_c, 1, 66, 127
2, 455480, Note_on_c, 1, 70, 127
2, 455480, Note_on_c, 1, 73, 127
2, 455640, Note_off_c, 1, 47, 0
2, 455680, Note_on_c, 1, 49, 127
2, 455840, Note_off_c, 1, 49, 0
2, 455880, Note_on_c, 1, 50, 127
2, 456040, Note_off_c, 1, 50, 0
2, 456080, Note_on_c, 1, 49, 127
2, 456240, Note_off_c, 1, 49, 0
2, 456240, Note_off_c, 1, 59, 0
2, 456240, Note_off_c, 1, 70, 0
2, 456240, Note_off_c, 1, 73, 0
2, 456280, Note_on_c, 1, 47, 127
2, 456280, Note_on_c, 1, 71, 127
2, 456280, Note_on_c, 1, 74, 127
2, 456480, Note_off_c, 1, 47, 0
2, 456520, Note_on_c, 1, 45, 127
2, 456680, Note_off_c, 1, 45, 0
2, 456720, Note_on_c, 1, 43, 127
2, 456880, Note_off_c, 1, 43, 0
2, 456920, Note_on_c, 1, 45, 127
2, 457000, Note_off_c, 1, 45, 0
2, 457040, Note_on_c, 1, 47, 127
2, 457080, Note_off_c, 1, 47, 0
2, 457080, Note_off_c, 1, 66, 0
2, 457080, Note_off_c, 1, 71, 0
2, 457080, Note_off_c, 1, 74, 0
2, 457160, Note_on_c, 1, 40, 127
2, 457160, Note_on_c, 1, 67, 127
2, 457160, Note_on_c, 1, 72, 127
2, 457720, Note_off_c, 1, 72, 0
2, 457760, Note_on_c, 1, 74, 127
2, 457840, Note_off_c, 1, 74, 0
2, 457880, Note_on_c, 1, 76, 127
2, 457920, Note_off_c, 1, 40, 0
2, 457920, Note_off_c, 1, 76, 0
2, 457960, Note_on_c, 1, 52, 127
2, 457960, Note_on_c, 1, 74, 127
2, 458360, Note_off_c, 1, 74, 0
2, 458400, Note_on_c, 1, 72, 127
2, 458760, Note_off_c, 1, 52, 0
2, 458760, Note_off_c, 1, 67, 0
2, 458760, Note_off_c, 1, 72, 0
2, 458800, Note_on_c, 1, 55, 127
2, 458800, Note_on_c, 1, 66, 127
2, 458800, Note_on_c, 1, 72, 127
2, 458880, Note_off_c, 1, 55, 0
2, 458920, Note_on_c, 1, 54, 127
2, 458960, Note_off_c, 1, 54, 0
2, 458960, Note_off_c, 1, 72, 0
2, 459000, Note_on_c, 1, 52, 127
2, 459000, Note_on_c, 1, 71, 127
2, 459080, Note_off_c, 1, 52, 0
2, 459120, Note_on_c, 1, 54, 127
2, 459160, Note_off_c, 1, 54, 0
2, 459160, Note_off_c, 1, 71, 0
2, 459200, Note_on_c, 1, 55, 127
2, 459200, Note_on_c, 1, 73, 127
2, 459280, Note_off_c, 1, 55, 0
2, 459320, Note_on_c, 1, 54, 127
2, 459360, Note_off_c, 1, 73, 0
2, 459400, Note_off_c, 1, 54, 0
2, 459440, Note_on_c, 1, 52, 127
2, 459440, Note_on_c, 1, 70, 127
2, 459480, Note_off_c, 1, 52, 0
2, 459520, Note_on_c, 1, 54, 127
2, 459560, Note_off_c, 1, 66, 0
2, 459600, Note_off_c, 1, 54, 0
2, 459600, Note_off_c, 1, 70, 0
2, 459640, Note_on_c, 1, 55, 127
2, 459640, Note_on_c, 1, 64, 127
2, 459640, Note_on_c, 1, 71, 127
2, 460200, Note_off_c, 1, 64, 0
2, 460240, Note_on_c, 1, 66, 127
2, 460320, Note_off_c, 1, 66, 0
2, 460360, Note_on_c, 1, 67, 127
2, 460400, Note_off_c, 1, 55, 0
2, 460400, Note_off_c, 1, 67, 0
2, 460440, Note_on_c, 1, 50, 127
2, 460440, Note_on_c, 1, 66, 127
2, 460840, Note_off_c, 1, 66, 0
2, 460880, Note_on_c, 1, 64, 127
2, 461240, Note_off_c, 1, 50, 0
2, 461240, Note_off_c, 1, 64, 0
2, 461280, Note_on_c, 1, 52, 127
2, 461280, Note_on_c, 1, 62, 127
2, 461640, Note_off_c, 1, 62, 0
2, 461680, Note_on_c, 1, 61, 127
2, 462080, Note_off_c, 1, 52, 0
2, 462080, Note_off_c, 1, 61, 0
2, 462120, Note_on_c, 1, 54, 127
2, 462120, Note_on_c, 1, 62, 127
2, 462680, Note_off_c, 1, 62, 0
2, 462680, Note_off_c, 1, 71, 0
2, 462720, Note_on_c, 1, 64, 127
2, 462720, Note_on_c, 1, 73, 127
2, 462800, Note_off_c, 1, 64, 0
2, 462800, Note_off_c, 1, 73, 0
2, 462840, Note_on_c, 1, 66, 127
2, 462840, Note_on_c, 1, 74, 127
2, 462880, Note_off_c, 1, 66, 0
2, 462880, Note_off_c, 1, 74, 0
2, 462920, Note_on_c, 1, 61, 127
2, 462920, Note_on_c, 1, 66, 127
2, 463320, Note_off_c, 1, 61, 0
2, 463360, Note_on_c, 1, 64, 127
2, 463480, Note_off_c, 1, 66, 0
2, 463520, Note_off_c, 1, 64, 0
2, 463560, Note_on_c, 1, 62, 127
2, 463560, Note_on_c, 1, 71, 127
2, 463720, Note_off_c, 1, 62, 0
2, 463720, Note_off_c, 1, 71, 0
2, 463760, Note_on_c, 1, 64, 127
2, 463760, Note_on_c, 1, 71, 127
2, 463840, Note_off_c, 1, 71, 0
2, 463880, Note_on_c, 1, 70, 127
2, 463920, Note_off_c, 1, 70, 0
2, 463960, Note_on_c, 1, 71, 127
2, 464000, Note_off_c, 1, 71, 0
2, 464040, Note_on_c, 1, 70, 127
2, 464080, Note_off_c, 1, 70, 0
2, 464120, Note_on_c, 1, 71, 127
2, 464160, Note_on_c, 1, 70, 127
2, 464160, Note_off_c, 1, 71, 0
2, 464360, Note_off_c, 1, 70, 0
2, 464400, Note_on_c, 1, 74, 127
2, 464560, Note_off_c, 1, 54, 0
2, 464560, Note_off_c, 1, 74, 0
2, 464600, Note_on_c, 1, 59, 127
2, 464600, Note_on_c, 1, 73, 127
2, 464960, Note_off_c, 1, 64, 0
2, 464960, Note_off_c, 1, 73, 0
2, 465000, Note_on_c, 1, 67, 127
2, 465000, Note_on_c, 1, 71, 127
2, 465160, Note_off_c, 1, 67, 0
2, 465200, Note_on_c, 1, 66, 127
2, 465360, Note_off_c, 1, 66, 0
2, 465360, Note_off_c, 1, 71, 0
2, 465400, Note_on_c, 1, 64, 127
2, 465400, Note_on_c, 1, 71, 127
2, 465640, Note_on_c, 1, 55, 127
2, 465800, Note_off_c, 1, 55, 0
2, 465800, Note_off_c, 1, 59, 0
2, 465840, Note_on_c, 1, 54, 127
2, 466000, Note_off_c, 1, 54, 0
2, 466040, Note_on_c, 1, 52, 127
2, 466200, Note_off_c, 1, 52, 0
2, 466200, Note_off_c, 1, 64, 0
2, 466240, Note_on_c, 1, 50, 127
2, 466240, Note_on_c, 1, 62, 127
2, 466400, Note_off_c, 1, 50, 0
2, 466440, Note_on_c, 1, 49, 127
2, 466600, Note_off_c, 1, 49, 0
2, 466640, Note_on_c, 1, 47, 127
2, 466840, Note_off_c, 1, 47, 0
2, 466880, Note_on_c, 1, 49, 127
2, 466960, Note_off_c, 1, 49, 0
2, 467000, Note_on_c, 1, 50, 127
2, 467040, Note_off_c, 1, 62, 0
2, 467040, Note_off_c, 1, 71, 0
2, 467080, Note_off_c, 1, 50, 0
2, 467120, Note_on_c, 1, 41, 127
2, 467120, Note_on_c, 1, 61, 127
2, 467680, Note_off_c, 1, 61, 0
2, 467720, Note_on_c, 1, 73, 127
2, 467800, Note_off_c, 1, 73, 0
2, 467840, Note_on_c, 1, 74, 127
2, 467880, Note_off_c, 1, 41, 0
2, 467880, Note_off_c, 1, 74, 0
2, 467920, Note_on_c, 1, 53, 127
2, 467920, Note_on_c, 1, 73, 127
2, 468320, Note_off_c, 1, 73, 0
2, 468360, Note_on_c, 1, 71, 127
2, 468720, Note_off_c, 1, 53, 0
2, 468720, Note_off_c, 1, 71, 0
2, 468760, Note_on_c, 1, 49, 127
2, 468760, Note_on_c, 1, 71, 127
2, 468800, Note_off_c, 1, 71, 0
2, 468840, Note_on_c, 1, 69, 127
2, 468880, Note_off_c, 1, 69, 0
2, 468880, Note_on_c, 1, 71, 127
2, 468920, Note_off_c, 1, 71, 0
2, 468960, Note_on_c, 1, 69, 127
2, 469000, Note_off_c, 1, 69, 0
2, 469040, Note_on_c, 1, 71, 127
2, 469080, Note_off_c, 1, 71, 0
2, 469120, Note_on_c, 1, 69, 127
2, 469200, Note_off_c, 1, 69, 0
2, 469240, Note_on_c, 1, 68, 127
2, 469560, Note_off_c, 1, 49, 0
2, 469560, Note_off_c, 1, 68, 0
2, 469600, Note_on_c, 1, 54, 127
2, 469600, Note_on_c, 1, 69, 127
2, 469760, Note_off_c, 1, 69, 0
2, 469800, Note_on_c, 1, 68, 127
2, 469960, Note_off_c, 1, 68, 0
2, 470000, Note_on_c, 1, 66, 127
2, 470160, Note_off_c, 1, 66, 0
2, 470200, Note_on_c, 1, 65, 127
2, 470360, Note_off_c, 1, 65, 0
2, 470400, Note_on_c, 1, 66, 127
2, 470600, Note_off_c, 1, 66, 0
2, 470640, Note_on_c, 1, 68, 127
2, 470800, Note_off_c, 1, 54, 0
2, 470800, Note_off_c, 1, 68, 0
2, 470840, Note_on_c, 1, 55, 127
2, 470840, Note_on_c, 1, 69, 127
2, 471000, Note_off_c, 1, 55, 0
2, 471000, Note_off_c, 1, 69, 0
2, 471040, Note_on_c, 1, 54, 127
2, 471040, Note_on_c, 1, 71, 127
2, 471200, Note_off_c, 1, 54, 0
2, 471200, Note_off_c, 1, 71, 0
2, 471240, Note_on_c, 1, 52, 127
2, 471240, Note_on_c, 1, 73, 127
2, 471400, Note_off_c, 1, 52, 0
2, 471400, Note_off_c, 1, 73, 0
2, 471440, Note_on_c, 1, 50, 127
2, 471440, Note_on_c, 1, 74, 127
2, 471600, Note_off_c, 1, 50, 0
2, 471600, Note_off_c, 1, 74, 0
2, 471640, Note_on_c, 1, 49, 127
2, 471640, Note_on_c, 1, 76, 127
2, 471840, Note_off_c, 1, 49, 0
2, 471840, Note_off_c, 1, 76, 0
2, 471880, Note_on_c, 1, 50, 127
2, 471880, Note_on_c, 1, 78, 127
2, 472040, Note_off_c, 1, 50, 0
2, 472040, Note_off_c, 1, 78, 0
2, 472080, Note_on_c, 1, 49, 127
2, 472080, Note_on_c, 1, 81, 127
2, 472400, Note_off_c, 1, 81, 0
2, 472440, Note_on_c, 1, 79, 127
2, 472640, Note_off_c, 1, 79, 0
2, 472680, Note_on_c, 1, 81, 127
2, 472760, Note_off_c, 1, 81, 0
2, 472800, Note_on_c, 1, 83, 127
2, 472840, Note_off_c, 1, 83, 0
2, 472920, Note_on_c, 1, 52, 127
2, 472920, Note_on_c, 1, 81, 127
2, 473280, Note_off_c, 1, 81, 0
2, 473320, Note_on_c, 1, 79, 127
2, 473680, Note_off_c, 1, 52, 0
2, 473680, Note_off_c, 1, 79, 0
2, 473720, Note_on_c, 1, 57, 127
2, 473720, Note_on_c, 1, 79, 127
2, 473760, Note_off_c, 1, 79, 0
2, 473800, Note_on_c, 1, 78, 127
2, 473840, Note_off_c, 1, 78, 0
2, 473880, Note_on_c, 1, 79, 127
2, 473920, Note_on_c, 1, 78, 127
2, 473920, Note_off_c, 1, 79, 0
2, 474080, Note_off_c, 1, 78, 0
2, 474160, Note_on_c, 1, 76, 127
2, 474160, Note_on_c, 1, 79, 127
2, 474520, Note_off_c, 1, 49, 0
2, 474520, Note_off_c, 1, 76, 0
2, 474520, Note_off_c, 1, 79, 0
2, 474560, Note_on_c, 1, 50, 127
2, 474560, Note_on_c, 1, 76, 127
2, 474560, Note_on_c, 1, 79, 127
2, 474920, Note_off_c, 1, 76, 0
2, 474920, Note_off_c, 1, 79, 0
2, 474960, Note_on_c, 1, 74, 127
2, 474960, Note_on_c, 1, 78, 127
2, 475360, Note_off_c, 1, 57, 0
2, 475360, Note_off_c, 1, 74, 0
2, 475360, Note_off_c, 1, 78, 0
2, 475400, Note_on_c, 1, 74, 127
2, 475400, Note_on_c, 1, 79, 127
2, 475440, Note_off_c, 1, 50, 0
2, 475480, Note_on_c, 1, 45, 127
2, 475480, Note_off_c, 1, 79, 0
2, 475520, Note_on_c, 1, 78, 127
2, 475560, Note_off_c, 1, 45, 0
2, 475560, Note_off_c, 1, 78, 0
2, 475600, Note_on_c, 1, 47, 127
2, 475600, Note_on_c, 1, 79, 127
2, 475640, Note_off_c, 1, 47, 0
2, 475640, Note_on_c, 1, 78, 127
2, 475640, Note_off_c, 1, 79, 0
2, 475680, Note_on_c, 1, 49, 127
2, 475680, Note_off_c, 1, 78, 0
2, 475720, Note_on_c, 1, 79, 127
2, 475760, Note_off_c, 1, 49, 0
2, 475760, Note_off_c, 1, 79, 0
2, 475800, Note_on_c, 1, 50, 127
2, 475800, Note_on_c, 1, 78, 127
2, 475840, Note_off_c, 1, 50, 0
2, 475840, Note_off_c, 1, 78, 0
2, 475880, Note_on_c, 1, 52, 127
2, 475880, Note_on_c, 1, 79, 127
2, 475920, Note_on_c, 1, 78, 127
2, 475920, Note_off_c, 1, 79, 0
2, 475960, Note_off_c, 1, 52, 0
2, 475960, Note_off_c, 1, 78, 0
2, 476000, Note_on_c, 1, 54, 127
2, 476000, Note_on_c, 1, 79, 127
2, 476040, Note_off_c, 1, 79, 0
2, 476080, Note_off_c, 1, 54, 0
2, 476080, Note_on_c, 1, 78, 127
2, 476120, Note_on_c, 1, 55, 127
2, 476160, Note_off_c, 1, 55, 0
2, 476200, Note_on_c, 1, 57, 127
2, 476280, Note_off_c, 1, 57, 0
2, 476320, Note_on_c, 1, 59, 127
2, 476360, Note_off_c, 1, 59, 0
2, 476400, Note_on_c, 1, 61, 127
2, 476480, Note_off_c, 1, 61, 0
2, 476520, Note_on_c, 1, 62, 127
2, 476560, Note_off_c, 1, 62, 0
2, 476600, Note_on_c, 1, 61, 127
2, 476680, Note_off_c, 1, 61, 0
2, 476720, Note_on_c, 1, 59, 127
2, 476800, Note_off_c, 1, 59, 0
2, 476840, Note_on_c, 1, 61, 127
2, 476880, Note_off_c, 1, 61, 0
2, 476920, Note_on_c, 1, 57, 127
2, 477000, Note_off_c, 1, 57, 0
2, 477000, Note_off_c, 1, 74, 0
2, 477000, Note_off_c, 1, 78, 0
2, 477040, Note_on_c, 1, 62, 127
2, 477040, Note_on_c, 1, 71, 127
2, 477040, Note_on_c, 1, 76, 127
2, 477040, Note_on_c, 1, 80, 127
2, 477600, Note_off_c, 1, 80, 0
2, 477640, Note_on_c, 1, 81, 127
2, 477720, Note_off_c, 1, 81, 0
2, 477760, Note_on_c, 1, 83, 127
2, 477800, Note_off_c, 1, 62, 0
2, 477800, Note_off_c, 1, 71, 0
2, 477800, Note_off_c, 1, 83, 0
2, 477840, Note_on_c, 1, 61, 127
2, 477840, Note_on_c, 1, 64, 127
2, 477840, Note_on_c, 1, 81, 127
2, 478240, Note_off_c, 1, 81, 0
2, 478280, Note_on_c, 1, 80, 127
2, 478640, Note_off_c, 1, 61, 0
2, 478640, Note_off_c, 1, 64, 0
2, 478640, Note_off_c, 1, 76, 0
2, 478640, Note_off_c, 1, 80, 0
2, 478680, Note_on_c, 1, 57, 127
2, 478680, Note_on_c, 1, 69, 127
2, 478680, Note_on_c, 1, 73, 127
2, 478680, Note_on_c, 1, 80, 127
2, 478840, Note_off_c, 1, 80, 0
2, 478880, Note_on_c, 1, 78, 127
2, 479040, Note_off_c, 1, 69, 0
2, 479040, Note_off_c, 1, 78, 0
2, 479080, Note_on_c, 1, 68, 127
2, 479080, Note_on_c, 1, 76, 127
2, 479480, Note_off_c, 1, 57, 0
2, 479480, Note_off_c, 1, 68, 0
2, 479480, Note_off_c, 1, 73, 0
2, 479480, Note_off_c, 1, 76, 0
2, 479520, Note_on_c, 1, 59, 127
2, 479520, Note_on_c, 1, 66, 127
2, 479520, Note_on_c, 1, 71, 127
2, 479520, Note_on_c, 1, 74, 127
2, 479560, Note_off_c, 1, 74, 0
2, 479600, Note_on_c, 1, 73, 127
2, 479680, Note_off_c, 1, 73, 0
2, 479720, Note_on_c, 1, 74, 127
2, 480120, Note_off_c, 1, 74, 0
2, 480120, Note_on_c, 1, 76, 127
2, 480200, Note_off_c, 1, 76, 0
2, 480240, Note_on_c, 1, 78, 127
2, 480280, Note_off_c, 1, 59, 0
2, 480280, Note_off_c, 1, 66, 0
2, 480280, Note_off_c, 1, 78, 0
2, 480360, Note_on_c, 1, 56, 127
2, 480360, Note_on_c, 1, 59, 127
2, 480360, Note_on_c, 1, 76, 127
2, 480720, Note_off_c, 1, 76, 0
2, 480760, Note_on_c, 1, 74, 127
2, 481120, Note_off_c, 1, 56, 0
2, 481120, Note_off_c, 1, 59, 0
2, 481120, Note_off_c, 1, 71, 0
2, 481120, Note_off_c, 1, 74, 0
2, 481160, Note_on_c, 1, 52, 127
2, 481160, Note_on_c, 1, 64, 127
2, 481160, Note_on_c, 1, 68, 127
2, 481160, Note_on_c, 1, 74, 127
2, 481200, Note_off_c, 1, 74, 0
2, 481240, Note_on_c, 1, 73, 127
2, 481280, Note_off_c, 1, 73, 0
2, 481320, Note_on_c, 1, 74, 127
2, 481360, Note_on_c, 1, 73, 127
2, 481360, Note_off_c, 1, 74, 0
2, 481520, Note_off_c, 1, 64, 0
2, 481520, Note_off_c, 1, 73, 0
2, 481600, Note_on_c, 1, 62, 127
2, 481600, Note_on_c, 1, 71, 127
2, 481960, Note_off_c, 1, 52, 0
2, 481960, Note_off_c, 1, 62, 0
2, 481960, Note_off_c, 1, 68, 0
2, 481960, Note_off_c, 1, 71, 0
2, 482000, Note_on_c, 1, 54, 127
2, 482000, Note_on_c, 1, 61, 127
2, 482000, Note_on_c, 1, 66, 127
2, 482000, Note_on_c, 1, 69, 127
2, 482560, Note_off_c, 1, 69, 0
2, 482600, Note_on_c, 1, 71, 127
2, 482680, Note_off_c, 1, 71, 0
2, 482720, Note_on_c, 1, 73, 127
2, 482760, Note_off_c, 1, 54, 0
2, 482760, Note_off_c, 1, 61, 0
2, 482760, Note_off_c, 1, 73, 0
2, 482840, Note_on_c, 1, 51, 127
2, 482840, Note_on_c, 1, 54, 127
2, 482840, Note_on_c, 1, 71, 127
2, 483200, Note_off_c, 1, 71, 0
2, 483240, Note_on_c, 1, 69, 127
2, 483600, Note_off_c, 1, 51, 0
2, 483600, Note_off_c, 1, 54, 0
2, 483600, Note_off_c, 1, 66, 0
2, 483600, Note_off_c, 1, 69, 0
2, 483640, Note_on_c, 1, 47, 127
2, 483640, Note_on_c, 1, 59, 127
2, 483640, Note_on_c, 1, 63, 127
2, 483640, Note_on_c, 1, 68, 127
2, 483800, Note_off_c, 1, 68, 0
2, 483840, Note_on_c, 1, 69, 127
2, 484040, Note_off_c, 1, 69, 0
2, 484080, Note_on_c, 1, 68, 127
2, 484240, Note_off_c, 1, 68, 0
2, 484280, Note_on_c, 1, 69, 127
2, 484440, Note_off_c, 1, 47, 0
2, 484440, Note_off_c, 1, 59, 0
2, 484440, Note_off_c, 1, 63, 0
2, 484440, Note_off_c, 1, 69, 0
2, 484480, Note_on_c, 1, 52, 127
2, 484480, Note_on_c, 1, 59, 127
2, 484480, Note_on_c, 1, 64, 127
2, 484480, Note_on_c, 1, 69, 127
2, 484520, Note_off_c, 1, 52, 0
2, 484560, Note_off_c, 1, 69, 0
2, 484600, Note_on_c, 1, 40, 127
2, 484600, Note_on_c, 1, 68, 127
2, 484640, Note_off_c, 1, 40, 0
2, 484680, Note_on_c, 1, 42, 127
2, 484680, Note_off_c, 1, 68, 0
2, 484720, Note_on_c, 1, 69, 127
2, 484760, Note_off_c, 1, 42, 0
2, 484760, Note_off_c, 1, 69, 0
2, 484800, Note_on_c, 1, 44, 127
2, 484800, Note_on_c, 1, 68, 127
2, 484840, Note_off_c, 1, 44, 0
2, 484880, Note_on_c, 1, 45, 127
2, 484960, Note_off_c, 1, 45, 0
2, 485000, Note_on_c, 1, 47, 127
2, 485040, Note_off_c, 1, 47, 0
2, 485080, Note_on_c, 1, 49, 127
2, 485160, Note_off_c, 1, 49, 0
2, 485200, Note_on_c, 1, 50, 127
2, 485280, Note_off_c, 1, 50, 0
2, 485320, Note_on_c, 1, 52, 127
2, 485360, Note_off_c, 1, 52, 0
2, 485400, Note_on_c, 1, 54, 127
2, 485480, Note_off_c, 1, 54, 0
2, 485520, Note_on_c, 1, 56, 127
2, 485560, Note_off_c, 1, 56, 0
2, 485600, Note_on_c, 1, 57, 127
2, 485640, Note_off_c, 1, 68, 0
2, 485680, Note_off_c, 1, 57, 0
2, 485680, Note_off_c, 1, 59, 0
2, 485680, Note_off_c, 1, 64, 0
2, 485720, Note_on_c, 1, 59, 127
2, 485720, Note_on_c, 1, 66, 127
2, 485760, Note_off_c, 1, 59, 0
2, 485800, Note_on_c, 1, 61, 127
2, 485880, Note_off_c, 1, 61, 0
2, 485920, Note_on_c, 1, 62, 127
2, 486000, Note_off_c, 1, 62, 0
2, 486040, Note_on_c, 1, 61, 127
2, 486080, Note_off_c, 1, 61, 0
2, 486080, Note_off_c, 1, 66, 0
2, 486120, Note_on_c, 1, 59, 127
2, 486120, Note_on_c, 1, 64, 127
2, 486200, Note_off_c, 1, 59, 0
2, 486240, Note_on_c, 1, 57, 127
2, 486280, Note_off_c, 1, 57, 0
2, 486320, Note_on_c, 1, 56, 127
2, 486400, Note_off_c, 1, 56, 0
2, 486440, Note_on_c, 1, 54, 127
2, 486480, Note_off_c, 1, 54, 0
2, 486560, Note_on_c, 1, 52, 127
2, 486600, Note_off_c, 1, 52, 0
2, 486640, Note_on_c, 1, 50, 127
2, 486720, Note_off_c, 1, 50, 0
2, 486760, Note_on_c, 1, 49, 127
2, 486800, Note_off_c, 1, 49, 0
2, 486840, Note_on_c, 1, 47, 127
2, 486920, Note_off_c, 1, 47, 0
2, 486920, Note_off_c, 1, 64, 0
2, 486960, Note_on_c, 1, 45, 127
2, 486960, Note_on_c, 1, 73, 127
2, 487000, Note_off_c, 1, 73, 0
2, 487040, Note_on_c, 1, 71, 127
2, 487120, Note_off_c, 1, 71, 0
2, 487160, Note_on_c, 1, 73, 127
2, 487560, Note_off_c, 1, 73, 0
2, 487600, Note_on_c, 1, 74, 127
2, 487640, Note_off_c, 1, 74, 0
2, 487680, Note_on_c, 1, 76, 127
2, 487760, Note_off_c, 1, 76, 0
2, 487800, Note_on_c, 1, 74, 127
2, 488160, Note_off_c, 1, 74, 0
2, 488200, Note_on_c, 1, 73, 127
2, 488600, Note_off_c, 1, 45, 0
2, 488600, Note_off_c, 1, 73, 0
2, 488640, Note_on_c, 1, 73, 127
2, 488680, Note_on_c, 1, 71, 127
2, 488680, Note_off_c, 1, 73, 0
2, 488720, Note_off_c, 1, 71, 0
2, 488760, Note_on_c, 1, 73, 127
2, 488800, Note_off_c, 1, 73, 0
2, 488840, Note_on_c, 1, 71, 127
2, 489000, Note_off_c, 1, 71, 0
2, 489040, Note_on_c, 1, 69, 127
2, 489400, Note_off_c, 1, 69, 0
2, 489440, Note_on_c, 1, 49, 127
2, 489440, Note_on_c, 1, 69, 127
2, 489440, Note_on_c, 1, 76, 127
2, 489440, Note_on_c, 1, 79, 127
2, 489840, Note_off_c, 1, 76, 0
2, 489840, Note_off_c, 1, 79, 0
2, 489880, Note_on_c, 1, 74, 127
2, 489880, Note_on_c, 1, 78, 127
2, 490040, Note_off_c, 1, 49, 0
2, 490080, Note_on_c, 1, 50, 127
2, 490120, Note_off_c, 1, 50, 0
2, 490160, Note_on_c, 1, 52, 127
2, 490240, Note_off_c, 1, 52, 0
2, 490240, Note_off_c, 1, 69, 0
2, 490240, Note_off_c, 1, 74, 0
2, 490240, Note_off_c, 1, 78, 0
2, 490280, Note_on_c, 1, 50, 127
2, 490280, Note_on_c, 1, 69, 127
2, 490280, Note_on_c, 1, 74, 127
2, 490280, Note_on_c, 1, 78, 127
2, 490640, Note_off_c, 1, 50, 0
2, 490680, Note_on_c, 1, 49, 127
2, 491080, Note_off_c, 1, 49, 0
2, 491080, Note_off_c, 1, 74, 0
2, 491080, Note_off_c, 1, 78, 0
2, 491120, Note_on_c, 1, 49, 127
2, 491120, Note_on_c, 1, 76, 127
2, 491120, Note_on_c, 1, 79, 127
2, 491160, Note_off_c, 1, 49, 0
2, 491200, Note_on_c, 1, 47, 127
2, 491280, Note_off_c, 1, 47, 0
2, 491320, Note_on_c, 1, 49, 127
2, 491360, Note_off_c, 1, 49, 0
2, 491400, Note_on_c, 1, 47, 127
2, 491480, Note_off_c, 1, 47, 0
2, 491520, Note_on_c, 1, 45, 127
2, 491920, Note_off_c, 1, 45, 0
2, 491920, Note_off_c, 1, 69, 0
2, 491920, Note_off_c, 1, 76, 0
2, 491920, Note_off_c, 1, 79, 0
2, 491960, Note_on_c, 1, 57, 127
2, 491960, Note_on_c, 1, 74, 127
2, 491960, Note_on_c, 1, 78, 127
2, 492320, Note_off_c, 1, 57, 0
2, 492360, Note_on_c, 1, 56, 127
2, 492520, Note_off_c, 1, 78, 0
2, 492560, Note_on_c, 1, 79, 127
2, 492640, Note_off_c, 1, 79, 0
2, 492680, Note_on_c, 1, 81, 127
2, 492720, Note_off_c, 1, 56, 0
2, 492720, Note_off_c, 1, 74, 0
2, 492720, Note_off_c, 1, 81, 0
2, 492760, Note_on_c, 1, 57, 127
2, 492760, Note_on_c, 1, 79, 127
2, 493160, Note_off_c, 1, 79, 0
2, 493200, Note_on_c, 1, 78, 127
2, 493560, Note_off_c, 1, 78, 0
2, 493600, Note_on_c, 1, 78, 127
2, 493640, Note_off_c, 1, 78, 0
2, 493680, Note_on_c, 1, 76, 127
2, 493720, Note_off_c, 1, 76, 0
2, 493720, Note_on_c, 1, 78, 127
2, 493760, Note_off_c, 1, 78, 0
2, 493800, Note_on_c, 1, 76, 127
2, 493960, Note_off_c, 1, 76, 0
2, 494000, Note_on_c, 1, 74, 127
2, 494400, Note_off_c, 1, 57, 0
2, 494400, Note_off_c, 1, 74, 0
2, 494440, Note_on_c, 1, 44, 127
2, 494440, Note_on_c, 1, 74, 127
2, 494440, Note_on_c, 1, 76, 127
2, 494440, Note_on_c, 1, 83, 127
2, 494800, Note_off_c, 1, 74, 0
2, 494800, Note_off_c, 1, 83, 0
2, 494840, Note_on_c, 1, 73, 127
2, 494840, Note_on_c, 1, 81, 127
2, 495000, Note_off_c, 1, 44, 0
2, 495040, Note_on_c, 1, 45, 127
2, 495120, Note_off_c, 1, 45, 0
2, 495160, Note_on_c, 1, 47, 127
2, 495200, Note_off_c, 1, 47, 0
2, 495200, Note_off_c, 1, 73, 0
2, 495200, Note_off_c, 1, 81, 0
2, 495240, Note_on_c, 1, 45, 127
2, 495240, Note_on_c, 1, 73, 127
2, 495240, Note_on_c, 1, 81, 127
2, 495640, Note_off_c, 1, 45, 0
2, 495680, Note_on_c, 1, 44, 127
2, 496040, Note_off_c, 1, 44, 0
2, 496040, Note_off_c, 1, 73, 0
2, 496040, Note_off_c, 1, 81, 0
2, 496080, Note_on_c, 1, 44, 127
2, 496080, Note_on_c, 1, 74, 127
2, 496080, Note_on_c, 1, 83, 127
2, 496160, Note_off_c, 1, 44, 0
2, 496200, Note_on_c, 1, 42, 127
2, 496240, Note_off_c, 1, 42, 0
2, 496280, Note_on_c, 1, 44, 127
2, 496360, Note_off_c, 1, 44, 0
2, 496400, Note_on_c, 1, 42, 127
2, 496440, Note_off_c, 1, 42, 0
2, 496480, Note_on_c, 1, 40, 127
2, 496880, Note_off_c, 1, 40, 0
2, 496880, Note_off_c, 1, 76, 0
2, 496920, Note_on_c, 1, 48, 127
2, 497280, Note_off_c, 1, 83, 0
2, 497320, Note_off_c, 1, 48, 0
2, 497360, Note_on_c, 1, 47, 127
2, 497360, Note_on_c, 1, 80, 127
2, 497520, Note_off_c, 1, 74, 0
2, 497560, Note_on_c, 1, 76, 127
2, 497600, Note_off_c, 1, 76, 0
2, 497640, Note_on_c, 1, 77, 127
2, 497720, Note_off_c, 1, 47, 0
2, 497720, Note_off_c, 1, 77, 0
2, 497720, Note_off_c, 1, 80, 0
2, 497760, Note_on_c, 1, 48, 127
2, 497760, Note_on_c, 1, 76, 127
2, 497760, Note_on_c, 1, 81, 127
2, 498160, Note_off_c, 1, 76, 0
2, 498200, Note_on_c, 1, 74, 127
2, 498560, Note_off_c, 1, 48, 0
2, 498560, Note_off_c, 1, 74, 0
2, 498600, Note_on_c, 1, 74, 127
2, 498640, Note_off_c, 1, 74, 0
2, 498680, Note_on_c, 1, 72, 127
2, 498720, Note_off_c, 1, 72, 0
2, 498760, Note_on_c, 1, 74, 127
2, 498800, Note_off_c, 1, 74, 0
2, 498840, Note_on_c, 1, 72, 127
2, 499000, Note_off_c, 1, 72, 0
2, 499040, Note_on_c, 1, 71, 127
2, 499400, Note_off_c, 1, 71, 0
2, 499440, Note_on_c, 1, 53, 127
2, 499440, Note_on_c, 1, 72, 127
2, 499840, Note_off_c, 1, 53, 0
2, 499840, Note_off_c, 1, 81, 0
2, 499880, Note_on_c, 1, 52, 127
2, 499880, Note_on_c, 1, 80, 127
2, 500040, Note_off_c, 1, 72, 0
2, 500080, Note_on_c, 1, 74, 127
2, 500160, Note_off_c, 1, 74, 0
2, 500200, Note_on_c, 1, 76, 127
2, 500240, Note_off_c, 1, 52, 0
2, 500240, Note_off_c, 1, 80, 0
2, 500280, Note_on_c, 1, 53, 127
2, 500280, Note_on_c, 1, 74, 127
2, 500280, Note_off_c, 1, 76, 0
2, 500280, Note_on_c, 1, 80, 127
2, 500680, Note_off_c, 1, 74, 0
2, 500720, Note_on_c, 1, 72, 127
2, 501080, Note_off_c, 1, 53, 0
2, 501080, Note_off_c, 1, 72, 0
2, 501080, Note_off_c, 1, 80, 0
2, 501120, Note_on_c, 1, 52, 127
2, 501120, Note_on_c, 1, 72, 127
2, 501120, Note_on_c, 1, 81, 127
2, 501160, Note_off_c, 1, 72, 0
2, 501200, Note_off_c, 1, 52, 0
2, 501200, Note_on_c, 1, 71, 127
2, 501240, Note_on_c, 1, 51, 127
2, 501240, Note_off_c, 1, 71, 0
2, 501280, Note_on_c, 1, 72, 127
2, 501320, Note_off_c, 1, 51, 0
2, 501320, Note_off_c, 1, 72, 0
2, 501360, Note_on_c, 1, 52, 127
2, 501360, Note_on_c, 1, 71, 127
2, 501440, Note_off_c, 1, 52, 0
2, 501520, Note_on_c, 1, 51, 127
2, 501520, Note_off_c, 1, 71, 0
2, 501560, Note_on_c, 1, 69, 127
2, 501880, Note_off_c, 1, 51, 0
2, 501960, Note_off_c, 1, 69, 0
2, 502000, Note_on_c, 1, 74, 127
2, 502040, Note_off_c, 1, 74, 0
2, 502080, Note_on_c, 1, 76, 127
2, 502120, Note_off_c, 1, 76, 0
2, 502160, Note_on_c, 1, 77, 127
2, 502400, Note_off_c, 1, 77, 0
2, 502440, Note_on_c, 1, 76, 127
2, 502840, Note_off_c, 1, 76, 0
2, 502880, Note_on_c, 1, 52, 127
2, 502880, Note_on_c, 1, 74, 127
2, 502920, Note_off_c, 1, 74, 0
2, 502960, Note_off_c, 1, 52, 0
2, 502960, Note_on_c, 1, 72, 127
2, 503000, Note_on_c, 1, 51, 127
2, 503040, Note_off_c, 1, 72, 0
2, 503080, Note_off_c, 1, 51, 0
2, 503080, Note_on_c, 1, 71, 127
2, 503120, Note_on_c, 1, 52, 127
2, 503120, Note_off_c, 1, 71, 0
2, 503160, Note_on_c, 1, 72, 127
2, 503200, Note_off_c, 1, 72, 0
2, 503240, Note_on_c, 1, 74, 127
2, 503280, Note_off_c, 1, 74, 0
2, 503360, Note_on_c, 1, 72, 127
2, 503400, Note_off_c, 1, 72, 0
2, 503440, Note_on_c, 1, 74, 127
2, 503480, Note_off_c, 1, 74, 0
2, 503520, Note_on_c, 1, 72, 127
2, 503680, Note_off_c, 1, 81, 0
2, 503720, Note_off_c, 1, 72, 0
2, 503760, Note_on_c, 1, 40, 127
2, 503760, Note_off_c, 1, 52, 0
2, 503760, Note_on_c, 1, 71, 127
2, 503760, Note_on_c, 1, 80, 127
2, 504160, Note_off_c, 1, 71, 0
2, 504200, Note_on_c, 1, 69, 127
2, 504640, Note_off_c, 1, 40, 0
2, 504640, Note_off_c, 1, 69, 0
2, 504640, Note_off_c, 1, 80, 0
2, 504680, Note_on_c, 1, 45, 127
2, 504680, Note_on_c, 1, 69, 127
2, 504680, Note_on_c, 1, 81, 127
2, 505200, Note_on_c, 1, 49, 127
2, 505400, Note_off_c, 1, 49, 0
2, 505440, Note_on_c, 1, 52, 127
2, 505640, Note_off_c, 1, 52, 0
2, 505640, Note_off_c, 1, 69, 0
2, 505640, Note_off_c, 1, 81, 0
2, 505680, Note_on_c, 1, 57, 127
2, 505680, Note_on_c, 1, 69, 127
2, 505680, Note_on_c, 1, 73, 127
2, 505680, Note_on_c, 1, 76, 127
2, 505680, Note_on_c, 1, 81, 127
2, 508040, Note_off_c, 1, 45, 0
2, 508040, Note_off_c, 1, 57, 0
2, 508040, Note_off_c, 1, 69, 0
2, 508040, Note_off_c, 1, 73, 0
2, 508040, Note_off_c, 1, 76, 0
2, 508040, Note_off_c, 1, 81, 0
2, 510320, Note_on_c, 1, 64, 127
2, 510640, Note_off_c, 1, 64, 0
2, 510720, Note_on_c, 1, 69, 127
2, 510840, Note_off_c, 1, 69, 0
2, 510880, Note_on_c, 1, 68, 127
2, 511040, Note_off_c, 1, 68, 0
2, 511080, Note_on_c, 1, 71, 127
2, 511240, Note_off_c, 1, 71, 0
2, 511280, Note_on_c, 1, 69, 127
2, 511400, Note_off_c, 1, 69, 0
2, 511480, Note_on_c, 1, 73, 127
2, 511600, Note_off_c, 1, 73, 0
2, 511640, Note_on_c, 1, 71, 127
2, 511800, Note_off_c, 1, 71, 0
2, 511840, Note_on_c, 1, 69, 127
2, 512000, Note_off_c, 1, 69, 0
2, 512040, Note_on_c, 1, 68, 127
2, 512160, Note_off_c, 1, 68, 0
2, 512200, Note_on_c, 1, 69, 127
2, 512520, Note_off_c, 1, 69, 0
2, 512600, Note_on_c, 1, 64, 127
2, 512920, Note_off_c, 1, 64, 0
2, 512960, Note_on_c, 1, 61, 127
2, 513120, Note_off_c, 1, 61, 0
2, 513160, Note_on_c, 1, 64, 127
2, 513280, Note_off_c, 1, 64, 0
2, 513320, Note_on_c, 1, 52, 127
2, 513320, Note_on_c, 1, 69, 127
2, 513480, Note_off_c, 1, 69, 0
2, 513520, Note_on_c, 1, 71, 127
2, 513680, Note_off_c, 1, 52, 0
2, 513680, Note_off_c, 1, 71, 0
2, 513720, Note_on_c, 1, 57, 127
2, 513720, Note_on_c, 1, 73, 127
2, 513840, Note_off_c, 1, 57, 0
2, 513840, Note_off_c, 1, 73, 0
2, 513880, Note_on_c, 1, 56, 127
2, 513880, Note_on_c, 1, 71, 127
2, 514040, Note_off_c, 1, 56, 0
2, 514040, Note_off_c, 1, 71, 0
2, 514080, Note_on_c, 1, 59, 127
2, 514080, Note_on_c, 1, 74, 127
2, 514240, Note_off_c, 1, 59, 0
2, 514240, Note_off_c, 1, 74, 0
2, 514280, Note_on_c, 1, 57, 127
2, 514280, Note_on_c, 1, 73, 127
2, 514400, Note_off_c, 1, 57, 0
2, 514400, Note_off_c, 1, 73, 0
2, 514480, Note_on_c, 1, 61, 127
2, 514480, Note_on_c, 1, 76, 127
2, 514600, Note_off_c, 1, 61, 0
2, 514600, Note_off_c, 1, 76, 0
2, 514640, Note_on_c, 1, 59, 127
2, 514640, Note_on_c, 1, 74, 127
2, 514800, Note_off_c, 1, 59, 0
2, 514800, Note_off_c, 1, 74, 0
2, 514840, Note_on_c, 1, 57, 127
2, 514840, Note_on_c, 1, 73, 127
2, 515000, Note_off_c, 1, 57, 0
2, 515000, Note_off_c, 1, 73, 0
2, 515040, Note_on_c, 1, 56, 127
2, 515040, Note_on_c, 1, 71, 127
2, 515160, Note_off_c, 1, 56, 0
2, 515160, Note_off_c, 1, 71, 0
2, 515200, Note_on_c, 1, 57, 127
2, 515200, Note_on_c, 1, 74, 127
2, 515360, Note_off_c, 1, 74, 0
2, 515400, Note_on_c, 1, 73, 127
2, 515520, Note_off_c, 1, 57, 0
2, 515560, Note_off_c, 1, 73, 0
2, 515600, Note_on_c, 1, 52, 127
2, 515600, Note_on_c, 1, 71, 127
2, 515720, Note_off_c, 1, 71, 0
2, 515760, Note_on_c, 1, 73, 127
2, 515920, Note_off_c, 1, 52, 0
2, 515920, Note_off_c, 1, 73, 0
2, 515960, Note_on_c, 1, 49, 127
2, 515960, Note_on_c, 1, 69, 127
2, 516120, Note_off_c, 1, 49, 0
2, 516120, Note_off_c, 1, 69, 0
2, 516160, Note_on_c, 1, 52, 127
2, 516160, Note_on_c, 1, 71, 127
2, 516280, Note_off_c, 1, 52, 0
2, 516280, Note_off_c, 1, 71, 0
2, 516320, Note_on_c, 1, 57, 127
2, 516320, Note_on_c, 1, 73, 127
2, 516480, Note_off_c, 1, 57, 0
2, 516480, Note_off_c, 1, 73, 0
2, 516520, Note_on_c, 1, 59, 127
2, 516520, Note_on_c, 1, 74, 127
2, 516680, Note_off_c, 1, 59, 0
2, 516680, Note_off_c, 1, 74, 0
2, 516720, Note_on_c, 1, 61, 127
2, 516720, Note_on_c, 1, 76, 127
2, 516840, Note_off_c, 1, 61, 0
2, 516880, Note_on_c, 1, 59, 127
2, 517000, Note_off_c, 1, 76, 0
2, 517040, Note_off_c, 1, 59, 0
2, 517080, Note_on_c, 1, 62, 127
2, 517080, Note_on_c, 1, 79, 127
2, 517240, Note_off_c, 1, 62, 0
2, 517240, Note_off_c, 1, 79, 0
2, 517280, Note_on_c, 1, 61, 127
2, 517280, Note_on_c, 1, 77, 127
2, 517400, Note_off_c, 1, 61, 0
2, 517400, Note_off_c, 1, 77, 0
2, 517480, Note_on_c, 1, 64, 127
2, 517480, Note_on_c, 1, 79, 127
2, 517520, Note_off_c, 1, 79, 0
2, 517560, Note_on_c, 1, 77, 127
2, 517600, Note_off_c, 1, 64, 0
2, 517600, Note_off_c, 1, 77, 0
2, 517640, Note_on_c, 1, 62, 127
2, 517640, Note_on_c, 1, 79, 127
2, 517800, Note_off_c, 1, 62, 0
2, 517840, Note_on_c, 1, 61, 127
2, 517960, Note_off_c, 1, 79, 0
2, 518000, Note_off_c, 1, 61, 0
2, 518040, Note_on_c, 1, 57, 127
2, 518040, Note_on_c, 1, 81, 127
2, 518160, Note_off_c, 1, 57, 0
2, 518160, Note_off_c, 1, 81, 0
2, 518200, Note_on_c, 1, 62, 127
2, 518200, Note_on_c, 1, 78, 127
2, 518360, Note_off_c, 1, 62, 0
2, 518400, Note_on_c, 1, 61, 127
2, 518520, Note_off_c, 1, 78, 0
2, 518560, Note_off_c, 1, 61, 0
2, 518600, Note_on_c, 1, 64, 127
2, 518600, Note_on_c, 1, 81, 127
2, 518720, Note_off_c, 1, 64, 0
2, 518720, Note_off_c, 1, 81, 0
2, 518760, Note_on_c, 1, 62, 127
2, 518760, Note_on_c, 1, 80, 127
2, 518920, Note_off_c, 1, 62, 0
2, 518920, Note_off_c, 1, 80, 0
2, 518960, Note_on_c, 1, 66, 127
2, 518960, Note_on_c, 1, 81, 127
2, 519000, Note_off_c, 1, 81, 0
2, 519040, Note_on_c, 1, 80, 127
2, 519120, Note_off_c, 1, 66, 0
2, 519120, Note_off_c, 1, 80, 0
2, 519160, Note_on_c, 1, 64, 127
2, 519160, Note_on_c, 1, 81, 127
2, 519280, Note_off_c, 1, 64, 0
2, 519320, Note_on_c, 1, 63, 127
2, 519480, Note_off_c, 1, 63, 0
2, 519480, Note_off_c, 1, 81, 0
2, 519520, Note_on_c, 1, 59, 127
2, 519520, Note_on_c, 1, 83, 127
2, 519680, Note_off_c, 1, 59, 0
2, 519680, Note_off_c, 1, 83, 0
2, 519720, Note_on_c, 1, 64, 127
2, 519720, Note_on_c, 1, 80, 127
2, 519840, Note_off_c, 1, 64, 0
2, 519840, Note_off_c, 1, 80, 0
2, 519880, Note_on_c, 1, 66, 127
2, 519880, Note_on_c, 1, 81, 127
2, 520040, Note_off_c, 1, 66, 0
2, 520040, Note_off_c, 1, 81, 0
2, 520080, Note_on_c, 1, 64, 127
2, 520080, Note_on_c, 1, 80, 127
2, 520240, Note_off_c, 1, 64, 0
2, 520240, Note_off_c, 1, 80, 0
2, 520280, Note_on_c, 1, 62, 127
2, 520280, Note_on_c, 1, 81, 127
2, 520440, Note_off_c, 1, 62, 0
2, 520440, Note_off_c, 1, 81, 0
2, 520480, Note_on_c, 1, 61, 127
2, 520480, Note_on_c, 1, 83, 127
2, 520560, Note_off_c, 1, 83, 0
2, 520600, Note_off_c, 1, 61, 0
2, 520600, Note_on_c, 1, 81, 127
2, 520640, Note_on_c, 1, 59, 127
2, 520680, Note_off_c, 1, 81, 0
2, 520720, Note_on_c, 1, 83, 127
2, 520760, Note_off_c, 1, 83, 0
2, 520800, Note_off_c, 1, 59, 0
2, 520800, Note_on_c, 1, 81, 127
2, 520840, Note_on_c, 1, 61, 127
2, 520840, Note_off_c, 1, 81, 0
2, 520880, Note_on_c, 1, 83, 127
2, 520920, Note_off_c, 1, 83, 0
2, 520960, Note_on_c, 1, 81, 127
2, 521000, Note_off_c, 1, 61, 0
2, 521000, Note_off_c, 1, 81, 0
2, 521040, Note_on_c, 1, 57, 127
2, 521040, Note_on_c, 1, 80, 127
2, 521080, Note_off_c, 1, 80, 0
2, 521120, Note_on_c, 1, 81, 127
2, 521160, Note_off_c, 1, 57, 0
2, 521200, Note_on_c, 1, 64, 127
2, 521200, Note_off_c, 1, 81, 0
2, 521200, Note_on_c, 1, 83, 127
2, 521360, Note_off_c, 1, 64, 0
2, 521400, Note_on_c, 1, 63, 127
2, 521560, Note_off_c, 1, 63, 0
2, 521600, Note_on_c, 1, 66, 127
2, 521720, Note_off_c, 1, 66, 0
2, 521720, Note_off_c, 1, 83, 0
2, 521760, Note_on_c, 1, 64, 127
2, 521920, Note_off_c, 1, 64, 0
2, 521960, Note_on_c, 1, 68, 127
2, 522120, Note_off_c, 1, 68, 0
2, 522160, Note_on_c, 1, 66, 127
2, 522280, Note_off_c, 1, 66, 0
2, 522320, Note_on_c, 1, 64, 127
2, 522520, Note_on_c, 1, 62, 127
2, 522680, Note_off_c, 1, 62, 0
2, 522680, Note_off_c, 1, 64, 0
2, 522720, Note_on_c, 1, 61, 127
2, 522720, Note_on_c, 1, 69, 127
2, 522840, Note_off_c, 1, 61, 0
2, 522840, Note_off_c, 1, 69, 0
2, 522880, Note_on_c, 1, 59, 127
2, 522880, Note_on_c, 1, 68, 127
2, 523040, Note_off_c, 1, 59, 0
2, 523040, Note_off_c, 1, 68, 0
2, 523080, Note_on_c, 1, 62, 127
2, 523080, Note_on_c, 1, 71, 127
2, 523240, Note_off_c, 1, 62, 0
2, 523240, Note_off_c, 1, 71, 0
2, 523280, Note_on_c, 1, 61, 127
2, 523280, Note_on_c, 1, 69, 127
2, 523440, Note_off_c, 1, 61, 0
2, 523440, Note_off_c, 1, 69, 0
2, 523480, Note_on_c, 1, 64, 127
2, 523480, Note_on_c, 1, 73, 127
2, 523600, Note_off_c, 1, 64, 0
2, 523600, Note_off_c, 1, 73, 0
2, 523640, Note_on_c, 1, 62, 127
2, 523640, Note_on_c, 1, 71, 127
2, 523800, Note_off_c, 1, 62, 0
2, 523800, Note_off_c, 1, 71, 0
2, 523840, Note_on_c, 1, 61, 127
2, 523840, Note_on_c, 1, 69, 127
2, 524000, Note_off_c, 1, 61, 0
2, 524000, Note_off_c, 1, 69, 0
2, 524040, Note_on_c, 1, 59, 127
2, 524040, Note_on_c, 1, 68, 127
2, 524160, Note_off_c, 1, 59, 0
2, 524160, Note_off_c, 1, 68, 0
2, 524200, Note_on_c, 1, 61, 127
2, 524200, Note_on_c, 1, 69, 127
2, 524360, Note_off_c, 1, 61, 0
2, 524400, Note_on_c, 1, 62, 127
2, 524520, Note_off_c, 1, 69, 0
2, 524560, Note_off_c, 1, 62, 0
2, 524600, Note_on_c, 1, 61, 127
2, 524600, Note_on_c, 1, 64, 127
2, 524720, Note_off_c, 1, 61, 0
2, 524760, Note_on_c, 1, 59, 127
2, 524920, Note_off_c, 1, 59, 0
2, 524920, Note_off_c, 1, 64, 0
2, 524960, Note_on_c, 1, 57, 127
2, 524960, Note_on_c, 1, 61, 127
2, 525120, Note_off_c, 1, 61, 0
2, 525160, Note_on_c, 1, 64, 127
2, 525280, Note_off_c, 1, 57, 0
2, 525280, Note_off_c, 1, 64, 0
2, 525320, Note_on_c, 1, 52, 127
2, 525320, Note_on_c, 1, 69, 127
2, 525480, Note_off_c, 1, 69, 0
2, 525520, Note_on_c, 1, 71, 127
2, 525680, Note_off_c, 1, 52, 0
2, 525680, Note_off_c, 1, 71, 0
2, 525720, Note_on_c, 1, 57, 127
2, 525720, Note_on_c, 1, 73, 127
2, 525840, Note_off_c, 1, 57, 0
2, 525840, Note_off_c, 1, 73, 0
2, 525880, Note_on_c, 1, 56, 127
2, 525880, Note_on_c, 1, 71, 127
2, 526040, Note_off_c, 1, 56, 0
2, 526040, Note_off_c, 1, 71, 0
2, 526080, Note_on_c, 1, 59, 127
2, 526080, Note_on_c, 1, 74, 127
2, 526240, Note_off_c, 1, 59, 0
2, 526240, Note_off_c, 1, 74, 0
2, 526280, Note_on_c, 1, 57, 127
2, 526280, Note_on_c, 1, 73, 127
2, 526440, Note_off_c, 1, 57, 0
2, 526440, Note_off_c, 1, 73, 0
2, 526480, Note_on_c, 1, 61, 127
2, 526480, Note_on_c, 1, 76, 127
2, 526600, Note_off_c, 1, 61, 0
2, 526600, Note_off_c, 1, 76, 0
2, 526640, Note_on_c, 1, 59, 127
2, 526640, Note_on_c, 1, 74, 127
2, 526800, Note_off_c, 1, 59, 0
2, 526800, Note_off_c, 1, 74, 0
2, 526840, Note_on_c, 1, 57, 127
2, 526840, Note_on_c, 1, 73, 127
2, 527000, Note_off_c, 1, 57, 0
2, 527000, Note_off_c, 1, 73, 0
2, 527040, Note_on_c, 1, 56, 127
2, 527040, Note_on_c, 1, 71, 127
2, 527160, Note_off_c, 1, 56, 0
2, 527160, Note_off_c, 1, 71, 0
2, 527200, Note_on_c, 1, 57, 127
2, 527200, Note_on_c, 1, 74, 127
2, 527360, Note_off_c, 1, 74, 0
2, 527400, Note_on_c, 1, 73, 127
2, 527520, Note_off_c, 1, 57, 0
2, 527560, Note_off_c, 1, 73, 0
2, 527600, Note_on_c, 1, 52, 127
2, 527600, Note_on_c, 1, 71, 127
2, 527720, Note_off_c, 1, 71, 0
2, 527760, Note_on_c, 1, 73, 127
2, 527920, Note_off_c, 1, 52, 0
2, 527920, Note_off_c, 1, 73, 0
2, 527960, Note_on_c, 1, 49, 127
2, 527960, Note_on_c, 1, 69, 127
2, 528120, Note_off_c, 1, 69, 0
2, 528160, Note_on_c, 1, 68, 127
2, 528280, Note_off_c, 1, 49, 0
2, 528280, Note_off_c, 1, 68, 0
2, 528320, Note_on_c, 1, 52, 127
2, 528320, Note_on_c, 1, 71, 127
2, 528480, Note_off_c, 1, 71, 0
2, 528520, Note_on_c, 1, 69, 127
2, 528680, Note_off_c, 1, 52, 0
2, 528680, Note_off_c, 1, 69, 0
2, 528720, Note_on_c, 1, 45, 127
2, 528720, Note_on_c, 1, 73, 127
2, 528840, Note_off_c, 1, 73, 0
2, 528880, Note_on_c, 1, 71, 127
2, 529040, Note_off_c, 1, 45, 0
2, 529040, Note_off_c, 1, 71, 0
2, 529080, Note_on_c, 1, 52, 127
2, 529080, Note_on_c, 1, 69, 127
2, 529240, Note_off_c, 1, 69, 0
2, 529280, Note_on_c, 1, 68, 127
2, 529440, Note_off_c, 1, 52, 0
2, 529440, Note_off_c, 1, 68, 0
2, 529480, Note_on_c, 1, 57, 127
2, 529480, Note_on_c, 1, 66, 127
2, 529600, Note_off_c, 1, 57, 0
2, 529600, Note_off_c, 1, 66, 0
2, 529640, Note_on_c, 1, 56, 127
2, 529640, Note_on_c, 1, 64, 127
2, 529800, Note_off_c, 1, 56, 0
2, 529800, Note_off_c, 1, 64, 0
2, 529840, Note_on_c, 1, 59, 127
2, 529840, Note_on_c, 1, 68, 127
2, 530000, Note_off_c, 1, 59, 0
2, 530000, Note_off_c, 1, 68, 0
2, 530040, Note_on_c, 1, 57, 127
2, 530040, Note_on_c, 1, 66, 127
2, 530160, Note_off_c, 1, 57, 0
2, 530160, Note_off_c, 1, 66, 0
2, 530200, Note_on_c, 1, 61, 127
2, 530200, Note_on_c, 1, 69, 127
2, 530360, Note_off_c, 1, 61, 0
2, 530360, Note_off_c, 1, 69, 0
2, 530400, Note_on_c, 1, 59, 127
2, 530400, Note_on_c, 1, 68, 127
2, 530560, Note_off_c, 1, 59, 0
2, 530560, Note_off_c, 1, 68, 0
2, 530600, Note_on_c, 1, 57, 127
2, 530600, Note_on_c, 1, 66, 127
2, 530720, Note_off_c, 1, 57, 0
2, 530720, Note_off_c, 1, 66, 0
2, 530760, Note_on_c, 1, 56, 127
2, 530760, Note_on_c, 1, 64, 127
2, 530920, Note_off_c, 1, 56, 0
2, 530920, Note_off_c, 1, 64, 0
2, 530960, Note_on_c, 1, 54, 127
2, 530960, Note_on_c, 1, 63, 127
2, 531120, Note_off_c, 1, 54, 0
2, 531120, Note_off_c, 1, 63, 0
2, 531160, Note_on_c, 1, 52, 127
2, 531160, Note_on_c, 1, 61, 127
2, 531280, Note_off_c, 1, 52, 0
2, 531280, Note_off_c, 1, 61, 0
2, 531320, Note_on_c, 1, 56, 127
2, 531320, Note_on_c, 1, 64, 127
2, 531480, Note_off_c, 1, 56, 0
2, 531480, Note_off_c, 1, 64, 0
2, 531520, Note_on_c, 1, 54, 127
2, 531520, Note_on_c, 1, 63, 127
2, 531680, Note_off_c, 1, 54, 0
2, 531680, Note_off_c, 1, 63, 0
2, 531720, Note_on_c, 1, 57, 127
2, 531720, Note_on_c, 1, 66, 127
2, 531840, Note_off_c, 1, 57, 0
2, 531840, Note_off_c, 1, 66, 0
2, 531880, Note_on_c, 1, 56, 127
2, 531880, Note_on_c, 1, 59, 127
2, 532040, Note_off_c, 1, 56, 0
2, 532040, Note_off_c, 1, 59, 0
2, 532080, Note_on_c, 1, 54, 127
2, 532080, Note_on_c, 1, 71, 127
2, 532240, Note_off_c, 1, 54, 0
2, 532280, Note_on_c, 1, 52, 127
2, 532440, Note_off_c, 1, 52, 0
2, 532440, Note_off_c, 1, 71, 0
2, 532480, Note_on_c, 1, 59, 127
2, 532480, Note_on_c, 1, 69, 127
2, 532520, Note_off_c, 1, 69, 0
2, 532560, Note_on_c, 1, 68, 127
2, 532600, Note_off_c, 1, 68, 0
2, 532640, Note_on_c, 1, 69, 127
2, 532720, Note_off_c, 1, 69, 0
2, 532760, Note_on_c, 1, 68, 127
2, 532800, Note_off_c, 1, 59, 0
2, 532800, Note_off_c, 1, 68, 0
2, 532840, Note_on_c, 1, 47, 127
2, 532840, Note_on_c, 1, 66, 127
2, 533000, Note_off_c, 1, 66, 0
2, 533040, Note_on_c, 1, 64, 127
2, 533160, Note_off_c, 1, 47, 0
2, 533160, Note_off_c, 1, 64, 0
2, 533200, Note_on_c, 1, 52, 127
2, 533200, Note_on_c, 1, 64, 127
2, 533600, Note_on_c, 1, 47, 127
2, 533920, Note_off_c, 1, 47, 0
2, 533960, Note_on_c, 1, 40, 127
2, 534280, Note_off_c, 1, 40, 0
2, 534280, Note_off_c, 1, 52, 0
2, 534280, Note_off_c, 1, 64, 0
2, 534320, Note_on_c, 1, 64, 127
2, 534640, Note_off_c, 1, 64, 0
2, 534720, Note_on_c, 1, 71, 127
2, 534840, Note_off_c, 1, 71, 0
2, 534880, Note_on_c, 1, 69, 127
2, 535040, Note_off_c, 1, 69, 0
2, 535080, Note_on_c, 1, 73, 127
2, 535240, Note_off_c, 1, 73, 0
2, 535280, Note_on_c, 1, 71, 127
2, 535440, Note_off_c, 1, 71, 0
2, 535480, Note_on_c, 1, 74, 127
2, 535600, Note_off_c, 1, 74, 0
2, 535640, Note_on_c, 1, 73, 127
2, 535800, Note_off_c, 1, 73, 0
2, 535840, Note_on_c, 1, 52, 127
2, 535840, Note_on_c, 1, 76, 127
2, 536160, Note_off_c, 1, 52, 0
2, 536160, Note_off_c, 1, 76, 0
2, 536200, Note_on_c, 1, 57, 127
2, 536200, Note_on_c, 1, 74, 127
2, 536320, Note_off_c, 1, 74, 0
2, 536360, Note_off_c, 1, 57, 0
2, 536360, Note_on_c, 1, 73, 127
2, 536400, Note_on_c, 1, 56, 127
2, 536400, Note_off_c, 1, 73, 0
2, 536440, Note_on_c, 1, 74, 127
2, 536480, Note_on_c, 1, 73, 127
2, 536480, Note_off_c, 1, 74, 0
2, 536560, Note_off_c, 1, 56, 0
2, 536560, Note_off_c, 1, 73, 0
2, 536600, Note_on_c, 1, 59, 127
2, 536600, Note_on_c, 1, 71, 127
2, 536720, Note_off_c, 1, 59, 0
2, 536720, Note_off_c, 1, 71, 0
2, 536760, Note_on_c, 1, 57, 127
2, 536760, Note_on_c, 1, 73, 127
2, 536920, Note_off_c, 1, 57, 0
2, 536920, Note_off_c, 1, 73, 0
2, 536960, Note_on_c, 1, 61, 127
2, 536960, Note_on_c, 1, 69, 127
2, 537120, Note_off_c, 1, 61, 0
2, 537120, Note_off_c, 1, 69, 0
2, 537160, Note_on_c, 1, 59, 127
2, 537160, Note_on_c, 1, 71, 127
2, 537280, Note_off_c, 1, 59, 0
2, 537280, Note_off_c, 1, 71, 0
2, 537320, Note_on_c, 1, 64, 127
2, 537320, Note_on_c, 1, 73, 127
2, 537480, Note_off_c, 1, 73, 0
2, 537520, Note_on_c, 1, 74, 127
2, 537640, Note_off_c, 1, 64, 0
2, 537680, Note_off_c, 1, 74, 0
2, 537720, Note_on_c, 1, 62, 127
2, 537720, Note_on_c, 1, 76, 127
2, 537760, Note_off_c, 1, 62, 0
2, 537800, Note_on_c, 1, 61, 127
2, 537840, Note_off_c, 1, 61, 0
2, 537840, Note_off_c, 1, 76, 0
2, 537880, Note_on_c, 1, 62, 127
2, 537880, Note_on_c, 1, 74, 127
2, 537920, Note_off_c, 1, 62, 0
2, 537960, Note_on_c, 1, 61, 127
2, 538040, Note_off_c, 1, 61, 0
2, 538040, Note_off_c, 1, 74, 0
2, 538080, Note_on_c, 1, 59, 127
2, 538080, Note_on_c, 1, 78, 127
2, 538240, Note_off_c, 1, 59, 0
2, 538240, Note_off_c, 1, 78, 0
2, 538280, Note_on_c, 1, 61, 127
2, 538280, Note_on_c, 1, 76, 127
2, 538440, Note_off_c, 1, 61, 0
2, 538440, Note_off_c, 1, 76, 0
2, 538480, Note_on_c, 1, 57, 127
2, 538480, Note_on_c, 1, 79, 127
2, 538600, Note_off_c, 1, 79, 0
2, 538640, Note_on_c, 1, 78, 127
2, 538800, Note_off_c, 1, 57, 0
2, 538800, Note_off_c, 1, 78, 0
2, 538840, Note_on_c, 1, 45, 127
2, 538840, Note_on_c, 1, 81, 127
2, 539160, Note_off_c, 1, 45, 0
2, 539160, Note_off_c, 1, 81, 0
2, 539200, Note_on_c, 1, 50, 127
2, 539200, Note_on_c, 1, 79, 127
2, 539280, Note_on_c, 1, 78, 127
2, 539280, Note_off_c, 1, 79, 0
2, 539320, Note_off_c, 1, 78, 0
2, 539360, Note_off_c, 1, 50, 0
2, 539360, Note_on_c, 1, 79, 127
2, 539400, Note_on_c, 1, 49, 127
2, 539400, Note_off_c, 1, 79, 0
2, 539440, Note_on_c, 1, 78, 127
2, 539520, Note_off_c, 1, 78, 0
2, 539560, Note_off_c, 1, 49, 0
2, 539600, Note_on_c, 1, 52, 127
2, 539600, Note_on_c, 1, 76, 127
2, 539720, Note_off_c, 1, 52, 0
2, 539720, Note_off_c, 1, 76, 0
2, 539760, Note_on_c, 1, 50, 127
2, 539760, Note_on_c, 1, 78, 127
2, 539920, Note_off_c, 1, 50, 0
2, 539920, Note_off_c, 1, 78, 0
2, 539960, Note_on_c, 1, 54, 127
2, 539960, Note_on_c, 1, 74, 127
2, 540120, Note_off_c, 1, 54, 0
2, 540160, Note_on_c, 1, 50, 127
2, 540280, Note_off_c, 1, 50, 0
2, 540280, Note_off_c, 1, 74, 0
2, 540320, Note_on_c, 1, 62, 127
2, 540320, Note_on_c, 1, 78, 127
2, 540680, Note_off_c, 1, 62, 0
2, 540680, Note_off_c, 1, 78, 0
2, 540720, Note_on_c, 1, 43, 127
2, 540720, Note_on_c, 1, 78, 127
2, 540840, Note_off_c, 1, 78, 0
2, 540880, Note_on_c, 1, 74, 127
2, 541040, Note_off_c, 1, 74, 0
2, 541080, Note_on_c, 1, 73, 127
2, 541240, Note_off_c, 1, 73, 0
2, 541280, Note_on_c, 1, 71, 127
2, 541400, Note_off_c, 1, 43, 0
2, 541440, Note_off_c, 1, 71, 0
2, 541480, Note_on_c, 1, 74, 127
2, 541600, Note_off_c, 1, 74, 0
2, 541640, Note_on_c, 1, 73, 127
2, 541800, Note_off_c, 1, 73, 0
2, 541840, Note_on_c, 1, 61, 127
2, 541840, Note_on_c, 1, 76, 127
2, 542000, Note_off_c, 1, 76, 0
2, 542040, Note_on_c, 1, 74, 127
2, 542160, Note_off_c, 1, 61, 0
2, 542160, Note_off_c, 1, 74, 0
2, 542200, Note_on_c, 1, 42, 127
2, 542200, Note_on_c, 1, 76, 127
2, 542360, Note_off_c, 1, 76, 0
2, 542400, Note_on_c, 1, 73, 127
2, 542560, Note_off_c, 1, 73, 0
2, 542600, Note_on_c, 1, 71, 127
2, 542720, Note_off_c, 1, 71, 0
2, 542760, Note_on_c, 1, 70, 127
2, 542920, Note_off_c, 1, 42, 0
2, 542920, Note_off_c, 1, 70, 0
2, 542960, Note_on_c, 1, 73, 127
2, 543120, Note_off_c, 1, 73, 0
2, 543160, Note_on_c, 1, 71, 127
2, 543280, Note_off_c, 1, 71, 0
2, 543320, Note_on_c, 1, 59, 127
2, 543320, Note_on_c, 1, 74, 127
2, 543480, Note_off_c, 1, 74, 0
2, 543520, Note_on_c, 1, 73, 127
2, 543680, Note_off_c, 1, 59, 0
2, 543680, Note_off_c, 1, 73, 0
2, 543720, Note_on_c, 1, 55, 127
2, 543720, Note_on_c, 1, 76, 127
2, 543840, Note_off_c, 1, 76, 0
2, 543880, Note_on_c, 1, 74, 127
2, 544040, Note_off_c, 1, 55, 0
2, 544040, Note_off_c, 1, 74, 0
2, 544080, Note_on_c, 1, 50, 127
2, 544080, Note_on_c, 1, 73, 127
2, 544240, Note_off_c, 1, 73, 0
2, 544280, Note_on_c, 1, 71, 127
2, 544440, Note_off_c, 1, 50, 0
2, 544440, Note_off_c, 1, 71, 0
2, 544480, Note_on_c, 1, 52, 127
2, 544480, Note_on_c, 1, 74, 127
2, 544600, Note_off_c, 1, 74, 0
2, 544640, Note_on_c, 1, 73, 127
2, 544800, Note_off_c, 1, 52, 0
2, 544800, Note_off_c, 1, 73, 0
2, 544840, Note_on_c, 1, 54, 127
2, 544840, Note_on_c, 1, 71, 127
2, 545000, Note_off_c, 1, 71, 0
2, 545040, Note_on_c, 1, 70, 127
2, 545160, Note_off_c, 1, 54, 0
2, 545160, Note_off_c, 1, 70, 0
2, 545200, Note_on_c, 1, 47, 127
2, 545200, Note_on_c, 1, 71, 127
2, 545360, Note_off_c, 1, 47, 0
2, 545400, Note_on_c, 1, 46, 127
2, 545560, Note_off_c, 1, 46, 0
2, 545600, Note_on_c, 1, 49, 127
2, 545720, Note_off_c, 1, 49, 0
2, 545760, Note_on_c, 1, 47, 127
2, 545920, Note_off_c, 1, 47, 0
2, 545960, Note_on_c, 1, 50, 127
2, 546120, Note_off_c, 1, 50, 0
2, 546160, Note_on_c, 1, 49, 127
2, 546280, Note_off_c, 1, 49, 0
2, 546280, Note_off_c, 1, 71, 0
2, 546320, Note_on_c, 1, 52, 127
2, 546320, Note_on_c, 1, 71, 127
2, 546680, Note_off_c, 1, 52, 0
2, 546680, Note_off_c, 1, 71, 0
2, 546720, Note_on_c, 1, 52, 127
2, 546720, Note_on_c, 1, 78, 127
2, 546760, Note_off_c, 1, 52, 0
2, 546800, Note_on_c, 1, 51, 127
2, 546840, Note_off_c, 1, 51, 0
2, 546840, Note_off_c, 1, 78, 0
2, 546880, Note_on_c, 1, 52, 127
2, 546920, Note_on_c, 1, 51, 127
2, 546920, Note_off_c, 1, 52, 0
2, 546920, Note_on_c, 1, 76, 127
2, 547040, Note_off_c, 1, 76, 0
2, 547080, Note_on_c, 1, 80, 127
2, 547240, Note_off_c, 1, 80, 0
2, 547280, Note_on_c, 1, 78, 127
2, 547360, Note_off_c, 1, 51, 0
2, 547440, Note_off_c, 1, 78, 0
2, 547480, Note_on_c, 1, 81, 127
2, 547600, Note_off_c, 1, 81, 0
2, 547640, Note_on_c, 1, 80, 127
2, 547800, Note_off_c, 1, 80, 0
2, 547840, Note_on_c, 1, 47, 127
2, 547840, Note_on_c, 1, 83, 127
2, 548160, Note_off_c, 1, 47, 0
2, 548160, Note_off_c, 1, 83, 0
2, 548200, Note_on_c, 1, 52, 127
2, 548200, Note_on_c, 1, 81, 127
2, 548280, Note_off_c, 1, 81, 0
2, 548360, Note_off_c, 1, 52, 0
2, 548360, Note_on_c, 1, 80, 127
2, 548400, Note_on_c, 1, 51, 127
2, 548400, Note_off_c, 1, 80, 0
2, 548440, Note_on_c, 1, 81, 127
2, 548480, Note_on_c, 1, 80, 127
2, 548480, Note_off_c, 1, 81, 0
2, 548560, Note_off_c, 1, 51, 0
2, 548560, Note_off_c, 1, 80, 0
2, 548600, Note_on_c, 1, 54, 127
2, 548600, Note_on_c, 1, 78, 127
2, 548720, Note_off_c, 1, 54, 0
2, 548720, Note_off_c, 1, 78, 0
2, 548760, Note_on_c, 1, 52, 127
2, 548760, Note_on_c, 1, 80, 127
2, 548920, Note_off_c, 1, 52, 0
2, 548920, Note_off_c, 1, 80, 0
2, 548960, Note_on_c, 1, 56, 127
2, 548960, Note_on_c, 1, 76, 127
2, 549120, Note_off_c, 1, 56, 0
2, 549160, Note_on_c, 1, 54, 127
2, 549280, Note_off_c, 1, 54, 0
2, 549280, Note_off_c, 1, 76, 0
2, 549320, Note_on_c, 1, 57, 127
2, 549320, Note_on_c, 1, 64, 127
2, 549680, Note_off_c, 1, 57, 0
2, 549680, Note_off_c, 1, 64, 0
2, 549720, Note_on_c, 1, 57, 127
2, 549720, Note_on_c, 1, 71, 127
2, 549760, Note_off_c, 1, 57, 0
2, 549800, Note_on_c, 1, 56, 127
2, 549840, Note_off_c, 1, 56, 0
2, 549880, Note_on_c, 1, 57, 127
2, 549880, Note_off_c, 1, 71, 0
2, 549920, Note_off_c, 1, 57, 0
2, 549920, Note_on_c, 1, 69, 127
2, 549960, Note_on_c, 1, 56, 127
2, 550040, Note_off_c, 1, 69, 0
2, 550080, Note_on_c, 1, 73, 127
2, 550240, Note_off_c, 1, 73, 0
2, 550280, Note_on_c, 1, 71, 127
2, 550400, Note_off_c, 1, 56, 0
2, 550440, Note_off_c, 1, 71, 0
2, 550480, Note_on_c, 1, 74, 127
2, 550600, Note_off_c, 1, 74, 0
2, 550640, Note_on_c, 1, 73, 127
2, 550800, Note_off_c, 1, 73, 0
2, 550840, Note_on_c, 1, 52, 127
2, 550840, Note_on_c, 1, 76, 127
2, 551160, Note_off_c, 1, 52, 0
2, 551160, Note_off_c, 1, 76, 0
2, 551200, Note_on_c, 1, 57, 127
2, 551200, Note_on_c, 1, 74, 127
2, 551240, Note_off_c, 1, 74, 0
2, 551280, Note_on_c, 1, 73, 127
2, 551320, Note_off_c, 1, 73, 0
2, 551360, Note_off_c, 1, 57, 0
2, 551360, Note_on_c, 1, 74, 127
2, 551400, Note_on_c, 1, 56, 127
2, 551400, Note_off_c, 1, 74, 0
2, 551440, Note_on_c, 1, 73, 127
2, 551560, Note_off_c, 1, 56, 0
2, 551560, Note_off_c, 1, 73, 0
2, 551600, Note_on_c, 1, 59, 127
2, 551600, Note_on_c, 1, 71, 127
2, 551720, Note_off_c, 1, 59, 0
2, 551720, Note_off_c, 1, 71, 0
2, 551760, Note_on_c, 1, 57, 127
2, 551760, Note_on_c, 1, 73, 127
2, 551920, Note_off_c, 1, 57, 0
2, 551920, Note_off_c, 1, 73, 0
2, 551960, Note_on_c, 1, 61, 127
2, 551960, Note_on_c, 1, 69, 127
2, 552120, Note_off_c, 1, 61, 0
2, 552120, Note_off_c, 1, 69, 0
2, 552160, Note_on_c, 1, 59, 127
2, 552160, Note_on_c, 1, 71, 127
2, 552280, Note_off_c, 1, 59, 0
2, 552280, Note_off_c, 1, 71, 0
2, 552360, Note_on_c, 1, 64, 127
2, 552360, Note_on_c, 1, 73, 127
2, 552480, Note_off_c, 1, 73, 0
2, 552520, Note_on_c, 1, 74, 127
2, 552680, Note_off_c, 1, 64, 0
2, 552680, Note_off_c, 1, 74, 0
2, 552720, Note_on_c, 1, 62, 127
2, 552720, Note_on_c, 1, 76, 127
2, 552760, Note_off_c, 1, 62, 0
2, 552800, Note_on_c, 1, 61, 127
2, 552840, Note_off_c, 1, 61, 0
2, 552880, Note_on_c, 1, 62, 127
2, 552880, Note_off_c, 1, 76, 0
2, 552920, Note_on_c, 1, 61, 127
2, 552920, Note_off_c, 1, 62, 0
2, 552920, Note_on_c, 1, 73, 127
2, 553040, Note_off_c, 1, 61, 0
2, 553040, Note_off_c, 1, 73, 0
2, 553080, Note_on_c, 1, 62, 127
2, 553080, Note_on_c, 1, 71, 127
2, 553240, Note_off_c, 1, 71, 0
2, 553280, Note_on_c, 1, 69, 127
2, 553440, Note_off_c, 1, 62, 0
2, 553440, Note_off_c, 1, 69, 0
2, 553480, Note_on_c, 1, 61, 127
2, 553480, Note_on_c, 1, 76, 127
2, 553600, Note_off_c, 1, 76, 0
2, 553640, Note_on_c, 1, 74, 127
2, 553800, Note_off_c, 1, 61, 0
2, 553800, Note_off_c, 1, 74, 0
2, 553840, Note_on_c, 1, 59, 127
2, 553840, Note_on_c, 1, 78, 127
2, 554000, Note_off_c, 1, 78, 0
2, 554040, Note_on_c, 1, 76, 127
2, 554160, Note_off_c, 1, 59, 0
2, 554160, Note_off_c, 1, 76, 0
2, 554200, Note_on_c, 1, 57, 127
2, 554200, Note_on_c, 1, 79, 127
2, 554400, Note_on_c, 1, 73, 127
2, 554560, Note_off_c, 1, 57, 0
2, 554560, Note_off_c, 1, 73, 0
2, 554560, Note_off_c, 1, 79, 0
2, 554600, Note_on_c, 1, 57, 127
2, 554600, Note_on_c, 1, 71, 127
2, 554720, Note_off_c, 1, 71, 0
2, 554800, Note_on_c, 1, 69, 127
2, 554920, Note_off_c, 1, 57, 0
2, 554920, Note_off_c, 1, 69, 0
2, 554960, Note_on_c, 1, 57, 127
2, 554960, Note_on_c, 1, 74, 127
2, 555120, Note_off_c, 1, 74, 0
2, 555160, Note_on_c, 1, 73, 127
2, 555320, Note_off_c, 1, 57, 0
2, 555320, Note_off_c, 1, 73, 0
2, 555360, Note_on_c, 1, 57, 127
2, 555360, Note_on_c, 1, 76, 127
2, 555480, Note_off_c, 1, 76, 0
2, 555520, Note_on_c, 1, 74, 127
2, 555680, Note_off_c, 1, 57, 0
2, 555680, Note_off_c, 1, 74, 0
2, 555720, Note_on_c, 1, 57, 127
2, 555720, Note_on_c, 1, 78, 127
2, 555920, Note_on_c, 1, 73, 127
2, 556040, Note_off_c, 1, 57, 0
2, 556040, Note_off_c, 1, 73, 0
2, 556040, Note_off_c, 1, 78, 0
2, 556080, Note_on_c, 1, 57, 127
2, 556080, Note_on_c, 1, 71, 127
2, 556240, Note_off_c, 1, 71, 0
2, 556280, Note_on_c, 1, 69, 127
2, 556440, Note_off_c, 1, 57, 0
2, 556440, Note_off_c, 1, 69, 0
2, 556480, Note_on_c, 1, 57, 127
2, 556480, Note_on_c, 1, 76, 127
2, 556600, Note_off_c, 1, 76, 0
2, 556640, Note_on_c, 1, 74, 127
2, 556800, Note_off_c, 1, 57, 0
2, 556800, Note_off_c, 1, 74, 0
2, 556840, Note_on_c, 1, 57, 127
2, 556840, Note_on_c, 1, 78, 127
2, 557000, Note_off_c, 1, 78, 0
2, 557040, Note_on_c, 1, 76, 127
2, 557160, Note_off_c, 1, 57, 0
2, 557160, Note_off_c, 1, 76, 0
2, 557200, Note_on_c, 1, 57, 127
2, 557200, Note_on_c, 1, 79, 127
2, 557400, Note_on_c, 1, 73, 127
2, 557560, Note_off_c, 1, 57, 0
2, 557560, Note_off_c, 1, 73, 0
2, 557560, Note_off_c, 1, 79, 0
2, 557600, Note_on_c, 1, 55, 127
2, 557600, Note_on_c, 1, 71, 127
2, 557720, Note_off_c, 1, 71, 0
2, 557800, Note_on_c, 1, 69, 127
2, 557920, Note_off_c, 1, 55, 0
2, 557920, Note_off_c, 1, 69, 0
2, 557960, Note_on_c, 1, 54, 127
2, 557960, Note_on_c, 1, 74, 127
2, 558120, Note_off_c, 1, 74, 0
2, 558160, Note_on_c, 1, 73, 127
2, 558320, Note_off_c, 1, 54, 0
2, 558320, Note_off_c, 1, 73, 0
2, 558360, Note_on_c, 1, 52, 127
2, 558360, Note_on_c, 1, 76, 127
2, 558480, Note_off_c, 1, 76, 0
2, 558520, Note_on_c, 1, 74, 127
2, 558680, Note_off_c, 1, 52, 0
2, 558680, Note_off_c, 1, 74, 0
2, 558720, Note_on_c, 1, 50, 127
2, 558720, Note_on_c, 1, 78, 127
2, 558880, Note_off_c, 1, 78, 0
2, 558920, Note_on_c, 1, 74, 127
2, 559040, Note_off_c, 1, 50, 0
2, 559040, Note_off_c, 1, 74, 0
2, 559080, Note_on_c, 1, 52, 127
2, 559080, Note_on_c, 1, 73, 127
2, 559240, Note_off_c, 1, 73, 0
2, 559280, Note_on_c, 1, 71, 127
2, 559440, Note_off_c, 1, 52, 0
2, 559440, Note_off_c, 1, 71, 0
2, 559480, Note_on_c, 1, 50, 127
2, 559480, Note_on_c, 1, 78, 127
2, 559600, Note_off_c, 1, 78, 0
2, 559640, Note_on_c, 1, 76, 127
2, 559800, Note_off_c, 1, 50, 0
2, 559800, Note_off_c, 1, 76, 0
2, 559840, Note_on_c, 1, 49, 127
2, 559840, Note_on_c, 1, 80, 127
2, 560000, Note_off_c, 1, 80, 0
2, 560040, Note_on_c, 1, 78, 127
2, 560160, Note_off_c, 1, 49, 0
2, 560160, Note_off_c, 1, 78, 0
2, 560200, Note_on_c, 1, 47, 127
2, 560200, Note_on_c, 1, 81, 127
2, 560400, Note_on_c, 1, 75, 127
2, 560560, Note_off_c, 1, 47, 0
2, 560560, Note_off_c, 1, 75, 0
2, 560600, Note_on_c, 1, 47, 127
2, 560600, Note_on_c, 1, 73, 127
2, 560600, Note_off_c, 1, 81, 0
2, 560720, Note_off_c, 1, 73, 0
2, 560800, Note_on_c, 1, 71, 127
2, 560920, Note_off_c, 1, 47, 0
2, 560920, Note_off_c, 1, 71, 0
2, 560960, Note_on_c, 1, 47, 127
2, 560960, Note_on_c, 1, 76, 127
2, 561120, Note_off_c, 1, 76, 0
2, 561160, Note_on_c, 1, 75, 127
2, 561320, Note_off_c, 1, 47, 0
2, 561320, Note_off_c, 1, 75, 0
2, 561360, Note_on_c, 1, 47, 127
2, 561360, Note_on_c, 1, 78, 127
2, 561520, Note_on_c, 1, 76, 127
2, 561520, Note_off_c, 1, 78, 0
2, 561680, Note_off_c, 1, 47, 0
2, 561680, Note_off_c, 1, 76, 0
2, 561720, Note_on_c, 1, 47, 127
2, 561720, Note_on_c, 1, 80, 127
2, 561920, Note_on_c, 1, 75, 127
2, 562040, Note_off_c, 1, 47, 0
2, 562040, Note_off_c, 1, 75, 0
2, 562080, Note_on_c, 1, 47, 127
2, 562080, Note_on_c, 1, 73, 127
2, 562080, Note_off_c, 1, 80, 0
2, 562240, Note_off_c, 1, 73, 0
2, 562280, Note_on_c, 1, 71, 127
2, 562440, Note_off_c, 1, 47, 0
2, 562440, Note_off_c, 1, 71, 0
2, 562480, Note_on_c, 1, 47, 127
2, 562480, Note_on_c, 1, 78, 127
2, 562640, Note_on_c, 1, 76, 127
2, 562640, Note_off_c, 1, 78, 0
2, 562800, Note_off_c, 1, 47, 0
2, 562800, Note_off_c, 1, 76, 0
2, 562840, Note_on_c, 1, 47, 127
2, 562840, Note_on_c, 1, 80, 127
2, 563000, Note_off_c, 1, 80, 0
2, 563040, Note_on_c, 1, 78, 127
2, 563160, Note_off_c, 1, 47, 0
2, 563160, Note_off_c, 1, 78, 0
2, 563200, Note_on_c, 1, 47, 127
2, 563200, Note_on_c, 1, 81, 127
2, 563400, Note_on_c, 1, 75, 127
2, 563560, Note_off_c, 1, 47, 0
2, 563560, Note_off_c, 1, 75, 0
2, 563600, Note_on_c, 1, 45, 127
2, 563600, Note_on_c, 1, 73, 127
2, 563600, Note_off_c, 1, 81, 0
2, 563720, Note_off_c, 1, 73, 0
2, 563800, Note_on_c, 1, 71, 127
2, 563920, Note_off_c, 1, 45, 0
2, 563920, Note_off_c, 1, 71, 0
2, 563960, Note_on_c, 1, 44, 127
2, 563960, Note_on_c, 1, 76, 127
2, 564120, Note_off_c, 1, 76, 0
2, 564160, Note_on_c, 1, 75, 127
2, 564320, Note_off_c, 1, 44, 0
2, 564320, Note_off_c, 1, 75, 0
2, 564360, Note_on_c, 1, 42, 127
2, 564360, Note_on_c, 1, 78, 127
2, 564480, Note_off_c, 1, 78, 0
2, 564520, Note_on_c, 1, 76, 127
2, 564680, Note_off_c, 1, 42, 0
2, 564680, Note_off_c, 1, 76, 0
2, 564720, Note_on_c, 1, 40, 127
2, 564720, Note_on_c, 1, 80, 127
2, 564880, Note_off_c, 1, 80, 0
2, 564920, Note_on_c, 1, 78, 127
2, 565040, Note_off_c, 1, 40, 0
2, 565040, Note_off_c, 1, 78, 0
2, 565080, Note_on_c, 1, 40, 127
2, 565080, Note_on_c, 1, 76, 127
2, 565240, Note_off_c, 1, 76, 0
2, 565280, Note_on_c, 1, 78, 127
2, 565440, Note_off_c, 1, 40, 0
2, 565440, Note_off_c, 1, 78, 0
2, 565480, Note_on_c, 1, 40, 127
2, 565480, Note_on_c, 1, 80, 127
2, 565600, Note_off_c, 1, 80, 0
2, 565640, Note_on_c, 1, 78, 127
2, 565800, Note_off_c, 1, 40, 0
2, 565800, Note_off_c, 1, 78, 0
2, 565840, Note_on_c, 1, 40, 127
2, 565840, Note_on_c, 1, 81, 127
2, 566000, Note_off_c, 1, 81, 0
2, 566040, Note_on_c, 1, 80, 127
2, 566160, Note_off_c, 1, 40, 0
2, 566160, Note_off_c, 1, 80, 0
2, 566200, Note_on_c, 1, 38, 127
2, 566200, Note_on_c, 1, 83, 127
2, 566360, Note_off_c, 1, 83, 0
2, 566400, Note_on_c, 1, 81, 127
2, 566560, Note_off_c, 1, 38, 0
2, 566560, Note_off_c, 1, 81, 0
2, 566600, Note_on_c, 1, 38, 127
2, 566600, Note_on_c, 1, 80, 127
2, 566720, Note_off_c, 1, 80, 0
2, 566800, Note_on_c, 1, 78, 127
2, 566920, Note_off_c, 1, 38, 0
2, 566920, Note_off_c, 1, 78, 0
2, 566960, Note_on_c, 1, 38, 127
2, 566960, Note_on_c, 1, 81, 127
2, 567120, Note_off_c, 1, 81, 0
2, 567160, Note_on_c, 1, 80, 127
2, 567320, Note_off_c, 1, 38, 0
2, 567320, Note_off_c, 1, 80, 0
2, 567360, Note_on_c, 1, 50, 127
2, 567360, Note_on_c, 1, 78, 127
2, 567480, Note_off_c, 1, 78, 0
2, 567520, Note_on_c, 1, 76, 127
2, 567680, Note_off_c, 1, 50, 0
2, 567680, Note_off_c, 1, 76, 0
2, 567720, Note_on_c, 1, 49, 127
2, 567720, Note_on_c, 1, 81, 127
2, 568040, Note_off_c, 1, 49, 0
2, 568080, Note_on_c, 1, 52, 127
2, 568160, Note_off_c, 1, 52, 0
2, 568200, Note_on_c, 1, 50, 127
2, 568240, Note_off_c, 1, 50, 0
2, 568240, Note_off_c, 1, 81, 0
2, 568280, Note_on_c, 1, 49, 127
2, 568280, Note_on_c, 1, 83, 127
2, 568320, Note_off_c, 1, 49, 0
2, 568360, Note_on_c, 1, 50, 127
2, 568440, Note_off_c, 1, 50, 0
2, 568440, Note_off_c, 1, 83, 0
2, 568480, Note_on_c, 1, 52, 127
2, 568480, Note_on_c, 1, 81, 127
2, 568520, Note_on_c, 1, 80, 127
2, 568520, Note_off_c, 1, 81, 0
2, 568600, Note_off_c, 1, 80, 0
2, 568600, Note_on_c, 1, 81, 127
2, 568680, Note_on_c, 1, 80, 127
2, 568680, Note_off_c, 1, 81, 0
2, 568760, Note_off_c, 1, 80, 0
2, 568760, Note_on_c, 1, 81, 127
2, 568800, Note_off_c, 1, 52, 0
2, 568840, Note_on_c, 1, 40, 127
2, 568840, Note_on_c, 1, 80, 127
2, 568840, Note_off_c, 1, 81, 0
2, 568880, Note_off_c, 1, 80, 0
2, 568920, Note_on_c, 1, 81, 127
2, 568960, Note_off_c, 1, 81, 0
2, 569000, Note_on_c, 1, 80, 127
2, 569080, Note_on_c, 1, 78, 127
2, 569080, Note_off_c, 1, 80, 0
2, 569120, Note_off_c, 1, 78, 0
2, 569160, Note_off_c, 1, 40, 0
2, 569160, Note_on_c, 1, 80, 127
2, 569200, Note_on_c, 1, 45, 127
2, 569200, Note_off_c, 1, 80, 0
2, 569200, Note_on_c, 1, 81, 127
2, 569360, Note_off_c, 1, 45, 0
2, 569400, Note_on_c, 1, 52, 127
2, 569560, Note_off_c, 1, 52, 0
2, 569600, Note_on_c, 1, 54, 127
2, 569720, Note_off_c, 1, 54, 0
2, 569800, Note_on_c, 1, 56, 127
2, 569920, Note_off_c, 1, 56, 0
2, 569920, Note_off_c, 1, 81, 0
2, 569960, Note_on_c, 1, 57, 127
2, 570120, Note_off_c, 1, 57, 0
2, 570160, Note_on_c, 1, 59, 127
2, 570320, Note_off_c, 1, 59, 0
2, 570360, Note_on_c, 1, 61, 127
2, 570360, Note_on_c, 1, 76, 127
2, 570680, Note_off_c, 1, 61, 0
2, 570680, Note_off_c, 1, 76, 0
2, 570720, Note_on_c, 1, 42, 127
2, 570720, Note_on_c, 1, 76, 127
2, 570880, Note_off_c, 1, 76, 0
2, 570920, Note_on_c, 1, 73, 127
2, 571040, Note_off_c, 1, 73, 0
2, 571080, Note_on_c, 1, 71, 127
2, 571240, Note_off_c, 1, 71, 0
2, 571280, Note_on_c, 1, 69, 127
2, 571400, Note_off_c, 1, 42, 0
2, 571440, Note_off_c, 1, 69, 0
2, 571480, Note_on_c, 1, 73, 127
2, 571600, Note_off_c, 1, 73, 0
2, 571640, Note_on_c, 1, 71, 127
2, 571800, Note_off_c, 1, 71, 0
2, 571840, Note_on_c, 1, 59, 127
2, 571840, Note_on_c, 1, 74, 127
2, 572000, Note_off_c, 1, 74, 0
2, 572040, Note_on_c, 1, 73, 127
2, 572160, Note_off_c, 1, 59, 0
2, 572160, Note_off_c, 1, 73, 0
2, 572200, Note_on_c, 1, 40, 127
2, 572200, Note_on_c, 1, 74, 127
2, 572360, Note_off_c, 1, 74, 0
2, 572400, Note_on_c, 1, 71, 127
2, 572560, Note_off_c, 1, 71, 0
2, 572600, Note_on_c, 1, 69, 127
2, 572720, Note_off_c, 1, 69, 0
2, 572800, Note_on_c, 1, 68, 127
2, 572920, Note_off_c, 1, 40, 0
2, 572920, Note_off_c, 1, 68, 0
2, 572960, Note_on_c, 1, 71, 127
2, 573120, Note_off_c, 1, 71, 0
2, 573160, Note_on_c, 1, 69, 127
2, 573320, Note_off_c, 1, 69, 0
2, 573360, Note_on_c, 1, 57, 127
2, 573360, Note_on_c, 1, 73, 127
2, 573480, Note_off_c, 1, 73, 0
2, 573520, Note_on_c, 1, 71, 127
2, 573680, Note_off_c, 1, 57, 0
2, 573680, Note_off_c, 1, 71, 0
2, 573720, Note_on_c, 1, 54, 127
2, 573720, Note_on_c, 1, 74, 127
2, 573880, Note_off_c, 1, 74, 0
2, 573920, Note_on_c, 1, 73, 127
2, 574040, Note_off_c, 1, 54, 0
2, 574040, Note_off_c, 1, 73, 0
2, 574080, Note_on_c, 1, 49, 127
2, 574080, Note_on_c, 1, 71, 127
2, 574240, Note_off_c, 1, 71, 0
2, 574280, Note_on_c, 1, 69, 127
2, 574440, Note_off_c, 1, 49, 0
2, 574440, Note_off_c, 1, 69, 0
2, 574480, Note_on_c, 1, 50, 127
2, 574480, Note_on_c, 1, 73, 127
2, 574600, Note_off_c, 1, 73, 0
2, 574640, Note_on_c, 1, 71, 127
2, 574800, Note_off_c, 1, 50, 0
2, 574800, Note_off_c, 1, 71, 0
2, 574840, Note_on_c, 1, 52, 127
2, 574840, Note_on_c, 1, 69, 127
2, 575000, Note_off_c, 1, 69, 0
2, 575040, Note_on_c, 1, 68, 127
2, 575160, Note_off_c, 1, 52, 0
2, 575160, Note_off_c, 1, 68, 0
2, 575200, Note_on_c, 1, 45, 127
2, 575200, Note_on_c, 1, 69, 127
2, 575360, Note_off_c, 1, 45, 0
2, 575360, Note_off_c, 1, 69, 0
2, 575400, Note_on_c, 1, 44, 127
2, 575400, Note_on_c, 1, 64, 127
2, 575560, Note_off_c, 1, 44, 0
2, 575560, Note_off_c, 1, 64, 0
2, 575600, Note_on_c, 1, 45, 127
2, 575600, Note_on_c, 1, 66, 127
2, 575720, Note_off_c, 1, 45, 0
2, 575720, Note_off_c, 1, 66, 0
2, 575800, Note_on_c, 1, 47, 127
2, 575800, Note_on_c, 1, 68, 127
2, 575920, Note_off_c, 1, 47, 0
2, 575920, Note_off_c, 1, 68, 0
2, 575960, Note_on_c, 1, 49, 127
2, 575960, Note_on_c, 1, 69, 127
2, 576120, Note_off_c, 1, 49, 0
2, 576120, Note_off_c, 1, 69, 0
2, 576160, Note_on_c, 1, 50, 127
2, 576160, Note_on_c, 1, 71, 127
2, 576320, Note_off_c, 1, 50, 0
2, 576320, Note_off_c, 1, 71, 0
2, 576360, Note_on_c, 1, 52, 127
2, 576360, Note_on_c, 1, 73, 127
2, 576480, Note_off_c, 1, 52, 0
2, 576480, Note_off_c, 1, 73, 0
2, 576520, Note_on_c, 1, 49, 127
2, 576520, Note_on_c, 1, 74, 127
2, 576680, Note_off_c, 1, 49, 0
2, 576680, Note_off_c, 1, 74, 0
2, 576720, Note_on_c, 1, 54, 127
2, 576720, Note_on_c, 1, 76, 127
2, 576760, Note_off_c, 1, 54, 0
2, 576800, Note_on_c, 1, 52, 127
2, 576840, Note_off_c, 1, 52, 0
2, 576880, Note_on_c, 1, 54, 127
2, 576880, Note_off_c, 1, 76, 0
2, 576920, Note_on_c, 1, 73, 127
2, 577040, Note_off_c, 1, 73, 0
2, 577080, Note_on_c, 1, 71, 127
2, 577240, Note_off_c, 1, 71, 0
2, 577280, Note_on_c, 1, 69, 127
2, 577440, Note_off_c, 1, 69, 0
2, 577480, Note_off_c, 1, 54, 0
2, 577480, Note_on_c, 1, 73, 127
2, 577600, Note_off_c, 1, 73, 0
2, 577640, Note_on_c, 1, 71, 127
2, 577800, Note_off_c, 1, 71, 0
2, 577840, Note_on_c, 1, 47, 127
2, 577840, Note_on_c, 1, 74, 127
2, 578000, Note_off_c, 1, 74, 0
2, 578040, Note_on_c, 1, 73, 127
2, 578160, Note_off_c, 1, 47, 0
2, 578160, Note_off_c, 1, 73, 0
2, 578200, Note_on_c, 1, 52, 127
2, 578200, Note_on_c, 1, 74, 127
2, 578280, Note_off_c, 1, 52, 0
2, 578320, Note_on_c, 1, 50, 127
2, 578360, Note_off_c, 1, 50, 0
2, 578360, Note_off_c, 1, 74, 0
2, 578400, Note_on_c, 1, 52, 127
2, 578400, Note_on_c, 1, 71, 127
2, 578560, Note_off_c, 1, 71, 0
2, 578600, Note_on_c, 1, 69, 127
2, 578720, Note_off_c, 1, 69, 0
2, 578800, Note_on_c, 1, 68, 127
2, 578920, Note_off_c, 1, 68, 0
2, 578960, Note_on_c, 1, 71, 127
2, 579000, Note_off_c, 1, 52, 0
2, 579120, Note_off_c, 1, 71, 0
2, 579160, Note_on_c, 1, 69, 127
2, 579320, Note_off_c, 1, 69, 0
2, 579360, Note_on_c, 1, 45, 127
2, 579360, Note_on_c, 1, 73, 127
2, 579480, Note_off_c, 1, 73, 0
2, 579520, Note_on_c, 1, 71, 127
2, 579680, Note_off_c, 1, 45, 0
2, 579680, Note_off_c, 1, 71, 0
2, 579720, Note_on_c, 1, 42, 127
2, 579720, Note_on_c, 1, 74, 127
2, 579880, Note_off_c, 1, 74, 0
2, 579920, Note_on_c, 1, 73, 127
2, 580040, Note_off_c, 1, 42, 0
2, 580040, Note_off_c, 1, 73, 0
2, 580080, Note_on_c, 1, 37, 127
2, 580080, Note_on_c, 1, 71, 127
2, 580240, Note_off_c, 1, 71, 0
2, 580280, Note_on_c, 1, 69, 127
2, 580440, Note_off_c, 1, 37, 0
2, 580440, Note_off_c, 1, 69, 0
2, 580480, Note_on_c, 1, 38, 127
2, 580480, Note_on_c, 1, 73, 127
2, 580600, Note_off_c, 1, 73, 0
2, 580640, Note_on_c, 1, 71, 127
2, 580800, Note_off_c, 1, 38, 0
2, 580800, Note_off_c, 1, 71, 0
2, 580840, Note_on_c, 1, 40, 127
2, 580840, Note_on_c, 1, 69, 127
2, 581000, Note_off_c, 1, 69, 0
2, 581040, Note_on_c, 1, 68, 127
2, 581160, Note_off_c, 1, 40, 0
2, 581160, Note_off_c, 1, 68, 0
2, 581200, Note_on_c, 1, 33, 127
2, 581200, Note_on_c, 1, 69, 127
2, 581280, Note_off_c, 1, 69, 0
2, 581320, Note_on_c, 1, 68, 127
2, 581360, Note_off_c, 1, 68, 0
2, 581400, Note_on_c, 1, 69, 127
2, 581600, Note_on_c, 1, 40, 127
2, 581920, Note_off_c, 1, 40, 0
2, 581960, Note_on_c, 1, 45, 127
2, 582120, Note_off_c, 1, 69, 0
2, 582320, Note_off_c, 1, 33, 0
2, 582360, Note_on_c, 1, 52, 127
2, 582360, Note_on_c, 1, 60, 127
2, 582480, Note_off_c, 1, 52, 0
2, 582480, Note_off_c, 1, 60, 0
2, 582520, Note_on_c, 1, 50, 127
2, 582520, Note_on_c, 1, 62, 127
2, 582680, Note_off_c, 1, 45, 0
2, 582680, Note_off_c, 1, 50, 0
2, 582680, Note_off_c, 1, 62, 0
2, 582720, Note_on_c, 1, 48, 127
2, 582720, Note_on_c, 1, 64, 127
2, 582880, Note_off_c, 1, 48, 0
2, 582920, Note_on_c, 1, 47, 127
2, 583040, Note_off_c, 1, 47, 0
2, 583040, Note_off_c, 1, 64, 0
2, 583080, Note_on_c, 1, 45, 127
2, 583080, Note_on_c, 1, 65, 127
2, 583240, Note_off_c, 1, 45, 0
2, 583280, Note_on_c, 1, 47, 127
2, 583440, Note_off_c, 1, 47, 0
2, 583440, Note_off_c, 1, 65, 0
2, 583480, Note_on_c, 1, 48, 127
2, 583480, Note_on_c, 1, 64, 127
2, 583600, Note_off_c, 1, 48, 0
2, 583640, Note_on_c, 1, 47, 127
2, 583800, Note_off_c, 1, 47, 0
2, 583800, Note_off_c, 1, 64, 0
2, 583840, Note_on_c, 1, 45, 127
2, 583840, Note_on_c, 1, 62, 127
2, 584000, Note_off_c, 1, 45, 0
2, 584040, Note_on_c, 1, 47, 127
2, 584160, Note_off_c, 1, 47, 0
2, 584160, Note_off_c, 1, 62, 0
2, 584200, Note_on_c, 1, 48, 127
2, 584200, Note_on_c, 1, 64, 127
2, 584280, Note_on_c, 1, 62, 127
2, 584280, Note_off_c, 1, 64, 0
2, 584320, Note_off_c, 1, 62, 0
2, 584360, Note_off_c, 1, 48, 0
2, 584360, Note_on_c, 1, 64, 127
2, 584400, Note_on_c, 1, 47, 127
2, 584560, Note_off_c, 1, 47, 0
2, 584600, Note_on_c, 1, 45, 127
2, 584600, Note_on_c, 1, 57, 127
2, 584600, Note_off_c, 1, 64, 0
2, 584720, Note_off_c, 1, 45, 0
2, 584800, Note_on_c, 1, 47, 127
2, 584920, Note_off_c, 1, 47, 0
2, 584960, Note_on_c, 1, 48, 127
2, 585120, Note_off_c, 1, 48, 0
2, 585160, Note_on_c, 1, 50, 127
2, 585200, Note_off_c, 1, 57, 0
2, 585320, Note_off_c, 1, 50, 0
2, 585360, Note_on_c, 1, 52, 127
2, 585360, Note_on_c, 1, 56, 127
2, 585480, Note_off_c, 1, 52, 0
2, 585520, Note_on_c, 1, 50, 127
2, 585680, Note_off_c, 1, 50, 0
2, 585680, Note_off_c, 1, 56, 0
2, 585720, Note_on_c, 1, 48, 127
2, 585720, Note_on_c, 1, 57, 127
2, 585880, Note_off_c, 1, 48, 0
2, 585920, Note_on_c, 1, 47, 127
2, 586040, Note_off_c, 1, 47, 0
2, 586040, Note_off_c, 1, 57, 0
2, 586080, Note_on_c, 1, 45, 127
2, 586080, Note_on_c, 1, 65, 127
2, 586240, Note_off_c, 1, 45, 0
2, 586280, Note_on_c, 1, 47, 127
2, 586440, Note_off_c, 1, 47, 0
2, 586440, Note_off_c, 1, 65, 0
2, 586480, Note_on_c, 1, 48, 127
2, 586480, Note_on_c, 1, 64, 127
2, 586600, Note_off_c, 1, 48, 0
2, 586640, Note_on_c, 1, 47, 127
2, 586800, Note_off_c, 1, 47, 0
2, 586800, Note_off_c, 1, 64, 0
2, 586840, Note_on_c, 1, 45, 127
2, 586840, Note_on_c, 1, 62, 127
2, 587000, Note_off_c, 1, 45, 0
2, 587040, Note_on_c, 1, 47, 127
2, 587160, Note_off_c, 1, 47, 0
2, 587160, Note_off_c, 1, 62, 0
2, 587200, Note_on_c, 1, 48, 127
2, 587200, Note_on_c, 1, 64, 127
2, 587280, Note_on_c, 1, 62, 127
2, 587280, Note_off_c, 1, 64, 0
2, 587320, Note_off_c, 1, 62, 0
2, 587360, Note_off_c, 1, 48, 0
2, 587360, Note_on_c, 1, 64, 127
2, 587400, Note_on_c, 1, 47, 127
2, 587560, Note_off_c, 1, 47, 0
2, 587600, Note_on_c, 1, 45, 127
2, 587600, Note_on_c, 1, 57, 127
2, 587600, Note_off_c, 1, 64, 0
2, 587720, Note_off_c, 1, 45, 0
2, 587800, Note_on_c, 1, 47, 127
2, 587920, Note_off_c, 1, 47, 0
2, 587960, Note_on_c, 1, 48, 127
2, 588120, Note_off_c, 1, 48, 0
2, 588160, Note_on_c, 1, 50, 127
2, 588200, Note_off_c, 1, 57, 0
2, 588320, Note_off_c, 1, 50, 0
2, 588360, Note_on_c, 1, 52, 127
2, 588360, Note_on_c, 1, 56, 127
2, 588480, Note_off_c, 1, 52, 0
2, 588520, Note_on_c, 1, 50, 127
2, 588680, Note_off_c, 1, 50, 0
2, 588680, Note_off_c, 1, 56, 0
2, 588720, Note_on_c, 1, 48, 127
2, 588720, Note_on_c, 1, 57, 127
2, 588880, Note_off_c, 1, 48, 0
2, 588920, Note_on_c, 1, 47, 127
2, 589040, Note_off_c, 1, 47, 0
2, 589040, Note_off_c, 1, 57, 0
2, 589080, Note_on_c, 1, 45, 127
2, 589080, Note_on_c, 1, 65, 127
2, 589240, Note_off_c, 1, 45, 0
2, 589280, Note_on_c, 1, 47, 127
2, 589440, Note_off_c, 1, 47, 0
2, 589440, Note_off_c, 1, 65, 0
2, 589480, Note_on_c, 1, 48, 127
2, 589480, Note_on_c, 1, 64, 127
2, 589600, Note_off_c, 1, 48, 0
2, 589640, Note_on_c, 1, 47, 127
2, 589800, Note_off_c, 1, 47, 0
2, 589800, Note_off_c, 1, 64, 0
2, 589840, Note_on_c, 1, 45, 127
2, 589840, Note_on_c, 1, 62, 127
2, 590000, Note_off_c, 1, 45, 0
2, 590040, Note_on_c, 1, 47, 127
2, 590160, Note_off_c, 1, 47, 0
2, 590160, Note_off_c, 1, 62, 0
2, 590200, Note_on_c, 1, 48, 127
2, 590200, Note_on_c, 1, 69, 127
2, 590360, Note_off_c, 1, 48, 0
2, 590400, Note_on_c, 1, 47, 127
2, 590560, Note_off_c, 1, 47, 0
2, 590560, Note_off_c, 1, 69, 0
2, 590600, Note_on_c, 1, 45, 127
2, 590600, Note_on_c, 1, 67, 127
2, 590720, Note_off_c, 1, 45, 0
2, 590720, Note_off_c, 1, 67, 0
2, 590800, Note_on_c, 1, 47, 127
2, 590800, Note_on_c, 1, 65, 127
2, 590920, Note_off_c, 1, 47, 0
2, 590920, Note_off_c, 1, 65, 0
2, 590960, Note_on_c, 1, 48, 127
2, 590960, Note_on_c, 1, 64, 127
2, 591120, Note_off_c, 1, 48, 0
2, 591160, Note_on_c, 1, 50, 127
2, 591320, Note_off_c, 1, 50, 0
2, 591320, Note_off_c, 1, 64, 0
2, 591360, Note_on_c, 1, 52, 127
2, 591360, Note_on_c, 1, 62, 127
2, 591480, Note_off_c, 1, 52, 0
2, 591520, Note_on_c, 1, 53, 127
2, 591680, Note_off_c, 1, 53, 0
2, 591680, Note_off_c, 1, 62, 0
2, 591720, Note_on_c, 1, 52, 127
2, 591720, Note_on_c, 1, 62, 127
2, 591840, Note_off_c, 1, 62, 0
2, 591880, Note_off_c, 1, 52, 0
2, 591880, Note_on_c, 1, 60, 127
2, 591920, Note_on_c, 1, 50, 127
2, 591920, Note_off_c, 1, 60, 0
2, 591960, Note_on_c, 1, 62, 127
2, 592000, Note_on_c, 1, 60, 127
2, 592000, Note_off_c, 1, 62, 0
2, 592040, Note_off_c, 1, 50, 0
2, 592040, Note_off_c, 1, 60, 0
2, 592080, Note_on_c, 1, 48, 127
2, 592080, Note_on_c, 1, 59, 127
2, 592240, Note_off_c, 1, 48, 0
2, 592240, Note_off_c, 1, 59, 0
2, 592280, Note_on_c, 1, 47, 127
2, 592280, Note_on_c, 1, 60, 127
2, 592440, Note_off_c, 1, 47, 0
2, 592440, Note_off_c, 1, 60, 0
2, 592480, Note_on_c, 1, 45, 127
2, 592480, Note_on_c, 1, 62, 127
2, 592600, Note_off_c, 1, 45, 0
2, 592600, Note_off_c, 1, 62, 0
2, 592640, Note_on_c, 1, 44, 127
2, 592640, Note_on_c, 1, 59, 127
2, 592800, Note_off_c, 1, 44, 0
2, 592800, Note_off_c, 1, 59, 0
2, 592840, Note_on_c, 1, 45, 127
2, 592840, Note_on_c, 1, 60, 127
2, 593000, Note_off_c, 1, 60, 0
2, 593040, Note_on_c, 1, 57, 127
2, 593160, Note_off_c, 1, 45, 0
2, 593160, Note_off_c, 1, 57, 0
2, 593200, Note_on_c, 1, 40, 127
2, 593200, Note_on_c, 1, 59, 127
2, 593360, Note_off_c, 1, 59, 0
2, 593400, Note_on_c, 1, 57, 127
2, 593560, Note_off_c, 1, 57, 0
2, 593600, Note_on_c, 1, 56, 127
2, 593720, Note_off_c, 1, 56, 0
2, 593800, Note_on_c, 1, 57, 127
2, 593920, Note_off_c, 1, 40, 0
2, 593920, Note_off_c, 1, 57, 0
2, 593960, Note_on_c, 1, 59, 127
2, 594120, Note_off_c, 1, 59, 0
2, 594160, Note_on_c, 1, 60, 127
2, 594320, Note_off_c, 1, 60, 0
2, 594360, Note_on_c, 1, 52, 127
2, 594360, Note_on_c, 1, 62, 127
2, 594480, Note_off_c, 1, 52, 0
2, 594480, Note_off_c, 1, 62, 0
2, 594520, Note_on_c, 1, 53, 127
2, 594520, Note_on_c, 1, 59, 127
2, 594680, Note_off_c, 1, 53, 0
2, 594680, Note_off_c, 1, 59, 0
2, 594720, Note_on_c, 1, 52, 127
2, 594720, Note_on_c, 1, 60, 127
2, 594880, Note_off_c, 1, 60, 0
2, 594920, Note_on_c, 1, 62, 127
2, 595040, Note_off_c, 1, 52, 0
2, 595040, Note_off_c, 1, 62, 0
2, 595080, Note_on_c, 1, 50, 127
2, 595080, Note_on_c, 1, 64, 127
2, 595240, Note_off_c, 1, 64, 0
2, 595280, Note_on_c, 1, 65, 127
2, 595440, Note_off_c, 1, 50, 0
2, 595440, Note_off_c, 1, 65, 0
2, 595480, Note_on_c, 1, 48, 127
2, 595480, Note_on_c, 1, 64, 127
2, 595600, Note_off_c, 1, 64, 0
2, 595640, Note_on_c, 1, 62, 127
2, 595800, Note_off_c, 1, 48, 0
2, 595800, Note_off_c, 1, 62, 0
2, 595840, Note_on_c, 1, 47, 127
2, 595840, Note_on_c, 1, 60, 127
2, 596000, Note_off_c, 1, 60, 0
2, 596040, Note_on_c, 1, 62, 127
2, 596160, Note_off_c, 1, 47, 0
2, 596160, Note_off_c, 1, 62, 0
2, 596200, Note_on_c, 1, 48, 127
2, 596200, Note_on_c, 1, 64, 127
2, 596360, Note_off_c, 1, 64, 0
2, 596400, Note_on_c, 1, 62, 127
2, 596480, Note_off_c, 1, 48, 0
2, 596560, Note_off_c, 1, 62, 0
2, 596600, Note_on_c, 1, 45, 127
2, 596600, Note_on_c, 1, 60, 127
2, 596720, Note_off_c, 1, 45, 0
2, 596720, Note_off_c, 1, 60, 0
2, 596800, Note_on_c, 1, 47, 127
2, 596800, Note_on_c, 1, 59, 127
2, 596920, Note_off_c, 1, 47, 0
2, 596920, Note_off_c, 1, 59, 0
2, 596960, Note_on_c, 1, 48, 127
2, 596960, Note_on_c, 1, 57, 127
2, 597120, Note_off_c, 1, 48, 0
2, 597120, Note_off_c, 1, 57, 0
2, 597160, Note_on_c, 1, 50, 127
2, 597160, Note_on_c, 1, 59, 127
2, 597320, Note_off_c, 1, 50, 0
2, 597320, Note_off_c, 1, 59, 0
2, 597360, Note_on_c, 1, 52, 127
2, 597360, Note_on_c, 1, 60, 127
2, 597480, Note_off_c, 1, 52, 0
2, 597480, Note_off_c, 1, 60, 0
2, 597520, Note_on_c, 1, 53, 127
2, 597520, Note_on_c, 1, 62, 127
2, 597680, Note_off_c, 1, 53, 0
2, 597680, Note_off_c, 1, 62, 0
2, 597720, Note_on_c, 1, 55, 127
2, 597720, Note_on_c, 1, 64, 127
2, 597880, Note_off_c, 1, 64, 0
2, 597920, Note_on_c, 1, 65, 127
2, 598040, Note_off_c, 1, 55, 0
2, 598040, Note_off_c, 1, 65, 0
2, 598080, Note_on_c, 1, 53, 127
2, 598080, Note_on_c, 1, 67, 127
2, 598240, Note_off_c, 1, 67, 0
2, 598280, Note_on_c, 1, 69, 127
2, 598440, Note_off_c, 1, 53, 0
2, 598440, Note_off_c, 1, 69, 0
2, 598480, Note_on_c, 1, 52, 127
2, 598480, Note_on_c, 1, 67, 127
2, 598600, Note_off_c, 1, 67, 0
2, 598640, Note_on_c, 1, 65, 127
2, 598800, Note_off_c, 1, 52, 0
2, 598800, Note_off_c, 1, 65, 0
2, 598840, Note_on_c, 1, 50, 127
2, 598840, Note_on_c, 1, 64, 127
2, 599000, Note_off_c, 1, 64, 0
2, 599040, Note_on_c, 1, 65, 127
2, 599160, Note_off_c, 1, 50, 0
2, 599160, Note_off_c, 1, 65, 0
2, 599200, Note_on_c, 1, 52, 127
2, 599200, Note_on_c, 1, 67, 127
2, 599360, Note_off_c, 1, 67, 0
2, 599400, Note_on_c, 1, 65, 127
2, 599520, Note_off_c, 1, 52, 0
2, 599560, Note_off_c, 1, 65, 0
2, 599600, Note_on_c, 1, 48, 127
2, 599600, Note_on_c, 1, 64, 127
2, 599720, Note_off_c, 1, 48, 0
2, 599720, Note_off_c, 1, 64, 0
2, 599800, Note_on_c, 1, 50, 127
2, 599800, Note_on_c, 1, 62, 127
2, 599920, Note_off_c, 1, 50, 0
2, 599920, Note_off_c, 1, 62, 0
2, 599960, Note_on_c, 1, 52, 127
2, 599960, Note_on_c, 1, 60, 127
2, 600120, Note_off_c, 1, 52, 0
2, 600120, Note_off_c, 1, 60, 0
2, 600160, Note_on_c, 1, 54, 127
2, 600160, Note_on_c, 1, 62, 127
2, 600320, Note_off_c, 1, 54, 0
2, 600320, Note_off_c, 1, 62, 0
2, 600360, Note_on_c, 1, 55, 127
2, 600360, Note_on_c, 1, 64, 127
2, 600480, Note_off_c, 1, 55, 0
2, 600480, Note_off_c, 1, 64, 0
2, 600520, Note_on_c, 1, 57, 127
2, 600520, Note_on_c, 1, 66, 127
2, 600680, Note_off_c, 1, 57, 0
2, 600680, Note_off_c, 1, 66, 0
2, 600720, Note_on_c, 1, 59, 127
2, 600720, Note_on_c, 1, 67, 127
2, 600880, Note_off_c, 1, 67, 0
2, 600920, Note_on_c, 1, 69, 127
2, 601040, Note_off_c, 1, 59, 0
2, 601040, Note_off_c, 1, 69, 0
2, 601080, Note_on_c, 1, 57, 127
2, 601080, Note_on_c, 1, 71, 127
2, 601240, Note_off_c, 1, 71, 0
2, 601280, Note_on_c, 1, 72, 127
2, 601440, Note_off_c, 1, 57, 0
2, 601440, Note_off_c, 1, 72, 0
2, 601480, Note_on_c, 1, 55, 127
2, 601480, Note_on_c, 1, 71, 127
2, 601600, Note_off_c, 1, 71, 0
2, 601640, Note_on_c, 1, 69, 127
2, 601800, Note_off_c, 1, 55, 0
2, 601800, Note_off_c, 1, 69, 0
2, 601840, Note_on_c, 1, 54, 127
2, 601840, Note_on_c, 1, 67, 127
2, 602000, Note_off_c, 1, 67, 0
2, 602040, Note_on_c, 1, 69, 127
2, 602160, Note_off_c, 1, 54, 0
2, 602160, Note_off_c, 1, 69, 0
2, 602200, Note_on_c, 1, 55, 127
2, 602200, Note_on_c, 1, 71, 127
2, 602360, Note_off_c, 1, 71, 0
2, 602400, Note_on_c, 1, 69, 127
2, 602520, Note_off_c, 1, 55, 0
2, 602560, Note_off_c, 1, 69, 0
2, 602600, Note_on_c, 1, 52, 127
2, 602600, Note_on_c, 1, 67, 127
2, 602720, Note_off_c, 1, 67, 0
2, 602800, Note_on_c, 1, 66, 127
2, 602920, Note_off_c, 1, 52, 0
2, 602920, Note_off_c, 1, 66, 0
2, 602960, Note_on_c, 1, 60, 127
2, 602960, Note_on_c, 1, 64, 127
2, 603120, Note_off_c, 1, 64, 0
2, 603160, Note_on_c, 1, 63, 127
2, 603320, Note_off_c, 1, 60, 0
2, 603320, Note_off_c, 1, 63, 0
2, 603360, Note_on_c, 1, 57, 127
2, 603360, Note_on_c, 1, 64, 127
2, 603480, Note_off_c, 1, 64, 0
2, 603520, Note_on_c, 1, 66, 127
2, 603680, Note_off_c, 1, 66, 0
2, 603720, Note_on_c, 1, 59, 127
2, 603880, Note_off_c, 1, 57, 0
2, 603920, Note_on_c, 1, 55, 127
2, 604040, Note_off_c, 1, 55, 0
2, 604040, Note_off_c, 1, 59, 0
2, 604080, Note_on_c, 1, 54, 127
2, 604080, Note_on_c, 1, 67, 127
2, 604240, Note_off_c, 1, 54, 0
2, 604280, Note_on_c, 1, 52, 127
2, 604440, Note_off_c, 1, 52, 0
2, 604480, Note_on_c, 1, 59, 127
2, 604600, Note_off_c, 1, 67, 0
2, 604640, Note_on_c, 1, 66, 127
2, 604800, Note_off_c, 1, 59, 0
2, 604800, Note_off_c, 1, 66, 0
2, 604840, Note_on_c, 1, 47, 127
2, 604840, Note_on_c, 1, 64, 127
2, 605000, Note_off_c, 1, 64, 0
2, 605040, Note_on_c, 1, 63, 127
2, 605160, Note_off_c, 1, 47, 0
2, 605160, Note_off_c, 1, 63, 0
2, 605200, Note_on_c, 1, 52, 127
2, 605200, Note_on_c, 1, 64, 127
2, 605560, Note_off_c, 1, 52, 0
2, 605600, Note_on_c, 1, 47, 127
2, 605920, Note_off_c, 1, 47, 0
2, 605960, Note_on_c, 1, 40, 127
2, 606320, Note_off_c, 1, 40, 0
2, 606320, Note_off_c, 1, 64, 0
2, 606360, Note_on_c, 1, 52, 127
2, 606360, Note_on_c, 1, 64, 127
2, 606480, Note_off_c, 1, 52, 0
2, 606480, Note_off_c, 1, 64, 0
2, 606520, Note_on_c, 1, 53, 127
2, 606520, Note_on_c, 1, 62, 127
2, 606680, Note_off_c, 1, 53, 0
2, 606680, Note_off_c, 1, 62, 0
2, 606720, Note_on_c, 1, 55, 127
2, 606720, Note_on_c, 1, 61, 127
2, 606880, Note_off_c, 1, 55, 0
2, 606920, Note_on_c, 1, 53, 127
2, 607040, Note_off_c, 1, 53, 0
2, 607040, Note_off_c, 1, 61, 0
2, 607080, Note_on_c, 1, 52, 127
2, 607080, Note_on_c, 1, 59, 127
2, 607240, Note_off_c, 1, 52, 0
2, 607280, Note_on_c, 1, 53, 127
2, 607440, Note_off_c, 1, 53, 0
2, 607440, Note_off_c, 1, 59, 0
2, 607480, Note_on_c, 1, 55, 127
2, 607480, Note_on_c, 1, 61, 127
2, 607600, Note_off_c, 1, 55, 0
2, 607640, Note_on_c, 1, 53, 127
2, 607800, Note_off_c, 1, 53, 0
2, 607800, Note_off_c, 1, 61, 0
2, 607840, Note_on_c, 1, 52, 127
2, 607840, Note_on_c, 1, 62, 127
2, 608000, Note_off_c, 1, 52, 0
2, 608040, Note_on_c, 1, 53, 127
2, 608160, Note_off_c, 1, 53, 0
2, 608160, Note_off_c, 1, 62, 0
2, 608200, Note_on_c, 1, 55, 127
2, 608200, Note_on_c, 1, 64, 127
2, 608360, Note_off_c, 1, 55, 0
2, 608360, Note_off_c, 1, 64, 0
2, 608400, Note_on_c, 1, 53, 127
2, 608400, Note_on_c, 1, 67, 127
2, 608560, Note_off_c, 1, 53, 0
2, 608560, Note_off_c, 1, 67, 0
2, 608600, Note_on_c, 1, 52, 127
2, 608600, Note_on_c, 1, 70, 127
2, 608720, Note_off_c, 1, 52, 0
2, 608800, Note_on_c, 1, 53, 127
2, 608920, Note_off_c, 1, 53, 0
2, 608960, Note_on_c, 1, 55, 127
2, 609320, Note_off_c, 1, 55, 0
2, 609320, Note_off_c, 1, 70, 0
2, 609360, Note_on_c, 1, 49, 127
2, 609360, Note_on_c, 1, 69, 127
2, 609480, Note_off_c, 1, 69, 0
2, 609520, Note_on_c, 1, 67, 127
2, 609680, Note_off_c, 1, 49, 0
2, 609680, Note_off_c, 1, 67, 0
2, 609720, Note_on_c, 1, 50, 127
2, 609720, Note_on_c, 1, 65, 127
2, 609880, Note_off_c, 1, 65, 0
2, 609920, Note_on_c, 1, 64, 127
2, 610040, Note_off_c, 1, 50, 0
2, 610040, Note_off_c, 1, 64, 0
2, 610080, Note_on_c, 1, 46, 127
2, 610080, Note_on_c, 1, 65, 127
2, 610240, Note_off_c, 1, 65, 0
2, 610280, Note_on_c, 1, 74, 127
2, 610440, Note_off_c, 1, 46, 0
2, 610440, Note_off_c, 1, 74, 0
2, 610480, Note_on_c, 1, 43, 127
2, 610480, Note_on_c, 1, 73, 127
2, 610600, Note_off_c, 1, 73, 0
2, 610640, Note_on_c, 1, 71, 127
2, 610800, Note_off_c, 1, 43, 0
2, 610800, Note_off_c, 1, 71, 0
2, 610840, Note_on_c, 1, 45, 127
2, 610840, Note_on_c, 1, 69, 127
2, 611000, Note_off_c, 1, 69, 0
2, 611040, Note_on_c, 1, 67, 127
2, 611160, Note_off_c, 1, 45, 0
2, 611160, Note_off_c, 1, 67, 0
2, 611200, Note_on_c, 1, 38, 127
2, 611200, Note_on_c, 1, 65, 127
2, 611360, Note_off_c, 1, 65, 0
2, 611400, Note_on_c, 1, 67, 127
2, 611560, Note_off_c, 1, 67, 0
2, 611600, Note_on_c, 1, 69, 127
2, 611720, Note_off_c, 1, 69, 0
2, 611800, Note_on_c, 1, 67, 127
2, 611920, Note_off_c, 1, 38, 0
2, 611920, Note_off_c, 1, 67, 0
2, 611960, Note_on_c, 1, 65, 127
2, 612120, Note_off_c, 1, 65, 0
2, 612160, Note_on_c, 1, 64, 127
2, 612320, Note_off_c, 1, 64, 0
2, 612360, Note_on_c, 1, 50, 127
2, 612360, Note_on_c, 1, 62, 127
2, 612480, Note_off_c, 1, 50, 0
2, 612480, Note_off_c, 1, 62, 0
2, 612520, Note_on_c, 1, 52, 127
2, 612520, Note_on_c, 1, 60, 127
2, 612680, Note_off_c, 1, 52, 0
2, 612680, Note_off_c, 1, 60, 0
2, 612720, Note_on_c, 1, 53, 127
2, 612720, Note_on_c, 1, 59, 127
2, 612880, Note_off_c, 1, 53, 0
2, 612920, Note_on_c, 1, 52, 127
2, 613040, Note_off_c, 1, 52, 0
2, 613040, Note_off_c, 1, 59, 0
2, 613080, Note_on_c, 1, 50, 127
2, 613080, Note_on_c, 1, 59, 127
2, 613240, Note_off_c, 1, 50, 0
2, 613240, Note_off_c, 1, 59, 0
2, 613280, Note_on_c, 1, 52, 127
2, 613280, Note_on_c, 1, 57, 127
2, 613440, Note_off_c, 1, 52, 0
2, 613440, Note_off_c, 1, 57, 0
2, 613480, Note_on_c, 1, 53, 127
2, 613480, Note_on_c, 1, 59, 127
2, 613600, Note_off_c, 1, 53, 0
2, 613640, Note_on_c, 1, 52, 127
2, 613800, Note_off_c, 1, 52, 0
2, 613800, Note_off_c, 1, 59, 0
2, 613840, Note_on_c, 1, 50, 127
2, 613840, Note_on_c, 1, 59, 127
2, 614000, Note_off_c, 1, 50, 0
2, 614000, Note_off_c, 1, 59, 0
2, 614040, Note_on_c, 1, 52, 127
2, 614040, Note_on_c, 1, 60, 127
2, 614160, Note_off_c, 1, 52, 0
2, 614160, Note_off_c, 1, 60, 0
2, 614200, Note_on_c, 1, 53, 127
2, 614200, Note_on_c, 1, 62, 127
2, 614360, Note_off_c, 1, 53, 0
2, 614360, Note_off_c, 1, 62, 0
2, 614400, Note_on_c, 1, 52, 127
2, 614400, Note_on_c, 1, 65, 127
2, 614560, Note_off_c, 1, 52, 0
2, 614560, Note_off_c, 1, 65, 0
2, 614600, Note_on_c, 1, 50, 127
2, 614600, Note_on_c, 1, 69, 127
2, 614720, Note_off_c, 1, 50, 0
2, 614800, Note_on_c, 1, 52, 127
2, 614920, Note_off_c, 1, 52, 0
2, 614960, Note_on_c, 1, 53, 127
2, 615120, Note_off_c, 1, 53, 0
2, 615160, Note_on_c, 1, 55, 127
2, 615320, Note_off_c, 1, 55, 0
2, 615320, Note_off_c, 1, 69, 0
2, 615360, Note_on_c, 1, 57, 127
2, 615360, Note_on_c, 1, 67, 127
2, 615480, Note_off_c, 1, 57, 0
2, 615480, Note_off_c, 1, 67, 0
2, 615520, Note_on_c, 1, 59, 127
2, 615520, Note_on_c, 1, 65, 127
2, 615680, Note_off_c, 1, 59, 0
2, 615680, Note_off_c, 1, 65, 0
2, 615720, Note_on_c, 1, 60, 127
2, 615720, Note_on_c, 1, 64, 127
2, 615880, Note_off_c, 1, 64, 0
2, 615920, Note_on_c, 1, 62, 127
2, 616040, Note_off_c, 1, 60, 0
2, 616040, Note_off_c, 1, 62, 0
2, 616080, Note_on_c, 1, 57, 127
2, 616080, Note_on_c, 1, 64, 127
2, 616240, Note_off_c, 1, 64, 0
2, 616280, Note_on_c, 1, 72, 127
2, 616440, Note_off_c, 1, 57, 0
2, 616440, Note_off_c, 1, 72, 0
2, 616480, Note_on_c, 1, 53, 127
2, 616480, Note_on_c, 1, 71, 127
2, 616600, Note_off_c, 1, 71, 0
2, 616640, Note_on_c, 1, 69, 127
2, 616800, Note_off_c, 1, 53, 0
2, 616800, Note_off_c, 1, 69, 0
2, 616840, Note_on_c, 1, 55, 127
2, 616840, Note_on_c, 1, 67, 127
2, 617000, Note_off_c, 1, 67, 0
2, 617040, Note_on_c, 1, 65, 127
2, 617160, Note_off_c, 1, 55, 0
2, 617160, Note_off_c, 1, 65, 0
2, 617200, Note_on_c, 1, 48, 127
2, 617200, Note_on_c, 1, 64, 127
2, 617360, Note_off_c, 1, 64, 0
2, 617400, Note_on_c, 1, 65, 127
2, 617560, Note_off_c, 1, 65, 0
2, 617600, Note_on_c, 1, 67, 127
2, 617720, Note_off_c, 1, 67, 0
2, 617800, Note_on_c, 1, 65, 127
2, 617840, Note_off_c, 1, 48, 0
2, 617920, Note_off_c, 1, 65, 0
2, 617960, Note_on_c, 1, 64, 127
2, 618120, Note_off_c, 1, 64, 0
2, 618160, Note_on_c, 1, 53, 127
2, 618160, Note_on_c, 1, 62, 127
2, 618320, Note_off_c, 1, 53, 0
2, 618320, Note_off_c, 1, 62, 0
2, 618360, Note_on_c, 1, 52, 127
2, 618360, Note_on_c, 1, 60, 127
2, 618480, Note_off_c, 1, 52, 0
2, 618480, Note_off_c, 1, 60, 0
2, 618520, Note_on_c, 1, 50, 127
2, 618520, Note_on_c, 1, 59, 127
2, 618680, Note_off_c, 1, 50, 0
2, 618680, Note_off_c, 1, 59, 0
2, 618720, Note_on_c, 1, 48, 127
2, 618720, Note_on_c, 1, 57, 127
2, 618880, Note_off_c, 1, 48, 0
2, 618880, Note_off_c, 1, 57, 0
2, 618920, Note_on_c, 1, 47, 127
2, 618920, Note_on_c, 1, 67, 127
2, 619040, Note_off_c, 1, 47, 0
2, 619040, Note_off_c, 1, 67, 0
2, 619080, Note_on_c, 1, 48, 127
2, 619080, Note_on_c, 1, 65, 127
2, 619240, Note_off_c, 1, 65, 0
2, 619280, Note_on_c, 1, 64, 127
2, 619440, Note_off_c, 1, 64, 0
2, 619480, Note_on_c, 1, 65, 127
2, 619560, Note_off_c, 1, 48, 0
2, 619640, Note_on_c, 1, 52, 127
2, 619800, Note_off_c, 1, 52, 0
2, 619800, Note_off_c, 1, 65, 0
2, 619840, Note_on_c, 1, 50, 127
2, 619840, Note_on_c, 1, 57, 127
2, 620000, Note_off_c, 1, 50, 0
2, 620040, Note_on_c, 1, 48, 127
2, 620160, Note_off_c, 1, 48, 0
2, 620160, Note_off_c, 1, 57, 0
2, 620200, Note_on_c, 1, 47, 127
2, 620200, Note_on_c, 1, 56, 127
2, 620360, Note_off_c, 1, 47, 0
2, 620360, Note_off_c, 1, 56, 0
2, 620400, Note_on_c, 1, 45, 127
2, 620400, Note_on_c, 1, 54, 127
2, 620560, Note_off_c, 1, 45, 0
2, 620560, Note_off_c, 1, 54, 0
2, 620600, Note_on_c, 1, 47, 127
2, 620600, Note_on_c, 1, 56, 127
2, 620720, Note_off_c, 1, 56, 0
2, 620800, Note_on_c, 1, 65, 127
2, 620920, Note_off_c, 1, 65, 0
2, 620960, Note_on_c, 1, 64, 127
2, 621080, Note_off_c, 1, 47, 0
2, 621160, Note_on_c, 1, 50, 127
2, 621320, Note_off_c, 1, 50, 0
2, 621320, Note_off_c, 1, 64, 0
2, 621360, Note_on_c, 1, 48, 127
2, 621360, Note_on_c, 1, 55, 127
2, 621480, Note_off_c, 1, 48, 0
2, 621520, Note_on_c, 1, 47, 127
2, 621680, Note_off_c, 1, 47, 0
2, 621680, Note_off_c, 1, 55, 0
2, 621720, Note_on_c, 1, 45, 127
2, 621720, Note_on_c, 1, 54, 127
2, 621880, Note_off_c, 1, 45, 0
2, 621880, Note_off_c, 1, 54, 0
2, 621920, Note_on_c, 1, 44, 127
2, 621920, Note_on_c, 1, 52, 127
2, 622040, Note_off_c, 1, 44, 0
2, 622040, Note_off_c, 1, 52, 0
2, 622080, Note_on_c, 1, 45, 127
2, 622080, Note_on_c, 1, 53, 127
2, 622240, Note_off_c, 1, 53, 0
2, 622280, Note_on_c, 1, 64, 127
2, 622440, Note_off_c, 1, 64, 0
2, 622480, Note_on_c, 1, 62, 127
2, 622600, Note_off_c, 1, 45, 0
2, 622600, Note_off_c, 1, 62, 0
2, 622640, Note_on_c, 1, 47, 127
2, 622640, Note_on_c, 1, 60, 127
2, 622800, Note_off_c, 1, 47, 0
2, 622800, Note_off_c, 1, 60, 0
2, 622840, Note_on_c, 1, 48, 127
2, 622840, Note_on_c, 1, 59, 127
2, 623000, Note_off_c, 1, 48, 0
2, 623000, Note_off_c, 1, 59, 0
2, 623040, Note_on_c, 1, 50, 127
2, 623040, Note_on_c, 1, 57, 127
2, 623160, Note_off_c, 1, 50, 0
2, 623160, Note_off_c, 1, 57, 0
2, 623200, Note_on_c, 1, 52, 127
2, 623200, Note_on_c, 1, 69, 127
2, 623360, Note_off_c, 1, 52, 0
2, 623360, Note_off_c, 1, 69, 0
2, 623400, Note_on_c, 1, 51, 127
2, 623400, Note_on_c, 1, 68, 127
2, 623560, Note_off_c, 1, 51, 0
2, 623560, Note_off_c, 1, 68, 0
2, 623600, Note_on_c, 1, 52, 127
2, 623600, Note_on_c, 1, 66, 127
2, 623720, Note_off_c, 1, 66, 0
2, 623800, Note_on_c, 1, 64, 127
2, 623920, Note_off_c, 1, 64, 0
2, 623960, Note_on_c, 1, 71, 127
2, 624120, Note_off_c, 1, 52, 0
2, 624160, Note_on_c, 1, 50, 127
2, 624320, Note_off_c, 1, 50, 0
2, 624320, Note_off_c, 1, 71, 0
2, 624360, Note_on_c, 1, 48, 127
2, 624360, Note_on_c, 1, 64, 127
2, 624480, Note_off_c, 1, 48, 0
2, 624480, Note_off_c, 1, 64, 0
2, 624520, Note_on_c, 1, 47, 127
2, 624520, Note_on_c, 1, 62, 127
2, 624680, Note_off_c, 1, 47, 0
2, 624680, Note_off_c, 1, 62, 0
2, 624720, Note_on_c, 1, 45, 127
2, 624720, Note_on_c, 1, 64, 127
2, 624880, Note_off_c, 1, 45, 0
2, 624920, Note_on_c, 1, 44, 127
2, 625040, Note_off_c, 1, 44, 0
2, 625040, Note_off_c, 1, 64, 0
2, 625080, Note_on_c, 1, 42, 127
2, 625080, Note_on_c, 1, 74, 127
2, 625240, Note_off_c, 1, 42, 0
2, 625280, Note_on_c, 1, 44, 127
2, 625440, Note_off_c, 1, 44, 0
2, 625440, Note_off_c, 1, 74, 0
2, 625480, Note_on_c, 1, 45, 127
2, 625480, Note_on_c, 1, 72, 127
2, 625600, Note_off_c, 1, 45, 0
2, 625640, Note_on_c, 1, 44, 127
2, 625800, Note_off_c, 1, 44, 0
2, 625800, Note_off_c, 1, 72, 0
2, 625840, Note_on_c, 1, 42, 127
2, 625840, Note_on_c, 1, 71, 127
2, 626000, Note_off_c, 1, 42, 0
2, 626040, Note_on_c, 1, 44, 127
2, 626160, Note_off_c, 1, 44, 0
2, 626160, Note_off_c, 1, 71, 0
2, 626200, Note_on_c, 1, 45, 127
2, 626200, Note_on_c, 1, 72, 127
2, 626360, Note_off_c, 1, 45, 0
2, 626400, Note_on_c, 1, 47, 127
2, 626560, Note_off_c, 1, 47, 0
2, 626560, Note_off_c, 1, 72, 0
2, 626600, Note_on_c, 1, 48, 127
2, 626600, Note_on_c, 1, 64, 127
2, 626720, Note_off_c, 1, 48, 0
2, 626800, Note_on_c, 1, 50, 127
2, 626920, Note_off_c, 1, 50, 0
2, 626960, Note_on_c, 1, 52, 127
2, 627120, Note_off_c, 1, 52, 0
2, 627160, Note_on_c, 1, 54, 127
2, 627200, Note_off_c, 1, 64, 0
2, 627320, Note_off_c, 1, 54, 0
2, 627360, Note_on_c, 1, 56, 127
2, 627360, Note_on_c, 1, 62, 127
2, 627480, Note_off_c, 1, 56, 0
2, 627480, Note_off_c, 1, 62, 0
2, 627520, Note_on_c, 1, 57, 127
2, 627520, Note_on_c, 1, 60, 127
2, 627680, Note_off_c, 1, 57, 0
2, 627680, Note_off_c, 1, 60, 0
2, 627720, Note_on_c, 1, 56, 127
2, 627720, Note_on_c, 1, 62, 127
2, 627880, Note_off_c, 1, 56, 0
2, 627920, Note_on_c, 1, 57, 127
2, 628040, Note_off_c, 1, 57, 0
2, 628040, Note_off_c, 1, 62, 0
2, 628080, Note_on_c, 1, 59, 127
2, 628080, Note_on_c, 1, 72, 127
2, 628240, Note_off_c, 1, 59, 0
2, 628280, Note_on_c, 1, 57, 127
2, 628440, Note_off_c, 1, 57, 0
2, 628440, Note_off_c, 1, 72, 0
2, 628480, Note_on_c, 1, 56, 127
2, 628480, Note_on_c, 1, 71, 127
2, 628600, Note_off_c, 1, 56, 0
2, 628600, Note_off_c, 1, 71, 0
2, 628640, Note_on_c, 1, 57, 127
2, 628640, Note_on_c, 1, 69, 127
2, 628800, Note_off_c, 1, 57, 0
2, 628800, Note_off_c, 1, 69, 0
2, 628840, Note_on_c, 1, 59, 127
2, 628840, Note_on_c, 1, 68, 127
2, 629000, Note_off_c, 1, 59, 0
2, 629000, Note_off_c, 1, 68, 0
2, 629040, Note_on_c, 1, 57, 127
2, 629040, Note_on_c, 1, 69, 127
2, 629160, Note_off_c, 1, 57, 0
2, 629160, Note_off_c, 1, 69, 0
2, 629200, Note_on_c, 1, 56, 127
2, 629200, Note_on_c, 1, 71, 127
2, 629360, Note_off_c, 1, 56, 0
2, 629400, Note_on_c, 1, 54, 127
2, 629520, Note_off_c, 1, 71, 0
2, 629560, Note_off_c, 1, 54, 0
2, 629600, Note_on_c, 1, 52, 127
2, 629600, Note_on_c, 1, 62, 127
2, 629720, Note_off_c, 1, 52, 0
2, 629800, Note_on_c, 1, 50, 127
2, 629920, Note_off_c, 1, 50, 0
2, 629960, Note_on_c, 1, 48, 127
2, 630120, Note_off_c, 1, 48, 0
2, 630160, Note_on_c, 1, 47, 127
2, 630200, Note_off_c, 1, 62, 0
2, 630320, Note_off_c, 1, 47, 0
2, 630360, Note_on_c, 1, 45, 127
2, 630360, Note_on_c, 1, 60, 127
2, 630480, Note_off_c, 1, 45, 0
2, 630480, Note_off_c, 1, 60, 0
2, 630520, Note_on_c, 1, 44, 127
2, 630520, Note_on_c, 1, 59, 127
2, 630680, Note_off_c, 1, 44, 0
2, 630680, Note_off_c, 1, 59, 0
2, 630720, Note_on_c, 1, 45, 127
2, 630720, Note_on_c, 1, 60, 127
2, 630880, Note_off_c, 1, 60, 0
2, 630920, Note_on_c, 1, 69, 127
2, 631040, Note_off_c, 1, 45, 0
2, 631040, Note_off_c, 1, 69, 0
2, 631080, Note_on_c, 1, 48, 127
2, 631080, Note_on_c, 1, 67, 127
2, 631240, Note_off_c, 1, 67, 0
2, 631280, Note_on_c, 1, 64, 127
2, 631440, Note_off_c, 1, 48, 0
2, 631440, Note_off_c, 1, 64, 0
2, 631480, Note_on_c, 1, 47, 127
2, 631480, Note_on_c, 1, 65, 127
2, 631640, Note_off_c, 1, 65, 0
2, 631680, Note_on_c, 1, 64, 127
2, 631800, Note_off_c, 1, 47, 0
2, 631800, Note_off_c, 1, 64, 0
2, 631840, Note_on_c, 1, 45, 127
2, 631840, Note_on_c, 1, 62, 127
2, 632000, Note_off_c, 1, 62, 0
2, 632040, Note_on_c, 1, 60, 127
2, 632200, Note_off_c, 1, 45, 0
2, 632200, Note_off_c, 1, 60, 0
2, 632240, Note_on_c, 1, 44, 127
2, 632240, Note_on_c, 1, 59, 127
2, 632400, Note_off_c, 1, 59, 0
2, 632440, Note_on_c, 1, 65, 127
2, 632560, Note_off_c, 1, 44, 0
2, 632560, Note_off_c, 1, 65, 0
2, 632600, Note_on_c, 1, 45, 127
2, 632600, Note_on_c, 1, 64, 127
2, 632760, Note_off_c, 1, 64, 0
2, 632800, Note_on_c, 1, 60, 127
2, 632960, Note_off_c, 1, 45, 0
2, 632960, Note_off_c, 1, 60, 0
2, 633000, Note_on_c, 1, 41, 127
2, 633000, Note_on_c, 1, 62, 127
2, 633160, Note_off_c, 1, 62, 0
2, 633200, Note_on_c, 1, 60, 127
2, 633320, Note_off_c, 1, 41, 0
2, 633320, Note_off_c, 1, 60, 0
2, 633400, Note_on_c, 1, 38, 127
2, 633400, Note_on_c, 1, 59, 127
2, 633520, Note_off_c, 1, 59, 0
2, 633560, Note_on_c, 1, 57, 127
2, 633720, Note_off_c, 1, 38, 0
2, 633720, Note_off_c, 1, 57, 0
2, 633760, Note_on_c, 1, 40, 127
2, 633760, Note_on_c, 1, 56, 127
2, 633920, Note_off_c, 1, 56, 0
2, 633960, Note_on_c, 1, 62, 127
2, 634120, Note_off_c, 1, 40, 0
2, 634120, Note_off_c, 1, 62, 0
2, 634160, Note_on_c, 1, 45, 127
2, 634160, Note_on_c, 1, 60, 127
2, 634320, Note_off_c, 1, 60, 0
2, 634360, Note_on_c, 1, 57, 127
2, 634520, Note_off_c, 1, 45, 0
2, 634520, Note_off_c, 1, 57, 0
2, 634560, Note_on_c, 1, 52, 127
2, 634560, Note_on_c, 1, 60, 127
2, 634680, Note_off_c, 1, 60, 0
2, 634760, Note_on_c, 1, 59, 127
2, 634880, Note_off_c, 1, 52, 0
2, 634880, Note_off_c, 1, 59, 0
2, 634920, Note_on_c, 1, 40, 127
2, 634920, Note_on_c, 1, 57, 127
2, 635080, Note_off_c, 1, 57, 0
2, 635120, Note_on_c, 1, 56, 127
2, 635320, Note_off_c, 1, 40, 0
2, 635320, Note_off_c, 1, 56, 0
2, 635360, Note_on_c, 1, 33, 127
2, 635360, Note_on_c, 1, 57, 127
2, 635880, Note_on_c, 1, 40, 127
2, 636320, Note_off_c, 1, 40, 0
2, 636400, Note_on_c, 1, 45, 127
2, 638440, Note_off_c, 1, 33, 0
2, 638440, Note_off_c, 1, 45, 0
2, 638440, Note_off_c, 1, 57, 0
2, 640080, Note_on_c, 1, 76, 127
2, 640320, Note_off_c, 1, 76, 0
2, 640440, Note_on_c, 1, 81, 127
2, 640760, Note_off_c, 1, 81, 0
2, 640800, Note_on_c, 1, 80, 127
2, 640960, Note_off_c, 1, 80, 0
2, 641000, Note_on_c, 1, 78, 127
2, 641120, Note_off_c, 1, 78, 0
2, 641200, Note_on_c, 1, 64, 127
2, 641200, Note_on_c, 1, 76, 127
2, 641320, Note_off_c, 1, 76, 0
2, 641360, Note_on_c, 1, 74, 127
2, 641480, Note_off_c, 1, 64, 0
2, 641520, Note_off_c, 1, 74, 0
2, 641560, Note_on_c, 1, 69, 127
2, 641560, Note_on_c, 1, 73, 127
2, 641680, Note_off_c, 1, 73, 0
2, 641760, Note_on_c, 1, 74, 127
2, 641880, Note_off_c, 1, 69, 0
2, 641880, Note_off_c, 1, 74, 0
2, 641920, Note_on_c, 1, 68, 127
2, 641920, Note_on_c, 1, 76, 127
2, 641960, Note_off_c, 1, 76, 0
2, 642040, Note_on_c, 1, 74, 127
2, 642080, Note_off_c, 1, 68, 0
2, 642080, Note_off_c, 1, 74, 0
2, 642120, Note_on_c, 1, 66, 127
2, 642120, Note_on_c, 1, 76, 127
2, 642160, Note_off_c, 1, 76, 0
2, 642200, Note_on_c, 1, 74, 127
2, 642240, Note_off_c, 1, 66, 0
2, 642240, Note_off_c, 1, 74, 0
2, 642320, Note_on_c, 1, 64, 127
2, 642320, Note_on_c, 1, 76, 127
2, 642360, Note_off_c, 1, 76, 0
2, 642400, Note_on_c, 1, 74, 127
2, 642440, Note_off_c, 1, 64, 0
2, 642440, Note_off_c, 1, 74, 0
2, 642480, Note_on_c, 1, 62, 127
2, 642480, Note_on_c, 1, 73, 127
2, 642520, Note_off_c, 1, 73, 0
2, 642600, Note_on_c, 1, 74, 127
2, 642640, Note_off_c, 1, 62, 0
2, 642640, Note_off_c, 1, 74, 0
2, 642680, Note_on_c, 1, 61, 127
2, 642680, Note_on_c, 1, 76, 127
2, 642800, Note_off_c, 1, 61, 0
2, 642880, Note_on_c, 1, 62, 127
2, 643000, Note_off_c, 1, 62, 0
2, 643000, Note_off_c, 1, 76, 0
2, 643040, Note_on_c, 1, 64, 127
2, 643040, Note_on_c, 1, 74, 127
2, 643080, Note_off_c, 1, 64, 0
2, 643160, Note_on_c, 1, 62, 127
2, 643200, Note_off_c, 1, 62, 0
2, 643200, Note_off_c, 1, 74, 0
2, 643240, Note_on_c, 1, 64, 127
2, 643240, Note_on_c, 1, 73, 127
2, 643280, Note_off_c, 1, 64, 0
2, 643320, Note_on_c, 1, 62, 127
2, 643360, Note_off_c, 1, 62, 0
2, 643360, Note_off_c, 1, 73, 0
2, 643440, Note_on_c, 1, 64, 127
2, 643440, Note_on_c, 1, 71, 127
2, 643480, Note_off_c, 1, 64, 0
2, 643520, Note_on_c, 1, 62, 127
2, 643560, Note_off_c, 1, 62, 0
2, 643560, Note_off_c, 1, 71, 0
2, 643600, Note_on_c, 1, 61, 127
2, 643600, Note_on_c, 1, 69, 127
2, 643640, Note_off_c, 1, 61, 0
2, 643720, Note_on_c, 1, 62, 127
2, 643760, Note_off_c, 1, 62, 0
2, 643760, Note_off_c, 1, 69, 0
2, 643800, Note_on_c, 1, 64, 127
2, 643800, Note_on_c, 1, 68, 127
2, 643920, Note_off_c, 1, 68, 0
2, 644000, Note_on_c, 1, 69, 127
2, 644120, Note_off_c, 1, 64, 0
2, 644120, Note_off_c, 1, 69, 0
2, 644160, Note_on_c, 1, 62, 127
2, 644160, Note_on_c, 1, 71, 127
2, 644200, Note_off_c, 1, 71, 0
2, 644280, Note_on_c, 1, 69, 127
2, 644320, Note_off_c, 1, 62, 0
2, 644320, Note_off_c, 1, 69, 0
2, 644360, Note_on_c, 1, 61, 127
2, 644360, Note_on_c, 1, 71, 127
2, 644400, Note_off_c, 1, 71, 0
2, 644440, Note_on_c, 1, 69, 127
2, 644480, Note_off_c, 1, 61, 0
2, 644480, Note_off_c, 1, 69, 0
2, 644560, Note_on_c, 1, 59, 127
2, 644560, Note_on_c, 1, 71, 127
2, 644600, Note_off_c, 1, 71, 0
2, 644640, Note_on_c, 1, 69, 127
2, 644680, Note_off_c, 1, 59, 0
2, 644680, Note_off_c, 1, 69, 0
2, 644720, Note_on_c, 1, 57, 127
2, 644720, Note_on_c, 1, 68, 127
2, 644760, Note_off_c, 1, 68, 0
2, 644840, Note_on_c, 1, 69, 127
2, 644880, Note_off_c, 1, 57, 0
2, 644880, Note_off_c, 1, 69, 0
2, 644920, Note_on_c, 1, 56, 127
2, 644920, Note_on_c, 1, 71, 127
2, 645040, Note_off_c, 1, 56, 0
2, 645040, Note_off_c, 1, 71, 0
2, 645120, Note_on_c, 1, 57, 127
2, 645120, Note_on_c, 1, 73, 127
2, 645240, Note_off_c, 1, 57, 0
2, 645240, Note_off_c, 1, 73, 0
2, 645280, Note_on_c, 1, 59, 127
2, 645280, Note_on_c, 1, 74, 127
2, 645320, Note_off_c, 1, 59, 0
2, 645320, Note_off_c, 1, 74, 0
2, 645360, Note_on_c, 1, 57, 127
2, 645360, Note_on_c, 1, 73, 127
2, 645440, Note_off_c, 1, 57, 0
2, 645440, Note_off_c, 1, 73, 0
2, 645480, Note_on_c, 1, 59, 127
2, 645480, Note_on_c, 1, 74, 127
2, 645520, Note_off_c, 1, 59, 0
2, 645520, Note_off_c, 1, 74, 0
2, 645560, Note_on_c, 1, 57, 127
2, 645560, Note_on_c, 1, 73, 127
2, 645600, Note_off_c, 1, 57, 0
2, 645600, Note_off_c, 1, 73, 0
2, 645640, Note_on_c, 1, 59, 127
2, 645640, Note_on_c, 1, 74, 127
2, 645720, Note_off_c, 1, 59, 0
2, 645720, Note_off_c, 1, 74, 0
2, 645760, Note_on_c, 1, 57, 127
2, 645760, Note_on_c, 1, 73, 127
2, 645800, Note_off_c, 1, 57, 0
2, 645800, Note_off_c, 1, 73, 0
2, 645840, Note_on_c, 1, 56, 127
2, 645840, Note_on_c, 1, 71, 127
2, 645880, Note_off_c, 1, 56, 0
2, 645880, Note_off_c, 1, 71, 0
2, 645920, Note_on_c, 1, 57, 127
2, 645920, Note_on_c, 1, 73, 127
2, 645960, Note_off_c, 1, 57, 0
2, 645960, Note_off_c, 1, 73, 0
2, 646040, Note_on_c, 1, 59, 127
2, 646040, Note_on_c, 1, 74, 127
2, 646160, Note_off_c, 1, 59, 0
2, 646200, Note_on_c, 1, 57, 127
2, 646360, Note_off_c, 1, 57, 0
2, 646400, Note_on_c, 1, 56, 127
2, 646520, Note_off_c, 1, 56, 0
2, 646520, Note_off_c, 1, 74, 0
2, 646600, Note_on_c, 1, 52, 127
2, 646600, Note_on_c, 1, 76, 127
2, 646720, Note_off_c, 1, 52, 0
2, 646720, Note_off_c, 1, 76, 0
2, 646760, Note_on_c, 1, 57, 127
2, 646760, Note_on_c, 1, 74, 127
2, 646920, Note_off_c, 1, 57, 0
2, 646920, Note_off_c, 1, 74, 0
2, 646960, Note_on_c, 1, 56, 127
2, 646960, Note_on_c, 1, 73, 127
2, 647080, Note_off_c, 1, 56, 0
2, 647160, Note_on_c, 1, 54, 127
2, 647280, Note_off_c, 1, 54, 0
2, 647280, Note_off_c, 1, 73, 0
2, 647320, Note_on_c, 1, 50, 127
2, 647320, Note_on_c, 1, 74, 127
2, 647480, Note_off_c, 1, 50, 0
2, 647480, Note_off_c, 1, 74, 0
2, 647520, Note_on_c, 1, 52, 127
2, 647520, Note_on_c, 1, 73, 127
2, 647680, Note_off_c, 1, 73, 0
2, 647720, Note_on_c, 1, 71, 127
2, 647760, Note_off_c, 1, 71, 0
2, 647760, Note_on_c, 1, 73, 127
2, 647800, Note_off_c, 1, 73, 0
2, 647840, Note_off_c, 1, 52, 0
2, 647840, Note_on_c, 1, 71, 127
2, 647880, Note_on_c, 1, 40, 127
2, 648040, Note_off_c, 1, 40, 0
2, 648040, Note_off_c, 1, 71, 0
2, 648080, Note_on_c, 1, 52, 127
2, 648080, Note_on_c, 1, 76, 127
2, 648200, Note_off_c, 1, 52, 0
2, 648200, Note_off_c, 1, 76, 0
2, 648240, Note_on_c, 1, 57, 127
2, 648240, Note_on_c, 1, 73, 127
2, 648400, Note_off_c, 1, 73, 0
2, 648440, Note_on_c, 1, 71, 127
2, 648560, Note_off_c, 1, 57, 0
2, 648560, Note_off_c, 1, 71, 0
2, 648640, Note_on_c, 1, 56, 127
2, 648640, Note_on_c, 1, 69, 127
2, 648760, Note_off_c, 1, 56, 0
2, 648760, Note_off_c, 1, 69, 0
2, 648800, Note_on_c, 1, 54, 127
2, 648800, Note_on_c, 1, 71, 127
2, 648960, Note_off_c, 1, 54, 0
2, 648960, Note_off_c, 1, 71, 0
2, 649000, Note_on_c, 1, 52, 127
2, 649000, Note_on_c, 1, 73, 127
2, 649120, Note_off_c, 1, 52, 0
2, 649120, Note_off_c, 1, 73, 0
2, 649200, Note_on_c, 1, 50, 127
2, 649200, Note_on_c, 1, 74, 127
2, 649320, Note_off_c, 1, 50, 0
2, 649320, Note_off_c, 1, 74, 0
2, 649360, Note_on_c, 1, 49, 127
2, 649360, Note_on_c, 1, 76, 127
2, 649520, Note_off_c, 1, 49, 0
2, 649520, Note_off_c, 1, 76, 0
2, 649560, Note_on_c, 1, 50, 127
2, 649560, Note_on_c, 1, 74, 127
2, 649680, Note_off_c, 1, 50, 0
2, 649680, Note_off_c, 1, 74, 0
2, 649760, Note_on_c, 1, 52, 127
2, 649760, Note_on_c, 1, 73, 127
2, 649800, Note_off_c, 1, 52, 0
2, 649840, Note_on_c, 1, 50, 127
2, 649880, Note_off_c, 1, 50, 0
2, 649880, Note_off_c, 1, 73, 0
2, 649920, Note_on_c, 1, 52, 127
2, 649920, Note_on_c, 1, 74, 127
2, 649960, Note_off_c, 1, 52, 0
2, 650040, Note_on_c, 1, 50, 127
2, 650080, Note_off_c, 1, 50, 0
2, 650080, Note_off_c, 1, 74, 0
2, 650120, Note_on_c, 1, 52, 127
2, 650120, Note_on_c, 1, 76, 127
2, 650160, Note_off_c, 1, 52, 0
2, 650200, Note_on_c, 1, 50, 127
2, 650240, Note_off_c, 1, 50, 0
2, 650240, Note_off_c, 1, 76, 0
2, 650320, Note_on_c, 1, 49, 127
2, 650320, Note_on_c, 1, 78, 127
2, 650360, Note_off_c, 1, 49, 0
2, 650400, Note_on_c, 1, 50, 127
2, 650440, Note_off_c, 1, 50, 0
2, 650440, Note_off_c, 1, 78, 0
2, 650480, Note_on_c, 1, 52, 127
2, 650480, Note_on_c, 1, 79, 127
2, 650640, Note_off_c, 1, 52, 0
2, 650640, Note_off_c, 1, 79, 0
2, 650680, Note_on_c, 1, 45, 127
2, 650680, Note_on_c, 1, 78, 127
2, 650800, Note_off_c, 1, 45, 0
2, 650800, Note_off_c, 1, 78, 0
2, 650880, Note_on_c, 1, 57, 127
2, 650880, Note_on_c, 1, 76, 127
2, 651000, Note_off_c, 1, 57, 0
2, 651000, Note_off_c, 1, 76, 0
2, 651040, Note_on_c, 1, 55, 127
2, 651040, Note_on_c, 1, 78, 127
2, 651200, Note_off_c, 1, 55, 0
2, 651200, Note_off_c, 1, 78, 0
2, 651240, Note_on_c, 1, 54, 127
2, 651240, Note_on_c, 1, 79, 127
2, 651360, Note_off_c, 1, 54, 0
2, 651360, Note_off_c, 1, 79, 0
2, 651400, Note_on_c, 1, 52, 127
2, 651400, Note_on_c, 1, 81, 127
2, 651560, Note_off_c, 1, 52, 0
2, 651560, Note_off_c, 1, 81, 0
2, 651600, Note_on_c, 1, 50, 127
2, 651600, Note_on_c, 1, 78, 127
2, 651720, Note_off_c, 1, 50, 0
2, 651720, Note_off_c, 1, 78, 0
2, 651800, Note_on_c, 1, 52, 127
2, 651800, Note_on_c, 1, 76, 127
2, 651920, Note_off_c, 1, 52, 0
2, 651920, Note_off_c, 1, 76, 0
2, 651960, Note_on_c, 1, 54, 127
2, 651960, Note_on_c, 1, 74, 127
2, 652000, Note_off_c, 1, 54, 0
2, 652080, Note_on_c, 1, 52, 127
2, 652120, Note_off_c, 1, 52, 0
2, 652120, Note_off_c, 1, 74, 0
2, 652160, Note_on_c, 1, 54, 127
2, 652160, Note_on_c, 1, 76, 127
2, 652200, Note_off_c, 1, 54, 0
2, 652240, Note_on_c, 1, 52, 127
2, 652280, Note_off_c, 1, 52, 0
2, 652280, Note_off_c, 1, 76, 0
2, 652360, Note_on_c, 1, 54, 127
2, 652360, Note_on_c, 1, 78, 127
2, 652400, Note_off_c, 1, 54, 0
2, 652440, Note_on_c, 1, 52, 127
2, 652480, Note_off_c, 1, 52, 0
2, 652480, Note_off_c, 1, 78, 0
2, 652520, Note_on_c, 1, 50, 127
2, 652520, Note_on_c, 1, 80, 127
2, 652560, Note_off_c, 1, 50, 0
2, 652640, Note_on_c, 1, 52, 127
2, 652680, Note_off_c, 1, 52, 0
2, 652680, Note_off_c, 1, 80, 0
2, 652720, Note_on_c, 1, 54, 127
2, 652720, Note_on_c, 1, 81, 127
2, 652840, Note_off_c, 1, 54, 0
2, 652840, Note_off_c, 1, 81, 0
2, 652920, Note_on_c, 1, 47, 127
2, 652920, Note_on_c, 1, 80, 127
2, 653040, Note_off_c, 1, 47, 0
2, 653040, Note_off_c, 1, 80, 0
2, 653080, Note_on_c, 1, 59, 127
2, 653080, Note_on_c, 1, 78, 127
2, 653240, Note_off_c, 1, 59, 0
2, 653240, Note_off_c, 1, 78, 0
2, 653280, Note_on_c, 1, 57, 127
2, 653280, Note_on_c, 1, 80, 127
2, 653400, Note_off_c, 1, 57, 0
2, 653400, Note_off_c, 1, 80, 0
2, 653480, Note_on_c, 1, 56, 127
2, 653480, Note_on_c, 1, 81, 127
2, 653600, Note_off_c, 1, 56, 0
2, 653600, Note_off_c, 1, 81, 0
2, 653640, Note_on_c, 1, 54, 127
2, 653640, Note_on_c, 1, 83, 127
2, 653760, Note_off_c, 1, 54, 0
2, 653760, Note_off_c, 1, 83, 0
2, 653840, Note_on_c, 1, 52, 127
2, 653840, Note_on_c, 1, 80, 127
2, 653960, Note_off_c, 1, 52, 0
2, 653960, Note_off_c, 1, 80, 0
2, 654040, Note_on_c, 1, 54, 127
2, 654040, Note_on_c, 1, 78, 127
2, 654160, Note_off_c, 1, 54, 0
2, 654160, Note_off_c, 1, 78, 0
2, 654200, Note_on_c, 1, 56, 127
2, 654200, Note_on_c, 1, 76, 127
2, 654240, Note_off_c, 1, 56, 0
2, 654320, Note_on_c, 1, 54, 127
2, 654360, Note_off_c, 1, 54, 0
2, 654360, Note_off_c, 1, 76, 0
2, 654400, Note_on_c, 1, 56, 127
2, 654400, Note_on_c, 1, 78, 127
2, 654440, Note_off_c, 1, 56, 0
2, 654480, Note_on_c, 1, 54, 127
2, 654520, Note_off_c, 1, 54, 0
2, 654520, Note_off_c, 1, 78, 0
2, 654600, Note_on_c, 1, 56, 127
2, 654600, Note_on_c, 1, 80, 127
2, 654640, Note_off_c, 1, 56, 0
2, 654680, Note_on_c, 1, 54, 127
2, 654720, Note_off_c, 1, 54, 0
2, 654720, Note_off_c, 1, 80, 0
2, 654760, Note_on_c, 1, 52, 127
2, 654760, Note_on_c, 1, 81, 127
2, 654800, Note_off_c, 1, 52, 0
2, 654880, Note_on_c, 1, 54, 127
2, 654920, Note_off_c, 1, 54, 0
2, 654920, Note_off_c, 1, 81, 0
2, 654960, Note_on_c, 1, 56, 127
2, 654960, Note_on_c, 1, 83, 127
2, 655080, Note_off_c, 1, 56, 0
2, 655080, Note_off_c, 1, 83, 0
2, 655120, Note_on_c, 1, 54, 127
2, 655120, Note_on_c, 1, 81, 127
2, 655280, Note_off_c, 1, 54, 0
2, 655280, Note_off_c, 1, 81, 0
2, 655320, Note_on_c, 1, 52, 127
2, 655320, Note_on_c, 1, 80, 127
2, 655440, Note_off_c, 1, 52, 0
2, 655440, Note_off_c, 1, 80, 0
2, 655520, Note_on_c, 1, 54, 127
2, 655520, Note_on_c, 1, 78, 127
2, 655640, Note_off_c, 1, 54, 0
2, 655640, Note_off_c, 1, 78, 0
2, 655680, Note_on_c, 1, 56, 127
2, 655680, Note_on_c, 1, 76, 127
2, 655840, Note_off_c, 1, 56, 0
2, 655840, Note_off_c, 1, 76, 0
2, 655880, Note_on_c, 1, 52, 127
2, 655880, Note_on_c, 1, 74, 127
2, 656000, Note_off_c, 1, 52, 0
2, 656000, Note_off_c, 1, 74, 0
2, 656080, Note_on_c, 1, 57, 127
2, 656080, Note_on_c, 1, 73, 127
2, 656200, Note_off_c, 1, 57, 0
2, 656200, Note_off_c, 1, 73, 0
2, 656240, Note_on_c, 1, 59, 127
2, 656240, Note_on_c, 1, 75, 127
2, 656400, Note_off_c, 1, 59, 0
2, 656400, Note_off_c, 1, 75, 0
2, 656440, Note_on_c, 1, 61, 127
2, 656440, Note_on_c, 1, 76, 127
2, 656560, Note_off_c, 1, 61, 0
2, 656560, Note_off_c, 1, 76, 0
2, 656640, Note_on_c, 1, 59, 127
2, 656640, Note_on_c, 1, 78, 127
2, 656760, Note_off_c, 1, 59, 0
2, 656760, Note_off_c, 1, 78, 0
2, 656800, Note_on_c, 1, 57, 127
2, 656800, Note_on_c, 1, 80, 127
2, 656960, Note_off_c, 1, 57, 0
2, 656960, Note_off_c, 1, 80, 0
2, 657000, Note_on_c, 1, 56, 127
2, 657000, Note_on_c, 1, 76, 127
2, 657120, Note_off_c, 1, 56, 0
2, 657120, Note_off_c, 1, 76, 0
2, 657200, Note_on_c, 1, 54, 127
2, 657200, Note_on_c, 1, 81, 127
2, 657320, Note_off_c, 1, 54, 0
2, 657320, Note_off_c, 1, 81, 0
2, 657360, Note_on_c, 1, 56, 127
2, 657360, Note_on_c, 1, 80, 127
2, 657520, Note_off_c, 1, 56, 0
2, 657520, Note_off_c, 1, 80, 0
2, 657560, Note_on_c, 1, 57, 127
2, 657560, Note_on_c, 1, 78, 127
2, 657680, Note_off_c, 1, 57, 0
2, 657680, Note_off_c, 1, 78, 0
2, 657720, Note_on_c, 1, 56, 127
2, 657720, Note_on_c, 1, 76, 127
2, 657880, Note_off_c, 1, 56, 0
2, 657880, Note_off_c, 1, 76, 0
2, 657920, Note_on_c, 1, 57, 127
2, 657920, Note_on_c, 1, 75, 127
2, 658040, Note_off_c, 1, 57, 0
2, 658040, Note_off_c, 1, 75, 0
2, 658120, Note_on_c, 1, 54, 127
2, 658120, Note_on_c, 1, 73, 127
2, 658240, Note_off_c, 1, 54, 0
2, 658240, Note_off_c, 1, 73, 0
2, 658280, Note_on_c, 1, 56, 127
2, 658280, Note_on_c, 1, 71, 127
2, 658440, Note_off_c, 1, 56, 0
2, 658440, Note_off_c, 1, 71, 0
2, 658480, Note_on_c, 1, 57, 127
2, 658480, Note_on_c, 1, 73, 127
2, 658600, Note_off_c, 1, 57, 0
2, 658600, Note_off_c, 1, 73, 0
2, 658680, Note_on_c, 1, 59, 127
2, 658680, Note_on_c, 1, 75, 127
2, 658800, Note_off_c, 1, 59, 0
2, 658800, Note_off_c, 1, 75, 0
2, 658840, Note_on_c, 1, 57, 127
2, 658840, Note_on_c, 1, 76, 127
2, 659000, Note_off_c, 1, 57, 0
2, 659000, Note_off_c, 1, 76, 0
2, 659040, Note_on_c, 1, 56, 127
2, 659040, Note_on_c, 1, 78, 127
2, 659160, Note_off_c, 1, 56, 0
2, 659160, Note_off_c, 1, 78, 0
2, 659240, Note_on_c, 1, 54, 127
2, 659240, Note_on_c, 1, 75, 127
2, 659360, Note_off_c, 1, 54, 0
2, 659360, Note_off_c, 1, 75, 0
2, 659400, Note_on_c, 1, 52, 127
2, 659400, Note_on_c, 1, 80, 127
2, 659560, Note_off_c, 1, 52, 0
2, 659560, Note_off_c, 1, 80, 0
2, 659600, Note_on_c, 1, 54, 127
2, 659600, Note_on_c, 1, 78, 127
2, 659720, Note_off_c, 1, 54, 0
2, 659720, Note_off_c, 1, 78, 0
2, 659760, Note_on_c, 1, 56, 127
2, 659760, Note_on_c, 1, 76, 127
2, 659920, Note_off_c, 1, 56, 0
2, 659920, Note_off_c, 1, 76, 0
2, 659960, Note_on_c, 1, 54, 127
2, 659960, Note_on_c, 1, 75, 127
2, 660080, Note_off_c, 1, 54, 0
2, 660080, Note_off_c, 1, 75, 0
2, 660160, Note_on_c, 1, 56, 127
2, 660160, Note_on_c, 1, 73, 127
2, 660280, Note_off_c, 1, 56, 0
2, 660280, Note_off_c, 1, 73, 0
2, 660320, Note_on_c, 1, 52, 127
2, 660320, Note_on_c, 1, 71, 127
2, 660480, Note_off_c, 1, 52, 0
2, 660480, Note_off_c, 1, 71, 0
2, 660520, Note_on_c, 1, 54, 127
2, 660520, Note_on_c, 1, 69, 127
2, 660640, Note_off_c, 1, 54, 0
2, 660640, Note_off_c, 1, 69, 0
2, 660720, Note_on_c, 1, 56, 127
2, 660720, Note_on_c, 1, 71, 127
2, 660840, Note_off_c, 1, 56, 0
2, 660840, Note_off_c, 1, 71, 0
2, 660880, Note_on_c, 1, 57, 127
2, 660880, Note_on_c, 1, 73, 127
2, 661040, Note_off_c, 1, 57, 0
2, 661040, Note_off_c, 1, 73, 0
2, 661080, Note_on_c, 1, 56, 127
2, 661080, Note_on_c, 1, 75, 127
2, 661200, Note_off_c, 1, 56, 0
2, 661200, Note_off_c, 1, 75, 0
2, 661280, Note_on_c, 1, 54, 127
2, 661280, Note_on_c, 1, 76, 127
2, 661400, Note_off_c, 1, 54, 0
2, 661400, Note_off_c, 1, 76, 0
2, 661440, Note_on_c, 1, 52, 127
2, 661440, Note_on_c, 1, 73, 127
2, 661600, Note_off_c, 1, 52, 0
2, 661600, Note_off_c, 1, 73, 0
2, 661640, Note_on_c, 1, 51, 127
2, 661640, Note_on_c, 1, 78, 127
2, 661760, Note_off_c, 1, 51, 0
2, 661760, Note_off_c, 1, 78, 0
2, 661840, Note_on_c, 1, 52, 127
2, 661840, Note_on_c, 1, 76, 127
2, 661960, Note_off_c, 1, 52, 0
2, 661960, Note_off_c, 1, 76, 0
2, 662000, Note_on_c, 1, 54, 127
2, 662000, Note_on_c, 1, 75, 127
2, 662160, Note_off_c, 1, 54, 0
2, 662160, Note_off_c, 1, 75, 0
2, 662200, Note_on_c, 1, 52, 127
2, 662200, Note_on_c, 1, 73, 127
2, 662320, Note_off_c, 1, 52, 0
2, 662320, Note_off_c, 1, 73, 0
2, 662360, Note_on_c, 1, 54, 127
2, 662360, Note_on_c, 1, 71, 127
2, 662520, Note_off_c, 1, 54, 0
2, 662520, Note_off_c, 1, 71, 0
2, 662560, Note_on_c, 1, 51, 127
2, 662560, Note_on_c, 1, 69, 127
2, 662680, Note_off_c, 1, 51, 0
2, 662680, Note_off_c, 1, 69, 0
2, 662760, Note_on_c, 1, 52, 127
2, 662760, Note_on_c, 1, 68, 127
2, 662880, Note_off_c, 1, 52, 0
2, 662880, Note_off_c, 1, 68, 0
2, 662920, Note_on_c, 1, 54, 127
2, 662920, Note_on_c, 1, 76, 127
2, 663080, Note_off_c, 1, 54, 0
2, 663080, Note_off_c, 1, 76, 0
2, 663120, Note_on_c, 1, 56, 127
2, 663120, Note_on_c, 1, 75, 127
2, 663160, Note_off_c, 1, 56, 0
2, 663200, Note_on_c, 1, 54, 127
2, 663240, Note_off_c, 1, 54, 0
2, 663240, Note_off_c, 1, 75, 0
2, 663320, Note_on_c, 1, 52, 127
2, 663320, Note_on_c, 1, 73, 127
2, 663360, Note_off_c, 1, 52, 0
2, 663400, Note_on_c, 1, 54, 127
2, 663440, Note_off_c, 1, 54, 0
2, 663440, Note_off_c, 1, 73, 0
2, 663480, Note_on_c, 1, 56, 127
2, 663480, Note_on_c, 1, 71, 127
2, 663640, Note_off_c, 1, 56, 0
2, 663640, Note_off_c, 1, 71, 0
2, 663680, Note_on_c, 1, 57, 127
2, 663680, Note_on_c, 1, 69, 127
2, 663800, Note_off_c, 1, 57, 0
2, 663800, Note_off_c, 1, 69, 0
2, 663880, Note_on_c, 1, 59, 127
2, 663880, Note_on_c, 1, 68, 127
2, 663920, Note_off_c, 1, 59, 0
2, 663960, Note_on_c, 1, 57, 127
2, 664000, Note_off_c, 1, 57, 0
2, 664000, Note_off_c, 1, 68, 0
2, 664040, Note_on_c, 1, 56, 127
2, 664040, Note_on_c, 1, 69, 127
2, 664080, Note_off_c, 1, 56, 0
2, 664080, Note_off_c, 1, 69, 0
2, 664160, Note_on_c, 1, 57, 127
2, 664160, Note_on_c, 1, 71, 127
2, 664200, Note_off_c, 1, 57, 0
2, 664200, Note_off_c, 1, 71, 0
2, 664240, Note_on_c, 1, 59, 127
2, 664240, Note_on_c, 1, 68, 127
2, 664280, Note_on_c, 1, 66, 127
2, 664280, Note_off_c, 1, 68, 0
2, 664320, Note_off_c, 1, 66, 0
2, 664360, Note_on_c, 1, 68, 127
2, 664400, Note_off_c, 1, 68, 0
2, 664440, Note_on_c, 1, 66, 127
2, 664480, Note_off_c, 1, 66, 0
2, 664480, Note_on_c, 1, 68, 127
2, 664520, Note_off_c, 1, 68, 0
2, 664560, Note_off_c, 1, 59, 0
2, 664560, Note_on_c, 1, 66, 127
2, 664600, Note_on_c, 1, 47, 127
2, 664760, Note_off_c, 1, 66, 0
2, 664800, Note_on_c, 1, 64, 127
2, 664920, Note_off_c, 1, 47, 0
2, 664920, Note_off_c, 1, 64, 0
2, 665000, Note_on_c, 1, 40, 127
2, 665000, Note_on_c, 1, 64, 127
2, 665120, Note_off_c, 1, 64, 0
2, 665160, Note_on_c, 1, 66, 127
2, 665320, Note_off_c, 1, 40, 0
2, 665320, Note_off_c, 1, 66, 0
2, 665360, Note_on_c, 1, 52, 127
2, 665360, Note_on_c, 1, 68, 127
2, 665480, Note_off_c, 1, 52, 0
2, 665480, Note_off_c, 1, 68, 0
2, 665560, Note_on_c, 1, 50, 127
2, 665560, Note_on_c, 1, 69, 127
2, 665680, Note_off_c, 1, 50, 0
2, 665680, Note_off_c, 1, 69, 0
2, 665720, Note_on_c, 1, 49, 127
2, 665720, Note_on_c, 1, 71, 127
2, 665840, Note_off_c, 1, 49, 0
2, 665840, Note_off_c, 1, 71, 0
2, 665920, Note_on_c, 1, 47, 127
2, 665920, Note_on_c, 1, 68, 127
2, 666040, Note_off_c, 1, 47, 0
2, 666040, Note_off_c, 1, 68, 0
2, 666080, Note_on_c, 1, 45, 127
2, 666080, Note_on_c, 1, 73, 127
2, 666240, Note_off_c, 1, 73, 0
2, 666280, Note_on_c, 1, 71, 127
2, 666400, Note_off_c, 1, 45, 0
2, 666400, Note_off_c, 1, 71, 0
2, 666480, Note_on_c, 1, 47, 127
2, 666480, Note_on_c, 1, 69, 127
2, 666520, Note_off_c, 1, 47, 0
2, 666560, Note_on_c, 1, 45, 127
2, 666600, Note_off_c, 1, 45, 0
2, 666600, Note_off_c, 1, 69, 0
2, 666640, Note_on_c, 1, 47, 127
2, 666640, Note_on_c, 1, 68, 127
2, 666680, Note_off_c, 1, 47, 0
2, 666760, Note_on_c, 1, 45, 127
2, 666800, Note_off_c, 1, 45, 0
2, 666800, Note_off_c, 1, 68, 0
2, 666840, Note_on_c, 1, 47, 127
2, 666840, Note_on_c, 1, 66, 127
2, 666880, Note_off_c, 1, 47, 0
2, 666920, Note_on_c, 1, 45, 127
2, 666960, Note_off_c, 1, 45, 0
2, 666960, Note_off_c, 1, 66, 0
2, 667040, Note_on_c, 1, 44, 127
2, 667040, Note_on_c, 1, 64, 127
2, 667080, Note_off_c, 1, 44, 0
2, 667120, Note_on_c, 1, 45, 127
2, 667160, Note_off_c, 1, 45, 0
2, 667160, Note_off_c, 1, 64, 0
2, 667200, Note_on_c, 1, 47, 127
2, 667200, Note_on_c, 1, 63, 127
2, 667360, Note_off_c, 1, 47, 0
2, 667360, Note_off_c, 1, 63, 0
2, 667400, Note_on_c, 1, 49, 127
2, 667400, Note_on_c, 1, 64, 127
2, 667520, Note_off_c, 1, 49, 0
2, 667520, Note_off_c, 1, 64, 0
2, 667600, Note_on_c, 1, 51, 127
2, 667600, Note_on_c, 1, 66, 127
2, 667720, Note_off_c, 1, 51, 0
2, 667720, Note_off_c, 1, 66, 0
2, 667760, Note_on_c, 1, 49, 127
2, 667760, Note_on_c, 1, 68, 127
2, 667920, Note_off_c, 1, 49, 0
2, 667920, Note_off_c, 1, 68, 0
2, 667960, Note_on_c, 1, 47, 127
2, 667960, Note_on_c, 1, 69, 127
2, 668080, Note_off_c, 1, 47, 0
2, 668080, Note_off_c, 1, 69, 0
2, 668160, Note_on_c, 1, 45, 127
2, 668160, Note_on_c, 1, 66, 127
2, 668280, Note_off_c, 1, 45, 0
2, 668280, Note_off_c, 1, 66, 0
2, 668320, Note_on_c, 1, 44, 127
2, 668320, Note_on_c, 1, 71, 127
2, 668480, Note_off_c, 1, 71, 0
2, 668520, Note_on_c, 1, 69, 127
2, 668640, Note_off_c, 1, 44, 0
2, 668640, Note_off_c, 1, 69, 0
2, 668680, Note_on_c, 1, 45, 127
2, 668680, Note_on_c, 1, 68, 127
2, 668760, Note_off_c, 1, 45, 0
2, 668800, Note_on_c, 1, 44, 127
2, 668840, Note_off_c, 1, 44, 0
2, 668840, Note_off_c, 1, 68, 0
2, 668880, Note_on_c, 1, 45, 127
2, 668880, Note_on_c, 1, 66, 127
2, 668920, Note_off_c, 1, 45, 0
2, 668960, Note_on_c, 1, 44, 127
2, 669000, Note_off_c, 1, 44, 0
2, 669040, Note_off_c, 1, 66, 0
2, 669080, Note_on_c, 1, 45, 127
2, 669080, Note_on_c, 1, 64, 127
2, 669120, Note_off_c, 1, 45, 0
2, 669160, Note_on_c, 1, 44, 127
2, 669200, Note_off_c, 1, 44, 0
2, 669200, Note_off_c, 1, 64, 0
2, 669240, Note_on_c, 1, 42, 127
2, 669240, Note_on_c, 1, 63, 127
2, 669280, Note_off_c, 1, 42, 0
2, 669360, Note_on_c, 1, 44, 127
2, 669400, Note_off_c, 1, 44, 0
2, 669400, Note_off_c, 1, 63, 0
2, 669440, Note_on_c, 1, 45, 127
2, 669440, Note_on_c, 1, 61, 127
2, 669560, Note_off_c, 1, 45, 0
2, 669560, Note_off_c, 1, 61, 0
2, 669640, Note_on_c, 1, 47, 127
2, 669640, Note_on_c, 1, 63, 127
2, 669760, Note_off_c, 1, 47, 0
2, 669760, Note_off_c, 1, 63, 0
2, 669800, Note_on_c, 1, 49, 127
2, 669800, Note_on_c, 1, 64, 127
2, 669960, Note_off_c, 1, 49, 0
2, 669960, Note_off_c, 1, 64, 0
2, 670000, Note_on_c, 1, 47, 127
2, 670000, Note_on_c, 1, 66, 127
2, 670120, Note_off_c, 1, 47, 0
2, 670120, Note_off_c, 1, 66, 0
2, 670200, Note_on_c, 1, 45, 127
2, 670200, Note_on_c, 1, 68, 127
2, 670320, Note_off_c, 1, 45, 0
2, 670320, Note_off_c, 1, 68, 0
2, 670360, Note_on_c, 1, 44, 127
2, 670360, Note_on_c, 1, 64, 127
2, 670520, Note_off_c, 1, 44, 0
2, 670520, Note_off_c, 1, 64, 0
2, 670560, Note_on_c, 1, 42, 127
2, 670560, Note_on_c, 1, 69, 127
2, 670680, Note_off_c, 1, 42, 0
2, 670680, Note_off_c, 1, 69, 0
2, 670760, Note_on_c, 1, 44, 127
2, 670760, Note_on_c, 1, 68, 127
2, 670880, Note_off_c, 1, 44, 0
2, 670880, Note_off_c, 1, 68, 0
2, 670920, Note_on_c, 1, 45, 127
2, 670920, Note_on_c, 1, 66, 127
2, 671080, Note_off_c, 1, 45, 0
2, 671080, Note_off_c, 1, 66, 0
2, 671120, Note_on_c, 1, 44, 127
2, 671120, Note_on_c, 1, 64, 127
2, 671240, Note_off_c, 1, 44, 0
2, 671240, Note_off_c, 1, 64, 0
2, 671320, Note_on_c, 1, 42, 127
2, 671320, Note_on_c, 1, 63, 127
2, 671440, Note_off_c, 1, 42, 0
2, 671440, Note_off_c, 1, 63, 0
2, 671480, Note_on_c, 1, 40, 127
2, 671480, Note_on_c, 1, 61, 127
2, 671640, Note_off_c, 1, 40, 0
2, 671640, Note_off_c, 1, 61, 0
2, 671680, Note_on_c, 1, 39, 127
2, 671680, Note_on_c, 1, 59, 127
2, 671800, Note_off_c, 1, 59, 0
2, 671840, Note_on_c, 1, 69, 127
2, 672000, Note_off_c, 1, 39, 0
2, 672000, Note_off_c, 1, 69, 0
2, 672040, Note_on_c, 1, 47, 127
2, 672040, Note_on_c, 1, 68, 127
2, 672160, Note_off_c, 1, 68, 0
2, 672240, Note_on_c, 1, 66, 127
2, 672360, Note_off_c, 1, 47, 0
2, 672360, Note_off_c, 1, 66, 0
2, 672400, Note_on_c, 1, 49, 127
2, 672400, Note_on_c, 1, 64, 127
2, 672560, Note_off_c, 1, 64, 0
2, 672600, Note_on_c, 1, 63, 127
2, 672720, Note_off_c, 1, 49, 0
2, 672720, Note_off_c, 1, 63, 0
2, 672800, Note_on_c, 1, 45, 127
2, 672800, Note_on_c, 1, 64, 127
2, 672920, Note_off_c, 1, 64, 0
2, 672960, Note_on_c, 1, 66, 127
2, 673120, Note_off_c, 1, 45, 0
2, 673120, Note_off_c, 1, 66, 0
2, 673160, Note_on_c, 1, 47, 127
2, 673160, Note_on_c, 1, 68, 127
2, 673200, Note_off_c, 1, 68, 0
2, 673240, Note_on_c, 1, 66, 127
2, 673280, Note_off_c, 1, 66, 0
2, 673320, Note_on_c, 1, 68, 127
2, 673360, Note_off_c, 1, 68, 0
2, 673400, Note_on_c, 1, 66, 127
2, 673440, Note_off_c, 1, 66, 0
2, 673440, Note_on_c, 1, 68, 127
2, 673480, Note_off_c, 1, 47, 0
2, 673480, Note_off_c, 1, 68, 0
2, 673520, Note_on_c, 1, 35, 127
2, 673520, Note_on_c, 1, 66, 127
2, 673680, Note_off_c, 1, 66, 0
2, 673720, Note_on_c, 1, 64, 127
2, 673840, Note_off_c, 1, 35, 0
2, 673840, Note_off_c, 1, 64, 0
2, 673920, Note_on_c, 1, 40, 127
2, 673920, Note_on_c, 1, 64, 127
2, 674280, Note_on_c, 1, 44, 127
2, 674600, Note_off_c, 1, 44, 0
2, 674640, Note_on_c, 1, 47, 127
2, 674960, Note_off_c, 1, 47, 0
2, 675040, Note_on_c, 1, 52, 127
2, 675720, Note_off_c, 1, 40, 0
2, 675720, Note_off_c, 1, 52, 0
2, 675720, Note_off_c, 1, 64, 0
2, 675760, Note_on_c, 1, 71, 127
2, 676080, Note_off_c, 1, 71, 0
2, 676120, Note_on_c, 1, 64, 127
2, 676440, Note_off_c, 1, 64, 0
2, 676520, Note_on_c, 1, 66, 127
2, 676640, Note_off_c, 1, 66, 0
2, 676680, Note_on_c, 1, 68, 127
2, 676840, Note_off_c, 1, 68, 0
2, 676880, Note_on_c, 1, 69, 127
2, 677000, Note_off_c, 1, 69, 0
2, 677080, Note_on_c, 1, 71, 127
2, 677200, Note_off_c, 1, 71, 0
2, 677240, Note_on_c, 1, 69, 127
2, 677400, Note_off_c, 1, 69, 0
2, 677440, Note_on_c, 1, 71, 127
2, 677560, Note_off_c, 1, 71, 0
2, 677640, Note_on_c, 1, 73, 127
2, 677680, Note_off_c, 1, 73, 0
2, 677720, Note_on_c, 1, 71, 127
2, 677760, Note_off_c, 1, 71, 0
2, 677800, Note_on_c, 1, 73, 127
2, 677840, Note_off_c, 1, 73, 0
2, 677920, Note_on_c, 1, 71, 127
2, 677960, Note_off_c, 1, 71, 0
2, 678000, Note_on_c, 1, 52, 127
2, 678000, Note_on_c, 1, 73, 127
2, 678040, Note_off_c, 1, 73, 0
2, 678080, Note_on_c, 1, 71, 127
2, 678120, Note_off_c, 1, 71, 0
2, 678200, Note_on_c, 1, 69, 127
2, 678240, Note_off_c, 1, 69, 0
2, 678280, Note_on_c, 1, 71, 127
2, 678320, Note_off_c, 1, 52, 0
2, 678320, Note_off_c, 1, 71, 0
2, 678360, Note_on_c, 1, 45, 127
2, 678360, Note_on_c, 1, 73, 127
2, 678520, Note_off_c, 1, 73, 0
2, 678560, Note_on_c, 1, 74, 127
2, 678680, Note_off_c, 1, 45, 0
2, 678680, Note_off_c, 1, 74, 0
2, 678720, Note_on_c, 1, 47, 127
2, 678720, Note_on_c, 1, 73, 127
2, 678880, Note_off_c, 1, 47, 0
2, 678880, Note_off_c, 1, 73, 0
2, 678920, Note_on_c, 1, 49, 127
2, 678920, Note_on_c, 1, 71, 127
2, 679040, Note_off_c, 1, 49, 0
2, 679040, Note_off_c, 1, 71, 0
2, 679120, Note_on_c, 1, 50, 127
2, 679120, Note_on_c, 1, 69, 127
2, 679240, Note_off_c, 1, 50, 0
2, 679240, Note_off_c, 1, 69, 0
2, 679280, Note_on_c, 1, 52, 127
2, 679280, Note_on_c, 1, 67, 127
2, 679440, Note_off_c, 1, 52, 0
2, 679440, Note_off_c, 1, 67, 0
2, 679480, Note_on_c, 1, 50, 127
2, 679480, Note_on_c, 1, 66, 127
2, 679600, Note_off_c, 1, 50, 0
2, 679600, Note_off_c, 1, 66, 0
2, 679680, Note_on_c, 1, 52, 127
2, 679680, Note_on_c, 1, 78, 127
2, 679800, Note_off_c, 1, 52, 0
2, 679800, Note_off_c, 1, 78, 0
2, 679840, Note_on_c, 1, 54, 127
2, 679840, Note_on_c, 1, 76, 127
2, 679880, Note_off_c, 1, 54, 0
2, 679960, Note_on_c, 1, 52, 127
2, 680000, Note_off_c, 1, 52, 0
2, 680000, Note_off_c, 1, 76, 0
2, 680040, Note_on_c, 1, 54, 127
2, 680040, Note_on_c, 1, 74, 127
2, 680080, Note_off_c, 1, 54, 0
2, 680120, Note_on_c, 1, 52, 127
2, 680160, Note_off_c, 1, 52, 0
2, 680160, Note_off_c, 1, 74, 0
2, 680240, Note_on_c, 1, 54, 127
2, 680240, Note_on_c, 1, 73, 127
2, 680280, Note_off_c, 1, 54, 0
2, 680320, Note_on_c, 1, 52, 127
2, 680360, Note_off_c, 1, 52, 0
2, 680360, Note_off_c, 1, 73, 0
2, 680400, Note_on_c, 1, 50, 127
2, 680400, Note_on_c, 1, 71, 127
2, 680440, Note_off_c, 1, 50, 0
2, 680520, Note_on_c, 1, 52, 127
2, 680560, Note_off_c, 1, 52, 0
2, 680560, Note_off_c, 1, 71, 0
2, 680600, Note_on_c, 1, 54, 127
2, 680600, Note_on_c, 1, 70, 127
2, 680720, Note_off_c, 1, 70, 0
2, 680800, Note_on_c, 1, 71, 127
2, 680920, Note_off_c, 1, 54, 0
2, 680920, Note_off_c, 1, 71, 0
2, 680960, Note_on_c, 1, 52, 127
2, 680960, Note_on_c, 1, 73, 127
2, 681000, Note_off_c, 1, 73, 0
2, 681080, Note_on_c, 1, 71, 127
2, 681120, Note_off_c, 1, 52, 0
2, 681120, Note_off_c, 1, 71, 0
2, 681160, Note_on_c, 1, 50, 127
2, 681160, Note_on_c, 1, 73, 127
2, 681200, Note_off_c, 1, 73, 0
2, 681240, Note_on_c, 1, 71, 127
2, 681280, Note_off_c, 1, 50, 0
2, 681280, Note_off_c, 1, 71, 0
2, 681360, Note_on_c, 1, 49, 127
2, 681360, Note_on_c, 1, 73, 127
2, 681400, Note_off_c, 1, 73, 0
2, 681440, Note_on_c, 1, 71, 127
2, 681480, Note_off_c, 1, 49, 0
2, 681480, Note_off_c, 1, 71, 0
2, 681520, Note_on_c, 1, 47, 127
2, 681520, Note_on_c, 1, 70, 127
2, 681560, Note_off_c, 1, 70, 0
2, 681640, Note_on_c, 1, 71, 127
2, 681680, Note_off_c, 1, 47, 0
2, 681680, Note_off_c, 1, 71, 0
2, 681720, Note_on_c, 1, 46, 127
2, 681720, Note_on_c, 1, 73, 127
2, 681840, Note_off_c, 1, 46, 0
2, 681840, Note_off_c, 1, 73, 0
2, 681920, Note_on_c, 1, 47, 127
2, 681920, Note_on_c, 1, 74, 127
2, 682040, Note_off_c, 1, 47, 0
2, 682040, Note_off_c, 1, 74, 0
2, 682080, Note_on_c, 1, 49, 127
2, 682080, Note_on_c, 1, 76, 127
2, 682120, Note_off_c, 1, 49, 0
2, 682120, Note_off_c, 1, 76, 0
2, 682200, Note_on_c, 1, 47, 127
2, 682200, Note_on_c, 1, 74, 127
2, 682240, Note_off_c, 1, 47, 0
2, 682240, Note_off_c, 1, 74, 0
2, 682280, Note_on_c, 1, 49, 127
2, 682280, Note_on_c, 1, 76, 127
2, 682320, Note_off_c, 1, 49, 0
2, 682320, Note_off_c, 1, 76, 0
2, 682360, Note_on_c, 1, 47, 127
2, 682360, Note_on_c, 1, 74, 127
2, 682400, Note_off_c, 1, 47, 0
2, 682400, Note_off_c, 1, 74, 0
2, 682480, Note_on_c, 1, 49, 127
2, 682480, Note_on_c, 1, 76, 127
2, 682520, Note_off_c, 1, 49, 0
2, 682520, Note_off_c, 1, 76, 0
2, 682560, Note_on_c, 1, 47, 127
2, 682560, Note_on_c, 1, 74, 127
2, 682600, Note_off_c, 1, 47, 0
2, 682600, Note_off_c, 1, 74, 0
2, 682640, Note_on_c, 1, 46, 127
2, 682640, Note_on_c, 1, 73, 127
2, 682680, Note_off_c, 1, 46, 0
2, 682680, Note_off_c, 1, 73, 0
2, 682760, Note_on_c, 1, 47, 127
2, 682760, Note_on_c, 1, 74, 127
2, 682800, Note_off_c, 1, 47, 0
2, 682800, Note_off_c, 1, 74, 0
2, 682840, Note_on_c, 1, 49, 127
2, 682840, Note_on_c, 1, 76, 127
2, 682960, Note_off_c, 1, 49, 0
2, 683040, Note_on_c, 1, 42, 127
2, 683160, Note_off_c, 1, 42, 0
2, 683200, Note_on_c, 1, 44, 127
2, 683360, Note_off_c, 1, 44, 0
2, 683360, Note_off_c, 1, 76, 0
2, 683400, Note_on_c, 1, 46, 127
2, 683400, Note_on_c, 1, 78, 127
2, 683520, Note_off_c, 1, 46, 0
2, 683520, Note_off_c, 1, 78, 0
2, 683560, Note_on_c, 1, 47, 127
2, 683560, Note_on_c, 1, 76, 127
2, 683720, Note_off_c, 1, 47, 0
2, 683720, Note_off_c, 1, 76, 0
2, 683760, Note_on_c, 1, 49, 127
2, 683760, Note_on_c, 1, 74, 127
2, 683880, Note_off_c, 1, 49, 0
2, 683960, Note_on_c, 1, 50, 127
2, 684080, Note_off_c, 1, 50, 0
2, 684080, Note_off_c, 1, 74, 0
2, 684120, Note_on_c, 1, 47, 127
2, 684120, Note_on_c, 1, 76, 127
2, 684280, Note_off_c, 1, 47, 0
2, 684280, Note_off_c, 1, 76, 0
2, 684320, Note_on_c, 1, 54, 127
2, 684320, Note_on_c, 1, 74, 127
2, 684360, Note_off_c, 1, 74, 0
2, 684400, Note_on_c, 1, 73, 127
2, 684440, Note_off_c, 1, 73, 0
2, 684440, Note_on_c, 1, 74, 127
2, 684480, Note_off_c, 1, 74, 0
2, 684520, Note_on_c, 1, 73, 127
2, 684560, Note_off_c, 1, 73, 0
2, 684560, Note_on_c, 1, 74, 127
2, 684600, Note_off_c, 1, 74, 0
2, 684640, Note_off_c, 1, 54, 0
2, 684640, Note_on_c, 1, 73, 127
2, 684680, Note_on_c, 1, 42, 127
2, 684840, Note_off_c, 1, 73, 0
2, 684880, Note_on_c, 1, 78, 127
2, 685000, Note_off_c, 1, 42, 0
2, 685000, Note_off_c, 1, 78, 0
2, 685080, Note_on_c, 1, 47, 127
2, 685080, Note_on_c, 1, 75, 127
2, 685200, Note_off_c, 1, 75, 0
2, 685240, Note_on_c, 1, 71, 127
2, 685400, Note_off_c, 1, 71, 0
2, 685440, Note_on_c, 1, 73, 127
2, 685560, Note_off_c, 1, 73, 0
2, 685640, Note_on_c, 1, 75, 127
2, 685760, Note_off_c, 1, 47, 0
2, 685760, Note_off_c, 1, 75, 0
2, 685800, Note_on_c, 1, 76, 127
2, 685960, Note_off_c, 1, 76, 0
2, 686000, Note_on_c, 1, 78, 127
2, 686120, Note_off_c, 1, 78, 0
2, 686160, Note_on_c, 1, 76, 127
2, 686320, Note_off_c, 1, 76, 0
2, 686360, Note_on_c, 1, 78, 127
2, 686480, Note_off_c, 1, 78, 0
2, 686560, Note_on_c, 1, 79, 127
2, 686600, Note_off_c, 1, 79, 0
2, 686640, Note_on_c, 1, 78, 127
2, 686680, Note_off_c, 1, 78, 0
2, 686720, Note_on_c, 1, 79, 127
2, 686760, Note_off_c, 1, 79, 0
2, 686840, Note_on_c, 1, 78, 127
2, 686880, Note_off_c, 1, 78, 0
2, 686920, Note_on_c, 1, 59, 127
2, 686920, Note_on_c, 1, 79, 127
2, 686960, Note_off_c, 1, 79, 0
2, 687000, Note_on_c, 1, 78, 127
2, 687040, Note_off_c, 1, 78, 0
2, 687120, Note_on_c, 1, 76, 127
2, 687160, Note_off_c, 1, 76, 0
2, 687200, Note_on_c, 1, 78, 127
2, 687240, Note_off_c, 1, 59, 0
2, 687240, Note_off_c, 1, 78, 0
2, 687280, Note_on_c, 1, 52, 127
2, 687280, Note_on_c, 1, 79, 127
2, 687440, Note_off_c, 1, 79, 0
2, 687480, Note_on_c, 1, 81, 127
2, 687600, Note_off_c, 1, 52, 0
2, 687600, Note_off_c, 1, 81, 0
2, 687680, Note_on_c, 1, 54, 127
2, 687680, Note_on_c, 1, 79, 127
2, 687800, Note_off_c, 1, 54, 0
2, 687800, Note_off_c, 1, 79, 0
2, 687840, Note_on_c, 1, 55, 127
2, 687840, Note_on_c, 1, 78, 127
2, 688000, Note_off_c, 1, 55, 0
2, 688000, Note_off_c, 1, 78, 0
2, 688040, Note_on_c, 1, 57, 127
2, 688040, Note_on_c, 1, 76, 127
2, 688160, Note_off_c, 1, 57, 0
2, 688160, Note_off_c, 1, 76, 0
2, 688240, Note_on_c, 1, 59, 127
2, 688240, Note_on_c, 1, 74, 127
2, 688360, Note_off_c, 1, 59, 0
2, 688360, Note_off_c, 1, 74, 0
2, 688400, Note_on_c, 1, 57, 127
2, 688400, Note_on_c, 1, 72, 127
2, 688560, Note_off_c, 1, 57, 0
2, 688560, Note_off_c, 1, 72, 0
2, 688600, Note_on_c, 1, 59, 127
2, 688600, Note_on_c, 1, 83, 127
2, 688720, Note_off_c, 1, 59, 0
2, 688720, Note_off_c, 1, 83, 0
2, 688800, Note_on_c, 1, 60, 127
2, 688800, Note_on_c, 1, 81, 127
2, 688840, Note_off_c, 1, 60, 0
2, 688880, Note_on_c, 1, 59, 127
2, 688920, Note_off_c, 1, 59, 0
2, 688920, Note_off_c, 1, 81, 0
2, 688960, Note_on_c, 1, 60, 127
2, 688960, Note_on_c, 1, 79, 127
2, 689000, Note_off_c, 1, 60, 0
2, 689080, Note_on_c, 1, 59, 127
2, 689120, Note_off_c, 1, 59, 0
2, 689120, Note_off_c, 1, 79, 0
2, 689160, Note_on_c, 1, 60, 127
2, 689160, Note_on_c, 1, 78, 127
2, 689200, Note_off_c, 1, 60, 0
2, 689240, Note_on_c, 1, 59, 127
2, 689280, Note_off_c, 1, 59, 0
2, 689280, Note_off_c, 1, 78, 0
2, 689360, Note_on_c, 1, 57, 127
2, 689360, Note_on_c, 1, 76, 127
2, 689400, Note_off_c, 1, 57, 0
2, 689440, Note_on_c, 1, 59, 127
2, 689480, Note_off_c, 1, 59, 0
2, 689480, Note_off_c, 1, 76, 0
2, 689520, Note_on_c, 1, 60, 127
2, 689520, Note_on_c, 1, 75, 127
2, 689680, Note_off_c, 1, 60, 0
2, 689680, Note_off_c, 1, 75, 0
2, 689720, Note_on_c, 1, 59, 127
2, 689720, Note_on_c, 1, 76, 127
2, 689840, Note_off_c, 1, 59, 0
2, 689840, Note_off_c, 1, 76, 0
2, 689880, Note_on_c, 1, 57, 127
2, 689880, Note_on_c, 1, 78, 127
2, 689960, Note_off_c, 1, 78, 0
2, 690000, Note_on_c, 1, 76, 127
2, 690040, Note_off_c, 1, 57, 0
2, 690040, Note_off_c, 1, 76, 0
2, 690080, Note_on_c, 1, 55, 127
2, 690080, Note_on_c, 1, 78, 127
2, 690120, Note_off_c, 1, 78, 0
2, 690160, Note_on_c, 1, 76, 127
2, 690240, Note_off_c, 1, 55, 0
2, 690240, Note_off_c, 1, 76, 0
2, 690280, Note_on_c, 1, 54, 127
2, 690280, Note_on_c, 1, 78, 127
2, 690320, Note_off_c, 1, 78, 0
2, 690360, Note_on_c, 1, 76, 127
2, 690400, Note_off_c, 1, 54, 0
2, 690400, Note_off_c, 1, 76, 0
2, 690440, Note_on_c, 1, 52, 127
2, 690440, Note_on_c, 1, 75, 127
2, 690520, Note_off_c, 1, 75, 0
2, 690560, Note_on_c, 1, 76, 127
2, 690600, Note_off_c, 1, 52, 0
2, 690600, Note_off_c, 1, 76, 0
2, 690640, Note_on_c, 1, 51, 127
2, 690640, Note_on_c, 1, 78, 127
2, 690800, Note_off_c, 1, 51, 0
2, 690800, Note_off_c, 1, 78, 0
2, 690840, Note_on_c, 1, 52, 127
2, 690840, Note_on_c, 1, 79, 127
2, 690960, Note_off_c, 1, 52, 0
2, 690960, Note_off_c, 1, 79, 0
2, 691000, Note_on_c, 1, 54, 127
2, 691000, Note_on_c, 1, 81, 127
2, 691040, Note_off_c, 1, 54, 0
2, 691040, Note_off_c, 1, 81, 0
2, 691120, Note_on_c, 1, 52, 127
2, 691120, Note_on_c, 1, 79, 127
2, 691160, Note_off_c, 1, 52, 0
2, 691160, Note_off_c, 1, 79, 0
2, 691200, Note_on_c, 1, 54, 127
2, 691200, Note_on_c, 1, 81, 127
2, 691240, Note_off_c, 1, 54, 0
2, 691240, Note_off_c, 1, 81, 0
2, 691280, Note_on_c, 1, 52, 127
2, 691280, Note_on_c, 1, 79, 127
2, 691320, Note_off_c, 1, 52, 0
2, 691320, Note_off_c, 1, 79, 0
2, 691400, Note_on_c, 1, 54, 127
2, 691400, Note_on_c, 1, 81, 127
2, 691440, Note_off_c, 1, 54, 0
2, 691440, Note_off_c, 1, 81, 0
2, 691480, Note_on_c, 1, 52, 127
2, 691480, Note_on_c, 1, 79, 127
2, 691520, Note_off_c, 1, 52, 0
2, 691520, Note_off_c, 1, 79, 0
2, 691560, Note_on_c, 1, 51, 127
2, 691560, Note_on_c, 1, 78, 127
2, 691600, Note_off_c, 1, 51, 0
2, 691600, Note_off_c, 1, 78, 0
2, 691680, Note_on_c, 1, 52, 127
2, 691680, Note_on_c, 1, 79, 127
2, 691720, Note_off_c, 1, 52, 0
2, 691720, Note_off_c, 1, 79, 0
2, 691760, Note_on_c, 1, 54, 127
2, 691760, Note_on_c, 1, 81, 127
2, 691880, Note_off_c, 1, 54, 0
2, 691960, Note_on_c, 1, 47, 127
2, 692080, Note_off_c, 1, 47, 0
2, 692120, Note_on_c, 1, 49, 127
2, 692280, Note_off_c, 1, 49, 0
2, 692280, Note_off_c, 1, 81, 0
2, 692320, Note_on_c, 1, 51, 127
2, 692320, Note_on_c, 1, 83, 127
2, 692440, Note_off_c, 1, 51, 0
2, 692440, Note_off_c, 1, 83, 0
2, 692520, Note_on_c, 1, 52, 127
2, 692520, Note_on_c, 1, 81, 127
2, 692640, Note_off_c, 1, 52, 0
2, 692640, Note_off_c, 1, 81, 0
2, 692680, Note_on_c, 1, 54, 127
2, 692680, Note_on_c, 1, 79, 127
2, 692840, Note_off_c, 1, 54, 0
2, 692880, Note_on_c, 1, 55, 127
2, 693000, Note_off_c, 1, 55, 0
2, 693000, Note_off_c, 1, 79, 0
2, 693080, Note_on_c, 1, 52, 127
2, 693080, Note_on_c, 1, 81, 127
2, 693200, Note_off_c, 1, 52, 0
2, 693200, Note_off_c, 1, 81, 0
2, 693240, Note_on_c, 1, 59, 127
2, 693240, Note_on_c, 1, 79, 127
2, 693280, Note_off_c, 1, 79, 0
2, 693320, Note_on_c, 1, 78, 127
2, 693360, Note_off_c, 1, 78, 0
2, 693360, Note_on_c, 1, 79, 127
2, 693400, Note_off_c, 1, 79, 0
2, 693440, Note_on_c, 1, 78, 127
2, 693480, Note_off_c, 1, 78, 0
2, 693480, Note_on_c, 1, 79, 127
2, 693520, Note_off_c, 1, 79, 0
2, 693560, Note_off_c, 1, 59, 0
2, 693560, Note_on_c, 1, 78, 127
2, 693640, Note_on_c, 1, 47, 127
2, 693760, Note_off_c, 1, 78, 0
2, 693800, Note_on_c, 1, 83, 127
2, 693960, Note_off_c, 1, 47, 0
2, 693960, Note_off_c, 1, 83, 0
2, 694000, Note_on_c, 1, 40, 127
2, 694000, Note_on_c, 1, 80, 127
2, 694120, Note_off_c, 1, 80, 0
2, 694200, Note_on_c, 1, 81, 127
2, 694320, Note_off_c, 1, 40, 0
2, 694320, Note_off_c, 1, 81, 0
2, 694360, Note_on_c, 1, 42, 127
2, 694360, Note_on_c, 1, 80, 127
2, 694520, Note_off_c, 1, 42, 0
2, 694520, Note_off_c, 1, 80, 0
2, 694560, Note_on_c, 1, 44, 127
2, 694560, Note_on_c, 1, 78, 127
2, 694680, Note_off_c, 1, 44, 0
2, 694680, Note_off_c, 1, 78, 0
2, 694720, Note_on_c, 1, 45, 127
2, 694720, Note_on_c, 1, 76, 127
2, 694880, Note_off_c, 1, 45, 0
2, 694880, Note_off_c, 1, 76, 0
2, 694920, Note_on_c, 1, 47, 127
2, 694920, Note_on_c, 1, 74, 127
2, 695040, Note_off_c, 1, 47, 0
2, 695040, Note_off_c, 1, 74, 0
2, 695120, Note_on_c, 1, 45, 127
2, 695120, Note_on_c, 1, 73, 127
2, 695240, Note_off_c, 1, 45, 0
2, 695240, Note_off_c, 1, 73, 0
2, 695280, Note_on_c, 1, 47, 127
2, 695280, Note_on_c, 1, 71, 127
2, 695440, Note_off_c, 1, 47, 0
2, 695440, Note_off_c, 1, 71, 0
2, 695480, Note_on_c, 1, 49, 127
2, 695480, Note_on_c, 1, 69, 127
2, 695520, Note_off_c, 1, 49, 0
2, 695560, Note_on_c, 1, 47, 127
2, 695600, Note_off_c, 1, 47, 0
2, 695600, Note_off_c, 1, 69, 0
2, 695680, Note_on_c, 1, 49, 127
2, 695680, Note_on_c, 1, 71, 127
2, 695720, Note_off_c, 1, 49, 0
2, 695760, Note_on_c, 1, 47, 127
2, 695800, Note_off_c, 1, 47, 0
2, 695800, Note_off_c, 1, 71, 0
2, 695840, Note_on_c, 1, 49, 127
2, 695840, Note_on_c, 1, 73, 127
2, 695880, Note_off_c, 1, 49, 0
2, 695960, Note_on_c, 1, 47, 127
2, 696000, Note_off_c, 1, 47, 0
2, 696000, Note_off_c, 1, 73, 0
2, 696040, Note_on_c, 1, 45, 127
2, 696040, Note_on_c, 1, 74, 127
2, 696080, Note_off_c, 1, 45, 0
2, 696120, Note_on_c, 1, 47, 127
2, 696160, Note_off_c, 1, 47, 0
2, 696160, Note_off_c, 1, 74, 0
2, 696240, Note_on_c, 1, 49, 127
2, 696240, Note_on_c, 1, 76, 127
2, 696360, Note_off_c, 1, 49, 0
2, 696360, Note_off_c, 1, 76, 0
2, 696400, Note_on_c, 1, 45, 127
2, 696400, Note_on_c, 1, 74, 127
2, 696560, Note_off_c, 1, 45, 0
2, 696560, Note_off_c, 1, 74, 0
2, 696600, Note_on_c, 1, 47, 127
2, 696600, Note_on_c, 1, 73, 127
2, 696720, Note_off_c, 1, 47, 0
2, 696720, Note_off_c, 1, 73, 0
2, 696800, Note_on_c, 1, 49, 127
2, 696800, Note_on_c, 1, 71, 127
2, 696920, Note_off_c, 1, 49, 0
2, 696920, Note_off_c, 1, 71, 0
2, 696960, Note_on_c, 1, 50, 127
2, 696960, Note_on_c, 1, 69, 127
2, 697120, Note_off_c, 1, 50, 0
2, 697120, Note_off_c, 1, 69, 0
2, 697160, Note_on_c, 1, 52, 127
2, 697160, Note_on_c, 1, 67, 127
2, 697280, Note_off_c, 1, 52, 0
2, 697280, Note_off_c, 1, 67, 0
2, 697320, Note_on_c, 1, 50, 127
2, 697320, Note_on_c, 1, 66, 127
2, 697480, Note_off_c, 1, 50, 0
2, 697480, Note_off_c, 1, 66, 0
2, 697520, Note_on_c, 1, 52, 127
2, 697520, Note_on_c, 1, 64, 127
2, 697640, Note_off_c, 1, 52, 0
2, 697640, Note_off_c, 1, 64, 0
2, 697720, Note_on_c, 1, 54, 127
2, 697720, Note_on_c, 1, 62, 127
2, 697760, Note_off_c, 1, 54, 0
2, 697800, Note_on_c, 1, 52, 127
2, 697840, Note_off_c, 1, 52, 0
2, 697840, Note_off_c, 1, 62, 0
2, 697880, Note_on_c, 1, 54, 127
2, 697880, Note_on_c, 1, 64, 127
2, 697920, Note_off_c, 1, 54, 0
2, 698000, Note_on_c, 1, 52, 127
2, 698040, Note_off_c, 1, 52, 0
2, 698040, Note_off_c, 1, 64, 0
2, 698080, Note_on_c, 1, 54, 127
2, 698080, Note_on_c, 1, 66, 127
2, 698120, Note_off_c, 1, 54, 0
2, 698160, Note_on_c, 1, 52, 127
2, 698200, Note_off_c, 1, 52, 0
2, 698200, Note_off_c, 1, 66, 0
2, 698280, Note_on_c, 1, 50, 127
2, 698280, Note_on_c, 1, 67, 127
2, 698320, Note_off_c, 1, 50, 0
2, 698360, Note_on_c, 1, 52, 127
2, 698400, Note_off_c, 1, 52, 0
2, 698400, Note_off_c, 1, 67, 0
2, 698440, Note_on_c, 1, 54, 127
2, 698440, Note_on_c, 1, 69, 127
2, 698600, Note_off_c, 1, 69, 0
2, 698640, Note_on_c, 1, 62, 127
2, 698760, Note_off_c, 1, 62, 0
2, 698840, Note_on_c, 1, 74, 127
2, 698880, Note_off_c, 1, 54, 0
2, 699000, Note_on_c, 1, 50, 127
2, 699160, Note_off_c, 1, 50, 0
2, 699200, Note_on_c, 1, 47, 127
2, 699320, Note_off_c, 1, 47, 0
2, 699400, Note_on_c, 1, 50, 127
2, 699520, Note_off_c, 1, 50, 0
2, 699560, Note_on_c, 1, 44, 127
2, 699720, Note_off_c, 1, 74, 0
2, 699760, Note_on_c, 1, 71, 127
2, 699880, Note_off_c, 1, 71, 0
2, 699960, Note_on_c, 1, 68, 127
2, 700000, Note_off_c, 1, 44, 0
2, 700080, Note_off_c, 1, 68, 0
2, 700120, Note_on_c, 1, 52, 127
2, 700120, Note_on_c, 1, 71, 127
2, 700280, Note_off_c, 1, 52, 0
2, 700280, Note_off_c, 1, 71, 0
2, 700320, Note_on_c, 1, 56, 127
2, 700320, Note_on_c, 1, 64, 127
2, 700440, Note_off_c, 1, 56, 0
2, 700520, Note_on_c, 1, 52, 127
2, 700640, Note_off_c, 1, 52, 0
2, 700680, Note_on_c, 1, 57, 127
2, 700840, Note_off_c, 1, 64, 0
2, 700880, Note_on_c, 1, 69, 127
2, 701000, Note_off_c, 1, 69, 0
2, 701040, Note_on_c, 1, 73, 127
2, 701120, Note_off_c, 1, 57, 0
2, 701240, Note_on_c, 1, 52, 127
2, 701360, Note_off_c, 1, 52, 0
2, 701440, Note_on_c, 1, 45, 127
2, 701560, Note_off_c, 1, 45, 0
2, 701600, Note_on_c, 1, 49, 127
2, 701760, Note_off_c, 1, 49, 0
2, 701800, Note_on_c, 1, 38, 127
2, 701920, Note_off_c, 1, 73, 0
2, 702000, Note_on_c, 1, 69, 127
2, 702120, Note_off_c, 1, 69, 0
2, 702160, Note_on_c, 1, 66, 127
2, 702200, Note_off_c, 1, 38, 0
2, 702320, Note_off_c, 1, 66, 0
2, 702360, Note_on_c, 1, 42, 127
2, 702360, Note_on_c, 1, 69, 127
2, 702480, Note_off_c, 1, 42, 0
2, 702480, Note_off_c, 1, 69, 0
2, 702560, Note_on_c, 1, 44, 127
2, 702560, Note_on_c, 1, 62, 127
2, 702680, Note_off_c, 1, 62, 0
2, 702720, Note_on_c, 1, 73, 127
2, 702880, Note_off_c, 1, 73, 0
2, 702920, Note_on_c, 1, 71, 127
2, 703040, Note_off_c, 1, 44, 0
2, 703040, Note_off_c, 1, 71, 0
2, 703120, Note_on_c, 1, 47, 127
2, 703120, Note_on_c, 1, 68, 127
2, 703240, Note_off_c, 1, 47, 0
2, 703240, Note_off_c, 1, 68, 0
2, 703280, Note_on_c, 1, 49, 127
2, 703280, Note_on_c, 1, 64, 127
2, 703440, Note_off_c, 1, 64, 0
2, 703480, Note_on_c, 1, 68, 127
2, 703600, Note_off_c, 1, 68, 0
2, 703640, Note_on_c, 1, 61, 127
2, 703720, Note_off_c, 1, 49, 0
2, 703800, Note_off_c, 1, 61, 0
2, 703840, Note_on_c, 1, 52, 127
2, 703840, Note_on_c, 1, 71, 127
2, 703960, Note_off_c, 1, 52, 0
2, 703960, Note_off_c, 1, 71, 0
2, 704040, Note_on_c, 1, 54, 127
2, 704040, Note_on_c, 1, 69, 127
2, 704160, Note_off_c, 1, 54, 0
2, 704160, Note_off_c, 1, 69, 0
2, 704200, Note_on_c, 1, 57, 127
2, 704200, Note_on_c, 1, 66, 127
2, 704360, Note_off_c, 1, 57, 0
2, 704360, Note_off_c, 1, 66, 0
2, 704400, Note_on_c, 1, 59, 127
2, 704400, Note_on_c, 1, 62, 127
2, 704520, Note_off_c, 1, 59, 0
2, 704520, Note_off_c, 1, 62, 0
2, 704600, Note_on_c, 1, 54, 127
2, 704600, Note_on_c, 1, 66, 127
2, 704720, Note_off_c, 1, 54, 0
2, 704720, Note_off_c, 1, 66, 0
2, 704760, Note_on_c, 1, 50, 127
2, 704760, Note_on_c, 1, 59, 127
2, 704920, Note_off_c, 1, 50, 0
2, 704920, Note_off_c, 1, 59, 0
2, 704960, Note_on_c, 1, 47, 127
2, 704960, Note_on_c, 1, 69, 127
2, 705080, Note_off_c, 1, 47, 0
2, 705080, Note_off_c, 1, 69, 0
2, 705160, Note_on_c, 1, 52, 127
2, 705160, Note_on_c, 1, 68, 127
2, 705280, Note_off_c, 1, 52, 0
2, 705280, Note_off_c, 1, 68, 0
2, 705320, Note_on_c, 1, 57, 127
2, 705320, Note_on_c, 1, 64, 127
2, 705480, Note_off_c, 1, 57, 0
2, 705480, Note_off_c, 1, 64, 0
2, 705520, Note_on_c, 1, 56, 127
2, 705520, Note_on_c, 1, 66, 127
2, 705640, Note_off_c, 1, 56, 0
2, 705640, Note_off_c, 1, 66, 0
2, 705680, Note_on_c, 1, 54, 127
2, 705680, Note_on_c, 1, 68, 127
2, 705840, Note_off_c, 1, 54, 0
2, 705840, Note_off_c, 1, 68, 0
2, 705880, Note_on_c, 1, 52, 127
2, 705880, Note_on_c, 1, 69, 127
2, 706040, Note_off_c, 1, 52, 0
2, 706040, Note_off_c, 1, 69, 0
2, 706080, Note_on_c, 1, 50, 127
2, 706080, Note_on_c, 1, 71, 127
2, 706200, Note_off_c, 1, 50, 0
2, 706200, Note_off_c, 1, 71, 0
2, 706240, Note_on_c, 1, 49, 127
2, 706240, Note_on_c, 1, 69, 127
2, 706400, Note_off_c, 1, 49, 0
2, 706400, Note_off_c, 1, 69, 0
2, 706440, Note_on_c, 1, 50, 127
2, 706440, Note_on_c, 1, 71, 127
2, 706560, Note_off_c, 1, 50, 0
2, 706560, Note_off_c, 1, 71, 0
2, 706640, Note_on_c, 1, 52, 127
2, 706640, Note_on_c, 1, 73, 127
2, 706680, Note_off_c, 1, 73, 0
2, 706720, Note_on_c, 1, 71, 127
2, 706760, Note_off_c, 1, 52, 0
2, 706760, Note_off_c, 1, 71, 0
2, 706800, Note_on_c, 1, 50, 127
2, 706800, Note_on_c, 1, 73, 127
2, 706840, Note_off_c, 1, 73, 0
2, 706920, Note_on_c, 1, 71, 127
2, 706960, Note_off_c, 1, 50, 0
2, 706960, Note_off_c, 1, 71, 0
2, 707000, Note_on_c, 1, 49, 127
2, 707000, Note_on_c, 1, 73, 127
2, 707040, Note_off_c, 1, 73, 0
2, 707080, Note_on_c, 1, 71, 127
2, 707120, Note_off_c, 1, 49, 0
2, 707120, Note_off_c, 1, 71, 0
2, 707200, Note_on_c, 1, 47, 127
2, 707200, Note_on_c, 1, 69, 127
2, 707240, Note_off_c, 1, 69, 0
2, 707280, Note_on_c, 1, 71, 127
2, 707320, Note_off_c, 1, 47, 0
2, 707320, Note_off_c, 1, 71, 0
2, 707360, Note_on_c, 1, 45, 127
2, 707360, Note_on_c, 1, 73, 127
2, 707520, Note_off_c, 1, 45, 0
2, 707520, Note_off_c, 1, 73, 0
2, 707560, Note_on_c, 1, 50, 127
2, 707560, Note_on_c, 1, 69, 127
2, 707680, Note_off_c, 1, 50, 0
2, 707680, Note_off_c, 1, 69, 0
2, 707760, Note_on_c, 1, 49, 127
2, 707760, Note_on_c, 1, 71, 127
2, 707880, Note_off_c, 1, 49, 0
2, 707880, Note_off_c, 1, 71, 0
2, 707920, Note_on_c, 1, 47, 127
2, 707920, Note_on_c, 1, 73, 127
2, 708080, Note_off_c, 1, 47, 0
2, 708080, Note_off_c, 1, 73, 0
2, 708120, Note_on_c, 1, 45, 127
2, 708120, Note_on_c, 1, 74, 127
2, 708240, Note_off_c, 1, 45, 0
2, 708240, Note_off_c, 1, 74, 0
2, 708320, Note_on_c, 1, 43, 127
2, 708320, Note_on_c, 1, 76, 127
2, 708440, Note_off_c, 1, 43, 0
2, 708440, Note_off_c, 1, 76, 0
2, 708480, Note_on_c, 1, 42, 127
2, 708480, Note_on_c, 1, 74, 127
2, 708640, Note_off_c, 1, 42, 0
2, 708640, Note_off_c, 1, 74, 0
2, 708680, Note_on_c, 1, 43, 127
2, 708680, Note_on_c, 1, 76, 127
2, 708800, Note_off_c, 1, 43, 0
2, 708800, Note_off_c, 1, 76, 0
2, 708840, Note_on_c, 1, 45, 127
2, 708840, Note_on_c, 1, 78, 127
2, 708920, Note_off_c, 1, 78, 0
2, 708960, Note_on_c, 1, 76, 127
2, 709000, Note_off_c, 1, 45, 0
2, 709000, Note_off_c, 1, 76, 0
2, 709040, Note_on_c, 1, 43, 127
2, 709040, Note_on_c, 1, 78, 127
2, 709080, Note_off_c, 1, 78, 0
2, 709120, Note_on_c, 1, 76, 127
2, 709200, Note_off_c, 1, 43, 0
2, 709200, Note_off_c, 1, 76, 0
2, 709240, Note_on_c, 1, 42, 127
2, 709240, Note_on_c, 1, 78, 127
2, 709280, Note_off_c, 1, 78, 0
2, 709320, Note_on_c, 1, 76, 127
2, 709360, Note_off_c, 1, 42, 0
2, 709360, Note_off_c, 1, 76, 0
2, 709400, Note_on_c, 1, 40, 127
2, 709400, Note_on_c, 1, 74, 127
2, 709480, Note_off_c, 1, 74, 0
2, 709520, Note_on_c, 1, 76, 127
2, 709560, Note_off_c, 1, 40, 0
2, 709560, Note_off_c, 1, 76, 0
2, 709600, Note_on_c, 1, 38, 127
2, 709600, Note_on_c, 1, 78, 127
2, 709760, Note_off_c, 1, 38, 0
2, 709760, Note_off_c, 1, 78, 0
2, 709800, Note_on_c, 1, 42, 127
2, 709800, Note_on_c, 1, 74, 127
2, 709920, Note_off_c, 1, 42, 0
2, 709920, Note_off_c, 1, 74, 0
2, 709960, Note_on_c, 1, 43, 127
2, 709960, Note_on_c, 1, 76, 127
2, 710120, Note_off_c, 1, 43, 0
2, 710120, Note_off_c, 1, 76, 0
2, 710160, Note_on_c, 1, 45, 127
2, 710160, Note_on_c, 1, 78, 127
2, 710280, Note_off_c, 1, 45, 0
2, 710280, Note_off_c, 1, 78, 0
2, 710360, Note_on_c, 1, 47, 127
2, 710360, Note_on_c, 1, 79, 127
2, 710480, Note_off_c, 1, 47, 0
2, 710480, Note_off_c, 1, 79, 0
2, 710520, Note_on_c, 1, 49, 127
2, 710520, Note_on_c, 1, 81, 127
2, 710640, Note_off_c, 1, 81, 0
2, 710680, Note_off_c, 1, 49, 0
2, 710720, Note_on_c, 1, 50, 127
2, 710720, Note_on_c, 1, 80, 127
2, 710840, Note_off_c, 1, 50, 0
2, 710840, Note_off_c, 1, 80, 0
2, 710920, Note_on_c, 1, 52, 127
2, 710920, Note_on_c, 1, 81, 127
2, 711040, Note_off_c, 1, 52, 0
2, 711040, Note_off_c, 1, 81, 0
2, 711080, Note_on_c, 1, 50, 127
2, 711080, Note_on_c, 1, 83, 127
2, 711120, Note_off_c, 1, 83, 0
2, 711200, Note_on_c, 1, 81, 127
2, 711240, Note_off_c, 1, 50, 0
2, 711240, Note_off_c, 1, 81, 0
2, 711280, Note_on_c, 1, 49, 127
2, 711280, Note_on_c, 1, 83, 127
2, 711320, Note_off_c, 1, 83, 0
2, 711360, Note_on_c, 1, 81, 127
2, 711400, Note_off_c, 1, 49, 0
2, 711400, Note_off_c, 1, 81, 0
2, 711480, Note_on_c, 1, 47, 127
2, 711480, Note_on_c, 1, 83, 127
2, 711520, Note_off_c, 1, 83, 0
2, 711560, Note_on_c, 1, 81, 127
2, 711600, Note_off_c, 1, 47, 0
2, 711600, Note_off_c, 1, 81, 0
2, 711640, Note_on_c, 1, 45, 127
2, 711640, Note_on_c, 1, 80, 127
2, 711680, Note_off_c, 1, 80, 0
2, 711760, Note_on_c, 1, 81, 127
2, 711800, Note_off_c, 1, 45, 0
2, 711800, Note_off_c, 1, 81, 0
2, 711840, Note_on_c, 1, 44, 127
2, 711840, Note_on_c, 1, 83, 127
2, 711960, Note_off_c, 1, 44, 0
2, 711960, Note_off_c, 1, 83, 0
2, 712040, Note_on_c, 1, 40, 127
2, 712040, Note_on_c, 1, 81, 127
2, 712160, Note_off_c, 1, 40, 0
2, 712160, Note_off_c, 1, 81, 0
2, 712200, Note_on_c, 1, 42, 127
2, 712200, Note_on_c, 1, 80, 127
2, 712360, Note_off_c, 1, 42, 0
2, 712360, Note_off_c, 1, 80, 0
2, 712400, Note_on_c, 1, 44, 127
2, 712400, Note_on_c, 1, 78, 127
2, 712520, Note_off_c, 1, 44, 0
2, 712520, Note_off_c, 1, 78, 0
2, 712600, Note_on_c, 1, 45, 127
2, 712600, Note_on_c, 1, 76, 127
2, 712720, Note_off_c, 1, 45, 0
2, 712720, Note_off_c, 1, 76, 0
2, 712760, Note_on_c, 1, 47, 127
2, 712760, Note_on_c, 1, 74, 127
2, 712920, Note_off_c, 1, 47, 0
2, 712920, Note_off_c, 1, 74, 0
2, 712960, Note_on_c, 1, 45, 127
2, 712960, Note_on_c, 1, 73, 127
2, 713080, Note_off_c, 1, 45, 0
2, 713080, Note_off_c, 1, 73, 0
2, 713120, Note_on_c, 1, 47, 127
2, 713120, Note_on_c, 1, 71, 127
2, 713280, Note_off_c, 1, 47, 0
2, 713280, Note_off_c, 1, 71, 0
2, 713320, Note_on_c, 1, 49, 127
2, 713320, Note_on_c, 1, 69, 127
2, 713360, Note_off_c, 1, 49, 0
2, 713400, Note_on_c, 1, 47, 127
2, 713440, Note_off_c, 1, 47, 0
2, 713440, Note_off_c, 1, 69, 0
2, 713520, Note_on_c, 1, 49, 127
2, 713520, Note_on_c, 1, 71, 127
2, 713560, Note_off_c, 1, 49, 0
2, 713600, Note_on_c, 1, 47, 127
2, 713640, Note_off_c, 1, 47, 0
2, 713640, Note_off_c, 1, 71, 0
2, 713680, Note_on_c, 1, 49, 127
2, 713680, Note_on_c, 1, 73, 127
2, 713720, Note_off_c, 1, 49, 0
2, 713800, Note_on_c, 1, 47, 127
2, 713840, Note_off_c, 1, 47, 0
2, 713840, Note_off_c, 1, 73, 0
2, 713880, Note_on_c, 1, 45, 127
2, 713880, Note_on_c, 1, 74, 127
2, 713920, Note_off_c, 1, 45, 0
2, 713960, Note_on_c, 1, 47, 127
2, 714000, Note_off_c, 1, 47, 0
2, 714000, Note_off_c, 1, 74, 0
2, 714080, Note_on_c, 1, 49, 127
2, 714080, Note_on_c, 1, 76, 127
2, 714200, Note_off_c, 1, 49, 0
2, 714200, Note_off_c, 1, 76, 0
2, 714240, Note_on_c, 1, 47, 127
2, 714240, Note_on_c, 1, 74, 127
2, 714400, Note_off_c, 1, 47, 0
2, 714400, Note_off_c, 1, 74, 0
2, 714440, Note_on_c, 1, 45, 127
2, 714440, Note_on_c, 1, 73, 127
2, 714560, Note_off_c, 1, 45, 0
2, 714560, Note_off_c, 1, 73, 0
2, 714640, Note_on_c, 1, 47, 127
2, 714640, Note_on_c, 1, 71, 127
2, 714760, Note_off_c, 1, 47, 0
2, 714760, Note_off_c, 1, 71, 0
2, 714800, Note_on_c, 1, 49, 127
2, 714800, Note_on_c, 1, 69, 127
2, 714960, Note_off_c, 1, 49, 0
2, 714960, Note_off_c, 1, 69, 0
2, 715000, Note_on_c, 1, 45, 127
2, 715000, Note_on_c, 1, 67, 127
2, 715120, Note_off_c, 1, 45, 0
2, 715120, Note_off_c, 1, 67, 0
2, 715200, Note_on_c, 1, 50, 127
2, 715200, Note_on_c, 1, 66, 127
2, 715320, Note_off_c, 1, 50, 0
2, 715320, Note_off_c, 1, 66, 0
2, 715360, Note_on_c, 1, 49, 127
2, 715360, Note_on_c, 1, 76, 127
2, 715520, Note_off_c, 1, 49, 0
2, 715520, Note_off_c, 1, 76, 0
2, 715560, Note_on_c, 1, 47, 127
2, 715560, Note_on_c, 1, 74, 127
2, 715680, Note_off_c, 1, 47, 0
2, 715680, Note_off_c, 1, 74, 0
2, 715760, Note_on_c, 1, 49, 127
2, 715760, Note_on_c, 1, 73, 127
2, 715880, Note_off_c, 1, 49, 0
2, 715880, Note_off_c, 1, 73, 0
2, 715920, Note_on_c, 1, 50, 127
2, 715920, Note_on_c, 1, 71, 127
2, 716040, Note_off_c, 1, 50, 0
2, 716040, Note_off_c, 1, 71, 0
2, 716120, Note_on_c, 1, 47, 127
2, 716120, Note_on_c, 1, 69, 127
2, 716240, Note_off_c, 1, 47, 0
2, 716240, Note_off_c, 1, 69, 0
2, 716280, Note_on_c, 1, 52, 127
2, 716280, Note_on_c, 1, 68, 127
2, 716440, Note_off_c, 1, 52, 0
2, 716440, Note_off_c, 1, 68, 0
2, 716480, Note_on_c, 1, 54, 127
2, 716480, Note_on_c, 1, 64, 127
2, 716600, Note_off_c, 1, 54, 0
2, 716600, Note_off_c, 1, 64, 0
2, 716680, Note_on_c, 1, 52, 127
2, 716680, Note_on_c, 1, 66, 127
2, 716800, Note_off_c, 1, 52, 0
2, 716800, Note_off_c, 1, 66, 0
2, 716840, Note_on_c, 1, 50, 127
2, 716840, Note_on_c, 1, 68, 127
2, 717000, Note_off_c, 1, 50, 0
2, 717000, Note_off_c, 1, 68, 0
2, 717040, Note_on_c, 1, 49, 127
2, 717040, Note_on_c, 1, 69, 127
2, 717160, Note_off_c, 1, 49, 0
2, 717160, Note_off_c, 1, 69, 0
2, 717240, Note_on_c, 1, 47, 127
2, 717240, Note_on_c, 1, 68, 127
2, 717360, Note_off_c, 1, 47, 0
2, 717360, Note_off_c, 1, 68, 0
2, 717400, Note_on_c, 1, 49, 127
2, 717400, Note_on_c, 1, 69, 127
2, 717560, Note_off_c, 1, 49, 0
2, 717560, Note_off_c, 1, 69, 0
2, 717600, Note_on_c, 1, 50, 127
2, 717600, Note_on_c, 1, 71, 127
2, 717720, Note_off_c, 1, 50, 0
2, 717720, Note_off_c, 1, 71, 0
2, 717800, Note_on_c, 1, 52, 127
2, 717800, Note_on_c, 1, 69, 127
2, 717840, Note_on_c, 1, 68, 127
2, 717840, Note_off_c, 1, 69, 0
2, 717880, Note_off_c, 1, 68, 0
2, 717920, Note_on_c, 1, 69, 127
2, 717960, Note_on_c, 1, 68, 127
2, 717960, Note_off_c, 1, 69, 0
2, 718000, Note_off_c, 1, 68, 0
2, 718040, Note_on_c, 1, 69, 127
2, 718080, Note_on_c, 1, 68, 127
2, 718080, Note_off_c, 1, 69, 0
2, 718120, Note_off_c, 1, 52, 0
2, 718160, Note_on_c, 1, 40, 127
2, 718440, Note_off_c, 1, 68, 0
2, 718480, Note_off_c, 1, 40, 0
2, 718520, Note_on_c, 1, 45, 127
2, 718520, Note_on_c, 1, 69, 127
2, 718680, Note_off_c, 1, 69, 0
2, 718720, Note_on_c, 1, 71, 127
2, 718840, Note_off_c, 1, 45, 0
2, 718840, Note_off_c, 1, 71, 0
2, 718880, Note_on_c, 1, 57, 127
2, 718880, Note_on_c, 1, 73, 127
2, 719040, Note_off_c, 1, 57, 0
2, 719040, Note_off_c, 1, 73, 0
2, 719080, Note_on_c, 1, 56, 127
2, 719080, Note_on_c, 1, 74, 127
2, 719200, Note_off_c, 1, 56, 0
2, 719200, Note_off_c, 1, 74, 0
2, 719280, Note_on_c, 1, 54, 127
2, 719280, Note_on_c, 1, 76, 127
2, 719400, Note_off_c, 1, 54, 0
2, 719400, Note_off_c, 1, 76, 0
2, 719440, Note_on_c, 1, 52, 127
2, 719440, Note_on_c, 1, 73, 127
2, 719600, Note_off_c, 1, 52, 0
2, 719600, Note_off_c, 1, 73, 0
2, 719640, Note_on_c, 1, 50, 127
2, 719640, Note_on_c, 1, 78, 127
2, 719760, Note_off_c, 1, 78, 0
2, 719840, Note_on_c, 1, 76, 127
2, 719960, Note_off_c, 1, 50, 0
2, 719960, Note_off_c, 1, 76, 0
2, 720000, Note_on_c, 1, 52, 127
2, 720000, Note_on_c, 1, 74, 127
2, 720040, Note_off_c, 1, 52, 0
2, 720120, Note_on_c, 1, 50, 127
2, 720160, Note_off_c, 1, 50, 0
2, 720160, Note_off_c, 1, 74, 0
2, 720200, Note_on_c, 1, 52, 127
2, 720200, Note_on_c, 1, 73, 127
2, 720240, Note_off_c, 1, 52, 0
2, 720280, Note_on_c, 1, 50, 127
2, 720320, Note_off_c, 1, 50, 0
2, 720320, Note_off_c, 1, 73, 0
2, 720400, Note_on_c, 1, 52, 127
2, 720400, Note_on_c, 1, 71, 127
2, 720440, Note_off_c, 1, 52, 0
2, 720480, Note_on_c, 1, 50, 127
2, 720520, Note_off_c, 1, 50, 0
2, 720520, Note_off_c, 1, 71, 0
2, 720560, Note_on_c, 1, 49, 127
2, 720560, Note_on_c, 1, 69, 127
2, 720600, Note_off_c, 1, 49, 0
2, 720680, Note_on_c, 1, 50, 127
2, 720720, Note_off_c, 1, 50, 0
2, 720720, Note_off_c, 1, 69, 0
2, 720760, Note_on_c, 1, 52, 127
2, 720760, Note_on_c, 1, 68, 127
2, 720880, Note_off_c, 1, 52, 0
2, 720880, Note_off_c, 1, 68, 0
2, 720960, Note_on_c, 1, 54, 127
2, 720960, Note_on_c, 1, 69, 127
2, 721080, Note_off_c, 1, 54, 0
2, 721080, Note_off_c, 1, 69, 0
2, 721120, Note_on_c, 1, 56, 127
2, 721120, Note_on_c, 1, 71, 127
2, 721280, Note_off_c, 1, 56, 0
2, 721280, Note_off_c, 1, 71, 0
2, 721320, Note_on_c, 1, 54, 127
2, 721320, Note_on_c, 1, 73, 127
2, 721440, Note_off_c, 1, 54, 0
2, 721440, Note_off_c, 1, 73, 0
2, 721520, Note_on_c, 1, 52, 127
2, 721520, Note_on_c, 1, 74, 127
2, 721640, Note_off_c, 1, 52, 0
2, 721640, Note_off_c, 1, 74, 0
2, 721680, Note_on_c, 1, 50, 127
2, 721680, Note_on_c, 1, 71, 127
2, 721840, Note_off_c, 1, 50, 0
2, 721840, Note_off_c, 1, 71, 0
2, 721880, Note_on_c, 1, 49, 127
2, 721880, Note_on_c, 1, 76, 127
2, 722000, Note_off_c, 1, 76, 0
2, 722040, Note_on_c, 1, 74, 127
2, 722200, Note_off_c, 1, 49, 0
2, 722200, Note_off_c, 1, 74, 0
2, 722240, Note_on_c, 1, 50, 127
2, 722240, Note_on_c, 1, 73, 127
2, 722280, Note_off_c, 1, 50, 0
2, 722320, Note_on_c, 1, 49, 127
2, 722360, Note_off_c, 1, 49, 0
2, 722360, Note_off_c, 1, 73, 0
2, 722440, Note_on_c, 1, 50, 127
2, 722440, Note_on_c, 1, 71, 127
2, 722480, Note_off_c, 1, 50, 0
2, 722520, Note_on_c, 1, 49, 127
2, 722560, Note_off_c, 1, 49, 0
2, 722560, Note_off_c, 1, 71, 0
2, 722600, Note_on_c, 1, 50, 127
2, 722600, Note_on_c, 1, 69, 127
2, 722640, Note_off_c, 1, 50, 0
2, 722720, Note_on_c, 1, 49, 127
2, 722760, Note_off_c, 1, 49, 0
2, 722760, Note_off_c, 1, 69, 0
2, 722800, Note_on_c, 1, 47, 127
2, 722800, Note_on_c, 1, 68, 127
2, 722840, Note_off_c, 1, 47, 0
2, 722880, Note_on_c, 1, 49, 127
2, 722920, Note_off_c, 1, 49, 0
2, 722920, Note_off_c, 1, 68, 0
2, 723000, Note_on_c, 1, 50, 127
2, 723000, Note_on_c, 1, 66, 127
2, 723120, Note_off_c, 1, 50, 0
2, 723120, Note_off_c, 1, 66, 0
2, 723160, Note_on_c, 1, 52, 127
2, 723160, Note_on_c, 1, 68, 127
2, 723320, Note_off_c, 1, 52, 0
2, 723320, Note_off_c, 1, 68, 0
2, 723360, Note_on_c, 1, 54, 127
2, 723360, Note_on_c, 1, 69, 127
2, 723480, Note_off_c, 1, 54, 0
2, 723480, Note_off_c, 1, 69, 0
2, 723560, Note_on_c, 1, 52, 127
2, 723560, Note_on_c, 1, 71, 127
2, 723680, Note_off_c, 1, 52, 0
2, 723680, Note_off_c, 1, 71, 0
2, 723720, Note_on_c, 1, 50, 127
2, 723720, Note_on_c, 1, 73, 127
2, 723880, Note_off_c, 1, 50, 0
2, 723880, Note_off_c, 1, 73, 0
2, 723920, Note_on_c, 1, 49, 127
2, 723920, Note_on_c, 1, 69, 127
2, 724040, Note_off_c, 1, 49, 0
2, 724040, Note_off_c, 1, 69, 0
2, 724120, Note_on_c, 1, 47, 127
2, 724120, Note_on_c, 1, 74, 127
2, 724240, Note_off_c, 1, 47, 0
2, 724240, Note_off_c, 1, 74, 0
2, 724280, Note_on_c, 1, 49, 127
2, 724280, Note_on_c, 1, 73, 127
2, 724440, Note_off_c, 1, 49, 0
2, 724440, Note_off_c, 1, 73, 0
2, 724480, Note_on_c, 1, 50, 127
2, 724480, Note_on_c, 1, 71, 127
2, 724600, Note_off_c, 1, 50, 0
2, 724600, Note_off_c, 1, 71, 0
2, 724680, Note_on_c, 1, 49, 127
2, 724680, Note_on_c, 1, 69, 127
2, 724800, Note_off_c, 1, 49, 0
2, 724800, Note_off_c, 1, 69, 0
2, 724840, Note_on_c, 1, 47, 127
2, 724840, Note_on_c, 1, 68, 127
2, 724960, Note_off_c, 1, 47, 0
2, 724960, Note_off_c, 1, 68, 0
2, 725040, Note_on_c, 1, 45, 127
2, 725040, Note_on_c, 1, 66, 127
2, 725160, Note_off_c, 1, 45, 0
2, 725160, Note_off_c, 1, 66, 0
2, 725200, Note_on_c, 1, 44, 127
2, 725200, Note_on_c, 1, 64, 127
2, 725360, Note_off_c, 1, 64, 0
2, 725400, Note_on_c, 1, 74, 127
2, 725560, Note_off_c, 1, 44, 0
2, 725560, Note_off_c, 1, 74, 0
2, 725600, Note_on_c, 1, 52, 127
2, 725600, Note_on_c, 1, 73, 127
2, 725720, Note_off_c, 1, 73, 0
2, 725800, Note_on_c, 1, 71, 127
2, 725920, Note_off_c, 1, 52, 0
2, 725920, Note_off_c, 1, 71, 0
2, 725960, Note_on_c, 1, 54, 127
2, 725960, Note_on_c, 1, 69, 127
2, 726120, Note_off_c, 1, 69, 0
2, 726160, Note_on_c, 1, 68, 127
2, 726280, Note_off_c, 1, 54, 0
2, 726280, Note_off_c, 1, 68, 0
2, 726360, Note_on_c, 1, 50, 127
2, 726360, Note_on_c, 1, 69, 127
2, 726480, Note_off_c, 1, 69, 0
2, 726520, Note_on_c, 1, 71, 127
2, 726680, Note_off_c, 1, 50, 0
2, 726680, Note_off_c, 1, 71, 0
2, 726720, Note_on_c, 1, 52, 127
2, 726720, Note_on_c, 1, 73, 127
2, 726760, Note_off_c, 1, 73, 0
2, 726800, Note_on_c, 1, 71, 127
2, 726840, Note_off_c, 1, 71, 0
2, 726880, Note_on_c, 1, 73, 127
2, 726920, Note_off_c, 1, 73, 0
2, 726960, Note_on_c, 1, 71, 127
2, 727000, Note_off_c, 1, 71, 0
2, 727040, Note_off_c, 1, 52, 0
2, 727040, Note_on_c, 1, 73, 127
2, 727080, Note_off_c, 1, 73, 0
2, 727120, Note_on_c, 1, 40, 127
2, 727120, Note_on_c, 1, 71, 127
2, 727240, Note_off_c, 1, 71, 0
2, 727320, Note_on_c, 1, 69, 127
2, 727440, Note_off_c, 1, 40, 0
2, 727440, Note_off_c, 1, 69, 0
2, 727480, Note_on_c, 1, 33, 127
2, 727480, Note_on_c, 1, 69, 127
2, 727920, Note_on_c, 1, 37, 127
2, 728320, Note_off_c, 1, 37, 0
2, 728360, Note_on_c, 1, 40, 127
2, 728760, Note_off_c, 1, 40, 0
2, 728800, Note_on_c, 1, 45, 127
2, 731840, Note_off_c, 1, 33, 0
2, 731840, Note_off_c, 1, 45, 0
2, 731840, Note_off_c, 1, 69, 0
2, 732800, End_track
3, 0, Start_track
3, 0, Title_t, "MIDI"
3, 1536, End_track
0, 0, End_of_file
