0, 0, Header, 1, 3, 384
1, 0, Start_track
1, 0, Time_signature, 4, 2, 24, 8
1, 0, Tempo, 500000
1, 694520, End_track
2, 0, Start_track
2, 0, Text_t, "random instrument: random person i dunno whatev"
2, 0, Title_t, "Track 1"
2, 0, Note_on_c, 1, 78, 127
2, 240, Note_off_c, 1, 78, 0
2, 320, Note_on_c, 1, 71, 127
2, 560, Note_off_c, 1, 71, 0
2, 600, Note_on_c, 1, 83, 127
2, 880, Note_off_c, 1, 83, 0
2, 920, Note_on_c, 1, 81, 127
2, 1040, Note_off_c, 1, 81, 0
2, 1080, Note_on_c, 1, 78, 127
2, 1160, Note_off_c, 1, 78, 0
2, 1200, Note_on_c, 1, 79, 127
2, 1320, Note_off_c, 1, 79, 0
2, 1360, Note_on_c, 1, 76, 127
2, 1480, Note_off_c, 1, 76, 0
2, 1520, Note_on_c, 1, 78, 127
2, 1640, Note_off_c, 1, 78, 0
2, 1680, Note_on_c, 1, 76, 127
2, 1760, Note_off_c, 1, 76, 0
2, 1800, Note_on_c, 1, 66, 127
2, 1800, Note_on_c, 1, 74, 127
2, 1920, Note_off_c, 1, 74, 0
2, 1960, Note_on_c, 1, 73, 127
2, 2040, Note_off_c, 1, 66, 0
2, 2080, Note_off_c, 1, 73, 0
2, 2120, Note_on_c, 1, 59, 127
2, 2120, Note_on_c, 1, 74, 127
2, 2240, Note_off_c, 1, 74, 0
2, 2280, Note_on_c, 1, 73, 127
2, 2360, Note_off_c, 1, 59, 0
2, 2360, Note_off_c, 1, 73, 0
2, 2400, Note_on_c, 1, 71, 127
2, 2400, Note_on_c, 1, 74, 127
2, 2560, Note_on_c, 1, 79, 127
2, 2640, Note_off_c, 1, 74, 0
2, 2680, Note_off_c, 1, 71, 0
2, 2720, Note_on_c, 1, 69, 127
2, 2720, Note_on_c, 1, 73, 127
2, 2760, Note_off_c, 1, 79, 0
2, 2840, Note_off_c, 1, 69, 0
2, 2880, Note_on_c, 1, 66, 127
2, 2880, Note_on_c, 1, 78, 127
2, 2920, Note_off_c, 1, 73, 0
2, 2960, Note_off_c, 1, 66, 0
2, 3000, Note_on_c, 1, 67, 127
2, 3000, Note_on_c, 1, 71, 127
2, 3080, Note_off_c, 1, 78, 0
2, 3120, Note_off_c, 1, 67, 0
2, 3160, Note_on_c, 1, 64, 127
2, 3160, Note_on_c, 1, 76, 127
2, 3240, Note_off_c, 1, 71, 0
2, 3280, Note_off_c, 1, 64, 0
2, 3320, Note_on_c, 1, 66, 127
2, 3320, Note_on_c, 1, 70, 127
2, 3360, Note_off_c, 1, 76, 0
2, 3480, Note_on_c, 1, 76, 127
2, 3560, Note_off_c, 1, 66, 0
2, 3600, Note_on_c, 1, 54, 127
2, 3600, Note_on_c, 1, 73, 127
2, 3720, Note_off_c, 1, 70, 0
2, 3720, Note_off_c, 1, 73, 0
2, 3760, Note_on_c, 1, 70, 127
2, 3880, Note_off_c, 1, 54, 0
2, 3880, Note_off_c, 1, 70, 0
2, 3880, Note_off_c, 1, 76, 0
2, 3920, Note_on_c, 1, 58, 127
2, 3920, Note_on_c, 1, 76, 127
2, 4080, Note_on_c, 1, 73, 127
2, 4160, Note_off_c, 1, 58, 0
2, 4160, Note_off_c, 1, 73, 0
2, 4200, Note_on_c, 1, 61, 127
2, 4200, Note_on_c, 1, 70, 127
2, 4320, Note_off_c, 1, 70, 0
2, 4360, Note_on_c, 1, 73, 127
2, 4480, Note_off_c, 1, 61, 0
2, 4480, Note_off_c, 1, 73, 0
2, 4520, Note_on_c, 1, 58, 127
2, 4520, Note_on_c, 1, 66, 127
2, 4640, Note_off_c, 1, 76, 0
2, 4680, Note_on_c, 1, 76, 127
2, 4760, Note_off_c, 1, 58, 0
2, 4760, Note_off_c, 1, 76, 0
2, 4800, Note_on_c, 1, 54, 127
2, 4800, Note_on_c, 1, 74, 127
2, 4920, Note_off_c, 1, 74, 0
2, 4960, Note_on_c, 1, 73, 127
2, 5080, Note_off_c, 1, 54, 0
2, 5080, Note_off_c, 1, 66, 0
2, 5080, Note_off_c, 1, 73, 0
2, 5120, Note_on_c, 1, 59, 127
2, 5120, Note_on_c, 1, 74, 127
2, 5240, Note_off_c, 1, 74, 0
2, 5280, Note_on_c, 1, 73, 127
2, 5360, Note_off_c, 1, 73, 0
2, 5400, Note_on_c, 1, 54, 127
2, 5400, Note_on_c, 1, 71, 127
2, 5520, Note_off_c, 1, 71, 0
2, 5560, Note_on_c, 1, 70, 127
2, 5680, Note_off_c, 1, 54, 0
2, 5680, Note_off_c, 1, 70, 0
2, 5720, Note_on_c, 1, 47, 127
2, 5720, Note_on_c, 1, 71, 127
2, 5840, Note_off_c, 1, 71, 0
2, 5880, Note_on_c, 1, 73, 127
2, 5960, Note_off_c, 1, 47, 0
2, 5960, Note_off_c, 1, 59, 0
2, 5960, Note_off_c, 1, 73, 0
2, 6000, Note_on_c, 1, 59, 127
2, 6000, Note_on_c, 1, 74, 127
2, 6160, Note_on_c, 1, 67, 127
2, 6280, Note_off_c, 1, 59, 0
2, 6280, Note_off_c, 1, 74, 0
2, 6320, Note_on_c, 1, 57, 127
2, 6320, Note_on_c, 1, 73, 127
2, 6360, Note_off_c, 1, 67, 0
2, 6440, Note_off_c, 1, 57, 0
2, 6480, Note_on_c, 1, 54, 127
2, 6480, Note_on_c, 1, 66, 127
2, 6480, Note_off_c, 1, 73, 0
2, 6560, Note_off_c, 1, 54, 0
2, 6600, Note_on_c, 1, 55, 127
2, 6600, Note_on_c, 1, 71, 127
2, 6680, Note_off_c, 1, 66, 0
2, 6720, Note_off_c, 1, 55, 0
2, 6720, Note_off_c, 1, 71, 0
2, 6760, Note_on_c, 1, 52, 127
2, 6760, Note_on_c, 1, 73, 127
2, 6880, Note_off_c, 1, 52, 0
2, 6880, Note_off_c, 1, 73, 0
2, 6920, Note_on_c, 1, 54, 127
2, 6920, Note_on_c, 1, 71, 127
2, 6960, Note_on_c, 1, 70, 127
2, 6960, Note_off_c, 1, 71, 0
2, 7000, Note_off_c, 1, 70, 0
2, 7040, Note_off_c, 1, 54, 0
2, 7040, Note_on_c, 1, 71, 127
2, 7080, Note_on_c, 1, 52, 127
2, 7080, Note_on_c, 1, 70, 127
2, 7080, Note_off_c, 1, 71, 0
2, 7160, Note_off_c, 1, 52, 0
2, 7160, Note_off_c, 1, 70, 0
2, 7200, Note_on_c, 1, 49, 127
2, 7200, Note_on_c, 1, 66, 127
2, 7320, Note_off_c, 1, 49, 0
2, 7360, Note_on_c, 1, 46, 127
2, 7480, Note_off_c, 1, 46, 0
2, 7480, Note_off_c, 1, 66, 0
2, 7520, Note_on_c, 1, 52, 127
2, 7520, Note_on_c, 1, 70, 127
2, 7640, Note_off_c, 1, 52, 0
2, 7680, Note_on_c, 1, 49, 127
2, 7720, Note_off_c, 1, 70, 0
2, 7760, Note_off_c, 1, 49, 0
2, 7800, Note_on_c, 1, 46, 127
2, 7800, Note_on_c, 1, 73, 127
2, 7920, Note_off_c, 1, 46, 0
2, 7960, Note_on_c, 1, 49, 127
2, 8040, Note_off_c, 1, 73, 0
2, 8080, Note_off_c, 1, 49, 0
2, 8120, Note_on_c, 1, 42, 127
2, 8120, Note_on_c, 1, 70, 127
2, 8240, Note_off_c, 1, 42, 0
2, 8280, Note_on_c, 1, 52, 127
2, 8320, Note_off_c, 1, 70, 0
2, 8360, Note_off_c, 1, 52, 0
2, 8400, Note_on_c, 1, 50, 127
2, 8400, Note_on_c, 1, 66, 127
2, 8520, Note_off_c, 1, 50, 0
2, 8560, Note_on_c, 1, 49, 127
2, 8640, Note_off_c, 1, 66, 0
2, 8680, Note_off_c, 1, 49, 0
2, 8720, Note_on_c, 1, 51, 127
2, 8720, Note_on_c, 1, 71, 127
2, 8880, Note_on_c, 1, 81, 127
2, 8960, Note_off_c, 1, 51, 0
2, 8960, Note_off_c, 1, 81, 0
2, 9000, Note_on_c, 1, 47, 127
2, 9000, Note_on_c, 1, 78, 127
2, 9120, Note_off_c, 1, 78, 0
2, 9160, Note_on_c, 1, 75, 127
2, 9280, Note_off_c, 1, 47, 0
2, 9280, Note_off_c, 1, 75, 0
2, 9320, Note_on_c, 1, 51, 127
2, 9320, Note_on_c, 1, 81, 127
2, 9440, Note_off_c, 1, 81, 0
2, 9480, Note_on_c, 1, 78, 127
2, 9560, Note_off_c, 1, 51, 0
2, 9560, Note_off_c, 1, 71, 0
2, 9560, Note_off_c, 1, 78, 0
2, 9600, Note_on_c, 1, 54, 127
2, 9600, Note_on_c, 1, 75, 127
2, 9760, Note_on_c, 1, 78, 127
2, 9840, Note_off_c, 1, 75, 0
2, 9880, Note_off_c, 1, 54, 0
2, 9880, Note_off_c, 1, 78, 0
2, 9920, Note_on_c, 1, 51, 127
2, 9920, Note_on_c, 1, 71, 127
2, 10040, Note_off_c, 1, 71, 0
2, 10080, Note_on_c, 1, 69, 127
2, 10160, Note_off_c, 1, 51, 0
2, 10160, Note_off_c, 1, 69, 0
2, 10200, Note_on_c, 1, 47, 127
2, 10200, Note_on_c, 1, 68, 127
2, 10320, Note_off_c, 1, 68, 0
2, 10360, Note_on_c, 1, 66, 127
2, 10480, Note_off_c, 1, 47, 0
2, 10480, Note_off_c, 1, 66, 0
2, 10520, Note_on_c, 1, 52, 127
2, 10520, Note_on_c, 1, 68, 127
2, 10640, Note_off_c, 1, 52, 0
2, 10680, Note_on_c, 1, 62, 127
2, 10760, Note_off_c, 1, 62, 0
2, 10760, Note_off_c, 1, 68, 0
2, 10800, Note_on_c, 1, 59, 127
2, 10800, Note_on_c, 1, 76, 127
2, 10920, Note_off_c, 1, 59, 0
2, 10960, Note_on_c, 1, 56, 127
2, 11040, Note_off_c, 1, 76, 0
2, 11080, Note_off_c, 1, 56, 0
2, 11120, Note_on_c, 1, 62, 127
2, 11120, Note_on_c, 1, 80, 127
2, 11240, Note_off_c, 1, 62, 0
2, 11280, Note_on_c, 1, 59, 127
2, 11320, Note_off_c, 1, 80, 0
2, 11360, Note_off_c, 1, 59, 0
2, 11400, Note_on_c, 1, 56, 127
2, 11400, Note_on_c, 1, 83, 127
2, 11520, Note_off_c, 1, 56, 0
2, 11560, Note_on_c, 1, 59, 127
2, 11640, Note_off_c, 1, 83, 0
2, 11680, Note_off_c, 1, 59, 0
2, 11720, Note_on_c, 1, 52, 127
2, 11720, Note_on_c, 1, 80, 127
2, 11840, Note_off_c, 1, 52, 0
2, 11880, Note_on_c, 1, 62, 127
2, 11920, Note_off_c, 1, 80, 0
2, 11960, Note_off_c, 1, 62, 0
2, 12000, Note_on_c, 1, 61, 127
2, 12000, Note_on_c, 1, 76, 127
2, 12120, Note_off_c, 1, 61, 0
2, 12160, Note_on_c, 1, 59, 127
2, 12240, Note_off_c, 1, 76, 0
2, 12280, Note_off_c, 1, 59, 0
2, 12320, Note_on_c, 1, 61, 127
2, 12320, Note_on_c, 1, 81, 127
2, 12440, Note_off_c, 1, 81, 0
2, 12480, Note_on_c, 1, 79, 127
2, 12560, Note_off_c, 1, 61, 0
2, 12560, Note_off_c, 1, 79, 0
2, 12600, Note_on_c, 1, 57, 127
2, 12600, Note_on_c, 1, 76, 127
2, 12720, Note_off_c, 1, 76, 0
2, 12760, Note_on_c, 1, 73, 127
2, 12880, Note_off_c, 1, 57, 0
2, 12880, Note_off_c, 1, 73, 0
2, 12920, Note_on_c, 1, 61, 127
2, 12920, Note_on_c, 1, 79, 127
2, 13080, Note_on_c, 1, 76, 127
2, 13120, Note_off_c, 1, 79, 0
2, 13160, Note_off_c, 1, 61, 0
2, 13160, Note_off_c, 1, 76, 0
2, 13200, Note_on_c, 1, 64, 127
2, 13200, Note_on_c, 1, 73, 127
2, 13320, Note_off_c, 1, 73, 0
2, 13360, Note_on_c, 1, 76, 127
2, 13480, Note_off_c, 1, 64, 0
2, 13480, Note_off_c, 1, 76, 0
2, 13520, Note_on_c, 1, 61, 127
2, 13520, Note_on_c, 1, 69, 127
2, 13680, Note_on_c, 1, 79, 127
2, 13720, Note_off_c, 1, 69, 0
2, 13760, Note_off_c, 1, 61, 0
2, 13760, Note_off_c, 1, 79, 0
2, 13800, Note_on_c, 1, 57, 127
2, 13800, Note_on_c, 1, 78, 127
2, 13920, Note_off_c, 1, 78, 0
2, 13960, Note_on_c, 1, 76, 127
2, 14080, Note_off_c, 1, 57, 0
2, 14080, Note_off_c, 1, 76, 0
2, 14120, Note_on_c, 1, 62, 127
2, 14120, Note_on_c, 1, 78, 127
2, 14240, Note_off_c, 1, 78, 0
2, 14280, Note_on_c, 1, 76, 127
2, 14360, Note_off_c, 1, 76, 0
2, 14400, Note_on_c, 1, 57, 127
2, 14400, Note_on_c, 1, 74, 127
2, 14520, Note_off_c, 1, 74, 0
2, 14560, Note_on_c, 1, 73, 127
2, 14680, Note_off_c, 1, 57, 0
2, 14680, Note_off_c, 1, 73, 0
2, 14720, Note_on_c, 1, 50, 127
2, 14720, Note_on_c, 1, 71, 127
2, 14840, Note_off_c, 1, 71, 0
2, 14880, Note_on_c, 1, 74, 127
2, 14960, Note_off_c, 1, 50, 0
2, 14960, Note_off_c, 1, 62, 0
2, 14960, Note_off_c, 1, 74, 0
2, 15000, Note_on_c, 1, 62, 127
2, 15000, Note_on_c, 1, 76, 127
2, 15120, Note_off_c, 1, 76, 0
2, 15160, Note_on_c, 1, 80, 127
2, 15280, Note_off_c, 1, 62, 0
2, 15280, Note_off_c, 1, 80, 0
2, 15320, Note_on_c, 1, 61, 127
2, 15320, Note_on_c, 1, 81, 127
2, 15440, Note_off_c, 1, 61, 0
2, 15480, Note_on_c, 1, 57, 127
2, 15480, Note_on_c, 1, 73, 127
2, 15520, Note_off_c, 1, 81, 0
2, 15560, Note_off_c, 1, 57, 0
2, 15560, Note_off_c, 1, 73, 0
2, 15600, Note_on_c, 1, 59, 127
2, 15600, Note_on_c, 1, 74, 127
2, 15720, Note_off_c, 1, 59, 0
2, 15720, Note_off_c, 1, 74, 0
2, 15760, Note_on_c, 1, 56, 127
2, 15760, Note_on_c, 1, 71, 127
2, 15880, Note_off_c, 1, 56, 0
2, 15880, Note_off_c, 1, 71, 0
2, 15920, Note_on_c, 1, 57, 127
2, 15920, Note_on_c, 1, 73, 127
2, 16040, Note_off_c, 1, 73, 0
2, 16080, Note_on_c, 1, 76, 127
2, 16160, Note_off_c, 1, 57, 0
2, 16160, Note_off_c, 1, 76, 0
2, 16200, Note_on_c, 1, 55, 127
2, 16200, Note_on_c, 1, 78, 127
2, 16320, Note_off_c, 1, 78, 0
2, 16360, Note_on_c, 1, 79, 127
2, 16480, Note_off_c, 1, 55, 0
2, 16480, Note_off_c, 1, 79, 0
2, 16520, Note_on_c, 1, 54, 127
2, 16520, Note_on_c, 1, 81, 127
2, 16680, Note_on_c, 1, 71, 127
2, 16760, Note_off_c, 1, 54, 0
2, 16760, Note_off_c, 1, 71, 0
2, 16800, Note_on_c, 1, 52, 127
2, 16800, Note_on_c, 1, 72, 127
2, 16800, Note_off_c, 1, 81, 0
2, 16920, Note_off_c, 1, 72, 0
2, 16960, Note_on_c, 1, 69, 127
2, 17080, Note_off_c, 1, 52, 0
2, 17080, Note_off_c, 1, 69, 0
2, 17120, Note_on_c, 1, 54, 127
2, 17120, Note_on_c, 1, 81, 127
2, 17280, Note_on_c, 1, 71, 127
2, 17360, Note_off_c, 1, 54, 0
2, 17360, Note_off_c, 1, 71, 0
2, 17360, Note_off_c, 1, 81, 0
2, 17400, Note_on_c, 1, 50, 127
2, 17400, Note_on_c, 1, 72, 127
2, 17520, Note_off_c, 1, 72, 0
2, 17560, Note_on_c, 1, 69, 127
2, 17680, Note_off_c, 1, 50, 0
2, 17680, Note_off_c, 1, 69, 0
2, 17720, Note_on_c, 1, 55, 127
2, 17720, Note_on_c, 1, 71, 127
2, 17840, Note_off_c, 1, 71, 0
2, 17880, Note_on_c, 1, 74, 127
2, 17960, Note_off_c, 1, 55, 0
2, 17960, Note_off_c, 1, 74, 0
2, 18000, Note_on_c, 1, 54, 127
2, 18000, Note_on_c, 1, 76, 127
2, 18120, Note_off_c, 1, 76, 0
2, 18160, Note_on_c, 1, 78, 127
2, 18280, Note_off_c, 1, 54, 0
2, 18280, Note_off_c, 1, 78, 0
2, 18320, Note_on_c, 1, 52, 127
2, 18320, Note_on_c, 1, 79, 127
2, 18480, Note_on_c, 1, 69, 127
2, 18560, Note_off_c, 1, 52, 0
2, 18560, Note_off_c, 1, 69, 0
2, 18600, Note_on_c, 1, 50, 127
2, 18600, Note_on_c, 1, 71, 127
2, 18600, Note_off_c, 1, 79, 0
2, 18720, Note_off_c, 1, 71, 0
2, 18760, Note_on_c, 1, 67, 127
2, 18880, Note_off_c, 1, 50, 0
2, 18920, Note_on_c, 1, 52, 127
2, 18920, Note_off_c, 1, 67, 0
2, 18920, Note_on_c, 1, 79, 127
2, 19080, Note_on_c, 1, 69, 127
2, 19160, Note_off_c, 1, 52, 0
2, 19160, Note_off_c, 1, 69, 0
2, 19160, Note_off_c, 1, 79, 0
2, 19200, Note_on_c, 1, 49, 127
2, 19200, Note_on_c, 1, 71, 127
2, 19320, Note_off_c, 1, 71, 0
2, 19360, Note_on_c, 1, 67, 127
2, 19480, Note_off_c, 1, 49, 0
2, 19480, Note_off_c, 1, 67, 0
2, 19520, Note_on_c, 1, 54, 127
2, 19520, Note_on_c, 1, 69, 127
2, 19640, Note_off_c, 1, 69, 0
2, 19680, Note_on_c, 1, 66, 127
2, 19760, Note_off_c, 1, 54, 0
2, 19760, Note_off_c, 1, 66, 0
2, 19800, Note_on_c, 1, 52, 127
2, 19800, Note_on_c, 1, 69, 127
2, 19920, Note_off_c, 1, 69, 0
2, 19960, Note_on_c, 1, 73, 127
2, 20080, Note_off_c, 1, 52, 0
2, 20080, Note_off_c, 1, 73, 0
2, 20120, Note_on_c, 1, 51, 127
2, 20120, Note_on_c, 1, 78, 127
2, 20280, Note_on_c, 1, 67, 127
2, 20360, Note_off_c, 1, 51, 0
2, 20360, Note_off_c, 1, 67, 0
2, 20360, Note_off_c, 1, 78, 0
2, 20400, Note_on_c, 1, 49, 127
2, 20400, Note_on_c, 1, 69, 127
2, 20520, Note_off_c, 1, 69, 0
2, 20560, Note_on_c, 1, 66, 127
2, 20680, Note_off_c, 1, 49, 0
2, 20720, Note_on_c, 1, 51, 127
2, 20720, Note_on_c, 1, 78, 127
2, 20760, Note_off_c, 1, 66, 0
2, 20880, Note_on_c, 1, 67, 127
2, 20920, Note_off_c, 1, 78, 0
2, 20960, Note_off_c, 1, 51, 0
2, 20960, Note_off_c, 1, 67, 0
2, 21000, Note_on_c, 1, 47, 127
2, 21000, Note_on_c, 1, 69, 127
2, 21120, Note_off_c, 1, 69, 0
2, 21160, Note_on_c, 1, 66, 127
2, 21280, Note_off_c, 1, 47, 0
2, 21280, Note_off_c, 1, 66, 0
2, 21320, Note_on_c, 1, 52, 127
2, 21320, Note_on_c, 1, 67, 127
2, 21440, Note_off_c, 1, 67, 0
2, 21480, Note_on_c, 1, 64, 127
2, 21560, Note_off_c, 1, 52, 0
2, 21560, Note_off_c, 1, 64, 0
2, 21600, Note_on_c, 1, 50, 127
2, 21600, Note_on_c, 1, 67, 127
2, 21720, Note_off_c, 1, 67, 0
2, 21760, Note_on_c, 1, 71, 127
2, 21880, Note_off_c, 1, 50, 0
2, 21880, Note_off_c, 1, 71, 0
2, 21920, Note_on_c, 1, 49, 127
2, 21920, Note_on_c, 1, 76, 127
2, 22080, Note_on_c, 1, 66, 127
2, 22120, Note_off_c, 1, 76, 0
2, 22160, Note_off_c, 1, 49, 0
2, 22160, Note_off_c, 1, 66, 0
2, 22200, Note_on_c, 1, 47, 127
2, 22200, Note_on_c, 1, 67, 127
2, 22320, Note_off_c, 1, 67, 0
2, 22360, Note_on_c, 1, 64, 127
2, 22480, Note_off_c, 1, 47, 0
2, 22520, Note_on_c, 1, 49, 127
2, 22520, Note_on_c, 1, 76, 127
2, 22640, Note_off_c, 1, 64, 0
2, 22680, Note_on_c, 1, 66, 127
2, 22680, Note_off_c, 1, 76, 0
2, 22760, Note_off_c, 1, 49, 0
2, 22760, Note_off_c, 1, 66, 0
2, 22800, Note_on_c, 1, 45, 127
2, 22800, Note_on_c, 1, 67, 127
2, 22920, Note_off_c, 1, 67, 0
2, 22960, Note_on_c, 1, 64, 127
2, 23080, Note_off_c, 1, 45, 0
2, 23080, Note_off_c, 1, 64, 0
2, 23120, Note_on_c, 1, 50, 127
2, 23120, Note_on_c, 1, 66, 127
2, 23280, Note_on_c, 1, 64, 127
2, 23360, Note_off_c, 1, 50, 0
2, 23360, Note_off_c, 1, 64, 0
2, 23400, Note_on_c, 1, 45, 127
2, 23400, Note_on_c, 1, 62, 127
2, 23520, Note_off_c, 1, 62, 0
2, 23560, Note_on_c, 1, 61, 127
2, 23680, Note_off_c, 1, 45, 0
2, 23680, Note_off_c, 1, 61, 0
2, 23680, Note_off_c, 1, 66, 0
2, 23720, Note_on_c, 1, 38, 127
2, 23720, Note_on_c, 1, 62, 127
2, 23880, Note_on_c, 1, 58, 127
2, 23960, Note_off_c, 1, 38, 0
2, 23960, Note_off_c, 1, 58, 0
2, 23960, Note_off_c, 1, 62, 0
2, 24000, Note_on_c, 1, 50, 127
2, 24000, Note_on_c, 1, 59, 127
2, 24160, Note_on_c, 1, 66, 127
2, 24200, Note_off_c, 1, 59, 0
2, 24280, Note_off_c, 1, 50, 0
2, 24280, Note_off_c, 1, 66, 0
2, 24320, Note_on_c, 1, 49, 127
2, 24320, Note_on_c, 1, 64, 127
2, 24440, Note_off_c, 1, 49, 0
2, 24440, Note_off_c, 1, 64, 0
2, 24480, Note_on_c, 1, 46, 127
2, 24480, Note_on_c, 1, 61, 127
2, 24560, Note_off_c, 1, 46, 0
2, 24560, Note_off_c, 1, 61, 0
2, 24600, Note_on_c, 1, 47, 127
2, 24600, Note_on_c, 1, 62, 127
2, 24720, Note_off_c, 1, 47, 0
2, 24720, Note_off_c, 1, 62, 0
2, 24760, Note_on_c, 1, 44, 127
2, 24760, Note_on_c, 1, 59, 127
2, 24880, Note_off_c, 1, 44, 0
2, 24880, Note_off_c, 1, 59, 0
2, 24920, Note_on_c, 1, 46, 127
2, 24920, Note_on_c, 1, 61, 127
2, 25080, Note_off_c, 1, 61, 0
2, 25080, Note_on_c, 1, 64, 127
2, 25160, Note_off_c, 1, 46, 0
2, 25160, Note_off_c, 1, 64, 0
2, 25200, Note_on_c, 1, 42, 127
2, 25200, Note_on_c, 1, 61, 127
2, 25320, Note_off_c, 1, 61, 0
2, 25360, Note_on_c, 1, 58, 127
2, 25480, Note_off_c, 1, 42, 0
2, 25480, Note_off_c, 1, 58, 0
2, 25520, Note_on_c, 1, 46, 127
2, 25520, Note_on_c, 1, 64, 127
2, 25640, Note_off_c, 1, 64, 0
2, 25680, Note_on_c, 1, 61, 127
2, 25760, Note_off_c, 1, 46, 0
2, 25760, Note_off_c, 1, 61, 0
2, 25800, Note_on_c, 1, 49, 127
2, 25800, Note_on_c, 1, 58, 127
2, 25920, Note_off_c, 1, 58, 0
2, 25960, Note_on_c, 1, 61, 127
2, 26080, Note_off_c, 1, 49, 0
2, 26080, Note_off_c, 1, 61, 0
2, 26120, Note_on_c, 1, 46, 127
2, 26120, Note_on_c, 1, 54, 127
2, 26280, Note_off_c, 1, 54, 0
2, 26280, Note_on_c, 1, 64, 127
2, 26360, Note_off_c, 1, 46, 0
2, 26360, Note_off_c, 1, 64, 0
2, 26400, Note_on_c, 1, 42, 127
2, 26400, Note_on_c, 1, 62, 127
2, 26520, Note_off_c, 1, 62, 0
2, 26560, Note_on_c, 1, 61, 127
2, 26680, Note_off_c, 1, 42, 0
2, 26680, Note_off_c, 1, 61, 0
2, 26720, Note_on_c, 1, 47, 127
2, 26720, Note_on_c, 1, 62, 127
2, 26880, Note_on_c, 1, 59, 127
2, 26920, Note_off_c, 1, 62, 0
2, 26960, Note_off_c, 1, 47, 0
2, 26960, Note_off_c, 1, 59, 0
2, 27000, Note_on_c, 1, 47, 127
2, 27000, Note_on_c, 1, 63, 127
2, 27120, Note_off_c, 1, 63, 0
2, 27160, Note_on_c, 1, 66, 127
2, 27280, Note_off_c, 1, 47, 0
2, 27280, Note_off_c, 1, 66, 0
2, 27320, Note_on_c, 1, 51, 127
2, 27320, Note_on_c, 1, 69, 127
2, 27440, Note_off_c, 1, 69, 0
2, 27480, Note_on_c, 1, 66, 127
2, 27560, Note_off_c, 1, 51, 0
2, 27560, Note_off_c, 1, 66, 0
2, 27600, Note_on_c, 1, 54, 127
2, 27600, Note_on_c, 1, 63, 127
2, 27720, Note_off_c, 1, 63, 0
2, 27760, Note_on_c, 1, 66, 127
2, 27880, Note_off_c, 1, 54, 0
2, 27880, Note_off_c, 1, 66, 0
2, 27920, Note_on_c, 1, 51, 127
2, 27920, Note_on_c, 1, 59, 127
2, 28080, Note_off_c, 1, 59, 0
2, 28080, Note_on_c, 1, 69, 127
2, 28160, Note_off_c, 1, 51, 0
2, 28160, Note_off_c, 1, 69, 0
2, 28200, Note_on_c, 1, 47, 127
2, 28200, Note_on_c, 1, 67, 127
2, 28320, Note_off_c, 1, 67, 0
2, 28360, Note_on_c, 1, 66, 127
2, 28480, Note_off_c, 1, 47, 0
2, 28480, Note_off_c, 1, 66, 0
2, 28520, Note_on_c, 1, 52, 127
2, 28520, Note_on_c, 1, 67, 127
2, 28680, Note_on_c, 1, 59, 127
2, 28720, Note_off_c, 1, 67, 0
2, 28760, Note_off_c, 1, 52, 0
2, 28760, Note_off_c, 1, 59, 0
2, 28800, Note_on_c, 1, 55, 127
2, 28800, Note_on_c, 1, 64, 127
2, 28920, Note_off_c, 1, 55, 0
2, 28920, Note_off_c, 1, 64, 0
2, 28960, Note_on_c, 1, 54, 127
2, 28960, Note_on_c, 1, 67, 127
2, 29080, Note_off_c, 1, 54, 0
2, 29080, Note_off_c, 1, 67, 0
2, 29120, Note_on_c, 1, 53, 127
2, 29120, Note_on_c, 1, 71, 127
2, 29240, Note_off_c, 1, 71, 0
2, 29280, Note_on_c, 1, 68, 127
2, 29360, Note_off_c, 1, 53, 0
2, 29360, Note_off_c, 1, 68, 0
2, 29400, Note_on_c, 1, 56, 127
2, 29400, Note_on_c, 1, 65, 127
2, 29520, Note_off_c, 1, 65, 0
2, 29560, Note_on_c, 1, 68, 127
2, 29680, Note_off_c, 1, 56, 0
2, 29680, Note_off_c, 1, 68, 0
2, 29720, Note_on_c, 1, 53, 127
2, 29720, Note_on_c, 1, 61, 127
2, 29880, Note_off_c, 1, 61, 0
2, 29880, Note_on_c, 1, 71, 127
2, 29960, Note_off_c, 1, 53, 0
2, 29960, Note_off_c, 1, 71, 0
2, 30000, Note_on_c, 1, 49, 127
2, 30000, Note_on_c, 1, 70, 127
2, 30120, Note_off_c, 1, 70, 0
2, 30160, Note_on_c, 1, 68, 127
2, 30280, Note_off_c, 1, 49, 0
2, 30280, Note_off_c, 1, 68, 0
2, 30320, Note_on_c, 1, 42, 127
2, 30320, Note_on_c, 1, 70, 127
2, 30440, Note_off_c, 1, 70, 0
2, 30480, Note_on_c, 1, 66, 127
2, 30560, Note_off_c, 1, 42, 0
2, 30560, Note_off_c, 1, 66, 0
2, 30600, Note_on_c, 1, 54, 127
2, 30600, Note_on_c, 1, 70, 127
2, 30720, Note_off_c, 1, 70, 0
2, 30760, Note_on_c, 1, 73, 127
2, 30880, Note_off_c, 1, 54, 0
2, 30880, Note_off_c, 1, 73, 0
2, 30920, Note_on_c, 1, 58, 127
2, 30920, Note_on_c, 1, 76, 127
2, 31080, Note_on_c, 1, 73, 127
2, 31080, Note_off_c, 1, 76, 0
2, 31160, Note_off_c, 1, 58, 0
2, 31160, Note_off_c, 1, 73, 0
2, 31200, Note_on_c, 1, 61, 127
2, 31200, Note_on_c, 1, 70, 127
2, 31320, Note_off_c, 1, 70, 0
2, 31360, Note_on_c, 1, 73, 127
2, 31480, Note_off_c, 1, 61, 0
2, 31480, Note_off_c, 1, 73, 0
2, 31520, Note_on_c, 1, 58, 127
2, 31520, Note_on_c, 1, 66, 127
2, 31680, Note_off_c, 1, 66, 0
2, 31680, Note_on_c, 1, 76, 127
2, 31760, Note_off_c, 1, 58, 0
2, 31760, Note_off_c, 1, 76, 0
2, 31800, Note_on_c, 1, 54, 127
2, 31800, Note_on_c, 1, 74, 127
2, 31920, Note_off_c, 1, 74, 0
2, 31960, Note_on_c, 1, 73, 127
2, 32080, Note_off_c, 1, 54, 0
2, 32080, Note_off_c, 1, 73, 0
2, 32120, Note_on_c, 1, 59, 127
2, 32120, Note_on_c, 1, 74, 127
2, 32240, Note_off_c, 1, 59, 0
2, 32280, Note_on_c, 1, 64, 127
2, 32320, Note_off_c, 1, 74, 0
2, 32360, Note_off_c, 1, 64, 0
2, 32400, Note_on_c, 1, 62, 127
2, 32400, Note_on_c, 1, 78, 127
2, 32520, Note_off_c, 1, 62, 0
2, 32560, Note_on_c, 1, 61, 127
2, 32640, Note_off_c, 1, 78, 0
2, 32680, Note_off_c, 1, 61, 0
2, 32720, Note_on_c, 1, 62, 127
2, 32720, Note_on_c, 1, 71, 127
2, 32840, Note_off_c, 1, 62, 0
2, 32880, Note_on_c, 1, 61, 127
2, 32920, Note_off_c, 1, 71, 0
2, 32960, Note_off_c, 1, 61, 0
2, 33000, Note_on_c, 1, 62, 127
2, 33000, Note_on_c, 1, 83, 127
2, 33120, Note_off_c, 1, 62, 0
2, 33160, Note_on_c, 1, 66, 127
2, 33240, Note_off_c, 1, 83, 0
2, 33280, Note_off_c, 1, 66, 0
2, 33320, Note_on_c, 1, 63, 127
2, 33320, Note_on_c, 1, 81, 127
2, 33440, Note_off_c, 1, 63, 0
2, 33440, Note_off_c, 1, 81, 0
2, 33480, Note_on_c, 1, 66, 127
2, 33480, Note_on_c, 1, 78, 127
2, 33560, Note_off_c, 1, 66, 0
2, 33560, Note_off_c, 1, 78, 0
2, 33600, Note_on_c, 1, 64, 127
2, 33600, Note_on_c, 1, 79, 127
2, 33720, Note_off_c, 1, 64, 0
2, 33720, Note_off_c, 1, 79, 0
2, 33760, Note_on_c, 1, 67, 127
2, 33760, Note_on_c, 1, 76, 127
2, 33880, Note_off_c, 1, 67, 0
2, 33880, Note_off_c, 1, 76, 0
2, 33920, Note_on_c, 1, 58, 127
2, 33920, Note_on_c, 1, 85, 127
2, 34040, Note_off_c, 1, 85, 0
2, 34080, Note_on_c, 1, 83, 127
2, 34160, Note_off_c, 1, 58, 0
2, 34160, Note_off_c, 1, 83, 0
2, 34200, Note_on_c, 1, 61, 127
2, 34200, Note_on_c, 1, 82, 127
2, 34320, Note_off_c, 1, 82, 0
2, 34360, Note_on_c, 1, 80, 127
2, 34480, Note_off_c, 1, 61, 0
2, 34480, Note_off_c, 1, 80, 0
2, 34520, Note_on_c, 1, 54, 127
2, 34520, Note_on_c, 1, 82, 127
2, 34640, Note_off_c, 1, 82, 0
2, 34680, Note_on_c, 1, 80, 127
2, 34760, Note_off_c, 1, 54, 0
2, 34760, Note_off_c, 1, 80, 0
2, 34800, Note_on_c, 1, 66, 127
2, 34800, Note_on_c, 1, 82, 127
2, 34920, Note_off_c, 1, 82, 0
2, 34960, Note_on_c, 1, 85, 127
2, 35080, Note_off_c, 1, 66, 0
2, 35080, Note_off_c, 1, 85, 0
2, 35120, Note_on_c, 1, 64, 127
2, 35120, Note_on_c, 1, 78, 127
2, 35240, Note_off_c, 1, 64, 0
2, 35240, Note_off_c, 1, 78, 0
2, 35280, Note_on_c, 1, 61, 127
2, 35280, Note_on_c, 1, 82, 127
2, 35360, Note_off_c, 1, 61, 0
2, 35360, Note_off_c, 1, 82, 0
2, 35400, Note_on_c, 1, 62, 127
2, 35400, Note_on_c, 1, 83, 127
2, 35520, Note_off_c, 1, 62, 0
2, 35520, Note_off_c, 1, 83, 0
2, 35560, Note_on_c, 1, 59, 127
2, 35560, Note_on_c, 1, 74, 127
2, 35680, Note_off_c, 1, 59, 0
2, 35680, Note_off_c, 1, 74, 0
2, 35720, Note_on_c, 1, 61, 127
2, 35720, Note_on_c, 1, 76, 127
2, 35880, Note_on_c, 1, 79, 127
2, 35960, Note_off_c, 1, 61, 0
2, 35960, Note_off_c, 1, 76, 0
2, 35960, Note_off_c, 1, 79, 0
2, 36000, Note_on_c, 1, 59, 127
2, 36000, Note_on_c, 1, 74, 127
2, 36160, Note_on_c, 1, 79, 127
2, 36200, Note_off_c, 1, 74, 0
2, 36280, Note_off_c, 1, 59, 0
2, 36280, Note_off_c, 1, 79, 0
2, 36320, Note_on_c, 1, 58, 127
2, 36320, Note_on_c, 1, 73, 127
2, 36480, Note_off_c, 1, 73, 0
2, 36480, Note_on_c, 1, 79, 127
2, 36560, Note_off_c, 1, 58, 0
2, 36600, Note_on_c, 1, 59, 127
2, 36600, Note_on_c, 1, 74, 127
2, 36600, Note_off_c, 1, 79, 0
2, 36760, Note_off_c, 1, 74, 0
2, 36760, Note_on_c, 1, 79, 127
2, 36880, Note_off_c, 1, 59, 0
2, 36920, Note_on_c, 1, 61, 127
2, 36920, Note_on_c, 1, 73, 127
2, 36920, Note_off_c, 1, 79, 0
2, 37080, Note_off_c, 1, 73, 0
2, 37080, Note_on_c, 1, 79, 127
2, 37160, Note_off_c, 1, 61, 0
2, 37200, Note_on_c, 1, 62, 127
2, 37200, Note_on_c, 1, 71, 127
2, 37240, Note_off_c, 1, 79, 0
2, 37360, Note_off_c, 1, 71, 0
2, 37360, Note_on_c, 1, 79, 127
2, 37480, Note_off_c, 1, 62, 0
2, 37520, Note_on_c, 1, 64, 127
2, 37520, Note_on_c, 1, 70, 127
2, 37560, Note_off_c, 1, 79, 0
2, 37680, Note_on_c, 1, 73, 127
2, 37760, Note_off_c, 1, 64, 0
2, 37760, Note_off_c, 1, 70, 0
2, 37760, Note_off_c, 1, 73, 0
2, 37800, Note_on_c, 1, 52, 127
2, 37800, Note_on_c, 1, 78, 127
2, 37920, Note_off_c, 1, 78, 0
2, 37960, Note_on_c, 1, 66, 127
2, 38080, Note_off_c, 1, 52, 0
2, 38080, Note_off_c, 1, 66, 0
2, 38120, Note_on_c, 1, 50, 127
2, 38120, Note_on_c, 1, 71, 127
2, 38280, Note_on_c, 1, 74, 127
2, 38320, Note_off_c, 1, 71, 0
2, 38360, Note_off_c, 1, 50, 0
2, 38360, Note_off_c, 1, 74, 0
2, 38400, Note_on_c, 1, 62, 127
2, 38400, Note_on_c, 1, 78, 127
2, 38520, Note_off_c, 1, 78, 0
2, 38560, Note_on_c, 1, 66, 127
2, 38680, Note_off_c, 1, 62, 0
2, 38680, Note_off_c, 1, 66, 0
2, 38720, Note_on_c, 1, 61, 127
2, 38720, Note_on_c, 1, 70, 127
2, 38880, Note_on_c, 1, 73, 127
2, 38920, Note_off_c, 1, 70, 0
2, 38960, Note_off_c, 1, 61, 0
2, 38960, Note_off_c, 1, 73, 0
2, 39000, Note_on_c, 1, 54, 127
2, 39000, Note_on_c, 1, 76, 127
2, 39120, Note_off_c, 1, 76, 0
2, 39160, Note_on_c, 1, 66, 127
2, 39280, Note_off_c, 1, 54, 0
2, 39280, Note_off_c, 1, 66, 0
2, 39320, Note_on_c, 1, 47, 127
2, 39320, Note_on_c, 1, 74, 127
2, 39440, Note_off_c, 1, 74, 0
2, 39480, Note_on_c, 1, 73, 127
2, 39560, Note_off_c, 1, 47, 0
2, 39560, Note_off_c, 1, 73, 0
2, 39600, Note_on_c, 1, 59, 127
2, 39600, Note_on_c, 1, 71, 127
2, 39720, Note_off_c, 1, 71, 0
2, 39760, Note_on_c, 1, 69, 127
2, 39880, Note_off_c, 1, 69, 0
2, 39920, Note_on_c, 1, 67, 127
2, 40040, Note_off_c, 1, 59, 0
2, 40040, Note_off_c, 1, 67, 0
2, 40080, Note_on_c, 1, 57, 127
2, 40080, Note_on_c, 1, 66, 127
2, 40160, Note_off_c, 1, 57, 0
2, 40160, Note_off_c, 1, 66, 0
2, 40200, Note_on_c, 1, 55, 127
2, 40200, Note_on_c, 1, 64, 127
2, 40320, Note_off_c, 1, 55, 0
2, 40320, Note_off_c, 1, 64, 0
2, 40360, Note_on_c, 1, 54, 127
2, 40360, Note_on_c, 1, 66, 127
2, 40480, Note_off_c, 1, 54, 0
2, 40480, Note_off_c, 1, 66, 0
2, 40520, Note_on_c, 1, 52, 127
2, 40520, Note_on_c, 1, 67, 127
2, 40640, Note_off_c, 1, 52, 0
2, 40640, Note_off_c, 1, 67, 0
2, 40680, Note_on_c, 1, 50, 127
2, 40680, Note_on_c, 1, 66, 127
2, 40760, Note_off_c, 1, 50, 0
2, 40760, Note_off_c, 1, 66, 0
2, 40800, Note_on_c, 1, 52, 127
2, 40800, Note_on_c, 1, 67, 127
2, 40920, Note_off_c, 1, 52, 0
2, 40920, Note_off_c, 1, 67, 0
2, 40960, Note_on_c, 1, 40, 127
2, 40960, Note_on_c, 1, 74, 127
2, 41080, Note_off_c, 1, 40, 0
2, 41080, Note_off_c, 1, 74, 0
2, 41120, Note_on_c, 1, 45, 127
2, 41120, Note_on_c, 1, 73, 127
2, 41240, Note_off_c, 1, 73, 0
2, 41280, Note_on_c, 1, 71, 127
2, 41360, Note_off_c, 1, 45, 0
2, 41360, Note_off_c, 1, 71, 0
2, 41400, Note_on_c, 1, 57, 127
2, 41400, Note_on_c, 1, 69, 127
2, 41520, Note_off_c, 1, 69, 0
2, 41560, Note_on_c, 1, 67, 127
2, 41680, Note_off_c, 1, 67, 0
2, 41720, Note_on_c, 1, 66, 127
2, 41840, Note_off_c, 1, 57, 0
2, 41840, Note_off_c, 1, 66, 0
2, 41880, Note_on_c, 1, 55, 127
2, 41880, Note_on_c, 1, 64, 127
2, 41960, Note_off_c, 1, 55, 0
2, 41960, Note_off_c, 1, 64, 0
2, 42000, Note_on_c, 1, 54, 127
2, 42000, Note_on_c, 1, 62, 127
2, 42120, Note_off_c, 1, 54, 0
2, 42120, Note_off_c, 1, 62, 0
2, 42160, Note_on_c, 1, 52, 127
2, 42160, Note_on_c, 1, 64, 127
2, 42280, Note_off_c, 1, 52, 0
2, 42280, Note_off_c, 1, 64, 0
2, 42320, Note_on_c, 1, 50, 127
2, 42320, Note_on_c, 1, 66, 127
2, 42440, Note_off_c, 1, 50, 0
2, 42440, Note_off_c, 1, 66, 0
2, 42480, Note_on_c, 1, 48, 127
2, 42480, Note_on_c, 1, 64, 127
2, 42560, Note_off_c, 1, 48, 0
2, 42560, Note_off_c, 1, 64, 0
2, 42600, Note_on_c, 1, 50, 127
2, 42600, Note_on_c, 1, 66, 127
2, 42720, Note_off_c, 1, 50, 0
2, 42720, Note_off_c, 1, 66, 0
2, 42760, Note_on_c, 1, 38, 127
2, 42760, Note_on_c, 1, 72, 127
2, 42880, Note_off_c, 1, 38, 0
2, 42880, Note_off_c, 1, 72, 0
2, 42920, Note_on_c, 1, 43, 127
2, 42920, Note_on_c, 1, 71, 127
2, 43040, Note_off_c, 1, 71, 0
2, 43080, Note_on_c, 1, 69, 127
2, 43160, Note_off_c, 1, 43, 0
2, 43160, Note_off_c, 1, 69, 0
2, 43200, Note_on_c, 1, 47, 127
2, 43200, Note_on_c, 1, 67, 127
2, 43320, Note_off_c, 1, 67, 0
2, 43360, Note_on_c, 1, 66, 127
2, 43480, Note_off_c, 1, 47, 0
2, 43480, Note_off_c, 1, 66, 0
2, 43520, Note_on_c, 1, 40, 127
2, 43520, Note_on_c, 1, 67, 127
2, 43640, Note_off_c, 1, 67, 0
2, 43680, Note_on_c, 1, 66, 127
2, 43760, Note_off_c, 1, 40, 0
2, 43760, Note_off_c, 1, 66, 0
2, 43800, Note_on_c, 1, 52, 127
2, 43800, Note_on_c, 1, 67, 127
2, 43920, Note_off_c, 1, 52, 0
2, 43920, Note_off_c, 1, 67, 0
2, 43960, Note_on_c, 1, 50, 127
2, 43960, Note_on_c, 1, 71, 127
2, 44080, Note_off_c, 1, 50, 0
2, 44080, Note_off_c, 1, 71, 0
2, 44120, Note_on_c, 1, 49, 127
2, 44120, Note_on_c, 1, 70, 127
2, 44240, Note_off_c, 1, 49, 0
2, 44240, Note_off_c, 1, 70, 0
2, 44280, Note_on_c, 1, 46, 127
2, 44280, Note_on_c, 1, 73, 127
2, 44360, Note_off_c, 1, 46, 0
2, 44360, Note_off_c, 1, 73, 0
2, 44400, Note_on_c, 1, 47, 127
2, 44400, Note_on_c, 1, 71, 127
2, 44520, Note_off_c, 1, 47, 0
2, 44520, Note_off_c, 1, 71, 0
2, 44560, Note_on_c, 1, 44, 127
2, 44560, Note_on_c, 1, 74, 127
2, 44680, Note_off_c, 1, 44, 0
2, 44680, Note_off_c, 1, 74, 0
2, 44720, Note_on_c, 1, 46, 127
2, 44720, Note_on_c, 1, 73, 127
2, 44840, Note_off_c, 1, 73, 0
2, 44880, Note_on_c, 1, 74, 127
2, 44960, Note_off_c, 1, 74, 0
2, 45000, Note_on_c, 1, 76, 127
2, 45120, Note_off_c, 1, 76, 0
2, 45160, Note_on_c, 1, 73, 127
2, 45280, Note_off_c, 1, 73, 0
2, 45320, Note_on_c, 1, 70, 127
2, 45440, Note_off_c, 1, 46, 0
2, 45440, Note_off_c, 1, 70, 0
2, 45480, Note_on_c, 1, 66, 127
2, 45560, Note_off_c, 1, 66, 0
2, 45600, Note_on_c, 1, 49, 127
2, 45600, Note_on_c, 1, 67, 127
2, 45720, Note_off_c, 1, 67, 0
2, 45760, Note_on_c, 1, 64, 127
2, 45880, Note_off_c, 1, 49, 0
2, 45880, Note_off_c, 1, 64, 0
2, 45920, Note_on_c, 1, 46, 127
2, 45920, Note_on_c, 1, 66, 127
2, 46040, Note_off_c, 1, 66, 0
2, 46080, Note_on_c, 1, 62, 127
2, 46160, Note_off_c, 1, 46, 0
2, 46160, Note_off_c, 1, 62, 0
2, 46200, Note_on_c, 1, 42, 127
2, 46200, Note_on_c, 1, 64, 127
2, 46320, Note_off_c, 1, 64, 0
2, 46360, Note_on_c, 1, 61, 127
2, 46480, Note_off_c, 1, 42, 0
2, 46480, Note_off_c, 1, 61, 0
2, 46520, Note_on_c, 1, 47, 127
2, 46520, Note_on_c, 1, 62, 127
2, 46640, Note_off_c, 1, 62, 0
2, 46680, Note_on_c, 1, 66, 127
2, 46760, Note_off_c, 1, 66, 0
2, 46800, Note_on_c, 1, 71, 127
2, 46920, Note_off_c, 1, 71, 0
2, 46960, Note_on_c, 1, 70, 127
2, 47080, Note_off_c, 1, 70, 0
2, 47120, Note_on_c, 1, 71, 127
2, 47240, Note_off_c, 1, 47, 0
2, 47240, Note_off_c, 1, 71, 0
2, 47280, Note_on_c, 1, 64, 127
2, 47360, Note_off_c, 1, 64, 0
2, 47400, Note_on_c, 1, 50, 127
2, 47400, Note_on_c, 1, 66, 127
2, 47520, Note_off_c, 1, 66, 0
2, 47560, Note_on_c, 1, 62, 127
2, 47680, Note_off_c, 1, 50, 0
2, 47680, Note_off_c, 1, 62, 0
2, 47720, Note_on_c, 1, 49, 127
2, 47720, Note_on_c, 1, 64, 127
2, 47840, Note_off_c, 1, 64, 0
2, 47880, Note_on_c, 1, 61, 127
2, 47960, Note_off_c, 1, 49, 0
2, 47960, Note_off_c, 1, 61, 0
2, 48000, Note_on_c, 1, 47, 127
2, 48000, Note_on_c, 1, 62, 127
2, 48120, Note_off_c, 1, 62, 0
2, 48160, Note_on_c, 1, 59, 127
2, 48280, Note_off_c, 1, 47, 0
2, 48280, Note_off_c, 1, 59, 0
2, 48320, Note_on_c, 1, 54, 127
2, 48320, Note_on_c, 1, 58, 127
2, 48440, Note_off_c, 1, 58, 0
2, 48480, Note_on_c, 1, 66, 127
2, 48560, Note_off_c, 1, 66, 0
2, 48600, Note_on_c, 1, 73, 127
2, 48720, Note_off_c, 1, 73, 0
2, 48760, Note_on_c, 1, 71, 127
2, 48880, Note_off_c, 1, 71, 0
2, 48920, Note_on_c, 1, 73, 127
2, 49040, Note_off_c, 1, 73, 0
2, 49080, Note_on_c, 1, 66, 127
2, 49160, Note_off_c, 1, 54, 0
2, 49160, Note_off_c, 1, 66, 0
2, 49200, Note_on_c, 1, 54, 127
2, 49200, Note_on_c, 1, 67, 127
2, 49320, Note_off_c, 1, 67, 0
2, 49360, Note_on_c, 1, 64, 127
2, 49480, Note_off_c, 1, 54, 0
2, 49480, Note_off_c, 1, 64, 0
2, 49520, Note_on_c, 1, 56, 127
2, 49520, Note_on_c, 1, 66, 127
2, 49640, Note_off_c, 1, 66, 0
2, 49680, Note_on_c, 1, 62, 127
2, 49760, Note_off_c, 1, 56, 0
2, 49760, Note_off_c, 1, 62, 0
2, 49800, Note_on_c, 1, 58, 127
2, 49800, Note_on_c, 1, 64, 127
2, 49920, Note_off_c, 1, 64, 0
2, 49960, Note_on_c, 1, 61, 127
2, 50080, Note_off_c, 1, 58, 0
2, 50080, Note_off_c, 1, 61, 0
2, 50120, Note_on_c, 1, 59, 127
2, 50120, Note_on_c, 1, 62, 127
2, 50240, Note_off_c, 1, 62, 0
2, 50280, Note_on_c, 1, 64, 127
2, 50360, Note_off_c, 1, 64, 0
2, 50400, Note_on_c, 1, 66, 127
2, 50520, Note_off_c, 1, 59, 0
2, 50520, Note_off_c, 1, 66, 0
2, 50560, Note_on_c, 1, 58, 127
2, 50560, Note_on_c, 1, 61, 127
2, 50680, Note_off_c, 1, 58, 0
2, 50680, Note_off_c, 1, 61, 0
2, 50720, Note_on_c, 1, 59, 127
2, 50720, Note_on_c, 1, 62, 127
2, 50840, Note_off_c, 1, 59, 0
2, 50880, Note_on_c, 1, 54, 127
2, 50960, Note_off_c, 1, 54, 0
2, 50960, Note_off_c, 1, 62, 0
2, 51000, Note_on_c, 1, 55, 127
2, 51000, Note_on_c, 1, 64, 127
2, 51120, Note_off_c, 1, 55, 0
2, 51160, Note_on_c, 1, 52, 127
2, 51280, Note_off_c, 1, 52, 0
2, 51280, Note_off_c, 1, 64, 0
2, 51320, Note_on_c, 1, 54, 127
2, 51320, Note_on_c, 1, 62, 127
2, 51440, Note_off_c, 1, 54, 0
2, 51480, Note_on_c, 1, 50, 127
2, 51560, Note_off_c, 1, 50, 0
2, 51560, Note_off_c, 1, 62, 0
2, 51600, Note_on_c, 1, 52, 127
2, 51600, Note_on_c, 1, 61, 127
2, 51720, Note_off_c, 1, 52, 0
2, 51760, Note_on_c, 1, 49, 127
2, 51880, Note_off_c, 1, 49, 0
2, 51880, Note_off_c, 1, 61, 0
2, 51920, Note_on_c, 1, 50, 127
2, 51920, Note_on_c, 1, 59, 127
2, 52040, Note_off_c, 1, 50, 0
2, 52040, Note_off_c, 1, 59, 0
2, 52080, Note_on_c, 1, 52, 127
2, 52080, Note_on_c, 1, 61, 127
2, 52160, Note_off_c, 1, 52, 0
2, 52160, Note_off_c, 1, 61, 0
2, 52200, Note_on_c, 1, 54, 127
2, 52200, Note_on_c, 1, 62, 127
2, 52320, Note_off_c, 1, 54, 0
2, 52320, Note_off_c, 1, 62, 0
2, 52360, Note_on_c, 1, 49, 127
2, 52360, Note_on_c, 1, 58, 127
2, 52480, Note_off_c, 1, 49, 0
2, 52480, Note_off_c, 1, 58, 0
2, 52520, Note_on_c, 1, 50, 127
2, 52520, Note_on_c, 1, 59, 127
2, 52640, Note_off_c, 1, 59, 0
2, 52680, Note_on_c, 1, 54, 127
2, 52760, Note_off_c, 1, 50, 0
2, 52760, Note_off_c, 1, 54, 0
2, 52800, Note_on_c, 1, 52, 127
2, 52800, Note_on_c, 1, 55, 127
2, 52960, Note_on_c, 1, 61, 127
2, 53000, Note_off_c, 1, 55, 0
2, 53080, Note_off_c, 1, 52, 0
2, 53080, Note_off_c, 1, 61, 0
2, 53120, Note_on_c, 1, 50, 127
2, 53120, Note_on_c, 1, 54, 127
2, 53280, Note_off_c, 1, 54, 0
2, 53280, Note_on_c, 1, 59, 127
2, 53360, Note_off_c, 1, 50, 0
2, 53400, Note_on_c, 1, 49, 127
2, 53400, Note_on_c, 1, 52, 127
2, 53400, Note_off_c, 1, 59, 0
2, 53560, Note_on_c, 1, 58, 127
2, 53600, Note_off_c, 1, 52, 0
2, 53680, Note_off_c, 1, 49, 0
2, 53680, Note_off_c, 1, 58, 0
2, 53720, Note_on_c, 1, 47, 127
2, 53720, Note_on_c, 1, 50, 127
2, 53880, Note_on_c, 1, 54, 127
2, 53960, Note_off_c, 1, 50, 0
2, 53960, Note_off_c, 1, 54, 0
2, 54000, Note_on_c, 1, 59, 127
2, 54120, Note_off_c, 1, 47, 0
2, 54160, Note_on_c, 1, 46, 127
2, 54160, Note_on_c, 1, 49, 127
2, 54280, Note_off_c, 1, 46, 0
2, 54280, Note_off_c, 1, 49, 0
2, 54320, Note_on_c, 1, 47, 127
2, 54320, Note_on_c, 1, 50, 127
2, 54400, Note_off_c, 1, 59, 0
2, 54440, Note_off_c, 1, 47, 0
2, 54480, Note_on_c, 1, 42, 127
2, 54560, Note_off_c, 1, 42, 0
2, 54560, Note_off_c, 1, 50, 0
2, 54600, Note_on_c, 1, 49, 127
2, 54600, Note_on_c, 1, 52, 127
2, 54600, Note_on_c, 1, 58, 127
2, 54720, Note_off_c, 1, 49, 0
2, 54760, Note_on_c, 1, 42, 127
2, 54840, Note_off_c, 1, 52, 0
2, 54840, Note_off_c, 1, 58, 0
2, 54880, Note_off_c, 1, 42, 0
2, 54920, Note_on_c, 1, 50, 127
2, 54920, Note_on_c, 1, 54, 127
2, 54920, Note_on_c, 1, 59, 127
2, 55040, Note_off_c, 1, 50, 0
2, 55040, Note_off_c, 1, 59, 0
2, 55080, Note_on_c, 1, 42, 127
2, 55080, Note_off_c, 1, 54, 0
2, 55080, Note_on_c, 1, 62, 127
2, 55160, Note_off_c, 1, 42, 0
2, 55160, Note_off_c, 1, 62, 0
2, 55200, Note_on_c, 1, 52, 127
2, 55200, Note_on_c, 1, 55, 127
2, 55200, Note_on_c, 1, 61, 127
2, 55320, Note_off_c, 1, 52, 0
2, 55320, Note_off_c, 1, 61, 0
2, 55360, Note_on_c, 1, 42, 127
2, 55360, Note_on_c, 1, 64, 127
2, 55400, Note_off_c, 1, 55, 0
2, 55480, Note_off_c, 1, 42, 0
2, 55480, Note_off_c, 1, 64, 0
2, 55520, Note_on_c, 1, 54, 127
2, 55520, Note_on_c, 1, 58, 127
2, 55640, Note_off_c, 1, 58, 0
2, 55680, Note_on_c, 1, 61, 127
2, 55760, Note_off_c, 1, 61, 0
2, 55800, Note_on_c, 1, 42, 127
2, 55800, Note_on_c, 1, 64, 127
2, 55920, Note_off_c, 1, 64, 0
2, 55960, Note_on_c, 1, 67, 127
2, 56080, Note_off_c, 1, 54, 0
2, 56080, Note_off_c, 1, 67, 0
2, 56120, Note_on_c, 1, 64, 127
2, 56240, Note_off_c, 1, 64, 0
2, 56280, Note_on_c, 1, 61, 127
2, 56360, Note_off_c, 1, 42, 0
2, 56360, Note_off_c, 1, 61, 0
2, 56400, Note_on_c, 1, 58, 127
2, 56520, Note_off_c, 1, 58, 0
2, 56560, Note_on_c, 1, 61, 127
2, 56680, Note_off_c, 1, 61, 0
2, 56720, Note_on_c, 1, 54, 127
2, 56880, Note_on_c, 1, 64, 127
2, 56960, Note_off_c, 1, 54, 0
2, 56960, Note_off_c, 1, 64, 0
2, 57000, Note_on_c, 1, 62, 127
2, 57120, Note_off_c, 1, 62, 0
2, 57160, Note_on_c, 1, 61, 127
2, 57280, Note_off_c, 1, 61, 0
2, 57320, Note_on_c, 1, 59, 127
2, 57320, Note_on_c, 1, 62, 127
2, 57480, Note_on_c, 1, 66, 127
2, 57560, Note_off_c, 1, 62, 0
2, 57560, Note_off_c, 1, 66, 0
2, 57600, Note_on_c, 1, 71, 127
2, 57720, Note_off_c, 1, 59, 0
2, 57760, Note_on_c, 1, 58, 127
2, 57760, Note_on_c, 1, 61, 127
2, 57880, Note_off_c, 1, 58, 0
2, 57880, Note_off_c, 1, 61, 0
2, 57920, Note_on_c, 1, 59, 127
2, 57920, Note_on_c, 1, 62, 127
2, 58000, Note_off_c, 1, 71, 0
2, 58040, Note_off_c, 1, 59, 0
2, 58080, Note_on_c, 1, 54, 127
2, 58160, Note_off_c, 1, 54, 0
2, 58160, Note_off_c, 1, 62, 0
2, 58200, Note_on_c, 1, 61, 127
2, 58200, Note_on_c, 1, 64, 127
2, 58200, Note_on_c, 1, 70, 127
2, 58320, Note_off_c, 1, 61, 0
2, 58360, Note_on_c, 1, 54, 127
2, 58480, Note_off_c, 1, 54, 0
2, 58480, Note_off_c, 1, 64, 0
2, 58480, Note_off_c, 1, 70, 0
2, 58520, Note_on_c, 1, 62, 127
2, 58520, Note_on_c, 1, 66, 127
2, 58520, Note_on_c, 1, 71, 127
2, 58640, Note_off_c, 1, 62, 0
2, 58640, Note_off_c, 1, 71, 0
2, 58680, Note_on_c, 1, 54, 127
2, 58680, Note_on_c, 1, 74, 127
2, 58760, Note_off_c, 1, 54, 0
2, 58760, Note_off_c, 1, 66, 0
2, 58760, Note_off_c, 1, 74, 0
2, 58800, Note_on_c, 1, 64, 127
2, 58800, Note_on_c, 1, 67, 127
2, 58800, Note_on_c, 1, 73, 127
2, 58920, Note_off_c, 1, 64, 0
2, 58920, Note_off_c, 1, 73, 0
2, 58960, Note_on_c, 1, 54, 127
2, 58960, Note_on_c, 1, 76, 127
2, 59080, Note_off_c, 1, 54, 0
2, 59080, Note_off_c, 1, 67, 0
2, 59080, Note_off_c, 1, 76, 0
2, 59120, Note_on_c, 1, 66, 127
2, 59120, Note_on_c, 1, 70, 127
2, 59280, Note_on_c, 1, 73, 127
2, 59400, Note_on_c, 1, 54, 127
2, 59400, Note_on_c, 1, 76, 127
2, 59520, Note_off_c, 1, 76, 0
2, 59560, Note_on_c, 1, 79, 127
2, 59680, Note_off_c, 1, 73, 0
2, 59680, Note_off_c, 1, 79, 0
2, 59720, Note_on_c, 1, 76, 127
2, 59840, Note_off_c, 1, 70, 0
2, 59840, Note_off_c, 1, 76, 0
2, 59880, Note_on_c, 1, 73, 127
2, 59960, Note_off_c, 1, 54, 0
2, 59960, Note_off_c, 1, 73, 0
2, 60000, Note_on_c, 1, 70, 127
2, 60120, Note_off_c, 1, 70, 0
2, 60160, Note_on_c, 1, 73, 127
2, 60280, Note_off_c, 1, 66, 0
2, 60320, Note_on_c, 1, 66, 127
2, 60440, Note_off_c, 1, 73, 0
2, 60480, Note_on_c, 1, 76, 127
2, 60560, Note_off_c, 1, 76, 0
2, 60600, Note_on_c, 1, 74, 127
2, 60720, Note_off_c, 1, 74, 0
2, 60760, Note_on_c, 1, 73, 127
2, 60880, Note_off_c, 1, 66, 0
2, 60880, Note_off_c, 1, 73, 0
2, 60920, Note_on_c, 1, 71, 127
2, 60920, Note_on_c, 1, 74, 127
2, 61080, Note_on_c, 1, 78, 127
2, 61160, Note_off_c, 1, 78, 0
2, 61200, Note_on_c, 1, 83, 127
2, 61320, Note_off_c, 1, 71, 0
2, 61320, Note_off_c, 1, 74, 0
2, 61360, Note_on_c, 1, 70, 127
2, 61360, Note_on_c, 1, 73, 127
2, 61480, Note_off_c, 1, 70, 0
2, 61480, Note_off_c, 1, 73, 0
2, 61520, Note_on_c, 1, 71, 127
2, 61520, Note_on_c, 1, 74, 127
2, 61680, Note_on_c, 1, 66, 127
2, 61760, Note_off_c, 1, 71, 0
2, 61760, Note_off_c, 1, 74, 0
2, 61760, Note_off_c, 1, 83, 0
2, 61800, Note_on_c, 1, 73, 127
2, 61800, Note_on_c, 1, 76, 127
2, 61800, Note_on_c, 1, 82, 127
2, 61920, Note_off_c, 1, 66, 0
2, 61960, Note_on_c, 1, 66, 127
2, 62040, Note_off_c, 1, 73, 0
2, 62080, Note_off_c, 1, 76, 0
2, 62080, Note_off_c, 1, 82, 0
2, 62120, Note_on_c, 1, 74, 127
2, 62120, Note_on_c, 1, 78, 127
2, 62120, Note_on_c, 1, 83, 127
2, 62240, Note_off_c, 1, 66, 0
2, 62240, Note_off_c, 1, 83, 0
2, 62280, Note_on_c, 1, 66, 127
2, 62280, Note_on_c, 1, 86, 127
2, 62360, Note_off_c, 1, 74, 0
2, 62360, Note_off_c, 1, 78, 0
2, 62360, Note_off_c, 1, 86, 0
2, 62400, Note_on_c, 1, 76, 127
2, 62400, Note_on_c, 1, 79, 127
2, 62400, Note_on_c, 1, 85, 127
2, 62520, Note_off_c, 1, 66, 0
2, 62520, Note_off_c, 1, 85, 0
2, 62560, Note_on_c, 1, 66, 127
2, 62560, Note_on_c, 1, 83, 127
2, 62640, Note_off_c, 1, 76, 0
2, 62680, Note_off_c, 1, 79, 0
2, 62680, Note_off_c, 1, 83, 0
2, 62720, Note_on_c, 1, 78, 127
2, 62720, Note_on_c, 1, 82, 127
2, 62840, Note_off_c, 1, 82, 0
2, 62880, Note_on_c, 1, 80, 127
2, 62960, Note_off_c, 1, 66, 0
2, 62960, Note_off_c, 1, 80, 0
2, 63000, Note_on_c, 1, 66, 127
2, 63000, Note_on_c, 1, 82, 127
2, 63120, Note_off_c, 1, 82, 0
2, 63160, Note_on_c, 1, 85, 127
2, 63280, Note_off_c, 1, 78, 0
2, 63280, Note_off_c, 1, 85, 0
2, 63320, Note_on_c, 1, 78, 127
2, 63320, Note_on_c, 1, 83, 127
2, 63440, Note_off_c, 1, 83, 0
2, 63480, Note_on_c, 1, 82, 127
2, 63560, Note_off_c, 1, 66, 0
2, 63560, Note_off_c, 1, 82, 0
2, 63600, Note_on_c, 1, 66, 127
2, 63600, Note_on_c, 1, 83, 127
2, 63720, Note_off_c, 1, 83, 0
2, 63760, Note_on_c, 1, 86, 127
2, 63880, Note_off_c, 1, 78, 0
2, 63880, Note_off_c, 1, 86, 0
2, 63920, Note_on_c, 1, 76, 127
2, 63920, Note_on_c, 1, 82, 127
2, 64040, Note_off_c, 1, 82, 0
2, 64080, Note_on_c, 1, 80, 127
2, 64160, Note_off_c, 1, 66, 0
2, 64160, Note_off_c, 1, 80, 0
2, 64200, Note_on_c, 1, 66, 127
2, 64200, Note_on_c, 1, 82, 127
2, 64320, Note_off_c, 1, 82, 0
2, 64360, Note_on_c, 1, 85, 127
2, 64440, Note_off_c, 1, 76, 0
2, 64480, Note_off_c, 1, 85, 0
2, 64520, Note_on_c, 1, 74, 127
2, 64520, Note_on_c, 1, 80, 127
2, 64640, Note_off_c, 1, 80, 0
2, 64680, Note_on_c, 1, 78, 127
2, 64760, Note_off_c, 1, 66, 0
2, 64760, Note_off_c, 1, 78, 0
2, 64800, Note_on_c, 1, 66, 127
2, 64800, Note_on_c, 1, 80, 127
2, 64920, Note_off_c, 1, 80, 0
2, 64960, Note_on_c, 1, 83, 127
2, 65000, Note_off_c, 1, 74, 0
2, 65080, Note_off_c, 1, 83, 0
2, 65120, Note_on_c, 1, 76, 127
2, 65120, Note_on_c, 1, 79, 127
2, 65240, Note_off_c, 1, 79, 0
2, 65280, Note_on_c, 1, 78, 127
2, 65360, Note_off_c, 1, 66, 0
2, 65360, Note_off_c, 1, 78, 0
2, 65400, Note_on_c, 1, 66, 127
2, 65400, Note_on_c, 1, 79, 127
2, 65520, Note_off_c, 1, 79, 0
2, 65560, Note_off_c, 1, 76, 0
2, 65560, Note_on_c, 1, 85, 127
2, 65680, Note_off_c, 1, 85, 0
2, 65720, Note_on_c, 1, 74, 127
2, 65720, Note_on_c, 1, 78, 127
2, 65840, Note_off_c, 1, 78, 0
2, 65880, Note_on_c, 1, 76, 127
2, 65960, Note_off_c, 1, 66, 0
2, 65960, Note_off_c, 1, 76, 0
2, 66000, Note_on_c, 1, 66, 127
2, 66000, Note_on_c, 1, 78, 127
2, 66120, Note_off_c, 1, 78, 0
2, 66160, Note_off_c, 1, 74, 0
2, 66160, Note_on_c, 1, 83, 127
2, 66280, Note_off_c, 1, 83, 0
2, 66320, Note_on_c, 1, 73, 127
2, 66320, Note_on_c, 1, 76, 127
2, 66440, Note_off_c, 1, 76, 0
2, 66480, Note_on_c, 1, 74, 127
2, 66560, Note_off_c, 1, 66, 0
2, 66560, Note_off_c, 1, 74, 0
2, 66600, Note_on_c, 1, 66, 127
2, 66600, Note_on_c, 1, 76, 127
2, 66720, Note_off_c, 1, 73, 0
2, 66720, Note_off_c, 1, 76, 0
2, 66760, Note_on_c, 1, 82, 127
2, 66880, Note_off_c, 1, 82, 0
2, 66920, Note_on_c, 1, 74, 127
2, 66920, Note_on_c, 1, 78, 127
2, 67040, Note_off_c, 1, 78, 0
2, 67080, Note_on_c, 1, 76, 127
2, 67160, Note_off_c, 1, 66, 0
2, 67160, Note_off_c, 1, 76, 0
2, 67200, Note_on_c, 1, 66, 127
2, 67200, Note_on_c, 1, 78, 127
2, 67280, Note_off_c, 1, 74, 0
2, 67360, Note_off_c, 1, 78, 0
2, 67360, Note_on_c, 1, 83, 127
2, 67480, Note_off_c, 1, 83, 0
2, 67520, Note_on_c, 1, 73, 127
2, 67520, Note_on_c, 1, 76, 127
2, 67640, Note_off_c, 1, 76, 0
2, 67680, Note_on_c, 1, 74, 127
2, 67760, Note_off_c, 1, 66, 0
2, 67760, Note_off_c, 1, 74, 0
2, 67800, Note_on_c, 1, 66, 127
2, 67800, Note_on_c, 1, 76, 127
2, 67840, Note_off_c, 1, 73, 0
2, 67960, Note_off_c, 1, 76, 0
2, 67960, Note_on_c, 1, 82, 127
2, 68080, Note_off_c, 1, 82, 0
2, 68120, Note_on_c, 1, 71, 127
2, 68120, Note_on_c, 1, 74, 127
2, 68240, Note_off_c, 1, 74, 0
2, 68280, Note_on_c, 1, 73, 127
2, 68360, Note_off_c, 1, 66, 0
2, 68360, Note_off_c, 1, 73, 0
2, 68400, Note_on_c, 1, 66, 127
2, 68400, Note_off_c, 1, 71, 0
2, 68400, Note_on_c, 1, 74, 127
2, 68560, Note_off_c, 1, 74, 0
2, 68560, Note_on_c, 1, 80, 127
2, 68680, Note_off_c, 1, 80, 0
2, 68720, Note_on_c, 1, 73, 127
2, 68720, Note_on_c, 1, 76, 127
2, 68840, Note_off_c, 1, 76, 0
2, 68880, Note_on_c, 1, 74, 127
2, 68960, Note_off_c, 1, 66, 0
2, 68960, Note_off_c, 1, 74, 0
2, 69000, Note_on_c, 1, 66, 127
2, 69000, Note_off_c, 1, 73, 0
2, 69000, Note_on_c, 1, 76, 127
2, 69160, Note_off_c, 1, 76, 0
2, 69160, Note_on_c, 1, 82, 127
2, 69280, Note_off_c, 1, 82, 0
2, 69320, Note_on_c, 1, 71, 127
2, 69320, Note_on_c, 1, 74, 127
2, 69440, Note_off_c, 1, 74, 0
2, 69480, Note_on_c, 1, 73, 127
2, 69560, Note_off_c, 1, 66, 0
2, 69560, Note_off_c, 1, 71, 0
2, 69560, Note_off_c, 1, 73, 0
2, 69600, Note_on_c, 1, 66, 127
2, 69600, Note_on_c, 1, 74, 127
2, 69760, Note_off_c, 1, 74, 0
2, 69760, Note_on_c, 1, 80, 127
2, 69880, Note_off_c, 1, 80, 0
2, 69920, Note_off_c, 1, 66, 0
2, 69920, Note_on_c, 1, 70, 127
2, 69920, Note_on_c, 1, 73, 127
2, 70040, Note_off_c, 1, 73, 0
2, 70080, Note_on_c, 1, 71, 127
2, 70160, Note_off_c, 1, 70, 0
2, 70160, Note_off_c, 1, 71, 0
2, 70200, Note_on_c, 1, 66, 127
2, 70200, Note_on_c, 1, 73, 127
2, 70360, Note_off_c, 1, 73, 0
2, 70360, Note_on_c, 1, 78, 127
2, 70480, Note_off_c, 1, 78, 0
2, 70520, Note_on_c, 1, 76, 127
2, 70640, Note_off_c, 1, 76, 0
2, 70680, Note_on_c, 1, 73, 127
2, 70760, Note_off_c, 1, 66, 0
2, 70760, Note_off_c, 1, 73, 0
2, 70800, Note_on_c, 1, 66, 127
2, 70800, Note_on_c, 1, 74, 127
2, 70920, Note_off_c, 1, 66, 0
2, 70920, Note_off_c, 1, 74, 0
2, 70960, Note_on_c, 1, 62, 127
2, 70960, Note_on_c, 1, 71, 127
2, 71080, Note_off_c, 1, 62, 0
2, 71080, Note_off_c, 1, 71, 0
2, 71120, Note_on_c, 1, 64, 127
2, 71120, Note_on_c, 1, 73, 127
2, 71240, Note_off_c, 1, 64, 0
2, 71240, Note_off_c, 1, 73, 0
2, 71280, Note_on_c, 1, 61, 127
2, 71280, Note_on_c, 1, 70, 127
2, 71360, Note_off_c, 1, 61, 0
2, 71360, Note_off_c, 1, 70, 0
2, 71400, Note_on_c, 1, 62, 127
2, 71400, Note_on_c, 1, 71, 127
2, 71520, Note_off_c, 1, 62, 0
2, 71520, Note_off_c, 1, 71, 0
2, 71560, Note_on_c, 1, 59, 127
2, 71560, Note_on_c, 1, 68, 127
2, 71680, Note_off_c, 1, 59, 0
2, 71680, Note_off_c, 1, 68, 0
2, 71720, Note_on_c, 1, 61, 127
2, 71720, Note_on_c, 1, 70, 127
2, 71840, Note_off_c, 1, 61, 0
2, 71840, Note_off_c, 1, 70, 0
2, 71880, Note_on_c, 1, 59, 127
2, 71880, Note_on_c, 1, 68, 127
2, 71960, Note_off_c, 1, 59, 0
2, 71960, Note_off_c, 1, 68, 0
2, 72000, Note_on_c, 1, 61, 127
2, 72000, Note_on_c, 1, 70, 127
2, 72120, Note_off_c, 1, 61, 0
2, 72160, Note_on_c, 1, 64, 127
2, 72160, Note_on_c, 1, 73, 127
2, 72240, Note_off_c, 1, 70, 0
2, 72280, Note_off_c, 1, 64, 0
2, 72280, Note_off_c, 1, 73, 0
2, 72320, Note_on_c, 1, 58, 127
2, 72320, Note_on_c, 1, 66, 127
2, 72440, Note_off_c, 1, 58, 0
2, 72440, Note_off_c, 1, 66, 0
2, 72480, Note_on_c, 1, 56, 127
2, 72480, Note_on_c, 1, 65, 127
2, 72560, Note_off_c, 1, 56, 0
2, 72560, Note_off_c, 1, 65, 0
2, 72600, Note_on_c, 1, 58, 127
2, 72600, Note_on_c, 1, 66, 127
2, 72720, Note_off_c, 1, 58, 0
2, 72760, Note_on_c, 1, 61, 127
2, 72760, Note_on_c, 1, 70, 127
2, 72840, Note_off_c, 1, 66, 0
2, 72880, Note_off_c, 1, 61, 0
2, 72880, Note_off_c, 1, 70, 0
2, 72920, Note_on_c, 1, 55, 127
2, 72920, Note_on_c, 1, 64, 127
2, 73040, Note_off_c, 1, 55, 0
2, 73040, Note_off_c, 1, 64, 0
2, 73080, Note_on_c, 1, 54, 127
2, 73080, Note_on_c, 1, 62, 127
2, 73160, Note_off_c, 1, 54, 0
2, 73160, Note_off_c, 1, 62, 0
2, 73200, Note_on_c, 1, 55, 127
2, 73200, Note_on_c, 1, 64, 127
2, 73320, Note_off_c, 1, 55, 0
2, 73360, Note_on_c, 1, 59, 127
2, 73360, Note_on_c, 1, 67, 127
2, 73440, Note_off_c, 1, 64, 0
2, 73480, Note_off_c, 1, 59, 0
2, 73480, Note_off_c, 1, 67, 0
2, 73520, Note_on_c, 1, 52, 127
2, 73520, Note_on_c, 1, 61, 127
2, 73640, Note_off_c, 1, 52, 0
2, 73640, Note_off_c, 1, 61, 0
2, 73680, Note_on_c, 1, 50, 127
2, 73680, Note_on_c, 1, 59, 127
2, 73760, Note_off_c, 1, 50, 0
2, 73760, Note_off_c, 1, 59, 0
2, 73800, Note_on_c, 1, 52, 127
2, 73800, Note_on_c, 1, 61, 127
2, 73920, Note_off_c, 1, 52, 0
2, 73960, Note_on_c, 1, 55, 127
2, 73960, Note_off_c, 1, 61, 0
2, 73960, Note_on_c, 1, 64, 127
2, 74080, Note_off_c, 1, 55, 0
2, 74080, Note_off_c, 1, 64, 0
2, 74120, Note_on_c, 1, 49, 127
2, 74120, Note_on_c, 1, 58, 127
2, 74240, Note_off_c, 1, 49, 0
2, 74240, Note_off_c, 1, 58, 0
2, 74280, Note_on_c, 1, 47, 127
2, 74280, Note_on_c, 1, 56, 127
2, 74360, Note_off_c, 1, 47, 0
2, 74360, Note_off_c, 1, 56, 0
2, 74400, Note_on_c, 1, 49, 127
2, 74400, Note_on_c, 1, 58, 127
2, 74520, Note_off_c, 1, 49, 0
2, 74560, Note_on_c, 1, 52, 127
2, 74560, Note_off_c, 1, 58, 0
2, 74560, Note_on_c, 1, 61, 127
2, 74680, Note_off_c, 1, 52, 0
2, 74680, Note_off_c, 1, 61, 0
2, 74720, Note_on_c, 1, 46, 127
2, 74720, Note_on_c, 1, 54, 127
2, 74840, Note_off_c, 1, 46, 0
2, 74880, Note_on_c, 1, 44, 127
2, 74960, Note_off_c, 1, 44, 0
2, 75000, Note_on_c, 1, 46, 127
2, 75120, Note_off_c, 1, 46, 0
2, 75160, Note_on_c, 1, 49, 127
2, 75280, Note_off_c, 1, 49, 0
2, 75280, Note_off_c, 1, 54, 0
2, 75320, Note_on_c, 1, 42, 127
2, 75480, Note_on_c, 1, 52, 127
2, 75560, Note_off_c, 1, 52, 0
2, 75600, Note_on_c, 1, 50, 127
2, 75720, Note_off_c, 1, 50, 0
2, 75760, Note_on_c, 1, 49, 127
2, 75880, Note_off_c, 1, 49, 0
2, 75920, Note_on_c, 1, 55, 127
2, 76080, Note_on_c, 1, 52, 127
2, 76160, Note_off_c, 1, 52, 0
2, 76160, Note_off_c, 1, 55, 0
2, 76200, Note_on_c, 1, 50, 127
2, 76320, Note_off_c, 1, 50, 0
2, 76360, Note_on_c, 1, 49, 127
2, 76480, Note_off_c, 1, 49, 0
2, 76520, Note_on_c, 1, 58, 127
2, 76680, Note_on_c, 1, 52, 127
2, 76760, Note_off_c, 1, 52, 0
2, 76760, Note_off_c, 1, 58, 0
2, 76800, Note_on_c, 1, 50, 127
2, 76920, Note_off_c, 1, 50, 0
2, 76960, Note_on_c, 1, 49, 127
2, 77080, Note_off_c, 1, 42, 0
2, 77080, Note_off_c, 1, 49, 0
2, 77120, Note_on_c, 1, 42, 127
2, 77120, Note_on_c, 1, 61, 127
2, 77280, Note_on_c, 1, 55, 127
2, 77360, Note_off_c, 1, 55, 0
2, 77360, Note_off_c, 1, 61, 0
2, 77400, Note_on_c, 1, 54, 127
2, 77520, Note_off_c, 1, 54, 0
2, 77560, Note_on_c, 1, 52, 127
2, 77680, Note_off_c, 1, 52, 0
2, 77720, Note_on_c, 1, 58, 127
2, 77880, Note_on_c, 1, 55, 127
2, 77960, Note_off_c, 1, 55, 0
2, 78000, Note_on_c, 1, 54, 127
2, 78120, Note_off_c, 1, 54, 0
2, 78120, Note_off_c, 1, 58, 0
2, 78160, Note_on_c, 1, 52, 127
2, 78280, Note_off_c, 1, 52, 0
2, 78320, Note_on_c, 1, 61, 127
2, 78480, Note_on_c, 1, 55, 127
2, 78560, Note_off_c, 1, 55, 0
2, 78600, Note_on_c, 1, 54, 127
2, 78720, Note_off_c, 1, 54, 0
2, 78720, Note_off_c, 1, 61, 0
2, 78760, Note_on_c, 1, 52, 127
2, 78880, Note_off_c, 1, 42, 0
2, 78880, Note_off_c, 1, 52, 0
2, 78920, Note_on_c, 1, 42, 127
2, 78920, Note_on_c, 1, 64, 127
2, 79080, Note_on_c, 1, 58, 127
2, 79160, Note_off_c, 1, 58, 0
2, 79200, Note_on_c, 1, 56, 127
2, 79320, Note_off_c, 1, 56, 0
2, 79360, Note_on_c, 1, 54, 127
2, 79360, Note_off_c, 1, 64, 0
2, 79480, Note_off_c, 1, 54, 0
2, 79520, Note_on_c, 1, 61, 127
2, 79680, Note_on_c, 1, 58, 127
2, 79760, Note_off_c, 1, 58, 0
2, 79800, Note_on_c, 1, 56, 127
2, 79920, Note_off_c, 1, 56, 0
2, 79960, Note_on_c, 1, 54, 127
2, 80000, Note_off_c, 1, 61, 0
2, 80080, Note_off_c, 1, 54, 0
2, 80120, Note_on_c, 1, 64, 127
2, 80280, Note_on_c, 1, 61, 127
2, 80360, Note_off_c, 1, 61, 0
2, 80400, Note_on_c, 1, 59, 127
2, 80520, Note_off_c, 1, 59, 0
2, 80560, Note_on_c, 1, 58, 127
2, 80640, Note_off_c, 1, 64, 0
2, 80680, Note_off_c, 1, 58, 0
2, 80720, Note_on_c, 1, 67, 127
2, 80840, Note_off_c, 1, 67, 0
2, 80880, Note_on_c, 1, 66, 127
2, 80960, Note_off_c, 1, 66, 0
2, 81000, Note_on_c, 1, 64, 127
2, 81120, Note_off_c, 1, 42, 0
2, 81120, Note_off_c, 1, 64, 0
2, 81160, Note_on_c, 1, 62, 127
2, 81280, Note_off_c, 1, 62, 0
2, 81320, Note_on_c, 1, 61, 127
2, 81440, Note_off_c, 1, 61, 0
2, 81480, Note_on_c, 1, 59, 127
2, 81560, Note_off_c, 1, 59, 0
2, 81600, Note_on_c, 1, 58, 127
2, 81720, Note_off_c, 1, 58, 0
2, 81760, Note_on_c, 1, 56, 127
2, 81880, Note_off_c, 1, 56, 0
2, 81920, Note_on_c, 1, 54, 127
2, 82040, Note_off_c, 1, 54, 0
2, 82080, Note_on_c, 1, 52, 127
2, 82160, Note_off_c, 1, 52, 0
2, 82200, Note_on_c, 1, 50, 127
2, 82320, Note_off_c, 1, 50, 0
2, 82360, Note_on_c, 1, 49, 127
2, 82480, Note_off_c, 1, 49, 0
2, 82520, Note_on_c, 1, 47, 127
2, 82800, Note_on_c, 1, 78, 127
2, 83080, Note_off_c, 1, 78, 0
2, 83120, Note_on_c, 1, 71, 127
2, 83240, Note_off_c, 1, 47, 0
2, 83360, Note_off_c, 1, 71, 0
2, 83400, Note_on_c, 1, 59, 127
2, 83400, Note_on_c, 1, 62, 127
2, 83400, Note_on_c, 1, 83, 127
2, 83680, Note_off_c, 1, 59, 0
2, 83680, Note_off_c, 1, 62, 0
2, 83680, Note_off_c, 1, 83, 0
2, 83720, Note_on_c, 1, 61, 127
2, 83720, Note_on_c, 1, 64, 127
2, 83720, Note_on_c, 1, 81, 127
2, 83840, Note_off_c, 1, 81, 0
2, 83880, Note_on_c, 1, 78, 127
2, 83960, Note_off_c, 1, 61, 0
2, 83960, Note_off_c, 1, 64, 0
2, 83960, Note_off_c, 1, 78, 0
2, 84000, Note_on_c, 1, 57, 127
2, 84000, Note_on_c, 1, 61, 127
2, 84000, Note_on_c, 1, 79, 127
2, 84120, Note_off_c, 1, 79, 0
2, 84160, Note_on_c, 1, 76, 127
2, 84280, Note_off_c, 1, 57, 0
2, 84280, Note_off_c, 1, 61, 0
2, 84280, Note_off_c, 1, 76, 0
2, 84320, Note_on_c, 1, 62, 127
2, 84320, Note_on_c, 1, 78, 127
2, 84480, Note_on_c, 1, 73, 127
2, 84560, Note_off_c, 1, 73, 0
2, 84560, Note_off_c, 1, 78, 0
2, 84600, Note_on_c, 1, 50, 127
2, 84600, Note_on_c, 1, 74, 127
2, 84720, Note_off_c, 1, 74, 0
2, 84760, Note_on_c, 1, 70, 127
2, 84880, Note_off_c, 1, 62, 0
2, 84880, Note_off_c, 1, 70, 0
2, 84920, Note_on_c, 1, 71, 127
2, 85000, Note_off_c, 1, 50, 0
2, 85040, Note_off_c, 1, 71, 0
2, 85080, Note_on_c, 1, 74, 127
2, 85160, Note_off_c, 1, 74, 0
2, 85200, Note_on_c, 1, 64, 127
2, 85200, Note_on_c, 1, 71, 127
2, 85200, Note_on_c, 1, 79, 127
2, 85320, Note_off_c, 1, 79, 0
2, 85360, Note_on_c, 1, 76, 127
2, 85480, Note_off_c, 1, 64, 0
2, 85480, Note_off_c, 1, 71, 0
2, 85480, Note_off_c, 1, 76, 0
2, 85520, Note_on_c, 1, 62, 127
2, 85520, Note_on_c, 1, 71, 127
2, 85520, Note_on_c, 1, 78, 127
2, 85640, Note_off_c, 1, 78, 0
2, 85680, Note_on_c, 1, 74, 127
2, 85760, Note_off_c, 1, 62, 0
2, 85760, Note_off_c, 1, 71, 0
2, 85760, Note_off_c, 1, 74, 0
2, 85800, Note_on_c, 1, 61, 127
2, 85800, Note_on_c, 1, 70, 127
2, 85800, Note_on_c, 1, 76, 127
2, 85920, Note_off_c, 1, 76, 0
2, 85960, Note_on_c, 1, 73, 127
2, 86080, Note_off_c, 1, 61, 0
2, 86080, Note_off_c, 1, 70, 0
2, 86080, Note_off_c, 1, 73, 0
2, 86120, Note_on_c, 1, 59, 127
2, 86120, Note_on_c, 1, 71, 127
2, 86120, Note_on_c, 1, 74, 127
2, 86240, Note_off_c, 1, 74, 0
2, 86280, Note_on_c, 1, 73, 127
2, 86360, Note_off_c, 1, 73, 0
2, 86400, Note_on_c, 1, 74, 127
2, 86520, Note_off_c, 1, 74, 0
2, 86560, Note_on_c, 1, 70, 127
2, 86680, Note_off_c, 1, 70, 0
2, 86680, Note_off_c, 1, 71, 0
2, 86720, Note_on_c, 1, 71, 127
2, 86840, Note_off_c, 1, 59, 0
2, 86840, Note_off_c, 1, 71, 0
2, 86880, Note_on_c, 1, 74, 127
2, 86960, Note_off_c, 1, 74, 0
2, 87000, Note_on_c, 1, 62, 127
2, 87000, Note_on_c, 1, 71, 127
2, 87000, Note_on_c, 1, 78, 127
2, 87120, Note_off_c, 1, 78, 0
2, 87160, Note_on_c, 1, 74, 127
2, 87280, Note_off_c, 1, 62, 0
2, 87280, Note_off_c, 1, 71, 0
2, 87280, Note_off_c, 1, 74, 0
2, 87320, Note_on_c, 1, 61, 127
2, 87320, Note_on_c, 1, 70, 127
2, 87320, Note_on_c, 1, 76, 127
2, 87440, Note_off_c, 1, 76, 0
2, 87480, Note_on_c, 1, 73, 127
2, 87560, Note_off_c, 1, 61, 0
2, 87560, Note_off_c, 1, 70, 0
2, 87560, Note_off_c, 1, 73, 0
2, 87600, Note_on_c, 1, 59, 127
2, 87600, Note_on_c, 1, 66, 127
2, 87600, Note_on_c, 1, 74, 127
2, 87720, Note_off_c, 1, 74, 0
2, 87760, Note_on_c, 1, 71, 127
2, 87880, Note_off_c, 1, 59, 0
2, 87880, Note_off_c, 1, 66, 0
2, 87880, Note_off_c, 1, 71, 0
2, 87920, Note_on_c, 1, 58, 127
2, 87920, Note_on_c, 1, 64, 127
2, 87920, Note_on_c, 1, 73, 127
2, 88040, Note_off_c, 1, 73, 0
2, 88080, Note_on_c, 1, 71, 127
2, 88160, Note_off_c, 1, 58, 0
2, 88160, Note_off_c, 1, 71, 0
2, 88200, Note_on_c, 1, 54, 127
2, 88200, Note_on_c, 1, 73, 127
2, 88320, Note_off_c, 1, 73, 0
2, 88360, Note_on_c, 1, 70, 127
2, 88480, Note_off_c, 1, 54, 0
2, 88480, Note_off_c, 1, 64, 0
2, 88480, Note_off_c, 1, 70, 0
2, 88520, Note_on_c, 1, 55, 127
2, 88520, Note_on_c, 1, 62, 127
2, 88520, Note_on_c, 1, 71, 127
2, 88640, Note_off_c, 1, 71, 0
2, 88680, Note_on_c, 1, 70, 127
2, 88760, Note_off_c, 1, 55, 0
2, 88760, Note_off_c, 1, 62, 0
2, 88760, Note_off_c, 1, 70, 0
2, 88800, Note_on_c, 1, 52, 127
2, 88800, Note_on_c, 1, 59, 127
2, 88800, Note_on_c, 1, 61, 127
2, 88800, Note_on_c, 1, 71, 127
2, 88920, Note_off_c, 1, 71, 0
2, 88960, Note_on_c, 1, 79, 127
2, 89080, Note_off_c, 1, 52, 0
2, 89080, Note_off_c, 1, 61, 0
2, 89080, Note_off_c, 1, 79, 0
2, 89120, Note_on_c, 1, 54, 127
2, 89120, Note_on_c, 1, 62, 127
2, 89120, Note_on_c, 1, 78, 127
2, 89240, Note_off_c, 1, 78, 0
2, 89280, Note_on_c, 1, 74, 127
2, 89360, Note_off_c, 1, 54, 0
2, 89360, Note_off_c, 1, 59, 0
2, 89360, Note_off_c, 1, 62, 0
2, 89360, Note_off_c, 1, 74, 0
2, 89400, Note_on_c, 1, 54, 127
2, 89400, Note_on_c, 1, 58, 127
2, 89400, Note_on_c, 1, 61, 127
2, 89400, Note_on_c, 1, 76, 127
2, 89520, Note_off_c, 1, 76, 0
2, 89560, Note_on_c, 1, 73, 127
2, 89680, Note_off_c, 1, 54, 0
2, 89680, Note_off_c, 1, 58, 0
2, 89680, Note_off_c, 1, 61, 0
2, 89680, Note_off_c, 1, 73, 0
2, 89720, Note_on_c, 1, 59, 127
2, 89720, Note_on_c, 1, 74, 127
2, 89840, Note_off_c, 1, 74, 0
2, 89880, Note_on_c, 1, 73, 127
2, 89960, Note_off_c, 1, 73, 0
2, 90000, Note_on_c, 1, 54, 127
2, 90000, Note_on_c, 1, 71, 127
2, 90120, Note_off_c, 1, 71, 0
2, 90160, Note_on_c, 1, 70, 127
2, 90280, Note_off_c, 1, 54, 0
2, 90280, Note_off_c, 1, 70, 0
2, 90320, Note_on_c, 1, 47, 127
2, 90320, Note_on_c, 1, 71, 127
2, 90440, Note_off_c, 1, 71, 0
2, 90480, Note_on_c, 1, 73, 127
2, 90560, Note_off_c, 1, 47, 0
2, 90560, Note_off_c, 1, 59, 0
2, 90560, Note_off_c, 1, 73, 0
2, 90600, Note_on_c, 1, 59, 127
2, 90600, Note_on_c, 1, 74, 127
2, 90720, Note_off_c, 1, 74, 0
2, 90760, Note_on_c, 1, 79, 127
2, 90880, Note_off_c, 1, 59, 0
2, 90880, Note_off_c, 1, 79, 0
2, 90920, Note_on_c, 1, 57, 127
2, 90920, Note_on_c, 1, 78, 127
2, 91040, Note_off_c, 1, 57, 0
2, 91040, Note_off_c, 1, 78, 0
2, 91080, Note_on_c, 1, 54, 127
2, 91080, Note_on_c, 1, 74, 127
2, 91160, Note_off_c, 1, 54, 0
2, 91160, Note_off_c, 1, 74, 0
2, 91200, Note_on_c, 1, 55, 127
2, 91200, Note_on_c, 1, 76, 127
2, 91320, Note_off_c, 1, 55, 0
2, 91320, Note_off_c, 1, 76, 0
2, 91360, Note_on_c, 1, 52, 127
2, 91360, Note_on_c, 1, 73, 127
2, 91480, Note_off_c, 1, 52, 0
2, 91480, Note_off_c, 1, 73, 0
2, 91520, Note_on_c, 1, 54, 127
2, 91520, Note_on_c, 1, 74, 127
2, 91640, Note_off_c, 1, 54, 0
2, 91640, Note_off_c, 1, 74, 0
2, 91680, Note_on_c, 1, 52, 127
2, 91680, Note_on_c, 1, 73, 127
2, 91760, Note_off_c, 1, 52, 0
2, 91760, Note_off_c, 1, 73, 0
2, 91800, Note_on_c, 1, 50, 127
2, 91800, Note_on_c, 1, 71, 127
2, 91920, Note_off_c, 1, 50, 0
2, 91920, Note_off_c, 1, 71, 0
2, 91960, Note_on_c, 1, 54, 127
2, 91960, Note_on_c, 1, 70, 127
2, 92080, Note_off_c, 1, 54, 0
2, 92080, Note_off_c, 1, 70, 0
2, 92120, Note_on_c, 1, 47, 127
2, 92120, Note_on_c, 1, 71, 127
2, 92240, Note_off_c, 1, 47, 0
2, 92240, Note_off_c, 1, 71, 0
2, 92280, Note_on_c, 1, 50, 127
2, 92280, Note_on_c, 1, 73, 127
2, 92360, Note_off_c, 1, 50, 0
2, 92360, Note_off_c, 1, 73, 0
2, 92400, Note_on_c, 1, 55, 127
2, 92400, Note_on_c, 1, 74, 127
2, 92520, Note_off_c, 1, 55, 0
2, 92520, Note_off_c, 1, 74, 0
2, 92560, Note_on_c, 1, 52, 127
2, 92560, Note_on_c, 1, 76, 127
2, 92680, Note_off_c, 1, 52, 0
2, 92680, Note_off_c, 1, 76, 0
2, 92720, Note_on_c, 1, 54, 127
2, 92720, Note_on_c, 1, 74, 127
2, 92840, Note_off_c, 1, 54, 0
2, 92880, Note_on_c, 1, 50, 127
2, 92880, Note_on_c, 1, 71, 127
2, 92880, Note_off_c, 1, 74, 0
2, 92960, Note_off_c, 1, 50, 0
2, 92960, Note_off_c, 1, 71, 0
2, 93000, Note_on_c, 1, 52, 127
2, 93000, Note_on_c, 1, 73, 127
2, 93120, Note_off_c, 1, 52, 0
2, 93160, Note_on_c, 1, 49, 127
2, 93160, Note_on_c, 1, 70, 127
2, 93200, Note_off_c, 1, 73, 0
2, 93280, Note_off_c, 1, 49, 0
2, 93280, Note_off_c, 1, 70, 0
2, 93320, Note_on_c, 1, 50, 127
2, 93320, Note_on_c, 1, 71, 127
2, 93440, Note_off_c, 1, 50, 0
2, 93440, Note_off_c, 1, 71, 0
2, 93480, Note_on_c, 1, 49, 127
2, 93480, Note_on_c, 1, 73, 127
2, 93560, Note_off_c, 1, 49, 0
2, 93560, Note_off_c, 1, 73, 0
2, 93600, Note_on_c, 1, 47, 127
2, 93600, Note_on_c, 1, 74, 127
2, 93720, Note_off_c, 1, 47, 0
2, 93760, Note_on_c, 1, 50, 127
2, 93760, Note_on_c, 1, 71, 127
2, 93800, Note_off_c, 1, 74, 0
2, 93880, Note_off_c, 1, 50, 0
2, 93880, Note_off_c, 1, 71, 0
2, 93920, Note_on_c, 1, 42, 127
2, 93920, Note_on_c, 1, 70, 127
2, 94040, Note_off_c, 1, 42, 0
2, 94040, Note_off_c, 1, 70, 0
2, 94080, Note_on_c, 1, 47, 127
2, 94080, Note_on_c, 1, 71, 127
2, 94160, Note_off_c, 1, 47, 0
2, 94200, Note_on_c, 1, 50, 127
2, 94200, Note_on_c, 1, 74, 127
2, 94240, Note_off_c, 1, 71, 0
2, 94320, Note_off_c, 1, 50, 0
2, 94360, Note_on_c, 1, 47, 127
2, 94360, Note_on_c, 1, 71, 127
2, 94400, Note_off_c, 1, 74, 0
2, 94480, Note_off_c, 1, 47, 0
2, 94480, Note_off_c, 1, 71, 0
2, 94520, Note_on_c, 1, 52, 127
2, 94520, Note_on_c, 1, 73, 127
2, 94640, Note_off_c, 1, 52, 0
2, 94680, Note_on_c, 1, 49, 127
2, 94680, Note_on_c, 1, 70, 127
2, 94680, Note_off_c, 1, 73, 0
2, 94760, Note_off_c, 1, 49, 0
2, 94760, Note_off_c, 1, 70, 0
2, 94800, Note_on_c, 1, 50, 127
2, 94800, Note_on_c, 1, 71, 127
2, 94920, Note_off_c, 1, 50, 0
2, 94960, Note_on_c, 1, 47, 127
2, 94960, Note_on_c, 1, 68, 127
2, 95000, Note_off_c, 1, 71, 0
2, 95080, Note_off_c, 1, 47, 0
2, 95080, Note_off_c, 1, 68, 0
2, 95120, Note_on_c, 1, 49, 127
2, 95120, Note_on_c, 1, 70, 127
2, 95240, Note_off_c, 1, 49, 0
2, 95240, Note_off_c, 1, 70, 0
2, 95280, Note_on_c, 1, 47, 127
2, 95280, Note_on_c, 1, 67, 127
2, 95360, Note_off_c, 1, 47, 0
2, 95360, Note_off_c, 1, 67, 0
2, 95400, Note_on_c, 1, 49, 127
2, 95400, Note_on_c, 1, 66, 127
2, 95520, Note_off_c, 1, 49, 0
2, 95520, Note_off_c, 1, 66, 0
2, 95560, Note_on_c, 1, 46, 127
2, 95560, Note_on_c, 1, 64, 127
2, 95680, Note_off_c, 1, 46, 0
2, 95680, Note_off_c, 1, 64, 0
2, 95720, Note_on_c, 1, 47, 127
2, 95720, Note_on_c, 1, 62, 127
2, 95840, Note_off_c, 1, 62, 0
2, 95880, Note_on_c, 1, 61, 127
2, 95960, Note_off_c, 1, 47, 0
2, 95960, Note_off_c, 1, 61, 0
2, 96000, Note_on_c, 1, 52, 127
2, 96000, Note_on_c, 1, 62, 127
2, 96160, Note_on_c, 1, 71, 127
2, 96280, Note_off_c, 1, 52, 0
2, 96280, Note_off_c, 1, 62, 0
2, 96320, Note_on_c, 1, 54, 127
2, 96320, Note_on_c, 1, 61, 127
2, 96440, Note_off_c, 1, 71, 0
2, 96480, Note_on_c, 1, 71, 127
2, 96560, Note_off_c, 1, 61, 0
2, 96600, Note_on_c, 1, 42, 127
2, 96600, Note_on_c, 1, 61, 127
2, 96720, Note_off_c, 1, 54, 0
2, 96720, Note_off_c, 1, 71, 0
2, 96760, Note_on_c, 1, 70, 127
2, 96880, Note_off_c, 1, 42, 0
2, 96880, Note_off_c, 1, 61, 0
2, 96880, Note_off_c, 1, 70, 0
2, 96920, Note_on_c, 1, 47, 127
2, 96920, Note_on_c, 1, 71, 127
2, 97160, Note_off_c, 1, 71, 0
2, 97200, Note_on_c, 1, 62, 127
2, 97200, Note_on_c, 1, 66, 127
2, 97480, Note_off_c, 1, 62, 0
2, 97480, Note_off_c, 1, 66, 0
2, 97520, Note_on_c, 1, 62, 127
2, 97520, Note_on_c, 1, 66, 127
2, 97640, Note_off_c, 1, 47, 0
2, 97640, Note_off_c, 1, 62, 0
2, 97640, Note_off_c, 1, 66, 0
2, 97680, Note_on_c, 1, 47, 127
2, 97680, Note_on_c, 1, 67, 127
2, 97760, Note_off_c, 1, 47, 0
2, 97760, Note_off_c, 1, 67, 0
2, 97800, Note_on_c, 1, 50, 127
2, 97800, Note_on_c, 1, 62, 127
2, 97800, Note_on_c, 1, 66, 127
2, 97920, Note_off_c, 1, 50, 0
2, 97960, Note_on_c, 1, 54, 127
2, 98080, Note_off_c, 1, 54, 0
2, 98080, Note_off_c, 1, 62, 0
2, 98080, Note_off_c, 1, 66, 0
2, 98120, Note_on_c, 1, 59, 127
2, 98120, Note_on_c, 1, 62, 127
2, 98120, Note_on_c, 1, 66, 127
2, 98240, Note_off_c, 1, 59, 0
2, 98280, Note_on_c, 1, 57, 127
2, 98360, Note_off_c, 1, 57, 0
2, 98360, Note_off_c, 1, 62, 0
2, 98360, Note_off_c, 1, 66, 0
2, 98400, Note_on_c, 1, 55, 127
2, 98400, Note_on_c, 1, 62, 127
2, 98400, Note_on_c, 1, 66, 127
2, 98520, Note_off_c, 1, 55, 0
2, 98560, Note_on_c, 1, 54, 127
2, 98680, Note_off_c, 1, 54, 0
2, 98680, Note_off_c, 1, 62, 0
2, 98680, Note_off_c, 1, 66, 0
2, 98720, Note_on_c, 1, 52, 127
2, 98720, Note_on_c, 1, 62, 127
2, 98720, Note_on_c, 1, 66, 127
2, 98840, Note_off_c, 1, 62, 0
2, 98840, Note_off_c, 1, 66, 0
2, 98880, Note_on_c, 1, 67, 127
2, 98960, Note_off_c, 1, 67, 0
2, 99000, Note_on_c, 1, 61, 127
2, 99000, Note_on_c, 1, 64, 127
2, 99280, Note_off_c, 1, 52, 0
2, 99280, Note_off_c, 1, 61, 0
2, 99280, Note_off_c, 1, 64, 0
2, 99320, Note_on_c, 1, 61, 127
2, 99320, Note_on_c, 1, 64, 127
2, 99440, Note_off_c, 1, 61, 0
2, 99440, Note_off_c, 1, 64, 0
2, 99480, Note_on_c, 1, 45, 127
2, 99480, Note_on_c, 1, 66, 127
2, 99560, Note_off_c, 1, 45, 0
2, 99560, Note_off_c, 1, 66, 0
2, 99600, Note_on_c, 1, 49, 127
2, 99600, Note_on_c, 1, 61, 127
2, 99600, Note_on_c, 1, 64, 127
2, 99720, Note_off_c, 1, 49, 0
2, 99760, Note_on_c, 1, 52, 127
2, 99880, Note_off_c, 1, 52, 0
2, 99880, Note_off_c, 1, 61, 0
2, 99880, Note_off_c, 1, 64, 0
2, 99920, Note_on_c, 1, 57, 127
2, 99920, Note_on_c, 1, 61, 127
2, 99920, Note_on_c, 1, 64, 127
2, 100040, Note_off_c, 1, 57, 0
2, 100080, Note_on_c, 1, 55, 127
2, 100160, Note_off_c, 1, 55, 0
2, 100160, Note_off_c, 1, 61, 0
2, 100160, Note_off_c, 1, 64, 0
2, 100200, Note_on_c, 1, 54, 127
2, 100200, Note_on_c, 1, 61, 127
2, 100200, Note_on_c, 1, 64, 127
2, 100320, Note_off_c, 1, 54, 0
2, 100360, Note_on_c, 1, 52, 127
2, 100480, Note_off_c, 1, 52, 0
2, 100480, Note_off_c, 1, 61, 0
2, 100480, Note_off_c, 1, 64, 0
2, 100520, Note_on_c, 1, 50, 127
2, 100520, Note_on_c, 1, 62, 127
2, 100520, Note_on_c, 1, 64, 127
2, 100640, Note_off_c, 1, 62, 0
2, 100640, Note_off_c, 1, 64, 0
2, 100680, Note_on_c, 1, 66, 127
2, 100760, Note_off_c, 1, 66, 0
2, 100800, Note_on_c, 1, 66, 127
2, 100800, Note_on_c, 1, 69, 127
2, 101080, Note_off_c, 1, 66, 0
2, 101080, Note_off_c, 1, 69, 0
2, 101120, Note_on_c, 1, 66, 127
2, 101120, Note_on_c, 1, 69, 127
2, 101240, Note_off_c, 1, 50, 0
2, 101240, Note_off_c, 1, 66, 0
2, 101240, Note_off_c, 1, 69, 0
2, 101280, Note_on_c, 1, 50, 127
2, 101280, Note_on_c, 1, 71, 127
2, 101360, Note_off_c, 1, 50, 0
2, 101360, Note_off_c, 1, 71, 0
2, 101400, Note_on_c, 1, 54, 127
2, 101400, Note_on_c, 1, 66, 127
2, 101400, Note_on_c, 1, 69, 127
2, 101520, Note_off_c, 1, 54, 0
2, 101560, Note_on_c, 1, 57, 127
2, 101680, Note_off_c, 1, 57, 0
2, 101680, Note_off_c, 1, 66, 0
2, 101680, Note_off_c, 1, 69, 0
2, 101720, Note_on_c, 1, 62, 127
2, 101720, Note_on_c, 1, 66, 127
2, 101720, Note_on_c, 1, 69, 127
2, 101840, Note_off_c, 1, 62, 0
2, 101880, Note_on_c, 1, 61, 127
2, 101960, Note_off_c, 1, 61, 0
2, 101960, Note_off_c, 1, 66, 0
2, 101960, Note_off_c, 1, 69, 0
2, 102000, Note_on_c, 1, 59, 127
2, 102000, Note_on_c, 1, 66, 127
2, 102000, Note_on_c, 1, 69, 127
2, 102120, Note_off_c, 1, 59, 0
2, 102160, Note_on_c, 1, 57, 127
2, 102280, Note_off_c, 1, 57, 0
2, 102280, Note_off_c, 1, 66, 0
2, 102280, Note_off_c, 1, 69, 0
2, 102320, Note_on_c, 1, 56, 127
2, 102320, Note_on_c, 1, 66, 127
2, 102320, Note_on_c, 1, 69, 127
2, 102440, Note_off_c, 1, 66, 0
2, 102440, Note_off_c, 1, 69, 0
2, 102480, Note_on_c, 1, 71, 127
2, 102560, Note_off_c, 1, 71, 0
2, 102600, Note_on_c, 1, 65, 127
2, 102600, Note_on_c, 1, 68, 127
2, 102880, Note_off_c, 1, 56, 0
2, 102880, Note_off_c, 1, 65, 0
2, 102880, Note_off_c, 1, 68, 0
2, 102920, Note_on_c, 1, 65, 127
2, 102920, Note_on_c, 1, 68, 127
2, 103040, Note_off_c, 1, 65, 0
2, 103040, Note_off_c, 1, 68, 0
2, 103080, Note_on_c, 1, 49, 127
2, 103080, Note_on_c, 1, 69, 127
2, 103160, Note_off_c, 1, 49, 0
2, 103160, Note_off_c, 1, 69, 0
2, 103200, Note_on_c, 1, 53, 127
2, 103200, Note_on_c, 1, 65, 127
2, 103200, Note_on_c, 1, 68, 127
2, 103320, Note_off_c, 1, 53, 0
2, 103360, Note_on_c, 1, 56, 127
2, 103480, Note_off_c, 1, 56, 0
2, 103480, Note_off_c, 1, 65, 0
2, 103480, Note_off_c, 1, 68, 0
2, 103520, Note_on_c, 1, 61, 127
2, 103520, Note_on_c, 1, 65, 127
2, 103520, Note_on_c, 1, 68, 127
2, 103640, Note_off_c, 1, 61, 0
2, 103680, Note_on_c, 1, 59, 127
2, 103760, Note_off_c, 1, 59, 0
2, 103760, Note_off_c, 1, 65, 0
2, 103760, Note_off_c, 1, 68, 0
2, 103800, Note_on_c, 1, 57, 127
2, 103800, Note_on_c, 1, 65, 127
2, 103800, Note_on_c, 1, 68, 127
2, 103920, Note_off_c, 1, 57, 0
2, 103960, Note_on_c, 1, 56, 127
2, 104080, Note_off_c, 1, 56, 0
2, 104080, Note_off_c, 1, 65, 0
2, 104080, Note_off_c, 1, 68, 0
2, 104120, Note_on_c, 1, 54, 127
2, 104120, Note_on_c, 1, 66, 127
2, 104120, Note_on_c, 1, 68, 127
2, 104240, Note_off_c, 1, 54, 0
2, 104240, Note_off_c, 1, 68, 0
2, 104280, Note_on_c, 1, 53, 127
2, 104280, Note_on_c, 1, 69, 127
2, 104360, Note_off_c, 1, 53, 0
2, 104360, Note_off_c, 1, 69, 0
2, 104400, Note_on_c, 1, 54, 127
2, 104400, Note_on_c, 1, 73, 127
2, 104520, Note_off_c, 1, 54, 0
2, 104560, Note_on_c, 1, 56, 127
2, 104680, Note_off_c, 1, 56, 0
2, 104680, Note_off_c, 1, 66, 0
2, 104680, Note_off_c, 1, 73, 0
2, 104720, Note_on_c, 1, 57, 127
2, 104720, Note_on_c, 1, 66, 127
2, 104840, Note_off_c, 1, 57, 0
2, 104880, Note_on_c, 1, 56, 127
2, 104960, Note_off_c, 1, 56, 0
2, 105000, Note_on_c, 1, 57, 127
2, 105000, Note_on_c, 1, 78, 127
2, 105120, Note_off_c, 1, 57, 0
2, 105160, Note_on_c, 1, 59, 127
2, 105280, Note_off_c, 1, 59, 0
2, 105280, Note_off_c, 1, 66, 0
2, 105280, Note_off_c, 1, 78, 0
2, 105320, Note_on_c, 1, 61, 127
2, 105320, Note_on_c, 1, 76, 127
2, 105440, Note_off_c, 1, 61, 0
2, 105440, Note_off_c, 1, 76, 0
2, 105480, Note_on_c, 1, 57, 127
2, 105480, Note_on_c, 1, 73, 127
2, 105560, Note_off_c, 1, 57, 0
2, 105560, Note_off_c, 1, 73, 0
2, 105600, Note_on_c, 1, 59, 127
2, 105600, Note_on_c, 1, 74, 127
2, 105720, Note_off_c, 1, 59, 0
2, 105720, Note_off_c, 1, 74, 0
2, 105760, Note_on_c, 1, 56, 127
2, 105760, Note_on_c, 1, 71, 127
2, 105880, Note_off_c, 1, 56, 0
2, 105880, Note_off_c, 1, 71, 0
2, 105920, Note_on_c, 1, 57, 127
2, 105920, Note_on_c, 1, 73, 127
2, 106040, Note_off_c, 1, 73, 0
2, 106080, Note_on_c, 1, 71, 127
2, 106160, Note_off_c, 1, 57, 0
2, 106160, Note_off_c, 1, 71, 0
2, 106200, Note_on_c, 1, 61, 127
2, 106200, Note_on_c, 1, 69, 127
2, 106320, Note_off_c, 1, 69, 0
2, 106360, Note_on_c, 1, 68, 127
2, 106480, Note_off_c, 1, 61, 0
2, 106480, Note_off_c, 1, 68, 0
2, 106520, Note_on_c, 1, 54, 127
2, 106520, Note_on_c, 1, 69, 127
2, 106640, Note_off_c, 1, 69, 0
2, 106680, Note_on_c, 1, 68, 127
2, 106760, Note_off_c, 1, 54, 0
2, 106760, Note_off_c, 1, 68, 0
2, 106800, Note_on_c, 1, 66, 127
2, 106800, Note_on_c, 1, 69, 127
2, 106960, Note_off_c, 1, 69, 0
2, 106960, Note_on_c, 1, 74, 127
2, 107080, Note_off_c, 1, 66, 0
2, 107080, Note_off_c, 1, 74, 0
2, 107120, Note_on_c, 1, 64, 127
2, 107120, Note_on_c, 1, 68, 127
2, 107240, Note_off_c, 1, 64, 0
2, 107280, Note_on_c, 1, 61, 127
2, 107280, Note_off_c, 1, 68, 0
2, 107280, Note_on_c, 1, 73, 127
2, 107360, Note_off_c, 1, 61, 0
2, 107360, Note_off_c, 1, 73, 0
2, 107400, Note_on_c, 1, 62, 127
2, 107400, Note_on_c, 1, 66, 127
2, 107520, Note_off_c, 1, 62, 0
2, 107560, Note_on_c, 1, 59, 127
2, 107560, Note_off_c, 1, 66, 0
2, 107560, Note_on_c, 1, 71, 127
2, 107680, Note_off_c, 1, 59, 0
2, 107680, Note_off_c, 1, 71, 0
2, 107720, Note_on_c, 1, 61, 127
2, 107720, Note_on_c, 1, 65, 127
2, 107840, Note_off_c, 1, 65, 0
2, 107880, Note_on_c, 1, 71, 127
2, 107960, Note_off_c, 1, 61, 0
2, 107960, Note_off_c, 1, 71, 0
2, 108000, Note_on_c, 1, 49, 127
2, 108000, Note_on_c, 1, 68, 127
2, 108120, Note_off_c, 1, 68, 0
2, 108160, Note_on_c, 1, 65, 127
2, 108280, Note_off_c, 1, 49, 0
2, 108280, Note_off_c, 1, 65, 0
2, 108320, Note_on_c, 1, 53, 127
2, 108320, Note_on_c, 1, 71, 127
2, 108440, Note_off_c, 1, 71, 0
2, 108480, Note_on_c, 1, 68, 127
2, 108560, Note_off_c, 1, 53, 0
2, 108560, Note_off_c, 1, 68, 0
2, 108600, Note_on_c, 1, 56, 127
2, 108600, Note_on_c, 1, 65, 127
2, 108720, Note_off_c, 1, 65, 0
2, 108760, Note_on_c, 1, 68, 127
2, 108880, Note_off_c, 1, 56, 0
2, 108880, Note_off_c, 1, 68, 0
2, 108920, Note_on_c, 1, 53, 127
2, 108920, Note_on_c, 1, 61, 127
2, 109040, Note_off_c, 1, 61, 0
2, 109080, Note_on_c, 1, 71, 127
2, 109160, Note_off_c, 1, 53, 0
2, 109160, Note_off_c, 1, 71, 0
2, 109200, Note_on_c, 1, 49, 127
2, 109200, Note_on_c, 1, 69, 127
2, 109320, Note_off_c, 1, 69, 0
2, 109360, Note_on_c, 1, 68, 127
2, 109480, Note_off_c, 1, 49, 0
2, 109480, Note_off_c, 1, 68, 0
2, 109520, Note_on_c, 1, 54, 127
2, 109520, Note_on_c, 1, 69, 127
2, 109760, Note_off_c, 1, 54, 0
2, 109760, Note_off_c, 1, 69, 0
2, 109800, Note_on_c, 1, 42, 127
2, 109800, Note_on_c, 1, 57, 127
2, 109800, Note_on_c, 1, 61, 127
2, 110080, Note_off_c, 1, 57, 0
2, 110080, Note_off_c, 1, 61, 0
2, 110120, Note_on_c, 1, 57, 127
2, 110120, Note_on_c, 1, 61, 127
2, 110240, Note_off_c, 1, 42, 0
2, 110240, Note_off_c, 1, 57, 0
2, 110240, Note_off_c, 1, 61, 0
2, 110280, Note_on_c, 1, 42, 127
2, 110280, Note_on_c, 1, 62, 127
2, 110360, Note_off_c, 1, 42, 0
2, 110360, Note_off_c, 1, 62, 0
2, 110400, Note_on_c, 1, 45, 127
2, 110400, Note_on_c, 1, 57, 127
2, 110400, Note_on_c, 1, 61, 127
2, 110520, Note_off_c, 1, 45, 0
2, 110560, Note_on_c, 1, 49, 127
2, 110680, Note_off_c, 1, 49, 0
2, 110680, Note_off_c, 1, 57, 0
2, 110680, Note_off_c, 1, 61, 0
2, 110720, Note_on_c, 1, 54, 127
2, 110720, Note_on_c, 1, 57, 127
2, 110720, Note_on_c, 1, 61, 127
2, 110840, Note_off_c, 1, 54, 0
2, 110880, Note_on_c, 1, 52, 127
2, 110960, Note_off_c, 1, 52, 0
2, 110960, Note_off_c, 1, 57, 0
2, 110960, Note_off_c, 1, 61, 0
2, 111000, Note_on_c, 1, 50, 127
2, 111000, Note_on_c, 1, 57, 127
2, 111000, Note_on_c, 1, 61, 127
2, 111120, Note_off_c, 1, 50, 0
2, 111160, Note_on_c, 1, 49, 127
2, 111280, Note_off_c, 1, 49, 0
2, 111280, Note_off_c, 1, 57, 0
2, 111280, Note_off_c, 1, 61, 0
2, 111320, Note_on_c, 1, 47, 127
2, 111320, Note_on_c, 1, 57, 127
2, 111320, Note_on_c, 1, 61, 127
2, 111440, Note_off_c, 1, 57, 0
2, 111440, Note_off_c, 1, 61, 0
2, 111480, Note_on_c, 1, 62, 127
2, 111560, Note_off_c, 1, 62, 0
2, 111600, Note_on_c, 1, 56, 127
2, 111600, Note_on_c, 1, 59, 127
2, 111880, Note_off_c, 1, 47, 0
2, 111880, Note_off_c, 1, 56, 0
2, 111880, Note_off_c, 1, 59, 0
2, 111920, Note_on_c, 1, 56, 127
2, 111920, Note_on_c, 1, 59, 127
2, 112040, Note_off_c, 1, 56, 0
2, 112040, Note_off_c, 1, 59, 0
2, 112080, Note_on_c, 1, 40, 127
2, 112080, Note_on_c, 1, 61, 127
2, 112160, Note_off_c, 1, 40, 0
2, 112160, Note_off_c, 1, 61, 0
2, 112200, Note_on_c, 1, 44, 127
2, 112200, Note_on_c, 1, 56, 127
2, 112200, Note_on_c, 1, 59, 127
2, 112320, Note_off_c, 1, 44, 0
2, 112360, Note_on_c, 1, 47, 127
2, 112480, Note_off_c, 1, 47, 0
2, 112480, Note_off_c, 1, 56, 0
2, 112480, Note_off_c, 1, 59, 0
2, 112520, Note_on_c, 1, 52, 127
2, 112520, Note_on_c, 1, 56, 127
2, 112520, Note_on_c, 1, 59, 127
2, 112640, Note_off_c, 1, 52, 0
2, 112680, Note_on_c, 1, 50, 127
2, 112760, Note_off_c, 1, 50, 0
2, 112760, Note_off_c, 1, 56, 0
2, 112760, Note_off_c, 1, 59, 0
2, 112800, Note_on_c, 1, 49, 127
2, 112800, Note_on_c, 1, 56, 127
2, 112800, Note_on_c, 1, 59, 127
2, 112920, Note_off_c, 1, 49, 0
2, 112960, Note_on_c, 1, 47, 127
2, 113080, Note_off_c, 1, 47, 0
2, 113080, Note_off_c, 1, 56, 0
2, 113080, Note_off_c, 1, 59, 0
2, 113120, Note_on_c, 1, 45, 127
2, 113120, Note_on_c, 1, 57, 127
2, 113120, Note_on_c, 1, 59, 127
2, 113240, Note_off_c, 1, 57, 0
2, 113240, Note_off_c, 1, 59, 0
2, 113280, Note_on_c, 1, 61, 127
2, 113360, Note_off_c, 1, 61, 0
2, 113400, Note_on_c, 1, 61, 127
2, 113400, Note_on_c, 1, 64, 127
2, 113680, Note_off_c, 1, 61, 0
2, 113680, Note_off_c, 1, 64, 0
2, 113720, Note_on_c, 1, 61, 127
2, 113720, Note_on_c, 1, 64, 127
2, 113840, Note_off_c, 1, 45, 0
2, 113840, Note_off_c, 1, 61, 0
2, 113840, Note_off_c, 1, 64, 0
2, 113880, Note_on_c, 1, 45, 127
2, 113880, Note_on_c, 1, 66, 127
2, 113960, Note_off_c, 1, 45, 0
2, 113960, Note_off_c, 1, 66, 0
2, 114000, Note_on_c, 1, 49, 127
2, 114000, Note_on_c, 1, 61, 127
2, 114000, Note_on_c, 1, 64, 127
2, 114120, Note_off_c, 1, 49, 0
2, 114160, Note_on_c, 1, 52, 127
2, 114280, Note_off_c, 1, 52, 0
2, 114280, Note_off_c, 1, 61, 0
2, 114280, Note_off_c, 1, 64, 0
2, 114320, Note_on_c, 1, 57, 127
2, 114320, Note_on_c, 1, 61, 127
2, 114320, Note_on_c, 1, 64, 127
2, 114440, Note_off_c, 1, 57, 0
2, 114480, Note_on_c, 1, 56, 127
2, 114560, Note_off_c, 1, 56, 0
2, 114560, Note_off_c, 1, 61, 0
2, 114560, Note_off_c, 1, 64, 0
2, 114600, Note_on_c, 1, 54, 127
2, 114600, Note_on_c, 1, 61, 127
2, 114600, Note_on_c, 1, 64, 127
2, 114720, Note_off_c, 1, 54, 0
2, 114760, Note_on_c, 1, 52, 127
2, 114880, Note_off_c, 1, 52, 0
2, 114880, Note_off_c, 1, 61, 0
2, 114880, Note_off_c, 1, 64, 0
2, 114920, Note_on_c, 1, 51, 127
2, 114920, Note_on_c, 1, 61, 127
2, 114920, Note_on_c, 1, 64, 127
2, 115040, Note_off_c, 1, 61, 0
2, 115040, Note_off_c, 1, 64, 0
2, 115080, Note_on_c, 1, 66, 127
2, 115160, Note_off_c, 1, 66, 0
2, 115200, Note_on_c, 1, 60, 127
2, 115200, Note_on_c, 1, 63, 127
2, 115480, Note_off_c, 1, 51, 0
2, 115480, Note_off_c, 1, 60, 0
2, 115480, Note_off_c, 1, 63, 0
2, 115520, Note_on_c, 1, 60, 127
2, 115520, Note_on_c, 1, 63, 127
2, 115640, Note_off_c, 1, 60, 0
2, 115640, Note_off_c, 1, 63, 0
2, 115680, Note_on_c, 1, 44, 127
2, 115680, Note_on_c, 1, 64, 127
2, 115760, Note_off_c, 1, 44, 0
2, 115760, Note_off_c, 1, 64, 0
2, 115800, Note_on_c, 1, 48, 127
2, 115800, Note_on_c, 1, 60, 127
2, 115800, Note_on_c, 1, 63, 127
2, 115920, Note_off_c, 1, 48, 0
2, 115960, Note_on_c, 1, 51, 127
2, 116080, Note_off_c, 1, 51, 0
2, 116080, Note_off_c, 1, 60, 0
2, 116080, Note_off_c, 1, 63, 0
2, 116120, Note_on_c, 1, 56, 127
2, 116120, Note_on_c, 1, 60, 127
2, 116120, Note_on_c, 1, 63, 127
2, 116240, Note_off_c, 1, 56, 0
2, 116280, Note_on_c, 1, 54, 127
2, 116360, Note_off_c, 1, 54, 0
2, 116360, Note_off_c, 1, 60, 0
2, 116360, Note_off_c, 1, 63, 0
2, 116400, Note_on_c, 1, 52, 127
2, 116400, Note_on_c, 1, 60, 127
2, 116400, Note_on_c, 1, 63, 127
2, 116520, Note_off_c, 1, 52, 0
2, 116560, Note_on_c, 1, 51, 127
2, 116680, Note_off_c, 1, 51, 0
2, 116680, Note_off_c, 1, 60, 0
2, 116680, Note_off_c, 1, 63, 0
2, 116720, Note_on_c, 1, 49, 127
2, 116720, Note_on_c, 1, 61, 127
2, 116720, Note_on_c, 1, 64, 127
2, 116840, Note_off_c, 1, 61, 0
2, 116840, Note_off_c, 1, 64, 0
2, 116880, Note_on_c, 1, 61, 127
2, 116960, Note_off_c, 1, 61, 0
2, 117000, Note_on_c, 1, 64, 127
2, 117120, Note_off_c, 1, 64, 0
2, 117160, Note_on_c, 1, 68, 127
2, 117280, Note_off_c, 1, 68, 0
2, 117320, Note_on_c, 1, 73, 127
2, 117360, Note_off_c, 1, 49, 0
2, 117440, Note_off_c, 1, 73, 0
2, 117480, Note_on_c, 1, 49, 127
2, 117480, Note_on_c, 1, 64, 127
2, 117560, Note_off_c, 1, 49, 0
2, 117560, Note_off_c, 1, 64, 0
2, 117600, Note_on_c, 1, 52, 127
2, 117600, Note_on_c, 1, 68, 127
2, 117720, Note_off_c, 1, 52, 0
2, 117720, Note_off_c, 1, 68, 0
2, 117760, Note_on_c, 1, 56, 127
2, 117760, Note_on_c, 1, 73, 127
2, 117880, Note_off_c, 1, 56, 0
2, 117880, Note_off_c, 1, 73, 0
2, 117920, Note_on_c, 1, 61, 127
2, 117920, Note_on_c, 1, 76, 127
2, 118040, Note_off_c, 1, 61, 0
2, 118080, Note_on_c, 1, 59, 127
2, 118160, Note_off_c, 1, 59, 0
2, 118160, Note_off_c, 1, 76, 0
2, 118200, Note_on_c, 1, 58, 127
2, 118200, Note_on_c, 1, 68, 127
2, 118200, Note_on_c, 1, 73, 127
2, 118200, Note_on_c, 1, 76, 127
2, 118320, Note_off_c, 1, 58, 0
2, 118360, Note_on_c, 1, 56, 127
2, 118480, Note_off_c, 1, 56, 0
2, 118480, Note_off_c, 1, 68, 0
2, 118480, Note_off_c, 1, 73, 0
2, 118480, Note_off_c, 1, 76, 0
2, 118520, Note_on_c, 1, 54, 127
2, 118520, Note_on_c, 1, 70, 127
2, 118520, Note_on_c, 1, 73, 127
2, 118520, Note_on_c, 1, 76, 127
2, 118680, Note_on_c, 1, 66, 127
2, 118760, Note_off_c, 1, 54, 0
2, 118760, Note_off_c, 1, 66, 0
2, 118760, Note_off_c, 1, 70, 0
2, 118800, Note_on_c, 1, 42, 127
2, 118800, Note_on_c, 1, 70, 127
2, 118920, Note_off_c, 1, 70, 0
2, 118920, Note_off_c, 1, 73, 0
2, 118960, Note_on_c, 1, 73, 127
2, 119080, Note_off_c, 1, 42, 0
2, 119080, Note_off_c, 1, 73, 0
2, 119080, Note_off_c, 1, 76, 0
2, 119120, Note_on_c, 1, 46, 127
2, 119120, Note_on_c, 1, 76, 127
2, 119240, Note_off_c, 1, 76, 0
2, 119280, Note_on_c, 1, 73, 127
2, 119360, Note_off_c, 1, 46, 0
2, 119360, Note_off_c, 1, 73, 0
2, 119400, Note_on_c, 1, 49, 127
2, 119400, Note_on_c, 1, 70, 127
2, 119520, Note_off_c, 1, 70, 0
2, 119560, Note_on_c, 1, 73, 127
2, 119680, Note_off_c, 1, 49, 0
2, 119680, Note_off_c, 1, 73, 0
2, 119720, Note_on_c, 1, 46, 127
2, 119720, Note_on_c, 1, 66, 127
2, 119880, Note_on_c, 1, 76, 127
2, 119960, Note_off_c, 1, 46, 0
2, 119960, Note_off_c, 1, 66, 0
2, 119960, Note_off_c, 1, 76, 0
2, 120000, Note_on_c, 1, 42, 127
2, 120000, Note_on_c, 1, 74, 127
2, 120120, Note_off_c, 1, 74, 0
2, 120160, Note_on_c, 1, 73, 127
2, 120280, Note_off_c, 1, 42, 0
2, 120280, Note_off_c, 1, 73, 0
2, 120320, Note_on_c, 1, 47, 127
2, 120320, Note_on_c, 1, 74, 127
2, 120400, Note_off_c, 1, 74, 0
2, 120480, Note_on_c, 1, 59, 127
2, 120560, Note_off_c, 1, 59, 0
2, 120600, Note_on_c, 1, 62, 127
2, 120720, Note_off_c, 1, 62, 0
2, 120760, Note_on_c, 1, 66, 127
2, 120880, Note_off_c, 1, 66, 0
2, 120920, Note_on_c, 1, 71, 127
2, 121040, Note_off_c, 1, 47, 0
2, 121040, Note_off_c, 1, 71, 0
2, 121080, Note_on_c, 1, 47, 127
2, 121080, Note_on_c, 1, 62, 127
2, 121160, Note_off_c, 1, 47, 0
2, 121160, Note_off_c, 1, 62, 0
2, 121200, Note_on_c, 1, 50, 127
2, 121200, Note_on_c, 1, 66, 127
2, 121320, Note_off_c, 1, 50, 0
2, 121320, Note_off_c, 1, 66, 0
2, 121360, Note_on_c, 1, 54, 127
2, 121360, Note_on_c, 1, 71, 127
2, 121480, Note_off_c, 1, 54, 0
2, 121480, Note_off_c, 1, 71, 0
2, 121520, Note_on_c, 1, 59, 127
2, 121520, Note_on_c, 1, 74, 127
2, 121640, Note_off_c, 1, 59, 0
2, 121680, Note_on_c, 1, 57, 127
2, 121760, Note_off_c, 1, 57, 0
2, 121760, Note_off_c, 1, 74, 0
2, 121800, Note_on_c, 1, 56, 127
2, 121800, Note_on_c, 1, 66, 127
2, 121800, Note_on_c, 1, 71, 127
2, 121800, Note_on_c, 1, 74, 127
2, 121920, Note_off_c, 1, 56, 0
2, 121960, Note_on_c, 1, 54, 127
2, 122080, Note_off_c, 1, 54, 0
2, 122080, Note_off_c, 1, 66, 0
2, 122080, Note_off_c, 1, 71, 0
2, 122080, Note_off_c, 1, 74, 0
2, 122120, Note_on_c, 1, 52, 127
2, 122120, Note_on_c, 1, 68, 127
2, 122120, Note_on_c, 1, 71, 127
2, 122120, Note_on_c, 1, 74, 127
2, 122280, Note_on_c, 1, 64, 127
2, 122360, Note_off_c, 1, 52, 0
2, 122360, Note_off_c, 1, 64, 0
2, 122360, Note_off_c, 1, 68, 0
2, 122400, Note_on_c, 1, 40, 127
2, 122400, Note_on_c, 1, 68, 127
2, 122520, Note_off_c, 1, 68, 0
2, 122520, Note_off_c, 1, 71, 0
2, 122560, Note_on_c, 1, 71, 127
2, 122680, Note_off_c, 1, 40, 0
2, 122680, Note_off_c, 1, 71, 0
2, 122680, Note_off_c, 1, 74, 0
2, 122720, Note_on_c, 1, 44, 127
2, 122720, Note_on_c, 1, 74, 127
2, 122840, Note_off_c, 1, 74, 0
2, 122880, Note_on_c, 1, 71, 127
2, 122960, Note_off_c, 1, 44, 0
2, 122960, Note_off_c, 1, 71, 0
2, 123000, Note_on_c, 1, 47, 127
2, 123000, Note_on_c, 1, 68, 127
2, 123120, Note_off_c, 1, 68, 0
2, 123160, Note_on_c, 1, 71, 127
2, 123280, Note_off_c, 1, 47, 0
2, 123280, Note_off_c, 1, 71, 0
2, 123320, Note_on_c, 1, 44, 127
2, 123320, Note_on_c, 1, 64, 127
2, 123480, Note_on_c, 1, 74, 127
2, 123560, Note_off_c, 1, 44, 0
2, 123560, Note_off_c, 1, 64, 0
2, 123560, Note_off_c, 1, 74, 0
2, 123600, Note_on_c, 1, 40, 127
2, 123600, Note_on_c, 1, 73, 127
2, 123720, Note_off_c, 1, 73, 0
2, 123760, Note_on_c, 1, 71, 127
2, 123880, Note_off_c, 1, 40, 0
2, 123880, Note_off_c, 1, 71, 0
2, 123920, Note_on_c, 1, 45, 127
2, 123920, Note_on_c, 1, 73, 127
2, 124080, Note_on_c, 1, 68, 127
2, 124160, Note_off_c, 1, 45, 0
2, 124160, Note_off_c, 1, 68, 0
2, 124200, Note_on_c, 1, 57, 127
2, 124200, Note_on_c, 1, 69, 127
2, 124320, Note_off_c, 1, 69, 0
2, 124320, Note_off_c, 1, 73, 0
2, 124360, Note_on_c, 1, 73, 127
2, 124480, Note_off_c, 1, 57, 0
2, 124520, Note_on_c, 1, 57, 127
2, 124520, Note_on_c, 1, 64, 127
2, 124640, Note_off_c, 1, 57, 0
2, 124640, Note_off_c, 1, 64, 0
2, 124680, Note_on_c, 1, 59, 127
2, 124680, Note_on_c, 1, 68, 127
2, 124760, Note_off_c, 1, 59, 0
2, 124760, Note_off_c, 1, 68, 0
2, 124800, Note_on_c, 1, 57, 127
2, 124800, Note_on_c, 1, 69, 127
2, 124920, Note_off_c, 1, 69, 0
2, 124920, Note_off_c, 1, 73, 0
2, 124960, Note_on_c, 1, 73, 127
2, 125080, Note_off_c, 1, 57, 0
2, 125120, Note_on_c, 1, 57, 127
2, 125120, Note_on_c, 1, 64, 127
2, 125240, Note_off_c, 1, 64, 0
2, 125280, Note_on_c, 1, 68, 127
2, 125360, Note_off_c, 1, 57, 0
2, 125360, Note_off_c, 1, 68, 0
2, 125400, Note_on_c, 1, 57, 127
2, 125400, Note_on_c, 1, 69, 127
2, 125520, Note_off_c, 1, 69, 0
2, 125520, Note_off_c, 1, 73, 0
2, 125560, Note_on_c, 1, 73, 127
2, 125680, Note_off_c, 1, 57, 0
2, 125680, Note_off_c, 1, 73, 0
2, 125720, Note_on_c, 1, 47, 127
2, 125720, Note_on_c, 1, 74, 127
2, 125880, Note_on_c, 1, 68, 127
2, 125960, Note_off_c, 1, 47, 0
2, 125960, Note_off_c, 1, 68, 0
2, 126000, Note_on_c, 1, 57, 127
2, 126000, Note_on_c, 1, 69, 127
2, 126120, Note_off_c, 1, 69, 0
2, 126120, Note_off_c, 1, 74, 0
2, 126160, Note_on_c, 1, 74, 127
2, 126280, Note_off_c, 1, 57, 0
2, 126320, Note_on_c, 1, 57, 127
2, 126320, Note_on_c, 1, 64, 127
2, 126440, Note_off_c, 1, 57, 0
2, 126440, Note_off_c, 1, 64, 0
2, 126480, Note_on_c, 1, 59, 127
2, 126480, Note_on_c, 1, 68, 127
2, 126560, Note_off_c, 1, 59, 0
2, 126560, Note_off_c, 1, 68, 0
2, 126600, Note_on_c, 1, 57, 127
2, 126600, Note_on_c, 1, 69, 127
2, 126720, Note_off_c, 1, 69, 0
2, 126720, Note_off_c, 1, 74, 0
2, 126760, Note_on_c, 1, 74, 127
2, 126880, Note_off_c, 1, 57, 0
2, 126920, Note_on_c, 1, 57, 127
2, 126920, Note_on_c, 1, 64, 127
2, 127040, Note_off_c, 1, 64, 0
2, 127080, Note_on_c, 1, 68, 127
2, 127160, Note_off_c, 1, 57, 0
2, 127160, Note_off_c, 1, 68, 0
2, 127200, Note_on_c, 1, 57, 127
2, 127200, Note_on_c, 1, 69, 127
2, 127320, Note_off_c, 1, 69, 0
2, 127320, Note_off_c, 1, 74, 0
2, 127360, Note_on_c, 1, 74, 127
2, 127480, Note_off_c, 1, 57, 0
2, 127480, Note_off_c, 1, 74, 0
2, 127520, Note_on_c, 1, 49, 127
2, 127520, Note_on_c, 1, 76, 127
2, 127680, Note_on_c, 1, 68, 127
2, 127760, Note_off_c, 1, 49, 0
2, 127760, Note_off_c, 1, 68, 0
2, 127800, Note_on_c, 1, 57, 127
2, 127800, Note_on_c, 1, 69, 127
2, 127920, Note_off_c, 1, 69, 0
2, 127920, Note_off_c, 1, 76, 0
2, 127960, Note_on_c, 1, 76, 127
2, 128080, Note_off_c, 1, 57, 0
2, 128120, Note_on_c, 1, 57, 127
2, 128120, Note_on_c, 1, 64, 127
2, 128240, Note_off_c, 1, 57, 0
2, 128240, Note_off_c, 1, 64, 0
2, 128280, Note_on_c, 1, 59, 127
2, 128280, Note_on_c, 1, 68, 127
2, 128360, Note_off_c, 1, 59, 0
2, 128360, Note_off_c, 1, 68, 0
2, 128400, Note_on_c, 1, 57, 127
2, 128400, Note_on_c, 1, 69, 127
2, 128520, Note_off_c, 1, 69, 0
2, 128520, Note_off_c, 1, 76, 0
2, 128560, Note_on_c, 1, 76, 127
2, 128680, Note_off_c, 1, 57, 0
2, 128720, Note_on_c, 1, 57, 127
2, 128720, Note_on_c, 1, 64, 127
2, 128840, Note_off_c, 1, 64, 0
2, 128880, Note_on_c, 1, 68, 127
2, 128960, Note_off_c, 1, 57, 0
2, 128960, Note_off_c, 1, 68, 0
2, 129000, Note_on_c, 1, 57, 127
2, 129000, Note_on_c, 1, 69, 127
2, 129120, Note_off_c, 1, 69, 0
2, 129120, Note_off_c, 1, 76, 0
2, 129160, Note_on_c, 1, 76, 127
2, 129280, Note_off_c, 1, 57, 0
2, 129320, Note_on_c, 1, 50, 127
2, 129320, Note_on_c, 1, 66, 127
2, 129440, Note_off_c, 1, 66, 0
2, 129480, Note_on_c, 1, 64, 127
2, 129560, Note_off_c, 1, 50, 0
2, 129560, Note_off_c, 1, 64, 0
2, 129560, Note_off_c, 1, 76, 0
2, 129600, Note_on_c, 1, 57, 127
2, 129600, Note_on_c, 1, 66, 127
2, 129760, Note_on_c, 1, 76, 127
2, 129880, Note_off_c, 1, 57, 0
2, 129880, Note_off_c, 1, 66, 0
2, 129920, Note_on_c, 1, 57, 127
2, 129920, Note_on_c, 1, 66, 127
2, 129960, Note_off_c, 1, 76, 0
2, 130040, Note_off_c, 1, 57, 0
2, 130040, Note_off_c, 1, 66, 0
2, 130080, Note_on_c, 1, 59, 127
2, 130080, Note_on_c, 1, 64, 127
2, 130160, Note_off_c, 1, 59, 0
2, 130160, Note_off_c, 1, 64, 0
2, 130200, Note_on_c, 1, 57, 127
2, 130200, Note_on_c, 1, 66, 127
2, 130360, Note_on_c, 1, 76, 127
2, 130480, Note_off_c, 1, 57, 0
2, 130480, Note_off_c, 1, 66, 0
2, 130520, Note_on_c, 1, 57, 127
2, 130520, Note_on_c, 1, 66, 127
2, 130560, Note_off_c, 1, 76, 0
2, 130640, Note_off_c, 1, 66, 0
2, 130680, Note_on_c, 1, 64, 127
2, 130760, Note_off_c, 1, 57, 0
2, 130760, Note_off_c, 1, 64, 0
2, 130800, Note_on_c, 1, 57, 127
2, 130800, Note_on_c, 1, 66, 127
2, 130960, Note_on_c, 1, 76, 127
2, 131080, Note_off_c, 1, 57, 0
2, 131080, Note_off_c, 1, 66, 0
2, 131120, Note_on_c, 1, 50, 127
2, 131120, Note_on_c, 1, 66, 127
2, 131160, Note_off_c, 1, 76, 0
2, 131240, Note_off_c, 1, 66, 0
2, 131280, Note_on_c, 1, 64, 127
2, 131360, Note_off_c, 1, 50, 0
2, 131360, Note_off_c, 1, 64, 0
2, 131400, Note_on_c, 1, 59, 127
2, 131400, Note_on_c, 1, 66, 127
2, 131560, Note_on_c, 1, 74, 127
2, 131680, Note_off_c, 1, 59, 0
2, 131680, Note_off_c, 1, 66, 0
2, 131720, Note_on_c, 1, 59, 127
2, 131720, Note_on_c, 1, 66, 127
2, 131760, Note_off_c, 1, 74, 0
2, 131840, Note_off_c, 1, 59, 0
2, 131840, Note_off_c, 1, 66, 0
2, 131880, Note_on_c, 1, 61, 127
2, 131880, Note_on_c, 1, 64, 127
2, 131960, Note_off_c, 1, 61, 0
2, 131960, Note_off_c, 1, 64, 0
2, 132000, Note_on_c, 1, 59, 127
2, 132000, Note_on_c, 1, 66, 127
2, 132160, Note_on_c, 1, 74, 127
2, 132280, Note_off_c, 1, 59, 0
2, 132280, Note_off_c, 1, 66, 0
2, 132320, Note_on_c, 1, 59, 127
2, 132320, Note_on_c, 1, 66, 127
2, 132360, Note_off_c, 1, 74, 0
2, 132440, Note_off_c, 1, 66, 0
2, 132480, Note_on_c, 1, 64, 127
2, 132560, Note_off_c, 1, 59, 0
2, 132560, Note_off_c, 1, 64, 0
2, 132600, Note_on_c, 1, 59, 127
2, 132600, Note_on_c, 1, 66, 127
2, 132760, Note_on_c, 1, 74, 127
2, 132880, Note_off_c, 1, 59, 0
2, 132880, Note_off_c, 1, 66, 0
2, 132920, Note_on_c, 1, 52, 127
2, 132920, Note_on_c, 1, 68, 127
2, 132960, Note_off_c, 1, 74, 0
2, 133040, Note_off_c, 1, 68, 0
2, 133080, Note_on_c, 1, 66, 127
2, 133160, Note_off_c, 1, 52, 0
2, 133160, Note_off_c, 1, 66, 0
2, 133200, Note_on_c, 1, 59, 127
2, 133200, Note_on_c, 1, 68, 127
2, 133360, Note_on_c, 1, 74, 127
2, 133480, Note_off_c, 1, 59, 0
2, 133480, Note_off_c, 1, 68, 0
2, 133520, Note_on_c, 1, 59, 127
2, 133520, Note_on_c, 1, 68, 127
2, 133600, Note_off_c, 1, 74, 0
2, 133640, Note_off_c, 1, 59, 0
2, 133640, Note_off_c, 1, 68, 0
2, 133680, Note_on_c, 1, 61, 127
2, 133680, Note_on_c, 1, 66, 127
2, 133760, Note_off_c, 1, 61, 0
2, 133760, Note_off_c, 1, 66, 0
2, 133800, Note_on_c, 1, 59, 127
2, 133800, Note_on_c, 1, 68, 127
2, 133960, Note_on_c, 1, 74, 127
2, 134080, Note_off_c, 1, 59, 0
2, 134080, Note_off_c, 1, 68, 0
2, 134120, Note_on_c, 1, 59, 127
2, 134120, Note_on_c, 1, 68, 127
2, 134200, Note_off_c, 1, 74, 0
2, 134240, Note_off_c, 1, 68, 0
2, 134280, Note_on_c, 1, 66, 127
2, 134360, Note_off_c, 1, 59, 0
2, 134360, Note_off_c, 1, 66, 0
2, 134400, Note_on_c, 1, 59, 127
2, 134400, Note_on_c, 1, 68, 127
2, 134560, Note_on_c, 1, 74, 127
2, 134680, Note_off_c, 1, 59, 0
2, 134680, Note_off_c, 1, 68, 0
2, 134720, Note_on_c, 1, 52, 127
2, 134720, Note_on_c, 1, 69, 127
2, 134800, Note_off_c, 1, 74, 0
2, 134840, Note_off_c, 1, 69, 0
2, 134880, Note_on_c, 1, 68, 127
2, 134960, Note_off_c, 1, 52, 0
2, 134960, Note_off_c, 1, 68, 0
2, 135000, Note_on_c, 1, 61, 127
2, 135000, Note_on_c, 1, 69, 127
2, 135160, Note_on_c, 1, 73, 127
2, 135280, Note_off_c, 1, 61, 0
2, 135280, Note_off_c, 1, 69, 0
2, 135280, Note_off_c, 1, 73, 0
2, 135320, Note_on_c, 1, 61, 127
2, 135320, Note_on_c, 1, 69, 127
2, 135440, Note_off_c, 1, 61, 0
2, 135440, Note_off_c, 1, 69, 0
2, 135480, Note_on_c, 1, 62, 127
2, 135480, Note_on_c, 1, 68, 127
2, 135560, Note_off_c, 1, 62, 0
2, 135560, Note_off_c, 1, 68, 0
2, 135600, Note_on_c, 1, 61, 127
2, 135600, Note_on_c, 1, 69, 127
2, 135760, Note_on_c, 1, 73, 127
2, 135880, Note_off_c, 1, 61, 0
2, 135880, Note_off_c, 1, 69, 0
2, 135880, Note_off_c, 1, 73, 0
2, 135920, Note_on_c, 1, 61, 127
2, 135920, Note_on_c, 1, 69, 127
2, 136040, Note_off_c, 1, 69, 0
2, 136080, Note_on_c, 1, 68, 127
2, 136160, Note_off_c, 1, 61, 0
2, 136160, Note_off_c, 1, 68, 0
2, 136200, Note_on_c, 1, 61, 127
2, 136200, Note_on_c, 1, 69, 127
2, 136360, Note_on_c, 1, 73, 127
2, 136480, Note_off_c, 1, 61, 0
2, 136480, Note_off_c, 1, 69, 0
2, 136480, Note_off_c, 1, 73, 0
2, 136520, Note_on_c, 1, 52, 127
2, 136520, Note_on_c, 1, 69, 127
2, 136640, Note_off_c, 1, 69, 0
2, 136680, Note_on_c, 1, 68, 127
2, 136760, Note_off_c, 1, 52, 0
2, 136760, Note_off_c, 1, 68, 0
2, 136800, Note_on_c, 1, 63, 127
2, 136800, Note_on_c, 1, 69, 127
2, 136960, Note_on_c, 1, 78, 127
2, 137080, Note_off_c, 1, 63, 0
2, 137080, Note_off_c, 1, 69, 0
2, 137120, Note_on_c, 1, 63, 127
2, 137120, Note_on_c, 1, 69, 127
2, 137200, Note_off_c, 1, 78, 0
2, 137240, Note_off_c, 1, 63, 0
2, 137240, Note_off_c, 1, 69, 0
2, 137280, Note_on_c, 1, 64, 127
2, 137280, Note_on_c, 1, 68, 127
2, 137360, Note_off_c, 1, 64, 0
2, 137360, Note_off_c, 1, 68, 0
2, 137400, Note_on_c, 1, 63, 127
2, 137400, Note_on_c, 1, 69, 127
2, 137560, Note_on_c, 1, 78, 127
2, 137680, Note_off_c, 1, 63, 0
2, 137680, Note_off_c, 1, 69, 0
2, 137720, Note_on_c, 1, 63, 127
2, 137720, Note_on_c, 1, 69, 127
2, 137800, Note_off_c, 1, 78, 0
2, 137840, Note_off_c, 1, 69, 0
2, 137880, Note_on_c, 1, 68, 127
2, 137960, Note_off_c, 1, 63, 0
2, 137960, Note_off_c, 1, 68, 0
2, 138000, Note_on_c, 1, 63, 127
2, 138000, Note_on_c, 1, 69, 127
2, 138160, Note_on_c, 1, 78, 127
2, 138240, Note_off_c, 1, 69, 0
2, 138240, Note_off_c, 1, 78, 0
2, 138280, Note_off_c, 1, 63, 0
2, 138320, Note_on_c, 1, 52, 127
2, 138320, Note_on_c, 1, 68, 127
2, 138440, Note_off_c, 1, 68, 0
2, 138480, Note_on_c, 1, 64, 127
2, 138560, Note_off_c, 1, 52, 0
2, 138560, Note_off_c, 1, 64, 0
2, 138600, Note_on_c, 1, 64, 127
2, 138600, Note_on_c, 1, 68, 127
2, 138720, Note_off_c, 1, 64, 0
2, 138720, Note_off_c, 1, 68, 0
2, 138760, Note_on_c, 1, 62, 127
2, 138760, Note_on_c, 1, 71, 127
2, 138880, Note_off_c, 1, 62, 0
2, 138880, Note_off_c, 1, 71, 0
2, 138920, Note_on_c, 1, 61, 127
2, 138920, Note_on_c, 1, 76, 127
2, 139080, Note_on_c, 1, 66, 127
2, 139160, Note_off_c, 1, 61, 0
2, 139160, Note_off_c, 1, 66, 0
2, 139200, Note_on_c, 1, 59, 127
2, 139200, Note_on_c, 1, 67, 127
2, 139320, Note_off_c, 1, 67, 0
2, 139360, Note_on_c, 1, 64, 127
2, 139480, Note_off_c, 1, 59, 0
2, 139480, Note_off_c, 1, 64, 0
2, 139480, Note_off_c, 1, 76, 0
2, 139520, Note_on_c, 1, 61, 127
2, 139520, Note_on_c, 1, 76, 127
2, 139680, Note_on_c, 1, 66, 127
2, 139760, Note_off_c, 1, 61, 0
2, 139760, Note_off_c, 1, 66, 0
2, 139800, Note_on_c, 1, 57, 127
2, 139800, Note_on_c, 1, 67, 127
2, 139920, Note_off_c, 1, 67, 0
2, 139920, Note_off_c, 1, 76, 0
2, 139960, Note_on_c, 1, 64, 127
2, 140080, Note_off_c, 1, 57, 0
2, 140080, Note_off_c, 1, 64, 0
2, 140120, Note_on_c, 1, 50, 127
2, 140120, Note_on_c, 1, 66, 127
2, 140240, Note_off_c, 1, 66, 0
2, 140280, Note_on_c, 1, 62, 127
2, 140360, Note_off_c, 1, 50, 0
2, 140360, Note_off_c, 1, 62, 0
2, 140400, Note_on_c, 1, 62, 127
2, 140400, Note_on_c, 1, 66, 127
2, 140520, Note_off_c, 1, 62, 0
2, 140520, Note_off_c, 1, 66, 0
2, 140560, Note_on_c, 1, 61, 127
2, 140560, Note_on_c, 1, 69, 127
2, 140680, Note_off_c, 1, 61, 0
2, 140680, Note_off_c, 1, 69, 0
2, 140720, Note_on_c, 1, 59, 127
2, 140720, Note_on_c, 1, 74, 127
2, 140880, Note_on_c, 1, 64, 127
2, 140960, Note_off_c, 1, 59, 0
2, 140960, Note_off_c, 1, 64, 0
2, 141000, Note_on_c, 1, 57, 127
2, 141000, Note_on_c, 1, 66, 127
2, 141120, Note_off_c, 1, 66, 0
2, 141160, Note_on_c, 1, 62, 127
2, 141280, Note_off_c, 1, 57, 0
2, 141280, Note_off_c, 1, 62, 0
2, 141280, Note_off_c, 1, 74, 0
2, 141320, Note_on_c, 1, 59, 127
2, 141320, Note_on_c, 1, 74, 127
2, 141480, Note_on_c, 1, 64, 127
2, 141560, Note_off_c, 1, 59, 0
2, 141560, Note_off_c, 1, 64, 0
2, 141600, Note_on_c, 1, 56, 127
2, 141600, Note_on_c, 1, 66, 127
2, 141720, Note_off_c, 1, 66, 0
2, 141720, Note_off_c, 1, 74, 0
2, 141760, Note_on_c, 1, 62, 127
2, 141880, Note_off_c, 1, 56, 0
2, 141880, Note_off_c, 1, 62, 0
2, 141920, Note_on_c, 1, 61, 127
2, 141920, Note_on_c, 1, 64, 127
2, 142040, Note_off_c, 1, 61, 0
2, 142080, Note_on_c, 1, 49, 127
2, 142160, Note_off_c, 1, 49, 0
2, 142160, Note_off_c, 1, 64, 0
2, 142200, Note_on_c, 1, 52, 127
2, 142200, Note_on_c, 1, 73, 127
2, 142200, Note_on_c, 1, 76, 127
2, 142320, Note_off_c, 1, 52, 0
2, 142360, Note_on_c, 1, 56, 127
2, 142480, Note_off_c, 1, 56, 0
2, 142480, Note_off_c, 1, 73, 0
2, 142480, Note_off_c, 1, 76, 0
2, 142520, Note_on_c, 1, 61, 127
2, 142520, Note_on_c, 1, 73, 127
2, 142520, Note_on_c, 1, 76, 127
2, 142640, Note_off_c, 1, 61, 0
2, 142640, Note_off_c, 1, 73, 0
2, 142640, Note_off_c, 1, 76, 0
2, 142680, Note_on_c, 1, 56, 127
2, 142680, Note_on_c, 1, 78, 127
2, 142760, Note_off_c, 1, 56, 0
2, 142760, Note_off_c, 1, 78, 0
2, 142800, Note_on_c, 1, 58, 127
2, 142800, Note_on_c, 1, 73, 127
2, 142800, Note_on_c, 1, 76, 127
2, 142920, Note_off_c, 1, 58, 0
2, 142960, Note_on_c, 1, 54, 127
2, 143080, Note_off_c, 1, 54, 0
2, 143080, Note_off_c, 1, 73, 0
2, 143080, Note_off_c, 1, 76, 0
2, 143120, Note_on_c, 1, 61, 127
2, 143120, Note_on_c, 1, 73, 127
2, 143120, Note_on_c, 1, 76, 127
2, 143240, Note_off_c, 1, 61, 0
2, 143280, Note_on_c, 1, 56, 127
2, 143360, Note_off_c, 1, 56, 0
2, 143360, Note_off_c, 1, 73, 0
2, 143360, Note_off_c, 1, 76, 0
2, 143400, Note_on_c, 1, 58, 127
2, 143400, Note_on_c, 1, 73, 127
2, 143400, Note_on_c, 1, 76, 127
2, 143520, Note_off_c, 1, 58, 0
2, 143560, Note_on_c, 1, 54, 127
2, 143680, Note_off_c, 1, 54, 0
2, 143680, Note_off_c, 1, 73, 0
2, 143680, Note_off_c, 1, 76, 0
2, 143720, Note_on_c, 1, 59, 127
2, 143720, Note_on_c, 1, 73, 127
2, 143720, Note_on_c, 1, 76, 127
2, 143840, Note_off_c, 1, 59, 0
2, 143880, Note_on_c, 1, 47, 127
2, 143960, Note_off_c, 1, 47, 0
2, 143960, Note_off_c, 1, 73, 0
2, 143960, Note_off_c, 1, 76, 0
2, 144000, Note_on_c, 1, 50, 127
2, 144000, Note_on_c, 1, 71, 127
2, 144000, Note_on_c, 1, 74, 127
2, 144120, Note_off_c, 1, 50, 0
2, 144160, Note_on_c, 1, 54, 127
2, 144280, Note_off_c, 1, 54, 0
2, 144280, Note_off_c, 1, 71, 0
2, 144280, Note_off_c, 1, 74, 0
2, 144320, Note_on_c, 1, 59, 127
2, 144320, Note_on_c, 1, 71, 127
2, 144320, Note_on_c, 1, 74, 127
2, 144440, Note_off_c, 1, 59, 0
2, 144440, Note_off_c, 1, 71, 0
2, 144440, Note_off_c, 1, 74, 0
2, 144480, Note_on_c, 1, 54, 127
2, 144480, Note_on_c, 1, 76, 127
2, 144560, Note_off_c, 1, 54, 0
2, 144560, Note_off_c, 1, 76, 0
2, 144600, Note_on_c, 1, 56, 127
2, 144600, Note_on_c, 1, 71, 127
2, 144600, Note_on_c, 1, 74, 127
2, 144720, Note_off_c, 1, 56, 0
2, 144760, Note_on_c, 1, 52, 127
2, 144880, Note_off_c, 1, 52, 0
2, 144880, Note_off_c, 1, 71, 0
2, 144880, Note_off_c, 1, 74, 0
2, 144920, Note_on_c, 1, 59, 127
2, 144920, Note_on_c, 1, 71, 127
2, 144920, Note_on_c, 1, 74, 127
2, 145040, Note_off_c, 1, 59, 0
2, 145080, Note_on_c, 1, 54, 127
2, 145160, Note_off_c, 1, 54, 0
2, 145160, Note_off_c, 1, 71, 0
2, 145160, Note_off_c, 1, 74, 0
2, 145200, Note_on_c, 1, 56, 127
2, 145200, Note_on_c, 1, 71, 127
2, 145200, Note_on_c, 1, 74, 127
2, 145320, Note_off_c, 1, 56, 0
2, 145360, Note_on_c, 1, 52, 127
2, 145480, Note_off_c, 1, 52, 0
2, 145480, Note_off_c, 1, 71, 0
2, 145480, Note_off_c, 1, 74, 0
2, 145520, Note_on_c, 1, 57, 127
2, 145520, Note_on_c, 1, 73, 127
2, 145640, Note_off_c, 1, 73, 0
2, 145680, Note_on_c, 1, 71, 127
2, 145760, Note_off_c, 1, 57, 0
2, 145760, Note_off_c, 1, 71, 0
2, 145800, Note_on_c, 1, 61, 127
2, 145800, Note_on_c, 1, 69, 127
2, 145920, Note_off_c, 1, 69, 0
2, 145960, Note_on_c, 1, 68, 127
2, 146080, Note_off_c, 1, 61, 0
2, 146080, Note_off_c, 1, 68, 0
2, 146120, Note_on_c, 1, 54, 127
2, 146120, Note_on_c, 1, 69, 127
2, 146240, Note_off_c, 1, 69, 0
2, 146280, Note_on_c, 1, 68, 127
2, 146360, Note_off_c, 1, 54, 0
2, 146360, Note_off_c, 1, 68, 0
2, 146400, Note_on_c, 1, 66, 127
2, 146400, Note_on_c, 1, 69, 127
2, 146520, Note_off_c, 1, 69, 0
2, 146560, Note_on_c, 1, 74, 127
2, 146680, Note_off_c, 1, 66, 0
2, 146680, Note_off_c, 1, 74, 0
2, 146720, Note_on_c, 1, 64, 127
2, 146720, Note_on_c, 1, 68, 127
2, 146840, Note_off_c, 1, 64, 0
2, 146840, Note_off_c, 1, 68, 0
2, 146880, Note_on_c, 1, 61, 127
2, 146880, Note_on_c, 1, 73, 127
2, 146960, Note_off_c, 1, 61, 0
2, 146960, Note_off_c, 1, 73, 0
2, 147000, Note_on_c, 1, 62, 127
2, 147000, Note_on_c, 1, 66, 127
2, 147120, Note_off_c, 1, 62, 0
2, 147120, Note_off_c, 1, 66, 0
2, 147160, Note_on_c, 1, 59, 127
2, 147160, Note_on_c, 1, 71, 127
2, 147280, Note_off_c, 1, 59, 0
2, 147280, Note_off_c, 1, 71, 0
2, 147320, Note_on_c, 1, 61, 127
2, 147320, Note_on_c, 1, 65, 127
2, 147440, Note_off_c, 1, 65, 0
2, 147480, Note_on_c, 1, 74, 127
2, 147560, Note_off_c, 1, 74, 0
2, 147600, Note_on_c, 1, 73, 127
2, 147720, Note_off_c, 1, 73, 0
2, 147760, Note_on_c, 1, 71, 127
2, 147880, Note_off_c, 1, 71, 0
2, 147920, Note_on_c, 1, 68, 127
2, 148040, Note_off_c, 1, 68, 0
2, 148080, Note_on_c, 1, 74, 127
2, 148160, Note_off_c, 1, 74, 0
2, 148200, Note_on_c, 1, 73, 127
2, 148320, Note_off_c, 1, 73, 0
2, 148360, Note_on_c, 1, 71, 127
2, 148480, Note_off_c, 1, 71, 0
2, 148520, Note_on_c, 1, 71, 127
2, 148640, Note_off_c, 1, 71, 0
2, 148680, Note_on_c, 1, 74, 127
2, 148760, Note_off_c, 1, 74, 0
2, 148800, Note_on_c, 1, 73, 127
2, 148920, Note_off_c, 1, 73, 0
2, 148960, Note_on_c, 1, 71, 127
2, 149080, Note_off_c, 1, 61, 0
2, 149080, Note_off_c, 1, 71, 0
2, 149120, Note_on_c, 1, 49, 127
2, 149120, Note_on_c, 1, 61, 127
2, 149280, Note_on_c, 1, 71, 127
2, 149360, Note_off_c, 1, 71, 0
2, 149400, Note_on_c, 1, 69, 127
2, 149520, Note_off_c, 1, 69, 0
2, 149560, Note_on_c, 1, 68, 127
2, 149680, Note_off_c, 1, 68, 0
2, 149720, Note_on_c, 1, 65, 127
2, 149840, Note_off_c, 1, 65, 0
2, 149880, Note_on_c, 1, 71, 127
2, 149960, Note_off_c, 1, 71, 0
2, 150000, Note_on_c, 1, 69, 127
2, 150120, Note_off_c, 1, 69, 0
2, 150160, Note_on_c, 1, 68, 127
2, 150280, Note_off_c, 1, 68, 0
2, 150320, Note_on_c, 1, 68, 127
2, 150440, Note_off_c, 1, 68, 0
2, 150480, Note_on_c, 1, 71, 127
2, 150560, Note_off_c, 1, 71, 0
2, 150600, Note_on_c, 1, 69, 127
2, 150720, Note_off_c, 1, 69, 0
2, 150760, Note_on_c, 1, 68, 127
2, 150880, Note_off_c, 1, 49, 0
2, 150880, Note_off_c, 1, 61, 0
2, 150880, Note_off_c, 1, 68, 0
2, 150920, Note_on_c, 1, 49, 127
2, 150920, Note_on_c, 1, 59, 127
2, 151080, Note_on_c, 1, 68, 127
2, 151160, Note_off_c, 1, 68, 0
2, 151200, Note_on_c, 1, 66, 127
2, 151320, Note_off_c, 1, 66, 0
2, 151360, Note_on_c, 1, 65, 127
2, 151480, Note_off_c, 1, 65, 0
2, 151520, Note_on_c, 1, 62, 127
2, 151640, Note_off_c, 1, 62, 0
2, 151680, Note_on_c, 1, 68, 127
2, 151760, Note_off_c, 1, 68, 0
2, 151800, Note_on_c, 1, 66, 127
2, 151920, Note_off_c, 1, 66, 0
2, 151960, Note_on_c, 1, 65, 127
2, 152080, Note_off_c, 1, 65, 0
2, 152120, Note_on_c, 1, 65, 127
2, 152240, Note_off_c, 1, 65, 0
2, 152280, Note_on_c, 1, 68, 127
2, 152360, Note_off_c, 1, 68, 0
2, 152400, Note_on_c, 1, 66, 127
2, 152520, Note_off_c, 1, 66, 0
2, 152560, Note_on_c, 1, 65, 127
2, 152680, Note_off_c, 1, 59, 0
2, 152840, Note_off_c, 1, 65, 0
2, 152880, Note_on_c, 1, 68, 127
2, 152960, Note_off_c, 1, 49, 0
2, 152960, Note_off_c, 1, 68, 0
2, 153000, Note_on_c, 1, 49, 127
2, 153000, Note_on_c, 1, 66, 127
2, 153120, Note_off_c, 1, 66, 0
2, 153160, Note_on_c, 1, 65, 127
2, 153280, Note_off_c, 1, 49, 0
2, 153280, Note_off_c, 1, 65, 0
2, 153320, Note_on_c, 1, 53, 127
2, 153320, Note_on_c, 1, 74, 127
2, 153440, Note_off_c, 1, 74, 0
2, 153480, Note_on_c, 1, 68, 127
2, 153560, Note_off_c, 1, 53, 0
2, 153560, Note_off_c, 1, 68, 0
2, 153600, Note_on_c, 1, 56, 127
2, 153600, Note_on_c, 1, 66, 127
2, 153720, Note_off_c, 1, 66, 0
2, 153760, Note_on_c, 1, 65, 127
2, 153880, Note_off_c, 1, 56, 0
2, 153880, Note_off_c, 1, 65, 0
2, 153920, Note_on_c, 1, 53, 127
2, 153920, Note_on_c, 1, 73, 127
2, 154040, Note_off_c, 1, 73, 0
2, 154080, Note_on_c, 1, 71, 127
2, 154160, Note_off_c, 1, 53, 0
2, 154160, Note_off_c, 1, 71, 0
2, 154200, Note_on_c, 1, 49, 127
2, 154200, Note_on_c, 1, 69, 127
2, 154320, Note_off_c, 1, 69, 0
2, 154360, Note_on_c, 1, 68, 127
2, 154480, Note_off_c, 1, 49, 0
2, 154480, Note_off_c, 1, 68, 0
2, 154520, Note_on_c, 1, 42, 127
2, 154520, Note_on_c, 1, 69, 127
2, 154760, Note_off_c, 1, 69, 0
2, 154800, Note_on_c, 1, 73, 127
2, 155080, Note_off_c, 1, 73, 0
2, 155120, Note_on_c, 1, 66, 127
2, 155240, Note_off_c, 1, 42, 0
2, 155360, Note_off_c, 1, 66, 0
2, 155400, Note_on_c, 1, 54, 127
2, 155400, Note_on_c, 1, 57, 127
2, 155400, Note_on_c, 1, 78, 127
2, 155680, Note_off_c, 1, 54, 0
2, 155680, Note_off_c, 1, 57, 0
2, 155680, Note_off_c, 1, 78, 0
2, 155720, Note_on_c, 1, 56, 127
2, 155720, Note_on_c, 1, 59, 127
2, 155720, Note_on_c, 1, 76, 127
2, 155840, Note_off_c, 1, 76, 0
2, 155880, Note_on_c, 1, 73, 127
2, 155960, Note_off_c, 1, 56, 0
2, 155960, Note_off_c, 1, 59, 0
2, 155960, Note_off_c, 1, 73, 0
2, 156000, Note_on_c, 1, 52, 127
2, 156000, Note_on_c, 1, 56, 127
2, 156000, Note_on_c, 1, 74, 127
2, 156120, Note_off_c, 1, 74, 0
2, 156160, Note_on_c, 1, 71, 127
2, 156280, Note_off_c, 1, 52, 0
2, 156280, Note_off_c, 1, 56, 0
2, 156280, Note_off_c, 1, 71, 0
2, 156320, Note_on_c, 1, 57, 127
2, 156320, Note_on_c, 1, 73, 127
2, 156440, Note_off_c, 1, 73, 0
2, 156480, Note_on_c, 1, 68, 127
2, 156560, Note_off_c, 1, 68, 0
2, 156600, Note_on_c, 1, 45, 127
2, 156600, Note_on_c, 1, 69, 127
2, 156720, Note_off_c, 1, 69, 0
2, 156760, Note_on_c, 1, 65, 127
2, 156880, Note_off_c, 1, 57, 0
2, 156880, Note_off_c, 1, 65, 0
2, 156920, Note_on_c, 1, 66, 127
2, 157040, Note_off_c, 1, 66, 0
2, 157080, Note_on_c, 1, 69, 127
2, 157160, Note_off_c, 1, 45, 0
2, 157160, Note_off_c, 1, 69, 0
2, 157200, Note_on_c, 1, 59, 127
2, 157200, Note_on_c, 1, 66, 127
2, 157200, Note_on_c, 1, 74, 127
2, 157320, Note_off_c, 1, 74, 0
2, 157360, Note_on_c, 1, 71, 127
2, 157480, Note_off_c, 1, 59, 0
2, 157480, Note_off_c, 1, 66, 0
2, 157480, Note_off_c, 1, 71, 0
2, 157520, Note_on_c, 1, 57, 127
2, 157520, Note_on_c, 1, 66, 127
2, 157520, Note_on_c, 1, 73, 127
2, 157640, Note_off_c, 1, 73, 0
2, 157680, Note_on_c, 1, 69, 127
2, 157760, Note_off_c, 1, 57, 0
2, 157760, Note_off_c, 1, 66, 0
2, 157760, Note_off_c, 1, 69, 0
2, 157800, Note_on_c, 1, 56, 127
2, 157800, Note_on_c, 1, 65, 127
2, 157800, Note_on_c, 1, 71, 127
2, 157920, Note_off_c, 1, 71, 0
2, 157960, Note_on_c, 1, 68, 127
2, 158080, Note_off_c, 1, 56, 0
2, 158080, Note_off_c, 1, 65, 0
2, 158080, Note_off_c, 1, 68, 0
2, 158120, Note_on_c, 1, 54, 127
2, 158120, Note_on_c, 1, 66, 127
2, 158120, Note_on_c, 1, 69, 127
2, 158240, Note_off_c, 1, 69, 0
2, 158280, Note_on_c, 1, 68, 127
2, 158360, Note_off_c, 1, 68, 0
2, 158400, Note_on_c, 1, 69, 127
2, 158520, Note_off_c, 1, 69, 0
2, 158560, Note_on_c, 1, 65, 127
2, 158680, Note_off_c, 1, 65, 0
2, 158680, Note_off_c, 1, 66, 0
2, 158720, Note_on_c, 1, 66, 127
2, 158840, Note_off_c, 1, 54, 0
2, 158840, Note_off_c, 1, 66, 0
2, 158880, Note_on_c, 1, 69, 127
2, 158960, Note_off_c, 1, 69, 0
2, 159000, Note_on_c, 1, 57, 127
2, 159000, Note_on_c, 1, 66, 127
2, 159000, Note_on_c, 1, 73, 127
2, 159120, Note_off_c, 1, 73, 0
2, 159160, Note_on_c, 1, 69, 127
2, 159280, Note_off_c, 1, 57, 0
2, 159280, Note_off_c, 1, 66, 0
2, 159280, Note_off_c, 1, 69, 0
2, 159320, Note_on_c, 1, 56, 127
2, 159320, Note_on_c, 1, 65, 127
2, 159320, Note_on_c, 1, 71, 127
2, 159440, Note_off_c, 1, 71, 0
2, 159480, Note_on_c, 1, 68, 127
2, 159560, Note_off_c, 1, 56, 0
2, 159560, Note_off_c, 1, 65, 0
2, 159560, Note_off_c, 1, 68, 0
2, 159600, Note_on_c, 1, 54, 127
2, 159600, Note_on_c, 1, 61, 127
2, 159600, Note_on_c, 1, 69, 127
2, 159720, Note_off_c, 1, 69, 0
2, 159760, Note_on_c, 1, 66, 127
2, 159880, Note_off_c, 1, 54, 0
2, 159880, Note_off_c, 1, 61, 0
2, 159880, Note_off_c, 1, 66, 0
2, 159920, Note_on_c, 1, 53, 127
2, 159920, Note_on_c, 1, 59, 127
2, 159920, Note_on_c, 1, 68, 127
2, 160040, Note_off_c, 1, 68, 0
2, 160080, Note_on_c, 1, 66, 127
2, 160160, Note_off_c, 1, 53, 0
2, 160160, Note_off_c, 1, 66, 0
2, 160200, Note_on_c, 1, 49, 127
2, 160200, Note_off_c, 1, 59, 0
2, 160200, Note_on_c, 1, 68, 127
2, 160360, Note_on_c, 1, 65, 127
2, 160480, Note_off_c, 1, 49, 0
2, 160480, Note_off_c, 1, 65, 0
2, 160480, Note_off_c, 1, 68, 0
2, 160520, Note_on_c, 1, 50, 127
2, 160520, Note_on_c, 1, 57, 127
2, 160520, Note_on_c, 1, 66, 127
2, 160640, Note_off_c, 1, 66, 0
2, 160680, Note_on_c, 1, 65, 127
2, 160760, Note_off_c, 1, 50, 0
2, 160760, Note_off_c, 1, 57, 0
2, 160760, Note_off_c, 1, 65, 0
2, 160800, Note_on_c, 1, 47, 127
2, 160800, Note_on_c, 1, 54, 127
2, 160800, Note_on_c, 1, 56, 127
2, 160800, Note_on_c, 1, 66, 127
2, 160920, Note_off_c, 1, 66, 0
2, 160960, Note_on_c, 1, 74, 127
2, 161080, Note_off_c, 1, 47, 0
2, 161080, Note_off_c, 1, 56, 0
2, 161080, Note_off_c, 1, 74, 0
2, 161120, Note_on_c, 1, 49, 127
2, 161120, Note_on_c, 1, 57, 127
2, 161120, Note_on_c, 1, 73, 127
2, 161240, Note_off_c, 1, 73, 0
2, 161280, Note_on_c, 1, 69, 127
2, 161360, Note_off_c, 1, 54, 0
2, 161360, Note_off_c, 1, 57, 0
2, 161360, Note_off_c, 1, 69, 0
2, 161400, Note_on_c, 1, 53, 127
2, 161400, Note_on_c, 1, 56, 127
2, 161400, Note_on_c, 1, 71, 127
2, 161520, Note_off_c, 1, 71, 0
2, 161560, Note_on_c, 1, 68, 127
2, 161680, Note_off_c, 1, 49, 0
2, 161680, Note_off_c, 1, 53, 0
2, 161680, Note_off_c, 1, 56, 0
2, 161680, Note_off_c, 1, 68, 0
2, 161720, Note_on_c, 1, 42, 127
2, 161720, Note_on_c, 1, 54, 127
2, 161720, Note_on_c, 1, 69, 127
2, 161840, Note_off_c, 1, 69, 0
2, 161880, Note_on_c, 1, 68, 127
2, 161960, Note_off_c, 1, 42, 0
2, 161960, Note_off_c, 1, 54, 0
2, 161960, Note_off_c, 1, 68, 0
2, 162000, Note_on_c, 1, 61, 127
2, 162000, Note_on_c, 1, 66, 127
2, 162120, Note_off_c, 1, 66, 0
2, 162160, Note_on_c, 1, 65, 127
2, 162280, Note_off_c, 1, 61, 0
2, 162280, Note_off_c, 1, 65, 0
2, 162320, Note_on_c, 1, 54, 127
2, 162320, Note_on_c, 1, 66, 127
2, 162440, Note_off_c, 1, 66, 0
2, 162480, Note_on_c, 1, 68, 127
2, 162560, Note_off_c, 1, 54, 0
2, 162560, Note_off_c, 1, 68, 0
2, 162600, Note_on_c, 1, 66, 127
2, 162600, Note_on_c, 1, 69, 127
2, 162720, Note_off_c, 1, 69, 0
2, 162760, Note_on_c, 1, 74, 127
2, 162880, Note_off_c, 1, 66, 0
2, 162880, Note_off_c, 1, 74, 0
2, 162920, Note_on_c, 1, 64, 127
2, 162920, Note_on_c, 1, 73, 127
2, 163040, Note_off_c, 1, 64, 0
2, 163040, Note_off_c, 1, 73, 0
2, 163080, Note_on_c, 1, 61, 127
2, 163080, Note_on_c, 1, 69, 127
2, 163160, Note_off_c, 1, 61, 0
2, 163160, Note_off_c, 1, 69, 0
2, 163200, Note_on_c, 1, 62, 127
2, 163200, Note_on_c, 1, 71, 127
2, 163320, Note_off_c, 1, 62, 0
2, 163320, Note_off_c, 1, 71, 0
2, 163360, Note_on_c, 1, 59, 127
2, 163360, Note_on_c, 1, 68, 127
2, 163480, Note_off_c, 1, 59, 0
2, 163480, Note_off_c, 1, 68, 0
2, 163520, Note_on_c, 1, 61, 127
2, 163520, Note_on_c, 1, 69, 127
2, 163640, Note_off_c, 1, 61, 0
2, 163640, Note_off_c, 1, 69, 0
2, 163680, Note_on_c, 1, 59, 127
2, 163680, Note_on_c, 1, 68, 127
2, 163760, Note_off_c, 1, 59, 0
2, 163760, Note_off_c, 1, 68, 0
2, 163800, Note_on_c, 1, 57, 127
2, 163800, Note_on_c, 1, 66, 127
2, 163920, Note_off_c, 1, 57, 0
2, 163920, Note_off_c, 1, 66, 0
2, 163960, Note_on_c, 1, 61, 127
2, 163960, Note_on_c, 1, 65, 127
2, 164080, Note_off_c, 1, 61, 0
2, 164080, Note_off_c, 1, 65, 0
2, 164120, Note_on_c, 1, 54, 127
2, 164120, Note_on_c, 1, 66, 127
2, 164240, Note_off_c, 1, 54, 0
2, 164240, Note_off_c, 1, 66, 0
2, 164280, Note_on_c, 1, 57, 127
2, 164280, Note_on_c, 1, 68, 127
2, 164360, Note_off_c, 1, 57, 0
2, 164360, Note_off_c, 1, 68, 0
2, 164400, Note_on_c, 1, 62, 127
2, 164400, Note_on_c, 1, 69, 127
2, 164520, Note_off_c, 1, 62, 0
2, 164520, Note_off_c, 1, 69, 0
2, 164560, Note_on_c, 1, 59, 127
2, 164560, Note_on_c, 1, 71, 127
2, 164680, Note_off_c, 1, 59, 0
2, 164680, Note_off_c, 1, 71, 0
2, 164720, Note_on_c, 1, 61, 127
2, 164720, Note_on_c, 1, 69, 127
2, 164840, Note_off_c, 1, 61, 0
2, 164840, Note_off_c, 1, 69, 0
2, 164880, Note_on_c, 1, 57, 127
2, 164880, Note_on_c, 1, 66, 127
2, 164960, Note_off_c, 1, 57, 0
2, 164960, Note_off_c, 1, 66, 0
2, 165000, Note_on_c, 1, 59, 127
2, 165000, Note_on_c, 1, 68, 127
2, 165120, Note_off_c, 1, 59, 0
2, 165120, Note_off_c, 1, 68, 0
2, 165160, Note_on_c, 1, 56, 127
2, 165160, Note_on_c, 1, 65, 127
2, 165280, Note_off_c, 1, 56, 0
2, 165280, Note_off_c, 1, 65, 0
2, 165320, Note_on_c, 1, 57, 127
2, 165320, Note_on_c, 1, 66, 127
2, 165440, Note_off_c, 1, 57, 0
2, 165440, Note_off_c, 1, 66, 0
2, 165480, Note_on_c, 1, 56, 127
2, 165480, Note_on_c, 1, 68, 127
2, 165560, Note_off_c, 1, 56, 0
2, 165560, Note_off_c, 1, 68, 0
2, 165600, Note_on_c, 1, 54, 127
2, 165600, Note_on_c, 1, 69, 127
2, 165720, Note_off_c, 1, 54, 0
2, 165720, Note_off_c, 1, 69, 0
2, 165760, Note_on_c, 1, 57, 127
2, 165760, Note_on_c, 1, 66, 127
2, 165880, Note_off_c, 1, 57, 0
2, 165880, Note_off_c, 1, 66, 0
2, 165920, Note_on_c, 1, 49, 127
2, 165920, Note_on_c, 1, 65, 127
2, 166040, Note_off_c, 1, 49, 0
2, 166040, Note_off_c, 1, 65, 0
2, 166080, Note_on_c, 1, 54, 127
2, 166080, Note_on_c, 1, 66, 127
2, 166160, Note_off_c, 1, 54, 0
2, 166160, Note_off_c, 1, 66, 0
2, 166200, Note_on_c, 1, 61, 127
2, 166200, Note_on_c, 1, 69, 127
2, 166320, Note_off_c, 1, 61, 0
2, 166320, Note_off_c, 1, 69, 0
2, 166360, Note_on_c, 1, 57, 127
2, 166360, Note_on_c, 1, 66, 127
2, 166480, Note_off_c, 1, 57, 0
2, 166480, Note_off_c, 1, 66, 0
2, 166520, Note_on_c, 1, 59, 127
2, 166520, Note_on_c, 1, 68, 127
2, 166640, Note_off_c, 1, 59, 0
2, 166640, Note_off_c, 1, 68, 0
2, 166680, Note_on_c, 1, 56, 127
2, 166680, Note_on_c, 1, 65, 127
2, 166760, Note_off_c, 1, 56, 0
2, 166760, Note_off_c, 1, 65, 0
2, 166800, Note_on_c, 1, 57, 127
2, 166800, Note_on_c, 1, 66, 127
2, 166920, Note_off_c, 1, 57, 0
2, 166920, Note_off_c, 1, 66, 0
2, 166960, Note_on_c, 1, 54, 127
2, 166960, Note_on_c, 1, 63, 127
2, 167080, Note_off_c, 1, 54, 0
2, 167080, Note_off_c, 1, 63, 0
2, 167120, Note_on_c, 1, 56, 127
2, 167120, Note_on_c, 1, 65, 127
2, 167240, Note_off_c, 1, 56, 0
2, 167240, Note_off_c, 1, 65, 0
2, 167280, Note_on_c, 1, 53, 127
2, 167280, Note_on_c, 1, 74, 127
2, 167360, Note_off_c, 1, 53, 0
2, 167360, Note_off_c, 1, 74, 0
2, 167400, Note_on_c, 1, 54, 127
2, 167400, Note_on_c, 1, 73, 127
2, 167520, Note_off_c, 1, 54, 0
2, 167520, Note_off_c, 1, 73, 0
2, 167560, Note_on_c, 1, 53, 127
2, 167560, Note_on_c, 1, 71, 127
2, 167680, Note_off_c, 1, 53, 0
2, 167680, Note_off_c, 1, 71, 0
2, 167720, Note_on_c, 1, 54, 127
2, 167720, Note_on_c, 1, 69, 127
2, 167840, Note_off_c, 1, 69, 0
2, 167880, Note_on_c, 1, 71, 127
2, 167960, Note_off_c, 1, 54, 0
2, 167960, Note_off_c, 1, 71, 0
2, 168000, Note_on_c, 1, 59, 127
2, 168000, Note_on_c, 1, 73, 127
2, 168120, Note_off_c, 1, 73, 0
2, 168160, Note_on_c, 1, 74, 127
2, 168280, Note_off_c, 1, 59, 0
2, 168280, Note_off_c, 1, 74, 0
2, 168320, Note_on_c, 1, 61, 127
2, 168320, Note_on_c, 1, 65, 127
2, 168320, Note_on_c, 1, 69, 127
2, 168360, Note_off_c, 1, 69, 0
2, 168400, Note_on_c, 1, 68, 127
2, 168440, Note_off_c, 1, 68, 0
2, 168480, Note_on_c, 1, 69, 127
2, 168520, Note_on_c, 1, 68, 127
2, 168520, Note_off_c, 1, 69, 0
2, 168560, Note_off_c, 1, 68, 0
2, 168600, Note_on_c, 1, 49, 127
2, 168600, Note_on_c, 1, 69, 127
2, 168640, Note_off_c, 1, 69, 0
2, 168680, Note_on_c, 1, 68, 127
2, 168720, Note_off_c, 1, 65, 0
2, 168720, Note_off_c, 1, 68, 0
2, 168760, Note_on_c, 1, 66, 127
2, 168880, Note_off_c, 1, 49, 0
2, 168880, Note_off_c, 1, 61, 0
2, 168880, Note_off_c, 1, 66, 0
2, 168920, Note_on_c, 1, 54, 127
2, 168920, Note_on_c, 1, 66, 127
2, 169160, Note_off_c, 1, 66, 0
2, 169200, Note_on_c, 1, 66, 127
2, 169200, Note_on_c, 1, 69, 127
2, 169480, Note_off_c, 1, 66, 0
2, 169480, Note_off_c, 1, 69, 0
2, 169520, Note_on_c, 1, 66, 127
2, 169520, Note_on_c, 1, 69, 127
2, 169640, Note_off_c, 1, 54, 0
2, 169640, Note_off_c, 1, 66, 0
2, 169640, Note_off_c, 1, 69, 0
2, 169680, Note_on_c, 1, 42, 127
2, 169680, Note_on_c, 1, 71, 127
2, 169760, Note_off_c, 1, 42, 0
2, 169760, Note_off_c, 1, 71, 0
2, 169800, Note_on_c, 1, 45, 127
2, 169800, Note_on_c, 1, 66, 127
2, 169800, Note_on_c, 1, 69, 127
2, 169920, Note_off_c, 1, 45, 0
2, 169960, Note_on_c, 1, 49, 127
2, 170080, Note_off_c, 1, 49, 0
2, 170080, Note_off_c, 1, 66, 0
2, 170080, Note_off_c, 1, 69, 0
2, 170120, Note_on_c, 1, 54, 127
2, 170120, Note_on_c, 1, 66, 127
2, 170120, Note_on_c, 1, 69, 127
2, 170240, Note_off_c, 1, 54, 0
2, 170280, Note_on_c, 1, 52, 127
2, 170360, Note_off_c, 1, 52, 0
2, 170360, Note_off_c, 1, 66, 0
2, 170360, Note_off_c, 1, 69, 0
2, 170400, Note_on_c, 1, 51, 127
2, 170400, Note_on_c, 1, 66, 127
2, 170400, Note_on_c, 1, 69, 127
2, 170520, Note_off_c, 1, 51, 0
2, 170560, Note_on_c, 1, 49, 127
2, 170680, Note_off_c, 1, 49, 0
2, 170680, Note_off_c, 1, 66, 0
2, 170680, Note_off_c, 1, 69, 0
2, 170720, Note_on_c, 1, 47, 127
2, 170720, Note_on_c, 1, 63, 127
2, 170720, Note_on_c, 1, 69, 127
2, 170720, Note_on_c, 1, 72, 127
2, 170960, Note_off_c, 1, 69, 0
2, 171000, Note_on_c, 1, 66, 127
2, 171000, Note_on_c, 1, 69, 127
2, 171040, Note_off_c, 1, 72, 0
2, 171280, Note_off_c, 1, 63, 0
2, 171280, Note_off_c, 1, 66, 0
2, 171280, Note_off_c, 1, 69, 0
2, 171320, Note_on_c, 1, 66, 127
2, 171320, Note_on_c, 1, 69, 127
2, 171440, Note_off_c, 1, 47, 0
2, 171440, Note_off_c, 1, 66, 0
2, 171440, Note_off_c, 1, 69, 0
2, 171480, Note_on_c, 1, 47, 127
2, 171480, Note_on_c, 1, 71, 127
2, 171560, Note_off_c, 1, 47, 0
2, 171560, Note_off_c, 1, 71, 0
2, 171600, Note_on_c, 1, 51, 127
2, 171600, Note_on_c, 1, 66, 127
2, 171600, Note_on_c, 1, 69, 127
2, 171720, Note_off_c, 1, 51, 0
2, 171760, Note_on_c, 1, 54, 127
2, 171880, Note_off_c, 1, 54, 0
2, 171880, Note_off_c, 1, 66, 0
2, 171880, Note_off_c, 1, 69, 0
2, 171920, Note_on_c, 1, 59, 127
2, 171920, Note_on_c, 1, 66, 127
2, 171920, Note_on_c, 1, 69, 127
2, 172040, Note_off_c, 1, 59, 0
2, 172040, Note_off_c, 1, 69, 0
2, 172080, Note_on_c, 1, 57, 127
2, 172080, Note_on_c, 1, 72, 127
2, 172160, Note_off_c, 1, 57, 0
2, 172200, Note_on_c, 1, 55, 127
2, 172200, Note_on_c, 1, 71, 127
2, 172200, Note_off_c, 1, 72, 0
2, 172320, Note_off_c, 1, 55, 0
2, 172320, Note_off_c, 1, 66, 0
2, 172320, Note_off_c, 1, 71, 0
2, 172360, Note_on_c, 1, 54, 127
2, 172360, Note_on_c, 1, 69, 127
2, 172480, Note_off_c, 1, 54, 0
2, 172480, Note_off_c, 1, 69, 0
2, 172520, Note_on_c, 1, 52, 127
2, 172520, Note_on_c, 1, 67, 127
2, 172760, Note_off_c, 1, 67, 0
2, 172800, Note_on_c, 1, 64, 127
2, 172800, Note_on_c, 1, 67, 127
2, 173080, Note_off_c, 1, 64, 0
2, 173080, Note_off_c, 1, 67, 0
2, 173120, Note_on_c, 1, 64, 127
2, 173120, Note_on_c, 1, 67, 127
2, 173240, Note_off_c, 1, 52, 0
2, 173240, Note_off_c, 1, 64, 0
2, 173240, Note_off_c, 1, 67, 0
2, 173280, Note_on_c, 1, 40, 127
2, 173280, Note_on_c, 1, 69, 127
2, 173360, Note_off_c, 1, 40, 0
2, 173360, Note_off_c, 1, 69, 0
2, 173400, Note_on_c, 1, 43, 127
2, 173400, Note_on_c, 1, 64, 127
2, 173400, Note_on_c, 1, 67, 127
2, 173520, Note_off_c, 1, 43, 0
2, 173560, Note_on_c, 1, 47, 127
2, 173680, Note_off_c, 1, 47, 0
2, 173680, Note_off_c, 1, 64, 0
2, 173680, Note_off_c, 1, 67, 0
2, 173720, Note_on_c, 1, 52, 127
2, 173720, Note_on_c, 1, 64, 127
2, 173720, Note_on_c, 1, 67, 127
2, 173840, Note_off_c, 1, 52, 0
2, 173880, Note_on_c, 1, 50, 127
2, 173960, Note_off_c, 1, 50, 0
2, 173960, Note_off_c, 1, 64, 0
2, 173960, Note_off_c, 1, 67, 0
2, 174000, Note_on_c, 1, 49, 127
2, 174000, Note_on_c, 1, 64, 127
2, 174000, Note_on_c, 1, 67, 127
2, 174120, Note_off_c, 1, 49, 0
2, 174160, Note_on_c, 1, 47, 127
2, 174280, Note_off_c, 1, 47, 0
2, 174280, Note_off_c, 1, 64, 0
2, 174280, Note_off_c, 1, 67, 0
2, 174320, Note_on_c, 1, 45, 127
2, 174320, Note_on_c, 1, 67, 127
2, 174320, Note_on_c, 1, 73, 127
2, 174320, Note_on_c, 1, 76, 127
2, 174560, Note_off_c, 1, 67, 0
2, 174560, Note_off_c, 1, 73, 0
2, 174600, Note_on_c, 1, 64, 127
2, 174600, Note_on_c, 1, 67, 127
2, 174880, Note_off_c, 1, 64, 0
2, 174880, Note_off_c, 1, 67, 0
2, 174880, Note_off_c, 1, 76, 0
2, 174920, Note_on_c, 1, 64, 127
2, 174920, Note_on_c, 1, 67, 127
2, 175040, Note_off_c, 1, 45, 0
2, 175040, Note_off_c, 1, 64, 0
2, 175040, Note_off_c, 1, 67, 0
2, 175080, Note_on_c, 1, 45, 127
2, 175080, Note_on_c, 1, 69, 127
2, 175160, Note_off_c, 1, 45, 0
2, 175160, Note_off_c, 1, 69, 0
2, 175200, Note_on_c, 1, 49, 127
2, 175200, Note_on_c, 1, 64, 127
2, 175200, Note_on_c, 1, 67, 127
2, 175320, Note_off_c, 1, 49, 0
2, 175360, Note_on_c, 1, 52, 127
2, 175480, Note_off_c, 1, 52, 0
2, 175480, Note_off_c, 1, 64, 0
2, 175480, Note_off_c, 1, 67, 0
2, 175520, Note_on_c, 1, 57, 127
2, 175520, Note_on_c, 1, 64, 127
2, 175520, Note_on_c, 1, 67, 127
2, 175640, Note_off_c, 1, 57, 0
2, 175640, Note_off_c, 1, 67, 0
2, 175680, Note_on_c, 1, 55, 127
2, 175680, Note_on_c, 1, 71, 127
2, 175760, Note_off_c, 1, 55, 0
2, 175760, Note_off_c, 1, 71, 0
2, 175800, Note_on_c, 1, 54, 127
2, 175800, Note_on_c, 1, 69, 127
2, 175920, Note_off_c, 1, 54, 0
2, 175920, Note_off_c, 1, 64, 0
2, 175920, Note_off_c, 1, 69, 0
2, 175960, Note_on_c, 1, 52, 127
2, 175960, Note_on_c, 1, 67, 127
2, 176080, Note_off_c, 1, 52, 0
2, 176080, Note_off_c, 1, 67, 0
2, 176120, Note_on_c, 1, 50, 127
2, 176120, Note_on_c, 1, 66, 127
2, 176280, Note_on_c, 1, 61, 127
2, 176360, Note_off_c, 1, 50, 0
2, 176360, Note_off_c, 1, 61, 0
2, 176400, Note_on_c, 1, 50, 127
2, 176400, Note_on_c, 1, 62, 127
2, 176520, Note_off_c, 1, 62, 0
2, 176520, Note_off_c, 1, 66, 0
2, 176560, Note_on_c, 1, 66, 127
2, 176680, Note_off_c, 1, 50, 0
2, 176720, Note_on_c, 1, 50, 127
2, 176720, Note_on_c, 1, 57, 127
2, 176840, Note_off_c, 1, 50, 0
2, 176840, Note_off_c, 1, 57, 0
2, 176880, Note_on_c, 1, 52, 127
2, 176880, Note_on_c, 1, 61, 127
2, 176960, Note_off_c, 1, 52, 0
2, 176960, Note_off_c, 1, 61, 0
2, 177000, Note_on_c, 1, 50, 127
2, 177000, Note_on_c, 1, 62, 127
2, 177120, Note_off_c, 1, 62, 0
2, 177120, Note_off_c, 1, 66, 0
2, 177160, Note_on_c, 1, 66, 127
2, 177280, Note_off_c, 1, 50, 0
2, 177320, Note_on_c, 1, 50, 127
2, 177320, Note_on_c, 1, 57, 127
2, 177440, Note_off_c, 1, 57, 0
2, 177480, Note_on_c, 1, 61, 127
2, 177560, Note_off_c, 1, 50, 0
2, 177560, Note_off_c, 1, 61, 0
2, 177600, Note_on_c, 1, 50, 127
2, 177600, Note_on_c, 1, 62, 127
2, 177720, Note_off_c, 1, 62, 0
2, 177720, Note_off_c, 1, 66, 0
2, 177760, Note_on_c, 1, 66, 127
2, 177880, Note_off_c, 1, 50, 0
2, 177880, Note_off_c, 1, 66, 0
2, 177920, Note_on_c, 1, 40, 127
2, 177920, Note_on_c, 1, 67, 127
2, 178080, Note_on_c, 1, 61, 127
2, 178160, Note_off_c, 1, 40, 0
2, 178160, Note_off_c, 1, 61, 0
2, 178200, Note_on_c, 1, 50, 127
2, 178200, Note_on_c, 1, 62, 127
2, 178320, Note_off_c, 1, 62, 0
2, 178320, Note_off_c, 1, 67, 0
2, 178360, Note_on_c, 1, 67, 127
2, 178480, Note_off_c, 1, 50, 0
2, 178520, Note_on_c, 1, 50, 127
2, 178520, Note_on_c, 1, 57, 127
2, 178640, Note_off_c, 1, 50, 0
2, 178640, Note_off_c, 1, 57, 0
2, 178680, Note_on_c, 1, 52, 127
2, 178680, Note_on_c, 1, 61, 127
2, 178760, Note_off_c, 1, 52, 0
2, 178760, Note_off_c, 1, 61, 0
2, 178800, Note_on_c, 1, 50, 127
2, 178800, Note_on_c, 1, 62, 127
2, 178920, Note_off_c, 1, 62, 0
2, 178920, Note_off_c, 1, 67, 0
2, 178960, Note_on_c, 1, 67, 127
2, 179080, Note_off_c, 1, 50, 0
2, 179120, Note_on_c, 1, 50, 127
2, 179120, Note_on_c, 1, 57, 127
2, 179240, Note_off_c, 1, 57, 0
2, 179280, Note_on_c, 1, 61, 127
2, 179360, Note_off_c, 1, 50, 0
2, 179360, Note_off_c, 1, 61, 0
2, 179400, Note_on_c, 1, 50, 127
2, 179400, Note_on_c, 1, 62, 127
2, 179520, Note_off_c, 1, 62, 0
2, 179520, Note_off_c, 1, 67, 0
2, 179560, Note_on_c, 1, 67, 127
2, 179680, Note_off_c, 1, 50, 0
2, 179680, Note_off_c, 1, 67, 0
2, 179720, Note_on_c, 1, 42, 127
2, 179720, Note_on_c, 1, 69, 127
2, 179880, Note_on_c, 1, 61, 127
2, 179960, Note_off_c, 1, 42, 0
2, 179960, Note_off_c, 1, 61, 0
2, 180000, Note_on_c, 1, 50, 127
2, 180000, Note_on_c, 1, 62, 127
2, 180120, Note_off_c, 1, 62, 0
2, 180120, Note_off_c, 1, 69, 0
2, 180160, Note_on_c, 1, 69, 127
2, 180280, Note_off_c, 1, 50, 0
2, 180320, Note_on_c, 1, 50, 127
2, 180320, Note_on_c, 1, 57, 127
2, 180440, Note_off_c, 1, 50, 0
2, 180440, Note_off_c, 1, 57, 0
2, 180480, Note_on_c, 1, 52, 127
2, 180480, Note_on_c, 1, 61, 127
2, 180560, Note_off_c, 1, 52, 0
2, 180560, Note_off_c, 1, 61, 0
2, 180600, Note_on_c, 1, 50, 127
2, 180600, Note_on_c, 1, 62, 127
2, 180720, Note_off_c, 1, 62, 0
2, 180720, Note_off_c, 1, 69, 0
2, 180760, Note_on_c, 1, 69, 127
2, 180880, Note_off_c, 1, 50, 0
2, 180920, Note_on_c, 1, 50, 127
2, 180920, Note_on_c, 1, 57, 127
2, 181040, Note_off_c, 1, 57, 0
2, 181080, Note_on_c, 1, 61, 127
2, 181160, Note_off_c, 1, 50, 0
2, 181160, Note_off_c, 1, 61, 0
2, 181200, Note_on_c, 1, 50, 127
2, 181200, Note_on_c, 1, 62, 127
2, 181320, Note_off_c, 1, 62, 0
2, 181320, Note_off_c, 1, 69, 0
2, 181360, Note_on_c, 1, 69, 127
2, 181480, Note_off_c, 1, 50, 0
2, 181520, Note_on_c, 1, 43, 127
2, 181520, Note_on_c, 1, 59, 127
2, 181640, Note_off_c, 1, 59, 0
2, 181680, Note_on_c, 1, 57, 127
2, 181760, Note_off_c, 1, 43, 0
2, 181760, Note_off_c, 1, 57, 0
2, 181800, Note_on_c, 1, 50, 127
2, 181800, Note_on_c, 1, 59, 127
2, 181920, Note_off_c, 1, 69, 0
2, 181960, Note_on_c, 1, 69, 127
2, 182080, Note_off_c, 1, 50, 0
2, 182080, Note_off_c, 1, 59, 0
2, 182120, Note_on_c, 1, 50, 127
2, 182120, Note_on_c, 1, 59, 127
2, 182240, Note_off_c, 1, 50, 0
2, 182240, Note_off_c, 1, 59, 0
2, 182280, Note_on_c, 1, 52, 127
2, 182280, Note_on_c, 1, 57, 127
2, 182360, Note_off_c, 1, 52, 0
2, 182360, Note_off_c, 1, 57, 0
2, 182400, Note_on_c, 1, 50, 127
2, 182400, Note_on_c, 1, 59, 127
2, 182520, Note_off_c, 1, 69, 0
2, 182560, Note_on_c, 1, 69, 127
2, 182680, Note_off_c, 1, 50, 0
2, 182680, Note_off_c, 1, 59, 0
2, 182720, Note_on_c, 1, 50, 127
2, 182720, Note_on_c, 1, 59, 127
2, 182840, Note_off_c, 1, 59, 0
2, 182880, Note_on_c, 1, 57, 127
2, 182960, Note_off_c, 1, 50, 0
2, 182960, Note_off_c, 1, 57, 0
2, 183000, Note_on_c, 1, 50, 127
2, 183000, Note_on_c, 1, 59, 127
2, 183120, Note_off_c, 1, 69, 0
2, 183160, Note_on_c, 1, 69, 127
2, 183280, Note_off_c, 1, 50, 0
2, 183280, Note_off_c, 1, 59, 0
2, 183280, Note_off_c, 1, 69, 0
2, 183320, Note_on_c, 1, 43, 127
2, 183320, Note_on_c, 1, 59, 127
2, 183440, Note_off_c, 1, 59, 0
2, 183480, Note_on_c, 1, 57, 127
2, 183560, Note_off_c, 1, 43, 0
2, 183560, Note_off_c, 1, 57, 0
2, 183600, Note_on_c, 1, 52, 127
2, 183600, Note_on_c, 1, 59, 127
2, 183760, Note_on_c, 1, 67, 127
2, 183880, Note_off_c, 1, 52, 0
2, 183880, Note_off_c, 1, 59, 0
2, 183920, Note_on_c, 1, 52, 127
2, 183920, Note_on_c, 1, 59, 127
2, 184040, Note_off_c, 1, 52, 0
2, 184040, Note_off_c, 1, 59, 0
2, 184080, Note_on_c, 1, 54, 127
2, 184080, Note_on_c, 1, 57, 127
2, 184160, Note_off_c, 1, 54, 0
2, 184160, Note_off_c, 1, 57, 0
2, 184200, Note_on_c, 1, 52, 127
2, 184200, Note_on_c, 1, 59, 127
2, 184320, Note_off_c, 1, 67, 0
2, 184360, Note_on_c, 1, 67, 127
2, 184480, Note_off_c, 1, 52, 0
2, 184480, Note_off_c, 1, 59, 0
2, 184520, Note_on_c, 1, 52, 127
2, 184520, Note_on_c, 1, 59, 127
2, 184640, Note_off_c, 1, 59, 0
2, 184680, Note_on_c, 1, 57, 127
2, 184760, Note_off_c, 1, 52, 0
2, 184760, Note_off_c, 1, 57, 0
2, 184800, Note_on_c, 1, 52, 127
2, 184800, Note_on_c, 1, 59, 127
2, 184920, Note_off_c, 1, 67, 0
2, 184960, Note_on_c, 1, 67, 127
2, 185080, Note_off_c, 1, 52, 0
2, 185080, Note_off_c, 1, 59, 0
2, 185120, Note_on_c, 1, 45, 127
2, 185120, Note_on_c, 1, 61, 127
2, 185240, Note_off_c, 1, 61, 0
2, 185280, Note_on_c, 1, 59, 127
2, 185360, Note_off_c, 1, 45, 0
2, 185360, Note_off_c, 1, 59, 0
2, 185400, Note_on_c, 1, 52, 127
2, 185400, Note_on_c, 1, 61, 127
2, 185520, Note_off_c, 1, 67, 0
2, 185560, Note_on_c, 1, 67, 127
2, 185680, Note_off_c, 1, 52, 0
2, 185680, Note_off_c, 1, 61, 0
2, 185720, Note_on_c, 1, 52, 127
2, 185720, Note_on_c, 1, 61, 127
2, 185840, Note_off_c, 1, 52, 0
2, 185840, Note_off_c, 1, 61, 0
2, 185880, Note_on_c, 1, 54, 127
2, 185880, Note_on_c, 1, 59, 127
2, 185960, Note_off_c, 1, 54, 0
2, 185960, Note_off_c, 1, 59, 0
2, 186000, Note_on_c, 1, 52, 127
2, 186000, Note_on_c, 1, 61, 127
2, 186120, Note_off_c, 1, 67, 0
2, 186160, Note_on_c, 1, 67, 127
2, 186280, Note_off_c, 1, 52, 0
2, 186280, Note_off_c, 1, 61, 0
2, 186320, Note_on_c, 1, 52, 127
2, 186320, Note_on_c, 1, 61, 127
2, 186440, Note_off_c, 1, 61, 0
2, 186480, Note_on_c, 1, 59, 127
2, 186560, Note_off_c, 1, 52, 0
2, 186560, Note_off_c, 1, 59, 0
2, 186600, Note_on_c, 1, 52, 127
2, 186600, Note_on_c, 1, 61, 127
2, 186720, Note_off_c, 1, 67, 0
2, 186760, Note_on_c, 1, 67, 127
2, 186880, Note_off_c, 1, 52, 0
2, 186880, Note_off_c, 1, 61, 0
2, 186880, Note_off_c, 1, 67, 0
2, 186920, Note_on_c, 1, 45, 127
2, 186920, Note_on_c, 1, 62, 127
2, 187040, Note_off_c, 1, 62, 0
2, 187080, Note_on_c, 1, 61, 127
2, 187160, Note_off_c, 1, 45, 0
2, 187160, Note_off_c, 1, 61, 0
2, 187200, Note_on_c, 1, 54, 127
2, 187200, Note_on_c, 1, 62, 127
2, 187360, Note_on_c, 1, 66, 127
2, 187480, Note_off_c, 1, 54, 0
2, 187480, Note_off_c, 1, 62, 0
2, 187520, Note_on_c, 1, 54, 127
2, 187520, Note_on_c, 1, 62, 127
2, 187520, Note_off_c, 1, 66, 0
2, 187640, Note_off_c, 1, 54, 0
2, 187640, Note_off_c, 1, 62, 0
2, 187680, Note_on_c, 1, 55, 127
2, 187680, Note_on_c, 1, 61, 127
2, 187760, Note_off_c, 1, 55, 0
2, 187760, Note_off_c, 1, 61, 0
2, 187800, Note_on_c, 1, 54, 127
2, 187800, Note_on_c, 1, 62, 127
2, 187960, Note_on_c, 1, 66, 127
2, 188080, Note_off_c, 1, 54, 0
2, 188080, Note_off_c, 1, 62, 0
2, 188120, Note_on_c, 1, 54, 127
2, 188120, Note_on_c, 1, 62, 127
2, 188120, Note_off_c, 1, 66, 0
2, 188240, Note_off_c, 1, 62, 0
2, 188280, Note_on_c, 1, 61, 127
2, 188360, Note_off_c, 1, 54, 0
2, 188360, Note_off_c, 1, 61, 0
2, 188400, Note_on_c, 1, 54, 127
2, 188400, Note_on_c, 1, 62, 127
2, 188560, Note_on_c, 1, 66, 127
2, 188680, Note_off_c, 1, 54, 0
2, 188680, Note_off_c, 1, 62, 0
2, 188720, Note_on_c, 1, 45, 127
2, 188720, Note_on_c, 1, 62, 127
2, 188720, Note_off_c, 1, 66, 0
2, 188840, Note_off_c, 1, 62, 0
2, 188880, Note_on_c, 1, 61, 127
2, 188960, Note_off_c, 1, 45, 0
2, 188960, Note_off_c, 1, 61, 0
2, 189000, Note_on_c, 1, 56, 127
2, 189000, Note_on_c, 1, 62, 127
2, 189120, Note_off_c, 1, 62, 0
2, 189160, Note_on_c, 1, 65, 127
2, 189280, Note_off_c, 1, 56, 0
2, 189280, Note_off_c, 1, 65, 0
2, 189320, Note_on_c, 1, 56, 127
2, 189320, Note_on_c, 1, 62, 127
2, 189440, Note_off_c, 1, 56, 0
2, 189440, Note_off_c, 1, 62, 0
2, 189480, Note_on_c, 1, 57, 127
2, 189480, Note_on_c, 1, 61, 127
2, 189560, Note_off_c, 1, 57, 0
2, 189560, Note_off_c, 1, 61, 0
2, 189600, Note_on_c, 1, 56, 127
2, 189600, Note_on_c, 1, 62, 127
2, 189720, Note_off_c, 1, 62, 0
2, 189760, Note_on_c, 1, 65, 127
2, 189880, Note_off_c, 1, 56, 0
2, 189880, Note_off_c, 1, 65, 0
2, 189920, Note_on_c, 1, 56, 127
2, 189920, Note_on_c, 1, 62, 127
2, 190040, Note_off_c, 1, 62, 0
2, 190080, Note_on_c, 1, 61, 127
2, 190160, Note_off_c, 1, 56, 0
2, 190160, Note_off_c, 1, 61, 0
2, 190200, Note_on_c, 1, 56, 127
2, 190200, Note_on_c, 1, 62, 127
2, 190320, Note_off_c, 1, 62, 0
2, 190360, Note_on_c, 1, 71, 127
2, 190480, Note_off_c, 1, 56, 0
2, 190480, Note_off_c, 1, 71, 0
2, 190520, Note_on_c, 1, 45, 127
2, 190520, Note_on_c, 1, 61, 127
2, 190600, Note_on_c, 1, 59, 127
2, 190600, Note_off_c, 1, 61, 0
2, 190680, Note_off_c, 1, 59, 0
2, 190680, Note_on_c, 1, 61, 127
2, 190960, Note_on_c, 1, 64, 127
2, 191040, Note_off_c, 1, 64, 0
2, 191080, Note_off_c, 1, 61, 0
2, 191120, Note_on_c, 1, 67, 127
2, 191200, Note_off_c, 1, 67, 0
2, 191280, Note_on_c, 1, 70, 127
2, 191360, Note_off_c, 1, 70, 0
2, 191400, Note_on_c, 1, 67, 127
2, 191480, Note_off_c, 1, 45, 0
2, 191520, Note_off_c, 1, 67, 0
2, 191560, Note_on_c, 1, 64, 127
2, 191680, Note_off_c, 1, 64, 0
2, 191720, Note_on_c, 1, 61, 127
2, 191840, Note_off_c, 1, 61, 0
2, 191880, Note_on_c, 1, 57, 127
2, 191960, Note_off_c, 1, 57, 0
2, 192040, Note_on_c, 1, 55, 127
2, 192160, Note_off_c, 1, 55, 0
2, 192200, Note_on_c, 1, 52, 127
2, 192320, Note_off_c, 1, 52, 0
2, 192360, Note_on_c, 1, 49, 127
2, 192480, Note_off_c, 1, 49, 0
2, 192560, Note_on_c, 1, 45, 127
2, 192800, Note_off_c, 1, 45, 0
2, 192960, Note_on_c, 1, 74, 127
2, 193000, Note_on_c, 1, 73, 127
2, 193000, Note_off_c, 1, 74, 0
2, 193040, Note_off_c, 1, 73, 0
2, 193080, Note_on_c, 1, 74, 127
2, 193800, Note_on_c, 1, 44, 127
2, 193800, Note_on_c, 1, 59, 127
2, 193800, Note_on_c, 1, 62, 127
2, 193800, Note_on_c, 1, 65, 127
2, 194720, Note_off_c, 1, 74, 0
2, 195000, Note_off_c, 1, 44, 0
2, 195000, Note_off_c, 1, 59, 0
2, 195000, Note_off_c, 1, 62, 0
2, 195000, Note_off_c, 1, 65, 0
2, 195120, Note_on_c, 1, 43, 127
2, 195120, Note_on_c, 1, 64, 127
2, 195120, Note_on_c, 1, 69, 127
2, 195120, Note_on_c, 1, 73, 127
2, 195400, Note_off_c, 1, 43, 0
2, 195400, Note_off_c, 1, 64, 0
2, 195400, Note_off_c, 1, 69, 0
2, 195400, Note_off_c, 1, 73, 0
2, 195480, Note_on_c, 1, 42, 127
2, 195480, Note_on_c, 1, 69, 127
2, 195480, Note_on_c, 1, 74, 127
2, 195520, Note_on_c, 1, 73, 127
2, 195520, Note_off_c, 1, 74, 0
2, 195560, Note_off_c, 1, 73, 0
2, 195600, Note_on_c, 1, 74, 127
2, 195720, Note_off_c, 1, 42, 0
2, 195760, Note_on_c, 1, 43, 127
2, 195880, Note_off_c, 1, 74, 0
2, 195920, Note_on_c, 1, 76, 127
2, 196000, Note_off_c, 1, 69, 0
2, 196040, Note_off_c, 1, 43, 0
2, 196040, Note_off_c, 1, 76, 0
2, 196080, Note_on_c, 1, 45, 127
2, 196080, Note_on_c, 1, 73, 127
2, 196080, Note_on_c, 1, 78, 127
2, 196160, Note_off_c, 1, 78, 0
2, 196200, Note_on_c, 1, 76, 127
2, 196240, Note_off_c, 1, 76, 0
2, 196280, Note_on_c, 1, 78, 127
2, 196320, Note_off_c, 1, 45, 0
2, 196320, Note_on_c, 1, 76, 127
2, 196320, Note_off_c, 1, 78, 0
2, 196360, Note_on_c, 1, 43, 127
2, 196360, Note_off_c, 1, 76, 0
2, 196400, Note_on_c, 1, 78, 127
2, 196440, Note_on_c, 1, 76, 127
2, 196440, Note_off_c, 1, 78, 0
2, 196480, Note_off_c, 1, 76, 0
2, 196520, Note_on_c, 1, 78, 127
2, 196560, Note_off_c, 1, 78, 0
2, 196600, Note_on_c, 1, 76, 127
2, 196640, Note_off_c, 1, 43, 0
2, 196680, Note_on_c, 1, 45, 127
2, 196920, Note_off_c, 1, 73, 0
2, 196920, Note_off_c, 1, 76, 0
2, 196960, Note_on_c, 1, 74, 127
2, 197240, Note_off_c, 1, 45, 0
2, 197240, Note_off_c, 1, 74, 0
2, 197280, Note_on_c, 1, 38, 127
2, 197280, Note_on_c, 1, 74, 127
2, 197520, Note_off_c, 1, 38, 0
2, 197520, Note_off_c, 1, 74, 0
2, 197600, Note_on_c, 1, 78, 127
2, 197840, Note_off_c, 1, 78, 0
2, 197880, Note_on_c, 1, 71, 127
2, 198120, Note_off_c, 1, 71, 0
2, 198200, Note_on_c, 1, 83, 127
2, 198440, Note_off_c, 1, 83, 0
2, 198480, Note_on_c, 1, 81, 127
2, 198600, Note_off_c, 1, 81, 0
2, 198640, Note_on_c, 1, 78, 127
2, 198720, Note_off_c, 1, 78, 0
2, 198800, Note_on_c, 1, 79, 127
2, 198880, Note_off_c, 1, 79, 0
2, 198920, Note_on_c, 1, 76, 127
2, 199040, Note_off_c, 1, 76, 0
2, 199080, Note_on_c, 1, 78, 127
2, 199200, Note_off_c, 1, 78, 0
2, 199240, Note_on_c, 1, 76, 127
2, 199320, Note_off_c, 1, 76, 0
2, 199400, Note_on_c, 1, 66, 127
2, 199400, Note_on_c, 1, 74, 127
2, 199480, Note_off_c, 1, 74, 0
2, 199520, Note_on_c, 1, 73, 127
2, 199640, Note_off_c, 1, 66, 0
2, 199640, Note_off_c, 1, 73, 0
2, 199680, Note_on_c, 1, 59, 127
2, 199680, Note_on_c, 1, 74, 127
2, 199800, Note_off_c, 1, 74, 0
2, 199840, Note_on_c, 1, 73, 127
2, 199920, Note_off_c, 1, 59, 0
2, 199920, Note_off_c, 1, 73, 0
2, 200000, Note_on_c, 1, 71, 127
2, 200000, Note_on_c, 1, 74, 127
2, 200120, Note_on_c, 1, 79, 127
2, 200240, Note_off_c, 1, 71, 0
2, 200240, Note_off_c, 1, 74, 0
2, 200280, Note_on_c, 1, 69, 127
2, 200280, Note_on_c, 1, 73, 127
2, 200280, Note_off_c, 1, 79, 0
2, 200400, Note_off_c, 1, 69, 0
2, 200440, Note_on_c, 1, 66, 127
2, 200440, Note_on_c, 1, 78, 127
2, 200520, Note_off_c, 1, 66, 0
2, 200520, Note_off_c, 1, 73, 0
2, 200560, Note_off_c, 1, 78, 0
2, 200600, Note_on_c, 1, 67, 127
2, 200600, Note_on_c, 1, 71, 127
2, 200680, Note_off_c, 1, 67, 0
2, 200720, Note_on_c, 1, 64, 127
2, 200720, Note_off_c, 1, 71, 0
2, 200720, Note_on_c, 1, 76, 127
2, 200840, Note_off_c, 1, 64, 0
2, 200880, Note_on_c, 1, 66, 127
2, 200880, Note_on_c, 1, 70, 127
2, 200960, Note_off_c, 1, 76, 0
2, 201040, Note_on_c, 1, 76, 127
2, 201120, Note_off_c, 1, 66, 0
2, 201120, Note_off_c, 1, 76, 0
2, 201200, Note_on_c, 1, 54, 127
2, 201200, Note_on_c, 1, 73, 127
2, 201280, Note_off_c, 1, 70, 0
2, 201280, Note_off_c, 1, 73, 0
2, 201320, Note_on_c, 1, 70, 127
2, 201440, Note_off_c, 1, 54, 0
2, 201480, Note_on_c, 1, 58, 127
2, 201480, Note_on_c, 1, 76, 127
2, 201600, Note_off_c, 1, 76, 0
2, 201640, Note_on_c, 1, 73, 127
2, 201720, Note_off_c, 1, 58, 0
2, 201720, Note_off_c, 1, 70, 0
2, 201720, Note_off_c, 1, 73, 0
2, 201800, Note_on_c, 1, 61, 127
2, 201800, Note_on_c, 1, 70, 127
2, 201920, Note_on_c, 1, 73, 127
2, 202040, Note_off_c, 1, 61, 0
2, 202040, Note_off_c, 1, 70, 0
2, 202040, Note_off_c, 1, 73, 0
2, 202080, Note_on_c, 1, 58, 127
2, 202080, Note_on_c, 1, 66, 127
2, 202240, Note_on_c, 1, 76, 127
2, 202320, Note_off_c, 1, 58, 0
2, 202320, Note_off_c, 1, 66, 0
2, 202320, Note_off_c, 1, 76, 0
2, 202400, Note_on_c, 1, 54, 127
2, 202400, Note_on_c, 1, 74, 127
2, 202480, Note_off_c, 1, 74, 0
2, 202520, Note_on_c, 1, 73, 127
2, 202640, Note_off_c, 1, 54, 0
2, 202640, Note_off_c, 1, 73, 0
2, 202680, Note_on_c, 1, 59, 127
2, 202680, Note_on_c, 1, 74, 127
2, 202800, Note_off_c, 1, 74, 0
2, 202840, Note_on_c, 1, 73, 127
2, 202920, Note_off_c, 1, 59, 0
2, 202920, Note_off_c, 1, 73, 0
2, 203000, Note_on_c, 1, 54, 127
2, 203000, Note_on_c, 1, 71, 127
2, 203080, Note_off_c, 1, 71, 0
2, 203120, Note_on_c, 1, 70, 127
2, 203240, Note_off_c, 1, 54, 0
2, 203240, Note_off_c, 1, 70, 0
2, 203280, Note_on_c, 1, 47, 127
2, 203280, Note_on_c, 1, 71, 127
2, 203400, Note_off_c, 1, 71, 0
2, 203440, Note_on_c, 1, 73, 127
2, 203520, Note_off_c, 1, 47, 0
2, 203520, Note_off_c, 1, 73, 0
2, 203600, Note_on_c, 1, 59, 127
2, 203600, Note_on_c, 1, 74, 127
2, 203720, Note_on_c, 1, 67, 127
2, 203840, Note_off_c, 1, 59, 0
2, 203840, Note_off_c, 1, 67, 0
2, 203840, Note_off_c, 1, 74, 0
2, 203880, Note_on_c, 1, 57, 127
2, 203880, Note_on_c, 1, 73, 127
2, 204000, Note_off_c, 1, 57, 0
2, 204040, Note_on_c, 1, 54, 127
2, 204040, Note_on_c, 1, 66, 127
2, 204120, Note_off_c, 1, 54, 0
2, 204120, Note_off_c, 1, 66, 0
2, 204120, Note_off_c, 1, 73, 0
2, 204200, Note_on_c, 1, 55, 127
2, 204200, Note_on_c, 1, 71, 127
2, 204280, Note_off_c, 1, 55, 0
2, 204280, Note_off_c, 1, 71, 0
2, 204320, Note_on_c, 1, 52, 127
2, 204320, Note_on_c, 1, 73, 127
2, 204440, Note_off_c, 1, 52, 0
2, 204440, Note_off_c, 1, 73, 0
2, 204480, Note_on_c, 1, 54, 127
2, 204480, Note_on_c, 1, 70, 127
2, 204600, Note_off_c, 1, 54, 0
2, 204640, Note_on_c, 1, 52, 127
2, 204680, Note_off_c, 1, 70, 0
2, 204720, Note_off_c, 1, 52, 0
2, 204800, Note_on_c, 1, 49, 127
2, 204800, Note_on_c, 1, 66, 127
2, 204880, Note_off_c, 1, 49, 0
2, 204920, Note_on_c, 1, 46, 127
2, 204960, Note_off_c, 1, 66, 0
2, 205040, Note_off_c, 1, 46, 0
2, 205080, Note_on_c, 1, 52, 127
2, 205080, Note_on_c, 1, 70, 127
2, 205200, Note_off_c, 1, 52, 0
2, 205240, Note_on_c, 1, 49, 127
2, 205280, Note_off_c, 1, 70, 0
2, 205320, Note_off_c, 1, 49, 0
2, 205400, Note_on_c, 1, 46, 127
2, 205400, Note_on_c, 1, 73, 127
2, 205480, Note_off_c, 1, 46, 0
2, 205520, Note_on_c, 1, 49, 127
2, 205560, Note_off_c, 1, 73, 0
2, 205640, Note_off_c, 1, 49, 0
2, 205680, Note_on_c, 1, 42, 127
2, 205680, Note_on_c, 1, 70, 127
2, 205800, Note_off_c, 1, 42, 0
2, 205840, Note_on_c, 1, 52, 127
2, 205880, Note_off_c, 1, 70, 0
2, 205920, Note_off_c, 1, 52, 0
2, 206000, Note_on_c, 1, 50, 127
2, 206000, Note_on_c, 1, 66, 127
2, 206080, Note_off_c, 1, 50, 0
2, 206120, Note_on_c, 1, 49, 127
2, 206160, Note_off_c, 1, 66, 0
2, 206240, Note_off_c, 1, 49, 0
2, 206280, Note_on_c, 1, 51, 127
2, 206280, Note_on_c, 1, 71, 127
2, 206440, Note_on_c, 1, 81, 127
2, 206520, Note_off_c, 1, 51, 0
2, 206520, Note_off_c, 1, 81, 0
2, 206600, Note_on_c, 1, 47, 127
2, 206600, Note_on_c, 1, 78, 127
2, 206680, Note_off_c, 1, 78, 0
2, 206720, Note_on_c, 1, 75, 127
2, 206800, Note_off_c, 1, 47, 0
2, 206840, Note_off_c, 1, 75, 0
2, 206880, Note_on_c, 1, 51, 127
2, 206880, Note_on_c, 1, 81, 127
2, 207000, Note_off_c, 1, 81, 0
2, 207040, Note_on_c, 1, 78, 127
2, 207120, Note_off_c, 1, 51, 0
2, 207120, Note_off_c, 1, 78, 0
2, 207200, Note_on_c, 1, 54, 127
2, 207200, Note_on_c, 1, 75, 127
2, 207280, Note_off_c, 1, 75, 0
2, 207320, Note_on_c, 1, 78, 127
2, 207400, Note_off_c, 1, 54, 0
2, 207400, Note_off_c, 1, 71, 0
2, 207440, Note_off_c, 1, 78, 0
2, 207480, Note_on_c, 1, 51, 127
2, 207480, Note_on_c, 1, 71, 127
2, 207600, Note_off_c, 1, 71, 0
2, 207640, Note_on_c, 1, 69, 127
2, 207720, Note_off_c, 1, 51, 0
2, 207720, Note_off_c, 1, 69, 0
2, 207800, Note_on_c, 1, 47, 127
2, 207800, Note_on_c, 1, 68, 127
2, 207880, Note_off_c, 1, 68, 0
2, 207920, Note_on_c, 1, 66, 127
2, 208000, Note_off_c, 1, 47, 0
2, 208040, Note_off_c, 1, 66, 0
2, 208080, Note_on_c, 1, 52, 127
2, 208080, Note_on_c, 1, 68, 127
2, 208200, Note_off_c, 1, 52, 0
2, 208240, Note_on_c, 1, 62, 127
2, 208280, Note_off_c, 1, 68, 0
2, 208320, Note_off_c, 1, 62, 0
2, 208400, Note_on_c, 1, 59, 127
2, 208400, Note_on_c, 1, 76, 127
2, 208480, Note_off_c, 1, 59, 0
2, 208520, Note_on_c, 1, 56, 127
2, 208560, Note_off_c, 1, 76, 0
2, 208640, Note_off_c, 1, 56, 0
2, 208680, Note_on_c, 1, 62, 127
2, 208680, Note_on_c, 1, 80, 127
2, 208800, Note_off_c, 1, 62, 0
2, 208840, Note_on_c, 1, 59, 127
2, 208880, Note_off_c, 1, 80, 0
2, 208920, Note_off_c, 1, 59, 0
2, 209000, Note_on_c, 1, 56, 127
2, 209000, Note_on_c, 1, 83, 127
2, 209080, Note_off_c, 1, 56, 0
2, 209120, Note_on_c, 1, 59, 127
2, 209160, Note_off_c, 1, 83, 0
2, 209240, Note_off_c, 1, 59, 0
2, 209280, Note_on_c, 1, 52, 127
2, 209280, Note_on_c, 1, 80, 127
2, 209400, Note_off_c, 1, 52, 0
2, 209440, Note_on_c, 1, 62, 127
2, 209480, Note_off_c, 1, 80, 0
2, 209520, Note_off_c, 1, 62, 0
2, 209600, Note_on_c, 1, 61, 127
2, 209600, Note_on_c, 1, 76, 127
2, 209680, Note_off_c, 1, 61, 0
2, 209720, Note_on_c, 1, 59, 127
2, 209760, Note_off_c, 1, 76, 0
2, 209840, Note_off_c, 1, 59, 0
2, 209880, Note_on_c, 1, 61, 127
2, 209880, Note_on_c, 1, 81, 127
2, 210040, Note_on_c, 1, 79, 127
2, 210040, Note_off_c, 1, 81, 0
2, 210120, Note_off_c, 1, 61, 0
2, 210120, Note_off_c, 1, 79, 0
2, 210200, Note_on_c, 1, 57, 127
2, 210200, Note_on_c, 1, 76, 127
2, 210280, Note_off_c, 1, 76, 0
2, 210320, Note_on_c, 1, 73, 127
2, 210400, Note_off_c, 1, 57, 0
2, 210480, Note_on_c, 1, 61, 127
2, 210480, Note_on_c, 1, 79, 127
2, 210600, Note_off_c, 1, 73, 0
2, 210600, Note_off_c, 1, 79, 0
2, 210640, Note_on_c, 1, 76, 127
2, 210720, Note_off_c, 1, 61, 0
2, 210720, Note_off_c, 1, 76, 0
2, 210800, Note_on_c, 1, 64, 127
2, 210800, Note_on_c, 1, 73, 127
2, 210880, Note_off_c, 1, 73, 0
2, 210920, Note_on_c, 1, 76, 127
2, 211000, Note_off_c, 1, 64, 0
2, 211040, Note_off_c, 1, 76, 0
2, 211080, Note_on_c, 1, 61, 127
2, 211080, Note_on_c, 1, 69, 127
2, 211240, Note_on_c, 1, 79, 127
2, 211320, Note_off_c, 1, 61, 0
2, 211320, Note_off_c, 1, 69, 0
2, 211320, Note_off_c, 1, 79, 0
2, 211400, Note_on_c, 1, 57, 127
2, 211400, Note_on_c, 1, 78, 127
2, 211480, Note_off_c, 1, 78, 0
2, 211520, Note_on_c, 1, 76, 127
2, 211600, Note_off_c, 1, 57, 0
2, 211640, Note_off_c, 1, 76, 0
2, 211680, Note_on_c, 1, 62, 127
2, 211680, Note_on_c, 1, 78, 127
2, 211800, Note_off_c, 1, 78, 0
2, 211840, Note_on_c, 1, 76, 127
2, 211920, Note_off_c, 1, 62, 0
2, 211920, Note_off_c, 1, 76, 0
2, 212000, Note_on_c, 1, 57, 127
2, 212000, Note_on_c, 1, 74, 127
2, 212080, Note_off_c, 1, 74, 0
2, 212120, Note_on_c, 1, 73, 127
2, 212240, Note_off_c, 1, 57, 0
2, 212240, Note_off_c, 1, 73, 0
2, 212280, Note_on_c, 1, 50, 127
2, 212280, Note_on_c, 1, 71, 127
2, 212400, Note_off_c, 1, 71, 0
2, 212440, Note_on_c, 1, 74, 127
2, 212520, Note_off_c, 1, 50, 0
2, 212520, Note_off_c, 1, 74, 0
2, 212600, Note_on_c, 1, 62, 127
2, 212600, Note_on_c, 1, 76, 127
2, 212680, Note_off_c, 1, 76, 0
2, 212720, Note_on_c, 1, 80, 127
2, 212840, Note_off_c, 1, 62, 0
2, 212840, Note_off_c, 1, 80, 0
2, 212880, Note_on_c, 1, 61, 127
2, 212880, Note_on_c, 1, 81, 127
2, 213000, Note_off_c, 1, 61, 0
2, 213000, Note_off_c, 1, 81, 0
2, 213040, Note_on_c, 1, 57, 127
2, 213040, Note_on_c, 1, 73, 127
2, 213120, Note_off_c, 1, 57, 0
2, 213120, Note_off_c, 1, 73, 0
2, 213200, Note_on_c, 1, 59, 127
2, 213200, Note_on_c, 1, 74, 127
2, 213280, Note_off_c, 1, 59, 0
2, 213280, Note_off_c, 1, 74, 0
2, 213320, Note_on_c, 1, 56, 127
2, 213320, Note_on_c, 1, 71, 127
2, 213440, Note_off_c, 1, 56, 0
2, 213440, Note_off_c, 1, 71, 0
2, 213480, Note_on_c, 1, 57, 127
2, 213480, Note_on_c, 1, 73, 127
2, 213640, Note_on_c, 1, 76, 127
2, 213720, Note_off_c, 1, 57, 0
2, 213720, Note_off_c, 1, 76, 0
2, 213800, Note_on_c, 1, 55, 127
2, 213800, Note_on_c, 1, 78, 127
2, 213880, Note_off_c, 1, 73, 0
2, 213880, Note_off_c, 1, 78, 0
2, 213920, Note_on_c, 1, 79, 127
2, 214040, Note_off_c, 1, 55, 0
2, 214040, Note_off_c, 1, 79, 0
2, 214080, Note_on_c, 1, 54, 127
2, 214080, Note_on_c, 1, 81, 127
2, 214240, Note_on_c, 1, 71, 127
2, 214320, Note_off_c, 1, 54, 0
2, 214320, Note_off_c, 1, 71, 0
2, 214400, Note_on_c, 1, 52, 127
2, 214400, Note_on_c, 1, 72, 127
2, 214480, Note_off_c, 1, 72, 0
2, 214480, Note_off_c, 1, 81, 0
2, 214520, Note_on_c, 1, 69, 127
2, 214640, Note_off_c, 1, 52, 0
2, 214640, Note_off_c, 1, 69, 0
2, 214680, Note_on_c, 1, 54, 127
2, 214680, Note_on_c, 1, 81, 127
2, 214840, Note_on_c, 1, 71, 127
2, 214920, Note_off_c, 1, 54, 0
2, 214920, Note_off_c, 1, 71, 0
2, 215000, Note_on_c, 1, 50, 127
2, 215000, Note_on_c, 1, 72, 127
2, 215080, Note_off_c, 1, 72, 0
2, 215080, Note_off_c, 1, 81, 0
2, 215120, Note_on_c, 1, 69, 127
2, 215240, Note_off_c, 1, 50, 0
2, 215240, Note_off_c, 1, 69, 0
2, 215280, Note_on_c, 1, 55, 127
2, 215280, Note_on_c, 1, 71, 127
2, 215440, Note_on_c, 1, 74, 127
2, 215520, Note_off_c, 1, 55, 0
2, 215520, Note_off_c, 1, 71, 0
2, 215520, Note_off_c, 1, 74, 0
2, 215600, Note_on_c, 1, 54, 127
2, 215600, Note_on_c, 1, 76, 127
2, 215680, Note_off_c, 1, 76, 0
2, 215720, Note_on_c, 1, 78, 127
2, 215840, Note_off_c, 1, 54, 0
2, 215840, Note_off_c, 1, 78, 0
2, 215880, Note_on_c, 1, 52, 127
2, 215880, Note_on_c, 1, 79, 127
2, 216040, Note_on_c, 1, 69, 127
2, 216120, Note_off_c, 1, 52, 0
2, 216120, Note_off_c, 1, 69, 0
2, 216200, Note_on_c, 1, 50, 127
2, 216200, Note_on_c, 1, 71, 127
2, 216280, Note_off_c, 1, 71, 0
2, 216280, Note_off_c, 1, 79, 0
2, 216320, Note_on_c, 1, 67, 127
2, 216440, Note_off_c, 1, 50, 0
2, 216440, Note_off_c, 1, 67, 0
2, 216480, Note_on_c, 1, 52, 127
2, 216480, Note_on_c, 1, 79, 127
2, 216640, Note_on_c, 1, 69, 127
2, 216720, Note_off_c, 1, 52, 0
2, 216720, Note_off_c, 1, 69, 0
2, 216800, Note_on_c, 1, 49, 127
2, 216800, Note_on_c, 1, 71, 127
2, 216880, Note_off_c, 1, 71, 0
2, 216880, Note_off_c, 1, 79, 0
2, 216920, Note_on_c, 1, 67, 127
2, 217040, Note_off_c, 1, 49, 0
2, 217040, Note_off_c, 1, 67, 0
2, 217080, Note_on_c, 1, 54, 127
2, 217080, Note_on_c, 1, 69, 127
2, 217240, Note_on_c, 1, 66, 127
2, 217320, Note_off_c, 1, 54, 0
2, 217320, Note_off_c, 1, 66, 0
2, 217320, Note_off_c, 1, 69, 0
2, 217400, Note_on_c, 1, 52, 127
2, 217400, Note_on_c, 1, 69, 127
2, 217480, Note_off_c, 1, 69, 0
2, 217520, Note_on_c, 1, 73, 127
2, 217640, Note_off_c, 1, 52, 0
2, 217640, Note_off_c, 1, 73, 0
2, 217680, Note_on_c, 1, 51, 127
2, 217680, Note_on_c, 1, 78, 127
2, 217840, Note_on_c, 1, 67, 127
2, 217920, Note_off_c, 1, 51, 0
2, 217920, Note_off_c, 1, 67, 0
2, 218000, Note_on_c, 1, 49, 127
2, 218000, Note_on_c, 1, 69, 127
2, 218080, Note_off_c, 1, 69, 0
2, 218080, Note_off_c, 1, 78, 0
2, 218120, Note_on_c, 1, 66, 127
2, 218240, Note_off_c, 1, 49, 0
2, 218240, Note_off_c, 1, 66, 0
2, 218280, Note_on_c, 1, 51, 127
2, 218280, Note_on_c, 1, 78, 127
2, 218440, Note_on_c, 1, 67, 127
2, 218520, Note_off_c, 1, 51, 0
2, 218520, Note_off_c, 1, 67, 0
2, 218600, Note_on_c, 1, 47, 127
2, 218600, Note_on_c, 1, 69, 127
2, 218680, Note_off_c, 1, 69, 0
2, 218680, Note_off_c, 1, 78, 0
2, 218720, Note_on_c, 1, 66, 127
2, 218840, Note_off_c, 1, 47, 0
2, 218840, Note_off_c, 1, 66, 0
2, 218880, Note_on_c, 1, 52, 127
2, 218880, Note_on_c, 1, 67, 127
2, 219040, Note_on_c, 1, 64, 127
2, 219120, Note_off_c, 1, 52, 0
2, 219120, Note_off_c, 1, 64, 0
2, 219120, Note_off_c, 1, 67, 0
2, 219200, Note_on_c, 1, 50, 127
2, 219200, Note_on_c, 1, 67, 127
2, 219280, Note_off_c, 1, 67, 0
2, 219320, Note_on_c, 1, 71, 127
2, 219440, Note_off_c, 1, 50, 0
2, 219440, Note_off_c, 1, 71, 0
2, 219480, Note_on_c, 1, 49, 127
2, 219480, Note_on_c, 1, 76, 127
2, 219640, Note_on_c, 1, 66, 127
2, 219720, Note_off_c, 1, 49, 0
2, 219720, Note_off_c, 1, 66, 0
2, 219800, Note_on_c, 1, 47, 127
2, 219800, Note_on_c, 1, 67, 127
2, 219880, Note_off_c, 1, 67, 0
2, 219880, Note_off_c, 1, 76, 0
2, 219920, Note_on_c, 1, 64, 127
2, 220040, Note_off_c, 1, 47, 0
2, 220040, Note_off_c, 1, 64, 0
2, 220080, Note_on_c, 1, 49, 127
2, 220080, Note_on_c, 1, 76, 127
2, 220200, Note_off_c, 1, 76, 0
2, 220240, Note_on_c, 1, 66, 127
2, 220320, Note_off_c, 1, 49, 0
2, 220320, Note_off_c, 1, 66, 0
2, 220400, Note_on_c, 1, 45, 127
2, 220400, Note_on_c, 1, 67, 127
2, 220480, Note_off_c, 1, 67, 0
2, 220520, Note_on_c, 1, 64, 127
2, 220640, Note_off_c, 1, 45, 0
2, 220640, Note_off_c, 1, 64, 0
2, 220680, Note_on_c, 1, 50, 127
2, 220680, Note_on_c, 1, 66, 127
2, 220800, Note_off_c, 1, 66, 0
2, 220840, Note_on_c, 1, 64, 127
2, 220920, Note_off_c, 1, 50, 0
2, 220920, Note_off_c, 1, 64, 0
2, 221000, Note_on_c, 1, 45, 127
2, 221000, Note_on_c, 1, 62, 127
2, 221080, Note_off_c, 1, 62, 0
2, 221120, Note_on_c, 1, 61, 127
2, 221240, Note_off_c, 1, 45, 0
2, 221240, Note_off_c, 1, 61, 0
2, 221280, Note_on_c, 1, 38, 127
2, 221280, Note_on_c, 1, 62, 127
2, 221440, Note_on_c, 1, 58, 127
2, 221520, Note_off_c, 1, 38, 0
2, 221520, Note_off_c, 1, 58, 0
2, 221520, Note_off_c, 1, 62, 0
2, 221600, Note_on_c, 1, 50, 127
2, 221600, Note_on_c, 1, 59, 127
2, 221720, Note_on_c, 1, 66, 127
2, 221760, Note_off_c, 1, 59, 0
2, 221840, Note_off_c, 1, 50, 0
2, 221840, Note_off_c, 1, 66, 0
2, 221880, Note_on_c, 1, 49, 127
2, 221880, Note_on_c, 1, 64, 127
2, 222000, Note_off_c, 1, 49, 0
2, 222000, Note_off_c, 1, 64, 0
2, 222040, Note_on_c, 1, 46, 127
2, 222040, Note_on_c, 1, 61, 127
2, 222120, Note_off_c, 1, 46, 0
2, 222120, Note_off_c, 1, 61, 0
2, 222200, Note_on_c, 1, 47, 127
2, 222200, Note_on_c, 1, 62, 127
2, 222280, Note_off_c, 1, 47, 0
2, 222280, Note_off_c, 1, 62, 0
2, 222320, Note_on_c, 1, 44, 127
2, 222320, Note_on_c, 1, 59, 127
2, 222440, Note_off_c, 1, 44, 0
2, 222440, Note_off_c, 1, 59, 0
2, 222480, Note_on_c, 1, 46, 127
2, 222480, Note_on_c, 1, 61, 127
2, 222640, Note_off_c, 1, 61, 0
2, 222640, Note_on_c, 1, 64, 127
2, 222720, Note_off_c, 1, 46, 0
2, 222720, Note_off_c, 1, 64, 0
2, 222800, Note_on_c, 1, 42, 127
2, 222800, Note_on_c, 1, 61, 127
2, 222880, Note_off_c, 1, 61, 0
2, 222920, Note_on_c, 1, 58, 127
2, 223040, Note_off_c, 1, 42, 0
2, 223040, Note_off_c, 1, 58, 0
2, 223080, Note_on_c, 1, 46, 127
2, 223080, Note_on_c, 1, 64, 127
2, 223200, Note_off_c, 1, 64, 0
2, 223240, Note_on_c, 1, 61, 127
2, 223320, Note_off_c, 1, 46, 0
2, 223320, Note_off_c, 1, 61, 0
2, 223400, Note_on_c, 1, 49, 127
2, 223400, Note_on_c, 1, 58, 127
2, 223480, Note_off_c, 1, 58, 0
2, 223520, Note_on_c, 1, 61, 127
2, 223640, Note_off_c, 1, 49, 0
2, 223640, Note_off_c, 1, 61, 0
2, 223680, Note_on_c, 1, 46, 127
2, 223680, Note_on_c, 1, 54, 127
2, 223800, Note_off_c, 1, 54, 0
2, 223840, Note_on_c, 1, 64, 127
2, 223920, Note_off_c, 1, 46, 0
2, 223920, Note_off_c, 1, 64, 0
2, 224000, Note_on_c, 1, 42, 127
2, 224000, Note_on_c, 1, 62, 127
2, 224080, Note_off_c, 1, 62, 0
2, 224120, Note_on_c, 1, 61, 127
2, 224240, Note_off_c, 1, 42, 0
2, 224240, Note_off_c, 1, 61, 0
2, 224280, Note_on_c, 1, 47, 127
2, 224280, Note_on_c, 1, 62, 127
2, 224440, Note_on_c, 1, 59, 127
2, 224440, Note_off_c, 1, 62, 0
2, 224520, Note_off_c, 1, 47, 0
2, 224520, Note_off_c, 1, 59, 0
2, 224600, Note_on_c, 1, 47, 127
2, 224600, Note_on_c, 1, 63, 127
2, 224680, Note_off_c, 1, 63, 0
2, 224720, Note_on_c, 1, 66, 127
2, 224840, Note_off_c, 1, 47, 0
2, 224840, Note_off_c, 1, 66, 0
2, 224880, Note_on_c, 1, 51, 127
2, 224880, Note_on_c, 1, 69, 127
2, 225000, Note_off_c, 1, 69, 0
2, 225040, Note_on_c, 1, 66, 127
2, 225120, Note_off_c, 1, 51, 0
2, 225120, Note_off_c, 1, 66, 0
2, 225200, Note_on_c, 1, 54, 127
2, 225200, Note_on_c, 1, 63, 127
2, 225280, Note_off_c, 1, 63, 0
2, 225320, Note_on_c, 1, 66, 127
2, 225440, Note_off_c, 1, 54, 0
2, 225440, Note_off_c, 1, 66, 0
2, 225480, Note_on_c, 1, 51, 127
2, 225480, Note_on_c, 1, 59, 127
2, 225600, Note_off_c, 1, 59, 0
2, 225640, Note_on_c, 1, 69, 127
2, 225720, Note_off_c, 1, 51, 0
2, 225720, Note_off_c, 1, 69, 0
2, 225800, Note_on_c, 1, 47, 127
2, 225800, Note_on_c, 1, 67, 127
2, 225880, Note_off_c, 1, 67, 0
2, 225920, Note_on_c, 1, 66, 127
2, 226040, Note_off_c, 1, 47, 0
2, 226040, Note_off_c, 1, 66, 0
2, 226080, Note_on_c, 1, 52, 127
2, 226080, Note_on_c, 1, 67, 127
2, 226200, Note_off_c, 1, 67, 0
2, 226240, Note_on_c, 1, 59, 127
2, 226320, Note_off_c, 1, 52, 0
2, 226320, Note_off_c, 1, 59, 0
2, 226400, Note_on_c, 1, 55, 127
2, 226400, Note_on_c, 1, 64, 127
2, 226480, Note_off_c, 1, 55, 0
2, 226480, Note_off_c, 1, 64, 0
2, 226520, Note_on_c, 1, 54, 127
2, 226520, Note_on_c, 1, 67, 127
2, 226640, Note_off_c, 1, 54, 0
2, 226640, Note_off_c, 1, 67, 0
2, 226680, Note_on_c, 1, 53, 127
2, 226680, Note_on_c, 1, 71, 127
2, 226800, Note_off_c, 1, 71, 0
2, 226840, Note_on_c, 1, 68, 127
2, 226920, Note_off_c, 1, 53, 0
2, 226920, Note_off_c, 1, 68, 0
2, 227000, Note_on_c, 1, 56, 127
2, 227000, Note_on_c, 1, 65, 127
2, 227080, Note_off_c, 1, 65, 0
2, 227120, Note_on_c, 1, 68, 127
2, 227240, Note_off_c, 1, 56, 0
2, 227240, Note_off_c, 1, 68, 0
2, 227280, Note_on_c, 1, 53, 127
2, 227280, Note_on_c, 1, 61, 127
2, 227400, Note_off_c, 1, 61, 0
2, 227440, Note_on_c, 1, 71, 127
2, 227520, Note_off_c, 1, 53, 0
2, 227520, Note_off_c, 1, 71, 0
2, 227600, Note_on_c, 1, 49, 127
2, 227600, Note_on_c, 1, 70, 127
2, 227680, Note_off_c, 1, 70, 0
2, 227720, Note_on_c, 1, 68, 127
2, 227840, Note_off_c, 1, 49, 0
2, 227840, Note_off_c, 1, 68, 0
2, 227880, Note_on_c, 1, 42, 127
2, 227880, Note_on_c, 1, 70, 127
2, 228040, Note_on_c, 1, 66, 127
2, 228040, Note_off_c, 1, 70, 0
2, 228120, Note_off_c, 1, 66, 0
2, 228200, Note_on_c, 1, 54, 127
2, 228200, Note_on_c, 1, 70, 127
2, 228280, Note_off_c, 1, 42, 0
2, 228280, Note_off_c, 1, 70, 0
2, 228320, Note_on_c, 1, 73, 127
2, 228440, Note_off_c, 1, 54, 0
2, 228440, Note_off_c, 1, 73, 0
2, 228480, Note_on_c, 1, 58, 127
2, 228480, Note_on_c, 1, 76, 127
2, 228600, Note_off_c, 1, 76, 0
2, 228640, Note_on_c, 1, 73, 127
2, 228720, Note_off_c, 1, 58, 0
2, 228720, Note_off_c, 1, 73, 0
2, 228800, Note_on_c, 1, 61, 127
2, 228800, Note_on_c, 1, 70, 127
2, 228880, Note_off_c, 1, 70, 0
2, 228920, Note_on_c, 1, 73, 127
2, 229040, Note_off_c, 1, 61, 0
2, 229040, Note_off_c, 1, 73, 0
2, 229080, Note_on_c, 1, 58, 127
2, 229080, Note_on_c, 1, 66, 127
2, 229200, Note_off_c, 1, 66, 0
2, 229240, Note_on_c, 1, 76, 127
2, 229320, Note_off_c, 1, 58, 0
2, 229320, Note_off_c, 1, 76, 0
2, 229400, Note_on_c, 1, 54, 127
2, 229400, Note_on_c, 1, 74, 127
2, 229480, Note_off_c, 1, 74, 0
2, 229520, Note_on_c, 1, 73, 127
2, 229640, Note_off_c, 1, 54, 0
2, 229640, Note_off_c, 1, 73, 0
2, 229680, Note_on_c, 1, 59, 127
2, 229680, Note_on_c, 1, 74, 127
2, 229800, Note_off_c, 1, 59, 0
2, 229840, Note_on_c, 1, 64, 127
2, 229840, Note_off_c, 1, 74, 0
2, 229920, Note_off_c, 1, 64, 0
2, 230000, Note_on_c, 1, 62, 127
2, 230000, Note_on_c, 1, 78, 127
2, 230080, Note_off_c, 1, 62, 0
2, 230120, Note_on_c, 1, 61, 127
2, 230160, Note_off_c, 1, 78, 0
2, 230240, Note_off_c, 1, 61, 0
2, 230280, Note_on_c, 1, 62, 127
2, 230280, Note_on_c, 1, 71, 127
2, 230400, Note_off_c, 1, 62, 0
2, 230440, Note_on_c, 1, 61, 127
2, 230440, Note_off_c, 1, 71, 0
2, 230520, Note_off_c, 1, 61, 0
2, 230600, Note_on_c, 1, 62, 127
2, 230600, Note_on_c, 1, 83, 127
2, 230680, Note_off_c, 1, 62, 0
2, 230720, Note_on_c, 1, 66, 127
2, 230760, Note_off_c, 1, 83, 0
2, 230840, Note_off_c, 1, 66, 0
2, 230880, Note_on_c, 1, 63, 127
2, 230880, Note_on_c, 1, 81, 127
2, 231000, Note_off_c, 1, 63, 0
2, 231000, Note_off_c, 1, 81, 0
2, 231040, Note_on_c, 1, 66, 127
2, 231040, Note_on_c, 1, 78, 127
2, 231120, Note_off_c, 1, 66, 0
2, 231120, Note_off_c, 1, 78, 0
2, 231200, Note_on_c, 1, 64, 127
2, 231200, Note_on_c, 1, 79, 127
2, 231280, Note_off_c, 1, 64, 0
2, 231280, Note_off_c, 1, 79, 0
2, 231320, Note_on_c, 1, 67, 127
2, 231320, Note_on_c, 1, 76, 127
2, 231440, Note_off_c, 1, 67, 0
2, 231440, Note_off_c, 1, 76, 0
2, 231480, Note_on_c, 1, 58, 127
2, 231480, Note_on_c, 1, 85, 127
2, 231600, Note_off_c, 1, 85, 0
2, 231640, Note_on_c, 1, 83, 127
2, 231720, Note_off_c, 1, 58, 0
2, 231720, Note_off_c, 1, 83, 0
2, 231800, Note_on_c, 1, 61, 127
2, 231800, Note_on_c, 1, 82, 127
2, 231880, Note_off_c, 1, 82, 0
2, 231920, Note_on_c, 1, 80, 127
2, 232000, Note_off_c, 1, 61, 0
2, 232040, Note_off_c, 1, 80, 0
2, 232080, Note_on_c, 1, 54, 127
2, 232080, Note_on_c, 1, 82, 127
2, 232200, Note_off_c, 1, 82, 0
2, 232240, Note_on_c, 1, 80, 127
2, 232320, Note_off_c, 1, 54, 0
2, 232320, Note_off_c, 1, 80, 0
2, 232400, Note_on_c, 1, 66, 127
2, 232400, Note_on_c, 1, 82, 127
2, 232480, Note_off_c, 1, 82, 0
2, 232520, Note_on_c, 1, 85, 127
2, 232600, Note_off_c, 1, 66, 0
2, 232640, Note_off_c, 1, 85, 0
2, 232680, Note_on_c, 1, 64, 127
2, 232680, Note_on_c, 1, 78, 127
2, 232800, Note_off_c, 1, 64, 0
2, 232800, Note_off_c, 1, 78, 0
2, 232840, Note_on_c, 1, 61, 127
2, 232840, Note_on_c, 1, 82, 127
2, 232920, Note_off_c, 1, 61, 0
2, 232920, Note_off_c, 1, 82, 0
2, 233000, Note_on_c, 1, 62, 127
2, 233000, Note_on_c, 1, 83, 127
2, 233080, Note_off_c, 1, 62, 0
2, 233080, Note_off_c, 1, 83, 0
2, 233120, Note_on_c, 1, 59, 127
2, 233120, Note_on_c, 1, 74, 127
2, 233240, Note_off_c, 1, 59, 0
2, 233240, Note_off_c, 1, 74, 0
2, 233280, Note_on_c, 1, 61, 127
2, 233280, Note_on_c, 1, 76, 127
2, 233440, Note_on_c, 1, 79, 127
2, 233520, Note_off_c, 1, 61, 0
2, 233520, Note_off_c, 1, 76, 0
2, 233520, Note_off_c, 1, 79, 0
2, 233600, Note_on_c, 1, 59, 127
2, 233600, Note_on_c, 1, 74, 127
2, 233720, Note_on_c, 1, 79, 127
2, 233840, Note_off_c, 1, 59, 0
2, 233840, Note_off_c, 1, 74, 0
2, 233840, Note_off_c, 1, 79, 0
2, 233880, Note_on_c, 1, 58, 127
2, 233880, Note_on_c, 1, 73, 127
2, 234040, Note_on_c, 1, 79, 127
2, 234120, Note_off_c, 1, 58, 0
2, 234120, Note_off_c, 1, 73, 0
2, 234120, Note_off_c, 1, 79, 0
2, 234200, Note_on_c, 1, 59, 127
2, 234200, Note_on_c, 1, 74, 127
2, 234320, Note_on_c, 1, 79, 127
2, 234400, Note_off_c, 1, 74, 0
2, 234440, Note_off_c, 1, 59, 0
2, 234440, Note_off_c, 1, 79, 0
2, 234480, Note_on_c, 1, 61, 127
2, 234480, Note_on_c, 1, 73, 127
2, 234640, Note_off_c, 1, 73, 0
2, 234640, Note_on_c, 1, 79, 127
2, 234720, Note_off_c, 1, 61, 0
2, 234720, Note_off_c, 1, 79, 0
2, 234800, Note_on_c, 1, 62, 127
2, 234800, Note_on_c, 1, 71, 127
2, 234920, Note_off_c, 1, 71, 0
2, 234920, Note_on_c, 1, 79, 127
2, 235040, Note_off_c, 1, 62, 0
2, 235040, Note_off_c, 1, 79, 0
2, 235080, Note_on_c, 1, 64, 127
2, 235080, Note_on_c, 1, 70, 127
2, 235240, Note_on_c, 1, 73, 127
2, 235320, Note_off_c, 1, 64, 0
2, 235320, Note_off_c, 1, 73, 0
2, 235400, Note_on_c, 1, 52, 127
2, 235400, Note_on_c, 1, 78, 127
2, 235480, Note_off_c, 1, 70, 0
2, 235520, Note_on_c, 1, 66, 127
2, 235640, Note_off_c, 1, 52, 0
2, 235640, Note_off_c, 1, 66, 0
2, 235680, Note_on_c, 1, 50, 127
2, 235680, Note_on_c, 1, 71, 127
2, 235840, Note_on_c, 1, 74, 127
2, 235920, Note_off_c, 1, 50, 0
2, 235920, Note_off_c, 1, 74, 0
2, 235920, Note_off_c, 1, 78, 0
2, 236000, Note_on_c, 1, 62, 127
2, 236000, Note_on_c, 1, 78, 127
2, 236080, Note_off_c, 1, 71, 0
2, 236120, Note_on_c, 1, 66, 127
2, 236240, Note_off_c, 1, 62, 0
2, 236240, Note_off_c, 1, 66, 0
2, 236240, Note_off_c, 1, 78, 0
2, 236280, Note_on_c, 1, 61, 127
2, 236280, Note_on_c, 1, 70, 127
2, 236440, Note_on_c, 1, 73, 127
2, 236520, Note_off_c, 1, 61, 0
2, 236520, Note_off_c, 1, 70, 0
2, 236520, Note_off_c, 1, 73, 0
2, 236600, Note_on_c, 1, 54, 127
2, 236600, Note_on_c, 1, 76, 127
2, 236680, Note_off_c, 1, 76, 0
2, 236720, Note_on_c, 1, 66, 127
2, 236840, Note_off_c, 1, 54, 0
2, 236840, Note_off_c, 1, 66, 0
2, 236880, Note_on_c, 1, 47, 127
2, 236880, Note_on_c, 1, 74, 127
2, 237000, Note_off_c, 1, 74, 0
2, 237040, Note_on_c, 1, 73, 127
2, 237120, Note_off_c, 1, 47, 0
2, 237120, Note_off_c, 1, 73, 0
2, 237200, Note_on_c, 1, 59, 127
2, 237200, Note_on_c, 1, 71, 127
2, 237280, Note_off_c, 1, 71, 0
2, 237320, Note_on_c, 1, 69, 127
2, 237440, Note_off_c, 1, 69, 0
2, 237480, Note_on_c, 1, 67, 127
2, 237600, Note_off_c, 1, 59, 0
2, 237600, Note_off_c, 1, 67, 0
2, 237640, Note_on_c, 1, 57, 127
2, 237640, Note_on_c, 1, 66, 127
2, 237720, Note_off_c, 1, 57, 0
2, 237720, Note_off_c, 1, 66, 0
2, 237800, Note_on_c, 1, 55, 127
2, 237800, Note_on_c, 1, 64, 127
2, 237880, Note_off_c, 1, 55, 0
2, 237880, Note_off_c, 1, 64, 0
2, 237920, Note_on_c, 1, 54, 127
2, 237920, Note_on_c, 1, 66, 127
2, 238040, Note_off_c, 1, 54, 0
2, 238040, Note_off_c, 1, 66, 0
2, 238080, Note_on_c, 1, 52, 127
2, 238080, Note_on_c, 1, 67, 127
2, 238200, Note_off_c, 1, 52, 0
2, 238200, Note_off_c, 1, 67, 0
2, 238240, Note_on_c, 1, 50, 127
2, 238240, Note_on_c, 1, 66, 127
2, 238320, Note_off_c, 1, 50, 0
2, 238320, Note_off_c, 1, 66, 0
2, 238400, Note_on_c, 1, 52, 127
2, 238400, Note_on_c, 1, 67, 127
2, 238480, Note_off_c, 1, 67, 0
2, 238520, Note_on_c, 1, 40, 127
2, 238520, Note_on_c, 1, 74, 127
2, 238640, Note_off_c, 1, 40, 0
2, 238640, Note_off_c, 1, 52, 0
2, 238640, Note_off_c, 1, 74, 0
2, 238680, Note_on_c, 1, 45, 127
2, 238680, Note_on_c, 1, 73, 127
2, 238800, Note_off_c, 1, 73, 0
2, 238840, Note_on_c, 1, 71, 127
2, 238920, Note_off_c, 1, 45, 0
2, 238920, Note_off_c, 1, 71, 0
2, 239000, Note_on_c, 1, 57, 127
2, 239000, Note_on_c, 1, 69, 127
2, 239080, Note_off_c, 1, 69, 0
2, 239120, Note_on_c, 1, 67, 127
2, 239240, Note_off_c, 1, 67, 0
2, 239280, Note_on_c, 1, 66, 127
2, 239400, Note_off_c, 1, 57, 0
2, 239400, Note_off_c, 1, 66, 0
2, 239440, Note_on_c, 1, 55, 127
2, 239440, Note_on_c, 1, 64, 127
2, 239520, Note_off_c, 1, 55, 0
2, 239520, Note_off_c, 1, 64, 0
2, 239600, Note_on_c, 1, 54, 127
2, 239600, Note_on_c, 1, 62, 127
2, 239680, Note_off_c, 1, 54, 0
2, 239680, Note_off_c, 1, 62, 0
2, 239720, Note_on_c, 1, 52, 127
2, 239720, Note_on_c, 1, 64, 127
2, 239840, Note_off_c, 1, 52, 0
2, 239840, Note_off_c, 1, 64, 0
2, 239880, Note_on_c, 1, 50, 127
2, 239880, Note_on_c, 1, 66, 127
2, 240000, Note_off_c, 1, 50, 0
2, 240000, Note_off_c, 1, 66, 0
2, 240040, Note_on_c, 1, 48, 127
2, 240040, Note_on_c, 1, 64, 127
2, 240120, Note_off_c, 1, 48, 0
2, 240120, Note_off_c, 1, 64, 0
2, 240200, Note_on_c, 1, 50, 127
2, 240200, Note_on_c, 1, 66, 127
2, 240280, Note_off_c, 1, 66, 0
2, 240320, Note_on_c, 1, 38, 127
2, 240320, Note_on_c, 1, 72, 127
2, 240440, Note_off_c, 1, 38, 0
2, 240440, Note_off_c, 1, 50, 0
2, 240440, Note_off_c, 1, 72, 0
2, 240480, Note_on_c, 1, 43, 127
2, 240480, Note_on_c, 1, 71, 127
2, 240600, Note_off_c, 1, 71, 0
2, 240640, Note_on_c, 1, 69, 127
2, 240720, Note_off_c, 1, 43, 0
2, 240720, Note_off_c, 1, 69, 0
2, 240800, Note_on_c, 1, 47, 127
2, 240800, Note_on_c, 1, 67, 127
2, 240880, Note_off_c, 1, 67, 0
2, 240920, Note_on_c, 1, 66, 127
2, 241040, Note_off_c, 1, 47, 0
2, 241040, Note_off_c, 1, 66, 0
2, 241080, Note_on_c, 1, 40, 127
2, 241080, Note_on_c, 1, 67, 127
2, 241200, Note_off_c, 1, 67, 0
2, 241240, Note_on_c, 1, 66, 127
2, 241320, Note_off_c, 1, 40, 0
2, 241320, Note_off_c, 1, 66, 0
2, 241400, Note_on_c, 1, 52, 127
2, 241400, Note_on_c, 1, 67, 127
2, 241480, Note_off_c, 1, 52, 0
2, 241480, Note_off_c, 1, 67, 0
2, 241520, Note_on_c, 1, 50, 127
2, 241520, Note_on_c, 1, 71, 127
2, 241640, Note_off_c, 1, 50, 0
2, 241640, Note_off_c, 1, 71, 0
2, 241680, Note_on_c, 1, 49, 127
2, 241680, Note_on_c, 1, 70, 127
2, 241800, Note_off_c, 1, 49, 0
2, 241800, Note_off_c, 1, 70, 0
2, 241840, Note_on_c, 1, 46, 127
2, 241840, Note_on_c, 1, 73, 127
2, 241920, Note_off_c, 1, 46, 0
2, 241920, Note_off_c, 1, 73, 0
2, 242000, Note_on_c, 1, 47, 127
2, 242000, Note_on_c, 1, 71, 127
2, 242080, Note_off_c, 1, 47, 0
2, 242080, Note_off_c, 1, 71, 0
2, 242120, Note_on_c, 1, 44, 127
2, 242120, Note_on_c, 1, 74, 127
2, 242240, Note_off_c, 1, 44, 0
2, 242240, Note_off_c, 1, 74, 0
2, 242280, Note_on_c, 1, 46, 127
2, 242280, Note_on_c, 1, 73, 127
2, 242400, Note_off_c, 1, 73, 0
2, 242440, Note_on_c, 1, 74, 127
2, 242520, Note_off_c, 1, 74, 0
2, 242600, Note_on_c, 1, 76, 127
2, 242680, Note_off_c, 1, 76, 0
2, 242720, Note_on_c, 1, 73, 127
2, 242840, Note_off_c, 1, 73, 0
2, 242880, Note_on_c, 1, 70, 127
2, 243000, Note_off_c, 1, 46, 0
2, 243000, Note_off_c, 1, 70, 0
2, 243040, Note_on_c, 1, 66, 127
2, 243120, Note_off_c, 1, 66, 0
2, 243200, Note_on_c, 1, 49, 127
2, 243200, Note_on_c, 1, 67, 127
2, 243280, Note_off_c, 1, 67, 0
2, 243320, Note_on_c, 1, 64, 127
2, 243440, Note_off_c, 1, 49, 0
2, 243440, Note_off_c, 1, 64, 0
2, 243480, Note_on_c, 1, 46, 127
2, 243480, Note_on_c, 1, 66, 127
2, 243600, Note_off_c, 1, 66, 0
2, 243640, Note_on_c, 1, 62, 127
2, 243720, Note_off_c, 1, 46, 0
2, 243720, Note_off_c, 1, 62, 0
2, 243800, Note_on_c, 1, 42, 127
2, 243800, Note_on_c, 1, 64, 127
2, 243880, Note_off_c, 1, 64, 0
2, 243920, Note_on_c, 1, 61, 127
2, 244040, Note_off_c, 1, 42, 0
2, 244040, Note_off_c, 1, 61, 0
2, 244080, Note_on_c, 1, 47, 127
2, 244080, Note_on_c, 1, 62, 127
2, 244200, Note_off_c, 1, 62, 0
2, 244240, Note_on_c, 1, 66, 127
2, 244320, Note_off_c, 1, 66, 0
2, 244400, Note_on_c, 1, 71, 127
2, 244480, Note_off_c, 1, 71, 0
2, 244520, Note_on_c, 1, 70, 127
2, 244640, Note_off_c, 1, 47, 0
2, 244640, Note_off_c, 1, 70, 0
2, 244680, Note_on_c, 1, 71, 127
2, 244800, Note_off_c, 1, 71, 0
2, 244840, Note_on_c, 1, 64, 127
2, 244920, Note_off_c, 1, 64, 0
2, 245000, Note_on_c, 1, 50, 127
2, 245000, Note_on_c, 1, 66, 127
2, 245080, Note_off_c, 1, 66, 0
2, 245120, Note_on_c, 1, 62, 127
2, 245240, Note_off_c, 1, 50, 0
2, 245240, Note_off_c, 1, 62, 0
2, 245280, Note_on_c, 1, 49, 127
2, 245280, Note_on_c, 1, 64, 127
2, 245400, Note_off_c, 1, 64, 0
2, 245440, Note_on_c, 1, 61, 127
2, 245520, Note_off_c, 1, 49, 0
2, 245520, Note_off_c, 1, 61, 0
2, 245600, Note_on_c, 1, 47, 127
2, 245600, Note_on_c, 1, 62, 127
2, 245680, Note_off_c, 1, 62, 0
2, 245720, Note_on_c, 1, 59, 127
2, 245840, Note_off_c, 1, 47, 0
2, 245840, Note_off_c, 1, 59, 0
2, 245880, Note_on_c, 1, 54, 127
2, 245880, Note_on_c, 1, 58, 127
2, 246000, Note_off_c, 1, 58, 0
2, 246040, Note_on_c, 1, 66, 127
2, 246120, Note_off_c, 1, 66, 0
2, 246200, Note_on_c, 1, 73, 127
2, 246280, Note_off_c, 1, 73, 0
2, 246320, Note_on_c, 1, 71, 127
2, 246440, Note_off_c, 1, 71, 0
2, 246480, Note_on_c, 1, 73, 127
2, 246600, Note_off_c, 1, 73, 0
2, 246640, Note_on_c, 1, 66, 127
2, 246680, Note_off_c, 1, 54, 0
2, 246720, Note_off_c, 1, 66, 0
2, 246800, Note_on_c, 1, 54, 127
2, 246800, Note_on_c, 1, 67, 127
2, 246880, Note_off_c, 1, 67, 0
2, 246920, Note_on_c, 1, 64, 127
2, 247040, Note_off_c, 1, 54, 0
2, 247040, Note_off_c, 1, 64, 0
2, 247080, Note_on_c, 1, 56, 127
2, 247080, Note_on_c, 1, 66, 127
2, 247200, Note_off_c, 1, 66, 0
2, 247240, Note_on_c, 1, 62, 127
2, 247320, Note_off_c, 1, 56, 0
2, 247320, Note_off_c, 1, 62, 0
2, 247400, Note_on_c, 1, 58, 127
2, 247400, Note_on_c, 1, 64, 127
2, 247480, Note_off_c, 1, 64, 0
2, 247520, Note_on_c, 1, 61, 127
2, 247640, Note_off_c, 1, 58, 0
2, 247640, Note_off_c, 1, 61, 0
2, 247680, Note_on_c, 1, 59, 127
2, 247680, Note_on_c, 1, 62, 127
2, 247800, Note_off_c, 1, 62, 0
2, 247840, Note_on_c, 1, 64, 127
2, 247920, Note_off_c, 1, 64, 0
2, 248000, Note_on_c, 1, 66, 127
2, 248080, Note_off_c, 1, 59, 0
2, 248080, Note_off_c, 1, 66, 0
2, 248120, Note_on_c, 1, 58, 127
2, 248120, Note_on_c, 1, 61, 127
2, 248240, Note_off_c, 1, 58, 0
2, 248240, Note_off_c, 1, 61, 0
2, 248280, Note_on_c, 1, 59, 127
2, 248280, Note_on_c, 1, 62, 127
2, 248400, Note_off_c, 1, 59, 0
2, 248440, Note_on_c, 1, 54, 127
2, 248520, Note_off_c, 1, 54, 0
2, 248520, Note_off_c, 1, 62, 0
2, 248600, Note_on_c, 1, 55, 127
2, 248600, Note_on_c, 1, 64, 127
2, 248680, Note_off_c, 1, 55, 0
2, 248720, Note_on_c, 1, 52, 127
2, 248840, Note_off_c, 1, 52, 0
2, 248840, Note_off_c, 1, 64, 0
2, 248880, Note_on_c, 1, 54, 127
2, 248880, Note_on_c, 1, 62, 127
2, 249000, Note_off_c, 1, 54, 0
2, 249040, Note_on_c, 1, 50, 127
2, 249120, Note_off_c, 1, 50, 0
2, 249120, Note_off_c, 1, 62, 0
2, 249200, Note_on_c, 1, 52, 127
2, 249200, Note_on_c, 1, 61, 127
2, 249280, Note_off_c, 1, 52, 0
2, 249320, Note_on_c, 1, 49, 127
2, 249440, Note_off_c, 1, 49, 0
2, 249440, Note_off_c, 1, 61, 0
2, 249480, Note_on_c, 1, 50, 127
2, 249480, Note_on_c, 1, 59, 127
2, 249600, Note_off_c, 1, 50, 0
2, 249600, Note_off_c, 1, 59, 0
2, 249640, Note_on_c, 1, 52, 127
2, 249640, Note_on_c, 1, 61, 127
2, 249720, Note_off_c, 1, 52, 0
2, 249720, Note_off_c, 1, 61, 0
2, 249800, Note_on_c, 1, 54, 127
2, 249800, Note_on_c, 1, 62, 127
2, 249880, Note_off_c, 1, 54, 0
2, 249880, Note_off_c, 1, 62, 0
2, 249920, Note_on_c, 1, 49, 127
2, 249920, Note_on_c, 1, 58, 127
2, 250040, Note_off_c, 1, 49, 0
2, 250040, Note_off_c, 1, 58, 0
2, 250080, Note_on_c, 1, 50, 127
2, 250080, Note_on_c, 1, 59, 127
2, 250240, Note_on_c, 1, 54, 127
2, 250320, Note_off_c, 1, 50, 0
2, 250320, Note_off_c, 1, 54, 0
2, 250320, Note_off_c, 1, 59, 0
2, 250400, Note_on_c, 1, 52, 127
2, 250400, Note_on_c, 1, 55, 127
2, 250480, Note_off_c, 1, 55, 0
2, 250520, Note_on_c, 1, 61, 127
2, 250640, Note_off_c, 1, 52, 0
2, 250680, Note_on_c, 1, 50, 127
2, 250680, Note_on_c, 1, 54, 127
2, 250800, Note_off_c, 1, 54, 0
2, 250800, Note_off_c, 1, 61, 0
2, 250840, Note_on_c, 1, 59, 127
2, 250920, Note_off_c, 1, 50, 0
2, 251000, Note_on_c, 1, 49, 127
2, 251000, Note_on_c, 1, 52, 127
2, 251080, Note_off_c, 1, 52, 0
2, 251080, Note_off_c, 1, 59, 0
2, 251120, Note_on_c, 1, 58, 127
2, 251240, Note_off_c, 1, 49, 0
2, 251240, Note_off_c, 1, 58, 0
2, 251280, Note_on_c, 1, 47, 127
2, 251280, Note_on_c, 1, 50, 127
2, 251440, Note_on_c, 1, 54, 127
2, 251520, Note_off_c, 1, 54, 0
2, 251600, Note_on_c, 1, 59, 127
2, 251680, Note_off_c, 1, 47, 0
2, 251680, Note_off_c, 1, 50, 0
2, 251720, Note_on_c, 1, 46, 127
2, 251720, Note_on_c, 1, 49, 127
2, 251840, Note_off_c, 1, 46, 0
2, 251840, Note_off_c, 1, 49, 0
2, 251880, Note_on_c, 1, 47, 127
2, 251880, Note_on_c, 1, 50, 127
2, 252000, Note_off_c, 1, 47, 0
2, 252040, Note_on_c, 1, 42, 127
2, 252120, Note_off_c, 1, 42, 0
2, 252120, Note_off_c, 1, 50, 0
2, 252120, Note_off_c, 1, 59, 0
2, 252200, Note_on_c, 1, 49, 127
2, 252200, Note_on_c, 1, 52, 127
2, 252200, Note_on_c, 1, 58, 127
2, 252280, Note_off_c, 1, 49, 0
2, 252320, Note_on_c, 1, 42, 127
2, 252440, Note_off_c, 1, 42, 0
2, 252440, Note_off_c, 1, 52, 0
2, 252440, Note_off_c, 1, 58, 0
2, 252480, Note_on_c, 1, 50, 127
2, 252480, Note_on_c, 1, 54, 127
2, 252480, Note_on_c, 1, 59, 127
2, 252600, Note_off_c, 1, 50, 0
2, 252600, Note_off_c, 1, 59, 0
2, 252640, Note_on_c, 1, 42, 127
2, 252640, Note_on_c, 1, 62, 127
2, 252720, Note_off_c, 1, 42, 0
2, 252720, Note_off_c, 1, 54, 0
2, 252720, Note_off_c, 1, 62, 0
2, 252800, Note_on_c, 1, 52, 127
2, 252800, Note_on_c, 1, 55, 127
2, 252800, Note_on_c, 1, 61, 127
2, 252880, Note_off_c, 1, 52, 0
2, 252880, Note_off_c, 1, 61, 0
2, 252920, Note_on_c, 1, 42, 127
2, 252920, Note_on_c, 1, 64, 127
2, 253040, Note_off_c, 1, 42, 0
2, 253040, Note_off_c, 1, 55, 0
2, 253040, Note_off_c, 1, 64, 0
2, 253080, Note_on_c, 1, 54, 127
2, 253080, Note_on_c, 1, 58, 127
2, 253200, Note_off_c, 1, 58, 0
2, 253240, Note_on_c, 1, 61, 127
2, 253320, Note_off_c, 1, 61, 0
2, 253400, Note_on_c, 1, 42, 127
2, 253400, Note_on_c, 1, 64, 127
2, 253480, Note_off_c, 1, 64, 0
2, 253520, Note_on_c, 1, 67, 127
2, 253640, Note_off_c, 1, 67, 0
2, 253680, Note_on_c, 1, 64, 127
2, 253800, Note_off_c, 1, 64, 0
2, 253840, Note_on_c, 1, 61, 127
2, 253920, Note_off_c, 1, 42, 0
2, 253920, Note_off_c, 1, 61, 0
2, 254000, Note_on_c, 1, 58, 127
2, 254080, Note_off_c, 1, 54, 0
2, 254080, Note_off_c, 1, 58, 0
2, 254120, Note_on_c, 1, 61, 127
2, 254240, Note_off_c, 1, 61, 0
2, 254280, Note_on_c, 1, 54, 127
2, 254440, Note_off_c, 1, 54, 0
2, 254440, Note_on_c, 1, 64, 127
2, 254520, Note_off_c, 1, 64, 0
2, 254600, Note_on_c, 1, 62, 127
2, 254680, Note_off_c, 1, 62, 0
2, 254720, Note_on_c, 1, 61, 127
2, 254840, Note_off_c, 1, 61, 0
2, 254880, Note_on_c, 1, 59, 127
2, 254880, Note_on_c, 1, 62, 127
2, 255000, Note_off_c, 1, 62, 0
2, 255040, Note_on_c, 1, 66, 127
2, 255120, Note_off_c, 1, 66, 0
2, 255200, Note_on_c, 1, 71, 127
2, 255280, Note_off_c, 1, 59, 0
2, 255320, Note_on_c, 1, 58, 127
2, 255320, Note_on_c, 1, 61, 127
2, 255440, Note_off_c, 1, 58, 0
2, 255440, Note_off_c, 1, 61, 0
2, 255480, Note_on_c, 1, 59, 127
2, 255480, Note_on_c, 1, 62, 127
2, 255600, Note_off_c, 1, 59, 0
2, 255640, Note_on_c, 1, 54, 127
2, 255720, Note_off_c, 1, 54, 0
2, 255720, Note_off_c, 1, 62, 0
2, 255720, Note_off_c, 1, 71, 0
2, 255800, Note_on_c, 1, 61, 127
2, 255800, Note_on_c, 1, 64, 127
2, 255800, Note_on_c, 1, 70, 127
2, 255880, Note_off_c, 1, 61, 0
2, 255920, Note_on_c, 1, 54, 127
2, 256040, Note_off_c, 1, 54, 0
2, 256040, Note_off_c, 1, 64, 0
2, 256040, Note_off_c, 1, 70, 0
2, 256080, Note_on_c, 1, 62, 127
2, 256080, Note_on_c, 1, 66, 127
2, 256080, Note_on_c, 1, 71, 127
2, 256200, Note_off_c, 1, 62, 0
2, 256240, Note_on_c, 1, 54, 127
2, 256240, Note_on_c, 1, 74, 127
2, 256320, Note_off_c, 1, 54, 0
2, 256320, Note_off_c, 1, 66, 0
2, 256320, Note_off_c, 1, 71, 0
2, 256320, Note_off_c, 1, 74, 0
2, 256400, Note_on_c, 1, 64, 127
2, 256400, Note_on_c, 1, 67, 127
2, 256400, Note_on_c, 1, 73, 127
2, 256480, Note_off_c, 1, 64, 0
2, 256520, Note_on_c, 1, 54, 127
2, 256520, Note_on_c, 1, 76, 127
2, 256640, Note_off_c, 1, 54, 0
2, 256640, Note_off_c, 1, 67, 0
2, 256640, Note_off_c, 1, 73, 0
2, 256640, Note_off_c, 1, 76, 0
2, 256680, Note_on_c, 1, 66, 127
2, 256680, Note_on_c, 1, 70, 127
2, 256840, Note_on_c, 1, 73, 127
2, 257000, Note_on_c, 1, 54, 127
2, 257000, Note_on_c, 1, 76, 127
2, 257120, Note_on_c, 1, 79, 127
2, 257240, Note_off_c, 1, 76, 0
2, 257240, Note_off_c, 1, 79, 0
2, 257280, Note_on_c, 1, 76, 127
2, 257400, Note_off_c, 1, 73, 0
2, 257400, Note_off_c, 1, 76, 0
2, 257440, Note_on_c, 1, 73, 127
2, 257520, Note_off_c, 1, 70, 0
2, 257520, Note_off_c, 1, 73, 0
2, 257600, Note_on_c, 1, 70, 127
2, 257720, Note_on_c, 1, 73, 127
2, 257840, Note_off_c, 1, 66, 0
2, 257880, Note_on_c, 1, 66, 127
2, 258000, Note_off_c, 1, 73, 0
2, 258040, Note_on_c, 1, 76, 127
2, 258120, Note_off_c, 1, 76, 0
2, 258200, Note_on_c, 1, 74, 127
2, 258280, Note_off_c, 1, 54, 0
2, 258280, Note_off_c, 1, 74, 0
2, 258320, Note_on_c, 1, 73, 127
2, 258440, Note_off_c, 1, 66, 0
2, 258440, Note_off_c, 1, 70, 0
2, 258440, Note_off_c, 1, 73, 0
2, 258480, Note_on_c, 1, 71, 127
2, 258480, Note_on_c, 1, 74, 127
2, 258640, Note_on_c, 1, 78, 127
2, 258800, Note_on_c, 1, 83, 127
2, 258880, Note_off_c, 1, 71, 0
2, 258920, Note_on_c, 1, 70, 127
2, 258920, Note_on_c, 1, 73, 127
2, 259040, Note_off_c, 1, 70, 0
2, 259040, Note_off_c, 1, 73, 0
2, 259040, Note_off_c, 1, 74, 0
2, 259080, Note_on_c, 1, 71, 127
2, 259080, Note_on_c, 1, 74, 127
2, 259240, Note_on_c, 1, 66, 127
2, 259320, Note_off_c, 1, 66, 0
2, 259320, Note_off_c, 1, 71, 0
2, 259320, Note_off_c, 1, 74, 0
2, 259320, Note_off_c, 1, 83, 0
2, 259360, Note_off_c, 1, 78, 0
2, 259400, Note_on_c, 1, 73, 127
2, 259400, Note_on_c, 1, 76, 127
2, 259400, Note_on_c, 1, 82, 127
2, 259520, Note_on_c, 1, 66, 127
2, 259640, Note_off_c, 1, 66, 0
2, 259640, Note_off_c, 1, 73, 0
2, 259640, Note_off_c, 1, 76, 0
2, 259640, Note_off_c, 1, 82, 0
2, 259680, Note_on_c, 1, 74, 127
2, 259680, Note_on_c, 1, 78, 127
2, 259680, Note_on_c, 1, 83, 127
2, 259800, Note_off_c, 1, 83, 0
2, 259840, Note_on_c, 1, 66, 127
2, 259840, Note_on_c, 1, 86, 127
2, 259920, Note_off_c, 1, 66, 0
2, 259920, Note_off_c, 1, 74, 0
2, 259920, Note_off_c, 1, 78, 0
2, 259920, Note_off_c, 1, 86, 0
2, 260000, Note_on_c, 1, 76, 127
2, 260000, Note_on_c, 1, 79, 127
2, 260000, Note_on_c, 1, 85, 127
2, 260080, Note_off_c, 1, 85, 0
2, 260120, Note_on_c, 1, 66, 127
2, 260120, Note_on_c, 1, 83, 127
2, 260240, Note_off_c, 1, 66, 0
2, 260240, Note_off_c, 1, 76, 0
2, 260240, Note_off_c, 1, 79, 0
2, 260240, Note_off_c, 1, 83, 0
2, 260280, Note_on_c, 1, 78, 127
2, 260280, Note_on_c, 1, 82, 127
2, 260400, Note_off_c, 1, 82, 0
2, 260440, Note_on_c, 1, 80, 127
2, 260520, Note_off_c, 1, 80, 0
2, 260600, Note_on_c, 1, 66, 127
2, 260600, Note_on_c, 1, 82, 127
2, 260720, Note_on_c, 1, 85, 127
2, 260840, Note_off_c, 1, 78, 0
2, 260840, Note_off_c, 1, 82, 0
2, 260840, Note_off_c, 1, 85, 0
2, 260880, Note_on_c, 1, 78, 127
2, 260880, Note_on_c, 1, 83, 127
2, 261000, Note_off_c, 1, 83, 0
2, 261040, Note_on_c, 1, 82, 127
2, 261120, Note_off_c, 1, 66, 0
2, 261120, Note_off_c, 1, 82, 0
2, 261200, Note_on_c, 1, 66, 127
2, 261200, Note_on_c, 1, 83, 127
2, 261320, Note_on_c, 1, 86, 127
2, 261440, Note_off_c, 1, 78, 0
2, 261440, Note_off_c, 1, 83, 0
2, 261440, Note_off_c, 1, 86, 0
2, 261480, Note_on_c, 1, 76, 127
2, 261480, Note_on_c, 1, 82, 127
2, 261600, Note_off_c, 1, 82, 0
2, 261640, Note_on_c, 1, 80, 127
2, 261720, Note_off_c, 1, 66, 0
2, 261720, Note_off_c, 1, 80, 0
2, 261800, Note_on_c, 1, 66, 127
2, 261800, Note_on_c, 1, 82, 127
2, 261920, Note_on_c, 1, 85, 127
2, 262040, Note_off_c, 1, 76, 0
2, 262040, Note_off_c, 1, 82, 0
2, 262040, Note_off_c, 1, 85, 0
2, 262080, Note_on_c, 1, 74, 127
2, 262080, Note_on_c, 1, 80, 127
2, 262200, Note_off_c, 1, 80, 0
2, 262240, Note_on_c, 1, 78, 127
2, 262320, Note_off_c, 1, 66, 0
2, 262320, Note_off_c, 1, 78, 0
2, 262400, Note_on_c, 1, 66, 127
2, 262400, Note_on_c, 1, 80, 127
2, 262520, Note_on_c, 1, 83, 127
2, 262640, Note_off_c, 1, 74, 0
2, 262640, Note_off_c, 1, 80, 0
2, 262640, Note_off_c, 1, 83, 0
2, 262680, Note_on_c, 1, 76, 127
2, 262680, Note_on_c, 1, 79, 127
2, 262800, Note_off_c, 1, 79, 0
2, 262840, Note_on_c, 1, 78, 127
2, 262920, Note_off_c, 1, 66, 0
2, 262920, Note_off_c, 1, 78, 0
2, 263000, Note_on_c, 1, 66, 127
2, 263000, Note_on_c, 1, 79, 127
2, 263120, Note_on_c, 1, 85, 127
2, 263240, Note_off_c, 1, 76, 0
2, 263240, Note_off_c, 1, 79, 0
2, 263240, Note_off_c, 1, 85, 0
2, 263280, Note_on_c, 1, 74, 127
2, 263280, Note_on_c, 1, 78, 127
2, 263400, Note_off_c, 1, 78, 0
2, 263440, Note_on_c, 1, 76, 127
2, 263520, Note_off_c, 1, 66, 0
2, 263520, Note_off_c, 1, 76, 0
2, 263600, Note_on_c, 1, 66, 127
2, 263600, Note_on_c, 1, 78, 127
2, 263720, Note_on_c, 1, 83, 127
2, 263840, Note_off_c, 1, 74, 0
2, 263840, Note_off_c, 1, 78, 0
2, 263840, Note_off_c, 1, 83, 0
2, 263880, Note_on_c, 1, 73, 127
2, 263880, Note_on_c, 1, 76, 127
2, 264000, Note_off_c, 1, 76, 0
2, 264040, Note_on_c, 1, 74, 127
2, 264120, Note_off_c, 1, 66, 0
2, 264120, Note_off_c, 1, 74, 0
2, 264200, Note_on_c, 1, 66, 127
2, 264200, Note_on_c, 1, 76, 127
2, 264320, Note_on_c, 1, 82, 127
2, 264440, Note_off_c, 1, 73, 0
2, 264440, Note_off_c, 1, 76, 0
2, 264440, Note_off_c, 1, 82, 0
2, 264480, Note_on_c, 1, 74, 127
2, 264480, Note_on_c, 1, 78, 127
2, 264600, Note_off_c, 1, 78, 0
2, 264640, Note_on_c, 1, 76, 127
2, 264720, Note_off_c, 1, 66, 0
2, 264720, Note_off_c, 1, 76, 0
2, 264800, Note_on_c, 1, 66, 127
2, 264800, Note_on_c, 1, 78, 127
2, 264920, Note_on_c, 1, 83, 127
2, 265040, Note_off_c, 1, 74, 0
2, 265040, Note_off_c, 1, 78, 0
2, 265040, Note_off_c, 1, 83, 0
2, 265080, Note_on_c, 1, 73, 127
2, 265080, Note_on_c, 1, 76, 127
2, 265200, Note_off_c, 1, 76, 0
2, 265240, Note_on_c, 1, 74, 127
2, 265320, Note_off_c, 1, 66, 0
2, 265320, Note_off_c, 1, 74, 0
2, 265400, Note_on_c, 1, 66, 127
2, 265400, Note_on_c, 1, 76, 127
2, 265520, Note_on_c, 1, 82, 127
2, 265640, Note_off_c, 1, 73, 0
2, 265640, Note_off_c, 1, 76, 0
2, 265640, Note_off_c, 1, 82, 0
2, 265680, Note_on_c, 1, 71, 127
2, 265680, Note_on_c, 1, 74, 127
2, 265800, Note_off_c, 1, 74, 0
2, 265840, Note_on_c, 1, 73, 127
2, 265920, Note_off_c, 1, 66, 0
2, 265920, Note_off_c, 1, 73, 0
2, 266000, Note_on_c, 1, 66, 127
2, 266000, Note_on_c, 1, 74, 127
2, 266120, Note_on_c, 1, 80, 127
2, 266240, Note_off_c, 1, 71, 0
2, 266240, Note_off_c, 1, 74, 0
2, 266240, Note_off_c, 1, 80, 0
2, 266280, Note_on_c, 1, 73, 127
2, 266280, Note_on_c, 1, 76, 127
2, 266400, Note_off_c, 1, 76, 0
2, 266440, Note_on_c, 1, 74, 127
2, 266520, Note_off_c, 1, 66, 0
2, 266520, Note_off_c, 1, 74, 0
2, 266600, Note_on_c, 1, 66, 127
2, 266600, Note_on_c, 1, 76, 127
2, 266680, Note_off_c, 1, 76, 0
2, 266720, Note_on_c, 1, 82, 127
2, 266840, Note_off_c, 1, 73, 0
2, 266840, Note_off_c, 1, 82, 0
2, 266880, Note_on_c, 1, 71, 127
2, 266880, Note_on_c, 1, 74, 127
2, 267000, Note_off_c, 1, 74, 0
2, 267040, Note_on_c, 1, 73, 127
2, 267120, Note_off_c, 1, 66, 0
2, 267120, Note_off_c, 1, 73, 0
2, 267200, Note_on_c, 1, 66, 127
2, 267200, Note_on_c, 1, 74, 127
2, 267280, Note_off_c, 1, 74, 0
2, 267320, Note_on_c, 1, 80, 127
2, 267440, Note_off_c, 1, 66, 0
2, 267440, Note_off_c, 1, 71, 0
2, 267440, Note_off_c, 1, 80, 0
2, 267480, Note_on_c, 1, 70, 127
2, 267480, Note_on_c, 1, 73, 127
2, 267600, Note_off_c, 1, 73, 0
2, 267640, Note_on_c, 1, 71, 127
2, 267720, Note_off_c, 1, 70, 0
2, 267720, Note_off_c, 1, 71, 0
2, 267800, Note_on_c, 1, 66, 127
2, 267800, Note_on_c, 1, 73, 127
2, 267880, Note_off_c, 1, 73, 0
2, 267920, Note_on_c, 1, 78, 127
2, 268040, Note_off_c, 1, 78, 0
2, 268080, Note_on_c, 1, 76, 127
2, 268200, Note_off_c, 1, 76, 0
2, 268240, Note_on_c, 1, 73, 127
2, 268320, Note_off_c, 1, 66, 0
2, 268320, Note_off_c, 1, 73, 0
2, 268400, Note_on_c, 1, 66, 127
2, 268400, Note_on_c, 1, 74, 127
2, 268480, Note_off_c, 1, 66, 0
2, 268480, Note_off_c, 1, 74, 0
2, 268520, Note_on_c, 1, 62, 127
2, 268520, Note_on_c, 1, 71, 127
2, 268640, Note_off_c, 1, 62, 0
2, 268640, Note_off_c, 1, 71, 0
2, 268680, Note_on_c, 1, 64, 127
2, 268680, Note_on_c, 1, 73, 127
2, 268800, Note_off_c, 1, 64, 0
2, 268800, Note_off_c, 1, 73, 0
2, 268840, Note_on_c, 1, 61, 127
2, 268840, Note_on_c, 1, 70, 127
2, 268920, Note_off_c, 1, 61, 0
2, 268920, Note_off_c, 1, 70, 0
2, 269000, Note_on_c, 1, 62, 127
2, 269000, Note_on_c, 1, 71, 127
2, 269080, Note_off_c, 1, 62, 0
2, 269080, Note_off_c, 1, 71, 0
2, 269120, Note_on_c, 1, 59, 127
2, 269120, Note_on_c, 1, 68, 127
2, 269240, Note_off_c, 1, 59, 0
2, 269240, Note_off_c, 1, 68, 0
2, 269280, Note_on_c, 1, 61, 127
2, 269280, Note_on_c, 1, 70, 127
2, 269400, Note_off_c, 1, 61, 0
2, 269400, Note_off_c, 1, 70, 0
2, 269440, Note_on_c, 1, 59, 127
2, 269440, Note_on_c, 1, 68, 127
2, 269520, Note_off_c, 1, 59, 0
2, 269520, Note_off_c, 1, 68, 0
2, 269600, Note_on_c, 1, 61, 127
2, 269600, Note_on_c, 1, 70, 127
2, 269680, Note_off_c, 1, 61, 0
2, 269680, Note_off_c, 1, 70, 0
2, 269720, Note_on_c, 1, 64, 127
2, 269720, Note_on_c, 1, 73, 127
2, 269840, Note_off_c, 1, 64, 0
2, 269840, Note_off_c, 1, 73, 0
2, 269880, Note_on_c, 1, 58, 127
2, 269880, Note_on_c, 1, 66, 127
2, 270000, Note_off_c, 1, 58, 0
2, 270000, Note_off_c, 1, 66, 0
2, 270040, Note_on_c, 1, 56, 127
2, 270040, Note_on_c, 1, 65, 127
2, 270120, Note_off_c, 1, 56, 0
2, 270120, Note_off_c, 1, 65, 0
2, 270200, Note_on_c, 1, 58, 127
2, 270200, Note_on_c, 1, 66, 127
2, 270280, Note_off_c, 1, 58, 0
2, 270280, Note_off_c, 1, 66, 0
2, 270320, Note_on_c, 1, 61, 127
2, 270320, Note_on_c, 1, 70, 127
2, 270440, Note_off_c, 1, 61, 0
2, 270440, Note_off_c, 1, 70, 0
2, 270480, Note_on_c, 1, 55, 127
2, 270480, Note_on_c, 1, 64, 127
2, 270600, Note_off_c, 1, 55, 0
2, 270600, Note_off_c, 1, 64, 0
2, 270640, Note_on_c, 1, 54, 127
2, 270640, Note_on_c, 1, 62, 127
2, 270720, Note_off_c, 1, 54, 0
2, 270720, Note_off_c, 1, 62, 0
2, 270800, Note_on_c, 1, 55, 127
2, 270800, Note_on_c, 1, 64, 127
2, 270880, Note_off_c, 1, 55, 0
2, 270880, Note_off_c, 1, 64, 0
2, 270920, Note_on_c, 1, 59, 127
2, 270920, Note_on_c, 1, 67, 127
2, 271040, Note_off_c, 1, 59, 0
2, 271040, Note_off_c, 1, 67, 0
2, 271080, Note_on_c, 1, 52, 127
2, 271080, Note_on_c, 1, 61, 127
2, 271200, Note_off_c, 1, 52, 0
2, 271200, Note_off_c, 1, 61, 0
2, 271240, Note_on_c, 1, 50, 127
2, 271240, Note_on_c, 1, 59, 127
2, 271320, Note_off_c, 1, 50, 0
2, 271320, Note_off_c, 1, 59, 0
2, 271400, Note_on_c, 1, 52, 127
2, 271400, Note_on_c, 1, 61, 127
2, 271480, Note_off_c, 1, 52, 0
2, 271480, Note_off_c, 1, 61, 0
2, 271520, Note_on_c, 1, 55, 127
2, 271520, Note_on_c, 1, 64, 127
2, 271640, Note_off_c, 1, 55, 0
2, 271640, Note_off_c, 1, 64, 0
2, 271680, Note_on_c, 1, 49, 127
2, 271680, Note_on_c, 1, 58, 127
2, 271800, Note_off_c, 1, 49, 0
2, 271840, Note_on_c, 1, 47, 127
2, 271840, Note_on_c, 1, 56, 127
2, 271840, Note_off_c, 1, 58, 0
2, 271920, Note_off_c, 1, 47, 0
2, 271920, Note_off_c, 1, 56, 0
2, 272000, Note_on_c, 1, 49, 127
2, 272000, Note_on_c, 1, 58, 127
2, 272080, Note_off_c, 1, 49, 0
2, 272080, Note_off_c, 1, 58, 0
2, 272120, Note_on_c, 1, 52, 127
2, 272120, Note_on_c, 1, 61, 127
2, 272240, Note_off_c, 1, 52, 0
2, 272240, Note_off_c, 1, 61, 0
2, 272280, Note_on_c, 1, 46, 127
2, 272280, Note_on_c, 1, 54, 127
2, 272400, Note_off_c, 1, 46, 0
2, 272440, Note_on_c, 1, 44, 127
2, 272520, Note_off_c, 1, 44, 0
2, 272600, Note_on_c, 1, 46, 127
2, 272680, Note_off_c, 1, 46, 0
2, 272720, Note_on_c, 1, 49, 127
2, 272840, Note_off_c, 1, 49, 0
2, 272880, Note_on_c, 1, 42, 127
2, 273000, Note_off_c, 1, 54, 0
2, 273040, Note_on_c, 1, 52, 127
2, 273120, Note_off_c, 1, 52, 0
2, 273200, Note_on_c, 1, 50, 127
2, 273280, Note_off_c, 1, 50, 0
2, 273320, Note_on_c, 1, 49, 127
2, 273440, Note_off_c, 1, 49, 0
2, 273480, Note_on_c, 1, 55, 127
2, 273600, Note_off_c, 1, 55, 0
2, 273640, Note_on_c, 1, 52, 127
2, 273720, Note_off_c, 1, 52, 0
2, 273800, Note_on_c, 1, 50, 127
2, 273880, Note_off_c, 1, 50, 0
2, 273920, Note_on_c, 1, 49, 127
2, 274040, Note_off_c, 1, 49, 0
2, 274080, Note_on_c, 1, 58, 127
2, 274200, Note_off_c, 1, 58, 0
2, 274240, Note_on_c, 1, 52, 127
2, 274320, Note_off_c, 1, 52, 0
2, 274400, Note_on_c, 1, 50, 127
2, 274480, Note_off_c, 1, 50, 0
2, 274520, Note_on_c, 1, 49, 127
2, 274640, Note_off_c, 1, 42, 0
2, 274640, Note_off_c, 1, 49, 0
2, 274680, Note_on_c, 1, 42, 127
2, 274680, Note_on_c, 1, 61, 127
2, 274840, Note_on_c, 1, 55, 127
2, 274920, Note_off_c, 1, 55, 0
2, 275000, Note_on_c, 1, 54, 127
2, 275080, Note_off_c, 1, 54, 0
2, 275120, Note_on_c, 1, 52, 127
2, 275240, Note_off_c, 1, 52, 0
2, 275240, Note_off_c, 1, 61, 0
2, 275280, Note_on_c, 1, 58, 127
2, 275400, Note_off_c, 1, 58, 0
2, 275440, Note_on_c, 1, 55, 127
2, 275520, Note_off_c, 1, 55, 0
2, 275600, Note_on_c, 1, 54, 127
2, 275680, Note_off_c, 1, 54, 0
2, 275720, Note_on_c, 1, 52, 127
2, 275840, Note_off_c, 1, 52, 0
2, 275880, Note_on_c, 1, 61, 127
2, 276000, Note_off_c, 1, 61, 0
2, 276040, Note_on_c, 1, 55, 127
2, 276120, Note_off_c, 1, 55, 0
2, 276200, Note_on_c, 1, 54, 127
2, 276280, Note_off_c, 1, 54, 0
2, 276320, Note_on_c, 1, 52, 127
2, 276440, Note_off_c, 1, 42, 0
2, 276440, Note_off_c, 1, 52, 0
2, 276480, Note_on_c, 1, 42, 127
2, 276480, Note_on_c, 1, 64, 127
2, 276640, Note_on_c, 1, 58, 127
2, 276720, Note_off_c, 1, 58, 0
2, 276800, Note_on_c, 1, 56, 127
2, 276880, Note_off_c, 1, 56, 0
2, 276920, Note_on_c, 1, 54, 127
2, 277040, Note_off_c, 1, 54, 0
2, 277040, Note_off_c, 1, 64, 0
2, 277080, Note_on_c, 1, 61, 127
2, 277200, Note_off_c, 1, 61, 0
2, 277240, Note_on_c, 1, 58, 127
2, 277320, Note_off_c, 1, 58, 0
2, 277400, Note_on_c, 1, 56, 127
2, 277480, Note_off_c, 1, 56, 0
2, 277520, Note_on_c, 1, 54, 127
2, 277640, Note_off_c, 1, 54, 0
2, 277680, Note_on_c, 1, 64, 127
2, 277800, Note_off_c, 1, 64, 0
2, 277840, Note_on_c, 1, 61, 127
2, 277920, Note_off_c, 1, 61, 0
2, 278000, Note_on_c, 1, 59, 127
2, 278080, Note_off_c, 1, 59, 0
2, 278120, Note_on_c, 1, 58, 127
2, 278240, Note_off_c, 1, 42, 0
2, 278240, Note_off_c, 1, 58, 0
2, 278280, Note_on_c, 1, 67, 127
2, 278400, Note_off_c, 1, 67, 0
2, 278440, Note_on_c, 1, 66, 127
2, 278520, Note_off_c, 1, 66, 0
2, 278600, Note_on_c, 1, 64, 127
2, 278680, Note_off_c, 1, 64, 0
2, 278720, Note_on_c, 1, 62, 127
2, 278840, Note_off_c, 1, 62, 0
2, 278880, Note_on_c, 1, 61, 127
2, 279000, Note_off_c, 1, 61, 0
2, 279040, Note_on_c, 1, 59, 127
2, 279120, Note_off_c, 1, 59, 0
2, 279200, Note_on_c, 1, 58, 127
2, 279280, Note_off_c, 1, 58, 0
2, 279320, Note_on_c, 1, 56, 127
2, 279440, Note_off_c, 1, 56, 0
2, 279480, Note_on_c, 1, 54, 127
2, 279600, Note_off_c, 1, 54, 0
2, 279640, Note_on_c, 1, 52, 127
2, 279720, Note_off_c, 1, 52, 0
2, 279800, Note_on_c, 1, 50, 127
2, 279880, Note_off_c, 1, 50, 0
2, 279920, Note_on_c, 1, 49, 127
2, 280040, Note_off_c, 1, 49, 0
2, 280080, Note_on_c, 1, 47, 127
2, 280400, Note_on_c, 1, 78, 127
2, 280640, Note_off_c, 1, 78, 0
2, 280680, Note_on_c, 1, 71, 127
2, 280800, Note_off_c, 1, 47, 0
2, 280920, Note_off_c, 1, 71, 0
2, 281000, Note_on_c, 1, 59, 127
2, 281000, Note_on_c, 1, 62, 127
2, 281000, Note_on_c, 1, 83, 127
2, 281240, Note_off_c, 1, 59, 0
2, 281240, Note_off_c, 1, 62, 0
2, 281240, Note_off_c, 1, 83, 0
2, 281280, Note_on_c, 1, 61, 127
2, 281280, Note_on_c, 1, 64, 127
2, 281280, Note_on_c, 1, 81, 127
2, 281400, Note_off_c, 1, 81, 0
2, 281440, Note_on_c, 1, 78, 127
2, 281520, Note_off_c, 1, 61, 0
2, 281520, Note_off_c, 1, 64, 0
2, 281520, Note_off_c, 1, 78, 0
2, 281600, Note_on_c, 1, 57, 127
2, 281600, Note_on_c, 1, 61, 127
2, 281600, Note_on_c, 1, 79, 127
2, 281680, Note_off_c, 1, 79, 0
2, 281720, Note_on_c, 1, 76, 127
2, 281840, Note_off_c, 1, 57, 0
2, 281840, Note_off_c, 1, 61, 0
2, 281840, Note_off_c, 1, 76, 0
2, 281880, Note_on_c, 1, 62, 127
2, 281880, Note_on_c, 1, 78, 127
2, 282000, Note_off_c, 1, 78, 0
2, 282040, Note_on_c, 1, 73, 127
2, 282120, Note_off_c, 1, 73, 0
2, 282200, Note_on_c, 1, 50, 127
2, 282200, Note_on_c, 1, 74, 127
2, 282280, Note_off_c, 1, 74, 0
2, 282320, Note_on_c, 1, 70, 127
2, 282440, Note_off_c, 1, 62, 0
2, 282440, Note_off_c, 1, 70, 0
2, 282480, Note_on_c, 1, 71, 127
2, 282560, Note_off_c, 1, 50, 0
2, 282600, Note_off_c, 1, 71, 0
2, 282640, Note_on_c, 1, 74, 127
2, 282720, Note_off_c, 1, 74, 0
2, 282800, Note_on_c, 1, 64, 127
2, 282800, Note_on_c, 1, 71, 127
2, 282800, Note_on_c, 1, 79, 127
2, 282880, Note_off_c, 1, 79, 0
2, 282920, Note_on_c, 1, 76, 127
2, 283040, Note_off_c, 1, 64, 0
2, 283040, Note_off_c, 1, 71, 0
2, 283040, Note_off_c, 1, 76, 0
2, 283080, Note_on_c, 1, 62, 127
2, 283080, Note_on_c, 1, 71, 127
2, 283080, Note_on_c, 1, 78, 127
2, 283200, Note_off_c, 1, 78, 0
2, 283240, Note_on_c, 1, 74, 127
2, 283320, Note_off_c, 1, 62, 0
2, 283320, Note_off_c, 1, 71, 0
2, 283320, Note_off_c, 1, 74, 0
2, 283400, Note_on_c, 1, 61, 127
2, 283400, Note_on_c, 1, 70, 127
2, 283400, Note_on_c, 1, 76, 127
2, 283480, Note_off_c, 1, 76, 0
2, 283520, Note_on_c, 1, 73, 127
2, 283640, Note_off_c, 1, 61, 0
2, 283640, Note_off_c, 1, 70, 0
2, 283640, Note_off_c, 1, 73, 0
2, 283680, Note_on_c, 1, 59, 127
2, 283680, Note_on_c, 1, 71, 127
2, 283680, Note_on_c, 1, 74, 127
2, 283800, Note_off_c, 1, 74, 0
2, 283840, Note_on_c, 1, 73, 127
2, 283920, Note_off_c, 1, 73, 0
2, 284000, Note_on_c, 1, 74, 127
2, 284080, Note_off_c, 1, 74, 0
2, 284120, Note_on_c, 1, 70, 127
2, 284240, Note_off_c, 1, 70, 0
2, 284240, Note_off_c, 1, 71, 0
2, 284280, Note_on_c, 1, 71, 127
2, 284400, Note_off_c, 1, 59, 0
2, 284400, Note_off_c, 1, 71, 0
2, 284440, Note_on_c, 1, 74, 127
2, 284520, Note_off_c, 1, 74, 0
2, 284600, Note_on_c, 1, 62, 127
2, 284600, Note_on_c, 1, 71, 127
2, 284600, Note_on_c, 1, 78, 127
2, 284680, Note_off_c, 1, 78, 0
2, 284720, Note_on_c, 1, 74, 127
2, 284840, Note_off_c, 1, 62, 0
2, 284840, Note_off_c, 1, 71, 0
2, 284840, Note_off_c, 1, 74, 0
2, 284880, Note_on_c, 1, 61, 127
2, 284880, Note_on_c, 1, 70, 127
2, 284880, Note_on_c, 1, 76, 127
2, 285000, Note_off_c, 1, 76, 0
2, 285040, Note_on_c, 1, 73, 127
2, 285120, Note_off_c, 1, 61, 0
2, 285120, Note_off_c, 1, 70, 0
2, 285120, Note_off_c, 1, 73, 0
2, 285200, Note_on_c, 1, 59, 127
2, 285200, Note_on_c, 1, 66, 127
2, 285200, Note_on_c, 1, 74, 127
2, 285280, Note_off_c, 1, 74, 0
2, 285320, Note_on_c, 1, 71, 127
2, 285440, Note_off_c, 1, 59, 0
2, 285440, Note_off_c, 1, 66, 0
2, 285440, Note_off_c, 1, 71, 0
2, 285480, Note_on_c, 1, 58, 127
2, 285480, Note_on_c, 1, 64, 127
2, 285480, Note_on_c, 1, 73, 127
2, 285600, Note_off_c, 1, 73, 0
2, 285640, Note_on_c, 1, 71, 127
2, 285720, Note_off_c, 1, 58, 0
2, 285720, Note_off_c, 1, 71, 0
2, 285800, Note_on_c, 1, 54, 127
2, 285800, Note_on_c, 1, 73, 127
2, 285880, Note_off_c, 1, 73, 0
2, 285920, Note_on_c, 1, 70, 127
2, 286040, Note_off_c, 1, 54, 0
2, 286040, Note_off_c, 1, 64, 0
2, 286040, Note_off_c, 1, 70, 0
2, 286080, Note_on_c, 1, 55, 127
2, 286080, Note_on_c, 1, 62, 127
2, 286080, Note_on_c, 1, 71, 127
2, 286200, Note_off_c, 1, 71, 0
2, 286240, Note_on_c, 1, 70, 127
2, 286320, Note_off_c, 1, 55, 0
2, 286320, Note_off_c, 1, 62, 0
2, 286320, Note_off_c, 1, 70, 0
2, 286400, Note_on_c, 1, 52, 127
2, 286400, Note_on_c, 1, 59, 127
2, 286400, Note_on_c, 1, 61, 127
2, 286400, Note_on_c, 1, 71, 127
2, 286480, Note_off_c, 1, 71, 0
2, 286520, Note_on_c, 1, 79, 127
2, 286640, Note_off_c, 1, 52, 0
2, 286640, Note_off_c, 1, 61, 0
2, 286640, Note_off_c, 1, 79, 0
2, 286680, Note_on_c, 1, 54, 127
2, 286680, Note_on_c, 1, 62, 127
2, 286680, Note_on_c, 1, 78, 127
2, 286800, Note_off_c, 1, 78, 0
2, 286840, Note_on_c, 1, 74, 127
2, 286920, Note_off_c, 1, 59, 0
2, 286920, Note_off_c, 1, 62, 0
2, 286920, Note_off_c, 1, 74, 0
2, 287000, Note_on_c, 1, 58, 127
2, 287000, Note_on_c, 1, 61, 127
2, 287000, Note_on_c, 1, 76, 127
2, 287080, Note_off_c, 1, 76, 0
2, 287120, Note_on_c, 1, 73, 127
2, 287240, Note_off_c, 1, 54, 0
2, 287240, Note_off_c, 1, 58, 0
2, 287240, Note_off_c, 1, 61, 0
2, 287240, Note_off_c, 1, 73, 0
2, 287280, Note_on_c, 1, 59, 127
2, 287280, Note_on_c, 1, 74, 127
2, 287400, Note_off_c, 1, 74, 0
2, 287440, Note_on_c, 1, 73, 127
2, 287520, Note_off_c, 1, 59, 0
2, 287520, Note_off_c, 1, 73, 0
2, 287600, Note_on_c, 1, 54, 127
2, 287600, Note_on_c, 1, 71, 127
2, 287680, Note_off_c, 1, 71, 0
2, 287720, Note_on_c, 1, 70, 127
2, 287840, Note_off_c, 1, 54, 0
2, 287840, Note_off_c, 1, 70, 0
2, 287880, Note_on_c, 1, 47, 127
2, 287880, Note_on_c, 1, 71, 127
2, 288000, Note_off_c, 1, 71, 0
2, 288040, Note_on_c, 1, 73, 127
2, 288120, Note_off_c, 1, 73, 0
2, 288200, Note_off_c, 1, 47, 0
2, 288200, Note_on_c, 1, 59, 127
2, 288200, Note_on_c, 1, 74, 127
2, 288280, Note_off_c, 1, 74, 0
2, 288320, Note_on_c, 1, 79, 127
2, 288440, Note_off_c, 1, 59, 0
2, 288440, Note_off_c, 1, 79, 0
2, 288480, Note_on_c, 1, 57, 127
2, 288480, Note_on_c, 1, 78, 127
2, 288600, Note_off_c, 1, 57, 0
2, 288600, Note_off_c, 1, 78, 0
2, 288640, Note_on_c, 1, 54, 127
2, 288640, Note_on_c, 1, 74, 127
2, 288720, Note_off_c, 1, 54, 0
2, 288720, Note_off_c, 1, 74, 0
2, 288800, Note_on_c, 1, 55, 127
2, 288800, Note_on_c, 1, 76, 127
2, 288880, Note_off_c, 1, 55, 0
2, 288880, Note_off_c, 1, 76, 0
2, 288920, Note_on_c, 1, 52, 127
2, 288920, Note_on_c, 1, 73, 127
2, 289040, Note_off_c, 1, 52, 0
2, 289040, Note_off_c, 1, 73, 0
2, 289080, Note_on_c, 1, 54, 127
2, 289080, Note_on_c, 1, 74, 127
2, 289200, Note_off_c, 1, 54, 0
2, 289200, Note_off_c, 1, 74, 0
2, 289240, Note_on_c, 1, 52, 127
2, 289240, Note_on_c, 1, 73, 127
2, 289320, Note_off_c, 1, 52, 0
2, 289320, Note_off_c, 1, 73, 0
2, 289400, Note_on_c, 1, 50, 127
2, 289400, Note_on_c, 1, 71, 127
2, 289480, Note_off_c, 1, 50, 0
2, 289480, Note_off_c, 1, 71, 0
2, 289520, Note_on_c, 1, 54, 127
2, 289520, Note_on_c, 1, 70, 127
2, 289640, Note_off_c, 1, 54, 0
2, 289640, Note_off_c, 1, 70, 0
2, 289680, Note_on_c, 1, 47, 127
2, 289680, Note_on_c, 1, 71, 127
2, 289800, Note_off_c, 1, 47, 0
2, 289800, Note_off_c, 1, 71, 0
2, 289840, Note_on_c, 1, 50, 127
2, 289840, Note_on_c, 1, 73, 127
2, 289920, Note_off_c, 1, 50, 0
2, 289920, Note_off_c, 1, 73, 0
2, 290000, Note_on_c, 1, 55, 127
2, 290000, Note_on_c, 1, 74, 127
2, 290080, Note_off_c, 1, 55, 0
2, 290080, Note_off_c, 1, 74, 0
2, 290120, Note_on_c, 1, 52, 127
2, 290120, Note_on_c, 1, 76, 127
2, 290240, Note_off_c, 1, 52, 0
2, 290240, Note_off_c, 1, 76, 0
2, 290280, Note_on_c, 1, 54, 127
2, 290280, Note_on_c, 1, 74, 127
2, 290400, Note_off_c, 1, 54, 0
2, 290400, Note_off_c, 1, 74, 0
2, 290440, Note_on_c, 1, 50, 127
2, 290440, Note_on_c, 1, 71, 127
2, 290520, Note_off_c, 1, 50, 0
2, 290520, Note_off_c, 1, 71, 0
2, 290600, Note_on_c, 1, 52, 127
2, 290600, Note_on_c, 1, 73, 127
2, 290680, Note_off_c, 1, 52, 0
2, 290680, Note_off_c, 1, 73, 0
2, 290720, Note_on_c, 1, 49, 127
2, 290720, Note_on_c, 1, 70, 127
2, 290840, Note_off_c, 1, 49, 0
2, 290840, Note_off_c, 1, 70, 0
2, 290880, Note_on_c, 1, 50, 127
2, 290880, Note_on_c, 1, 71, 127
2, 291000, Note_off_c, 1, 50, 0
2, 291000, Note_off_c, 1, 71, 0
2, 291040, Note_on_c, 1, 49, 127
2, 291040, Note_on_c, 1, 73, 127
2, 291160, Note_off_c, 1, 49, 0
2, 291160, Note_off_c, 1, 73, 0
2, 291200, Note_on_c, 1, 47, 127
2, 291200, Note_on_c, 1, 74, 127
2, 291280, Note_off_c, 1, 47, 0
2, 291280, Note_off_c, 1, 74, 0
2, 291320, Note_on_c, 1, 50, 127
2, 291320, Note_on_c, 1, 71, 127
2, 291440, Note_off_c, 1, 50, 0
2, 291440, Note_off_c, 1, 71, 0
2, 291480, Note_on_c, 1, 42, 127
2, 291480, Note_on_c, 1, 70, 127
2, 291600, Note_off_c, 1, 42, 0
2, 291600, Note_off_c, 1, 70, 0
2, 291640, Note_on_c, 1, 49, 127
2, 291640, Note_on_c, 1, 71, 127
2, 291760, Note_off_c, 1, 49, 0
2, 291760, Note_off_c, 1, 71, 0
2, 291800, Note_on_c, 1, 54, 127
2, 291800, Note_on_c, 1, 74, 127
2, 291920, Note_off_c, 1, 54, 0
2, 291920, Note_off_c, 1, 74, 0
2, 291960, Note_on_c, 1, 50, 127
2, 291960, Note_on_c, 1, 71, 127
2, 292080, Note_off_c, 1, 50, 0
2, 292080, Note_off_c, 1, 71, 0
2, 292120, Note_on_c, 1, 52, 127
2, 292120, Note_on_c, 1, 73, 127
2, 292200, Note_off_c, 1, 52, 0
2, 292200, Note_off_c, 1, 73, 0
2, 292240, Note_on_c, 1, 49, 127
2, 292240, Note_on_c, 1, 70, 127
2, 292360, Note_off_c, 1, 49, 0
2, 292360, Note_off_c, 1, 70, 0
2, 292400, Note_on_c, 1, 50, 127
2, 292400, Note_on_c, 1, 71, 127
2, 292520, Note_off_c, 1, 50, 0
2, 292520, Note_off_c, 1, 71, 0
2, 292560, Note_on_c, 1, 47, 127
2, 292560, Note_on_c, 1, 68, 127
2, 292680, Note_off_c, 1, 47, 0
2, 292680, Note_off_c, 1, 68, 0
2, 292720, Note_on_c, 1, 49, 127
2, 292720, Note_on_c, 1, 70, 127
2, 292840, Note_off_c, 1, 49, 0
2, 292840, Note_off_c, 1, 70, 0
2, 292880, Note_on_c, 1, 47, 127
2, 292880, Note_on_c, 1, 67, 127
2, 293000, Note_off_c, 1, 47, 0
2, 293000, Note_off_c, 1, 67, 0
2, 293040, Note_on_c, 1, 49, 127
2, 293040, Note_on_c, 1, 66, 127
2, 293160, Note_off_c, 1, 49, 0
2, 293160, Note_off_c, 1, 66, 0
2, 293200, Note_on_c, 1, 46, 127
2, 293200, Note_on_c, 1, 64, 127
2, 293320, Note_off_c, 1, 46, 0
2, 293320, Note_off_c, 1, 64, 0
2, 293360, Note_on_c, 1, 47, 127
2, 293360, Note_on_c, 1, 62, 127
2, 293480, Note_off_c, 1, 62, 0
2, 293520, Note_on_c, 1, 61, 127
2, 293640, Note_off_c, 1, 47, 0
2, 293640, Note_off_c, 1, 61, 0
2, 293680, Note_on_c, 1, 52, 127
2, 293680, Note_on_c, 1, 62, 127
2, 293880, Note_on_c, 1, 71, 127
2, 294000, Note_off_c, 1, 52, 0
2, 294000, Note_off_c, 1, 62, 0
2, 294000, Note_off_c, 1, 71, 0
2, 294040, Note_on_c, 1, 54, 127
2, 294040, Note_on_c, 1, 61, 127
2, 294240, Note_on_c, 1, 71, 127
2, 294400, Note_off_c, 1, 61, 0
2, 294400, Note_off_c, 1, 71, 0
2, 294440, Note_on_c, 1, 42, 127
2, 294440, Note_on_c, 1, 61, 127
2, 294640, Note_on_c, 1, 70, 127
2, 294720, Note_off_c, 1, 61, 0
2, 294800, Note_off_c, 1, 70, 0
2, 294840, Note_off_c, 1, 42, 0
2, 294840, Note_off_c, 1, 54, 0
2, 294880, Note_on_c, 1, 47, 127
2, 294880, Note_on_c, 1, 71, 127
2, 297200, Note_off_c, 1, 47, 0
2, 297200, Note_off_c, 1, 71, 0
2, 298160, Note_on_c, 1, 78, 127
2, 298560, Note_off_c, 1, 78, 0
2, 298600, Note_on_c, 1, 59, 127
2, 298600, Note_on_c, 1, 74, 127
2, 298600, Note_on_c, 1, 78, 127
2, 298840, Note_on_c, 1, 66, 127
2, 298960, Note_off_c, 1, 66, 0
2, 299000, Note_on_c, 1, 71, 127
2, 299160, Note_off_c, 1, 71, 0
2, 299160, Note_off_c, 1, 78, 0
2, 299200, Note_on_c, 1, 69, 127
2, 299200, Note_on_c, 1, 78, 127
2, 299360, Note_off_c, 1, 69, 0
2, 299360, Note_off_c, 1, 78, 0
2, 299400, Note_on_c, 1, 67, 127
2, 299400, Note_on_c, 1, 83, 127
2, 299520, Note_off_c, 1, 83, 0
2, 299560, Note_on_c, 1, 82, 127
2, 299720, Note_off_c, 1, 67, 0
2, 299720, Note_off_c, 1, 82, 0
2, 299760, Note_on_c, 1, 66, 127
2, 299760, Note_on_c, 1, 83, 127
2, 299920, Note_off_c, 1, 83, 0
2, 299960, Note_on_c, 1, 85, 127
2, 300080, Note_off_c, 1, 66, 0
2, 300080, Note_off_c, 1, 74, 0
2, 300080, Note_off_c, 1, 85, 0
2, 300120, Note_on_c, 1, 67, 127
2, 300120, Note_on_c, 1, 73, 127
2, 300120, Note_on_c, 1, 76, 127
2, 300280, Note_off_c, 1, 76, 0
2, 300320, Note_on_c, 1, 79, 127
2, 300480, Note_off_c, 1, 67, 0
2, 300480, Note_off_c, 1, 79, 0
2, 300520, Note_on_c, 1, 64, 127
2, 300520, Note_on_c, 1, 78, 127
2, 300640, Note_off_c, 1, 78, 0
2, 300680, Note_on_c, 1, 79, 127
2, 300840, Note_off_c, 1, 59, 0
2, 300840, Note_off_c, 1, 64, 0
2, 300840, Note_off_c, 1, 73, 0
2, 300880, Note_on_c, 1, 61, 127
2, 300880, Note_on_c, 1, 70, 127
2, 301040, Note_off_c, 1, 79, 0
2, 301080, Note_on_c, 1, 79, 127
2, 301200, Note_off_c, 1, 61, 0
2, 301200, Note_off_c, 1, 70, 0
2, 301200, Note_off_c, 1, 79, 0
2, 301240, Note_on_c, 1, 70, 127
2, 301240, Note_on_c, 1, 78, 127
2, 301400, Note_off_c, 1, 78, 0
2, 301440, Note_on_c, 1, 76, 127
2, 301600, Note_off_c, 1, 70, 0
2, 301600, Note_off_c, 1, 76, 0
2, 301640, Note_on_c, 1, 71, 127
2, 301640, Note_on_c, 1, 74, 127
2, 301760, Note_off_c, 1, 74, 0
2, 301840, Note_on_c, 1, 73, 127
2, 301960, Note_off_c, 1, 71, 0
2, 301960, Note_off_c, 1, 73, 0
2, 302000, Note_on_c, 1, 71, 127
2, 302160, Note_off_c, 1, 71, 0
2, 302200, Note_on_c, 1, 66, 127
2, 302200, Note_on_c, 1, 73, 127
2, 302360, Note_off_c, 1, 66, 0
2, 302360, Note_off_c, 1, 73, 0
2, 302400, Note_on_c, 1, 71, 127
2, 302400, Note_on_c, 1, 74, 127
2, 302520, Note_off_c, 1, 71, 0
2, 302560, Note_on_c, 1, 70, 127
2, 302720, Note_off_c, 1, 70, 0
2, 302760, Note_on_c, 1, 71, 127
2, 302760, Note_on_c, 1, 83, 127
2, 302920, Note_off_c, 1, 71, 0
2, 302920, Note_off_c, 1, 74, 0
2, 302960, Note_on_c, 1, 73, 127
2, 303080, Note_off_c, 1, 73, 0
2, 303120, Note_on_c, 1, 64, 127
2, 303120, Note_on_c, 1, 73, 127
2, 303280, Note_off_c, 1, 64, 0
2, 303280, Note_off_c, 1, 83, 0
2, 303320, Note_on_c, 1, 67, 127
2, 303320, Note_on_c, 1, 83, 127
2, 303480, Note_off_c, 1, 67, 0
2, 303480, Note_off_c, 1, 83, 0
2, 303520, Note_on_c, 1, 66, 127
2, 303520, Note_on_c, 1, 82, 127
2, 303640, Note_off_c, 1, 66, 0
2, 303640, Note_off_c, 1, 82, 0
2, 303680, Note_on_c, 1, 67, 127
2, 303680, Note_on_c, 1, 83, 127
2, 303840, Note_off_c, 1, 83, 0
2, 303880, Note_on_c, 1, 58, 127
2, 303880, Note_on_c, 1, 85, 127
2, 304040, Note_off_c, 1, 67, 0
2, 304080, Note_on_c, 1, 67, 127
2, 304200, Note_off_c, 1, 67, 0
2, 304240, Note_on_c, 1, 66, 127
2, 304400, Note_off_c, 1, 66, 0
2, 304440, Note_on_c, 1, 64, 127
2, 304600, Note_off_c, 1, 58, 0
2, 304600, Note_off_c, 1, 64, 0
2, 304600, Note_off_c, 1, 73, 0
2, 304640, Note_on_c, 1, 62, 127
2, 304640, Note_on_c, 1, 66, 127
2, 304760, Note_off_c, 1, 62, 0
2, 304800, Note_on_c, 1, 61, 127
2, 304960, Note_off_c, 1, 61, 0
2, 304960, Note_off_c, 1, 66, 0
2, 304960, Note_off_c, 1, 85, 0
2, 305000, Note_on_c, 1, 59, 127
2, 305000, Note_on_c, 1, 78, 127
2, 305160, Note_off_c, 1, 59, 0
2, 305200, Note_on_c, 1, 61, 127
2, 305320, Note_off_c, 1, 61, 0
2, 305320, Note_off_c, 1, 78, 0
2, 305360, Note_on_c, 1, 63, 127
2, 305360, Note_on_c, 1, 83, 127
2, 305520, Note_off_c, 1, 63, 0
2, 305560, Note_on_c, 1, 64, 127
2, 305720, Note_off_c, 1, 64, 0
2, 305760, Note_on_c, 1, 66, 127
2, 305880, Note_off_c, 1, 66, 0
2, 305880, Note_off_c, 1, 83, 0
2, 305960, Note_on_c, 1, 63, 127
2, 305960, Note_on_c, 1, 81, 127
2, 306080, Note_off_c, 1, 63, 0
2, 306080, Note_off_c, 1, 81, 0
2, 306120, Note_on_c, 1, 64, 127
2, 306120, Note_on_c, 1, 79, 127
2, 306280, Note_off_c, 1, 79, 0
2, 306320, Note_on_c, 1, 78, 127
2, 306440, Note_off_c, 1, 64, 0
2, 306480, Note_off_c, 1, 78, 0
2, 306520, Note_on_c, 1, 59, 127
2, 306520, Note_on_c, 1, 76, 127
2, 306640, Note_off_c, 1, 76, 0
2, 306680, Note_on_c, 1, 78, 127
2, 306840, Note_off_c, 1, 59, 0
2, 306840, Note_off_c, 1, 78, 0
2, 306880, Note_on_c, 1, 64, 127
2, 306880, Note_on_c, 1, 80, 127
2, 307040, Note_off_c, 1, 80, 0
2, 307080, Note_on_c, 1, 81, 127
2, 307200, Note_off_c, 1, 81, 0
2, 307240, Note_on_c, 1, 83, 127
2, 307400, Note_off_c, 1, 64, 0
2, 307400, Note_off_c, 1, 83, 0
2, 307440, Note_on_c, 1, 62, 127
2, 307440, Note_on_c, 1, 80, 127
2, 307600, Note_off_c, 1, 62, 0
2, 307600, Note_off_c, 1, 80, 0
2, 307640, Note_on_c, 1, 61, 127
2, 307640, Note_on_c, 1, 81, 127
2, 307760, Note_off_c, 1, 61, 0
2, 307800, Note_on_c, 1, 59, 127
2, 307960, Note_off_c, 1, 59, 0
2, 307960, Note_off_c, 1, 81, 0
2, 308000, Note_on_c, 1, 57, 127
2, 308000, Note_on_c, 1, 76, 127
2, 308160, Note_off_c, 1, 57, 0
2, 308200, Note_on_c, 1, 59, 127
2, 308320, Note_off_c, 1, 59, 0
2, 308320, Note_off_c, 1, 76, 0
2, 308360, Note_on_c, 1, 61, 127
2, 308360, Note_on_c, 1, 81, 127
2, 308520, Note_off_c, 1, 61, 0
2, 308560, Note_on_c, 1, 62, 127
2, 308720, Note_off_c, 1, 62, 0
2, 308760, Note_on_c, 1, 64, 127
2, 308880, Note_off_c, 1, 64, 0
2, 308880, Note_off_c, 1, 81, 0
2, 308920, Note_on_c, 1, 61, 127
2, 308920, Note_on_c, 1, 79, 127
2, 309080, Note_off_c, 1, 61, 0
2, 309080, Note_off_c, 1, 79, 0
2, 309120, Note_on_c, 1, 62, 127
2, 309120, Note_on_c, 1, 78, 127
2, 309320, Note_on_c, 1, 76, 127
2, 309440, Note_off_c, 1, 76, 0
2, 309480, Note_on_c, 1, 74, 127
2, 309640, Note_off_c, 1, 74, 0
2, 309680, Note_on_c, 1, 73, 127
2, 309840, Note_off_c, 1, 73, 0
2, 309880, Note_on_c, 1, 71, 127
2, 310000, Note_off_c, 1, 71, 0
2, 310040, Note_on_c, 1, 74, 127
2, 310200, Note_off_c, 1, 74, 0
2, 310240, Note_on_c, 1, 73, 127
2, 310400, Note_off_c, 1, 73, 0
2, 310440, Note_on_c, 1, 74, 127
2, 310560, Note_off_c, 1, 74, 0
2, 310560, Note_off_c, 1, 78, 0
2, 310600, Note_on_c, 1, 68, 127
2, 310600, Note_on_c, 1, 76, 127
2, 310760, Note_off_c, 1, 62, 0
2, 310800, Note_on_c, 1, 66, 127
2, 310960, Note_off_c, 1, 66, 0
2, 311000, Note_on_c, 1, 64, 127
2, 311120, Note_off_c, 1, 64, 0
2, 311120, Note_off_c, 1, 68, 0
2, 311200, Note_on_c, 1, 62, 127
2, 311200, Note_on_c, 1, 71, 127
2, 311320, Note_off_c, 1, 62, 0
2, 311320, Note_off_c, 1, 71, 0
2, 311360, Note_on_c, 1, 61, 127
2, 311360, Note_on_c, 1, 70, 127
2, 311520, Note_off_c, 1, 61, 0
2, 311520, Note_off_c, 1, 70, 0
2, 311560, Note_on_c, 1, 64, 127
2, 311560, Note_on_c, 1, 71, 127
2, 311720, Note_off_c, 1, 64, 0
2, 311720, Note_off_c, 1, 71, 0
2, 311760, Note_on_c, 1, 62, 127
2, 311760, Note_on_c, 1, 73, 127
2, 311800, Note_off_c, 1, 73, 0
2, 311840, Note_on_c, 1, 71, 127
2, 311880, Note_off_c, 1, 62, 0
2, 311880, Note_off_c, 1, 71, 0
2, 311920, Note_on_c, 1, 64, 127
2, 311920, Note_on_c, 1, 70, 127
2, 312000, Note_off_c, 1, 70, 0
2, 312040, Note_on_c, 1, 71, 127
2, 312080, Note_off_c, 1, 64, 0
2, 312080, Note_off_c, 1, 71, 0
2, 312120, Note_on_c, 1, 58, 127
2, 312120, Note_on_c, 1, 73, 127
2, 312280, Note_off_c, 1, 58, 0
2, 312320, Note_on_c, 1, 59, 127
2, 312440, Note_off_c, 1, 59, 0
2, 312480, Note_on_c, 1, 61, 127
2, 312640, Note_off_c, 1, 61, 0
2, 312680, Note_on_c, 1, 58, 127
2, 312840, Note_off_c, 1, 58, 0
2, 312880, Note_on_c, 1, 52, 127
2, 313000, Note_off_c, 1, 52, 0
2, 313040, Note_on_c, 1, 55, 127
2, 313200, Note_off_c, 1, 55, 0
2, 313240, Note_on_c, 1, 54, 127
2, 313400, Note_off_c, 1, 54, 0
2, 313440, Note_on_c, 1, 52, 127
2, 313560, Note_off_c, 1, 52, 0
2, 313600, Note_on_c, 1, 50, 127
2, 313760, Note_off_c, 1, 73, 0
2, 313760, Note_off_c, 1, 76, 0
2, 313800, Note_on_c, 1, 79, 127
2, 313960, Note_off_c, 1, 79, 0
2, 314000, Note_on_c, 1, 78, 127
2, 314120, Note_off_c, 1, 78, 0
2, 314200, Note_on_c, 1, 76, 127
2, 314320, Note_off_c, 1, 76, 0
2, 314360, Note_on_c, 1, 71, 127
2, 314360, Note_on_c, 1, 76, 127
2, 314400, Note_off_c, 1, 76, 0
2, 314440, Note_on_c, 1, 74, 127
2, 314520, Note_off_c, 1, 50, 0
2, 314520, Note_off_c, 1, 74, 0
2, 314520, Note_on_c, 1, 76, 127
2, 314560, Note_on_c, 1, 50, 127
2, 314600, Note_on_c, 1, 74, 127
2, 314600, Note_off_c, 1, 76, 0
2, 314680, Note_off_c, 1, 74, 0
2, 314680, Note_on_c, 1, 76, 127
2, 314720, Note_off_c, 1, 50, 0
2, 314760, Note_on_c, 1, 49, 127
2, 314760, Note_off_c, 1, 76, 0
2, 314800, Note_on_c, 1, 74, 127
2, 314880, Note_off_c, 1, 49, 0
2, 314880, Note_off_c, 1, 74, 0
2, 314920, Note_on_c, 1, 47, 127
2, 314960, Note_on_c, 1, 73, 127
2, 315080, Note_off_c, 1, 47, 0
2, 315080, Note_off_c, 1, 71, 0
2, 315080, Note_off_c, 1, 73, 0
2, 315120, Note_on_c, 1, 54, 127
2, 315120, Note_on_c, 1, 73, 127
2, 315280, Note_off_c, 1, 73, 0
2, 315320, Note_on_c, 1, 69, 127
2, 315480, Note_on_c, 1, 73, 127
2, 315640, Note_off_c, 1, 54, 0
2, 315680, Note_on_c, 1, 61, 127
2, 315680, Note_on_c, 1, 78, 127
2, 315840, Note_off_c, 1, 61, 0
2, 315880, Note_on_c, 1, 66, 127
2, 315880, Note_on_c, 1, 81, 127
2, 316000, Note_off_c, 1, 66, 0
2, 316040, Note_on_c, 1, 65, 127
2, 316200, Note_off_c, 1, 65, 0
2, 316240, Note_on_c, 1, 66, 127
2, 316400, Note_off_c, 1, 66, 0
2, 316400, Note_off_c, 1, 69, 0
2, 316400, Note_off_c, 1, 73, 0
2, 316400, Note_off_c, 1, 78, 0
2, 316400, Note_off_c, 1, 81, 0
2, 316440, Note_on_c, 1, 68, 127
2, 316440, Note_on_c, 1, 73, 127
2, 316440, Note_on_c, 1, 78, 127
2, 316440, Note_on_c, 1, 81, 127
2, 316560, Note_off_c, 1, 68, 0
2, 316560, Note_off_c, 1, 73, 0
2, 316560, Note_off_c, 1, 78, 0
2, 316560, Note_off_c, 1, 81, 0
2, 316640, Note_on_c, 1, 59, 127
2, 316640, Note_on_c, 1, 73, 127
2, 316640, Note_on_c, 1, 74, 127
2, 316640, Note_on_c, 1, 81, 127
2, 316760, Note_off_c, 1, 59, 0
2, 316800, Note_on_c, 1, 62, 127
2, 316960, Note_off_c, 1, 62, 0
2, 317000, Note_on_c, 1, 61, 127
2, 317160, Note_off_c, 1, 61, 0
2, 317160, Note_off_c, 1, 81, 0
2, 317200, Note_on_c, 1, 62, 127
2, 317200, Note_on_c, 1, 83, 127
2, 317320, Note_off_c, 1, 62, 0
2, 317320, Note_off_c, 1, 73, 0
2, 317320, Note_off_c, 1, 74, 0
2, 317320, Note_off_c, 1, 83, 0
2, 317360, Note_on_c, 1, 53, 127
2, 317360, Note_on_c, 1, 71, 127
2, 317360, Note_on_c, 1, 74, 127
2, 317360, Note_on_c, 1, 80, 127
2, 317520, Note_off_c, 1, 53, 0
2, 317560, Note_on_c, 1, 62, 127
2, 317720, Note_off_c, 1, 62, 0
2, 317760, Note_on_c, 1, 61, 127
2, 317880, Note_off_c, 1, 61, 0
2, 317880, Note_off_c, 1, 80, 0
2, 317920, Note_on_c, 1, 59, 127
2, 317920, Note_on_c, 1, 80, 127
2, 318080, Note_off_c, 1, 59, 0
2, 318080, Note_off_c, 1, 71, 0
2, 318080, Note_off_c, 1, 74, 0
2, 318080, Note_off_c, 1, 80, 0
2, 318120, Note_on_c, 1, 57, 127
2, 318120, Note_on_c, 1, 71, 127
2, 318120, Note_on_c, 1, 73, 127
2, 318120, Note_on_c, 1, 80, 127
2, 318280, Note_off_c, 1, 80, 0
2, 318320, Note_on_c, 1, 83, 127
2, 318440, Note_off_c, 1, 83, 0
2, 318480, Note_on_c, 1, 81, 127
2, 318640, Note_off_c, 1, 81, 0
2, 318680, Note_on_c, 1, 80, 127
2, 318840, Note_off_c, 1, 71, 0
2, 318840, Note_off_c, 1, 80, 0
2, 318880, Note_on_c, 1, 69, 127
2, 318880, Note_on_c, 1, 78, 127
2, 319000, Note_off_c, 1, 57, 0
2, 319000, Note_off_c, 1, 69, 0
2, 319000, Note_off_c, 1, 73, 0
2, 319000, Note_off_c, 1, 78, 0
2, 319040, Note_on_c, 1, 57, 127
2, 319040, Note_on_c, 1, 77, 127
2, 319200, Note_off_c, 1, 57, 0
2, 319200, Note_off_c, 1, 77, 0
2, 319240, Note_on_c, 1, 56, 127
2, 319240, Note_on_c, 1, 78, 127
2, 319400, Note_off_c, 1, 56, 0
2, 319400, Note_off_c, 1, 78, 0
2, 319440, Note_on_c, 1, 54, 127
2, 319440, Note_on_c, 1, 80, 127
2, 319560, Note_off_c, 1, 54, 0
2, 319560, Note_off_c, 1, 80, 0
2, 319600, Note_on_c, 1, 56, 127
2, 319600, Note_on_c, 1, 71, 127
2, 319760, Note_off_c, 1, 56, 0
2, 319760, Note_off_c, 1, 71, 0
2, 319800, Note_on_c, 1, 56, 127
2, 319800, Note_on_c, 1, 74, 127
2, 319960, Note_off_c, 1, 56, 0
2, 319960, Note_off_c, 1, 74, 0
2, 320000, Note_on_c, 1, 57, 127
2, 320000, Note_on_c, 1, 73, 127
2, 320160, Note_off_c, 1, 57, 0
2, 320160, Note_off_c, 1, 73, 0
2, 320200, Note_on_c, 1, 59, 127
2, 320200, Note_on_c, 1, 74, 127
2, 320320, Note_off_c, 1, 59, 0
2, 320320, Note_off_c, 1, 74, 0
2, 320360, Note_on_c, 1, 61, 127
2, 320360, Note_on_c, 1, 65, 127
2, 320560, Note_on_c, 1, 74, 127
2, 320720, Note_off_c, 1, 61, 0
2, 320720, Note_off_c, 1, 74, 0
2, 320760, Note_on_c, 1, 49, 127
2, 320760, Note_on_c, 1, 73, 127
2, 320880, Note_off_c, 1, 73, 0
2, 320920, Note_on_c, 1, 71, 127
2, 321080, Note_off_c, 1, 49, 0
2, 321080, Note_off_c, 1, 65, 0
2, 321080, Note_off_c, 1, 71, 0
2, 321120, Note_on_c, 1, 54, 127
2, 321120, Note_on_c, 1, 69, 127
2, 321160, Note_off_c, 1, 54, 0
2, 321200, Note_on_c, 1, 53, 127
2, 321280, Note_off_c, 1, 53, 0
2, 321280, Note_off_c, 1, 69, 0
2, 321320, Note_on_c, 1, 54, 127
2, 321320, Note_on_c, 1, 68, 127
2, 321440, Note_off_c, 1, 68, 0
2, 321480, Note_on_c, 1, 66, 127
2, 321640, Note_off_c, 1, 66, 0
2, 321680, Note_on_c, 1, 68, 127
2, 321840, Note_off_c, 1, 68, 0
2, 321880, Note_on_c, 1, 69, 127
2, 322000, Note_off_c, 1, 54, 0
2, 322000, Note_off_c, 1, 69, 0
2, 322040, Note_on_c, 1, 52, 127
2, 322040, Note_on_c, 1, 71, 127
2, 322200, Note_off_c, 1, 52, 0
2, 322200, Note_off_c, 1, 71, 0
2, 322240, Note_on_c, 1, 50, 127
2, 322240, Note_on_c, 1, 73, 127
2, 322400, Note_off_c, 1, 50, 0
2, 322400, Note_off_c, 1, 73, 0
2, 322440, Note_on_c, 1, 49, 127
2, 322440, Note_on_c, 1, 69, 127
2, 322560, Note_off_c, 1, 49, 0
2, 322560, Note_off_c, 1, 69, 0
2, 322600, Note_on_c, 1, 47, 127
2, 322600, Note_on_c, 1, 74, 127
2, 322680, Note_off_c, 1, 74, 0
2, 322720, Note_on_c, 1, 73, 127
2, 322760, Note_off_c, 1, 47, 0
2, 322760, Note_off_c, 1, 73, 0
2, 322800, Note_on_c, 1, 45, 127
2, 322800, Note_on_c, 1, 74, 127
2, 322960, Note_off_c, 1, 45, 0
2, 323000, Note_on_c, 1, 47, 127
2, 323120, Note_off_c, 1, 74, 0
2, 323160, Note_off_c, 1, 47, 0
2, 323200, Note_on_c, 1, 49, 127
2, 323200, Note_on_c, 1, 73, 127
2, 323320, Note_off_c, 1, 49, 0
2, 323320, Note_off_c, 1, 73, 0
2, 323360, Note_on_c, 1, 50, 127
2, 323360, Note_on_c, 1, 71, 127
2, 323520, Note_off_c, 1, 50, 0
2, 323560, Note_on_c, 1, 49, 127
2, 323560, Note_on_c, 1, 69, 127
2, 323720, Note_off_c, 1, 49, 0
2, 323720, Note_off_c, 1, 69, 0
2, 323760, Note_on_c, 1, 50, 127
2, 323760, Note_on_c, 1, 68, 127
2, 323880, Note_off_c, 1, 50, 0
2, 323880, Note_off_c, 1, 68, 0
2, 323920, Note_on_c, 1, 47, 127
2, 323920, Note_on_c, 1, 66, 127
2, 324080, Note_off_c, 1, 47, 0
2, 324080, Note_off_c, 1, 66, 0
2, 324120, Note_on_c, 1, 49, 127
2, 324120, Note_on_c, 1, 65, 127
2, 324280, Note_off_c, 1, 71, 0
2, 324320, Note_on_c, 1, 71, 127
2, 324440, Note_off_c, 1, 71, 0
2, 324480, Note_on_c, 1, 56, 127
2, 324480, Note_on_c, 1, 69, 127
2, 324640, Note_off_c, 1, 65, 0
2, 324640, Note_off_c, 1, 69, 0
2, 324680, Note_on_c, 1, 68, 127
2, 324840, Note_off_c, 1, 56, 0
2, 324840, Note_off_c, 1, 68, 0
2, 324880, Note_on_c, 1, 61, 127
2, 324880, Note_on_c, 1, 69, 127
2, 325040, Note_on_c, 1, 66, 127
2, 325200, Note_off_c, 1, 61, 0
2, 325200, Note_off_c, 1, 66, 0
2, 325200, Note_off_c, 1, 69, 0
2, 325240, Note_on_c, 1, 57, 127
2, 325240, Note_on_c, 1, 68, 127
2, 325400, Note_off_c, 1, 68, 0
2, 325440, Note_on_c, 1, 69, 127
2, 325560, Note_off_c, 1, 57, 0
2, 325560, Note_off_c, 1, 69, 0
2, 325600, Note_on_c, 1, 54, 127
2, 325600, Note_on_c, 1, 63, 127
2, 325800, Note_on_c, 1, 66, 127
2, 325920, Note_off_c, 1, 63, 0
2, 325960, Note_off_c, 1, 54, 0
2, 325960, Note_off_c, 1, 66, 0
2, 326000, Note_on_c, 1, 57, 127
2, 326000, Note_on_c, 1, 64, 127
2, 326120, Note_off_c, 1, 64, 0
2, 326160, Note_on_c, 1, 66, 127
2, 326320, Note_off_c, 1, 57, 0
2, 326320, Note_off_c, 1, 66, 0
2, 326360, Note_on_c, 1, 51, 127
2, 326360, Note_on_c, 1, 60, 127
2, 326560, Note_on_c, 1, 69, 127
2, 326680, Note_off_c, 1, 51, 0
2, 326680, Note_off_c, 1, 60, 0
2, 326680, Note_off_c, 1, 69, 0
2, 326720, Note_on_c, 1, 60, 127
2, 326720, Note_on_c, 1, 68, 127
2, 326880, Note_off_c, 1, 68, 0
2, 326920, Note_on_c, 1, 66, 127
2, 327040, Note_off_c, 1, 49, 0
2, 327080, Note_off_c, 1, 60, 0
2, 327080, Note_off_c, 1, 66, 0
2, 327120, Note_on_c, 1, 61, 127
2, 327120, Note_on_c, 1, 65, 127
2, 327240, Note_off_c, 1, 65, 0
2, 327280, Note_on_c, 1, 63, 127
2, 327440, Note_off_c, 1, 61, 0
2, 327440, Note_off_c, 1, 63, 0
2, 327480, Note_on_c, 1, 61, 127
2, 327680, Note_on_c, 1, 59, 127
2, 327800, Note_off_c, 1, 59, 0
2, 327800, Note_off_c, 1, 61, 0
2, 327880, Note_on_c, 1, 57, 127
2, 327880, Note_on_c, 1, 73, 127
2, 327920, Note_off_c, 1, 73, 0
2, 327960, Note_on_c, 1, 71, 127
2, 328000, Note_off_c, 1, 57, 0
2, 328000, Note_off_c, 1, 71, 0
2, 328040, Note_on_c, 1, 54, 127
2, 328040, Note_on_c, 1, 73, 127
2, 328200, Note_off_c, 1, 54, 0
2, 328240, Note_on_c, 1, 56, 127
2, 328400, Note_off_c, 1, 56, 0
2, 328400, Note_off_c, 1, 73, 0
2, 328440, Note_on_c, 1, 57, 127
2, 328440, Note_on_c, 1, 73, 127
2, 328560, Note_off_c, 1, 57, 0
2, 328560, Note_off_c, 1, 73, 0
2, 328600, Note_on_c, 1, 50, 127
2, 328600, Note_on_c, 1, 78, 127
2, 328760, Note_off_c, 1, 78, 0
2, 328800, Note_on_c, 1, 74, 127
2, 328960, Note_off_c, 1, 74, 0
2, 329000, Note_on_c, 1, 73, 127
2, 329120, Note_off_c, 1, 50, 0
2, 329120, Note_off_c, 1, 73, 0
2, 329160, Note_on_c, 1, 49, 127
2, 329160, Note_on_c, 1, 71, 127
2, 329320, Note_off_c, 1, 49, 0
2, 329320, Note_off_c, 1, 71, 0
2, 329360, Note_on_c, 1, 50, 127
2, 329360, Note_on_c, 1, 80, 127
2, 329400, Note_off_c, 1, 80, 0
2, 329440, Note_on_c, 1, 78, 127
2, 329520, Note_off_c, 1, 50, 0
2, 329520, Note_off_c, 1, 78, 0
2, 329560, Note_on_c, 1, 47, 127
2, 329560, Note_on_c, 1, 80, 127
2, 329680, Note_off_c, 1, 47, 0
2, 329720, Note_on_c, 1, 49, 127
2, 329880, Note_off_c, 1, 49, 0
2, 329880, Note_off_c, 1, 80, 0
2, 329920, Note_on_c, 1, 50, 127
2, 329920, Note_on_c, 1, 80, 127
2, 330080, Note_off_c, 1, 50, 0
2, 330080, Note_off_c, 1, 80, 0
2, 330120, Note_on_c, 1, 41, 127
2, 330120, Note_on_c, 1, 80, 127
2, 330240, Note_off_c, 1, 80, 0
2, 330280, Note_on_c, 1, 81, 127
2, 330360, Note_off_c, 1, 81, 0
2, 330400, Note_on_c, 1, 83, 127
2, 330440, Note_off_c, 1, 41, 0
2, 330440, Note_off_c, 1, 83, 0
2, 330480, Note_on_c, 1, 42, 127
2, 330480, Note_on_c, 1, 81, 127
2, 330640, Note_off_c, 1, 81, 0
2, 330680, Note_on_c, 1, 80, 127
2, 330800, Note_off_c, 1, 42, 0
2, 330800, Note_off_c, 1, 80, 0
2, 330840, Note_on_c, 1, 49, 127
2, 330840, Note_on_c, 1, 77, 127
2, 330840, Note_on_c, 1, 81, 127
2, 330920, Note_off_c, 1, 81, 0
2, 330960, Note_on_c, 1, 80, 127
2, 331000, Note_off_c, 1, 80, 0
2, 331040, Note_on_c, 1, 81, 127
2, 331120, Note_off_c, 1, 81, 0
2, 331160, Note_on_c, 1, 80, 127
2, 331200, Note_off_c, 1, 80, 0
2, 331240, Note_on_c, 1, 81, 127
2, 331280, Note_off_c, 1, 81, 0
2, 331320, Note_on_c, 1, 80, 127
2, 331360, Note_off_c, 1, 77, 0
2, 331400, Note_off_c, 1, 80, 0
2, 331440, Note_on_c, 1, 78, 127
2, 331560, Note_off_c, 1, 49, 0
2, 331560, Note_off_c, 1, 78, 0
2, 331600, Note_on_c, 1, 54, 127
2, 331600, Note_on_c, 1, 78, 127
2, 331800, Note_on_c, 1, 76, 127
2, 331960, Note_off_c, 1, 76, 0
2, 332000, Note_on_c, 1, 74, 127
2, 332120, Note_off_c, 1, 74, 0
2, 332160, Note_on_c, 1, 58, 127
2, 332160, Note_on_c, 1, 73, 127
2, 332320, Note_off_c, 1, 58, 0
2, 332320, Note_off_c, 1, 73, 0
2, 332360, Note_on_c, 1, 59, 127
2, 332360, Note_on_c, 1, 74, 127
2, 332520, Note_off_c, 1, 59, 0
2, 332520, Note_off_c, 1, 74, 0
2, 332560, Note_on_c, 1, 61, 127
2, 332560, Note_on_c, 1, 70, 127
2, 332680, Note_off_c, 1, 61, 0
2, 332680, Note_off_c, 1, 70, 0
2, 332720, Note_on_c, 1, 62, 127
2, 332720, Note_on_c, 1, 71, 127
2, 332880, Note_off_c, 1, 62, 0
2, 332920, Note_on_c, 1, 65, 127
2, 332920, Note_on_c, 1, 74, 127
2, 333080, Note_off_c, 1, 54, 0
2, 333080, Note_off_c, 1, 65, 0
2, 333080, Note_off_c, 1, 71, 0
2, 333080, Note_off_c, 1, 74, 0
2, 333080, Note_off_c, 1, 78, 0
2, 333120, Note_on_c, 1, 66, 127
2, 333280, Note_on_c, 1, 42, 127
2, 333280, Note_on_c, 1, 70, 127
2, 333400, Note_on_c, 1, 73, 127
2, 333480, Note_on_c, 1, 46, 127
2, 333480, Note_on_c, 1, 78, 127
2, 333640, Note_off_c, 1, 46, 0
2, 333680, Note_on_c, 1, 49, 127
2, 333800, Note_off_c, 1, 49, 0
2, 333840, Note_on_c, 1, 54, 127
2, 334280, Note_off_c, 1, 73, 0
2, 334360, Note_off_c, 1, 42, 0
2, 334360, Note_off_c, 1, 70, 0
2, 334360, Note_off_c, 1, 78, 0
2, 334400, Note_off_c, 1, 66, 0
2, 334440, Note_on_c, 1, 73, 127
2, 334560, Note_off_c, 1, 54, 0
2, 334560, Note_off_c, 1, 73, 0
2, 334600, Note_on_c, 1, 42, 127
2, 334600, Note_on_c, 1, 66, 127
2, 334600, Note_on_c, 1, 70, 127
2, 334600, Note_on_c, 1, 73, 127
2, 334760, Note_off_c, 1, 42, 0
2, 334800, Note_on_c, 1, 46, 127
2, 334960, Note_off_c, 1, 46, 0
2, 335000, Note_on_c, 1, 54, 127
2, 335120, Note_off_c, 1, 54, 0
2, 335120, Note_off_c, 1, 66, 0
2, 335120, Note_off_c, 1, 70, 0
2, 335120, Note_off_c, 1, 73, 0
2, 335160, Note_on_c, 1, 56, 127
2, 335160, Note_on_c, 1, 73, 127
2, 335320, Note_off_c, 1, 56, 0
2, 335320, Note_off_c, 1, 73, 0
2, 335360, Note_on_c, 1, 58, 127
2, 335360, Note_on_c, 1, 64, 127
2, 335520, Note_off_c, 1, 64, 0
2, 335560, Note_on_c, 1, 67, 127
2, 335680, Note_off_c, 1, 58, 0
2, 335680, Note_off_c, 1, 67, 0
2, 335720, Note_on_c, 1, 59, 127
2, 335720, Note_on_c, 1, 66, 127
2, 335880, Note_off_c, 1, 66, 0
2, 335920, Note_on_c, 1, 64, 127
2, 336080, Note_off_c, 1, 59, 0
2, 336080, Note_off_c, 1, 64, 0
2, 336120, Note_on_c, 1, 61, 127
2, 336120, Note_on_c, 1, 70, 127
2, 336240, Note_off_c, 1, 70, 0
2, 336280, Note_on_c, 1, 66, 127
2, 336440, Note_off_c, 1, 61, 0
2, 336440, Note_off_c, 1, 66, 0
2, 336480, Note_on_c, 1, 59, 127
2, 336480, Note_on_c, 1, 67, 127
2, 336640, Note_off_c, 1, 67, 0
2, 336680, Note_on_c, 1, 66, 127
2, 336800, Note_off_c, 1, 59, 0
2, 336800, Note_off_c, 1, 66, 0
2, 336840, Note_on_c, 1, 58, 127
2, 336840, Note_on_c, 1, 73, 127
2, 337000, Note_off_c, 1, 73, 0
2, 337040, Note_on_c, 1, 64, 127
2, 337200, Note_off_c, 1, 58, 0
2, 337200, Note_off_c, 1, 64, 0
2, 337240, Note_on_c, 1, 54, 127
2, 337240, Note_on_c, 1, 66, 127
2, 337360, Note_off_c, 1, 66, 0
2, 337400, Note_on_c, 1, 67, 127
2, 337560, Note_off_c, 1, 54, 0
2, 337560, Note_off_c, 1, 67, 0
2, 337600, Note_on_c, 1, 59, 127
2, 337600, Note_on_c, 1, 63, 127
2, 337760, Note_off_c, 1, 63, 0
2, 337800, Note_on_c, 1, 61, 127
2, 337920, Note_off_c, 1, 59, 0
2, 337920, Note_off_c, 1, 61, 0
2, 338000, Note_on_c, 1, 59, 127
2, 338120, Note_off_c, 1, 59, 0
2, 338160, Note_on_c, 1, 47, 127
2, 338160, Note_on_c, 1, 61, 127
2, 338320, Note_off_c, 1, 47, 0
2, 338320, Note_off_c, 1, 61, 0
2, 338360, Note_on_c, 1, 45, 127
2, 338360, Note_on_c, 1, 63, 127
2, 338480, Note_off_c, 1, 45, 0
2, 338480, Note_off_c, 1, 63, 0
2, 338560, Note_on_c, 1, 48, 127
2, 338560, Note_on_c, 1, 64, 127
2, 338680, Note_off_c, 1, 48, 0
2, 338680, Note_off_c, 1, 64, 0
2, 338720, Note_on_c, 1, 47, 127
2, 338720, Note_on_c, 1, 66, 127
2, 338880, Note_off_c, 1, 47, 0
2, 338880, Note_off_c, 1, 66, 0
2, 338920, Note_on_c, 1, 45, 127
2, 338920, Note_on_c, 1, 67, 127
2, 339080, Note_off_c, 1, 45, 0
2, 339080, Note_off_c, 1, 67, 0
2, 339120, Note_on_c, 1, 51, 127
2, 339120, Note_on_c, 1, 69, 127
2, 339240, Note_off_c, 1, 51, 0
2, 339240, Note_off_c, 1, 69, 0
2, 339280, Note_on_c, 1, 47, 127
2, 339280, Note_on_c, 1, 67, 127
2, 339440, Note_off_c, 1, 47, 0
2, 339440, Note_off_c, 1, 67, 0
2, 339480, Note_on_c, 1, 48, 127
2, 339480, Note_on_c, 1, 66, 127
2, 339640, Note_off_c, 1, 48, 0
2, 339640, Note_off_c, 1, 66, 0
2, 339680, Note_on_c, 1, 47, 127
2, 339680, Note_on_c, 1, 67, 127
2, 339800, Note_off_c, 1, 47, 0
2, 339800, Note_off_c, 1, 67, 0
2, 339840, Note_on_c, 1, 54, 127
2, 339840, Note_on_c, 1, 69, 127
2, 340000, Note_off_c, 1, 54, 0
2, 340000, Note_off_c, 1, 69, 0
2, 340040, Note_on_c, 1, 45, 127
2, 340040, Note_on_c, 1, 72, 127
2, 340200, Note_off_c, 1, 45, 0
2, 340200, Note_off_c, 1, 72, 0
2, 340240, Note_on_c, 1, 47, 127
2, 340240, Note_on_c, 1, 71, 127
2, 340360, Note_off_c, 1, 47, 0
2, 340360, Note_off_c, 1, 71, 0
2, 340400, Note_on_c, 1, 48, 127
2, 340400, Note_on_c, 1, 69, 127
2, 340560, Note_off_c, 1, 48, 0
2, 340560, Note_off_c, 1, 69, 0
2, 340600, Note_on_c, 1, 44, 127
2, 340600, Note_on_c, 1, 74, 127
2, 340800, Note_on_c, 1, 52, 127
2, 340800, Note_on_c, 1, 71, 127
2, 340920, Note_off_c, 1, 44, 0
2, 340920, Note_off_c, 1, 52, 0
2, 340920, Note_off_c, 1, 71, 0
2, 340960, Note_on_c, 1, 54, 127
2, 340960, Note_on_c, 1, 64, 127
2, 341120, Note_off_c, 1, 54, 0
2, 341120, Note_off_c, 1, 74, 0
2, 341160, Note_on_c, 1, 56, 127
2, 341160, Note_on_c, 1, 74, 127
2, 341320, Note_off_c, 1, 56, 0
2, 341320, Note_off_c, 1, 64, 0
2, 341320, Note_off_c, 1, 74, 0
2, 341360, Note_on_c, 1, 57, 127
2, 341360, Note_on_c, 1, 73, 127
2, 341480, Note_off_c, 1, 57, 0
2, 341480, Note_off_c, 1, 73, 0
2, 341520, Note_on_c, 1, 59, 127
2, 341520, Note_on_c, 1, 74, 127
2, 341680, Note_off_c, 1, 59, 0
2, 341680, Note_off_c, 1, 74, 0
2, 341720, Note_on_c, 1, 61, 127
2, 341720, Note_on_c, 1, 76, 127
2, 341760, Note_off_c, 1, 61, 0
2, 341760, Note_off_c, 1, 76, 0
2, 341800, Note_on_c, 1, 59, 127
2, 341800, Note_on_c, 1, 74, 127
2, 341880, Note_off_c, 1, 59, 0
2, 341880, Note_off_c, 1, 74, 0
2, 341920, Note_on_c, 1, 57, 127
2, 341920, Note_on_c, 1, 73, 127
2, 341960, Note_off_c, 1, 57, 0
2, 341960, Note_off_c, 1, 73, 0
2, 342000, Note_on_c, 1, 59, 127
2, 342000, Note_on_c, 1, 74, 127
2, 342040, Note_off_c, 1, 59, 0
2, 342040, Note_off_c, 1, 74, 0
2, 342120, Note_on_c, 1, 61, 127
2, 342120, Note_on_c, 1, 69, 127
2, 342120, Note_on_c, 1, 76, 127
2, 342240, Note_off_c, 1, 61, 0
2, 342280, Note_on_c, 1, 62, 127
2, 342440, Note_off_c, 1, 62, 0
2, 342480, Note_on_c, 1, 64, 127
2, 342520, Note_off_c, 1, 64, 0
2, 342560, Note_on_c, 1, 62, 127
2, 342640, Note_off_c, 1, 62, 0
2, 342640, Note_off_c, 1, 76, 0
2, 342680, Note_on_c, 1, 61, 127
2, 342680, Note_on_c, 1, 78, 127
2, 342720, Note_off_c, 1, 61, 0
2, 342760, Note_on_c, 1, 62, 127
2, 342800, Note_off_c, 1, 62, 0
2, 342800, Note_off_c, 1, 78, 0
2, 342840, Note_on_c, 1, 64, 127
2, 342840, Note_on_c, 1, 71, 127
2, 343000, Note_off_c, 1, 71, 0
2, 343040, Note_on_c, 1, 73, 127
2, 343200, Note_off_c, 1, 64, 0
2, 343200, Note_off_c, 1, 69, 0
2, 343200, Note_off_c, 1, 73, 0
2, 343240, Note_on_c, 1, 52, 127
2, 343240, Note_on_c, 1, 68, 127
2, 343240, Note_on_c, 1, 74, 127
2, 343360, Note_off_c, 1, 74, 0
2, 343400, Note_on_c, 1, 76, 127
2, 343560, Note_off_c, 1, 52, 0
2, 343560, Note_off_c, 1, 68, 0
2, 343560, Note_off_c, 1, 76, 0
2, 343600, Note_on_c, 1, 45, 127
2, 343600, Note_on_c, 1, 69, 127
2, 343600, Note_on_c, 1, 74, 127
2, 343640, Note_off_c, 1, 74, 0
2, 343680, Note_on_c, 1, 73, 127
2, 343720, Note_off_c, 1, 73, 0
2, 343760, Note_off_c, 1, 45, 0
2, 343760, Note_on_c, 1, 74, 127
2, 343800, Note_on_c, 1, 52, 127
2, 343800, Note_on_c, 1, 73, 127
2, 343800, Note_off_c, 1, 74, 0
2, 343920, Note_off_c, 1, 52, 0
2, 343960, Note_on_c, 1, 57, 127
2, 344120, Note_off_c, 1, 57, 0
2, 344120, Note_off_c, 1, 73, 0
2, 344160, Note_on_c, 1, 59, 127
2, 344160, Note_on_c, 1, 76, 127
2, 344320, Note_off_c, 1, 59, 0
2, 344320, Note_off_c, 1, 76, 0
2, 344360, Note_on_c, 1, 61, 127
2, 344360, Note_on_c, 1, 67, 127
2, 344480, Note_off_c, 1, 67, 0
2, 344520, Note_on_c, 1, 71, 127
2, 344680, Note_off_c, 1, 61, 0
2, 344680, Note_off_c, 1, 69, 0
2, 344680, Note_off_c, 1, 71, 0
2, 344720, Note_on_c, 1, 62, 127
2, 344720, Note_on_c, 1, 69, 127
2, 344880, Note_off_c, 1, 69, 0
2, 344920, Note_on_c, 1, 67, 127
2, 345040, Note_off_c, 1, 62, 0
2, 345040, Note_off_c, 1, 67, 0
2, 345120, Note_on_c, 1, 64, 127
2, 345120, Note_on_c, 1, 73, 127
2, 345240, Note_off_c, 1, 73, 0
2, 345280, Note_on_c, 1, 69, 127
2, 345440, Note_off_c, 1, 64, 0
2, 345440, Note_off_c, 1, 69, 0
2, 345480, Note_on_c, 1, 62, 127
2, 345480, Note_on_c, 1, 71, 127
2, 345640, Note_off_c, 1, 71, 0
2, 345680, Note_on_c, 1, 69, 127
2, 345800, Note_off_c, 1, 62, 0
2, 345800, Note_off_c, 1, 69, 0
2, 345840, Note_on_c, 1, 61, 127
2, 345840, Note_on_c, 1, 76, 127
2, 346000, Note_off_c, 1, 76, 0
2, 346040, Note_on_c, 1, 67, 127
2, 346200, Note_off_c, 1, 67, 0
2, 346240, Note_on_c, 1, 59, 127
2, 346240, Note_on_c, 1, 69, 127
2, 346360, Note_off_c, 1, 69, 0
2, 346400, Note_on_c, 1, 71, 127
2, 346560, Note_off_c, 1, 59, 0
2, 346560, Note_off_c, 1, 71, 0
2, 346600, Note_on_c, 1, 58, 127
2, 346600, Note_on_c, 1, 67, 127
2, 346760, Note_off_c, 1, 67, 0
2, 346800, Note_on_c, 1, 66, 127
2, 346920, Note_off_c, 1, 58, 0
2, 346920, Note_off_c, 1, 61, 0
2, 346960, Note_on_c, 1, 59, 127
2, 347040, Note_off_c, 1, 66, 0
2, 347160, Note_on_c, 1, 85, 127
2, 347320, Note_off_c, 1, 59, 0
2, 347320, Note_off_c, 1, 85, 0
2, 347360, Note_on_c, 1, 58, 127
2, 347360, Note_on_c, 1, 76, 127
2, 347480, Note_off_c, 1, 76, 0
2, 347520, Note_on_c, 1, 79, 127
2, 347680, Note_off_c, 1, 58, 0
2, 347680, Note_off_c, 1, 79, 0
2, 347720, Note_on_c, 1, 56, 127
2, 347720, Note_on_c, 1, 78, 127
2, 347880, Note_off_c, 1, 78, 0
2, 347920, Note_on_c, 1, 76, 127
2, 348040, Note_off_c, 1, 56, 0
2, 348040, Note_off_c, 1, 76, 0
2, 348080, Note_on_c, 1, 54, 127
2, 348080, Note_on_c, 1, 82, 127
2, 348240, Note_off_c, 1, 82, 0
2, 348280, Note_on_c, 1, 78, 127
2, 348440, Note_off_c, 1, 54, 0
2, 348440, Note_off_c, 1, 78, 0
2, 348480, Note_on_c, 1, 52, 127
2, 348480, Note_on_c, 1, 61, 127
2, 348480, Note_on_c, 1, 79, 127
2, 348600, Note_off_c, 1, 79, 0
2, 348640, Note_on_c, 1, 78, 127
2, 348800, Note_off_c, 1, 52, 0
2, 348800, Note_off_c, 1, 61, 0
2, 348800, Note_off_c, 1, 78, 0
2, 348840, Note_on_c, 1, 50, 127
2, 348840, Note_on_c, 1, 54, 127
2, 348840, Note_on_c, 1, 85, 127
2, 349000, Note_off_c, 1, 85, 0
2, 349040, Note_on_c, 1, 76, 127
2, 349160, Note_off_c, 1, 50, 0
2, 349160, Note_off_c, 1, 54, 0
2, 349160, Note_off_c, 1, 76, 0
2, 349200, Note_on_c, 1, 49, 127
2, 349200, Note_on_c, 1, 58, 127
2, 349200, Note_on_c, 1, 78, 127
2, 349360, Note_off_c, 1, 78, 0
2, 349400, Note_on_c, 1, 79, 127
2, 349560, Note_off_c, 1, 49, 0
2, 349560, Note_off_c, 1, 58, 0
2, 349560, Note_off_c, 1, 79, 0
2, 349600, Note_on_c, 1, 47, 127
2, 349600, Note_on_c, 1, 59, 127
2, 349600, Note_on_c, 1, 75, 127
2, 349720, Note_off_c, 1, 75, 0
2, 349800, Note_on_c, 1, 73, 127
2, 349920, Note_off_c, 1, 73, 0
2, 349960, Note_on_c, 1, 75, 127
2, 350120, Note_off_c, 1, 47, 0
2, 350120, Note_off_c, 1, 59, 0
2, 350120, Note_off_c, 1, 75, 0
2, 350160, Note_on_c, 1, 59, 127
2, 350160, Note_on_c, 1, 71, 127
2, 350280, Note_off_c, 1, 59, 0
2, 350280, Note_off_c, 1, 71, 0
2, 350360, Note_on_c, 1, 60, 127
2, 350360, Note_on_c, 1, 81, 127
2, 350480, Note_off_c, 1, 60, 0
2, 350520, Note_on_c, 1, 59, 127
2, 350680, Note_off_c, 1, 59, 0
2, 350720, Note_on_c, 1, 60, 127
2, 350880, Note_off_c, 1, 60, 0
2, 350880, Note_off_c, 1, 81, 0
2, 350920, Note_on_c, 1, 57, 127
2, 350920, Note_on_c, 1, 78, 127
2, 350920, Note_on_c, 1, 81, 127
2, 351040, Note_off_c, 1, 57, 0
2, 351040, Note_off_c, 1, 78, 0
2, 351040, Note_off_c, 1, 81, 0
2, 351080, Note_on_c, 1, 63, 127
2, 351080, Note_on_c, 1, 78, 127
2, 351080, Note_on_c, 1, 81, 127
2, 351240, Note_off_c, 1, 63, 0
2, 351240, Note_off_c, 1, 81, 0
2, 351280, Note_on_c, 1, 59, 127
2, 351280, Note_on_c, 1, 83, 127
2, 351440, Note_off_c, 1, 59, 0
2, 351440, Note_off_c, 1, 78, 0
2, 351440, Note_off_c, 1, 83, 0
2, 351480, Note_on_c, 1, 64, 127
2, 351480, Note_on_c, 1, 76, 127
2, 351480, Note_on_c, 1, 79, 127
2, 351600, Note_off_c, 1, 64, 0
2, 351600, Note_off_c, 1, 79, 0
2, 351640, Note_on_c, 1, 57, 127
2, 351640, Note_on_c, 1, 81, 127
2, 351800, Note_off_c, 1, 57, 0
2, 351800, Note_off_c, 1, 76, 0
2, 351800, Note_off_c, 1, 81, 0
2, 351840, Note_on_c, 1, 59, 127
2, 351840, Note_on_c, 1, 75, 127
2, 351840, Note_on_c, 1, 79, 127
2, 351880, Note_on_c, 1, 78, 127
2, 351880, Note_off_c, 1, 79, 0
2, 351960, Note_off_c, 1, 78, 0
2, 351960, Note_on_c, 1, 79, 127
2, 352000, Note_off_c, 1, 79, 0
2, 352040, Note_on_c, 1, 78, 127
2, 352080, Note_off_c, 1, 78, 0
2, 352080, Note_on_c, 1, 79, 127
2, 352120, Note_off_c, 1, 79, 0
2, 352160, Note_on_c, 1, 78, 127
2, 352200, Note_on_c, 1, 47, 127
2, 352360, Note_off_c, 1, 78, 0
2, 352400, Note_on_c, 1, 83, 127
2, 352560, Note_off_c, 1, 47, 0
2, 352560, Note_off_c, 1, 75, 0
2, 352560, Note_off_c, 1, 83, 0
2, 352600, Note_on_c, 1, 52, 127
2, 352600, Note_on_c, 1, 81, 127
2, 352760, Note_off_c, 1, 81, 0
2, 352800, Note_on_c, 1, 79, 127
2, 352920, Note_off_c, 1, 59, 0
2, 352920, Note_off_c, 1, 79, 0
2, 352960, Note_on_c, 1, 78, 127
2, 353120, Note_off_c, 1, 78, 0
2, 353160, Note_on_c, 1, 76, 127
2, 353320, Note_off_c, 1, 76, 0
2, 353360, Note_on_c, 1, 79, 127
2, 353400, Note_off_c, 1, 79, 0
2, 353440, Note_on_c, 1, 78, 127
2, 353480, Note_off_c, 1, 52, 0
2, 353480, Note_off_c, 1, 78, 0
2, 353520, Note_on_c, 1, 52, 127
2, 353520, Note_on_c, 1, 79, 127
2, 353680, Note_off_c, 1, 52, 0
2, 353720, Note_on_c, 1, 54, 127
2, 353880, Note_off_c, 1, 54, 0
2, 353880, Note_off_c, 1, 79, 0
2, 353920, Note_on_c, 1, 55, 127
2, 353920, Note_on_c, 1, 79, 127
2, 354040, Note_off_c, 1, 55, 0
2, 354040, Note_off_c, 1, 79, 0
2, 354080, Note_on_c, 1, 57, 127
2, 354080, Note_on_c, 1, 79, 127
2, 354240, Note_off_c, 1, 57, 0
2, 354240, Note_off_c, 1, 79, 0
2, 354280, Note_on_c, 1, 57, 127
2, 354280, Note_on_c, 1, 73, 127
2, 354440, Note_off_c, 1, 57, 0
2, 354440, Note_off_c, 1, 73, 0
2, 354480, Note_on_c, 1, 59, 127
2, 354480, Note_on_c, 1, 74, 127
2, 354600, Note_off_c, 1, 59, 0
2, 354600, Note_off_c, 1, 74, 0
2, 354640, Note_on_c, 1, 61, 127
2, 354640, Note_on_c, 1, 76, 127
2, 354800, Note_off_c, 1, 61, 0
2, 354800, Note_off_c, 1, 76, 0
2, 354840, Note_on_c, 1, 62, 127
2, 354840, Note_on_c, 1, 78, 127
2, 355000, Note_off_c, 1, 62, 0
2, 355040, Note_on_c, 1, 62, 127
2, 355160, Note_off_c, 1, 62, 0
2, 355200, Note_on_c, 1, 64, 127
2, 355360, Note_off_c, 1, 64, 0
2, 355360, Note_off_c, 1, 78, 0
2, 355400, Note_on_c, 1, 66, 127
2, 355400, Note_on_c, 1, 78, 127
2, 355560, Note_off_c, 1, 66, 0
2, 355560, Note_off_c, 1, 78, 0
2, 355600, Note_on_c, 1, 67, 127
2, 355600, Note_on_c, 1, 78, 127
2, 355720, Note_off_c, 1, 78, 0
2, 355760, Note_on_c, 1, 74, 127
2, 355920, Note_off_c, 1, 74, 0
2, 355960, Note_on_c, 1, 73, 127
2, 356120, Note_off_c, 1, 73, 0
2, 356160, Note_on_c, 1, 71, 127
2, 356280, Note_off_c, 1, 71, 0
2, 356320, Note_on_c, 1, 76, 127
2, 356400, Note_off_c, 1, 76, 0
2, 356440, Note_on_c, 1, 74, 127
2, 356480, Note_off_c, 1, 67, 0
2, 356480, Note_off_c, 1, 74, 0
2, 356520, Note_on_c, 1, 49, 127
2, 356520, Note_on_c, 1, 76, 127
2, 356680, Note_off_c, 1, 49, 0
2, 356720, Note_on_c, 1, 50, 127
2, 356840, Note_off_c, 1, 76, 0
2, 356880, Note_off_c, 1, 50, 0
2, 356920, Note_on_c, 1, 52, 127
2, 356920, Note_on_c, 1, 76, 127
2, 357040, Note_off_c, 1, 52, 0
2, 357040, Note_off_c, 1, 76, 0
2, 357080, Note_on_c, 1, 54, 127
2, 357080, Note_on_c, 1, 76, 127
2, 357240, Note_off_c, 1, 54, 0
2, 357240, Note_off_c, 1, 76, 0
2, 357280, Note_on_c, 1, 54, 127
2, 357280, Note_on_c, 1, 70, 127
2, 357440, Note_off_c, 1, 54, 0
2, 357440, Note_off_c, 1, 70, 0
2, 357480, Note_on_c, 1, 56, 127
2, 357480, Note_on_c, 1, 71, 127
2, 357600, Note_off_c, 1, 56, 0
2, 357600, Note_off_c, 1, 71, 0
2, 357640, Note_on_c, 1, 58, 127
2, 357640, Note_on_c, 1, 73, 127
2, 357800, Note_off_c, 1, 58, 0
2, 357800, Note_off_c, 1, 73, 0
2, 357840, Note_on_c, 1, 59, 127
2, 357840, Note_on_c, 1, 74, 127
2, 358000, Note_off_c, 1, 59, 0
2, 358040, Note_on_c, 1, 59, 127
2, 358160, Note_off_c, 1, 59, 0
2, 358200, Note_on_c, 1, 61, 127
2, 358360, Note_off_c, 1, 61, 0
2, 358360, Note_off_c, 1, 74, 0
2, 358400, Note_on_c, 1, 62, 127
2, 358400, Note_on_c, 1, 74, 127
2, 358560, Note_off_c, 1, 62, 0
2, 358560, Note_off_c, 1, 74, 0
2, 358600, Note_on_c, 1, 64, 127
2, 358600, Note_on_c, 1, 74, 127
2, 358720, Note_off_c, 1, 74, 0
2, 358760, Note_on_c, 1, 71, 127
2, 358920, Note_off_c, 1, 71, 0
2, 358960, Note_on_c, 1, 69, 127
2, 359120, Note_off_c, 1, 69, 0
2, 359160, Note_on_c, 1, 67, 127
2, 359280, Note_off_c, 1, 67, 0
2, 359320, Note_on_c, 1, 72, 127
2, 359480, Note_off_c, 1, 64, 0
2, 359520, Note_on_c, 1, 55, 127
2, 359520, Note_on_c, 1, 71, 127
2, 359520, Note_off_c, 1, 72, 0
2, 359680, Note_off_c, 1, 55, 0
2, 359680, Note_off_c, 1, 71, 0
2, 359720, Note_on_c, 1, 54, 127
2, 359720, Note_on_c, 1, 70, 127
2, 359840, Note_off_c, 1, 54, 0
2, 359840, Note_off_c, 1, 70, 0
2, 359880, Note_on_c, 1, 52, 127
2, 359880, Note_on_c, 1, 71, 127
2, 360040, Note_off_c, 1, 52, 0
2, 360080, Note_on_c, 1, 58, 127
2, 360080, Note_on_c, 1, 64, 127
2, 360080, Note_off_c, 1, 71, 0
2, 360240, Note_off_c, 1, 58, 0
2, 360280, Note_on_c, 1, 54, 127
2, 360280, Note_off_c, 1, 64, 0
2, 360280, Note_on_c, 1, 70, 127
2, 360400, Note_off_c, 1, 54, 0
2, 360400, Note_off_c, 1, 70, 0
2, 360440, Note_on_c, 1, 55, 127
2, 360440, Note_on_c, 1, 71, 127
2, 360600, Note_off_c, 1, 55, 0
2, 360600, Note_off_c, 1, 71, 0
2, 360640, Note_on_c, 1, 54, 127
2, 360640, Note_on_c, 1, 73, 127
2, 360800, Note_off_c, 1, 54, 0
2, 360800, Note_off_c, 1, 73, 0
2, 360840, Note_on_c, 1, 59, 127
2, 360840, Note_on_c, 1, 74, 127
2, 360960, Note_off_c, 1, 59, 0
2, 360960, Note_off_c, 1, 74, 0
2, 361000, Note_on_c, 1, 52, 127
2, 361000, Note_on_c, 1, 73, 127
2, 361160, Note_off_c, 1, 52, 0
2, 361160, Note_off_c, 1, 73, 0
2, 361200, Note_on_c, 1, 54, 127
2, 361200, Note_on_c, 1, 74, 127
2, 361360, Note_off_c, 1, 54, 0
2, 361360, Note_off_c, 1, 74, 0
2, 361400, Note_on_c, 1, 55, 127
2, 361400, Note_on_c, 1, 71, 127
2, 361520, Note_off_c, 1, 55, 0
2, 361520, Note_off_c, 1, 71, 0
2, 361600, Note_on_c, 1, 46, 127
2, 361600, Note_on_c, 1, 73, 127
2, 361720, Note_off_c, 1, 46, 0
2, 361760, Note_on_c, 1, 46, 127
2, 361920, Note_off_c, 1, 46, 0
2, 361960, Note_on_c, 1, 47, 127
2, 361960, Note_on_c, 1, 66, 127
2, 362000, Note_off_c, 1, 73, 0
2, 362120, Note_off_c, 1, 47, 0
2, 362160, Note_on_c, 1, 49, 127
2, 362240, Note_off_c, 1, 66, 0
2, 362280, Note_off_c, 1, 49, 0
2, 362320, Note_on_c, 1, 50, 127
2, 362320, Note_on_c, 1, 78, 127
2, 362400, Note_off_c, 1, 78, 0
2, 362440, Note_on_c, 1, 76, 127
2, 362480, Note_off_c, 1, 50, 0
2, 362480, Note_off_c, 1, 76, 0
2, 362520, Note_on_c, 1, 50, 127
2, 362520, Note_on_c, 1, 78, 127
2, 362680, Note_off_c, 1, 50, 0
2, 362720, Note_on_c, 1, 52, 127
2, 362840, Note_off_c, 1, 52, 0
2, 362840, Note_off_c, 1, 78, 0
2, 362880, Note_on_c, 1, 54, 127
2, 362880, Note_on_c, 1, 78, 127
2, 363040, Note_off_c, 1, 54, 0
2, 363040, Note_off_c, 1, 78, 0
2, 363080, Note_on_c, 1, 55, 127
2, 363080, Note_on_c, 1, 78, 127
2, 363240, Note_off_c, 1, 78, 0
2, 363280, Note_on_c, 1, 74, 127
2, 363400, Note_off_c, 1, 74, 0
2, 363440, Note_on_c, 1, 73, 127
2, 363600, Note_off_c, 1, 73, 0
2, 363640, Note_on_c, 1, 71, 127
2, 363800, Note_off_c, 1, 71, 0
2, 363840, Note_on_c, 1, 83, 127
2, 363880, Note_off_c, 1, 83, 0
2, 363920, Note_on_c, 1, 81, 127
2, 363960, Note_off_c, 1, 55, 0
2, 363960, Note_off_c, 1, 81, 0
2, 364000, Note_on_c, 1, 52, 127
2, 364000, Note_on_c, 1, 83, 127
2, 364160, Note_off_c, 1, 52, 0
2, 364200, Note_on_c, 1, 54, 127
2, 364360, Note_off_c, 1, 54, 0
2, 364360, Note_off_c, 1, 83, 0
2, 364400, Note_on_c, 1, 55, 127
2, 364400, Note_on_c, 1, 83, 127
2, 364520, Note_off_c, 1, 55, 0
2, 364520, Note_off_c, 1, 83, 0
2, 364560, Note_on_c, 1, 49, 127
2, 364560, Note_on_c, 1, 83, 127
2, 364720, Note_off_c, 1, 49, 0
2, 364720, Note_off_c, 1, 83, 0
2, 364760, Note_on_c, 1, 49, 127
2, 364760, Note_on_c, 1, 79, 127
2, 364920, Note_off_c, 1, 49, 0
2, 364920, Note_off_c, 1, 79, 0
2, 364960, Note_on_c, 1, 50, 127
2, 364960, Note_on_c, 1, 78, 127
2, 365080, Note_off_c, 1, 50, 0
2, 365080, Note_off_c, 1, 78, 0
2, 365160, Note_on_c, 1, 52, 127
2, 365160, Note_on_c, 1, 76, 127
2, 365280, Note_off_c, 1, 52, 0
2, 365320, Note_on_c, 1, 46, 127
2, 365320, Note_on_c, 1, 85, 127
2, 365480, Note_off_c, 1, 46, 0
2, 365520, Note_on_c, 1, 46, 127
2, 365680, Note_off_c, 1, 46, 0
2, 365720, Note_on_c, 1, 47, 127
2, 365880, Note_off_c, 1, 47, 0
2, 365880, Note_off_c, 1, 76, 0
2, 365880, Note_off_c, 1, 85, 0
2, 365920, Note_on_c, 1, 49, 127
2, 365920, Note_on_c, 1, 76, 127
2, 365920, Note_on_c, 1, 85, 127
2, 366080, Note_off_c, 1, 49, 0
2, 366080, Note_off_c, 1, 76, 0
2, 366080, Note_off_c, 1, 85, 0
2, 366120, Note_on_c, 1, 42, 127
2, 366120, Note_on_c, 1, 76, 127
2, 366120, Note_on_c, 1, 85, 127
2, 366280, Note_off_c, 1, 85, 0
2, 366320, Note_on_c, 1, 83, 127
2, 366400, Note_off_c, 1, 83, 0
2, 366440, Note_on_c, 1, 82, 127
2, 366520, Note_off_c, 1, 42, 0
2, 366520, Note_off_c, 1, 76, 0
2, 366520, Note_off_c, 1, 82, 0
2, 366560, Note_on_c, 1, 50, 127
2, 366560, Note_on_c, 1, 74, 127
2, 366560, Note_on_c, 1, 83, 127
2, 366720, Note_off_c, 1, 50, 0
2, 366720, Note_off_c, 1, 74, 0
2, 366720, Note_off_c, 1, 83, 0
2, 366760, Note_on_c, 1, 52, 127
2, 366760, Note_on_c, 1, 73, 127
2, 366760, Note_on_c, 1, 76, 127
2, 366960, Note_off_c, 1, 52, 0
2, 366960, Note_off_c, 1, 73, 0
2, 366960, Note_off_c, 1, 76, 0
2, 367000, Note_on_c, 1, 54, 127
2, 367000, Note_on_c, 1, 71, 127
2, 367000, Note_on_c, 1, 76, 127
2, 367080, Note_off_c, 1, 76, 0
2, 367120, Note_on_c, 1, 74, 127
2, 367160, Note_off_c, 1, 74, 0
2, 367200, Note_on_c, 1, 76, 127
2, 367280, Note_off_c, 1, 76, 0
2, 367320, Note_on_c, 1, 74, 127
2, 367400, Note_off_c, 1, 54, 0
2, 367400, Note_off_c, 1, 71, 0
2, 367400, Note_off_c, 1, 74, 0
2, 367440, Note_on_c, 1, 42, 127
2, 367440, Note_on_c, 1, 70, 127
2, 367440, Note_on_c, 1, 73, 127
2, 367600, Note_off_c, 1, 70, 0
2, 367600, Note_off_c, 1, 73, 0
2, 367640, Note_on_c, 1, 71, 127
2, 367840, Note_off_c, 1, 42, 0
2, 367840, Note_off_c, 1, 71, 0
2, 367880, Note_on_c, 1, 47, 127
2, 367880, Note_on_c, 1, 71, 127
2, 368080, Note_on_c, 1, 69, 127
2, 368240, Note_off_c, 1, 69, 0
2, 368280, Note_on_c, 1, 67, 127
2, 368480, Note_off_c, 1, 67, 0
2, 368520, Note_on_c, 1, 51, 127
2, 368520, Note_on_c, 1, 66, 127
2, 368680, Note_off_c, 1, 51, 0
2, 368680, Note_off_c, 1, 66, 0
2, 368720, Note_on_c, 1, 52, 127
2, 368720, Note_on_c, 1, 67, 127
2, 368880, Note_off_c, 1, 52, 0
2, 368880, Note_off_c, 1, 67, 0
2, 368960, Note_on_c, 1, 54, 127
2, 368960, Note_on_c, 1, 63, 127
2, 369120, Note_off_c, 1, 54, 0
2, 369120, Note_off_c, 1, 63, 0
2, 369160, Note_on_c, 1, 55, 127
2, 369160, Note_on_c, 1, 64, 127
2, 369320, Note_off_c, 1, 55, 0
2, 369360, Note_on_c, 1, 58, 127
2, 369360, Note_on_c, 1, 67, 127
2, 369520, Note_off_c, 1, 47, 0
2, 369520, Note_off_c, 1, 58, 0
2, 369520, Note_off_c, 1, 64, 0
2, 369520, Note_off_c, 1, 67, 0
2, 369600, Note_on_c, 1, 59, 127
2, 369600, Note_on_c, 1, 63, 127
2, 369720, Note_on_c, 1, 66, 127
2, 369800, Note_off_c, 1, 71, 0
2, 369840, Note_on_c, 1, 47, 127
2, 369840, Note_on_c, 1, 71, 127
2, 370080, Note_on_c, 1, 51, 127
2, 370320, Note_off_c, 1, 51, 0
2, 370360, Note_on_c, 1, 54, 127
2, 370600, Note_off_c, 1, 59, 0
2, 370680, Note_off_c, 1, 54, 0
2, 370680, Note_on_c, 1, 59, 127
2, 372680, Note_off_c, 1, 47, 0
2, 372720, Note_off_c, 1, 59, 0
2, 372720, Note_off_c, 1, 63, 0
2, 372720, Note_off_c, 1, 66, 0
2, 372760, Note_off_c, 1, 71, 0
2, 373520, Note_on_c, 1, 71, 127
2, 373840, Note_off_c, 1, 71, 0
2, 373880, Note_on_c, 1, 59, 127
2, 373880, Note_on_c, 1, 62, 127
2, 373880, Note_on_c, 1, 66, 127
2, 373880, Note_on_c, 1, 71, 127
2, 374240, Note_off_c, 1, 59, 0
2, 374280, Note_on_c, 1, 54, 127
2, 374440, Note_off_c, 1, 62, 0
2, 374440, Note_off_c, 1, 66, 0
2, 374440, Note_off_c, 1, 71, 0
2, 374480, Note_on_c, 1, 73, 127
2, 374600, Note_off_c, 1, 54, 0
2, 374600, Note_off_c, 1, 73, 0
2, 374640, Note_on_c, 1, 47, 127
2, 374640, Note_on_c, 1, 74, 127
2, 374800, Note_off_c, 1, 74, 0
2, 374840, Note_on_c, 1, 76, 127
2, 375000, Note_off_c, 1, 47, 0
2, 375000, Note_off_c, 1, 76, 0
2, 375040, Note_on_c, 1, 59, 127
2, 375040, Note_on_c, 1, 78, 127
2, 375200, Note_off_c, 1, 78, 0
2, 375240, Note_on_c, 1, 79, 127
2, 375360, Note_off_c, 1, 59, 0
2, 375360, Note_off_c, 1, 79, 0
2, 375400, Note_on_c, 1, 58, 127
2, 375400, Note_on_c, 1, 78, 127
2, 375560, Note_off_c, 1, 78, 0
2, 375600, Note_on_c, 1, 76, 127
2, 375760, Note_off_c, 1, 58, 0
2, 375760, Note_off_c, 1, 76, 0
2, 375800, Note_on_c, 1, 54, 127
2, 375800, Note_on_c, 1, 74, 127
2, 375960, Note_off_c, 1, 74, 0
2, 376000, Note_on_c, 1, 73, 127
2, 376120, Note_off_c, 1, 54, 0
2, 376120, Note_off_c, 1, 73, 0
2, 376160, Note_on_c, 1, 59, 127
2, 376160, Note_on_c, 1, 74, 127
2, 376240, Note_off_c, 1, 74, 0
2, 376280, Note_on_c, 1, 73, 127
2, 376320, Note_off_c, 1, 59, 0
2, 376320, Note_off_c, 1, 73, 0
2, 376360, Note_on_c, 1, 47, 127
2, 376360, Note_on_c, 1, 74, 127
2, 376520, Note_off_c, 1, 47, 0
2, 376560, Note_on_c, 1, 59, 127
2, 376720, Note_off_c, 1, 59, 0
2, 376720, Note_off_c, 1, 74, 0
2, 376760, Note_on_c, 1, 61, 127
2, 376760, Note_on_c, 1, 73, 127
2, 376880, Note_off_c, 1, 61, 0
2, 376880, Note_off_c, 1, 73, 0
2, 376960, Note_on_c, 1, 62, 127
2, 376960, Note_on_c, 1, 71, 127
2, 377080, Note_off_c, 1, 62, 0
2, 377120, Note_on_c, 1, 64, 127
2, 377280, Note_off_c, 1, 64, 0
2, 377280, Note_off_c, 1, 71, 0
2, 377320, Note_on_c, 1, 66, 127
2, 377320, Note_on_c, 1, 83, 127
2, 377480, Note_off_c, 1, 66, 0
2, 377520, Note_on_c, 1, 67, 127
2, 377680, Note_off_c, 1, 67, 0
2, 377680, Note_off_c, 1, 83, 0
2, 377720, Note_on_c, 1, 66, 127
2, 377720, Note_on_c, 1, 82, 127
2, 377840, Note_off_c, 1, 66, 0
2, 377880, Note_on_c, 1, 64, 127
2, 378040, Note_off_c, 1, 64, 0
2, 378040, Note_off_c, 1, 82, 0
2, 378080, Note_on_c, 1, 62, 127
2, 378080, Note_on_c, 1, 83, 127
2, 378120, Note_off_c, 1, 83, 0
2, 378200, Note_on_c, 1, 82, 127
2, 378240, Note_off_c, 1, 62, 0
2, 378240, Note_off_c, 1, 82, 0
2, 378280, Note_on_c, 1, 61, 127
2, 378280, Note_on_c, 1, 83, 127
2, 378320, Note_off_c, 1, 83, 0
2, 378360, Note_on_c, 1, 85, 127
2, 378440, Note_off_c, 1, 61, 0
2, 378440, Note_off_c, 1, 85, 0
2, 378480, Note_on_c, 1, 62, 127
2, 378480, Note_on_c, 1, 78, 127
2, 378640, Note_on_c, 1, 66, 127
2, 378800, Note_off_c, 1, 66, 0
2, 378840, Note_on_c, 1, 71, 127
2, 379000, Note_off_c, 1, 62, 0
2, 379000, Note_off_c, 1, 78, 0
2, 379040, Note_on_c, 1, 63, 127
2, 379040, Note_on_c, 1, 81, 127
2, 379200, Note_off_c, 1, 63, 0
2, 379200, Note_off_c, 1, 81, 0
2, 379240, Note_on_c, 1, 64, 127
2, 379240, Note_on_c, 1, 79, 127
2, 379400, Note_off_c, 1, 79, 0
2, 379440, Note_on_c, 1, 78, 127
2, 379560, Note_off_c, 1, 64, 0
2, 379560, Note_off_c, 1, 71, 0
2, 379560, Note_off_c, 1, 78, 0
2, 379600, Note_on_c, 1, 61, 127
2, 379600, Note_on_c, 1, 70, 127
2, 379600, Note_on_c, 1, 76, 127
2, 379760, Note_off_c, 1, 76, 0
2, 379800, Note_on_c, 1, 79, 127
2, 379960, Note_off_c, 1, 61, 0
2, 379960, Note_off_c, 1, 70, 0
2, 379960, Note_off_c, 1, 79, 0
2, 380000, Note_on_c, 1, 62, 127
2, 380000, Note_on_c, 1, 71, 127
2, 380000, Note_on_c, 1, 78, 127
2, 380160, Note_off_c, 1, 78, 0
2, 380200, Note_on_c, 1, 76, 127
2, 380320, Note_off_c, 1, 62, 0
2, 380320, Note_off_c, 1, 76, 0
2, 380360, Note_on_c, 1, 64, 127
2, 380360, Note_on_c, 1, 78, 127
2, 380520, Note_off_c, 1, 78, 0
2, 380560, Note_on_c, 1, 79, 127
2, 380720, Note_off_c, 1, 64, 0
2, 380720, Note_off_c, 1, 71, 0
2, 380720, Note_off_c, 1, 79, 0
2, 380760, Note_on_c, 1, 66, 127
2, 380760, Note_on_c, 1, 74, 127
2, 380800, Note_off_c, 1, 74, 0
2, 380840, Note_on_c, 1, 73, 127
2, 380960, Note_on_c, 1, 71, 127
2, 381080, Note_off_c, 1, 71, 0
2, 381160, Note_on_c, 1, 70, 127
2, 381280, Note_off_c, 1, 66, 0
2, 381320, Note_on_c, 1, 66, 127
2, 381480, Note_off_c, 1, 66, 0
2, 381480, Note_off_c, 1, 70, 0
2, 381520, Note_on_c, 1, 64, 127
2, 381560, Note_off_c, 1, 73, 0
2, 381680, Note_off_c, 1, 64, 0
2, 381720, Note_on_c, 1, 62, 127
2, 381880, Note_off_c, 1, 62, 0
2, 381920, Note_on_c, 1, 61, 127
2, 381920, Note_on_c, 1, 70, 127
2, 382040, Note_off_c, 1, 61, 0
2, 382040, Note_off_c, 1, 70, 0
2, 382080, Note_on_c, 1, 64, 127
2, 382080, Note_on_c, 1, 71, 127
2, 382240, Note_off_c, 1, 64, 0
2, 382240, Note_off_c, 1, 71, 0
2, 382280, Note_on_c, 1, 62, 127
2, 382280, Note_on_c, 1, 73, 127
2, 382360, Note_off_c, 1, 73, 0
2, 382400, Note_on_c, 1, 71, 127
2, 382440, Note_off_c, 1, 62, 0
2, 382440, Note_off_c, 1, 71, 0
2, 382480, Note_on_c, 1, 61, 127
2, 382480, Note_on_c, 1, 73, 127
2, 382520, Note_on_c, 1, 71, 127
2, 382520, Note_off_c, 1, 73, 0
2, 382560, Note_off_c, 1, 71, 0
2, 382600, Note_on_c, 1, 73, 127
2, 382640, Note_off_c, 1, 61, 0
2, 382640, Note_off_c, 1, 73, 0
2, 382680, Note_on_c, 1, 62, 127
2, 382680, Note_on_c, 1, 71, 127
2, 382720, Note_off_c, 1, 71, 0
2, 382760, Note_on_c, 1, 73, 127
2, 382800, Note_off_c, 1, 62, 0
2, 382800, Note_off_c, 1, 73, 0
2, 382840, Note_on_c, 1, 64, 127
2, 382840, Note_on_c, 1, 71, 127
2, 382880, Note_off_c, 1, 71, 0
2, 382920, Note_on_c, 1, 70, 127
2, 382960, Note_off_c, 1, 70, 0
2, 382960, Note_on_c, 1, 71, 127
2, 383000, Note_off_c, 1, 64, 0
2, 383000, Note_off_c, 1, 71, 0
2, 383040, Note_on_c, 1, 58, 127
2, 383040, Note_on_c, 1, 73, 127
2, 383200, Note_off_c, 1, 58, 0
2, 383240, Note_on_c, 1, 61, 127
2, 383400, Note_off_c, 1, 61, 0
2, 383440, Note_on_c, 1, 59, 127
2, 383520, Note_off_c, 1, 73, 0
2, 383560, Note_off_c, 1, 59, 0
2, 383640, Note_on_c, 1, 58, 127
2, 383640, Note_on_c, 1, 74, 127
2, 383760, Note_off_c, 1, 58, 0
2, 383760, Note_off_c, 1, 74, 0
2, 383800, Note_on_c, 1, 56, 127
2, 383800, Note_on_c, 1, 76, 127
2, 383960, Note_off_c, 1, 56, 0
2, 383960, Note_off_c, 1, 76, 0
2, 384000, Note_on_c, 1, 54, 127
2, 384000, Note_on_c, 1, 73, 127
2, 384160, Note_off_c, 1, 54, 0
2, 384160, Note_off_c, 1, 73, 0
2, 384200, Note_on_c, 1, 59, 127
2, 384200, Note_on_c, 1, 74, 127
2, 384360, Note_off_c, 1, 59, 0
2, 384360, Note_off_c, 1, 74, 0
2, 384400, Note_on_c, 1, 57, 127
2, 384400, Note_on_c, 1, 76, 127
2, 384520, Note_off_c, 1, 57, 0
2, 384520, Note_off_c, 1, 76, 0
2, 384560, Note_on_c, 1, 55, 127
2, 384560, Note_on_c, 1, 78, 127
2, 384640, Note_off_c, 1, 78, 0
2, 384680, Note_on_c, 1, 76, 127
2, 384720, Note_off_c, 1, 55, 0
2, 384720, Note_off_c, 1, 76, 0
2, 384760, Note_on_c, 1, 54, 127
2, 384760, Note_on_c, 1, 78, 127
2, 384800, Note_off_c, 1, 78, 0
2, 384840, Note_on_c, 1, 76, 127
2, 384880, Note_off_c, 1, 76, 0
2, 384920, Note_off_c, 1, 54, 0
2, 384920, Note_on_c, 1, 78, 127
2, 384960, Note_on_c, 1, 55, 127
2, 384960, Note_off_c, 1, 78, 0
2, 385000, Note_on_c, 1, 76, 127
2, 385040, Note_off_c, 1, 76, 0
2, 385040, Note_on_c, 1, 78, 127
2, 385080, Note_off_c, 1, 78, 0
2, 385120, Note_off_c, 1, 55, 0
2, 385120, Note_on_c, 1, 76, 127
2, 385160, Note_on_c, 1, 57, 127
2, 385160, Note_off_c, 1, 76, 0
2, 385200, Note_on_c, 1, 74, 127
2, 385240, Note_off_c, 1, 74, 0
2, 385280, Note_off_c, 1, 57, 0
2, 385280, Note_on_c, 1, 76, 127
2, 385320, Note_on_c, 1, 50, 127
2, 385320, Note_off_c, 1, 76, 0
2, 385320, Note_on_c, 1, 78, 127
2, 385480, Note_off_c, 1, 50, 0
2, 385520, Note_on_c, 1, 55, 127
2, 385680, Note_off_c, 1, 55, 0
2, 385720, Note_on_c, 1, 54, 127
2, 385800, Note_off_c, 1, 78, 0
2, 385880, Note_off_c, 1, 54, 0
2, 385920, Note_on_c, 1, 52, 127
2, 385920, Note_on_c, 1, 79, 127
2, 386040, Note_off_c, 1, 52, 0
2, 386040, Note_off_c, 1, 79, 0
2, 386080, Note_on_c, 1, 50, 127
2, 386080, Note_on_c, 1, 81, 127
2, 386240, Note_off_c, 1, 50, 0
2, 386240, Note_off_c, 1, 81, 0
2, 386280, Note_on_c, 1, 48, 127
2, 386280, Note_on_c, 1, 78, 127
2, 386440, Note_off_c, 1, 48, 0
2, 386440, Note_off_c, 1, 78, 0
2, 386480, Note_on_c, 1, 47, 127
2, 386480, Note_on_c, 1, 79, 127
2, 386640, Note_off_c, 1, 47, 0
2, 386640, Note_off_c, 1, 79, 0
2, 386680, Note_on_c, 1, 50, 127
2, 386680, Note_on_c, 1, 81, 127
2, 386840, Note_off_c, 1, 50, 0
2, 386840, Note_off_c, 1, 81, 0
2, 386880, Note_on_c, 1, 48, 127
2, 386880, Note_on_c, 1, 83, 127
2, 386920, Note_off_c, 1, 83, 0
2, 386960, Note_on_c, 1, 81, 127
2, 387000, Note_off_c, 1, 48, 0
2, 387000, Note_off_c, 1, 81, 0
2, 387040, Note_on_c, 1, 47, 127
2, 387040, Note_on_c, 1, 83, 127
2, 387080, Note_off_c, 1, 83, 0
2, 387120, Note_on_c, 1, 81, 127
2, 387160, Note_off_c, 1, 81, 0
2, 387200, Note_off_c, 1, 47, 0
2, 387200, Note_on_c, 1, 83, 127
2, 387240, Note_on_c, 1, 48, 127
2, 387240, Note_off_c, 1, 83, 0
2, 387280, Note_on_c, 1, 81, 127
2, 387320, Note_off_c, 1, 81, 0
2, 387360, Note_on_c, 1, 83, 127
2, 387400, Note_off_c, 1, 48, 0
2, 387400, Note_on_c, 1, 81, 127
2, 387400, Note_off_c, 1, 83, 0
2, 387440, Note_on_c, 1, 50, 127
2, 387440, Note_off_c, 1, 81, 0
2, 387480, Note_on_c, 1, 79, 127
2, 387520, Note_off_c, 1, 79, 0
2, 387560, Note_on_c, 1, 81, 127
2, 387600, Note_off_c, 1, 50, 0
2, 387600, Note_off_c, 1, 81, 0
2, 387640, Note_on_c, 1, 43, 127
2, 387640, Note_on_c, 1, 83, 127
2, 387760, Note_off_c, 1, 83, 0
2, 387800, Note_on_c, 1, 84, 127
2, 387960, Note_off_c, 1, 43, 0
2, 387960, Note_off_c, 1, 84, 0
2, 388000, Note_on_c, 1, 55, 127
2, 388000, Note_on_c, 1, 83, 127
2, 388160, Note_off_c, 1, 55, 0
2, 388160, Note_off_c, 1, 83, 0
2, 388200, Note_on_c, 1, 57, 127
2, 388200, Note_on_c, 1, 81, 127
2, 388360, Note_off_c, 1, 57, 0
2, 388360, Note_off_c, 1, 81, 0
2, 388400, Note_on_c, 1, 59, 127
2, 388400, Note_on_c, 1, 79, 127
2, 388520, Note_off_c, 1, 59, 0
2, 388520, Note_off_c, 1, 79, 0
2, 388560, Note_on_c, 1, 57, 127
2, 388560, Note_on_c, 1, 78, 127
2, 388720, Note_off_c, 1, 57, 0
2, 388720, Note_off_c, 1, 78, 0
2, 388760, Note_on_c, 1, 55, 127
2, 388760, Note_on_c, 1, 76, 127
2, 388920, Note_off_c, 1, 55, 0
2, 388920, Note_off_c, 1, 76, 0
2, 388960, Note_on_c, 1, 54, 127
2, 388960, Note_on_c, 1, 74, 127
2, 389080, Note_off_c, 1, 74, 0
2, 389120, Note_off_c, 1, 54, 0
2, 389160, Note_on_c, 1, 52, 127
2, 389160, Note_on_c, 1, 79, 127
2, 389200, Note_off_c, 1, 79, 0
2, 389240, Note_on_c, 1, 78, 127
2, 389280, Note_off_c, 1, 52, 0
2, 389280, Note_off_c, 1, 78, 0
2, 389360, Note_on_c, 1, 50, 127
2, 389360, Note_on_c, 1, 79, 127
2, 389480, Note_off_c, 1, 50, 0
2, 389520, Note_on_c, 1, 49, 127
2, 389680, Note_off_c, 1, 49, 0
2, 389680, Note_off_c, 1, 79, 0
2, 389720, Note_on_c, 1, 47, 127
2, 389720, Note_on_c, 1, 79, 127
2, 389880, Note_off_c, 1, 47, 0
2, 389880, Note_off_c, 1, 79, 0
2, 389920, Note_on_c, 1, 49, 127
2, 389920, Note_on_c, 1, 69, 127
2, 390000, Note_on_c, 1, 76, 127
2, 390080, Note_off_c, 1, 49, 0
2, 390120, Note_on_c, 1, 45, 127
2, 390120, Note_on_c, 1, 79, 127
2, 390240, Note_off_c, 1, 45, 0
2, 390280, Note_on_c, 1, 47, 127
2, 390440, Note_off_c, 1, 47, 0
2, 390440, Note_off_c, 1, 69, 0
2, 390440, Note_off_c, 1, 76, 0
2, 390440, Note_off_c, 1, 79, 0
2, 390480, Note_on_c, 1, 49, 127
2, 390480, Note_on_c, 1, 76, 127
2, 390640, Note_off_c, 1, 49, 0
2, 390640, Note_off_c, 1, 76, 0
2, 390680, Note_on_c, 1, 50, 127
2, 390680, Note_on_c, 1, 78, 127
2, 390840, Note_off_c, 1, 50, 0
2, 390840, Note_off_c, 1, 78, 0
2, 390880, Note_on_c, 1, 52, 127
2, 390880, Note_on_c, 1, 79, 127
2, 391000, Note_off_c, 1, 52, 0
2, 391000, Note_off_c, 1, 79, 0
2, 391040, Note_on_c, 1, 54, 127
2, 391040, Note_on_c, 1, 81, 127
2, 391200, Note_off_c, 1, 54, 0
2, 391200, Note_off_c, 1, 81, 0
2, 391240, Note_on_c, 1, 55, 127
2, 391240, Note_on_c, 1, 83, 127
2, 391400, Note_off_c, 1, 55, 0
2, 391400, Note_off_c, 1, 83, 0
2, 391440, Note_on_c, 1, 57, 127
2, 391440, Note_on_c, 1, 81, 127
2, 391600, Note_off_c, 1, 81, 0
2, 391640, Note_on_c, 1, 79, 127
2, 391760, Note_off_c, 1, 57, 0
2, 391760, Note_off_c, 1, 79, 0
2, 391800, Note_on_c, 1, 45, 127
2, 391800, Note_on_c, 1, 78, 127
2, 391960, Note_off_c, 1, 78, 0
2, 392000, Note_on_c, 1, 76, 127
2, 392160, Note_off_c, 1, 45, 0
2, 392160, Note_off_c, 1, 76, 0
2, 392200, Note_on_c, 1, 50, 127
2, 392200, Note_on_c, 1, 78, 127
2, 392240, Note_off_c, 1, 78, 0
2, 392280, Note_on_c, 1, 76, 127
2, 392360, Note_off_c, 1, 76, 0
2, 392400, Note_on_c, 1, 57, 127
2, 392400, Note_on_c, 1, 78, 127
2, 392560, Note_off_c, 1, 57, 0
2, 392600, Note_on_c, 1, 62, 127
2, 392720, Note_off_c, 1, 50, 0
2, 392720, Note_off_c, 1, 78, 0
2, 392760, Note_on_c, 1, 52, 127
2, 392760, Note_on_c, 1, 76, 127
2, 392920, Note_off_c, 1, 52, 0
2, 392920, Note_off_c, 1, 62, 0
2, 392920, Note_off_c, 1, 76, 0
2, 392960, Note_on_c, 1, 54, 127
2, 392960, Note_on_c, 1, 74, 127
2, 393120, Note_off_c, 1, 74, 0
2, 393160, Note_on_c, 1, 78, 127
2, 393320, Note_off_c, 1, 54, 0
2, 393320, Note_off_c, 1, 78, 0
2, 393360, Note_on_c, 1, 55, 127
2, 393360, Note_on_c, 1, 76, 127
2, 393480, Note_off_c, 1, 76, 0
2, 393520, Note_on_c, 1, 74, 127
2, 393680, Note_off_c, 1, 55, 0
2, 393680, Note_off_c, 1, 74, 0
2, 393720, Note_on_c, 1, 57, 127
2, 393720, Note_on_c, 1, 73, 127
2, 393880, Note_off_c, 1, 73, 0
2, 393920, Note_on_c, 1, 71, 127
2, 394080, Note_off_c, 1, 57, 0
2, 394080, Note_off_c, 1, 71, 0
2, 394120, Note_on_c, 1, 59, 127
2, 394120, Note_on_c, 1, 73, 127
2, 394240, Note_off_c, 1, 73, 0
2, 394280, Note_on_c, 1, 74, 127
2, 394440, Note_off_c, 1, 59, 0
2, 394440, Note_off_c, 1, 74, 0
2, 394480, Note_on_c, 1, 61, 127
2, 394480, Note_on_c, 1, 69, 127
2, 394640, Note_off_c, 1, 61, 0
2, 394680, Note_on_c, 1, 62, 127
2, 394840, Note_off_c, 1, 62, 0
2, 394840, Note_off_c, 1, 69, 0
2, 394880, Note_on_c, 1, 64, 127
2, 394880, Note_on_c, 1, 67, 127
2, 394920, Note_off_c, 1, 67, 0
2, 394920, Note_on_c, 1, 69, 127
2, 394960, Note_off_c, 1, 69, 0
2, 395000, Note_on_c, 1, 67, 127
2, 395040, Note_off_c, 1, 64, 0
2, 395040, Note_off_c, 1, 67, 0
2, 395080, Note_on_c, 1, 62, 127
2, 395080, Note_on_c, 1, 66, 127
2, 395200, Note_off_c, 1, 62, 0
2, 395200, Note_off_c, 1, 66, 0
2, 395240, Note_on_c, 1, 61, 127
2, 395240, Note_on_c, 1, 67, 127
2, 395400, Note_off_c, 1, 61, 0
2, 395400, Note_off_c, 1, 67, 0
2, 395440, Note_on_c, 1, 59, 127
2, 395440, Note_on_c, 1, 64, 127
2, 395600, Note_off_c, 1, 59, 0
2, 395600, Note_off_c, 1, 64, 0
2, 395640, Note_on_c, 1, 57, 127
2, 395640, Note_on_c, 1, 66, 127
2, 395800, Note_off_c, 1, 57, 0
2, 395800, Note_off_c, 1, 66, 0
2, 395840, Note_on_c, 1, 55, 127
2, 395840, Note_on_c, 1, 67, 127
2, 395960, Note_off_c, 1, 55, 0
2, 395960, Note_off_c, 1, 67, 0
2, 396000, Note_on_c, 1, 54, 127
2, 396000, Note_on_c, 1, 69, 127
2, 396160, Note_off_c, 1, 54, 0
2, 396160, Note_off_c, 1, 69, 0
2, 396200, Note_on_c, 1, 50, 127
2, 396200, Note_on_c, 1, 71, 127
2, 396360, Note_off_c, 1, 50, 0
2, 396360, Note_off_c, 1, 71, 0
2, 396400, Note_on_c, 1, 52, 127
2, 396400, Note_on_c, 1, 72, 127
2, 396560, Note_off_c, 1, 52, 0
2, 396560, Note_off_c, 1, 72, 0
2, 396600, Note_on_c, 1, 54, 127
2, 396600, Note_on_c, 1, 69, 127
2, 396720, Note_off_c, 1, 54, 0
2, 396720, Note_off_c, 1, 69, 0
2, 396760, Note_on_c, 1, 55, 127
2, 396760, Note_on_c, 1, 71, 127
2, 396920, Note_off_c, 1, 55, 0
2, 396960, Note_on_c, 1, 54, 127
2, 397120, Note_off_c, 1, 54, 0
2, 397160, Note_on_c, 1, 55, 127
2, 397320, Note_off_c, 1, 55, 0
2, 397320, Note_off_c, 1, 71, 0
2, 397360, Note_on_c, 1, 57, 127
2, 397360, Note_on_c, 1, 69, 127
2, 397480, Note_off_c, 1, 57, 0
2, 397480, Note_off_c, 1, 69, 0
2, 397560, Note_on_c, 1, 59, 127
2, 397560, Note_on_c, 1, 67, 127
2, 397680, Note_off_c, 1, 67, 0
2, 397720, Note_on_c, 1, 66, 127
2, 397880, Note_off_c, 1, 59, 0
2, 397880, Note_off_c, 1, 66, 0
2, 397920, Note_on_c, 1, 55, 127
2, 397920, Note_on_c, 1, 64, 127
2, 398080, Note_off_c, 1, 64, 0
2, 398120, Note_on_c, 1, 76, 127
2, 398280, Note_off_c, 1, 55, 0
2, 398280, Note_off_c, 1, 76, 0
2, 398320, Note_on_c, 1, 57, 127
2, 398320, Note_on_c, 1, 74, 127
2, 398440, Note_off_c, 1, 74, 0
2, 398480, Note_on_c, 1, 73, 127
2, 398520, Note_off_c, 1, 73, 0
2, 398560, Note_on_c, 1, 74, 127
2, 398600, Note_on_c, 1, 73, 127
2, 398600, Note_off_c, 1, 74, 0
2, 398640, Note_off_c, 1, 57, 0
2, 398680, Note_on_c, 1, 45, 127
2, 398680, Note_off_c, 1, 73, 0
2, 398680, Note_on_c, 1, 74, 127
2, 398760, Note_on_c, 1, 73, 127
2, 398760, Note_off_c, 1, 74, 0
2, 398840, Note_off_c, 1, 73, 0
2, 398880, Note_on_c, 1, 74, 127
2, 399040, Note_off_c, 1, 45, 0
2, 399040, Note_off_c, 1, 74, 0
2, 399080, Note_on_c, 1, 50, 127
2, 399080, Note_on_c, 1, 74, 127
2, 399440, Note_on_c, 1, 38, 127
2, 399800, Note_off_c, 1, 50, 0
2, 399840, Note_on_c, 1, 45, 127
2, 400160, Note_off_c, 1, 45, 0
2, 400200, Note_on_c, 1, 50, 127
2, 400200, Note_on_c, 1, 66, 127
2, 400200, Note_on_c, 1, 69, 127
2, 400920, Note_off_c, 1, 38, 0
2, 400960, Note_off_c, 1, 66, 0
2, 400960, Note_off_c, 1, 69, 0
2, 400960, Note_off_c, 1, 74, 0
2, 401160, Note_on_c, 1, 78, 127
2, 401320, Note_off_c, 1, 50, 0
2, 401320, Note_off_c, 1, 78, 0
2, 401360, Note_on_c, 1, 50, 127
2, 401360, Note_on_c, 1, 69, 127
2, 401360, Note_on_c, 1, 74, 127
2, 401360, Note_on_c, 1, 78, 127
2, 401720, Note_off_c, 1, 50, 0
2, 401760, Note_on_c, 1, 52, 127
2, 401880, Note_off_c, 1, 69, 0
2, 401880, Note_off_c, 1, 74, 0
2, 401880, Note_off_c, 1, 78, 0
2, 401960, Note_on_c, 1, 76, 127
2, 402080, Note_off_c, 1, 52, 0
2, 402080, Note_off_c, 1, 76, 0
2, 402120, Note_on_c, 1, 54, 127
2, 402120, Note_on_c, 1, 74, 127
2, 402280, Note_off_c, 1, 74, 0
2, 402320, Note_on_c, 1, 73, 127
2, 402480, Note_off_c, 1, 54, 0
2, 402480, Note_off_c, 1, 73, 0
2, 402520, Note_on_c, 1, 50, 127
2, 402520, Note_on_c, 1, 71, 127
2, 402680, Note_off_c, 1, 71, 0
2, 402720, Note_on_c, 1, 69, 127
2, 402840, Note_off_c, 1, 50, 0
2, 402840, Note_off_c, 1, 69, 0
2, 402880, Note_on_c, 1, 52, 127
2, 402880, Note_on_c, 1, 68, 127
2, 403040, Note_off_c, 1, 68, 0
2, 403080, Note_on_c, 1, 70, 127
2, 403240, Note_off_c, 1, 52, 0
2, 403240, Note_off_c, 1, 70, 0
2, 403280, Note_on_c, 1, 49, 127
2, 403280, Note_on_c, 1, 71, 127
2, 403440, Note_off_c, 1, 71, 0
2, 403480, Note_on_c, 1, 73, 127
2, 403600, Note_off_c, 1, 49, 0
2, 403600, Note_off_c, 1, 73, 0
2, 403640, Note_on_c, 1, 54, 127
2, 403640, Note_on_c, 1, 71, 127
2, 403800, Note_off_c, 1, 54, 0
2, 403840, Note_on_c, 1, 52, 127
2, 403840, Note_on_c, 1, 70, 127
2, 403840, Note_off_c, 1, 71, 0
2, 403880, Note_off_c, 1, 70, 0
2, 403920, Note_on_c, 1, 71, 127
2, 403960, Note_off_c, 1, 71, 0
2, 404000, Note_off_c, 1, 52, 0
2, 404000, Note_on_c, 1, 70, 127
2, 404040, Note_on_c, 1, 55, 127
2, 404040, Note_off_c, 1, 70, 0
2, 404040, Note_on_c, 1, 71, 127
2, 404080, Note_off_c, 1, 71, 0
2, 404120, Note_on_c, 1, 70, 127
2, 404200, Note_off_c, 1, 55, 0
2, 404200, Note_off_c, 1, 70, 0
2, 404240, Note_on_c, 1, 54, 127
2, 404240, Note_on_c, 1, 71, 127
2, 404360, Note_off_c, 1, 54, 0
2, 404360, Note_off_c, 1, 71, 0
2, 404400, Note_on_c, 1, 52, 127
2, 404400, Note_on_c, 1, 73, 127
2, 404560, Note_off_c, 1, 52, 0
2, 404600, Note_on_c, 1, 50, 127
2, 404760, Note_off_c, 1, 50, 0
2, 404760, Note_off_c, 1, 73, 0
2, 404800, Note_on_c, 1, 49, 127
2, 404800, Note_on_c, 1, 66, 127
2, 404960, Note_off_c, 1, 49, 0
2, 405000, Note_on_c, 1, 47, 127
2, 405120, Note_off_c, 1, 47, 0
2, 405120, Note_off_c, 1, 66, 0
2, 405200, Note_on_c, 1, 46, 127
2, 405200, Note_on_c, 1, 73, 127
2, 405240, Note_off_c, 1, 73, 0
2, 405280, Note_on_c, 1, 74, 127
2, 405320, Note_off_c, 1, 46, 0
2, 405320, Note_off_c, 1, 74, 0
2, 405360, Note_on_c, 1, 44, 127
2, 405360, Note_on_c, 1, 76, 127
2, 405520, Note_off_c, 1, 44, 0
2, 405520, Note_off_c, 1, 76, 0
2, 405560, Note_on_c, 1, 46, 127
2, 405560, Note_on_c, 1, 74, 127
2, 405720, Note_off_c, 1, 46, 0
2, 405720, Note_off_c, 1, 74, 0
2, 405760, Note_on_c, 1, 42, 127
2, 405760, Note_on_c, 1, 73, 127
2, 405920, Note_off_c, 1, 42, 0
2, 405920, Note_off_c, 1, 73, 0
2, 405960, Note_on_c, 1, 47, 127
2, 405960, Note_on_c, 1, 74, 127
2, 406000, Note_off_c, 1, 74, 0
2, 406040, Note_on_c, 1, 73, 127
2, 406080, Note_off_c, 1, 47, 0
2, 406080, Note_off_c, 1, 73, 0
2, 406120, Note_on_c, 1, 46, 127
2, 406120, Note_on_c, 1, 74, 127
2, 406280, Note_off_c, 1, 46, 0
2, 406320, Note_on_c, 1, 47, 127
2, 406480, Note_off_c, 1, 47, 0
2, 406480, Note_off_c, 1, 74, 0
2, 406520, Note_on_c, 1, 49, 127
2, 406520, Note_on_c, 1, 73, 127
2, 406680, Note_off_c, 1, 49, 0
2, 406680, Note_off_c, 1, 73, 0
2, 406720, Note_on_c, 1, 50, 127
2, 406720, Note_on_c, 1, 71, 127
2, 406840, Note_off_c, 1, 50, 0
2, 406840, Note_off_c, 1, 71, 0
2, 406880, Note_on_c, 1, 52, 127
2, 406880, Note_on_c, 1, 73, 127
2, 407040, Note_off_c, 1, 52, 0
2, 407040, Note_off_c, 1, 73, 0
2, 407080, Note_on_c, 1, 54, 127
2, 407080, Note_on_c, 1, 74, 127
2, 407240, Note_off_c, 1, 54, 0
2, 407240, Note_off_c, 1, 74, 0
2, 407280, Note_on_c, 1, 55, 127
2, 407280, Note_on_c, 1, 76, 127
2, 407440, Note_off_c, 1, 55, 0
2, 407440, Note_off_c, 1, 76, 0
2, 407480, Note_on_c, 1, 57, 127
2, 407480, Note_on_c, 1, 78, 127
2, 407600, Note_off_c, 1, 57, 0
2, 407600, Note_off_c, 1, 78, 0
2, 407640, Note_on_c, 1, 59, 127
2, 407640, Note_on_c, 1, 79, 127
2, 407800, Note_off_c, 1, 59, 0
2, 407800, Note_off_c, 1, 79, 0
2, 407840, Note_on_c, 1, 60, 127
2, 407840, Note_on_c, 1, 81, 127
2, 408000, Note_off_c, 1, 60, 0
2, 408000, Note_off_c, 1, 81, 0
2, 408040, Note_on_c, 1, 57, 127
2, 408040, Note_on_c, 1, 78, 127
2, 408200, Note_off_c, 1, 57, 0
2, 408200, Note_off_c, 1, 78, 0
2, 408240, Note_on_c, 1, 59, 127
2, 408240, Note_on_c, 1, 76, 127
2, 408360, Note_off_c, 1, 59, 0
2, 408440, Note_on_c, 1, 57, 127
2, 408440, Note_on_c, 1, 75, 127
2, 408440, Note_off_c, 1, 76, 0
2, 408480, Note_off_c, 1, 75, 0
2, 408520, Note_on_c, 1, 76, 127
2, 408560, Note_off_c, 1, 57, 0
2, 408560, Note_on_c, 1, 75, 127
2, 408560, Note_off_c, 1, 76, 0
2, 408600, Note_on_c, 1, 60, 127
2, 408640, Note_off_c, 1, 75, 0
2, 408640, Note_on_c, 1, 76, 127
2, 408680, Note_off_c, 1, 76, 0
2, 408720, Note_on_c, 1, 75, 127
2, 408760, Note_off_c, 1, 60, 0
2, 408760, Note_off_c, 1, 75, 0
2, 408800, Note_on_c, 1, 59, 127
2, 408800, Note_on_c, 1, 76, 127
2, 408960, Note_off_c, 1, 59, 0
2, 408960, Note_off_c, 1, 76, 0
2, 409000, Note_on_c, 1, 57, 127
2, 409000, Note_on_c, 1, 78, 127
2, 409160, Note_off_c, 1, 57, 0
2, 409200, Note_on_c, 1, 55, 127
2, 409320, Note_off_c, 1, 55, 0
2, 409320, Note_off_c, 1, 78, 0
2, 409360, Note_on_c, 1, 54, 127
2, 409360, Note_on_c, 1, 83, 127
2, 409520, Note_off_c, 1, 54, 0
2, 409560, Note_on_c, 1, 52, 127
2, 409720, Note_off_c, 1, 52, 0
2, 409760, Note_on_c, 1, 51, 127
2, 409920, Note_off_c, 1, 51, 0
2, 409920, Note_off_c, 1, 83, 0
2, 409960, Note_on_c, 1, 49, 127
2, 409960, Note_on_c, 1, 81, 127
2, 410080, Note_off_c, 1, 49, 0
2, 410080, Note_off_c, 1, 81, 0
2, 410120, Note_on_c, 1, 51, 127
2, 410120, Note_on_c, 1, 79, 127
2, 410280, Note_off_c, 1, 51, 0
2, 410280, Note_off_c, 1, 79, 0
2, 410320, Note_on_c, 1, 47, 127
2, 410320, Note_on_c, 1, 78, 127
2, 410480, Note_off_c, 1, 47, 0
2, 410480, Note_off_c, 1, 78, 0
2, 410520, Note_on_c, 1, 52, 127
2, 410520, Note_on_c, 1, 81, 127
2, 410560, Note_off_c, 1, 81, 0
2, 410600, Note_on_c, 1, 79, 127
2, 410680, Note_off_c, 1, 79, 0
2, 410720, Note_on_c, 1, 78, 127
2, 410840, Note_off_c, 1, 52, 0
2, 410840, Note_off_c, 1, 78, 0
2, 410880, Note_on_c, 1, 60, 127
2, 410880, Note_on_c, 1, 79, 127
2, 411040, Note_off_c, 1, 79, 0
2, 411080, Note_on_c, 1, 81, 127
2, 411240, Note_off_c, 1, 60, 0
2, 411240, Note_off_c, 1, 81, 0
2, 411280, Note_on_c, 1, 55, 127
2, 411280, Note_on_c, 1, 83, 127
2, 411640, Note_off_c, 1, 55, 0
2, 411640, Note_off_c, 1, 83, 0
2, 411680, Note_on_c, 1, 57, 127
2, 411680, Note_on_c, 1, 76, 127
2, 411800, Note_off_c, 1, 76, 0
2, 411840, Note_on_c, 1, 78, 127
2, 412000, Note_off_c, 1, 57, 0
2, 412000, Note_off_c, 1, 78, 0
2, 412040, Note_on_c, 1, 59, 127
2, 412040, Note_on_c, 1, 81, 127
2, 412200, Note_off_c, 1, 81, 0
2, 412240, Note_on_c, 1, 79, 127
2, 412400, Note_off_c, 1, 59, 0
2, 412400, Note_off_c, 1, 79, 0
2, 412440, Note_on_c, 1, 47, 127
2, 412440, Note_on_c, 1, 78, 127
2, 412560, Note_off_c, 1, 78, 0
2, 412600, Note_on_c, 1, 76, 127
2, 412760, Note_off_c, 1, 47, 0
2, 412760, Note_off_c, 1, 76, 0
2, 412800, Note_on_c, 1, 40, 127
2, 412800, Note_on_c, 1, 76, 127
2, 412880, Note_off_c, 1, 76, 0
2, 412920, Note_on_c, 1, 75, 127
2, 412960, Note_off_c, 1, 75, 0
2, 413000, Note_on_c, 1, 76, 127
2, 413160, Note_off_c, 1, 40, 0
2, 413200, Note_on_c, 1, 59, 127
2, 413320, Note_off_c, 1, 59, 0
2, 413360, Note_on_c, 1, 57, 127
2, 413520, Note_off_c, 1, 57, 0
2, 413560, Note_on_c, 1, 55, 127
2, 413720, Note_off_c, 1, 55, 0
2, 413760, Note_on_c, 1, 54, 127
2, 413920, Note_off_c, 1, 54, 0
2, 413920, Note_off_c, 1, 76, 0
2, 413960, Note_on_c, 1, 52, 127
2, 413960, Note_on_c, 1, 79, 127
2, 414080, Note_off_c, 1, 52, 0
2, 414080, Note_off_c, 1, 79, 0
2, 414160, Note_on_c, 1, 50, 127
2, 414160, Note_on_c, 1, 78, 127
2, 414280, Note_off_c, 1, 50, 0
2, 414280, Note_off_c, 1, 78, 0
2, 414320, Note_on_c, 1, 49, 127
2, 414320, Note_on_c, 1, 76, 127
2, 414480, Note_off_c, 1, 49, 0
2, 414480, Note_off_c, 1, 76, 0
2, 414520, Note_on_c, 1, 47, 127
2, 414520, Note_on_c, 1, 74, 127
2, 414680, Note_off_c, 1, 47, 0
2, 414680, Note_off_c, 1, 74, 0
2, 414720, Note_on_c, 1, 45, 127
2, 414720, Note_on_c, 1, 76, 127
2, 414880, Note_off_c, 1, 45, 0
2, 414880, Note_off_c, 1, 76, 0
2, 414920, Note_on_c, 1, 43, 127
2, 414920, Note_on_c, 1, 73, 127
2, 415040, Note_off_c, 1, 43, 0
2, 415040, Note_off_c, 1, 73, 0
2, 415080, Note_on_c, 1, 42, 127
2, 415080, Note_on_c, 1, 81, 127
2, 415120, Note_off_c, 1, 81, 0
2, 415200, Note_on_c, 1, 79, 127
2, 415240, Note_off_c, 1, 42, 0
2, 415240, Note_off_c, 1, 79, 0
2, 415280, Note_on_c, 1, 45, 127
2, 415280, Note_on_c, 1, 81, 127
2, 415440, Note_off_c, 1, 45, 0
2, 415480, Note_on_c, 1, 47, 127
2, 415640, Note_off_c, 1, 47, 0
2, 415640, Note_off_c, 1, 81, 0
2, 415680, Note_on_c, 1, 49, 127
2, 415680, Note_on_c, 1, 79, 127
2, 415800, Note_off_c, 1, 49, 0
2, 415800, Note_off_c, 1, 79, 0
2, 415840, Note_on_c, 1, 50, 127
2, 415840, Note_on_c, 1, 78, 127
2, 416000, Note_off_c, 1, 50, 0
2, 416000, Note_off_c, 1, 78, 0
2, 416040, Note_on_c, 1, 52, 127
2, 416040, Note_on_c, 1, 76, 127
2, 416200, Note_off_c, 1, 52, 0
2, 416200, Note_off_c, 1, 76, 0
2, 416240, Note_on_c, 1, 54, 127
2, 416240, Note_on_c, 1, 74, 127
2, 416400, Note_off_c, 1, 54, 0
2, 416400, Note_off_c, 1, 74, 0
2, 416440, Note_on_c, 1, 56, 127
2, 416440, Note_on_c, 1, 73, 127
2, 416560, Note_off_c, 1, 56, 0
2, 416560, Note_off_c, 1, 73, 0
2, 416600, Note_on_c, 1, 57, 127
2, 416600, Note_on_c, 1, 74, 127
2, 416760, Note_off_c, 1, 57, 0
2, 416760, Note_off_c, 1, 74, 0
2, 416800, Note_on_c, 1, 56, 127
2, 416800, Note_on_c, 1, 71, 127
2, 416960, Note_off_c, 1, 56, 0
2, 416960, Note_off_c, 1, 71, 0
2, 417000, Note_on_c, 1, 54, 127
2, 417000, Note_on_c, 1, 76, 127
2, 417160, Note_off_c, 1, 54, 0
2, 417200, Note_on_c, 1, 52, 127
2, 417360, Note_off_c, 1, 52, 0
2, 417360, Note_off_c, 1, 76, 0
2, 417400, Note_on_c, 1, 57, 127
2, 417400, Note_on_c, 1, 74, 127
2, 417520, Note_off_c, 1, 74, 0
2, 417560, Note_on_c, 1, 73, 127
2, 417720, Note_off_c, 1, 57, 0
2, 417720, Note_off_c, 1, 73, 0
2, 417760, Note_on_c, 1, 55, 127
2, 417760, Note_on_c, 1, 71, 127
2, 417920, Note_off_c, 1, 71, 0
2, 417960, Note_on_c, 1, 69, 127
2, 418120, Note_off_c, 1, 55, 0
2, 418120, Note_off_c, 1, 69, 0
2, 418160, Note_on_c, 1, 54, 127
2, 418160, Note_on_c, 1, 71, 127
2, 418280, Note_off_c, 1, 71, 0
2, 418320, Note_on_c, 1, 73, 127
2, 418480, Note_off_c, 1, 54, 0
2, 418480, Note_off_c, 1, 73, 0
2, 418520, Note_on_c, 1, 52, 127
2, 418520, Note_on_c, 1, 74, 127
2, 418680, Note_off_c, 1, 74, 0
2, 418720, Note_on_c, 1, 76, 127
2, 418880, Note_off_c, 1, 52, 0
2, 418880, Note_off_c, 1, 76, 0
2, 418920, Note_on_c, 1, 50, 127
2, 418920, Note_on_c, 1, 78, 127
2, 419040, Note_off_c, 1, 78, 0
2, 419080, Note_on_c, 1, 73, 127
2, 419240, Note_off_c, 1, 50, 0
2, 419240, Note_off_c, 1, 73, 0
2, 419280, Note_on_c, 1, 47, 127
2, 419280, Note_on_c, 1, 74, 127
2, 419440, Note_off_c, 1, 74, 0
2, 419480, Note_on_c, 1, 71, 127
2, 419640, Note_off_c, 1, 47, 0
2, 419640, Note_off_c, 1, 71, 0
2, 419680, Note_on_c, 1, 52, 127
2, 419680, Note_on_c, 1, 68, 127
2, 419800, Note_off_c, 1, 68, 0
2, 419880, Note_on_c, 1, 66, 127
2, 420000, Note_off_c, 1, 52, 0
2, 420000, Note_off_c, 1, 66, 0
2, 420040, Note_on_c, 1, 54, 127
2, 420040, Note_on_c, 1, 68, 127
2, 420200, Note_off_c, 1, 68, 0
2, 420240, Note_on_c, 1, 71, 127
2, 420400, Note_off_c, 1, 54, 0
2, 420400, Note_off_c, 1, 71, 0
2, 420440, Note_on_c, 1, 52, 127
2, 420440, Note_on_c, 1, 73, 127
2, 420600, Note_off_c, 1, 73, 0
2, 420640, Note_on_c, 1, 74, 127
2, 420760, Note_off_c, 1, 52, 0
2, 420760, Note_off_c, 1, 74, 0
2, 420800, Note_on_c, 1, 50, 127
2, 420800, Note_on_c, 1, 76, 127
2, 420960, Note_off_c, 1, 76, 0
2, 421000, Note_on_c, 1, 78, 127
2, 421160, Note_off_c, 1, 50, 0
2, 421160, Note_off_c, 1, 78, 0
2, 421200, Note_on_c, 1, 49, 127
2, 421200, Note_on_c, 1, 79, 127
2, 421360, Note_off_c, 1, 79, 0
2, 421400, Note_on_c, 1, 78, 127
2, 421520, Note_off_c, 1, 49, 0
2, 421520, Note_off_c, 1, 78, 0
2, 421560, Note_on_c, 1, 50, 127
2, 421560, Note_on_c, 1, 83, 127
2, 421720, Note_off_c, 1, 50, 0
2, 421760, Note_on_c, 1, 52, 127
2, 421920, Note_off_c, 1, 52, 0
2, 421920, Note_off_c, 1, 83, 0
2, 421960, Note_on_c, 1, 54, 127
2, 421960, Note_on_c, 1, 83, 127
2, 422080, Note_off_c, 1, 83, 0
2, 422120, Note_off_c, 1, 54, 0
2, 422120, Note_on_c, 1, 82, 127
2, 422160, Note_on_c, 1, 52, 127
2, 422160, Note_off_c, 1, 82, 0
2, 422200, Note_on_c, 1, 83, 127
2, 422240, Note_off_c, 1, 83, 0
2, 422280, Note_off_c, 1, 52, 0
2, 422280, Note_on_c, 1, 82, 127
2, 422320, Note_on_c, 1, 55, 127
2, 422320, Note_off_c, 1, 82, 0
2, 422320, Note_on_c, 1, 83, 127
2, 422400, Note_on_c, 1, 82, 127
2, 422400, Note_off_c, 1, 83, 0
2, 422480, Note_off_c, 1, 55, 0
2, 422480, Note_off_c, 1, 82, 0
2, 422520, Note_on_c, 1, 54, 127
2, 422520, Note_on_c, 1, 83, 127
2, 422680, Note_off_c, 1, 54, 0
2, 422680, Note_off_c, 1, 83, 0
2, 422720, Note_on_c, 1, 52, 127
2, 422720, Note_on_c, 1, 85, 127
2, 422880, Note_off_c, 1, 52, 0
2, 422880, Note_off_c, 1, 85, 0
2, 422920, Note_on_c, 1, 50, 127
2, 422920, Note_on_c, 1, 78, 127
2, 423040, Note_off_c, 1, 50, 0
2, 423040, Note_off_c, 1, 78, 0
2, 423120, Note_on_c, 1, 49, 127
2, 423120, Note_on_c, 1, 86, 127
2, 423240, Note_off_c, 1, 49, 0
2, 423280, Note_on_c, 1, 47, 127
2, 423440, Note_off_c, 1, 47, 0
2, 423440, Note_off_c, 1, 86, 0
2, 423480, Note_on_c, 1, 52, 127
2, 423480, Note_on_c, 1, 86, 127
2, 423640, Note_off_c, 1, 86, 0
2, 423680, Note_on_c, 1, 85, 127
2, 423840, Note_off_c, 1, 52, 0
2, 423840, Note_off_c, 1, 85, 0
2, 423880, Note_on_c, 1, 54, 127
2, 423880, Note_on_c, 1, 83, 127
2, 424000, Note_off_c, 1, 83, 0
2, 424040, Note_on_c, 1, 82, 127
2, 424200, Note_off_c, 1, 54, 0
2, 424200, Note_off_c, 1, 82, 0
2, 424240, Note_on_c, 1, 55, 127
2, 424240, Note_on_c, 1, 83, 127
2, 424400, Note_off_c, 1, 55, 0
2, 424400, Note_off_c, 1, 83, 0
2, 424440, Note_on_c, 1, 51, 127
2, 424440, Note_on_c, 1, 78, 127
2, 424600, Note_off_c, 1, 51, 0
2, 424600, Note_off_c, 1, 78, 0
2, 424640, Note_on_c, 1, 52, 127
2, 424640, Note_on_c, 1, 79, 127
2, 424760, Note_off_c, 1, 52, 0
2, 424760, Note_off_c, 1, 79, 0
2, 424800, Note_on_c, 1, 59, 127
2, 424800, Note_on_c, 1, 76, 127
2, 424960, Note_off_c, 1, 59, 0
2, 424960, Note_off_c, 1, 76, 0
2, 425000, Note_on_c, 1, 58, 127
2, 425000, Note_on_c, 1, 78, 127
2, 425080, Note_off_c, 1, 78, 0
2, 425120, Note_on_c, 1, 76, 127
2, 425160, Note_off_c, 1, 58, 0
2, 425160, Note_off_c, 1, 76, 0
2, 425200, Note_on_c, 1, 54, 127
2, 425200, Note_on_c, 1, 78, 127
2, 425360, Note_off_c, 1, 54, 0
2, 425400, Note_on_c, 1, 59, 127
2, 425520, Note_off_c, 1, 59, 0
2, 425520, Note_off_c, 1, 78, 0
2, 425560, Note_on_c, 1, 52, 127
2, 425560, Note_on_c, 1, 79, 127
2, 425720, Note_off_c, 1, 52, 0
2, 425720, Note_off_c, 1, 79, 0
2, 425760, Note_on_c, 1, 54, 127
2, 425760, Note_on_c, 1, 70, 127
2, 425760, Note_on_c, 1, 74, 127
2, 425840, Note_off_c, 1, 74, 0
2, 425880, Note_on_c, 1, 73, 127
2, 425920, Note_off_c, 1, 73, 0
2, 425960, Note_on_c, 1, 74, 127
2, 426040, Note_off_c, 1, 74, 0
2, 426080, Note_on_c, 1, 73, 127
2, 426120, Note_off_c, 1, 54, 0
2, 426120, Note_off_c, 1, 73, 0
2, 426160, Note_on_c, 1, 42, 127
2, 426160, Note_on_c, 1, 74, 127
2, 426240, Note_off_c, 1, 74, 0
2, 426280, Note_on_c, 1, 73, 127
2, 426320, Note_off_c, 1, 70, 0
2, 426320, Note_off_c, 1, 73, 0
2, 426400, Note_on_c, 1, 71, 127
2, 426560, Note_off_c, 1, 42, 0
2, 426560, Note_off_c, 1, 71, 0
2, 426600, Note_on_c, 1, 47, 127
2, 426600, Note_on_c, 1, 71, 127
2, 427000, Note_on_c, 1, 50, 127
2, 427400, Note_off_c, 1, 50, 0
2, 427400, Note_on_c, 1, 54, 127
2, 427800, Note_off_c, 1, 54, 0
2, 427880, Note_on_c, 1, 59, 127
2, 427880, Note_on_c, 1, 62, 127
2, 427880, Note_on_c, 1, 66, 127
2, 430720, Note_off_c, 1, 47, 0
2, 430720, Note_off_c, 1, 59, 0
2, 430720, Note_off_c, 1, 62, 0
2, 430720, Note_off_c, 1, 66, 0
2, 430720, Note_off_c, 1, 71, 0
2, 431520, Note_on_c, 1, 59, 127
2, 431520, Note_on_c, 1, 66, 127
2, 431520, Note_on_c, 1, 71, 127
2, 431520, Note_on_c, 1, 74, 127
2, 432240, Note_off_c, 1, 59, 0
2, 432240, Note_off_c, 1, 66, 0
2, 432240, Note_off_c, 1, 71, 0
2, 432240, Note_off_c, 1, 74, 0
2, 432280, Note_on_c, 1, 52, 127
2, 432280, Note_on_c, 1, 66, 127
2, 432280, Note_on_c, 1, 67, 127
2, 432280, Note_on_c, 1, 74, 127
2, 432600, Note_off_c, 1, 66, 0
2, 432600, Note_off_c, 1, 74, 0
2, 432680, Note_on_c, 1, 64, 127
2, 432680, Note_on_c, 1, 73, 127
2, 433000, Note_off_c, 1, 52, 0
2, 433000, Note_off_c, 1, 64, 0
2, 433000, Note_off_c, 1, 67, 0
2, 433000, Note_off_c, 1, 73, 0
2, 433040, Note_on_c, 1, 54, 127
2, 433040, Note_on_c, 1, 62, 127
2, 433040, Note_on_c, 1, 66, 127
2, 433040, Note_on_c, 1, 71, 127
2, 433360, Note_off_c, 1, 62, 0
2, 433360, Note_off_c, 1, 66, 0
2, 433360, Note_off_c, 1, 71, 0
2, 433400, Note_on_c, 1, 61, 127
2, 433400, Note_on_c, 1, 64, 127
2, 433400, Note_on_c, 1, 70, 127
2, 433760, Note_off_c, 1, 54, 0
2, 433760, Note_off_c, 1, 61, 0
2, 433760, Note_off_c, 1, 64, 0
2, 433760, Note_off_c, 1, 70, 0
2, 433800, Note_on_c, 1, 55, 127
2, 433800, Note_on_c, 1, 59, 127
2, 433800, Note_on_c, 1, 62, 127
2, 433800, Note_on_c, 1, 71, 127
2, 434520, Note_off_c, 1, 55, 0
2, 434520, Note_off_c, 1, 59, 0
2, 434520, Note_off_c, 1, 62, 0
2, 434520, Note_off_c, 1, 71, 0
2, 434560, Note_on_c, 1, 54, 127
2, 434560, Note_on_c, 1, 59, 127
2, 434560, Note_on_c, 1, 62, 127
2, 434560, Note_on_c, 1, 71, 127
2, 434880, Note_off_c, 1, 54, 0
2, 434920, Note_on_c, 1, 52, 127
2, 435280, Note_off_c, 1, 52, 0
2, 435320, Note_on_c, 1, 50, 127
2, 435640, Note_off_c, 1, 50, 0
2, 435680, Note_on_c, 1, 49, 127
2, 436000, Note_off_c, 1, 49, 0
2, 436000, Note_off_c, 1, 62, 0
2, 436040, Note_off_c, 1, 59, 0
2, 436080, Note_on_c, 1, 50, 127
2, 436080, Note_on_c, 1, 54, 127
2, 436080, Note_on_c, 1, 59, 127
2, 436080, Note_on_c, 1, 66, 127
2, 436080, Note_off_c, 1, 71, 0
2, 436120, Note_on_c, 1, 71, 127
2, 436200, Note_on_c, 1, 74, 127
2, 436280, Note_on_c, 1, 78, 127
2, 436760, Note_off_c, 1, 50, 0
2, 436760, Note_off_c, 1, 54, 0
2, 436760, Note_off_c, 1, 59, 0
2, 436760, Note_off_c, 1, 66, 0
2, 436760, Note_off_c, 1, 71, 0
2, 436760, Note_off_c, 1, 74, 0
2, 436760, Note_off_c, 1, 78, 0
2, 436800, Note_on_c, 1, 52, 127
2, 436800, Note_on_c, 1, 59, 127
2, 436800, Note_on_c, 1, 67, 127
2, 436800, Note_on_c, 1, 74, 127
2, 436800, Note_on_c, 1, 78, 127
2, 437160, Note_off_c, 1, 74, 0
2, 437160, Note_off_c, 1, 78, 0
2, 437200, Note_on_c, 1, 73, 127
2, 437200, Note_on_c, 1, 76, 127
2, 437520, Note_off_c, 1, 52, 0
2, 437520, Note_off_c, 1, 59, 0
2, 437520, Note_off_c, 1, 67, 0
2, 437520, Note_off_c, 1, 73, 0
2, 437520, Note_off_c, 1, 76, 0
2, 437560, Note_on_c, 1, 54, 127
2, 437560, Note_on_c, 1, 66, 127
2, 437560, Note_on_c, 1, 71, 127
2, 437560, Note_on_c, 1, 74, 127
2, 437920, Note_off_c, 1, 71, 0
2, 437920, Note_off_c, 1, 74, 0
2, 437960, Note_on_c, 1, 70, 127
2, 437960, Note_on_c, 1, 73, 127
2, 438280, Note_off_c, 1, 54, 0
2, 438280, Note_off_c, 1, 66, 0
2, 438280, Note_off_c, 1, 70, 0
2, 438280, Note_off_c, 1, 73, 0
2, 438320, Note_on_c, 1, 47, 127
2, 438320, Note_on_c, 1, 66, 127
2, 438320, Note_on_c, 1, 70, 127
2, 438320, Note_on_c, 1, 73, 127
2, 438840, Note_off_c, 1, 70, 0
2, 438840, Note_off_c, 1, 73, 0
2, 438880, Note_on_c, 1, 71, 127
2, 438880, Note_on_c, 1, 74, 127
2, 439040, Note_off_c, 1, 47, 0
2, 439040, Note_off_c, 1, 66, 0
2, 439080, Note_on_c, 1, 50, 127
2, 439440, Note_off_c, 1, 71, 0
2, 439480, Note_on_c, 1, 64, 127
2, 439640, Note_on_c, 1, 73, 127
2, 439640, Note_off_c, 1, 74, 0
2, 439800, Note_off_c, 1, 50, 0
2, 439800, Note_off_c, 1, 64, 0
2, 439800, Note_off_c, 1, 73, 0
2, 439840, Note_on_c, 1, 54, 127
2, 439840, Note_on_c, 1, 62, 127
2, 439840, Note_on_c, 1, 66, 127
2, 439840, Note_on_c, 1, 71, 127
2, 440200, Note_off_c, 1, 62, 0
2, 440240, Note_on_c, 1, 61, 127
2, 440560, Note_off_c, 1, 71, 0
2, 440600, Note_off_c, 1, 54, 0
2, 440600, Note_off_c, 1, 61, 0
2, 440600, Note_off_c, 1, 66, 0
2, 440640, Note_on_c, 1, 59, 127
2, 440640, Note_on_c, 1, 74, 127
2, 440960, Note_off_c, 1, 74, 0
2, 441000, Note_on_c, 1, 71, 127
2, 441320, Note_off_c, 1, 71, 0
2, 441360, Note_on_c, 1, 47, 127
2, 441360, Note_off_c, 1, 59, 0
2, 441360, Note_on_c, 1, 67, 127
2, 441720, Note_off_c, 1, 67, 0
2, 441760, Note_on_c, 1, 66, 127
2, 442080, Note_off_c, 1, 66, 0
2, 442120, Note_on_c, 1, 67, 127
2, 442480, Note_off_c, 1, 47, 0
2, 442480, Note_off_c, 1, 67, 0
2, 442520, Note_on_c, 1, 71, 127
2, 442840, Note_off_c, 1, 71, 0
2, 442880, Note_on_c, 1, 61, 127
2, 442880, Note_on_c, 1, 76, 127
2, 443240, Note_off_c, 1, 76, 0
2, 443280, Note_on_c, 1, 69, 127
2, 443600, Note_off_c, 1, 61, 0
2, 443600, Note_off_c, 1, 69, 0
2, 443640, Note_on_c, 1, 49, 127
2, 443640, Note_on_c, 1, 67, 127
2, 443960, Note_off_c, 1, 67, 0
2, 444040, Note_on_c, 1, 66, 127
2, 444360, Note_off_c, 1, 66, 0
2, 444400, Note_on_c, 1, 67, 127
2, 444720, Note_off_c, 1, 49, 0
2, 444720, Note_off_c, 1, 67, 0
2, 444760, Note_on_c, 1, 76, 127
2, 445120, Note_off_c, 1, 76, 0
2, 445160, Note_on_c, 1, 62, 127
2, 445160, Note_on_c, 1, 69, 127
2, 445160, Note_on_c, 1, 74, 127
2, 445160, Note_on_c, 1, 78, 127
2, 445520, Note_off_c, 1, 62, 0
2, 445520, Note_off_c, 1, 74, 0
2, 445520, Note_off_c, 1, 78, 0
2, 445560, Note_on_c, 1, 61, 127
2, 445560, Note_on_c, 1, 76, 127
2, 445880, Note_off_c, 1, 61, 0
2, 445880, Note_off_c, 1, 69, 0
2, 445880, Note_off_c, 1, 76, 0
2, 445920, Note_on_c, 1, 59, 127
2, 445920, Note_on_c, 1, 62, 127
2, 445920, Note_on_c, 1, 74, 127
2, 445920, Note_on_c, 1, 79, 127
2, 446280, Note_off_c, 1, 59, 0
2, 446280, Note_off_c, 1, 79, 0
2, 446320, Note_on_c, 1, 57, 127
2, 446320, Note_on_c, 1, 78, 127
2, 446640, Note_off_c, 1, 57, 0
2, 446640, Note_off_c, 1, 62, 0
2, 446640, Note_off_c, 1, 74, 0
2, 446640, Note_off_c, 1, 78, 0
2, 446680, Note_on_c, 1, 55, 127
2, 446680, Note_on_c, 1, 67, 127
2, 446680, Note_on_c, 1, 71, 127
2, 446680, Note_on_c, 1, 76, 127
2, 447040, Note_off_c, 1, 67, 0
2, 447040, Note_off_c, 1, 76, 0
2, 447080, Note_on_c, 1, 66, 127
2, 447080, Note_on_c, 1, 74, 127
2, 447400, Note_off_c, 1, 55, 0
2, 447400, Note_off_c, 1, 66, 0
2, 447400, Note_off_c, 1, 71, 0
2, 447400, Note_off_c, 1, 74, 0
2, 447440, Note_on_c, 1, 55, 127
2, 447440, Note_on_c, 1, 64, 127
2, 447440, Note_on_c, 1, 73, 127
2, 447440, Note_on_c, 1, 81, 127
2, 447760, Note_off_c, 1, 55, 0
2, 447840, Note_on_c, 1, 54, 127
2, 448160, Note_off_c, 1, 64, 0
2, 448160, Note_off_c, 1, 73, 0
2, 448160, Note_off_c, 1, 81, 0
2, 448200, Note_off_c, 1, 54, 0
2, 448240, Note_on_c, 1, 57, 127
2, 448240, Note_on_c, 1, 64, 127
2, 448240, Note_on_c, 1, 73, 127
2, 448240, Note_on_c, 1, 81, 127
2, 448560, Note_off_c, 1, 57, 0
2, 448600, Note_on_c, 1, 55, 127
2, 448920, Note_off_c, 1, 55, 0
2, 448960, Note_on_c, 1, 54, 127
2, 449320, Note_off_c, 1, 54, 0
2, 449360, Note_on_c, 1, 52, 127
2, 449640, Note_off_c, 1, 73, 0
2, 449640, Note_off_c, 1, 81, 0
2, 449720, Note_off_c, 1, 52, 0
2, 449720, Note_off_c, 1, 64, 0
2, 449760, Note_on_c, 1, 54, 127
2, 449760, Note_on_c, 1, 72, 127
2, 450080, Note_off_c, 1, 72, 0
2, 450160, Note_on_c, 1, 71, 127
2, 450480, Note_off_c, 1, 71, 0
2, 450520, Note_on_c, 1, 72, 127
2, 450840, Note_off_c, 1, 72, 0
2, 450880, Note_on_c, 1, 81, 127
2, 451240, Note_off_c, 1, 54, 0
2, 451240, Note_off_c, 1, 81, 0
2, 451280, Note_on_c, 1, 78, 127
2, 451600, Note_off_c, 1, 78, 0
2, 451640, Note_on_c, 1, 72, 127
2, 452000, Note_off_c, 1, 72, 0
2, 452040, Note_on_c, 1, 55, 127
2, 452040, Note_on_c, 1, 71, 127
2, 452360, Note_off_c, 1, 71, 0
2, 452400, Note_on_c, 1, 69, 127
2, 452760, Note_off_c, 1, 69, 0
2, 452800, Note_on_c, 1, 71, 127
2, 453120, Note_off_c, 1, 71, 0
2, 453160, Note_on_c, 1, 83, 127
2, 453480, Note_off_c, 1, 55, 0
2, 453480, Note_off_c, 1, 83, 0
2, 453560, Note_on_c, 1, 56, 127
2, 453560, Note_on_c, 1, 77, 127
2, 453880, Note_off_c, 1, 77, 0
2, 453920, Note_on_c, 1, 76, 127
2, 454200, Note_off_c, 1, 56, 0
2, 454240, Note_off_c, 1, 76, 0
2, 454320, Note_on_c, 1, 85, 127
2, 454640, Note_off_c, 1, 85, 0
2, 454680, Note_on_c, 1, 86, 127
2, 455040, Note_off_c, 1, 86, 0
2, 455080, Note_on_c, 1, 57, 127
2, 455080, Note_on_c, 1, 69, 127
2, 455080, Note_on_c, 1, 74, 127
2, 455080, Note_on_c, 1, 79, 127
2, 455400, Note_off_c, 1, 79, 0
2, 455440, Note_on_c, 1, 78, 127
2, 455800, Note_off_c, 1, 57, 0
2, 455800, Note_off_c, 1, 69, 0
2, 455800, Note_off_c, 1, 74, 0
2, 455800, Note_off_c, 1, 78, 0
2, 455840, Note_on_c, 1, 45, 127
2, 455840, Note_on_c, 1, 67, 127
2, 455840, Note_on_c, 1, 73, 127
2, 455840, Note_on_c, 1, 76, 127
2, 456160, Note_off_c, 1, 73, 0
2, 456160, Note_off_c, 1, 76, 0
2, 456200, Note_on_c, 1, 74, 127
2, 456560, Note_off_c, 1, 45, 0
2, 456560, Note_off_c, 1, 67, 0
2, 456560, Note_off_c, 1, 74, 0
2, 456600, Note_on_c, 1, 50, 127
2, 456600, Note_on_c, 1, 67, 127
2, 456600, Note_on_c, 1, 69, 127
2, 456600, Note_on_c, 1, 74, 127
2, 456920, Note_off_c, 1, 67, 0
2, 456960, Note_on_c, 1, 64, 127
2, 457280, Note_off_c, 1, 69, 0
2, 457280, Note_off_c, 1, 74, 0
2, 457320, Note_off_c, 1, 50, 0
2, 457320, Note_off_c, 1, 64, 0
2, 457360, Note_on_c, 1, 38, 127
2, 457360, Note_on_c, 1, 66, 127
2, 457360, Note_on_c, 1, 69, 127
2, 457360, Note_on_c, 1, 74, 127
2, 458800, Note_off_c, 1, 38, 0
2, 458800, Note_off_c, 1, 66, 0
2, 458800, Note_off_c, 1, 69, 0
2, 458800, Note_off_c, 1, 74, 0
2, 458880, Note_on_c, 1, 50, 127
2, 458880, Note_on_c, 1, 62, 127
2, 458880, Note_on_c, 1, 66, 127
2, 458880, Note_on_c, 1, 69, 127
2, 459200, Note_off_c, 1, 50, 0
2, 459240, Note_on_c, 1, 54, 127
2, 459560, Note_off_c, 1, 54, 0
2, 459560, Note_off_c, 1, 62, 0
2, 459560, Note_off_c, 1, 66, 0
2, 459560, Note_off_c, 1, 69, 0
2, 459600, Note_on_c, 1, 57, 127
2, 459600, Note_on_c, 1, 62, 127
2, 459600, Note_on_c, 1, 66, 127
2, 459600, Note_on_c, 1, 69, 127
2, 459960, Note_off_c, 1, 62, 0
2, 459960, Note_off_c, 1, 66, 0
2, 459960, Note_off_c, 1, 69, 0
2, 460000, Note_on_c, 1, 64, 127
2, 460000, Note_on_c, 1, 67, 127
2, 460320, Note_off_c, 1, 57, 0
2, 460320, Note_off_c, 1, 64, 0
2, 460320, Note_off_c, 1, 67, 0
2, 460360, Note_on_c, 1, 45, 127
2, 460360, Note_on_c, 1, 57, 127
2, 460360, Note_on_c, 1, 62, 127
2, 460360, Note_on_c, 1, 66, 127
2, 460720, Note_off_c, 1, 62, 0
2, 460720, Note_off_c, 1, 66, 0
2, 460760, Note_on_c, 1, 61, 127
2, 460760, Note_on_c, 1, 64, 127
2, 461080, Note_off_c, 1, 45, 0
2, 461080, Note_off_c, 1, 57, 0
2, 461080, Note_off_c, 1, 61, 0
2, 461080, Note_off_c, 1, 64, 0
2, 461120, Note_on_c, 1, 50, 127
2, 461120, Note_on_c, 1, 57, 127
2, 461120, Note_on_c, 1, 62, 127
2, 461120, Note_on_c, 1, 66, 127
2, 461840, Note_off_c, 1, 50, 0
2, 461840, Note_off_c, 1, 57, 0
2, 461840, Note_off_c, 1, 62, 0
2, 461840, Note_off_c, 1, 66, 0
2, 461880, Note_on_c, 1, 50, 127
2, 461880, Note_on_c, 1, 57, 127
2, 461880, Note_on_c, 1, 62, 127
2, 461880, Note_on_c, 1, 66, 127
2, 462200, Note_off_c, 1, 50, 0
2, 462200, Note_off_c, 1, 57, 0
2, 462280, Note_on_c, 1, 49, 127
2, 462600, Note_off_c, 1, 49, 0
2, 462640, Note_on_c, 1, 47, 127
2, 462960, Note_off_c, 1, 47, 0
2, 463000, Note_on_c, 1, 45, 127
2, 463360, Note_off_c, 1, 45, 0
2, 463360, Note_off_c, 1, 62, 0
2, 463360, Note_off_c, 1, 66, 0
2, 463400, Note_on_c, 1, 44, 127
2, 463400, Note_on_c, 1, 59, 127
2, 463400, Note_on_c, 1, 65, 127
2, 463760, Note_on_c, 1, 71, 127
2, 464120, Note_off_c, 1, 44, 0
2, 464120, Note_off_c, 1, 59, 0
2, 464120, Note_off_c, 1, 65, 0
2, 464120, Note_off_c, 1, 71, 0
2, 464160, Note_on_c, 1, 42, 127
2, 464160, Note_on_c, 1, 61, 127
2, 464160, Note_on_c, 1, 66, 127
2, 464160, Note_on_c, 1, 69, 127
2, 464480, Note_off_c, 1, 69, 0
2, 464520, Note_on_c, 1, 68, 127
2, 464880, Note_off_c, 1, 42, 0
2, 464880, Note_off_c, 1, 61, 0
2, 464880, Note_off_c, 1, 66, 0
2, 464880, Note_off_c, 1, 68, 0
2, 464920, Note_on_c, 1, 54, 127
2, 464920, Note_on_c, 1, 61, 127
2, 464920, Note_on_c, 1, 66, 127
2, 464920, Note_on_c, 1, 69, 127
2, 465120, Note_on_c, 1, 73, 127
2, 465200, Note_off_c, 1, 69, 0
2, 465280, Note_on_c, 1, 78, 127
2, 465360, Note_off_c, 1, 73, 0
2, 465640, Note_off_c, 1, 54, 0
2, 465640, Note_off_c, 1, 61, 0
2, 465640, Note_off_c, 1, 66, 0
2, 465640, Note_off_c, 1, 78, 0
2, 465680, Note_on_c, 1, 49, 127
2, 465680, Note_on_c, 1, 61, 127
2, 465680, Note_on_c, 1, 68, 127
2, 465680, Note_on_c, 1, 77, 127
2, 466000, Note_off_c, 1, 49, 0
2, 466000, Note_off_c, 1, 61, 0
2, 466000, Note_off_c, 1, 77, 0
2, 466040, Note_on_c, 1, 63, 127
2, 466040, Note_on_c, 1, 80, 127
2, 466200, Note_off_c, 1, 80, 0
2, 466240, Note_on_c, 1, 78, 127
2, 466360, Note_off_c, 1, 68, 0
2, 466400, Note_off_c, 1, 63, 0
2, 466400, Note_off_c, 1, 78, 0
2, 466440, Note_on_c, 1, 61, 127
2, 466440, Note_on_c, 1, 65, 127
2, 466440, Note_on_c, 1, 73, 127
2, 466440, Note_on_c, 1, 78, 127
2, 466760, Note_off_c, 1, 61, 0
2, 466760, Note_off_c, 1, 78, 0
2, 466800, Note_on_c, 1, 59, 127
2, 466800, Note_on_c, 1, 80, 127
2, 467120, Note_off_c, 1, 65, 0
2, 467120, Note_off_c, 1, 73, 0
2, 467160, Note_off_c, 1, 59, 0
2, 467200, Note_on_c, 1, 57, 127
2, 467200, Note_on_c, 1, 73, 127
2, 467520, Note_off_c, 1, 57, 0
2, 467600, Note_on_c, 1, 56, 127
2, 467600, Note_off_c, 1, 80, 0
2, 467960, Note_off_c, 1, 56, 0
2, 468000, Note_on_c, 1, 54, 127
2, 468000, Note_off_c, 1, 73, 0
2, 468000, Note_on_c, 1, 81, 127
2, 468320, Note_off_c, 1, 81, 0
2, 468360, Note_on_c, 1, 78, 127
2, 468720, Note_off_c, 1, 54, 0
2, 468720, Note_off_c, 1, 78, 0
2, 468760, Note_on_c, 1, 66, 127
2, 468760, Note_on_c, 1, 74, 127
2, 469080, Note_off_c, 1, 74, 0
2, 469120, Note_on_c, 1, 73, 127
2, 469440, Note_off_c, 1, 73, 0
2, 469520, Note_on_c, 1, 72, 127
2, 469640, Note_off_c, 1, 66, 0
2, 469840, Note_off_c, 1, 72, 0
2, 469880, Note_on_c, 1, 54, 127
2, 469880, Note_on_c, 1, 81, 127
2, 470200, Note_off_c, 1, 54, 0
2, 470200, Note_off_c, 1, 81, 0
2, 470280, Note_on_c, 1, 53, 127
2, 470280, Note_on_c, 1, 80, 127
2, 470600, Note_off_c, 1, 80, 0
2, 470640, Note_on_c, 1, 74, 127
2, 470960, Note_off_c, 1, 53, 0
2, 470960, Note_off_c, 1, 74, 0
2, 471000, Note_on_c, 1, 65, 127
2, 471000, Note_on_c, 1, 73, 127
2, 471360, Note_off_c, 1, 73, 0
2, 471400, Note_on_c, 1, 71, 127
2, 471720, Note_off_c, 1, 65, 0
2, 471720, Note_off_c, 1, 71, 0
2, 471760, Note_on_c, 1, 70, 127
2, 472160, Note_on_c, 1, 52, 127
2, 472160, Note_off_c, 1, 70, 0
2, 472160, Note_on_c, 1, 79, 127
2, 472480, Note_off_c, 1, 52, 0
2, 472480, Note_off_c, 1, 79, 0
2, 472520, Note_on_c, 1, 50, 127
2, 472520, Note_on_c, 1, 78, 127
2, 472880, Note_off_c, 1, 78, 0
2, 472920, Note_on_c, 1, 83, 127
2, 472920, Note_on_c, 1, 86, 127
2, 473240, Note_off_c, 1, 50, 0
2, 473240, Note_off_c, 1, 83, 0
2, 473240, Note_off_c, 1, 86, 0
2, 473280, Note_on_c, 1, 45, 127
2, 473280, Note_on_c, 1, 78, 127
2, 473280, Note_on_c, 1, 81, 127
2, 473280, Note_on_c, 1, 85, 127
2, 473600, Note_off_c, 1, 81, 0
2, 473600, Note_off_c, 1, 85, 0
2, 473680, Note_on_c, 1, 80, 127
2, 473680, Note_on_c, 1, 83, 127
2, 474000, Note_off_c, 1, 45, 0
2, 474000, Note_off_c, 1, 78, 0
2, 474000, Note_off_c, 1, 80, 0
2, 474000, Note_off_c, 1, 83, 0
2, 474040, Note_on_c, 1, 49, 127
2, 474040, Note_on_c, 1, 73, 127
2, 474040, Note_on_c, 1, 78, 127
2, 474040, Note_on_c, 1, 81, 127
2, 474360, Note_off_c, 1, 78, 0
2, 474360, Note_off_c, 1, 81, 0
2, 474440, Note_on_c, 1, 77, 127
2, 474440, Note_on_c, 1, 80, 127
2, 474760, Note_off_c, 1, 49, 0
2, 474760, Note_off_c, 1, 73, 0
2, 474760, Note_off_c, 1, 77, 0
2, 474760, Note_off_c, 1, 80, 0
2, 474800, Note_on_c, 1, 42, 127
2, 474800, Note_on_c, 1, 73, 127
2, 474800, Note_on_c, 1, 77, 127
2, 474800, Note_on_c, 1, 80, 127
2, 475280, Note_off_c, 1, 77, 0
2, 475280, Note_off_c, 1, 80, 0
2, 475320, Note_on_c, 1, 78, 127
2, 475320, Note_on_c, 1, 81, 127
2, 475520, Note_off_c, 1, 42, 0
2, 475520, Note_off_c, 1, 73, 0
2, 475560, Note_on_c, 1, 45, 127
2, 475560, Note_on_c, 1, 69, 127
2, 475560, Note_on_c, 1, 73, 127
2, 475680, Note_off_c, 1, 78, 0
2, 475880, Note_off_c, 1, 81, 0
2, 475920, Note_on_c, 1, 80, 127
2, 476280, Note_off_c, 1, 45, 0
2, 476280, Note_off_c, 1, 80, 0
2, 476320, Note_on_c, 1, 49, 127
2, 476320, Note_on_c, 1, 78, 127
2, 477040, Note_off_c, 1, 49, 0
2, 477040, Note_off_c, 1, 69, 0
2, 477040, Note_off_c, 1, 73, 0
2, 477040, Note_off_c, 1, 78, 0
2, 477120, Note_on_c, 1, 54, 127
2, 477120, Note_on_c, 1, 81, 127
2, 477440, Note_off_c, 1, 81, 0
2, 477480, Note_on_c, 1, 83, 127
2, 477800, Note_off_c, 1, 54, 0
2, 477800, Note_off_c, 1, 83, 0
2, 477880, Note_on_c, 1, 55, 127
2, 477880, Note_on_c, 1, 81, 127
2, 478240, Note_on_c, 1, 79, 127
2, 478560, Note_off_c, 1, 55, 0
2, 478560, Note_off_c, 1, 79, 0
2, 478600, Note_on_c, 1, 57, 127
2, 478600, Note_on_c, 1, 78, 127
2, 478960, Note_off_c, 1, 78, 0
2, 479000, Note_on_c, 1, 76, 127
2, 479320, Note_off_c, 1, 57, 0
2, 479320, Note_off_c, 1, 76, 0
2, 479320, Note_off_c, 1, 81, 0
2, 479360, Note_on_c, 1, 59, 127
2, 479360, Note_on_c, 1, 75, 127
2, 479360, Note_on_c, 1, 81, 127
2, 479720, Note_off_c, 1, 81, 0
2, 479760, Note_on_c, 1, 72, 127
2, 479760, Note_on_c, 1, 79, 127
2, 480080, Note_off_c, 1, 59, 0
2, 480080, Note_off_c, 1, 72, 0
2, 480080, Note_off_c, 1, 75, 0
2, 480080, Note_off_c, 1, 79, 0
2, 480120, Note_on_c, 1, 71, 127
2, 480120, Note_on_c, 1, 75, 127
2, 480120, Note_on_c, 1, 81, 127
2, 480480, Note_off_c, 1, 71, 0
2, 480520, Note_on_c, 1, 69, 127
2, 480840, Note_off_c, 1, 69, 0
2, 480920, Note_on_c, 1, 67, 127
2, 481240, Note_off_c, 1, 67, 0
2, 481280, Note_on_c, 1, 66, 127
2, 481600, Note_off_c, 1, 75, 0
2, 481600, Note_off_c, 1, 81, 0
2, 481640, Note_off_c, 1, 66, 0
2, 481680, Note_on_c, 1, 52, 127
2, 481680, Note_on_c, 1, 64, 127
2, 481680, Note_on_c, 1, 79, 127
2, 482000, Note_off_c, 1, 79, 0
2, 482040, Note_on_c, 1, 81, 127
2, 482400, Note_off_c, 1, 52, 0
2, 482400, Note_off_c, 1, 64, 0
2, 482400, Note_off_c, 1, 81, 0
2, 482440, Note_on_c, 1, 54, 127
2, 482440, Note_on_c, 1, 79, 127
2, 482800, Note_on_c, 1, 78, 127
2, 483160, Note_off_c, 1, 54, 0
2, 483160, Note_off_c, 1, 78, 0
2, 483200, Note_on_c, 1, 55, 127
2, 483200, Note_on_c, 1, 76, 127
2, 483520, Note_off_c, 1, 76, 0
2, 483560, Note_on_c, 1, 74, 127
2, 483880, Note_off_c, 1, 55, 0
2, 483880, Note_off_c, 1, 74, 0
2, 483880, Note_off_c, 1, 79, 0
2, 483960, Note_on_c, 1, 57, 127
2, 483960, Note_on_c, 1, 73, 127
2, 483960, Note_on_c, 1, 79, 127
2, 484280, Note_off_c, 1, 79, 0
2, 484320, Note_on_c, 1, 71, 127
2, 484320, Note_on_c, 1, 78, 127
2, 484640, Note_off_c, 1, 57, 0
2, 484640, Note_off_c, 1, 71, 0
2, 484640, Note_off_c, 1, 73, 0
2, 484640, Note_off_c, 1, 78, 0
2, 484680, Note_on_c, 1, 69, 127
2, 484680, Note_on_c, 1, 73, 127
2, 484680, Note_on_c, 1, 79, 127
2, 485040, Note_off_c, 1, 69, 0
2, 485080, Note_on_c, 1, 67, 127
2, 485400, Note_off_c, 1, 67, 0
2, 485480, Note_on_c, 1, 66, 127
2, 485800, Note_off_c, 1, 66, 0
2, 485840, Note_on_c, 1, 64, 127
2, 486200, Note_off_c, 1, 64, 0
2, 486200, Note_off_c, 1, 73, 0
2, 486200, Note_off_c, 1, 79, 0
2, 486240, Note_on_c, 1, 62, 127
2, 486240, Note_on_c, 1, 74, 127
2, 486240, Note_on_c, 1, 78, 127
2, 486560, Note_off_c, 1, 62, 0
2, 486560, Note_off_c, 1, 78, 0
2, 486640, Note_on_c, 1, 61, 127
2, 486640, Note_on_c, 1, 76, 127
2, 486960, Note_off_c, 1, 61, 0
2, 486960, Note_off_c, 1, 76, 0
2, 487000, Note_on_c, 1, 59, 127
2, 487000, Note_on_c, 1, 79, 127
2, 487320, Note_off_c, 1, 59, 0
2, 487320, Note_off_c, 1, 79, 0
2, 487360, Note_on_c, 1, 57, 127
2, 487360, Note_on_c, 1, 78, 127
2, 487720, Note_off_c, 1, 57, 0
2, 487720, Note_off_c, 1, 74, 0
2, 487720, Note_off_c, 1, 78, 0
2, 487760, Note_on_c, 1, 55, 127
2, 487760, Note_on_c, 1, 74, 127
2, 487760, Note_on_c, 1, 83, 127
2, 488080, Note_off_c, 1, 55, 0
2, 488080, Note_off_c, 1, 74, 0
2, 488080, Note_off_c, 1, 83, 0
2, 488120, Note_on_c, 1, 54, 127
2, 488120, Note_on_c, 1, 81, 127
2, 488480, Note_off_c, 1, 54, 0
2, 488480, Note_off_c, 1, 81, 0
2, 488520, Note_on_c, 1, 52, 127
2, 488520, Note_on_c, 1, 79, 127
2, 488520, Note_on_c, 1, 84, 127
2, 488840, Note_off_c, 1, 52, 0
2, 488840, Note_off_c, 1, 79, 0
2, 488840, Note_off_c, 1, 84, 0
2, 488880, Note_on_c, 1, 50, 127
2, 488880, Note_on_c, 1, 78, 127
2, 488880, Note_on_c, 1, 83, 127
2, 489240, Note_off_c, 1, 50, 0
2, 489240, Note_off_c, 1, 78, 0
2, 489240, Note_off_c, 1, 83, 0
2, 489280, Note_on_c, 1, 49, 127
2, 489280, Note_on_c, 1, 76, 127
2, 489280, Note_on_c, 1, 82, 127
2, 489600, Note_off_c, 1, 49, 0
2, 489600, Note_off_c, 1, 76, 0
2, 489600, Note_off_c, 1, 82, 0
2, 489640, Note_on_c, 1, 47, 127
2, 489640, Note_on_c, 1, 74, 127
2, 489640, Note_on_c, 1, 83, 127
2, 489960, Note_off_c, 1, 47, 0
2, 489960, Note_off_c, 1, 74, 0
2, 489960, Note_off_c, 1, 83, 0
2, 490040, Note_on_c, 1, 46, 127
2, 490040, Note_on_c, 1, 73, 127
2, 490040, Note_on_c, 1, 79, 127
2, 490360, Note_off_c, 1, 46, 0
2, 490360, Note_off_c, 1, 73, 0
2, 490360, Note_off_c, 1, 79, 0
2, 490400, Note_on_c, 1, 47, 127
2, 490400, Note_on_c, 1, 74, 127
2, 490400, Note_on_c, 1, 78, 127
2, 490720, Note_off_c, 1, 47, 0
2, 490760, Note_off_c, 1, 74, 0
2, 490760, Note_off_c, 1, 78, 0
2, 490800, Note_on_c, 1, 44, 127
2, 490800, Note_on_c, 1, 71, 127
2, 490800, Note_on_c, 1, 77, 127
2, 491120, Note_off_c, 1, 77, 0
2, 491160, Note_on_c, 1, 78, 127
2, 491520, Note_off_c, 1, 44, 0
2, 491520, Note_off_c, 1, 71, 0
2, 491520, Note_off_c, 1, 78, 0
2, 491560, Note_on_c, 1, 42, 127
2, 491560, Note_on_c, 1, 66, 127
2, 491560, Note_on_c, 1, 71, 127
2, 491560, Note_on_c, 1, 76, 127
2, 491880, Note_off_c, 1, 76, 0
2, 491920, Note_on_c, 1, 74, 127
2, 492280, Note_off_c, 1, 74, 0
2, 492320, Note_off_c, 1, 42, 0
2, 492320, Note_on_c, 1, 54, 127
2, 492320, Note_on_c, 1, 64, 127
2, 492320, Note_off_c, 1, 66, 0
2, 492320, Note_on_c, 1, 70, 127
2, 492320, Note_off_c, 1, 71, 0
2, 492320, Note_on_c, 1, 73, 127
2, 492680, Note_off_c, 1, 73, 0
2, 492720, Note_on_c, 1, 71, 127
2, 493040, Note_off_c, 1, 54, 0
2, 493040, Note_off_c, 1, 64, 0
2, 493040, Note_off_c, 1, 70, 0
2, 493040, Note_off_c, 1, 71, 0
2, 493120, Note_on_c, 1, 47, 127
2, 493120, Note_on_c, 1, 62, 127
2, 493120, Note_on_c, 1, 66, 127
2, 493120, Note_on_c, 1, 71, 127
2, 493480, Note_off_c, 1, 47, 0
2, 493560, Note_on_c, 1, 50, 127
2, 493720, Note_off_c, 1, 50, 0
2, 493760, Note_on_c, 1, 54, 127
2, 493920, Note_off_c, 1, 62, 0
2, 493920, Note_off_c, 1, 66, 0
2, 493920, Note_off_c, 1, 71, 0
2, 493960, Note_off_c, 1, 54, 0
2, 494000, Note_on_c, 1, 59, 127
2, 494000, Note_on_c, 1, 62, 127
2, 494000, Note_on_c, 1, 66, 127
2, 494000, Note_on_c, 1, 71, 127
2, 495720, Note_off_c, 1, 59, 0
2, 495720, Note_off_c, 1, 62, 0
2, 495720, Note_off_c, 1, 66, 0
2, 495720, Note_off_c, 1, 71, 0
2, 495920, Note_on_c, 1, 59, 127
2, 495920, Note_on_c, 1, 83, 127
2, 496040, Note_off_c, 1, 59, 0
2, 496080, Note_on_c, 1, 61, 127
2, 496240, Note_off_c, 1, 61, 0
2, 496240, Note_off_c, 1, 83, 0
2, 496280, Note_on_c, 1, 62, 127
2, 496280, Note_on_c, 1, 79, 127
2, 496320, Note_off_c, 1, 79, 0
2, 496360, Note_on_c, 1, 78, 127
2, 496400, Note_off_c, 1, 62, 0
2, 496400, Note_off_c, 1, 78, 0
2, 496480, Note_on_c, 1, 59, 127
2, 496480, Note_on_c, 1, 79, 127
2, 496520, Note_off_c, 1, 79, 0
2, 496560, Note_on_c, 1, 78, 127
2, 496600, Note_off_c, 1, 59, 0
2, 496600, Note_off_c, 1, 78, 0
2, 496640, Note_on_c, 1, 62, 127
2, 496640, Note_on_c, 1, 76, 127
2, 496760, Note_off_c, 1, 62, 0
2, 496760, Note_off_c, 1, 76, 0
2, 496800, Note_on_c, 1, 59, 127
2, 496800, Note_on_c, 1, 78, 127
2, 496960, Note_off_c, 1, 59, 0
2, 496960, Note_off_c, 1, 78, 0
2, 497000, Note_on_c, 1, 64, 127
2, 497000, Note_on_c, 1, 79, 127
2, 497120, Note_off_c, 1, 64, 0
2, 497160, Note_on_c, 1, 59, 127
2, 497320, Note_off_c, 1, 59, 0
2, 497320, Note_off_c, 1, 79, 0
2, 497360, Note_on_c, 1, 64, 127
2, 497360, Note_on_c, 1, 78, 127
2, 497480, Note_off_c, 1, 64, 0
2, 497480, Note_off_c, 1, 78, 0
2, 497520, Note_on_c, 1, 59, 127
2, 497520, Note_on_c, 1, 76, 127
2, 497680, Note_off_c, 1, 59, 0
2, 497680, Note_off_c, 1, 76, 0
2, 497720, Note_on_c, 1, 62, 127
2, 497720, Note_on_c, 1, 78, 127
2, 497840, Note_off_c, 1, 62, 0
2, 497880, Note_on_c, 1, 59, 127
2, 498040, Note_off_c, 1, 59, 0
2, 498040, Note_off_c, 1, 78, 0
2, 498080, Note_on_c, 1, 64, 127
2, 498080, Note_on_c, 1, 71, 127
2, 498200, Note_off_c, 1, 64, 0
2, 498240, Note_on_c, 1, 59, 127
2, 498400, Note_off_c, 1, 59, 0
2, 498400, Note_off_c, 1, 71, 0
2, 498440, Note_on_c, 1, 62, 127
2, 498440, Note_on_c, 1, 71, 127
2, 498560, Note_off_c, 1, 62, 0
2, 498600, Note_on_c, 1, 59, 127
2, 498760, Note_off_c, 1, 59, 0
2, 498760, Note_off_c, 1, 71, 0
2, 498800, Note_on_c, 1, 61, 127
2, 498800, Note_on_c, 1, 83, 127
2, 498920, Note_off_c, 1, 61, 0
2, 498960, Note_on_c, 1, 59, 127
2, 499120, Note_off_c, 1, 59, 0
2, 499120, Note_off_c, 1, 83, 0
2, 499160, Note_on_c, 1, 62, 127
2, 499160, Note_on_c, 1, 79, 127
2, 499200, Note_off_c, 1, 79, 0
2, 499240, Note_on_c, 1, 78, 127
2, 499280, Note_off_c, 1, 62, 0
2, 499280, Note_off_c, 1, 78, 0
2, 499320, Note_on_c, 1, 59, 127
2, 499320, Note_on_c, 1, 79, 127
2, 499360, Note_off_c, 1, 79, 0
2, 499440, Note_on_c, 1, 78, 127
2, 499480, Note_off_c, 1, 59, 0
2, 499480, Note_off_c, 1, 78, 0
2, 499520, Note_on_c, 1, 62, 127
2, 499520, Note_on_c, 1, 76, 127
2, 499640, Note_off_c, 1, 62, 0
2, 499640, Note_off_c, 1, 76, 0
2, 499680, Note_on_c, 1, 59, 127
2, 499680, Note_on_c, 1, 78, 127
2, 499840, Note_off_c, 1, 59, 0
2, 499840, Note_off_c, 1, 78, 0
2, 499880, Note_on_c, 1, 64, 127
2, 499880, Note_on_c, 1, 79, 127
2, 500000, Note_off_c, 1, 64, 0
2, 500040, Note_on_c, 1, 59, 127
2, 500200, Note_off_c, 1, 59, 0
2, 500200, Note_off_c, 1, 79, 0
2, 500240, Note_on_c, 1, 64, 127
2, 500240, Note_on_c, 1, 78, 127
2, 500360, Note_off_c, 1, 64, 0
2, 500360, Note_off_c, 1, 78, 0
2, 500400, Note_on_c, 1, 59, 127
2, 500400, Note_on_c, 1, 76, 127
2, 500560, Note_off_c, 1, 59, 0
2, 500560, Note_off_c, 1, 76, 0
2, 500600, Note_on_c, 1, 62, 127
2, 500600, Note_on_c, 1, 78, 127
2, 500720, Note_off_c, 1, 62, 0
2, 500760, Note_on_c, 1, 59, 127
2, 500920, Note_off_c, 1, 59, 0
2, 500920, Note_off_c, 1, 78, 0
2, 500960, Note_on_c, 1, 62, 127
2, 500960, Note_on_c, 1, 76, 127
2, 501080, Note_off_c, 1, 62, 0
2, 501080, Note_off_c, 1, 76, 0
2, 501120, Note_on_c, 1, 59, 127
2, 501120, Note_on_c, 1, 74, 127
2, 501280, Note_off_c, 1, 59, 0
2, 501280, Note_off_c, 1, 74, 0
2, 501320, Note_on_c, 1, 61, 127
2, 501320, Note_on_c, 1, 76, 127
2, 501440, Note_off_c, 1, 61, 0
2, 501480, Note_on_c, 1, 59, 127
2, 501640, Note_off_c, 1, 59, 0
2, 501640, Note_off_c, 1, 76, 0
2, 501680, Note_on_c, 1, 61, 127
2, 501680, Note_on_c, 1, 74, 127
2, 501800, Note_off_c, 1, 61, 0
2, 501800, Note_off_c, 1, 74, 0
2, 501840, Note_on_c, 1, 59, 127
2, 501840, Note_on_c, 1, 76, 127
2, 502000, Note_off_c, 1, 59, 0
2, 502000, Note_off_c, 1, 76, 0
2, 502040, Note_on_c, 1, 58, 127
2, 502040, Note_on_c, 1, 78, 127
2, 502160, Note_off_c, 1, 58, 0
2, 502200, Note_on_c, 1, 61, 127
2, 502360, Note_off_c, 1, 61, 0
2, 502360, Note_off_c, 1, 78, 0
2, 502400, Note_on_c, 1, 56, 127
2, 502400, Note_on_c, 1, 76, 127
2, 502520, Note_off_c, 1, 56, 0
2, 502520, Note_off_c, 1, 76, 0
2, 502560, Note_on_c, 1, 61, 127
2, 502560, Note_on_c, 1, 74, 127
2, 502720, Note_off_c, 1, 61, 0
2, 502720, Note_off_c, 1, 74, 0
2, 502760, Note_on_c, 1, 58, 127
2, 502760, Note_on_c, 1, 76, 127
2, 502880, Note_off_c, 1, 58, 0
2, 502920, Note_on_c, 1, 61, 127
2, 503080, Note_off_c, 1, 61, 0
2, 503080, Note_off_c, 1, 76, 0
2, 503120, Note_on_c, 1, 54, 127
2, 503120, Note_on_c, 1, 74, 127
2, 503240, Note_off_c, 1, 54, 0
2, 503240, Note_off_c, 1, 74, 0
2, 503280, Note_on_c, 1, 58, 127
2, 503280, Note_on_c, 1, 73, 127
2, 503440, Note_off_c, 1, 58, 0
2, 503440, Note_off_c, 1, 73, 0
2, 503480, Note_on_c, 1, 59, 127
2, 503480, Note_on_c, 1, 74, 127
2, 503600, Note_off_c, 1, 59, 0
2, 503640, Note_on_c, 1, 54, 127
2, 503800, Note_off_c, 1, 54, 0
2, 503800, Note_off_c, 1, 74, 0
2, 503840, Note_on_c, 1, 59, 127
2, 503840, Note_on_c, 1, 73, 127
2, 503960, Note_off_c, 1, 59, 0
2, 503960, Note_off_c, 1, 73, 0
2, 504000, Note_on_c, 1, 54, 127
2, 504000, Note_on_c, 1, 74, 127
2, 504160, Note_off_c, 1, 54, 0
2, 504160, Note_off_c, 1, 74, 0
2, 504200, Note_on_c, 1, 61, 127
2, 504200, Note_on_c, 1, 76, 127
2, 504320, Note_off_c, 1, 61, 0
2, 504360, Note_on_c, 1, 54, 127
2, 504480, Note_off_c, 1, 76, 0
2, 504520, Note_off_c, 1, 54, 0
2, 504560, Note_on_c, 1, 61, 127
2, 504560, Note_on_c, 1, 74, 127
2, 504680, Note_off_c, 1, 61, 0
2, 504680, Note_off_c, 1, 74, 0
2, 504720, Note_on_c, 1, 54, 127
2, 504720, Note_on_c, 1, 76, 127
2, 504840, Note_off_c, 1, 54, 0
2, 504840, Note_off_c, 1, 76, 0
2, 504920, Note_on_c, 1, 62, 127
2, 504920, Note_on_c, 1, 78, 127
2, 505040, Note_off_c, 1, 62, 0
2, 505040, Note_off_c, 1, 78, 0
2, 505080, Note_on_c, 1, 54, 127
2, 505080, Note_on_c, 1, 76, 127
2, 505200, Note_off_c, 1, 54, 0
2, 505200, Note_off_c, 1, 76, 0
2, 505280, Note_on_c, 1, 59, 127
2, 505280, Note_on_c, 1, 74, 127
2, 505400, Note_off_c, 1, 59, 0
2, 505400, Note_off_c, 1, 74, 0
2, 505440, Note_on_c, 1, 54, 127
2, 505440, Note_on_c, 1, 78, 127
2, 505560, Note_off_c, 1, 54, 0
2, 505560, Note_off_c, 1, 78, 0
2, 505600, Note_on_c, 1, 61, 127
2, 505600, Note_on_c, 1, 76, 127
2, 505760, Note_off_c, 1, 61, 0
2, 505760, Note_off_c, 1, 76, 0
2, 505800, Note_on_c, 1, 54, 127
2, 505800, Note_on_c, 1, 74, 127
2, 505920, Note_off_c, 1, 54, 0
2, 505920, Note_off_c, 1, 74, 0
2, 505960, Note_on_c, 1, 58, 127
2, 505960, Note_on_c, 1, 73, 127
2, 506120, Note_off_c, 1, 58, 0
2, 506120, Note_off_c, 1, 73, 0
2, 506160, Note_on_c, 1, 54, 127
2, 506160, Note_on_c, 1, 74, 127
2, 506280, Note_off_c, 1, 54, 0
2, 506280, Note_off_c, 1, 74, 0
2, 506320, Note_on_c, 1, 59, 127
2, 506320, Note_on_c, 1, 76, 127
2, 506480, Note_off_c, 1, 76, 0
2, 506520, Note_on_c, 1, 74, 127
2, 506640, Note_off_c, 1, 59, 0
2, 506640, Note_off_c, 1, 74, 0
2, 506680, Note_on_c, 1, 54, 127
2, 506680, Note_on_c, 1, 73, 127
2, 506840, Note_off_c, 1, 73, 0
2, 506880, Note_on_c, 1, 74, 127
2, 507000, Note_off_c, 1, 54, 0
2, 507000, Note_off_c, 1, 74, 0
2, 507040, Note_on_c, 1, 50, 127
2, 507040, Note_on_c, 1, 71, 127
2, 507200, Note_off_c, 1, 71, 0
2, 507240, Note_on_c, 1, 74, 127
2, 507360, Note_off_c, 1, 50, 0
2, 507360, Note_off_c, 1, 74, 0
2, 507400, Note_on_c, 1, 54, 127
2, 507400, Note_on_c, 1, 73, 127
2, 507560, Note_off_c, 1, 73, 0
2, 507600, Note_on_c, 1, 76, 127
2, 507720, Note_off_c, 1, 54, 0
2, 507720, Note_off_c, 1, 76, 0
2, 507760, Note_on_c, 1, 47, 127
2, 507760, Note_on_c, 1, 74, 127
2, 507920, Note_off_c, 1, 74, 0
2, 507960, Note_on_c, 1, 73, 127
2, 508080, Note_off_c, 1, 47, 0
2, 508080, Note_off_c, 1, 73, 0
2, 508120, Note_on_c, 1, 50, 127
2, 508120, Note_on_c, 1, 71, 127
2, 508280, Note_off_c, 1, 71, 0
2, 508320, Note_on_c, 1, 78, 127
2, 508440, Note_off_c, 1, 50, 0
2, 508440, Note_off_c, 1, 78, 0
2, 508480, Note_on_c, 1, 54, 127
2, 508480, Note_on_c, 1, 74, 127
2, 508640, Note_off_c, 1, 74, 0
2, 508680, Note_on_c, 1, 73, 127
2, 508800, Note_off_c, 1, 54, 0
2, 508800, Note_off_c, 1, 73, 0
2, 508840, Note_on_c, 1, 57, 127
2, 508840, Note_on_c, 1, 71, 127
2, 509000, Note_off_c, 1, 71, 0
2, 509040, Note_on_c, 1, 78, 127
2, 509160, Note_off_c, 1, 57, 0
2, 509160, Note_off_c, 1, 78, 0
2, 509200, Note_on_c, 1, 56, 127
2, 509200, Note_on_c, 1, 74, 127
2, 509360, Note_off_c, 1, 74, 0
2, 509400, Note_on_c, 1, 73, 127
2, 509520, Note_off_c, 1, 56, 0
2, 509520, Note_off_c, 1, 73, 0
2, 509560, Note_on_c, 1, 59, 127
2, 509560, Note_on_c, 1, 71, 127
2, 509720, Note_off_c, 1, 71, 0
2, 509760, Note_on_c, 1, 76, 127
2, 509880, Note_off_c, 1, 59, 0
2, 509880, Note_off_c, 1, 76, 0
2, 509920, Note_on_c, 1, 52, 127
2, 509920, Note_on_c, 1, 74, 127
2, 510080, Note_off_c, 1, 74, 0
2, 510120, Note_on_c, 1, 73, 127
2, 510240, Note_off_c, 1, 52, 0
2, 510240, Note_off_c, 1, 73, 0
2, 510280, Note_on_c, 1, 56, 127
2, 510280, Note_on_c, 1, 71, 127
2, 510440, Note_off_c, 1, 71, 0
2, 510480, Note_on_c, 1, 76, 127
2, 510600, Note_off_c, 1, 56, 0
2, 510600, Note_off_c, 1, 76, 0
2, 510640, Note_on_c, 1, 45, 127
2, 510640, Note_on_c, 1, 73, 127
2, 510800, Note_off_c, 1, 73, 0
2, 510840, Note_on_c, 1, 71, 127
2, 510960, Note_off_c, 1, 45, 0
2, 510960, Note_off_c, 1, 71, 0
2, 511000, Note_on_c, 1, 49, 127
2, 511000, Note_on_c, 1, 69, 127
2, 511160, Note_off_c, 1, 69, 0
2, 511200, Note_on_c, 1, 76, 127
2, 511320, Note_off_c, 1, 49, 0
2, 511320, Note_off_c, 1, 76, 0
2, 511360, Note_on_c, 1, 52, 127
2, 511360, Note_on_c, 1, 73, 127
2, 511520, Note_off_c, 1, 73, 0
2, 511560, Note_on_c, 1, 71, 127
2, 511680, Note_off_c, 1, 52, 0
2, 511680, Note_off_c, 1, 71, 0
2, 511720, Note_on_c, 1, 56, 127
2, 511720, Note_on_c, 1, 69, 127
2, 511880, Note_off_c, 1, 69, 0
2, 511920, Note_on_c, 1, 76, 127
2, 512040, Note_off_c, 1, 56, 0
2, 512040, Note_off_c, 1, 76, 0
2, 512080, Note_on_c, 1, 54, 127
2, 512080, Note_on_c, 1, 73, 127
2, 512240, Note_off_c, 1, 73, 0
2, 512280, Note_on_c, 1, 71, 127
2, 512400, Note_off_c, 1, 54, 0
2, 512400, Note_off_c, 1, 71, 0
2, 512440, Note_on_c, 1, 57, 127
2, 512440, Note_on_c, 1, 69, 127
2, 512600, Note_off_c, 1, 69, 0
2, 512640, Note_on_c, 1, 74, 127
2, 512760, Note_off_c, 1, 57, 0
2, 512760, Note_off_c, 1, 74, 0
2, 512800, Note_on_c, 1, 50, 127
2, 512800, Note_on_c, 1, 73, 127
2, 512960, Note_off_c, 1, 73, 0
2, 513000, Note_on_c, 1, 71, 127
2, 513120, Note_off_c, 1, 50, 0
2, 513120, Note_off_c, 1, 71, 0
2, 513160, Note_on_c, 1, 54, 127
2, 513160, Note_on_c, 1, 69, 127
2, 513320, Note_off_c, 1, 69, 0
2, 513360, Note_on_c, 1, 74, 127
2, 513480, Note_off_c, 1, 54, 0
2, 513480, Note_off_c, 1, 74, 0
2, 513520, Note_on_c, 1, 44, 127
2, 513520, Note_on_c, 1, 71, 127
2, 513680, Note_off_c, 1, 71, 0
2, 513720, Note_on_c, 1, 69, 127
2, 513840, Note_off_c, 1, 44, 0
2, 513840, Note_off_c, 1, 69, 0
2, 513880, Note_on_c, 1, 47, 127
2, 513880, Note_on_c, 1, 68, 127
2, 514040, Note_off_c, 1, 68, 0
2, 514080, Note_on_c, 1, 74, 127
2, 514200, Note_off_c, 1, 47, 0
2, 514200, Note_off_c, 1, 74, 0
2, 514240, Note_on_c, 1, 50, 127
2, 514240, Note_on_c, 1, 71, 127
2, 514400, Note_off_c, 1, 71, 0
2, 514440, Note_on_c, 1, 69, 127
2, 514560, Note_off_c, 1, 50, 0
2, 514560, Note_off_c, 1, 69, 0
2, 514600, Note_on_c, 1, 54, 127
2, 514600, Note_on_c, 1, 68, 127
2, 514760, Note_off_c, 1, 68, 0
2, 514800, Note_on_c, 1, 74, 127
2, 514920, Note_off_c, 1, 54, 0
2, 514920, Note_off_c, 1, 74, 0
2, 514960, Note_on_c, 1, 53, 127
2, 514960, Note_on_c, 1, 71, 127
2, 515120, Note_off_c, 1, 71, 0
2, 515160, Note_on_c, 1, 69, 127
2, 515280, Note_off_c, 1, 53, 0
2, 515280, Note_off_c, 1, 69, 0
2, 515320, Note_on_c, 1, 56, 127
2, 515320, Note_on_c, 1, 68, 127
2, 515480, Note_off_c, 1, 68, 0
2, 515520, Note_on_c, 1, 73, 127
2, 515640, Note_off_c, 1, 56, 0
2, 515640, Note_off_c, 1, 73, 0
2, 515680, Note_on_c, 1, 49, 127
2, 515680, Note_on_c, 1, 71, 127
2, 515840, Note_off_c, 1, 71, 0
2, 515880, Note_on_c, 1, 69, 127
2, 516000, Note_off_c, 1, 49, 0
2, 516000, Note_off_c, 1, 69, 0
2, 516040, Note_on_c, 1, 53, 127
2, 516040, Note_on_c, 1, 68, 127
2, 516160, Note_off_c, 1, 68, 0
2, 516240, Note_on_c, 1, 73, 127
2, 516360, Note_off_c, 1, 53, 0
2, 516360, Note_off_c, 1, 73, 0
2, 516400, Note_on_c, 1, 54, 127
2, 516400, Note_on_c, 1, 71, 127
2, 516440, Note_off_c, 1, 71, 0
2, 516480, Note_on_c, 1, 69, 127
2, 516520, Note_off_c, 1, 54, 0
2, 516520, Note_off_c, 1, 69, 0
2, 516560, Note_on_c, 1, 49, 127
2, 516560, Note_on_c, 1, 71, 127
2, 516640, Note_off_c, 1, 71, 0
2, 516680, Note_on_c, 1, 69, 127
2, 516720, Note_off_c, 1, 49, 0
2, 516720, Note_off_c, 1, 69, 0
2, 516760, Note_on_c, 1, 54, 127
2, 516760, Note_on_c, 1, 68, 127
2, 516880, Note_off_c, 1, 54, 0
2, 516880, Note_off_c, 1, 68, 0
2, 516920, Note_on_c, 1, 49, 127
2, 516920, Note_on_c, 1, 69, 127
2, 517080, Note_off_c, 1, 49, 0
2, 517080, Note_off_c, 1, 69, 0
2, 517120, Note_on_c, 1, 53, 127
2, 517120, Note_on_c, 1, 71, 127
2, 517240, Note_off_c, 1, 53, 0
2, 517280, Note_on_c, 1, 49, 127
2, 517440, Note_off_c, 1, 49, 0
2, 517440, Note_off_c, 1, 71, 0
2, 517480, Note_on_c, 1, 53, 127
2, 517480, Note_on_c, 1, 69, 127
2, 517600, Note_off_c, 1, 53, 0
2, 517600, Note_off_c, 1, 69, 0
2, 517640, Note_on_c, 1, 49, 127
2, 517640, Note_on_c, 1, 68, 127
2, 517800, Note_off_c, 1, 49, 0
2, 517800, Note_off_c, 1, 68, 0
2, 517840, Note_on_c, 1, 54, 127
2, 517840, Note_on_c, 1, 69, 127
2, 517960, Note_off_c, 1, 69, 0
2, 518000, Note_on_c, 1, 68, 127
2, 518160, Note_off_c, 1, 54, 0
2, 518160, Note_off_c, 1, 68, 0
2, 518200, Note_on_c, 1, 49, 127
2, 518200, Note_on_c, 1, 66, 127
2, 518320, Note_off_c, 1, 66, 0
2, 518360, Note_on_c, 1, 68, 127
2, 518520, Note_off_c, 1, 49, 0
2, 518520, Note_off_c, 1, 68, 0
2, 518560, Note_on_c, 1, 42, 127
2, 518560, Note_on_c, 1, 69, 127
2, 518680, Note_off_c, 1, 69, 0
2, 518720, Note_on_c, 1, 71, 127
2, 518880, Note_off_c, 1, 42, 0
2, 518880, Note_off_c, 1, 71, 0
2, 518920, Note_on_c, 1, 53, 127
2, 518920, Note_on_c, 1, 73, 127
2, 519040, Note_off_c, 1, 73, 0
2, 519080, Note_on_c, 1, 68, 127
2, 519240, Note_off_c, 1, 53, 0
2, 519240, Note_off_c, 1, 68, 0
2, 519280, Note_on_c, 1, 54, 127
2, 519280, Note_on_c, 1, 69, 127
2, 519400, Note_off_c, 1, 54, 0
2, 519400, Note_off_c, 1, 69, 0
2, 519440, Note_on_c, 1, 49, 127
2, 519440, Note_on_c, 1, 71, 127
2, 519600, Note_off_c, 1, 49, 0
2, 519600, Note_off_c, 1, 71, 0
2, 519640, Note_on_c, 1, 54, 127
2, 519640, Note_on_c, 1, 68, 127
2, 519760, Note_off_c, 1, 54, 0
2, 519760, Note_off_c, 1, 68, 0
2, 519800, Note_on_c, 1, 49, 127
2, 519800, Note_on_c, 1, 69, 127
2, 519960, Note_off_c, 1, 49, 0
2, 519960, Note_off_c, 1, 69, 0
2, 520000, Note_on_c, 1, 53, 127
2, 520000, Note_on_c, 1, 71, 127
2, 520120, Note_off_c, 1, 53, 0
2, 520120, Note_off_c, 1, 71, 0
2, 520160, Note_on_c, 1, 49, 127
2, 520160, Note_on_c, 1, 68, 127
2, 520320, Note_off_c, 1, 49, 0
2, 520320, Note_off_c, 1, 68, 0
2, 520360, Note_on_c, 1, 53, 127
2, 520360, Note_on_c, 1, 69, 127
2, 520480, Note_off_c, 1, 53, 0
2, 520480, Note_off_c, 1, 69, 0
2, 520520, Note_on_c, 1, 49, 127
2, 520520, Note_on_c, 1, 71, 127
2, 520680, Note_off_c, 1, 49, 0
2, 520680, Note_off_c, 1, 71, 0
2, 520720, Note_on_c, 1, 54, 127
2, 520720, Note_on_c, 1, 69, 127
2, 520840, Note_off_c, 1, 69, 0
2, 520880, Note_on_c, 1, 66, 127
2, 521040, Note_off_c, 1, 54, 0
2, 521040, Note_off_c, 1, 66, 0
2, 521080, Note_on_c, 1, 49, 127
2, 521080, Note_on_c, 1, 69, 127
2, 521200, Note_off_c, 1, 69, 0
2, 521240, Note_on_c, 1, 73, 127
2, 521400, Note_off_c, 1, 49, 0
2, 521400, Note_off_c, 1, 73, 0
2, 521440, Note_on_c, 1, 54, 127
2, 521440, Note_on_c, 1, 69, 127
2, 521560, Note_off_c, 1, 69, 0
2, 521600, Note_on_c, 1, 73, 127
2, 521760, Note_off_c, 1, 54, 0
2, 521760, Note_off_c, 1, 73, 0
2, 521800, Note_on_c, 1, 57, 127
2, 521800, Note_on_c, 1, 78, 127
2, 521920, Note_off_c, 1, 78, 0
2, 521960, Note_on_c, 1, 73, 127
2, 522120, Note_off_c, 1, 57, 0
2, 522120, Note_off_c, 1, 73, 0
2, 522160, Note_on_c, 1, 54, 127
2, 522160, Note_on_c, 1, 78, 127
2, 522280, Note_off_c, 1, 78, 0
2, 522320, Note_on_c, 1, 81, 127
2, 522480, Note_off_c, 1, 54, 0
2, 522480, Note_off_c, 1, 81, 0
2, 522520, Note_on_c, 1, 57, 127
2, 522520, Note_on_c, 1, 78, 127
2, 522640, Note_off_c, 1, 78, 0
2, 522680, Note_on_c, 1, 81, 127
2, 522840, Note_off_c, 1, 57, 0
2, 522840, Note_off_c, 1, 81, 0
2, 522880, Note_on_c, 1, 61, 127
2, 522880, Note_on_c, 1, 83, 127
2, 523000, Note_off_c, 1, 83, 0
2, 523040, Note_on_c, 1, 81, 127
2, 523200, Note_off_c, 1, 61, 0
2, 523200, Note_off_c, 1, 81, 0
2, 523240, Note_on_c, 1, 66, 127
2, 523240, Note_on_c, 1, 80, 127
2, 523360, Note_off_c, 1, 80, 0
2, 523400, Note_on_c, 1, 78, 127
2, 523560, Note_off_c, 1, 66, 0
2, 523560, Note_off_c, 1, 78, 0
2, 523600, Note_on_c, 1, 65, 127
2, 523600, Note_on_c, 1, 80, 127
2, 523720, Note_off_c, 1, 80, 0
2, 523760, Note_on_c, 1, 78, 127
2, 523920, Note_off_c, 1, 65, 0
2, 523920, Note_off_c, 1, 78, 0
2, 523960, Note_on_c, 1, 61, 127
2, 523960, Note_on_c, 1, 77, 127
2, 524120, Note_off_c, 1, 77, 0
2, 524120, Note_on_c, 1, 85, 127
2, 524280, Note_off_c, 1, 61, 0
2, 524280, Note_off_c, 1, 85, 0
2, 524320, Note_on_c, 1, 65, 127
2, 524320, Note_on_c, 1, 80, 127
2, 524440, Note_off_c, 1, 80, 0
2, 524480, Note_on_c, 1, 78, 127
2, 524640, Note_off_c, 1, 65, 0
2, 524640, Note_off_c, 1, 78, 0
2, 524680, Note_on_c, 1, 61, 127
2, 524680, Note_on_c, 1, 77, 127
2, 524840, Note_off_c, 1, 77, 0
2, 524840, Note_on_c, 1, 85, 127
2, 525000, Note_off_c, 1, 61, 0
2, 525000, Note_off_c, 1, 85, 0
2, 525040, Note_on_c, 1, 66, 127
2, 525040, Note_on_c, 1, 81, 127
2, 525160, Note_off_c, 1, 81, 0
2, 525200, Note_on_c, 1, 80, 127
2, 525360, Note_off_c, 1, 66, 0
2, 525360, Note_off_c, 1, 80, 0
2, 525400, Note_on_c, 1, 61, 127
2, 525400, Note_on_c, 1, 78, 127
2, 525560, Note_off_c, 1, 78, 0
2, 525560, Note_on_c, 1, 85, 127
2, 525680, Note_off_c, 1, 61, 0
2, 525720, Note_off_c, 1, 85, 0
2, 525760, Note_on_c, 1, 54, 127
2, 525760, Note_on_c, 1, 81, 127
2, 525880, Note_off_c, 1, 81, 0
2, 525920, Note_on_c, 1, 80, 127
2, 526040, Note_off_c, 1, 54, 0
2, 526040, Note_off_c, 1, 80, 0
2, 526120, Note_on_c, 1, 57, 127
2, 526120, Note_on_c, 1, 78, 127
2, 526240, Note_off_c, 1, 78, 0
2, 526280, Note_on_c, 1, 85, 127
2, 526400, Note_off_c, 1, 57, 0
2, 526400, Note_off_c, 1, 85, 0
2, 526480, Note_on_c, 1, 59, 127
2, 526480, Note_on_c, 1, 77, 127
2, 526600, Note_off_c, 1, 77, 0
2, 526640, Note_on_c, 1, 75, 127
2, 526760, Note_off_c, 1, 59, 0
2, 526760, Note_off_c, 1, 75, 0
2, 526800, Note_on_c, 1, 57, 127
2, 526800, Note_on_c, 1, 73, 127
2, 526960, Note_off_c, 1, 73, 0
2, 527000, Note_on_c, 1, 85, 127
2, 527120, Note_off_c, 1, 57, 0
2, 527120, Note_off_c, 1, 85, 0
2, 527160, Note_on_c, 1, 59, 127
2, 527160, Note_on_c, 1, 77, 127
2, 527320, Note_off_c, 1, 77, 0
2, 527360, Note_on_c, 1, 75, 127
2, 527480, Note_off_c, 1, 59, 0
2, 527480, Note_off_c, 1, 75, 0
2, 527520, Note_on_c, 1, 56, 127
2, 527520, Note_on_c, 1, 73, 127
2, 527680, Note_off_c, 1, 73, 0
2, 527720, Note_on_c, 1, 77, 127
2, 527840, Note_off_c, 1, 56, 0
2, 527840, Note_off_c, 1, 77, 0
2, 527880, Note_on_c, 1, 57, 127
2, 527880, Note_on_c, 1, 78, 127
2, 528200, Note_off_c, 1, 57, 0
2, 528200, Note_off_c, 1, 78, 0
2, 528240, Note_on_c, 1, 59, 127
2, 528240, Note_on_c, 1, 80, 127
2, 528560, Note_off_c, 1, 59, 0
2, 528560, Note_off_c, 1, 80, 0
2, 528600, Note_on_c, 1, 61, 127
2, 528600, Note_on_c, 1, 73, 127
2, 528920, Note_off_c, 1, 61, 0
2, 528920, Note_off_c, 1, 73, 0
2, 528960, Note_on_c, 1, 49, 127
2, 528960, Note_on_c, 1, 77, 127
2, 529280, Note_off_c, 1, 49, 0
2, 529280, Note_off_c, 1, 77, 0
2, 529320, Note_on_c, 1, 54, 127
2, 529320, Note_on_c, 1, 78, 127
2, 529640, Note_off_c, 1, 54, 0
2, 529680, Note_on_c, 1, 49, 127
2, 530000, Note_off_c, 1, 49, 0
2, 530040, Note_on_c, 1, 42, 127
2, 530360, Note_off_c, 1, 42, 0
2, 530360, Note_off_c, 1, 78, 0
2, 530400, Note_on_c, 1, 54, 127
2, 530400, Note_on_c, 1, 73, 127
2, 530560, Note_off_c, 1, 54, 0
2, 530600, Note_on_c, 1, 56, 127
2, 530720, Note_off_c, 1, 56, 0
2, 530720, Note_off_c, 1, 73, 0
2, 530760, Note_on_c, 1, 58, 127
2, 530760, Note_on_c, 1, 74, 127
2, 530840, Note_off_c, 1, 74, 0
2, 530880, Note_on_c, 1, 73, 127
2, 530920, Note_off_c, 1, 58, 0
2, 530920, Note_off_c, 1, 73, 0
2, 530960, Note_on_c, 1, 54, 127
2, 530960, Note_on_c, 1, 74, 127
2, 531000, Note_off_c, 1, 74, 0
2, 531040, Note_on_c, 1, 73, 127
2, 531080, Note_off_c, 1, 54, 0
2, 531080, Note_off_c, 1, 73, 0
2, 531120, Note_on_c, 1, 58, 127
2, 531120, Note_on_c, 1, 71, 127
2, 531280, Note_off_c, 1, 58, 0
2, 531280, Note_off_c, 1, 71, 0
2, 531320, Note_on_c, 1, 54, 127
2, 531320, Note_on_c, 1, 73, 127
2, 531440, Note_off_c, 1, 54, 0
2, 531440, Note_off_c, 1, 73, 0
2, 531480, Note_on_c, 1, 59, 127
2, 531480, Note_on_c, 1, 74, 127
2, 531640, Note_off_c, 1, 59, 0
2, 531680, Note_on_c, 1, 54, 127
2, 531800, Note_off_c, 1, 54, 0
2, 531800, Note_off_c, 1, 74, 0
2, 531840, Note_on_c, 1, 59, 127
2, 531840, Note_on_c, 1, 73, 127
2, 532000, Note_off_c, 1, 59, 0
2, 532000, Note_off_c, 1, 73, 0
2, 532040, Note_on_c, 1, 54, 127
2, 532040, Note_on_c, 1, 74, 127
2, 532160, Note_off_c, 1, 54, 0
2, 532160, Note_off_c, 1, 74, 0
2, 532200, Note_on_c, 1, 61, 127
2, 532200, Note_on_c, 1, 76, 127
2, 532360, Note_off_c, 1, 61, 0
2, 532400, Note_on_c, 1, 54, 127
2, 532520, Note_off_c, 1, 54, 0
2, 532520, Note_off_c, 1, 76, 0
2, 532560, Note_on_c, 1, 61, 127
2, 532560, Note_on_c, 1, 74, 127
2, 532720, Note_off_c, 1, 61, 0
2, 532720, Note_off_c, 1, 74, 0
2, 532760, Note_on_c, 1, 54, 127
2, 532760, Note_on_c, 1, 73, 127
2, 532880, Note_off_c, 1, 54, 0
2, 532880, Note_off_c, 1, 73, 0
2, 532920, Note_on_c, 1, 62, 127
2, 532920, Note_on_c, 1, 71, 127
2, 533080, Note_off_c, 1, 62, 0
2, 533080, Note_off_c, 1, 71, 0
2, 533120, Note_on_c, 1, 54, 127
2, 533120, Note_on_c, 1, 70, 127
2, 533240, Note_off_c, 1, 54, 0
2, 533240, Note_off_c, 1, 70, 0
2, 533280, Note_on_c, 1, 64, 127
2, 533280, Note_on_c, 1, 79, 127
2, 533440, Note_off_c, 1, 64, 0
2, 533480, Note_on_c, 1, 54, 127
2, 533600, Note_off_c, 1, 54, 0
2, 533600, Note_off_c, 1, 79, 0
2, 533640, Note_on_c, 1, 62, 127
2, 533640, Note_on_c, 1, 78, 127
2, 533800, Note_off_c, 1, 62, 0
2, 533840, Note_on_c, 1, 54, 127
2, 533960, Note_off_c, 1, 54, 0
2, 533960, Note_off_c, 1, 78, 0
2, 534000, Note_on_c, 1, 59, 127
2, 534000, Note_on_c, 1, 76, 127
2, 534160, Note_off_c, 1, 59, 0
2, 534160, Note_off_c, 1, 76, 0
2, 534200, Note_on_c, 1, 54, 127
2, 534200, Note_on_c, 1, 74, 127
2, 534320, Note_off_c, 1, 54, 0
2, 534320, Note_off_c, 1, 74, 0
2, 534360, Note_on_c, 1, 61, 127
2, 534360, Note_on_c, 1, 76, 127
2, 534520, Note_off_c, 1, 61, 0
2, 534560, Note_on_c, 1, 54, 127
2, 534680, Note_off_c, 1, 54, 0
2, 534680, Note_off_c, 1, 76, 0
2, 534720, Note_on_c, 1, 58, 127
2, 534720, Note_on_c, 1, 74, 127
2, 534880, Note_off_c, 1, 58, 0
2, 534880, Note_off_c, 1, 74, 0
2, 534920, Note_on_c, 1, 54, 127
2, 534920, Note_on_c, 1, 73, 127
2, 535040, Note_off_c, 1, 54, 0
2, 535040, Note_off_c, 1, 73, 0
2, 535080, Note_on_c, 1, 59, 127
2, 535080, Note_on_c, 1, 76, 127
2, 535240, Note_off_c, 1, 76, 0
2, 535280, Note_on_c, 1, 74, 127
2, 535400, Note_off_c, 1, 59, 0
2, 535400, Note_off_c, 1, 74, 0
2, 535440, Note_on_c, 1, 54, 127
2, 535440, Note_on_c, 1, 73, 127
2, 535560, Note_off_c, 1, 73, 0
2, 535640, Note_on_c, 1, 74, 127
2, 535760, Note_off_c, 1, 54, 0
2, 535760, Note_off_c, 1, 74, 0
2, 535800, Note_on_c, 1, 47, 127
2, 535800, Note_on_c, 1, 71, 127
2, 535920, Note_off_c, 1, 47, 0
2, 535920, Note_off_c, 1, 71, 0
2, 536000, Note_on_c, 1, 54, 127
2, 536000, Note_on_c, 1, 73, 127
2, 536120, Note_off_c, 1, 54, 0
2, 536120, Note_off_c, 1, 73, 0
2, 536160, Note_on_c, 1, 59, 127
2, 536160, Note_on_c, 1, 74, 127
2, 536280, Note_off_c, 1, 59, 0
2, 536280, Note_off_c, 1, 74, 0
2, 536360, Note_on_c, 1, 61, 127
2, 536360, Note_on_c, 1, 76, 127
2, 536480, Note_off_c, 1, 61, 0
2, 536480, Note_off_c, 1, 76, 0
2, 536520, Note_on_c, 1, 63, 127
2, 536520, Note_on_c, 1, 78, 127
2, 536640, Note_off_c, 1, 63, 0
2, 536640, Note_off_c, 1, 78, 0
2, 536680, Note_on_c, 1, 59, 127
2, 536680, Note_on_c, 1, 79, 127
2, 536840, Note_off_c, 1, 59, 0
2, 536840, Note_off_c, 1, 79, 0
2, 536880, Note_on_c, 1, 63, 127
2, 536880, Note_on_c, 1, 76, 127
2, 537000, Note_off_c, 1, 63, 0
2, 537000, Note_off_c, 1, 76, 0
2, 537040, Note_on_c, 1, 59, 127
2, 537040, Note_on_c, 1, 78, 127
2, 537200, Note_off_c, 1, 59, 0
2, 537200, Note_off_c, 1, 78, 0
2, 537240, Note_on_c, 1, 64, 127
2, 537240, Note_on_c, 1, 79, 127
2, 537360, Note_off_c, 1, 64, 0
2, 537360, Note_off_c, 1, 79, 0
2, 537400, Note_on_c, 1, 59, 127
2, 537400, Note_on_c, 1, 81, 127
2, 537560, Note_off_c, 1, 59, 0
2, 537560, Note_off_c, 1, 81, 0
2, 537600, Note_on_c, 1, 64, 127
2, 537600, Note_on_c, 1, 78, 127
2, 537720, Note_off_c, 1, 64, 0
2, 537720, Note_off_c, 1, 78, 0
2, 537760, Note_on_c, 1, 59, 127
2, 537760, Note_on_c, 1, 79, 127
2, 537920, Note_off_c, 1, 59, 0
2, 537920, Note_off_c, 1, 79, 0
2, 537960, Note_on_c, 1, 66, 127
2, 537960, Note_on_c, 1, 81, 127
2, 538080, Note_off_c, 1, 66, 0
2, 538080, Note_off_c, 1, 81, 0
2, 538120, Note_on_c, 1, 59, 127
2, 538120, Note_on_c, 1, 83, 127
2, 538280, Note_off_c, 1, 59, 0
2, 538280, Note_off_c, 1, 83, 0
2, 538320, Note_on_c, 1, 66, 127
2, 538320, Note_on_c, 1, 81, 127
2, 538440, Note_off_c, 1, 66, 0
2, 538440, Note_off_c, 1, 81, 0
2, 538480, Note_on_c, 1, 59, 127
2, 538480, Note_on_c, 1, 79, 127
2, 538640, Note_off_c, 1, 59, 0
2, 538640, Note_off_c, 1, 79, 0
2, 538680, Note_on_c, 1, 67, 127
2, 538680, Note_on_c, 1, 78, 127
2, 538800, Note_off_c, 1, 67, 0
2, 538800, Note_off_c, 1, 78, 0
2, 538840, Note_on_c, 1, 59, 127
2, 538840, Note_on_c, 1, 76, 127
2, 539000, Note_off_c, 1, 59, 0
2, 539000, Note_off_c, 1, 76, 0
2, 539040, Note_on_c, 1, 69, 127
2, 539040, Note_on_c, 1, 75, 127
2, 539160, Note_off_c, 1, 69, 0
2, 539160, Note_off_c, 1, 75, 0
2, 539200, Note_on_c, 1, 59, 127
2, 539200, Note_on_c, 1, 84, 127
2, 539360, Note_off_c, 1, 59, 0
2, 539360, Note_off_c, 1, 84, 0
2, 539400, Note_on_c, 1, 67, 127
2, 539400, Note_on_c, 1, 83, 127
2, 539520, Note_off_c, 1, 67, 0
2, 539520, Note_off_c, 1, 83, 0
2, 539560, Note_on_c, 1, 59, 127
2, 539560, Note_on_c, 1, 81, 127
2, 539720, Note_off_c, 1, 59, 0
2, 539720, Note_off_c, 1, 81, 0
2, 539760, Note_on_c, 1, 64, 127
2, 539760, Note_on_c, 1, 79, 127
2, 539880, Note_off_c, 1, 64, 0
2, 539880, Note_off_c, 1, 79, 0
2, 539920, Note_on_c, 1, 59, 127
2, 539920, Note_on_c, 1, 83, 127
2, 540080, Note_off_c, 1, 59, 0
2, 540080, Note_off_c, 1, 83, 0
2, 540120, Note_on_c, 1, 66, 127
2, 540120, Note_on_c, 1, 81, 127
2, 540240, Note_off_c, 1, 66, 0
2, 540240, Note_off_c, 1, 81, 0
2, 540280, Note_on_c, 1, 59, 127
2, 540280, Note_on_c, 1, 79, 127
2, 540440, Note_off_c, 1, 59, 0
2, 540440, Note_off_c, 1, 79, 0
2, 540480, Note_on_c, 1, 63, 127
2, 540480, Note_on_c, 1, 78, 127
2, 540600, Note_off_c, 1, 63, 0
2, 540600, Note_off_c, 1, 78, 0
2, 540640, Note_on_c, 1, 59, 127
2, 540640, Note_on_c, 1, 79, 127
2, 540800, Note_off_c, 1, 59, 0
2, 540800, Note_off_c, 1, 79, 0
2, 540840, Note_on_c, 1, 64, 127
2, 540840, Note_on_c, 1, 81, 127
2, 540960, Note_off_c, 1, 81, 0
2, 541000, Note_on_c, 1, 79, 127
2, 541160, Note_off_c, 1, 64, 0
2, 541160, Note_off_c, 1, 79, 0
2, 541200, Note_on_c, 1, 59, 127
2, 541200, Note_on_c, 1, 78, 127
2, 541320, Note_off_c, 1, 78, 0
2, 541360, Note_on_c, 1, 79, 127
2, 541520, Note_off_c, 1, 59, 0
2, 541520, Note_off_c, 1, 79, 0
2, 541560, Note_on_c, 1, 55, 127
2, 541560, Note_on_c, 1, 76, 127
2, 541680, Note_off_c, 1, 76, 0
2, 541720, Note_on_c, 1, 79, 127
2, 541880, Note_off_c, 1, 55, 0
2, 541880, Note_off_c, 1, 79, 0
2, 541920, Note_on_c, 1, 59, 127
2, 541920, Note_on_c, 1, 78, 127
2, 542040, Note_off_c, 1, 78, 0
2, 542080, Note_on_c, 1, 81, 127
2, 542240, Note_off_c, 1, 59, 0
2, 542240, Note_off_c, 1, 81, 0
2, 542280, Note_on_c, 1, 52, 127
2, 542280, Note_on_c, 1, 79, 127
2, 542400, Note_off_c, 1, 79, 0
2, 542440, Note_on_c, 1, 78, 127
2, 542600, Note_off_c, 1, 52, 0
2, 542600, Note_off_c, 1, 78, 0
2, 542640, Note_on_c, 1, 40, 127
2, 542640, Note_on_c, 1, 76, 127
2, 542760, Note_off_c, 1, 76, 0
2, 542800, Note_on_c, 1, 83, 127
2, 542960, Note_off_c, 1, 40, 0
2, 542960, Note_off_c, 1, 83, 0
2, 543000, Note_on_c, 1, 42, 127
2, 543000, Note_on_c, 1, 79, 127
2, 543120, Note_off_c, 1, 79, 0
2, 543160, Note_on_c, 1, 78, 127
2, 543320, Note_off_c, 1, 42, 0
2, 543320, Note_off_c, 1, 78, 0
2, 543360, Note_on_c, 1, 43, 127
2, 543360, Note_on_c, 1, 76, 127
2, 543480, Note_off_c, 1, 76, 0
2, 543520, Note_on_c, 1, 74, 127
2, 543680, Note_off_c, 1, 43, 0
2, 543680, Note_off_c, 1, 74, 0
2, 543720, Note_on_c, 1, 45, 127
2, 543720, Note_on_c, 1, 72, 127
2, 543840, Note_off_c, 1, 72, 0
2, 543880, Note_on_c, 1, 71, 127
2, 544040, Note_off_c, 1, 45, 0
2, 544040, Note_off_c, 1, 71, 0
2, 544080, Note_on_c, 1, 57, 127
2, 544080, Note_on_c, 1, 69, 127
2, 544200, Note_off_c, 1, 69, 0
2, 544240, Note_on_c, 1, 76, 127
2, 544400, Note_off_c, 1, 57, 0
2, 544400, Note_off_c, 1, 76, 0
2, 544440, Note_on_c, 1, 59, 127
2, 544440, Note_on_c, 1, 72, 127
2, 544560, Note_off_c, 1, 72, 0
2, 544600, Note_on_c, 1, 71, 127
2, 544760, Note_off_c, 1, 59, 0
2, 544760, Note_off_c, 1, 71, 0
2, 544800, Note_on_c, 1, 60, 127
2, 544800, Note_on_c, 1, 69, 127
2, 544920, Note_off_c, 1, 69, 0
2, 544960, Note_on_c, 1, 79, 127
2, 545120, Note_off_c, 1, 60, 0
2, 545120, Note_off_c, 1, 79, 0
2, 545160, Note_on_c, 1, 62, 127
2, 545160, Note_on_c, 1, 78, 127
2, 545280, Note_off_c, 1, 78, 0
2, 545320, Note_on_c, 1, 76, 127
2, 545480, Note_off_c, 1, 62, 0
2, 545480, Note_off_c, 1, 76, 0
2, 545520, Note_on_c, 1, 38, 127
2, 545520, Note_on_c, 1, 74, 127
2, 545640, Note_off_c, 1, 74, 0
2, 545680, Note_on_c, 1, 81, 127
2, 545840, Note_off_c, 1, 38, 0
2, 545840, Note_off_c, 1, 81, 0
2, 545880, Note_on_c, 1, 40, 127
2, 545880, Note_on_c, 1, 78, 127
2, 546000, Note_off_c, 1, 78, 0
2, 546040, Note_on_c, 1, 76, 127
2, 546200, Note_off_c, 1, 40, 0
2, 546200, Note_off_c, 1, 76, 0
2, 546240, Note_on_c, 1, 42, 127
2, 546240, Note_on_c, 1, 74, 127
2, 546360, Note_off_c, 1, 74, 0
2, 546400, Note_on_c, 1, 72, 127
2, 546560, Note_off_c, 1, 42, 0
2, 546560, Note_off_c, 1, 72, 0
2, 546600, Note_on_c, 1, 43, 127
2, 546600, Note_on_c, 1, 71, 127
2, 546720, Note_off_c, 1, 71, 0
2, 546760, Note_on_c, 1, 69, 127
2, 546880, Note_off_c, 1, 43, 0
2, 546920, Note_off_c, 1, 69, 0
2, 546960, Note_on_c, 1, 50, 127
2, 546960, Note_on_c, 1, 67, 127
2, 547080, Note_off_c, 1, 67, 0
2, 547120, Note_on_c, 1, 74, 127
2, 547240, Note_off_c, 1, 50, 0
2, 547240, Note_off_c, 1, 74, 0
2, 547320, Note_on_c, 1, 55, 127
2, 547320, Note_on_c, 1, 71, 127
2, 547440, Note_off_c, 1, 71, 0
2, 547480, Note_on_c, 1, 69, 127
2, 547600, Note_off_c, 1, 55, 0
2, 547600, Note_off_c, 1, 69, 0
2, 547680, Note_on_c, 1, 52, 127
2, 547680, Note_on_c, 1, 67, 127
2, 547800, Note_off_c, 1, 67, 0
2, 547840, Note_on_c, 1, 71, 127
2, 547960, Note_off_c, 1, 52, 0
2, 547960, Note_off_c, 1, 71, 0
2, 548000, Note_on_c, 1, 57, 127
2, 548000, Note_on_c, 1, 72, 127
2, 548160, Note_off_c, 1, 72, 0
2, 548200, Note_on_c, 1, 74, 127
2, 548320, Note_off_c, 1, 57, 0
2, 548320, Note_off_c, 1, 74, 0
2, 548360, Note_on_c, 1, 55, 127
2, 548360, Note_on_c, 1, 76, 127
2, 548520, Note_off_c, 1, 76, 0
2, 548560, Note_on_c, 1, 79, 127
2, 548680, Note_off_c, 1, 55, 0
2, 548680, Note_off_c, 1, 79, 0
2, 548720, Note_on_c, 1, 57, 127
2, 548720, Note_on_c, 1, 78, 127
2, 548880, Note_off_c, 1, 78, 0
2, 548920, Note_on_c, 1, 79, 127
2, 549040, Note_off_c, 1, 57, 0
2, 549040, Note_off_c, 1, 79, 0
2, 549080, Note_on_c, 1, 54, 127
2, 549080, Note_on_c, 1, 81, 127
2, 549240, Note_off_c, 1, 81, 0
2, 549280, Note_on_c, 1, 73, 127
2, 549400, Note_off_c, 1, 54, 0
2, 549400, Note_off_c, 1, 73, 0
2, 549440, Note_on_c, 1, 59, 127
2, 549440, Note_on_c, 1, 75, 127
2, 549600, Note_off_c, 1, 75, 0
2, 549640, Note_on_c, 1, 76, 127
2, 549760, Note_off_c, 1, 59, 0
2, 549760, Note_off_c, 1, 76, 0
2, 549800, Note_on_c, 1, 57, 127
2, 549800, Note_on_c, 1, 78, 127
2, 549960, Note_off_c, 1, 78, 0
2, 550000, Note_on_c, 1, 81, 127
2, 550120, Note_off_c, 1, 57, 0
2, 550120, Note_off_c, 1, 81, 0
2, 550160, Note_on_c, 1, 59, 127
2, 550160, Note_on_c, 1, 79, 127
2, 550320, Note_off_c, 1, 79, 0
2, 550360, Note_on_c, 1, 81, 127
2, 550480, Note_off_c, 1, 59, 0
2, 550480, Note_off_c, 1, 81, 0
2, 550520, Note_on_c, 1, 55, 127
2, 550520, Note_on_c, 1, 83, 127
2, 550680, Note_off_c, 1, 83, 0
2, 550720, Note_on_c, 1, 75, 127
2, 550840, Note_off_c, 1, 55, 0
2, 550840, Note_off_c, 1, 75, 0
2, 550880, Note_on_c, 1, 60, 127
2, 550880, Note_on_c, 1, 78, 127
2, 551040, Note_off_c, 1, 78, 0
2, 551080, Note_on_c, 1, 76, 127
2, 551120, Note_off_c, 1, 76, 0
2, 551160, Note_on_c, 1, 75, 127
2, 551200, Note_off_c, 1, 60, 0
2, 551200, Note_off_c, 1, 75, 0
2, 551240, Note_on_c, 1, 57, 127
2, 551240, Note_on_c, 1, 76, 127
2, 551400, Note_off_c, 1, 76, 0
2, 551440, Note_on_c, 1, 78, 127
2, 551560, Note_off_c, 1, 57, 0
2, 551560, Note_off_c, 1, 78, 0
2, 551600, Note_on_c, 1, 59, 127
2, 551600, Note_on_c, 1, 79, 127
2, 551640, Note_off_c, 1, 79, 0
2, 551720, Note_on_c, 1, 78, 127
2, 551760, Note_off_c, 1, 78, 0
2, 551800, Note_on_c, 1, 79, 127
2, 551840, Note_off_c, 1, 79, 0
2, 551880, Note_on_c, 1, 78, 127
2, 551920, Note_off_c, 1, 59, 0
2, 551920, Note_off_c, 1, 78, 0
2, 551960, Note_on_c, 1, 47, 127
2, 551960, Note_on_c, 1, 79, 127
2, 552000, Note_off_c, 1, 79, 0
2, 552040, Note_on_c, 1, 78, 127
2, 552120, Note_off_c, 1, 78, 0
2, 552160, Note_on_c, 1, 76, 127
2, 552280, Note_off_c, 1, 47, 0
2, 552280, Note_off_c, 1, 76, 0
2, 552320, Note_on_c, 1, 52, 127
2, 552320, Note_on_c, 1, 76, 127
2, 552480, Note_off_c, 1, 52, 0
2, 552520, Note_on_c, 1, 54, 127
2, 552640, Note_off_c, 1, 54, 0
2, 552680, Note_on_c, 1, 55, 127
2, 552840, Note_off_c, 1, 55, 0
2, 552880, Note_on_c, 1, 54, 127
2, 553000, Note_off_c, 1, 54, 0
2, 553040, Note_on_c, 1, 52, 127
2, 553200, Note_off_c, 1, 52, 0
2, 553240, Note_on_c, 1, 50, 127
2, 553360, Note_off_c, 1, 50, 0
2, 553360, Note_off_c, 1, 76, 0
2, 553400, Note_on_c, 1, 49, 127
2, 553400, Note_on_c, 1, 76, 127
2, 553560, Note_off_c, 1, 49, 0
2, 553560, Note_off_c, 1, 76, 0
2, 553600, Note_on_c, 1, 47, 127
2, 553600, Note_on_c, 1, 78, 127
2, 553720, Note_off_c, 1, 47, 0
2, 553720, Note_off_c, 1, 78, 0
2, 553760, Note_on_c, 1, 45, 127
2, 553760, Note_on_c, 1, 79, 127
2, 553920, Note_off_c, 1, 45, 0
2, 553960, Note_on_c, 1, 47, 127
2, 554080, Note_off_c, 1, 47, 0
2, 554080, Note_off_c, 1, 79, 0
2, 554120, Note_on_c, 1, 49, 127
2, 554120, Note_on_c, 1, 76, 127
2, 554280, Note_off_c, 1, 49, 0
2, 554280, Note_off_c, 1, 76, 0
2, 554320, Note_on_c, 1, 50, 127
2, 554320, Note_on_c, 1, 78, 127
2, 554440, Note_off_c, 1, 50, 0
2, 554440, Note_off_c, 1, 78, 0
2, 554480, Note_on_c, 1, 52, 127
2, 554480, Note_on_c, 1, 79, 127
2, 554640, Note_off_c, 1, 52, 0
2, 554680, Note_on_c, 1, 54, 127
2, 554800, Note_off_c, 1, 54, 0
2, 554800, Note_off_c, 1, 79, 0
2, 554840, Note_on_c, 1, 55, 127
2, 554840, Note_on_c, 1, 78, 127
2, 554960, Note_off_c, 1, 55, 0
2, 554960, Note_off_c, 1, 78, 0
2, 555040, Note_on_c, 1, 57, 127
2, 555040, Note_on_c, 1, 76, 127
2, 555160, Note_off_c, 1, 57, 0
2, 555160, Note_off_c, 1, 76, 0
2, 555200, Note_on_c, 1, 50, 127
2, 555200, Note_on_c, 1, 78, 127
2, 555320, Note_off_c, 1, 50, 0
2, 555400, Note_on_c, 1, 62, 127
2, 555520, Note_off_c, 1, 62, 0
2, 555520, Note_off_c, 1, 78, 0
2, 555560, Note_on_c, 1, 61, 127
2, 555560, Note_on_c, 1, 76, 127
2, 555680, Note_off_c, 1, 61, 0
2, 555680, Note_off_c, 1, 76, 0
2, 555760, Note_on_c, 1, 59, 127
2, 555760, Note_on_c, 1, 74, 127
2, 555880, Note_off_c, 1, 59, 0
2, 555880, Note_off_c, 1, 74, 0
2, 555920, Note_on_c, 1, 57, 127
2, 555920, Note_on_c, 1, 76, 127
2, 556040, Note_off_c, 1, 57, 0
2, 556080, Note_on_c, 1, 55, 127
2, 556240, Note_off_c, 1, 55, 0
2, 556240, Note_off_c, 1, 76, 0
2, 556280, Note_on_c, 1, 54, 127
2, 556280, Note_on_c, 1, 74, 127
2, 556400, Note_off_c, 1, 54, 0
2, 556400, Note_off_c, 1, 74, 0
2, 556440, Note_on_c, 1, 52, 127
2, 556440, Note_on_c, 1, 76, 127
2, 556600, Note_off_c, 1, 52, 0
2, 556600, Note_off_c, 1, 76, 0
2, 556640, Note_on_c, 1, 50, 127
2, 556640, Note_on_c, 1, 78, 127
2, 556760, Note_off_c, 1, 50, 0
2, 556800, Note_on_c, 1, 62, 127
2, 556960, Note_off_c, 1, 62, 0
2, 556960, Note_off_c, 1, 78, 0
2, 557000, Note_on_c, 1, 61, 127
2, 557000, Note_on_c, 1, 76, 127
2, 557120, Note_off_c, 1, 61, 0
2, 557120, Note_off_c, 1, 76, 0
2, 557160, Note_on_c, 1, 59, 127
2, 557160, Note_on_c, 1, 74, 127
2, 557320, Note_off_c, 1, 59, 0
2, 557320, Note_off_c, 1, 74, 0
2, 557360, Note_on_c, 1, 58, 127
2, 557360, Note_on_c, 1, 76, 127
2, 557480, Note_off_c, 1, 58, 0
2, 557520, Note_on_c, 1, 61, 127
2, 557680, Note_off_c, 1, 61, 0
2, 557680, Note_off_c, 1, 76, 0
2, 557720, Note_on_c, 1, 59, 127
2, 557720, Note_on_c, 1, 74, 127
2, 557840, Note_off_c, 1, 59, 0
2, 557840, Note_off_c, 1, 74, 0
2, 557880, Note_on_c, 1, 58, 127
2, 557880, Note_on_c, 1, 73, 127
2, 558040, Note_off_c, 1, 58, 0
2, 558040, Note_off_c, 1, 73, 0
2, 558080, Note_on_c, 1, 59, 127
2, 558080, Note_on_c, 1, 74, 127
2, 558200, Note_off_c, 1, 59, 0
2, 558240, Note_on_c, 1, 54, 127
2, 558400, Note_off_c, 1, 54, 0
2, 558400, Note_off_c, 1, 74, 0
2, 558440, Note_on_c, 1, 58, 127
2, 558440, Note_on_c, 1, 73, 127
2, 558560, Note_off_c, 1, 58, 0
2, 558560, Note_off_c, 1, 73, 0
2, 558600, Note_on_c, 1, 59, 127
2, 558600, Note_on_c, 1, 74, 127
2, 558760, Note_off_c, 1, 59, 0
2, 558760, Note_off_c, 1, 74, 0
2, 558800, Note_on_c, 1, 61, 127
2, 558800, Note_on_c, 1, 76, 127
2, 558920, Note_off_c, 1, 61, 0
2, 558960, Note_on_c, 1, 54, 127
2, 559120, Note_off_c, 1, 54, 0
2, 559120, Note_off_c, 1, 76, 0
2, 559160, Note_on_c, 1, 56, 127
2, 559160, Note_on_c, 1, 74, 127
2, 559280, Note_off_c, 1, 56, 0
2, 559280, Note_off_c, 1, 74, 0
2, 559320, Note_on_c, 1, 58, 127
2, 559320, Note_on_c, 1, 73, 127
2, 559480, Note_off_c, 1, 58, 0
2, 559480, Note_off_c, 1, 73, 0
2, 559520, Note_on_c, 1, 59, 127
2, 559520, Note_on_c, 1, 74, 127
2, 559640, Note_off_c, 1, 59, 0
2, 559680, Note_on_c, 1, 71, 127
2, 559840, Note_off_c, 1, 71, 0
2, 559840, Note_off_c, 1, 74, 0
2, 559880, Note_on_c, 1, 70, 127
2, 559880, Note_on_c, 1, 73, 127
2, 560000, Note_off_c, 1, 70, 0
2, 560000, Note_off_c, 1, 73, 0
2, 560040, Note_on_c, 1, 68, 127
2, 560040, Note_on_c, 1, 71, 127
2, 560200, Note_off_c, 1, 68, 0
2, 560200, Note_off_c, 1, 71, 0
2, 560240, Note_on_c, 1, 66, 127
2, 560240, Note_on_c, 1, 73, 127
2, 560360, Note_off_c, 1, 66, 0
2, 560400, Note_on_c, 1, 64, 127
2, 560560, Note_off_c, 1, 64, 0
2, 560560, Note_off_c, 1, 73, 0
2, 560600, Note_on_c, 1, 62, 127
2, 560600, Note_on_c, 1, 71, 127
2, 560720, Note_off_c, 1, 62, 0
2, 560720, Note_off_c, 1, 71, 0
2, 560760, Note_on_c, 1, 61, 127
2, 560760, Note_on_c, 1, 73, 127
2, 560920, Note_off_c, 1, 61, 0
2, 560920, Note_off_c, 1, 73, 0
2, 560960, Note_on_c, 1, 59, 127
2, 560960, Note_on_c, 1, 74, 127
2, 561080, Note_off_c, 1, 59, 0
2, 561120, Note_on_c, 1, 57, 127
2, 561280, Note_off_c, 1, 57, 0
2, 561280, Note_off_c, 1, 74, 0
2, 561320, Note_on_c, 1, 55, 127
2, 561320, Note_on_c, 1, 73, 127
2, 561440, Note_off_c, 1, 55, 0
2, 561440, Note_off_c, 1, 73, 0
2, 561480, Note_on_c, 1, 54, 127
2, 561480, Note_on_c, 1, 71, 127
2, 561640, Note_off_c, 1, 54, 0
2, 561640, Note_off_c, 1, 71, 0
2, 561680, Note_on_c, 1, 52, 127
2, 561680, Note_on_c, 1, 73, 127
2, 561800, Note_off_c, 1, 52, 0
2, 561840, Note_on_c, 1, 50, 127
2, 562000, Note_off_c, 1, 50, 0
2, 562000, Note_off_c, 1, 73, 0
2, 562040, Note_on_c, 1, 52, 127
2, 562040, Note_on_c, 1, 71, 127
2, 562160, Note_off_c, 1, 52, 0
2, 562160, Note_off_c, 1, 71, 0
2, 562200, Note_on_c, 1, 54, 127
2, 562200, Note_on_c, 1, 70, 127
2, 562360, Note_off_c, 1, 54, 0
2, 562360, Note_off_c, 1, 70, 0
2, 562400, Note_on_c, 1, 55, 127
2, 562400, Note_on_c, 1, 71, 127
2, 562720, Note_off_c, 1, 55, 0
2, 562720, Note_off_c, 1, 71, 0
2, 562760, Note_on_c, 1, 54, 127
2, 562760, Note_on_c, 1, 79, 127
2, 562880, Note_off_c, 1, 79, 0
2, 562920, Note_on_c, 1, 78, 127
2, 563080, Note_off_c, 1, 54, 0
2, 563080, Note_off_c, 1, 78, 0
2, 563120, Note_on_c, 1, 55, 127
2, 563120, Note_on_c, 1, 76, 127
2, 563240, Note_off_c, 1, 76, 0
2, 563280, Note_on_c, 1, 74, 127
2, 563440, Note_off_c, 1, 55, 0
2, 563440, Note_off_c, 1, 74, 0
2, 563480, Note_on_c, 1, 52, 127
2, 563480, Note_on_c, 1, 73, 127
2, 563600, Note_off_c, 1, 73, 0
2, 563640, Note_on_c, 1, 71, 127
2, 563800, Note_off_c, 1, 52, 0
2, 563800, Note_off_c, 1, 71, 0
2, 563840, Note_on_c, 1, 54, 127
2, 563840, Note_on_c, 1, 70, 127
2, 563960, Note_off_c, 1, 70, 0
2, 564000, Note_on_c, 1, 71, 127
2, 564160, Note_off_c, 1, 71, 0
2, 564200, Note_on_c, 1, 73, 127
2, 564320, Note_off_c, 1, 73, 0
2, 564360, Note_on_c, 1, 70, 127
2, 564520, Note_off_c, 1, 70, 0
2, 564560, Note_on_c, 1, 66, 127
2, 564680, Note_off_c, 1, 54, 0
2, 564720, Note_on_c, 1, 52, 127
2, 564880, Note_off_c, 1, 52, 0
2, 564880, Note_off_c, 1, 66, 0
2, 564920, Note_on_c, 1, 50, 127
2, 564920, Note_on_c, 1, 73, 127
2, 565040, Note_off_c, 1, 50, 0
2, 565080, Note_on_c, 1, 49, 127
2, 565240, Note_off_c, 1, 49, 0
2, 565240, Note_off_c, 1, 73, 0
2, 565280, Note_on_c, 1, 47, 127
2, 565280, Note_on_c, 1, 74, 127
2, 565400, Note_off_c, 1, 74, 0
2, 565440, Note_on_c, 1, 76, 127
2, 565600, Note_off_c, 1, 47, 0
2, 565600, Note_off_c, 1, 76, 0
2, 565640, Note_on_c, 1, 59, 127
2, 565640, Note_on_c, 1, 78, 127
2, 565760, Note_off_c, 1, 78, 0
2, 565800, Note_on_c, 1, 71, 127
2, 565960, Note_off_c, 1, 71, 0
2, 566000, Note_on_c, 1, 75, 127
2, 566120, Note_off_c, 1, 75, 0
2, 566160, Note_on_c, 1, 76, 127
2, 566280, Note_off_c, 1, 59, 0
2, 566320, Note_off_c, 1, 76, 0
2, 566360, Note_on_c, 1, 57, 127
2, 566360, Note_on_c, 1, 78, 127
2, 566480, Note_off_c, 1, 78, 0
2, 566520, Note_on_c, 1, 71, 127
2, 566640, Note_off_c, 1, 57, 0
2, 566640, Note_off_c, 1, 71, 0
2, 566720, Note_on_c, 1, 55, 127
2, 566720, Note_on_c, 1, 76, 127
2, 566840, Note_off_c, 1, 76, 0
2, 566880, Note_on_c, 1, 78, 127
2, 567000, Note_off_c, 1, 55, 0
2, 567000, Note_off_c, 1, 78, 0
2, 567080, Note_on_c, 1, 52, 127
2, 567080, Note_on_c, 1, 79, 127
2, 567200, Note_off_c, 1, 79, 0
2, 567240, Note_on_c, 1, 71, 127
2, 567360, Note_off_c, 1, 52, 0
2, 567360, Note_off_c, 1, 71, 0
2, 567400, Note_on_c, 1, 61, 127
2, 567400, Note_on_c, 1, 77, 127
2, 567560, Note_off_c, 1, 77, 0
2, 567600, Note_on_c, 1, 78, 127
2, 567720, Note_off_c, 1, 61, 0
2, 567720, Note_off_c, 1, 78, 0
2, 567760, Note_on_c, 1, 59, 127
2, 567760, Note_on_c, 1, 80, 127
2, 567920, Note_off_c, 1, 80, 0
2, 567960, Note_on_c, 1, 71, 127
2, 568080, Note_off_c, 1, 59, 0
2, 568080, Note_off_c, 1, 71, 0
2, 568120, Note_on_c, 1, 57, 127
2, 568120, Note_on_c, 1, 78, 127
2, 568280, Note_off_c, 1, 78, 0
2, 568320, Note_on_c, 1, 80, 127
2, 568440, Note_off_c, 1, 57, 0
2, 568440, Note_off_c, 1, 80, 0
2, 568480, Note_on_c, 1, 54, 127
2, 568480, Note_on_c, 1, 81, 127
2, 568640, Note_off_c, 1, 81, 0
2, 568680, Note_on_c, 1, 73, 127
2, 568800, Note_off_c, 1, 54, 0
2, 568800, Note_off_c, 1, 73, 0
2, 568840, Note_on_c, 1, 66, 127
2, 568840, Note_on_c, 1, 78, 127
2, 569000, Note_off_c, 1, 78, 0
2, 569040, Note_on_c, 1, 80, 127
2, 569160, Note_off_c, 1, 80, 0
2, 569200, Note_on_c, 1, 82, 127
2, 569360, Note_off_c, 1, 82, 0
2, 569400, Note_on_c, 1, 73, 127
2, 569520, Note_off_c, 1, 73, 0
2, 569560, Note_on_c, 1, 79, 127
2, 569720, Note_off_c, 1, 79, 0
2, 569760, Note_on_c, 1, 81, 127
2, 569880, Note_off_c, 1, 66, 0
2, 569880, Note_off_c, 1, 81, 0
2, 569920, Note_on_c, 1, 64, 127
2, 569920, Note_on_c, 1, 83, 127
2, 570080, Note_off_c, 1, 64, 0
2, 570080, Note_off_c, 1, 83, 0
2, 570120, Note_on_c, 1, 62, 127
2, 570120, Note_on_c, 1, 74, 127
2, 570240, Note_off_c, 1, 62, 0
2, 570240, Note_off_c, 1, 74, 0
2, 570280, Note_on_c, 1, 64, 127
2, 570280, Note_on_c, 1, 80, 127
2, 570440, Note_off_c, 1, 64, 0
2, 570440, Note_off_c, 1, 80, 0
2, 570480, Note_on_c, 1, 61, 127
2, 570480, Note_on_c, 1, 81, 127
2, 570600, Note_off_c, 1, 61, 0
2, 570600, Note_off_c, 1, 81, 0
2, 570640, Note_on_c, 1, 62, 127
2, 570640, Note_on_c, 1, 83, 127
2, 570800, Note_off_c, 1, 62, 0
2, 570800, Note_off_c, 1, 83, 0
2, 570840, Note_on_c, 1, 59, 127
2, 570840, Note_on_c, 1, 74, 127
2, 570960, Note_off_c, 1, 59, 0
2, 570960, Note_off_c, 1, 74, 0
2, 571000, Note_on_c, 1, 61, 127
2, 571000, Note_on_c, 1, 81, 127
2, 571160, Note_off_c, 1, 81, 0
2, 571200, Note_on_c, 1, 83, 127
2, 571320, Note_off_c, 1, 61, 0
2, 571320, Note_off_c, 1, 83, 0
2, 571360, Note_on_c, 1, 67, 127
2, 571360, Note_on_c, 1, 85, 127
2, 571520, Note_off_c, 1, 85, 0
2, 571560, Note_on_c, 1, 76, 127
2, 571680, Note_off_c, 1, 67, 0
2, 571680, Note_off_c, 1, 76, 0
2, 571720, Note_on_c, 1, 66, 127
2, 571720, Note_on_c, 1, 82, 127
2, 571880, Note_off_c, 1, 82, 0
2, 571920, Note_on_c, 1, 83, 127
2, 572040, Note_off_c, 1, 66, 0
2, 572040, Note_off_c, 1, 83, 0
2, 572080, Note_on_c, 1, 64, 127
2, 572080, Note_on_c, 1, 85, 127
2, 572240, Note_off_c, 1, 85, 0
2, 572280, Note_on_c, 1, 78, 127
2, 572400, Note_off_c, 1, 64, 0
2, 572400, Note_off_c, 1, 78, 0
2, 572440, Note_on_c, 1, 62, 127
2, 572440, Note_on_c, 1, 83, 127
2, 572600, Note_off_c, 1, 62, 0
2, 572600, Note_off_c, 1, 83, 0
2, 572640, Note_on_c, 1, 61, 127
2, 572640, Note_on_c, 1, 85, 127
2, 572760, Note_off_c, 1, 61, 0
2, 572760, Note_off_c, 1, 85, 0
2, 572800, Note_on_c, 1, 59, 127
2, 572800, Note_on_c, 1, 86, 127
2, 572960, Note_off_c, 1, 59, 0
2, 572960, Note_off_c, 1, 86, 0
2, 573000, Note_on_c, 1, 61, 127
2, 573000, Note_on_c, 1, 82, 127
2, 573120, Note_off_c, 1, 61, 0
2, 573120, Note_off_c, 1, 82, 0
2, 573160, Note_on_c, 1, 62, 127
2, 573160, Note_on_c, 1, 83, 127
2, 573320, Note_off_c, 1, 62, 0
2, 573320, Note_off_c, 1, 83, 0
2, 573360, Note_on_c, 1, 59, 127
2, 573360, Note_on_c, 1, 78, 127
2, 573480, Note_off_c, 1, 59, 0
2, 573480, Note_off_c, 1, 78, 0
2, 573520, Note_on_c, 1, 64, 127
2, 573520, Note_on_c, 1, 79, 127
2, 573680, Note_off_c, 1, 64, 0
2, 573680, Note_off_c, 1, 79, 0
2, 573720, Note_on_c, 1, 61, 127
2, 573720, Note_on_c, 1, 76, 127
2, 573840, Note_off_c, 1, 61, 0
2, 573840, Note_off_c, 1, 76, 0
2, 573880, Note_on_c, 1, 62, 127
2, 573880, Note_on_c, 1, 78, 127
2, 573920, Note_off_c, 1, 78, 0
2, 573960, Note_on_c, 1, 76, 127
2, 574040, Note_off_c, 1, 62, 0
2, 574040, Note_off_c, 1, 76, 0
2, 574080, Note_on_c, 1, 58, 127
2, 574080, Note_on_c, 1, 78, 127
2, 574200, Note_off_c, 1, 58, 0
2, 574240, Note_on_c, 1, 59, 127
2, 574400, Note_off_c, 1, 59, 0
2, 574400, Note_off_c, 1, 78, 0
2, 574440, Note_on_c, 1, 52, 127
2, 574440, Note_on_c, 1, 79, 127
2, 574560, Note_off_c, 1, 52, 0
2, 574560, Note_off_c, 1, 79, 0
2, 574600, Note_on_c, 1, 54, 127
2, 574600, Note_on_c, 1, 74, 127
2, 574640, Note_off_c, 1, 74, 0
2, 574680, Note_on_c, 1, 73, 127
2, 574760, Note_off_c, 1, 73, 0
2, 574800, Note_on_c, 1, 74, 127
2, 574840, Note_off_c, 1, 74, 0
2, 574880, Note_on_c, 1, 73, 127
2, 574920, Note_off_c, 1, 54, 0
2, 574960, Note_on_c, 1, 42, 127
2, 575080, Note_off_c, 1, 73, 0
2, 575160, Note_on_c, 1, 71, 127
2, 575280, Note_off_c, 1, 42, 0
2, 575280, Note_off_c, 1, 71, 0
2, 575320, Note_on_c, 1, 47, 127
2, 575320, Note_on_c, 1, 71, 127
2, 575680, Note_on_c, 1, 54, 127
2, 576000, Note_off_c, 1, 54, 0
2, 576040, Note_on_c, 1, 59, 127
2, 576360, Note_off_c, 1, 59, 0
2, 576400, Note_on_c, 1, 59, 127
2, 576400, Note_on_c, 1, 63, 127
2, 576400, Note_on_c, 1, 66, 127
2, 576720, Note_off_c, 1, 47, 0
2, 576720, Note_off_c, 1, 59, 0
2, 576720, Note_off_c, 1, 63, 0
2, 576720, Note_off_c, 1, 66, 0
2, 576720, Note_off_c, 1, 71, 0
2, 576760, Note_on_c, 1, 59, 127
2, 576760, Note_on_c, 1, 63, 127
2, 576760, Note_on_c, 1, 66, 127
2, 577080, Note_off_c, 1, 63, 0
2, 577080, Note_off_c, 1, 66, 0
2, 577120, Note_on_c, 1, 64, 127
2, 577120, Note_on_c, 1, 68, 127
2, 577440, Note_off_c, 1, 64, 0
2, 577440, Note_off_c, 1, 68, 0
2, 577480, Note_on_c, 1, 66, 127
2, 577480, Note_on_c, 1, 69, 127
2, 577640, Note_off_c, 1, 66, 0
2, 577640, Note_off_c, 1, 69, 0
2, 577680, Note_on_c, 1, 64, 127
2, 577680, Note_on_c, 1, 68, 127
2, 577800, Note_off_c, 1, 64, 0
2, 577800, Note_off_c, 1, 68, 0
2, 577840, Note_on_c, 1, 63, 127
2, 577840, Note_on_c, 1, 66, 127
2, 578000, Note_off_c, 1, 63, 0
2, 578000, Note_off_c, 1, 66, 0
2, 578040, Note_on_c, 1, 61, 127
2, 578040, Note_on_c, 1, 64, 127
2, 578160, Note_off_c, 1, 61, 0
2, 578160, Note_off_c, 1, 64, 0
2, 578200, Note_on_c, 1, 63, 127
2, 578200, Note_on_c, 1, 66, 127
2, 578520, Note_off_c, 1, 63, 0
2, 578520, Note_off_c, 1, 66, 0
2, 578600, Note_on_c, 1, 63, 127
2, 578600, Note_on_c, 1, 71, 127
2, 578720, Note_off_c, 1, 63, 0
2, 578720, Note_off_c, 1, 71, 0
2, 578760, Note_on_c, 1, 61, 127
2, 578760, Note_on_c, 1, 70, 127
2, 578920, Note_off_c, 1, 61, 0
2, 578920, Note_off_c, 1, 70, 0
2, 578960, Note_on_c, 1, 63, 127
2, 578960, Note_on_c, 1, 71, 127
2, 579280, Note_off_c, 1, 63, 0
2, 579280, Note_off_c, 1, 71, 0
2, 579320, Note_on_c, 1, 63, 127
2, 579320, Note_on_c, 1, 66, 127
2, 579640, Note_off_c, 1, 59, 0
2, 579640, Note_off_c, 1, 63, 0
2, 579640, Note_off_c, 1, 66, 0
2, 579680, Note_on_c, 1, 61, 127
2, 579680, Note_on_c, 1, 68, 127
2, 579800, Note_off_c, 1, 68, 0
2, 579840, Note_on_c, 1, 64, 127
2, 580000, Note_off_c, 1, 64, 0
2, 580040, Note_on_c, 1, 59, 127
2, 580040, Note_on_c, 1, 63, 127
2, 580160, Note_off_c, 1, 63, 0
2, 580200, Note_on_c, 1, 64, 127
2, 580360, Note_off_c, 1, 59, 0
2, 580360, Note_off_c, 1, 64, 0
2, 580400, Note_on_c, 1, 58, 127
2, 580400, Note_on_c, 1, 66, 127
2, 580520, Note_off_c, 1, 66, 0
2, 580560, Note_on_c, 1, 64, 127
2, 580720, Note_off_c, 1, 58, 0
2, 580720, Note_off_c, 1, 64, 0
2, 580760, Note_on_c, 1, 54, 127
2, 580760, Note_on_c, 1, 63, 127
2, 580880, Note_off_c, 1, 61, 0
2, 580880, Note_off_c, 1, 63, 0
2, 580920, Note_on_c, 1, 61, 127
2, 581080, Note_off_c, 1, 54, 0
2, 581080, Note_off_c, 1, 61, 0
2, 581120, Note_on_c, 1, 59, 127
2, 581120, Note_on_c, 1, 64, 127
2, 581240, Note_off_c, 1, 64, 0
2, 581320, Note_on_c, 1, 63, 127
2, 581440, Note_off_c, 1, 63, 0
2, 581480, Note_on_c, 1, 54, 127
2, 581480, Note_on_c, 1, 61, 127
2, 581640, Note_off_c, 1, 61, 0
2, 581680, Note_on_c, 1, 63, 127
2, 581760, Note_off_c, 1, 59, 0
2, 581800, Note_off_c, 1, 54, 0
2, 581800, Note_off_c, 1, 63, 0
2, 581840, Note_on_c, 1, 51, 127
2, 581840, Note_on_c, 1, 59, 127
2, 582160, Note_off_c, 1, 51, 0
2, 582160, Note_off_c, 1, 59, 0
2, 582200, Note_on_c, 1, 54, 127
2, 582200, Note_on_c, 1, 59, 127
2, 582200, Note_on_c, 1, 63, 127
2, 582200, Note_on_c, 1, 66, 127
2, 582480, Note_off_c, 1, 63, 0
2, 582480, Note_off_c, 1, 66, 0
2, 582520, Note_off_c, 1, 54, 0
2, 582520, Note_off_c, 1, 59, 0
2, 582560, Note_on_c, 1, 59, 127
2, 582560, Note_on_c, 1, 63, 127
2, 582560, Note_on_c, 1, 66, 127
2, 582880, Note_off_c, 1, 63, 0
2, 582880, Note_off_c, 1, 66, 0
2, 582920, Note_on_c, 1, 64, 127
2, 582920, Note_on_c, 1, 68, 127
2, 583240, Note_off_c, 1, 64, 0
2, 583240, Note_off_c, 1, 68, 0
2, 583280, Note_on_c, 1, 66, 127
2, 583280, Note_on_c, 1, 69, 127
2, 583440, Note_off_c, 1, 66, 0
2, 583440, Note_off_c, 1, 69, 0
2, 583480, Note_on_c, 1, 64, 127
2, 583480, Note_on_c, 1, 68, 127
2, 583600, Note_off_c, 1, 64, 0
2, 583600, Note_off_c, 1, 68, 0
2, 583680, Note_on_c, 1, 63, 127
2, 583680, Note_on_c, 1, 66, 127
2, 583800, Note_off_c, 1, 63, 0
2, 583800, Note_off_c, 1, 66, 0
2, 583840, Note_on_c, 1, 61, 127
2, 583840, Note_on_c, 1, 64, 127
2, 584000, Note_off_c, 1, 61, 0
2, 584000, Note_off_c, 1, 64, 0
2, 584040, Note_on_c, 1, 63, 127
2, 584040, Note_on_c, 1, 66, 127
2, 584360, Note_off_c, 1, 59, 0
2, 584360, Note_off_c, 1, 66, 0
2, 584400, Note_on_c, 1, 58, 127
2, 584400, Note_on_c, 1, 71, 127
2, 584520, Note_off_c, 1, 71, 0
2, 584560, Note_on_c, 1, 70, 127
2, 584720, Note_off_c, 1, 58, 0
2, 584720, Note_off_c, 1, 70, 0
2, 584760, Note_on_c, 1, 56, 127
2, 584760, Note_on_c, 1, 71, 127
2, 584880, Note_off_c, 1, 71, 0
2, 584920, Note_on_c, 1, 75, 127
2, 585080, Note_off_c, 1, 56, 0
2, 585080, Note_off_c, 1, 63, 0
2, 585080, Note_off_c, 1, 75, 0
2, 585120, Note_on_c, 1, 59, 127
2, 585120, Note_on_c, 1, 65, 127
2, 585120, Note_on_c, 1, 73, 127
2, 585440, Note_off_c, 1, 59, 0
2, 585440, Note_off_c, 1, 65, 0
2, 585440, Note_off_c, 1, 73, 0
2, 585480, Note_on_c, 1, 59, 127
2, 585480, Note_on_c, 1, 66, 127
2, 585480, Note_on_c, 1, 73, 127
2, 585600, Note_off_c, 1, 59, 0
2, 585640, Note_on_c, 1, 58, 127
2, 585800, Note_off_c, 1, 58, 0
2, 585840, Note_on_c, 1, 56, 127
2, 585960, Note_off_c, 1, 56, 0
2, 586040, Note_on_c, 1, 54, 127
2, 586160, Note_off_c, 1, 54, 0
2, 586160, Note_off_c, 1, 73, 0
2, 586200, Note_on_c, 1, 61, 127
2, 586200, Note_on_c, 1, 71, 127
2, 586360, Note_off_c, 1, 71, 0
2, 586400, Note_on_c, 1, 70, 127
2, 586520, Note_off_c, 1, 61, 0
2, 586520, Note_off_c, 1, 66, 0
2, 586520, Note_off_c, 1, 70, 0
2, 586560, Note_on_c, 1, 49, 127
2, 586560, Note_on_c, 1, 65, 127
2, 586560, Note_on_c, 1, 68, 127
2, 586720, Note_off_c, 1, 65, 0
2, 586720, Note_off_c, 1, 68, 0
2, 586760, Note_on_c, 1, 66, 127
2, 586880, Note_off_c, 1, 49, 0
2, 586880, Note_off_c, 1, 66, 0
2, 586920, Note_on_c, 1, 54, 127
2, 586920, Note_on_c, 1, 66, 127
2, 587240, Note_off_c, 1, 54, 0
2, 587280, Note_on_c, 1, 49, 127
2, 587600, Note_off_c, 1, 49, 0
2, 587640, Note_on_c, 1, 42, 127
2, 587960, Note_off_c, 1, 42, 0
2, 587960, Note_off_c, 1, 66, 0
2, 588000, Note_on_c, 1, 54, 127
2, 588000, Note_on_c, 1, 61, 127
2, 588000, Note_on_c, 1, 70, 127
2, 588320, Note_off_c, 1, 54, 0
2, 588320, Note_off_c, 1, 61, 0
2, 588320, Note_off_c, 1, 70, 0
2, 588400, Note_on_c, 1, 54, 127
2, 588400, Note_on_c, 1, 61, 127
2, 588400, Note_on_c, 1, 70, 127
2, 588720, Note_off_c, 1, 61, 0
2, 588720, Note_off_c, 1, 70, 0
2, 588760, Note_on_c, 1, 63, 127
2, 588760, Note_on_c, 1, 71, 127
2, 589080, Note_off_c, 1, 63, 0
2, 589080, Note_off_c, 1, 71, 0
2, 589120, Note_on_c, 1, 64, 127
2, 589120, Note_on_c, 1, 73, 127
2, 589240, Note_off_c, 1, 64, 0
2, 589240, Note_off_c, 1, 73, 0
2, 589280, Note_on_c, 1, 63, 127
2, 589280, Note_on_c, 1, 71, 127
2, 589440, Note_off_c, 1, 63, 0
2, 589440, Note_off_c, 1, 71, 0
2, 589480, Note_on_c, 1, 61, 127
2, 589480, Note_on_c, 1, 70, 127
2, 589600, Note_off_c, 1, 61, 0
2, 589600, Note_off_c, 1, 70, 0
2, 589640, Note_on_c, 1, 59, 127
2, 589640, Note_on_c, 1, 68, 127
2, 589800, Note_off_c, 1, 59, 0
2, 589800, Note_off_c, 1, 68, 0
2, 589840, Note_on_c, 1, 63, 127
2, 589840, Note_on_c, 1, 71, 127
2, 589960, Note_off_c, 1, 63, 0
2, 589960, Note_off_c, 1, 71, 0
2, 590000, Note_on_c, 1, 61, 127
2, 590000, Note_on_c, 1, 70, 127
2, 590160, Note_off_c, 1, 61, 0
2, 590160, Note_off_c, 1, 70, 0
2, 590200, Note_on_c, 1, 59, 127
2, 590200, Note_on_c, 1, 68, 127
2, 590320, Note_off_c, 1, 59, 0
2, 590320, Note_off_c, 1, 68, 0
2, 590360, Note_on_c, 1, 61, 127
2, 590360, Note_on_c, 1, 70, 127
2, 590520, Note_off_c, 1, 61, 0
2, 590520, Note_off_c, 1, 70, 0
2, 590560, Note_on_c, 1, 58, 127
2, 590560, Note_on_c, 1, 66, 127
2, 590880, Note_off_c, 1, 54, 0
2, 590880, Note_off_c, 1, 58, 0
2, 590880, Note_off_c, 1, 66, 0
2, 590920, Note_on_c, 1, 51, 127
2, 590920, Note_on_c, 1, 66, 127
2, 590920, Note_on_c, 1, 71, 127
2, 591240, Note_off_c, 1, 51, 0
2, 591240, Note_off_c, 1, 66, 0
2, 591240, Note_off_c, 1, 71, 0
2, 591280, Note_on_c, 1, 52, 127
2, 591280, Note_on_c, 1, 59, 127
2, 591280, Note_on_c, 1, 68, 127
2, 591440, Note_off_c, 1, 68, 0
2, 591480, Note_on_c, 1, 67, 127
2, 591600, Note_off_c, 1, 52, 0
2, 591600, Note_off_c, 1, 67, 0
2, 591640, Note_on_c, 1, 51, 127
2, 591640, Note_on_c, 1, 68, 127
2, 591800, Note_off_c, 1, 68, 0
2, 591840, Note_on_c, 1, 71, 127
2, 591960, Note_off_c, 1, 51, 0
2, 591960, Note_off_c, 1, 59, 0
2, 591960, Note_off_c, 1, 71, 0
2, 592000, Note_on_c, 1, 49, 127
2, 592000, Note_on_c, 1, 61, 127
2, 592000, Note_on_c, 1, 70, 127
2, 592160, Note_off_c, 1, 70, 0
2, 592200, Note_on_c, 1, 71, 127
2, 592320, Note_off_c, 1, 49, 0
2, 592320, Note_off_c, 1, 61, 0
2, 592320, Note_off_c, 1, 71, 0
2, 592360, Note_on_c, 1, 52, 127
2, 592360, Note_on_c, 1, 56, 127
2, 592360, Note_on_c, 1, 73, 127
2, 592520, Note_off_c, 1, 73, 0
2, 592560, Note_on_c, 1, 68, 127
2, 592680, Note_off_c, 1, 52, 0
2, 592680, Note_off_c, 1, 56, 0
2, 592680, Note_off_c, 1, 68, 0
2, 592720, Note_on_c, 1, 51, 127
2, 592720, Note_on_c, 1, 55, 127
2, 592720, Note_on_c, 1, 70, 127
2, 592880, Note_off_c, 1, 70, 0
2, 592920, Note_on_c, 1, 67, 127
2, 593040, Note_off_c, 1, 55, 0
2, 593040, Note_off_c, 1, 67, 0
2, 593120, Note_on_c, 1, 59, 127
2, 593120, Note_on_c, 1, 68, 127
2, 593240, Note_off_c, 1, 68, 0
2, 593280, Note_on_c, 1, 65, 127
2, 593440, Note_off_c, 1, 59, 0
2, 593440, Note_off_c, 1, 65, 0
2, 593480, Note_on_c, 1, 58, 127
2, 593480, Note_on_c, 1, 67, 127
2, 593600, Note_off_c, 1, 67, 0
2, 593640, Note_on_c, 1, 63, 127
2, 593800, Note_off_c, 1, 51, 0
2, 593800, Note_off_c, 1, 58, 0
2, 593800, Note_off_c, 1, 63, 0
2, 593840, Note_on_c, 1, 51, 127
2, 593840, Note_on_c, 1, 55, 127
2, 593840, Note_on_c, 1, 58, 127
2, 593840, Note_on_c, 1, 61, 127
2, 593840, Note_on_c, 1, 75, 127
2, 594160, Note_off_c, 1, 51, 0
2, 594160, Note_off_c, 1, 55, 0
2, 594160, Note_off_c, 1, 58, 0
2, 594160, Note_off_c, 1, 61, 0
2, 594160, Note_off_c, 1, 75, 0
2, 594200, Note_on_c, 1, 56, 127
2, 594200, Note_on_c, 1, 60, 127
2, 594200, Note_on_c, 1, 75, 127
2, 594320, Note_off_c, 1, 75, 0
2, 594360, Note_on_c, 1, 76, 127
2, 594520, Note_off_c, 1, 60, 0
2, 594520, Note_off_c, 1, 76, 0
2, 594560, Note_on_c, 1, 63, 127
2, 594560, Note_on_c, 1, 78, 127
2, 594680, Note_off_c, 1, 78, 0
2, 594720, Note_on_c, 1, 75, 127
2, 594880, Note_off_c, 1, 63, 0
2, 594880, Note_off_c, 1, 75, 0
2, 594920, Note_on_c, 1, 61, 127
2, 594920, Note_on_c, 1, 76, 127
2, 595040, Note_off_c, 1, 76, 0
2, 595080, Note_on_c, 1, 73, 127
2, 595240, Note_off_c, 1, 61, 0
2, 595240, Note_off_c, 1, 73, 0
2, 595280, Note_on_c, 1, 66, 127
2, 595280, Note_on_c, 1, 75, 127
2, 595400, Note_off_c, 1, 75, 0
2, 595480, Note_on_c, 1, 72, 127
2, 595600, Note_off_c, 1, 66, 0
2, 595600, Note_off_c, 1, 72, 0
2, 595640, Note_on_c, 1, 64, 127
2, 595640, Note_on_c, 1, 73, 127
2, 595800, Note_off_c, 1, 73, 0
2, 595840, Note_on_c, 1, 75, 127
2, 595960, Note_off_c, 1, 64, 0
2, 595960, Note_off_c, 1, 75, 0
2, 596000, Note_on_c, 1, 61, 127
2, 596000, Note_on_c, 1, 76, 127
2, 596160, Note_off_c, 1, 76, 0
2, 596200, Note_on_c, 1, 73, 127
2, 596320, Note_off_c, 1, 61, 0
2, 596320, Note_off_c, 1, 73, 0
2, 596360, Note_on_c, 1, 59, 127
2, 596360, Note_on_c, 1, 75, 127
2, 596520, Note_off_c, 1, 75, 0
2, 596560, Note_on_c, 1, 71, 127
2, 596680, Note_off_c, 1, 59, 0
2, 596680, Note_off_c, 1, 71, 0
2, 596720, Note_on_c, 1, 58, 127
2, 596720, Note_on_c, 1, 73, 127
2, 596880, Note_off_c, 1, 73, 0
2, 596920, Note_on_c, 1, 70, 127
2, 597040, Note_off_c, 1, 58, 0
2, 597040, Note_off_c, 1, 70, 0
2, 597080, Note_on_c, 1, 59, 127
2, 597080, Note_on_c, 1, 75, 127
2, 597240, Note_off_c, 1, 75, 0
2, 597280, Note_on_c, 1, 73, 127
2, 597400, Note_off_c, 1, 59, 0
2, 597400, Note_off_c, 1, 73, 0
2, 597440, Note_on_c, 1, 49, 127
2, 597440, Note_off_c, 1, 56, 0
2, 597440, Note_on_c, 1, 58, 127
2, 597440, Note_on_c, 1, 76, 127
2, 597600, Note_off_c, 1, 76, 0
2, 597640, Note_on_c, 1, 75, 127
2, 597760, Note_off_c, 1, 49, 0
2, 597760, Note_off_c, 1, 58, 0
2, 597760, Note_off_c, 1, 75, 0
2, 597840, Note_on_c, 1, 51, 127
2, 597840, Note_on_c, 1, 56, 127
2, 597840, Note_on_c, 1, 73, 127
2, 597960, Note_off_c, 1, 73, 0
2, 598000, Note_on_c, 1, 71, 127
2, 598160, Note_off_c, 1, 56, 0
2, 598160, Note_off_c, 1, 71, 0
2, 598200, Note_on_c, 1, 55, 127
2, 598200, Note_on_c, 1, 70, 127
2, 598320, Note_off_c, 1, 70, 0
2, 598360, Note_on_c, 1, 71, 127
2, 598520, Note_off_c, 1, 51, 0
2, 598520, Note_off_c, 1, 55, 0
2, 598520, Note_off_c, 1, 71, 0
2, 598560, Note_on_c, 1, 56, 127
2, 598560, Note_on_c, 1, 70, 127
2, 598680, Note_off_c, 1, 56, 0
2, 598720, Note_on_c, 1, 52, 127
2, 598880, Note_off_c, 1, 52, 0
2, 598880, Note_off_c, 1, 70, 0
2, 598920, Note_on_c, 1, 51, 127
2, 598920, Note_on_c, 1, 68, 127
2, 599040, Note_off_c, 1, 51, 0
2, 599080, Note_on_c, 1, 49, 127
2, 599240, Note_off_c, 1, 49, 0
2, 599280, Note_on_c, 1, 47, 127
2, 599400, Note_off_c, 1, 47, 0
2, 599440, Note_on_c, 1, 46, 127
2, 599600, Note_off_c, 1, 46, 0
2, 599600, Note_off_c, 1, 68, 0
2, 599640, Note_on_c, 1, 47, 127
2, 599640, Note_on_c, 1, 56, 127
2, 599640, Note_on_c, 1, 63, 127
2, 599640, Note_on_c, 1, 71, 127
2, 599760, Note_off_c, 1, 47, 0
2, 599760, Note_off_c, 1, 56, 0
2, 599800, Note_on_c, 1, 44, 127
2, 599960, Note_off_c, 1, 44, 0
2, 599960, Note_off_c, 1, 63, 0
2, 599960, Note_off_c, 1, 71, 0
2, 600000, Note_on_c, 1, 49, 127
2, 600000, Note_on_c, 1, 53, 127
2, 600000, Note_on_c, 1, 61, 127
2, 600000, Note_on_c, 1, 71, 127
2, 600320, Note_off_c, 1, 53, 0
2, 600320, Note_off_c, 1, 61, 0
2, 600360, Note_on_c, 1, 56, 127
2, 600360, Note_on_c, 1, 65, 127
2, 600520, Note_off_c, 1, 56, 0
2, 600520, Note_off_c, 1, 65, 0
2, 600560, Note_on_c, 1, 54, 127
2, 600560, Note_on_c, 1, 63, 127
2, 600680, Note_off_c, 1, 54, 0
2, 600680, Note_off_c, 1, 63, 0
2, 600720, Note_on_c, 1, 56, 127
2, 600720, Note_on_c, 1, 65, 127
2, 601040, Note_off_c, 1, 49, 0
2, 601040, Note_off_c, 1, 56, 0
2, 601040, Note_off_c, 1, 65, 0
2, 601040, Note_off_c, 1, 71, 0
2, 601080, Note_on_c, 1, 49, 127
2, 601080, Note_on_c, 1, 56, 127
2, 601080, Note_on_c, 1, 65, 127
2, 601080, Note_on_c, 1, 71, 127
2, 601400, Note_off_c, 1, 49, 0
2, 601400, Note_off_c, 1, 56, 0
2, 601400, Note_off_c, 1, 65, 0
2, 601400, Note_off_c, 1, 71, 0
2, 601440, Note_on_c, 1, 42, 127
2, 601440, Note_on_c, 1, 54, 127
2, 601440, Note_on_c, 1, 66, 127
2, 601440, Note_on_c, 1, 71, 127
2, 601600, Note_off_c, 1, 71, 0
2, 601640, Note_on_c, 1, 70, 127
2, 601760, Note_off_c, 1, 70, 0
2, 601800, Note_on_c, 1, 71, 127
2, 601960, Note_off_c, 1, 71, 0
2, 602000, Note_on_c, 1, 68, 127
2, 602120, Note_off_c, 1, 68, 0
2, 602160, Note_on_c, 1, 70, 127
2, 602320, Note_off_c, 1, 66, 0
2, 602320, Note_off_c, 1, 70, 0
2, 602360, Note_on_c, 1, 66, 127
2, 602480, Note_off_c, 1, 42, 0
2, 602480, Note_off_c, 1, 54, 0
2, 602480, Note_off_c, 1, 66, 0
2, 602560, Note_on_c, 1, 42, 127
2, 602560, Note_on_c, 1, 54, 127
2, 602560, Note_on_c, 1, 61, 127
2, 602560, Note_on_c, 1, 69, 127
2, 602880, Note_off_c, 1, 42, 0
2, 602880, Note_off_c, 1, 54, 0
2, 602880, Note_off_c, 1, 61, 0
2, 602880, Note_off_c, 1, 69, 0
2, 602920, Note_on_c, 1, 47, 127
2, 602920, Note_on_c, 1, 51, 127
2, 602920, Note_on_c, 1, 59, 127
2, 602920, Note_on_c, 1, 69, 127
2, 603240, Note_off_c, 1, 51, 0
2, 603240, Note_off_c, 1, 59, 0
2, 603280, Note_on_c, 1, 54, 127
2, 603280, Note_on_c, 1, 63, 127
2, 603400, Note_off_c, 1, 54, 0
2, 603400, Note_off_c, 1, 63, 0
2, 603440, Note_on_c, 1, 52, 127
2, 603440, Note_on_c, 1, 61, 127
2, 603600, Note_off_c, 1, 52, 0
2, 603600, Note_off_c, 1, 61, 0
2, 603640, Note_on_c, 1, 54, 127
2, 603640, Note_on_c, 1, 63, 127
2, 603960, Note_off_c, 1, 47, 0
2, 603960, Note_off_c, 1, 54, 0
2, 603960, Note_off_c, 1, 63, 0
2, 603960, Note_off_c, 1, 69, 0
2, 604000, Note_on_c, 1, 47, 127
2, 604000, Note_on_c, 1, 54, 127
2, 604000, Note_on_c, 1, 63, 127
2, 604000, Note_on_c, 1, 69, 127
2, 604320, Note_off_c, 1, 47, 0
2, 604320, Note_off_c, 1, 54, 0
2, 604320, Note_off_c, 1, 63, 0
2, 604320, Note_off_c, 1, 69, 0
2, 604360, Note_on_c, 1, 40, 127
2, 604360, Note_on_c, 1, 52, 127
2, 604360, Note_on_c, 1, 64, 127
2, 604360, Note_on_c, 1, 69, 127
2, 604480, Note_off_c, 1, 69, 0
2, 604520, Note_on_c, 1, 68, 127
2, 604680, Note_off_c, 1, 68, 0
2, 604720, Note_on_c, 1, 69, 127
2, 604840, Note_off_c, 1, 69, 0
2, 604880, Note_on_c, 1, 66, 127
2, 605040, Note_off_c, 1, 66, 0
2, 605080, Note_on_c, 1, 68, 127
2, 605200, Note_off_c, 1, 64, 0
2, 605240, Note_off_c, 1, 68, 0
2, 605280, Note_on_c, 1, 64, 127
2, 605400, Note_off_c, 1, 40, 0
2, 605400, Note_off_c, 1, 52, 0
2, 605400, Note_off_c, 1, 64, 0
2, 605440, Note_on_c, 1, 52, 127
2, 605440, Note_on_c, 1, 56, 127
2, 605440, Note_on_c, 1, 64, 127
2, 605440, Note_on_c, 1, 73, 127
2, 605760, Note_off_c, 1, 52, 0
2, 605760, Note_off_c, 1, 56, 0
2, 605760, Note_off_c, 1, 64, 0
2, 605760, Note_off_c, 1, 73, 0
2, 605800, Note_on_c, 1, 46, 127
2, 605800, Note_on_c, 1, 54, 127
2, 605800, Note_on_c, 1, 64, 127
2, 605800, Note_on_c, 1, 73, 127
2, 606120, Note_off_c, 1, 64, 0
2, 606120, Note_off_c, 1, 73, 0
2, 606160, Note_on_c, 1, 66, 127
2, 606160, Note_on_c, 1, 75, 127
2, 606480, Note_off_c, 1, 46, 0
2, 606480, Note_off_c, 1, 54, 0
2, 606480, Note_off_c, 1, 66, 0
2, 606480, Note_off_c, 1, 75, 0
2, 606520, Note_on_c, 1, 47, 127
2, 606520, Note_on_c, 1, 54, 127
2, 606520, Note_on_c, 1, 66, 127
2, 606520, Note_on_c, 1, 76, 127
2, 606680, Note_off_c, 1, 76, 0
2, 606720, Note_on_c, 1, 75, 127
2, 606840, Note_off_c, 1, 54, 0
2, 606840, Note_off_c, 1, 75, 0
2, 606880, Note_on_c, 1, 56, 127
2, 606880, Note_on_c, 1, 73, 127
2, 607040, Note_off_c, 1, 73, 0
2, 607080, Note_on_c, 1, 71, 127
2, 607200, Note_off_c, 1, 47, 0
2, 607200, Note_off_c, 1, 56, 0
2, 607200, Note_off_c, 1, 66, 0
2, 607200, Note_off_c, 1, 71, 0
2, 607280, Note_on_c, 1, 52, 127
2, 607280, Note_on_c, 1, 58, 127
2, 607280, Note_on_c, 1, 66, 127
2, 607280, Note_on_c, 1, 73, 127
2, 607600, Note_off_c, 1, 73, 0
2, 607640, Note_on_c, 1, 78, 127
2, 607760, Note_off_c, 1, 78, 0
2, 607800, Note_on_c, 1, 76, 127
2, 607960, Note_off_c, 1, 76, 0
2, 608000, Note_on_c, 1, 78, 127
2, 608320, Note_off_c, 1, 52, 0
2, 608320, Note_off_c, 1, 58, 0
2, 608320, Note_off_c, 1, 66, 0
2, 608360, Note_off_c, 1, 78, 0
2, 608400, Note_on_c, 1, 52, 127
2, 608400, Note_on_c, 1, 61, 127
2, 608400, Note_on_c, 1, 66, 127
2, 608400, Note_on_c, 1, 70, 127
2, 608720, Note_off_c, 1, 52, 0
2, 608720, Note_off_c, 1, 61, 0
2, 608720, Note_off_c, 1, 66, 0
2, 608720, Note_off_c, 1, 70, 0
2, 608760, Note_on_c, 1, 51, 127
2, 608760, Note_on_c, 1, 59, 127
2, 608760, Note_on_c, 1, 66, 127
2, 608760, Note_on_c, 1, 71, 127
2, 609080, Note_off_c, 1, 51, 0
2, 609120, Note_on_c, 1, 52, 127
2, 609280, Note_off_c, 1, 66, 0
2, 609280, Note_off_c, 1, 71, 0
2, 609320, Note_on_c, 1, 73, 127
2, 609480, Note_off_c, 1, 52, 0
2, 609480, Note_off_c, 1, 59, 0
2, 609480, Note_off_c, 1, 73, 0
2, 609520, Note_on_c, 1, 54, 127
2, 609520, Note_on_c, 1, 70, 127
2, 609520, Note_on_c, 1, 75, 127
2, 609560, Note_off_c, 1, 75, 0
2, 609600, Note_on_c, 1, 73, 127
2, 609680, Note_off_c, 1, 73, 0
2, 609720, Note_on_c, 1, 75, 127
2, 609760, Note_off_c, 1, 75, 0
2, 609800, Note_on_c, 1, 73, 127
2, 609880, Note_off_c, 1, 73, 0
2, 609920, Note_on_c, 1, 42, 127
2, 609920, Note_on_c, 1, 75, 127
2, 609960, Note_off_c, 1, 75, 0
2, 610000, Note_on_c, 1, 73, 127
2, 610040, Note_off_c, 1, 70, 0
2, 610040, Note_off_c, 1, 73, 0
2, 610120, Note_on_c, 1, 71, 127
2, 610240, Note_off_c, 1, 42, 0
2, 610240, Note_off_c, 1, 54, 0
2, 610240, Note_off_c, 1, 71, 0
2, 610280, Note_on_c, 1, 47, 127
2, 610280, Note_on_c, 1, 71, 127
2, 610520, Note_on_c, 1, 66, 127
2, 610720, Note_off_c, 1, 66, 0
2, 610760, Note_on_c, 1, 63, 127
2, 611040, Note_on_c, 1, 54, 127
2, 611320, Note_off_c, 1, 54, 0
2, 611360, Note_on_c, 1, 59, 127
2, 613200, Note_off_c, 1, 47, 0
2, 613200, Note_off_c, 1, 63, 0
2, 613200, Note_off_c, 1, 71, 0
2, 613520, Note_on_c, 1, 66, 127
2, 613920, Note_off_c, 1, 59, 0
2, 614000, Note_off_c, 1, 66, 0
2, 614040, Note_on_c, 1, 47, 127
2, 614040, Note_on_c, 1, 71, 127
2, 614360, Note_off_c, 1, 71, 0
2, 614400, Note_on_c, 1, 71, 127
2, 614520, Note_off_c, 1, 47, 0
2, 614520, Note_off_c, 1, 71, 0
2, 614560, Note_on_c, 1, 59, 127
2, 614560, Note_on_c, 1, 71, 127
2, 614720, Note_off_c, 1, 71, 0
2, 614760, Note_on_c, 1, 73, 127
2, 614880, Note_off_c, 1, 73, 0
2, 614920, Note_on_c, 1, 74, 127
2, 615080, Note_off_c, 1, 74, 0
2, 615120, Note_on_c, 1, 73, 127
2, 615240, Note_off_c, 1, 73, 0
2, 615280, Note_on_c, 1, 64, 127
2, 615400, Note_off_c, 1, 64, 0
2, 615440, Note_on_c, 1, 73, 127
2, 615600, Note_off_c, 1, 59, 0
2, 615600, Note_off_c, 1, 73, 0
2, 615640, Note_on_c, 1, 58, 127
2, 615640, Note_on_c, 1, 66, 127
2, 615760, Note_off_c, 1, 66, 0
2, 615800, Note_on_c, 1, 67, 127
2, 615920, Note_off_c, 1, 67, 0
2, 616000, Note_on_c, 1, 64, 127
2, 616120, Note_off_c, 1, 58, 0
2, 616120, Note_off_c, 1, 64, 0
2, 616160, Note_on_c, 1, 59, 127
2, 616160, Note_on_c, 1, 62, 127
2, 616280, Note_off_c, 1, 62, 0
2, 616320, Note_on_c, 1, 66, 127
2, 616480, Note_off_c, 1, 66, 0
2, 616520, Note_on_c, 1, 71, 127
2, 616640, Note_off_c, 1, 59, 0
2, 616640, Note_off_c, 1, 71, 0
2, 616680, Note_on_c, 1, 55, 127
2, 616680, Note_on_c, 1, 64, 127
2, 616800, Note_off_c, 1, 64, 0
2, 616840, Note_on_c, 1, 73, 127
2, 617000, Note_off_c, 1, 73, 0
2, 617040, Note_on_c, 1, 71, 127
2, 617160, Note_off_c, 1, 55, 0
2, 617160, Note_off_c, 1, 71, 0
2, 617200, Note_on_c, 1, 54, 127
2, 617200, Note_on_c, 1, 70, 127
2, 617320, Note_off_c, 1, 70, 0
2, 617400, Note_on_c, 1, 71, 127
2, 617520, Note_off_c, 1, 71, 0
2, 617560, Note_on_c, 1, 73, 127
2, 617680, Note_off_c, 1, 73, 0
2, 617720, Note_on_c, 1, 66, 127
2, 617880, Note_off_c, 1, 54, 0
2, 617880, Note_off_c, 1, 66, 0
2, 617920, Note_on_c, 1, 56, 127
2, 617920, Note_on_c, 1, 78, 127
2, 618040, Note_off_c, 1, 56, 0
2, 618040, Note_off_c, 1, 78, 0
2, 618080, Note_on_c, 1, 58, 127
2, 618080, Note_on_c, 1, 76, 127
2, 618200, Note_off_c, 1, 58, 0
2, 618200, Note_off_c, 1, 76, 0
2, 618240, Note_on_c, 1, 59, 127
2, 618240, Note_on_c, 1, 74, 127
2, 618400, Note_off_c, 1, 59, 0
2, 618400, Note_off_c, 1, 74, 0
2, 618440, Note_on_c, 1, 61, 127
2, 618440, Note_on_c, 1, 76, 127
2, 618560, Note_off_c, 1, 61, 0
2, 618560, Note_off_c, 1, 76, 0
2, 618600, Note_on_c, 1, 62, 127
2, 618600, Note_on_c, 1, 78, 127
2, 618760, Note_off_c, 1, 62, 0
2, 618760, Note_off_c, 1, 78, 0
2, 618800, Note_on_c, 1, 55, 127
2, 618800, Note_on_c, 1, 71, 127
2, 618920, Note_off_c, 1, 55, 0
2, 618920, Note_off_c, 1, 71, 0
2, 618960, Note_on_c, 1, 57, 127
2, 618960, Note_on_c, 1, 79, 127
2, 619080, Note_off_c, 1, 57, 0
2, 619080, Note_off_c, 1, 79, 0
2, 619120, Note_on_c, 1, 59, 127
2, 619120, Note_on_c, 1, 78, 127
2, 619280, Note_off_c, 1, 59, 0
2, 619280, Note_off_c, 1, 78, 0
2, 619320, Note_on_c, 1, 61, 127
2, 619320, Note_on_c, 1, 76, 127
2, 619440, Note_off_c, 1, 61, 0
2, 619440, Note_off_c, 1, 76, 0
2, 619480, Note_on_c, 1, 62, 127
2, 619480, Note_on_c, 1, 78, 127
2, 619600, Note_off_c, 1, 62, 0
2, 619600, Note_off_c, 1, 78, 0
2, 619680, Note_on_c, 1, 64, 127
2, 619680, Note_on_c, 1, 79, 127
2, 619800, Note_off_c, 1, 64, 0
2, 619800, Note_off_c, 1, 79, 0
2, 619840, Note_on_c, 1, 57, 127
2, 619840, Note_on_c, 1, 73, 127
2, 619960, Note_off_c, 1, 57, 0
2, 619960, Note_off_c, 1, 73, 0
2, 620000, Note_on_c, 1, 59, 127
2, 620000, Note_on_c, 1, 81, 127
2, 620160, Note_off_c, 1, 59, 0
2, 620160, Note_off_c, 1, 81, 0
2, 620200, Note_on_c, 1, 61, 127
2, 620200, Note_on_c, 1, 79, 127
2, 620320, Note_off_c, 1, 61, 0
2, 620320, Note_off_c, 1, 79, 0
2, 620360, Note_on_c, 1, 62, 127
2, 620360, Note_on_c, 1, 78, 127
2, 620480, Note_off_c, 1, 62, 0
2, 620480, Note_off_c, 1, 78, 0
2, 620520, Note_on_c, 1, 64, 127
2, 620520, Note_on_c, 1, 79, 127
2, 620680, Note_off_c, 1, 64, 0
2, 620680, Note_off_c, 1, 79, 0
2, 620720, Note_on_c, 1, 66, 127
2, 620720, Note_on_c, 1, 81, 127
2, 620840, Note_off_c, 1, 66, 0
2, 620840, Note_off_c, 1, 81, 0
2, 620880, Note_on_c, 1, 67, 127
2, 620880, Note_on_c, 1, 83, 127
2, 620920, Note_off_c, 1, 67, 0
2, 620920, Note_off_c, 1, 83, 0
2, 620960, Note_on_c, 1, 66, 127
2, 620960, Note_on_c, 1, 81, 127
2, 621040, Note_off_c, 1, 66, 0
2, 621040, Note_off_c, 1, 81, 0
2, 621080, Note_on_c, 1, 64, 127
2, 621080, Note_on_c, 1, 79, 127
2, 621200, Note_off_c, 1, 64, 0
2, 621200, Note_off_c, 1, 79, 0
2, 621240, Note_on_c, 1, 66, 127
2, 621240, Note_on_c, 1, 81, 127
2, 621360, Note_off_c, 1, 66, 0
2, 621360, Note_off_c, 1, 81, 0
2, 621400, Note_on_c, 1, 67, 127
2, 621400, Note_on_c, 1, 83, 127
2, 621560, Note_off_c, 1, 67, 0
2, 621560, Note_off_c, 1, 83, 0
2, 621600, Note_on_c, 1, 55, 127
2, 621600, Note_on_c, 1, 71, 127
2, 621720, Note_off_c, 1, 55, 0
2, 621720, Note_off_c, 1, 71, 0
2, 621760, Note_on_c, 1, 57, 127
2, 621760, Note_on_c, 1, 73, 127
2, 621880, Note_off_c, 1, 57, 0
2, 621880, Note_off_c, 1, 73, 0
2, 621960, Note_on_c, 1, 59, 127
2, 621960, Note_on_c, 1, 74, 127
2, 622080, Note_off_c, 1, 59, 0
2, 622080, Note_off_c, 1, 74, 0
2, 622120, Note_on_c, 1, 61, 127
2, 622120, Note_on_c, 1, 76, 127
2, 622240, Note_off_c, 1, 61, 0
2, 622240, Note_off_c, 1, 76, 0
2, 622280, Note_on_c, 1, 62, 127
2, 622280, Note_on_c, 1, 78, 127
2, 622440, Note_off_c, 1, 62, 0
2, 622440, Note_off_c, 1, 78, 0
2, 622480, Note_on_c, 1, 64, 127
2, 622480, Note_on_c, 1, 79, 127
2, 622600, Note_off_c, 1, 64, 0
2, 622600, Note_off_c, 1, 79, 0
2, 622640, Note_on_c, 1, 66, 127
2, 622640, Note_on_c, 1, 81, 127
2, 622760, Note_off_c, 1, 66, 0
2, 622760, Note_off_c, 1, 81, 0
2, 622800, Note_on_c, 1, 67, 127
2, 622800, Note_on_c, 1, 83, 127
2, 622960, Note_off_c, 1, 67, 0
2, 622960, Note_off_c, 1, 83, 0
2, 623000, Note_on_c, 1, 69, 127
2, 623000, Note_on_c, 1, 85, 127
2, 623040, Note_off_c, 1, 69, 0
2, 623040, Note_off_c, 1, 85, 0
2, 623080, Note_on_c, 1, 67, 127
2, 623080, Note_on_c, 1, 83, 127
2, 623120, Note_off_c, 1, 67, 0
2, 623120, Note_off_c, 1, 83, 0
2, 623160, Note_on_c, 1, 66, 127
2, 623160, Note_on_c, 1, 81, 127
2, 623320, Note_off_c, 1, 66, 0
2, 623320, Note_off_c, 1, 81, 0
2, 623360, Note_on_c, 1, 67, 127
2, 623360, Note_on_c, 1, 83, 127
2, 623480, Note_off_c, 1, 67, 0
2, 623480, Note_off_c, 1, 83, 0
2, 623520, Note_on_c, 1, 69, 127
2, 623520, Note_on_c, 1, 85, 127
2, 623640, Note_off_c, 1, 69, 0
2, 623640, Note_off_c, 1, 85, 0
2, 623680, Note_on_c, 1, 57, 127
2, 623680, Note_on_c, 1, 73, 127
2, 623840, Note_off_c, 1, 57, 0
2, 623840, Note_off_c, 1, 73, 0
2, 623880, Note_on_c, 1, 59, 127
2, 623880, Note_on_c, 1, 74, 127
2, 624000, Note_off_c, 1, 59, 0
2, 624000, Note_off_c, 1, 74, 0
2, 624040, Note_on_c, 1, 61, 127
2, 624040, Note_on_c, 1, 76, 127
2, 624160, Note_off_c, 1, 61, 0
2, 624160, Note_off_c, 1, 76, 0
2, 624240, Note_on_c, 1, 62, 127
2, 624240, Note_on_c, 1, 78, 127
2, 624360, Note_off_c, 1, 62, 0
2, 624360, Note_off_c, 1, 78, 0
2, 624400, Note_on_c, 1, 64, 127
2, 624400, Note_on_c, 1, 79, 127
2, 624520, Note_off_c, 1, 64, 0
2, 624520, Note_off_c, 1, 79, 0
2, 624560, Note_on_c, 1, 66, 127
2, 624560, Note_on_c, 1, 81, 127
2, 624720, Note_off_c, 1, 66, 0
2, 624720, Note_off_c, 1, 81, 0
2, 624760, Note_on_c, 1, 67, 127
2, 624760, Note_on_c, 1, 83, 127
2, 624880, Note_off_c, 1, 67, 0
2, 624880, Note_off_c, 1, 83, 0
2, 624920, Note_on_c, 1, 69, 127
2, 624920, Note_on_c, 1, 85, 127
2, 625040, Note_off_c, 1, 69, 0
2, 625040, Note_off_c, 1, 85, 0
2, 625080, Note_on_c, 1, 71, 127
2, 625080, Note_on_c, 1, 86, 127
2, 625160, Note_off_c, 1, 71, 0
2, 625160, Note_off_c, 1, 86, 0
2, 625200, Note_on_c, 1, 69, 127
2, 625200, Note_on_c, 1, 85, 127
2, 625240, Note_off_c, 1, 69, 0
2, 625240, Note_off_c, 1, 85, 0
2, 625280, Note_on_c, 1, 67, 127
2, 625280, Note_on_c, 1, 83, 127
2, 625400, Note_off_c, 1, 67, 0
2, 625400, Note_off_c, 1, 83, 0
2, 625440, Note_on_c, 1, 69, 127
2, 625440, Note_on_c, 1, 85, 127
2, 625600, Note_off_c, 1, 69, 0
2, 625600, Note_off_c, 1, 85, 0
2, 625640, Note_on_c, 1, 71, 127
2, 625640, Note_on_c, 1, 86, 127
2, 625760, Note_off_c, 1, 71, 0
2, 625760, Note_off_c, 1, 86, 0
2, 625800, Note_on_c, 1, 59, 127
2, 625800, Note_on_c, 1, 74, 127
2, 625920, Note_off_c, 1, 59, 0
2, 625920, Note_off_c, 1, 74, 0
2, 625960, Note_on_c, 1, 61, 127
2, 625960, Note_on_c, 1, 76, 127
2, 626120, Note_off_c, 1, 61, 0
2, 626120, Note_off_c, 1, 76, 0
2, 626160, Note_on_c, 1, 62, 127
2, 626160, Note_on_c, 1, 78, 127
2, 626280, Note_off_c, 1, 62, 0
2, 626280, Note_off_c, 1, 78, 0
2, 626320, Note_on_c, 1, 64, 127
2, 626320, Note_on_c, 1, 79, 127
2, 626440, Note_off_c, 1, 64, 0
2, 626440, Note_off_c, 1, 79, 0
2, 626520, Note_on_c, 1, 66, 127
2, 626520, Note_on_c, 1, 81, 127
2, 626640, Note_off_c, 1, 66, 0
2, 626640, Note_off_c, 1, 81, 0
2, 626680, Note_on_c, 1, 67, 127
2, 626680, Note_on_c, 1, 83, 127
2, 626800, Note_off_c, 1, 67, 0
2, 626800, Note_off_c, 1, 83, 0
2, 626840, Note_on_c, 1, 57, 127
2, 626840, Note_on_c, 1, 73, 127
2, 627000, Note_off_c, 1, 57, 0
2, 627000, Note_off_c, 1, 73, 0
2, 627040, Note_on_c, 1, 59, 127
2, 627040, Note_on_c, 1, 74, 127
2, 627160, Note_off_c, 1, 59, 0
2, 627160, Note_off_c, 1, 74, 0
2, 627200, Note_on_c, 1, 61, 127
2, 627200, Note_on_c, 1, 76, 127
2, 627320, Note_off_c, 1, 61, 0
2, 627320, Note_off_c, 1, 76, 0
2, 627360, Note_on_c, 1, 62, 127
2, 627360, Note_on_c, 1, 78, 127
2, 627520, Note_off_c, 1, 62, 0
2, 627520, Note_off_c, 1, 78, 0
2, 627560, Note_on_c, 1, 64, 127
2, 627560, Note_on_c, 1, 79, 127
2, 627680, Note_off_c, 1, 64, 0
2, 627680, Note_off_c, 1, 79, 0
2, 627720, Note_on_c, 1, 66, 127
2, 627720, Note_on_c, 1, 81, 127
2, 627840, Note_off_c, 1, 66, 0
2, 627840, Note_off_c, 1, 81, 0
2, 627920, Note_on_c, 1, 55, 127
2, 627920, Note_on_c, 1, 71, 127
2, 628040, Note_off_c, 1, 55, 0
2, 628040, Note_off_c, 1, 71, 0
2, 628080, Note_on_c, 1, 57, 127
2, 628080, Note_on_c, 1, 73, 127
2, 628200, Note_off_c, 1, 57, 0
2, 628200, Note_off_c, 1, 73, 0
2, 628240, Note_on_c, 1, 59, 127
2, 628240, Note_on_c, 1, 74, 127
2, 628400, Note_off_c, 1, 59, 0
2, 628400, Note_off_c, 1, 74, 0
2, 628440, Note_on_c, 1, 61, 127
2, 628440, Note_on_c, 1, 76, 127
2, 628560, Note_off_c, 1, 61, 0
2, 628560, Note_off_c, 1, 76, 0
2, 628600, Note_on_c, 1, 62, 127
2, 628600, Note_on_c, 1, 78, 127
2, 628720, Note_off_c, 1, 62, 0
2, 628720, Note_off_c, 1, 78, 0
2, 628800, Note_on_c, 1, 64, 127
2, 628800, Note_on_c, 1, 79, 127
2, 628920, Note_off_c, 1, 64, 0
2, 628920, Note_off_c, 1, 79, 0
2, 628960, Note_on_c, 1, 66, 127
2, 628960, Note_on_c, 1, 81, 127
2, 629080, Note_off_c, 1, 66, 0
2, 629080, Note_off_c, 1, 81, 0
2, 629120, Note_on_c, 1, 67, 127
2, 629120, Note_on_c, 1, 83, 127
2, 629280, Note_off_c, 1, 67, 0
2, 629280, Note_off_c, 1, 83, 0
2, 629320, Note_on_c, 1, 61, 127
2, 629320, Note_on_c, 1, 76, 127
2, 629440, Note_off_c, 1, 61, 0
2, 629440, Note_off_c, 1, 76, 0
2, 629480, Note_on_c, 1, 62, 127
2, 629480, Note_on_c, 1, 78, 127
2, 629600, Note_off_c, 1, 62, 0
2, 629600, Note_off_c, 1, 78, 0
2, 629640, Note_on_c, 1, 64, 127
2, 629640, Note_on_c, 1, 79, 127
2, 629800, Note_off_c, 1, 64, 0
2, 629800, Note_off_c, 1, 79, 0
2, 629840, Note_on_c, 1, 57, 127
2, 629840, Note_on_c, 1, 73, 127
2, 629960, Note_off_c, 1, 73, 0
2, 630000, Note_on_c, 1, 74, 127
2, 630160, Note_off_c, 1, 74, 0
2, 630200, Note_on_c, 1, 76, 127
2, 630320, Note_off_c, 1, 76, 0
2, 630360, Note_on_c, 1, 69, 127
2, 630480, Note_off_c, 1, 57, 0
2, 630480, Note_off_c, 1, 69, 0
2, 630520, Note_on_c, 1, 71, 127
2, 630680, Note_off_c, 1, 71, 0
2, 630720, Note_on_c, 1, 67, 127
2, 630720, Note_on_c, 1, 73, 127
2, 630840, Note_off_c, 1, 67, 0
2, 630840, Note_off_c, 1, 73, 0
2, 630880, Note_on_c, 1, 66, 127
2, 630880, Note_on_c, 1, 74, 127
2, 631000, Note_off_c, 1, 66, 0
2, 631080, Note_on_c, 1, 67, 127
2, 631200, Note_off_c, 1, 67, 0
2, 631200, Note_off_c, 1, 74, 0
2, 631240, Note_on_c, 1, 69, 127
2, 631240, Note_on_c, 1, 74, 127
2, 631360, Note_off_c, 1, 69, 0
2, 631360, Note_off_c, 1, 74, 0
2, 631400, Note_on_c, 1, 62, 127
2, 631400, Note_on_c, 1, 74, 127
2, 631560, Note_off_c, 1, 62, 0
2, 631560, Note_off_c, 1, 74, 0
2, 631600, Note_on_c, 1, 64, 127
2, 631600, Note_on_c, 1, 73, 127
2, 631720, Note_off_c, 1, 64, 0
2, 631720, Note_off_c, 1, 73, 0
2, 631760, Note_on_c, 1, 66, 127
2, 631760, Note_on_c, 1, 74, 127
2, 631880, Note_off_c, 1, 66, 0
2, 631880, Note_off_c, 1, 74, 0
2, 631920, Note_on_c, 1, 61, 127
2, 631920, Note_on_c, 1, 76, 127
2, 632080, Note_off_c, 1, 61, 0
2, 632080, Note_off_c, 1, 76, 0
2, 632120, Note_on_c, 1, 62, 127
2, 632120, Note_on_c, 1, 67, 127
2, 632240, Note_off_c, 1, 62, 0
2, 632240, Note_off_c, 1, 67, 0
2, 632280, Note_on_c, 1, 64, 127
2, 632280, Note_on_c, 1, 76, 127
2, 632440, Note_off_c, 1, 64, 0
2, 632440, Note_off_c, 1, 76, 0
2, 632480, Note_on_c, 1, 57, 127
2, 632480, Note_on_c, 1, 66, 127
2, 632600, Note_off_c, 1, 57, 0
2, 632600, Note_off_c, 1, 66, 0
2, 632640, Note_on_c, 1, 59, 127
2, 632640, Note_on_c, 1, 67, 127
2, 632760, Note_off_c, 1, 59, 0
2, 632760, Note_off_c, 1, 67, 0
2, 632800, Note_on_c, 1, 61, 127
2, 632800, Note_on_c, 1, 64, 127
2, 632960, Note_off_c, 1, 61, 0
2, 632960, Note_off_c, 1, 64, 0
2, 633000, Note_on_c, 1, 54, 127
2, 633000, Note_on_c, 1, 62, 127
2, 633120, Note_off_c, 1, 54, 0
2, 633120, Note_off_c, 1, 62, 0
2, 633160, Note_on_c, 1, 55, 127
2, 633160, Note_on_c, 1, 66, 127
2, 633280, Note_off_c, 1, 55, 0
2, 633280, Note_off_c, 1, 66, 0
2, 633360, Note_on_c, 1, 57, 127
2, 633360, Note_on_c, 1, 69, 127
2, 633480, Note_off_c, 1, 57, 0
2, 633480, Note_off_c, 1, 69, 0
2, 633520, Note_on_c, 1, 50, 127
2, 633520, Note_on_c, 1, 66, 127
2, 633640, Note_off_c, 1, 50, 0
2, 633640, Note_off_c, 1, 66, 0
2, 633680, Note_on_c, 1, 52, 127
2, 633680, Note_on_c, 1, 69, 127
2, 633840, Note_off_c, 1, 52, 0
2, 633840, Note_off_c, 1, 69, 0
2, 633880, Note_on_c, 1, 54, 127
2, 633880, Note_on_c, 1, 74, 127
2, 634000, Note_off_c, 1, 54, 0
2, 634000, Note_off_c, 1, 74, 0
2, 634040, Note_on_c, 1, 49, 127
2, 634040, Note_on_c, 1, 69, 127
2, 634160, Note_off_c, 1, 49, 0
2, 634160, Note_off_c, 1, 69, 0
2, 634200, Note_on_c, 1, 50, 127
2, 634200, Note_on_c, 1, 73, 127
2, 634360, Note_off_c, 1, 50, 0
2, 634360, Note_off_c, 1, 73, 0
2, 634400, Note_on_c, 1, 52, 127
2, 634400, Note_on_c, 1, 76, 127
2, 634520, Note_off_c, 1, 52, 0
2, 634520, Note_off_c, 1, 76, 0
2, 634560, Note_on_c, 1, 45, 127
2, 634560, Note_on_c, 1, 73, 127
2, 634680, Note_off_c, 1, 45, 0
2, 634680, Note_off_c, 1, 73, 0
2, 634760, Note_on_c, 1, 47, 127
2, 634760, Note_on_c, 1, 76, 127
2, 634880, Note_off_c, 1, 47, 0
2, 634880, Note_off_c, 1, 76, 0
2, 634920, Note_on_c, 1, 49, 127
2, 634920, Note_on_c, 1, 81, 127
2, 635040, Note_off_c, 1, 49, 0
2, 635040, Note_off_c, 1, 81, 0
2, 635080, Note_on_c, 1, 42, 127
2, 635080, Note_on_c, 1, 81, 127
2, 635240, Note_off_c, 1, 81, 0
2, 635280, Note_on_c, 1, 78, 127
2, 635400, Note_off_c, 1, 78, 0
2, 635440, Note_on_c, 1, 74, 127
2, 635560, Note_off_c, 1, 42, 0
2, 635560, Note_off_c, 1, 74, 0
2, 635640, Note_on_c, 1, 72, 127
2, 635760, Note_off_c, 1, 72, 0
2, 635800, Note_on_c, 1, 71, 127
2, 635920, Note_off_c, 1, 71, 0
2, 635960, Note_on_c, 1, 54, 127
2, 635960, Note_on_c, 1, 69, 127
2, 636120, Note_off_c, 1, 54, 0
2, 636120, Note_off_c, 1, 69, 0
2, 636160, Note_on_c, 1, 55, 127
2, 636160, Note_on_c, 1, 71, 127
2, 636200, Note_off_c, 1, 71, 0
2, 636240, Note_on_c, 1, 69, 127
2, 636280, Note_off_c, 1, 55, 0
2, 636280, Note_off_c, 1, 69, 0
2, 636320, Note_on_c, 1, 57, 127
2, 636320, Note_on_c, 1, 71, 127
2, 636440, Note_off_c, 1, 57, 0
2, 636480, Note_on_c, 1, 59, 127
2, 636640, Note_off_c, 1, 59, 0
2, 636680, Note_on_c, 1, 59, 127
2, 636680, Note_off_c, 1, 71, 0
2, 636800, Note_off_c, 1, 59, 0
2, 636840, Note_on_c, 1, 61, 127
2, 637000, Note_off_c, 1, 61, 0
2, 637040, Note_on_c, 1, 62, 127
2, 637040, Note_on_c, 1, 71, 127
2, 637160, Note_off_c, 1, 62, 0
2, 637160, Note_off_c, 1, 71, 0
2, 637200, Note_on_c, 1, 40, 127
2, 637200, Note_on_c, 1, 79, 127
2, 637320, Note_off_c, 1, 79, 0
2, 637360, Note_on_c, 1, 76, 127
2, 637520, Note_off_c, 1, 76, 0
2, 637560, Note_on_c, 1, 73, 127
2, 637680, Note_off_c, 1, 40, 0
2, 637680, Note_off_c, 1, 73, 0
2, 637720, Note_on_c, 1, 71, 127
2, 637880, Note_off_c, 1, 71, 0
2, 637920, Note_on_c, 1, 69, 127
2, 638040, Note_off_c, 1, 69, 0
2, 638080, Note_on_c, 1, 52, 127
2, 638080, Note_on_c, 1, 67, 127
2, 638200, Note_off_c, 1, 52, 0
2, 638200, Note_off_c, 1, 67, 0
2, 638240, Note_on_c, 1, 54, 127
2, 638240, Note_on_c, 1, 69, 127
2, 638280, Note_off_c, 1, 69, 0
2, 638320, Note_on_c, 1, 67, 127
2, 638400, Note_off_c, 1, 54, 0
2, 638400, Note_off_c, 1, 67, 0
2, 638440, Note_on_c, 1, 55, 127
2, 638440, Note_on_c, 1, 69, 127
2, 638560, Note_off_c, 1, 55, 0
2, 638600, Note_on_c, 1, 57, 127
2, 638720, Note_off_c, 1, 57, 0
2, 638760, Note_off_c, 1, 69, 0
2, 638800, Note_on_c, 1, 57, 127
2, 638920, Note_off_c, 1, 57, 0
2, 638960, Note_on_c, 1, 59, 127
2, 639080, Note_off_c, 1, 59, 0
2, 639120, Note_on_c, 1, 61, 127
2, 639120, Note_on_c, 1, 69, 127
2, 639280, Note_off_c, 1, 61, 0
2, 639280, Note_off_c, 1, 69, 0
2, 639320, Note_on_c, 1, 38, 127
2, 639320, Note_on_c, 1, 78, 127
2, 639440, Note_off_c, 1, 78, 0
2, 639480, Note_on_c, 1, 74, 127
2, 639600, Note_off_c, 1, 74, 0
2, 639640, Note_on_c, 1, 71, 127
2, 639800, Note_off_c, 1, 38, 0
2, 639800, Note_off_c, 1, 71, 0
2, 639840, Note_on_c, 1, 50, 127
2, 639840, Note_on_c, 1, 69, 127
2, 639960, Note_off_c, 1, 69, 0
2, 640000, Note_on_c, 1, 67, 127
2, 640160, Note_off_c, 1, 67, 0
2, 640200, Note_on_c, 1, 66, 127
2, 640320, Note_off_c, 1, 66, 0
2, 640360, Note_on_c, 1, 76, 127
2, 640480, Note_off_c, 1, 76, 0
2, 640520, Note_on_c, 1, 73, 127
2, 640680, Note_off_c, 1, 73, 0
2, 640720, Note_on_c, 1, 69, 127
2, 640840, Note_off_c, 1, 50, 0
2, 640840, Note_off_c, 1, 69, 0
2, 640880, Note_on_c, 1, 49, 127
2, 640880, Note_on_c, 1, 67, 127
2, 641000, Note_off_c, 1, 67, 0
2, 641080, Note_on_c, 1, 66, 127
2, 641200, Note_off_c, 1, 66, 0
2, 641240, Note_on_c, 1, 64, 127
2, 641360, Note_off_c, 1, 49, 0
2, 641360, Note_off_c, 1, 64, 0
2, 641400, Note_on_c, 1, 50, 127
2, 641400, Note_on_c, 1, 66, 127
2, 641560, Note_off_c, 1, 66, 0
2, 641600, Note_on_c, 1, 69, 127
2, 641720, Note_off_c, 1, 69, 0
2, 641760, Note_on_c, 1, 74, 127
2, 641880, Note_off_c, 1, 50, 0
2, 641920, Note_on_c, 1, 47, 127
2, 641920, Note_on_c, 1, 68, 127
2, 641920, Note_off_c, 1, 74, 0
2, 642080, Note_off_c, 1, 68, 0
2, 642120, Note_on_c, 1, 76, 127
2, 642240, Note_off_c, 1, 76, 0
2, 642280, Note_on_c, 1, 74, 127
2, 642440, Note_off_c, 1, 47, 0
2, 642440, Note_off_c, 1, 74, 0
2, 642480, Note_on_c, 1, 45, 127
2, 642480, Note_on_c, 1, 73, 127
2, 642600, Note_off_c, 1, 73, 0
2, 642640, Note_on_c, 1, 74, 127
2, 642760, Note_off_c, 1, 74, 0
2, 642800, Note_on_c, 1, 76, 127
2, 642960, Note_off_c, 1, 76, 0
2, 643000, Note_on_c, 1, 69, 127
2, 643120, Note_off_c, 1, 45, 0
2, 643160, Note_on_c, 1, 47, 127
2, 643280, Note_off_c, 1, 47, 0
2, 643280, Note_off_c, 1, 69, 0
2, 643360, Note_on_c, 1, 49, 127
2, 643360, Note_on_c, 1, 76, 127
2, 643480, Note_off_c, 1, 49, 0
2, 643480, Note_off_c, 1, 76, 0
2, 643520, Note_on_c, 1, 50, 127
2, 643520, Note_on_c, 1, 78, 127
2, 643640, Note_off_c, 1, 50, 0
2, 643640, Note_off_c, 1, 78, 0
2, 643680, Note_on_c, 1, 52, 127
2, 643680, Note_on_c, 1, 79, 127
2, 643840, Note_off_c, 1, 52, 0
2, 643840, Note_off_c, 1, 79, 0
2, 643880, Note_on_c, 1, 54, 127
2, 643880, Note_on_c, 1, 81, 127
2, 644000, Note_off_c, 1, 54, 0
2, 644000, Note_off_c, 1, 81, 0
2, 644040, Note_on_c, 1, 49, 127
2, 644040, Note_on_c, 1, 69, 127
2, 644160, Note_off_c, 1, 49, 0
2, 644160, Note_off_c, 1, 69, 0
2, 644200, Note_on_c, 1, 50, 127
2, 644200, Note_on_c, 1, 71, 127
2, 644360, Note_off_c, 1, 50, 0
2, 644360, Note_off_c, 1, 71, 0
2, 644400, Note_on_c, 1, 52, 127
2, 644400, Note_on_c, 1, 73, 127
2, 644520, Note_off_c, 1, 52, 0
2, 644520, Note_off_c, 1, 73, 0
2, 644560, Note_on_c, 1, 54, 127
2, 644560, Note_on_c, 1, 74, 127
2, 644720, Note_off_c, 1, 54, 0
2, 644720, Note_off_c, 1, 74, 0
2, 644760, Note_on_c, 1, 55, 127
2, 644760, Note_on_c, 1, 76, 127
2, 644880, Note_off_c, 1, 55, 0
2, 644880, Note_off_c, 1, 76, 0
2, 644920, Note_on_c, 1, 57, 127
2, 644920, Note_on_c, 1, 78, 127
2, 645040, Note_off_c, 1, 57, 0
2, 645040, Note_off_c, 1, 78, 0
2, 645080, Note_on_c, 1, 57, 127
2, 645080, Note_on_c, 1, 73, 127
2, 645240, Note_off_c, 1, 57, 0
2, 645240, Note_off_c, 1, 73, 0
2, 645280, Note_on_c, 1, 59, 127
2, 645280, Note_on_c, 1, 74, 127
2, 645400, Note_off_c, 1, 59, 0
2, 645400, Note_off_c, 1, 74, 0
2, 645440, Note_on_c, 1, 61, 127
2, 645440, Note_on_c, 1, 76, 127
2, 645560, Note_off_c, 1, 61, 0
2, 645560, Note_off_c, 1, 76, 0
2, 645640, Note_on_c, 1, 62, 127
2, 645640, Note_on_c, 1, 78, 127
2, 645760, Note_off_c, 1, 62, 0
2, 645760, Note_off_c, 1, 78, 0
2, 645800, Note_on_c, 1, 64, 127
2, 645800, Note_on_c, 1, 79, 127
2, 645920, Note_off_c, 1, 64, 0
2, 645920, Note_off_c, 1, 79, 0
2, 645960, Note_on_c, 1, 66, 127
2, 645960, Note_on_c, 1, 81, 127
2, 646120, Note_off_c, 1, 66, 0
2, 646120, Note_off_c, 1, 81, 0
2, 646160, Note_on_c, 1, 61, 127
2, 646160, Note_on_c, 1, 69, 127
2, 646280, Note_off_c, 1, 61, 0
2, 646280, Note_off_c, 1, 69, 0
2, 646320, Note_on_c, 1, 62, 127
2, 646320, Note_on_c, 1, 71, 127
2, 646440, Note_off_c, 1, 62, 0
2, 646440, Note_off_c, 1, 71, 0
2, 646480, Note_on_c, 1, 64, 127
2, 646480, Note_on_c, 1, 73, 127
2, 646640, Note_off_c, 1, 64, 0
2, 646640, Note_off_c, 1, 73, 0
2, 646680, Note_on_c, 1, 66, 127
2, 646680, Note_on_c, 1, 74, 127
2, 646800, Note_off_c, 1, 66, 0
2, 646800, Note_off_c, 1, 74, 0
2, 646840, Note_on_c, 1, 67, 127
2, 646840, Note_on_c, 1, 76, 127
2, 646960, Note_off_c, 1, 67, 0
2, 646960, Note_off_c, 1, 76, 0
2, 647040, Note_on_c, 1, 69, 127
2, 647040, Note_on_c, 1, 78, 127
2, 647160, Note_off_c, 1, 69, 0
2, 647160, Note_off_c, 1, 78, 0
2, 647200, Note_on_c, 1, 69, 127
2, 647200, Note_on_c, 1, 73, 127
2, 647320, Note_off_c, 1, 69, 0
2, 647320, Note_off_c, 1, 73, 0
2, 647360, Note_on_c, 1, 71, 127
2, 647360, Note_on_c, 1, 74, 127
2, 647520, Note_off_c, 1, 71, 0
2, 647520, Note_off_c, 1, 74, 0
2, 647560, Note_on_c, 1, 73, 127
2, 647560, Note_on_c, 1, 76, 127
2, 647680, Note_off_c, 1, 73, 0
2, 647680, Note_off_c, 1, 76, 0
2, 647720, Note_on_c, 1, 74, 127
2, 647720, Note_on_c, 1, 78, 127
2, 647840, Note_off_c, 1, 78, 0
2, 647880, Note_on_c, 1, 79, 127
2, 648040, Note_off_c, 1, 74, 0
2, 648040, Note_off_c, 1, 79, 0
2, 648080, Note_on_c, 1, 67, 127
2, 648080, Note_on_c, 1, 81, 127
2, 648200, Note_off_c, 1, 67, 0
2, 648200, Note_off_c, 1, 81, 0
2, 648240, Note_on_c, 1, 69, 127
2, 648240, Note_on_c, 1, 79, 127
2, 648280, Note_off_c, 1, 79, 0
2, 648320, Note_on_c, 1, 78, 127
2, 648400, Note_off_c, 1, 78, 0
2, 648440, Note_on_c, 1, 76, 127
2, 648560, Note_off_c, 1, 69, 0
2, 648560, Note_off_c, 1, 76, 0
2, 648600, Note_on_c, 1, 57, 127
2, 648600, Note_on_c, 1, 74, 127
2, 648720, Note_off_c, 1, 57, 0
2, 648720, Note_off_c, 1, 74, 0
2, 648760, Note_on_c, 1, 50, 127
2, 648760, Note_on_c, 1, 74, 127
2, 648920, Note_off_c, 1, 74, 0
2, 648960, Note_on_c, 1, 69, 127
2, 649080, Note_off_c, 1, 69, 0
2, 649120, Note_on_c, 1, 66, 127
2, 649240, Note_off_c, 1, 66, 0
2, 649320, Note_on_c, 1, 62, 127
2, 649440, Note_off_c, 1, 50, 0
2, 649480, Note_on_c, 1, 45, 127
2, 649600, Note_off_c, 1, 45, 0
2, 649600, Note_off_c, 1, 62, 0
2, 649640, Note_on_c, 1, 42, 127
2, 649640, Note_on_c, 1, 69, 127
2, 649800, Note_off_c, 1, 42, 0
2, 649800, Note_off_c, 1, 69, 0
2, 649840, Note_on_c, 1, 38, 127
2, 649840, Note_on_c, 1, 74, 127
2, 650120, Note_off_c, 1, 74, 0
2, 650160, Note_on_c, 1, 74, 127
2, 650320, Note_off_c, 1, 38, 0
2, 650320, Note_off_c, 1, 74, 0
2, 650360, Note_on_c, 1, 50, 127
2, 650360, Note_on_c, 1, 74, 127
2, 650480, Note_off_c, 1, 74, 0
2, 650520, Note_on_c, 1, 76, 127
2, 650680, Note_off_c, 1, 76, 0
2, 650720, Note_on_c, 1, 78, 127
2, 650840, Note_off_c, 1, 78, 0
2, 650880, Note_on_c, 1, 76, 127
2, 651000, Note_off_c, 1, 76, 0
2, 651040, Note_on_c, 1, 67, 127
2, 651200, Note_off_c, 1, 67, 0
2, 651240, Note_on_c, 1, 76, 127
2, 651360, Note_off_c, 1, 50, 0
2, 651360, Note_off_c, 1, 76, 0
2, 651400, Note_on_c, 1, 49, 127
2, 651400, Note_on_c, 1, 69, 127
2, 651520, Note_off_c, 1, 69, 0
2, 651600, Note_on_c, 1, 71, 127
2, 651720, Note_off_c, 1, 71, 0
2, 651760, Note_on_c, 1, 67, 127
2, 651880, Note_off_c, 1, 49, 0
2, 651880, Note_off_c, 1, 67, 0
2, 651920, Note_on_c, 1, 50, 127
2, 651920, Note_on_c, 1, 66, 127
2, 652080, Note_off_c, 1, 66, 0
2, 652120, Note_on_c, 1, 74, 127
2, 652240, Note_off_c, 1, 74, 0
2, 652280, Note_on_c, 1, 66, 127
2, 652400, Note_off_c, 1, 50, 0
2, 652400, Note_off_c, 1, 66, 0
2, 652440, Note_on_c, 1, 43, 127
2, 652440, Note_on_c, 1, 64, 127
2, 652600, Note_off_c, 1, 64, 0
2, 652640, Note_on_c, 1, 66, 127
2, 652760, Note_off_c, 1, 66, 0
2, 652800, Note_on_c, 1, 62, 127
2, 652960, Note_off_c, 1, 43, 0
2, 652960, Note_off_c, 1, 62, 0
2, 653000, Note_on_c, 1, 45, 127
2, 653000, Note_on_c, 1, 61, 127
2, 653120, Note_off_c, 1, 61, 0
2, 653160, Note_on_c, 1, 62, 127
2, 653280, Note_off_c, 1, 62, 0
2, 653320, Note_on_c, 1, 64, 127
2, 653480, Note_off_c, 1, 64, 0
2, 653520, Note_on_c, 1, 57, 127
2, 653640, Note_off_c, 1, 45, 0
2, 653680, Note_on_c, 1, 47, 127
2, 653800, Note_off_c, 1, 47, 0
2, 653800, Note_off_c, 1, 57, 0
2, 653880, Note_on_c, 1, 49, 127
2, 653880, Note_on_c, 1, 64, 127
2, 654000, Note_off_c, 1, 49, 0
2, 654000, Note_off_c, 1, 64, 0
2, 654040, Note_on_c, 1, 50, 127
2, 654040, Note_on_c, 1, 66, 127
2, 654160, Note_off_c, 1, 50, 0
2, 654160, Note_off_c, 1, 66, 0
2, 654200, Note_on_c, 1, 52, 127
2, 654200, Note_on_c, 1, 68, 127
2, 654360, Note_off_c, 1, 52, 0
2, 654360, Note_off_c, 1, 68, 0
2, 654400, Note_on_c, 1, 54, 127
2, 654400, Note_on_c, 1, 69, 127
2, 654520, Note_off_c, 1, 54, 0
2, 654520, Note_off_c, 1, 69, 0
2, 654560, Note_on_c, 1, 56, 127
2, 654560, Note_on_c, 1, 71, 127
2, 654680, Note_off_c, 1, 56, 0
2, 654680, Note_off_c, 1, 71, 0
2, 654720, Note_on_c, 1, 57, 127
2, 654720, Note_on_c, 1, 73, 127
2, 654880, Note_off_c, 1, 57, 0
2, 654880, Note_off_c, 1, 73, 0
2, 654920, Note_on_c, 1, 59, 127
2, 654920, Note_on_c, 1, 74, 127
2, 655040, Note_off_c, 1, 59, 0
2, 655040, Note_off_c, 1, 74, 0
2, 655080, Note_on_c, 1, 49, 127
2, 655080, Note_on_c, 1, 65, 127
2, 655240, Note_off_c, 1, 49, 0
2, 655280, Note_on_c, 1, 61, 127
2, 655400, Note_off_c, 1, 61, 0
2, 655400, Note_off_c, 1, 65, 0
2, 655440, Note_on_c, 1, 59, 127
2, 655440, Note_on_c, 1, 74, 127
2, 655560, Note_off_c, 1, 59, 0
2, 655560, Note_off_c, 1, 74, 0
2, 655600, Note_on_c, 1, 58, 127
2, 655600, Note_on_c, 1, 73, 127
2, 655760, Note_off_c, 1, 58, 0
2, 655800, Note_on_c, 1, 59, 127
2, 655920, Note_off_c, 1, 59, 0
2, 655960, Note_on_c, 1, 56, 127
2, 656040, Note_off_c, 1, 73, 0
2, 656080, Note_off_c, 1, 56, 0
2, 656160, Note_on_c, 1, 58, 127
2, 656160, Note_on_c, 1, 64, 127
2, 656280, Note_off_c, 1, 58, 0
2, 656280, Note_off_c, 1, 64, 0
2, 656320, Note_on_c, 1, 56, 127
2, 656320, Note_on_c, 1, 66, 127
2, 656440, Note_off_c, 1, 56, 0
2, 656440, Note_off_c, 1, 66, 0
2, 656480, Note_on_c, 1, 54, 127
2, 656480, Note_on_c, 1, 68, 127
2, 656640, Note_off_c, 1, 54, 0
2, 656640, Note_off_c, 1, 68, 0
2, 656680, Note_on_c, 1, 52, 127
2, 656680, Note_on_c, 1, 70, 127
2, 656800, Note_off_c, 1, 52, 0
2, 656800, Note_off_c, 1, 70, 0
2, 656840, Note_on_c, 1, 50, 127
2, 656840, Note_on_c, 1, 71, 127
2, 656960, Note_off_c, 1, 50, 0
2, 656960, Note_off_c, 1, 71, 0
2, 657000, Note_on_c, 1, 49, 127
2, 657000, Note_on_c, 1, 73, 127
2, 657160, Note_off_c, 1, 49, 0
2, 657160, Note_off_c, 1, 73, 0
2, 657200, Note_on_c, 1, 47, 127
2, 657200, Note_on_c, 1, 63, 127
2, 657320, Note_off_c, 1, 47, 0
2, 657360, Note_on_c, 1, 59, 127
2, 657520, Note_off_c, 1, 59, 0
2, 657520, Note_off_c, 1, 63, 0
2, 657560, Note_on_c, 1, 57, 127
2, 657560, Note_on_c, 1, 73, 127
2, 657680, Note_off_c, 1, 57, 0
2, 657680, Note_off_c, 1, 73, 0
2, 657720, Note_on_c, 1, 56, 127
2, 657720, Note_on_c, 1, 71, 127
2, 657840, Note_off_c, 1, 56, 0
2, 657880, Note_on_c, 1, 57, 127
2, 658040, Note_off_c, 1, 57, 0
2, 658080, Note_on_c, 1, 54, 127
2, 658160, Note_off_c, 1, 71, 0
2, 658200, Note_off_c, 1, 54, 0
2, 658240, Note_on_c, 1, 56, 127
2, 658240, Note_on_c, 1, 62, 127
2, 658360, Note_off_c, 1, 56, 0
2, 658360, Note_off_c, 1, 62, 0
2, 658440, Note_on_c, 1, 54, 127
2, 658440, Note_on_c, 1, 64, 127
2, 658560, Note_off_c, 1, 54, 0
2, 658560, Note_off_c, 1, 64, 0
2, 658600, Note_on_c, 1, 52, 127
2, 658600, Note_on_c, 1, 66, 127
2, 658720, Note_off_c, 1, 52, 0
2, 658720, Note_off_c, 1, 66, 0
2, 658760, Note_on_c, 1, 50, 127
2, 658760, Note_on_c, 1, 68, 127
2, 658920, Note_off_c, 1, 50, 0
2, 658920, Note_off_c, 1, 68, 0
2, 658960, Note_on_c, 1, 49, 127
2, 658960, Note_on_c, 1, 69, 127
2, 659080, Note_off_c, 1, 49, 0
2, 659080, Note_off_c, 1, 69, 0
2, 659120, Note_on_c, 1, 47, 127
2, 659120, Note_on_c, 1, 71, 127
2, 659240, Note_off_c, 1, 47, 0
2, 659240, Note_off_c, 1, 71, 0
2, 659280, Note_on_c, 1, 45, 127
2, 659280, Note_on_c, 1, 61, 127
2, 659440, Note_off_c, 1, 45, 0
2, 659480, Note_on_c, 1, 57, 127
2, 659600, Note_off_c, 1, 57, 0
2, 659600, Note_off_c, 1, 61, 0
2, 659640, Note_on_c, 1, 56, 127
2, 659640, Note_on_c, 1, 71, 127
2, 659760, Note_off_c, 1, 56, 0
2, 659760, Note_off_c, 1, 71, 0
2, 659840, Note_on_c, 1, 54, 127
2, 659840, Note_on_c, 1, 69, 127
2, 659960, Note_off_c, 1, 54, 0
2, 660000, Note_on_c, 1, 53, 127
2, 660120, Note_off_c, 1, 53, 0
2, 660160, Note_on_c, 1, 54, 127
2, 660320, Note_off_c, 1, 54, 0
2, 660320, Note_off_c, 1, 69, 0
2, 660360, Note_on_c, 1, 44, 127
2, 660360, Note_on_c, 1, 59, 127
2, 660480, Note_off_c, 1, 44, 0
2, 660520, Note_on_c, 1, 56, 127
2, 660640, Note_off_c, 1, 56, 0
2, 660640, Note_off_c, 1, 59, 0
2, 660680, Note_on_c, 1, 54, 127
2, 660680, Note_on_c, 1, 69, 127
2, 660840, Note_off_c, 1, 54, 0
2, 660840, Note_off_c, 1, 69, 0
2, 660880, Note_on_c, 1, 53, 127
2, 660880, Note_on_c, 1, 68, 127
2, 661000, Note_off_c, 1, 53, 0
2, 661040, Note_on_c, 1, 51, 127
2, 661200, Note_off_c, 1, 51, 0
2, 661240, Note_on_c, 1, 53, 127
2, 661360, Note_off_c, 1, 53, 0
2, 661360, Note_off_c, 1, 68, 0
2, 661400, Note_on_c, 1, 42, 127
2, 661400, Note_on_c, 1, 57, 127
2, 661520, Note_off_c, 1, 42, 0
2, 661560, Note_on_c, 1, 54, 127
2, 661720, Note_off_c, 1, 54, 0
2, 661720, Note_off_c, 1, 57, 0
2, 661760, Note_on_c, 1, 52, 127
2, 661760, Note_on_c, 1, 68, 127
2, 661880, Note_off_c, 1, 52, 0
2, 661880, Note_off_c, 1, 68, 0
2, 661920, Note_on_c, 1, 50, 127
2, 661920, Note_on_c, 1, 66, 127
2, 662040, Note_off_c, 1, 50, 0
2, 662040, Note_off_c, 1, 66, 0
2, 662120, Note_on_c, 1, 49, 127
2, 662120, Note_on_c, 1, 65, 127
2, 662240, Note_off_c, 1, 49, 0
2, 662240, Note_off_c, 1, 65, 0
2, 662280, Note_on_c, 1, 47, 127
2, 662280, Note_on_c, 1, 66, 127
2, 662400, Note_off_c, 1, 47, 0
2, 662400, Note_off_c, 1, 66, 0
2, 662440, Note_on_c, 1, 49, 127
2, 662440, Note_on_c, 1, 65, 127
2, 662600, Note_off_c, 1, 65, 0
2, 662640, Note_on_c, 1, 66, 127
2, 662760, Note_off_c, 1, 66, 0
2, 662800, Note_on_c, 1, 68, 127
2, 662920, Note_off_c, 1, 68, 0
2, 662960, Note_on_c, 1, 61, 127
2, 663120, Note_off_c, 1, 49, 0
2, 663120, Note_off_c, 1, 61, 0
2, 663160, Note_on_c, 1, 51, 127
2, 663160, Note_on_c, 1, 73, 127
2, 663280, Note_off_c, 1, 51, 0
2, 663280, Note_off_c, 1, 73, 0
2, 663320, Note_on_c, 1, 53, 127
2, 663320, Note_on_c, 1, 71, 127
2, 663480, Note_off_c, 1, 53, 0
2, 663480, Note_off_c, 1, 71, 0
2, 663520, Note_on_c, 1, 54, 127
2, 663520, Note_on_c, 1, 69, 127
2, 663640, Note_off_c, 1, 54, 0
2, 663640, Note_off_c, 1, 69, 0
2, 663680, Note_on_c, 1, 56, 127
2, 663680, Note_on_c, 1, 71, 127
2, 663800, Note_off_c, 1, 56, 0
2, 663800, Note_off_c, 1, 71, 0
2, 663840, Note_on_c, 1, 57, 127
2, 663840, Note_on_c, 1, 73, 127
2, 664000, Note_off_c, 1, 57, 0
2, 664000, Note_off_c, 1, 73, 0
2, 664040, Note_on_c, 1, 50, 127
2, 664040, Note_on_c, 1, 66, 127
2, 664160, Note_off_c, 1, 50, 0
2, 664160, Note_off_c, 1, 66, 0
2, 664200, Note_on_c, 1, 52, 127
2, 664200, Note_on_c, 1, 74, 127
2, 664320, Note_off_c, 1, 52, 0
2, 664320, Note_off_c, 1, 74, 0
2, 664400, Note_on_c, 1, 54, 127
2, 664400, Note_on_c, 1, 73, 127
2, 664520, Note_off_c, 1, 54, 0
2, 664520, Note_off_c, 1, 73, 0
2, 664560, Note_on_c, 1, 56, 127
2, 664560, Note_on_c, 1, 71, 127
2, 664680, Note_off_c, 1, 56, 0
2, 664680, Note_off_c, 1, 71, 0
2, 664720, Note_on_c, 1, 57, 127
2, 664720, Note_on_c, 1, 73, 127
2, 664880, Note_off_c, 1, 57, 0
2, 664880, Note_off_c, 1, 73, 0
2, 664920, Note_on_c, 1, 59, 127
2, 664920, Note_on_c, 1, 74, 127
2, 665040, Note_off_c, 1, 59, 0
2, 665040, Note_off_c, 1, 74, 0
2, 665080, Note_on_c, 1, 52, 127
2, 665080, Note_on_c, 1, 68, 127
2, 665200, Note_off_c, 1, 52, 0
2, 665200, Note_off_c, 1, 68, 0
2, 665240, Note_on_c, 1, 54, 127
2, 665240, Note_on_c, 1, 76, 127
2, 665400, Note_off_c, 1, 54, 0
2, 665400, Note_off_c, 1, 76, 0
2, 665440, Note_on_c, 1, 56, 127
2, 665440, Note_on_c, 1, 74, 127
2, 665560, Note_off_c, 1, 56, 0
2, 665560, Note_off_c, 1, 74, 0
2, 665600, Note_on_c, 1, 57, 127
2, 665600, Note_on_c, 1, 73, 127
2, 665760, Note_off_c, 1, 57, 0
2, 665760, Note_off_c, 1, 73, 0
2, 665800, Note_on_c, 1, 59, 127
2, 665800, Note_on_c, 1, 74, 127
2, 665920, Note_off_c, 1, 59, 0
2, 665920, Note_off_c, 1, 74, 0
2, 665960, Note_on_c, 1, 61, 127
2, 665960, Note_on_c, 1, 76, 127
2, 666080, Note_off_c, 1, 61, 0
2, 666080, Note_off_c, 1, 76, 0
2, 666120, Note_on_c, 1, 54, 127
2, 666120, Note_on_c, 1, 69, 127
2, 666280, Note_off_c, 1, 54, 0
2, 666280, Note_off_c, 1, 69, 0
2, 666320, Note_on_c, 1, 56, 127
2, 666320, Note_on_c, 1, 78, 127
2, 666440, Note_off_c, 1, 56, 0
2, 666440, Note_off_c, 1, 78, 0
2, 666480, Note_on_c, 1, 57, 127
2, 666480, Note_on_c, 1, 76, 127
2, 666600, Note_off_c, 1, 57, 0
2, 666600, Note_off_c, 1, 76, 0
2, 666680, Note_on_c, 1, 59, 127
2, 666680, Note_on_c, 1, 75, 127
2, 666800, Note_off_c, 1, 59, 0
2, 666800, Note_off_c, 1, 75, 0
2, 666840, Note_on_c, 1, 61, 127
2, 666840, Note_on_c, 1, 77, 127
2, 666960, Note_off_c, 1, 61, 0
2, 666960, Note_off_c, 1, 77, 0
2, 667000, Note_on_c, 1, 62, 127
2, 667000, Note_on_c, 1, 78, 127
2, 667160, Note_off_c, 1, 62, 0
2, 667160, Note_off_c, 1, 78, 0
2, 667200, Note_on_c, 1, 56, 127
2, 667200, Note_on_c, 1, 71, 127
2, 667320, Note_off_c, 1, 56, 0
2, 667320, Note_off_c, 1, 71, 0
2, 667360, Note_on_c, 1, 57, 127
2, 667360, Note_on_c, 1, 80, 127
2, 667480, Note_off_c, 1, 57, 0
2, 667480, Note_off_c, 1, 80, 0
2, 667520, Note_on_c, 1, 59, 127
2, 667520, Note_on_c, 1, 78, 127
2, 667680, Note_off_c, 1, 59, 0
2, 667680, Note_off_c, 1, 78, 0
2, 667720, Note_on_c, 1, 61, 127
2, 667720, Note_on_c, 1, 77, 127
2, 667840, Note_off_c, 1, 61, 0
2, 667840, Note_off_c, 1, 77, 0
2, 667880, Note_on_c, 1, 63, 127
2, 667880, Note_on_c, 1, 78, 127
2, 668040, Note_off_c, 1, 63, 0
2, 668040, Note_off_c, 1, 78, 0
2, 668080, Note_on_c, 1, 65, 127
2, 668080, Note_on_c, 1, 80, 127
2, 668200, Note_off_c, 1, 65, 0
2, 668200, Note_off_c, 1, 80, 0
2, 668240, Note_on_c, 1, 66, 127
2, 668240, Note_on_c, 1, 81, 127
2, 668280, Note_off_c, 1, 66, 0
2, 668280, Note_off_c, 1, 81, 0
2, 668320, Note_on_c, 1, 65, 127
2, 668320, Note_on_c, 1, 80, 127
2, 668360, Note_off_c, 1, 65, 0
2, 668360, Note_off_c, 1, 80, 0
2, 668400, Note_on_c, 1, 63, 127
2, 668400, Note_on_c, 1, 78, 127
2, 668560, Note_off_c, 1, 63, 0
2, 668560, Note_off_c, 1, 78, 0
2, 668600, Note_on_c, 1, 65, 127
2, 668600, Note_on_c, 1, 80, 127
2, 668720, Note_off_c, 1, 65, 0
2, 668720, Note_off_c, 1, 80, 0
2, 668760, Note_on_c, 1, 66, 127
2, 668760, Note_on_c, 1, 81, 127
2, 668880, Note_off_c, 1, 66, 0
2, 668880, Note_off_c, 1, 81, 0
2, 668960, Note_on_c, 1, 54, 127
2, 668960, Note_on_c, 1, 69, 127
2, 669080, Note_off_c, 1, 54, 0
2, 669080, Note_off_c, 1, 69, 0
2, 669120, Note_on_c, 1, 56, 127
2, 669120, Note_on_c, 1, 71, 127
2, 669240, Note_off_c, 1, 56, 0
2, 669240, Note_off_c, 1, 71, 0
2, 669280, Note_on_c, 1, 57, 127
2, 669280, Note_on_c, 1, 73, 127
2, 669440, Note_off_c, 1, 57, 0
2, 669440, Note_off_c, 1, 73, 0
2, 669480, Note_on_c, 1, 59, 127
2, 669480, Note_on_c, 1, 75, 127
2, 669600, Note_off_c, 1, 59, 0
2, 669600, Note_off_c, 1, 75, 0
2, 669640, Note_on_c, 1, 61, 127
2, 669640, Note_on_c, 1, 77, 127
2, 669760, Note_off_c, 1, 61, 0
2, 669760, Note_off_c, 1, 77, 0
2, 669800, Note_on_c, 1, 63, 127
2, 669800, Note_on_c, 1, 78, 127
2, 669960, Note_off_c, 1, 63, 0
2, 669960, Note_off_c, 1, 78, 0
2, 670000, Note_on_c, 1, 65, 127
2, 670000, Note_on_c, 1, 80, 127
2, 670120, Note_off_c, 1, 65, 0
2, 670120, Note_off_c, 1, 80, 0
2, 670160, Note_on_c, 1, 66, 127
2, 670160, Note_on_c, 1, 81, 127
2, 670320, Note_off_c, 1, 66, 0
2, 670320, Note_off_c, 1, 81, 0
2, 670360, Note_on_c, 1, 68, 127
2, 670360, Note_on_c, 1, 83, 127
2, 670400, Note_off_c, 1, 68, 0
2, 670400, Note_off_c, 1, 83, 0
2, 670440, Note_on_c, 1, 66, 127
2, 670440, Note_on_c, 1, 81, 127
2, 670480, Note_off_c, 1, 66, 0
2, 670480, Note_off_c, 1, 81, 0
2, 670520, Note_on_c, 1, 65, 127
2, 670520, Note_on_c, 1, 80, 127
2, 670640, Note_off_c, 1, 65, 0
2, 670640, Note_off_c, 1, 80, 0
2, 670680, Note_on_c, 1, 66, 127
2, 670680, Note_on_c, 1, 81, 127
2, 670840, Note_off_c, 1, 66, 0
2, 670840, Note_off_c, 1, 81, 0
2, 670880, Note_on_c, 1, 68, 127
2, 670880, Note_on_c, 1, 83, 127
2, 671000, Note_off_c, 1, 68, 0
2, 671000, Note_off_c, 1, 83, 0
2, 671040, Note_on_c, 1, 56, 127
2, 671040, Note_on_c, 1, 71, 127
2, 671160, Note_off_c, 1, 56, 0
2, 671160, Note_off_c, 1, 71, 0
2, 671240, Note_on_c, 1, 57, 127
2, 671240, Note_on_c, 1, 73, 127
2, 671360, Note_off_c, 1, 57, 0
2, 671360, Note_off_c, 1, 73, 0
2, 671400, Note_on_c, 1, 59, 127
2, 671400, Note_on_c, 1, 75, 127
2, 671520, Note_off_c, 1, 59, 0
2, 671520, Note_off_c, 1, 75, 0
2, 671560, Note_on_c, 1, 61, 127
2, 671560, Note_on_c, 1, 77, 127
2, 671720, Note_off_c, 1, 61, 0
2, 671720, Note_off_c, 1, 77, 0
2, 671760, Note_on_c, 1, 63, 127
2, 671760, Note_on_c, 1, 78, 127
2, 671880, Note_off_c, 1, 63, 0
2, 671880, Note_off_c, 1, 78, 0
2, 671920, Note_on_c, 1, 65, 127
2, 671920, Note_on_c, 1, 80, 127
2, 672040, Note_off_c, 1, 65, 0
2, 672040, Note_off_c, 1, 80, 0
2, 672080, Note_on_c, 1, 66, 127
2, 672080, Note_on_c, 1, 81, 127
2, 672240, Note_off_c, 1, 66, 0
2, 672240, Note_off_c, 1, 81, 0
2, 672280, Note_on_c, 1, 68, 127
2, 672280, Note_on_c, 1, 83, 127
2, 672400, Note_off_c, 1, 68, 0
2, 672400, Note_off_c, 1, 83, 0
2, 672440, Note_on_c, 1, 69, 127
2, 672440, Note_on_c, 1, 85, 127
2, 672480, Note_off_c, 1, 69, 0
2, 672480, Note_off_c, 1, 85, 0
2, 672520, Note_on_c, 1, 68, 127
2, 672520, Note_on_c, 1, 83, 127
2, 672560, Note_off_c, 1, 68, 0
2, 672560, Note_off_c, 1, 83, 0
2, 672640, Note_on_c, 1, 66, 127
2, 672640, Note_on_c, 1, 81, 127
2, 672760, Note_off_c, 1, 66, 0
2, 672760, Note_off_c, 1, 81, 0
2, 672800, Note_on_c, 1, 68, 127
2, 672800, Note_on_c, 1, 83, 127
2, 672920, Note_off_c, 1, 68, 0
2, 672920, Note_off_c, 1, 83, 0
2, 672960, Note_on_c, 1, 69, 127
2, 672960, Note_on_c, 1, 85, 127
2, 673120, Note_off_c, 1, 69, 0
2, 673120, Note_off_c, 1, 85, 0
2, 673160, Note_on_c, 1, 59, 127
2, 673160, Note_on_c, 1, 75, 127
2, 673280, Note_off_c, 1, 59, 0
2, 673280, Note_off_c, 1, 75, 0
2, 673320, Note_on_c, 1, 61, 127
2, 673320, Note_on_c, 1, 77, 127
2, 673440, Note_off_c, 1, 61, 0
2, 673440, Note_off_c, 1, 77, 0
2, 673480, Note_on_c, 1, 63, 127
2, 673480, Note_on_c, 1, 78, 127
2, 673640, Note_off_c, 1, 63, 0
2, 673640, Note_off_c, 1, 78, 0
2, 673680, Note_on_c, 1, 65, 127
2, 673680, Note_on_c, 1, 80, 127
2, 673800, Note_off_c, 1, 65, 0
2, 673800, Note_off_c, 1, 80, 0
2, 673840, Note_on_c, 1, 66, 127
2, 673840, Note_on_c, 1, 81, 127
2, 674000, Note_off_c, 1, 66, 0
2, 674000, Note_off_c, 1, 81, 0
2, 674040, Note_on_c, 1, 68, 127
2, 674040, Note_on_c, 1, 83, 127
2, 674160, Note_off_c, 1, 68, 0
2, 674160, Note_off_c, 1, 83, 0
2, 674200, Note_on_c, 1, 57, 127
2, 674200, Note_on_c, 1, 73, 127
2, 674320, Note_off_c, 1, 57, 0
2, 674320, Note_off_c, 1, 73, 0
2, 674360, Note_on_c, 1, 59, 127
2, 674360, Note_on_c, 1, 75, 127
2, 674520, Note_off_c, 1, 59, 0
2, 674520, Note_off_c, 1, 75, 0
2, 674560, Note_on_c, 1, 61, 127
2, 674560, Note_on_c, 1, 77, 127
2, 674680, Note_off_c, 1, 61, 0
2, 674680, Note_off_c, 1, 77, 0
2, 674720, Note_on_c, 1, 63, 127
2, 674720, Note_on_c, 1, 78, 127
2, 674840, Note_off_c, 1, 63, 0
2, 674840, Note_off_c, 1, 78, 0
2, 674920, Note_on_c, 1, 65, 127
2, 674920, Note_on_c, 1, 80, 127
2, 675040, Note_off_c, 1, 65, 0
2, 675040, Note_off_c, 1, 80, 0
2, 675080, Note_on_c, 1, 66, 127
2, 675080, Note_on_c, 1, 81, 127
2, 675200, Note_off_c, 1, 81, 0
2, 675240, Note_on_c, 1, 83, 127
2, 675400, Note_off_c, 1, 66, 0
2, 675400, Note_off_c, 1, 83, 0
2, 675440, Note_on_c, 1, 59, 127
2, 675440, Note_on_c, 1, 85, 127
2, 675560, Note_off_c, 1, 59, 0
2, 675560, Note_off_c, 1, 85, 0
2, 675600, Note_on_c, 1, 61, 127
2, 675600, Note_on_c, 1, 73, 127
2, 675720, Note_off_c, 1, 73, 0
2, 675800, Note_on_c, 1, 78, 127
2, 675920, Note_off_c, 1, 61, 0
2, 675920, Note_off_c, 1, 78, 0
2, 675960, Note_on_c, 1, 49, 127
2, 675960, Note_on_c, 1, 77, 127
2, 676080, Note_off_c, 1, 49, 0
2, 676080, Note_off_c, 1, 77, 0
2, 676120, Note_on_c, 1, 54, 127
2, 676120, Note_on_c, 1, 78, 127
2, 676160, Note_off_c, 1, 78, 0
2, 676200, Note_on_c, 1, 77, 127
2, 676240, Note_off_c, 1, 77, 0
2, 676280, Note_off_c, 1, 54, 0
2, 676280, Note_on_c, 1, 78, 127
2, 676320, Note_on_c, 1, 56, 127
2, 676440, Note_off_c, 1, 56, 0
2, 676480, Note_on_c, 1, 57, 127
2, 676600, Note_off_c, 1, 57, 0
2, 676640, Note_on_c, 1, 57, 127
2, 676640, Note_off_c, 1, 78, 0
2, 676800, Note_off_c, 1, 57, 0
2, 676840, Note_on_c, 1, 59, 127
2, 676960, Note_off_c, 1, 59, 0
2, 677000, Note_on_c, 1, 60, 127
2, 677000, Note_on_c, 1, 78, 127
2, 677160, Note_off_c, 1, 60, 0
2, 677160, Note_off_c, 1, 78, 0
2, 677200, Note_on_c, 1, 51, 127
2, 677200, Note_on_c, 1, 78, 127
2, 677320, Note_off_c, 1, 78, 0
2, 677360, Note_on_c, 1, 75, 127
2, 677480, Note_off_c, 1, 75, 0
2, 677520, Note_on_c, 1, 71, 127
2, 677680, Note_off_c, 1, 51, 0
2, 677680, Note_off_c, 1, 71, 0
2, 677720, Note_on_c, 1, 69, 127
2, 677840, Note_off_c, 1, 69, 0
2, 677880, Note_on_c, 1, 67, 127
2, 678000, Note_off_c, 1, 67, 0
2, 678080, Note_on_c, 1, 47, 127
2, 678080, Note_on_c, 1, 66, 127
2, 678200, Note_off_c, 1, 47, 0
2, 678200, Note_off_c, 1, 66, 0
2, 678240, Note_on_c, 1, 52, 127
2, 678240, Note_on_c, 1, 67, 127
2, 678360, Note_off_c, 1, 52, 0
2, 678360, Note_off_c, 1, 67, 0
2, 678400, Note_on_c, 1, 55, 127
2, 678400, Note_on_c, 1, 64, 127
2, 678560, Note_off_c, 1, 55, 0
2, 678560, Note_off_c, 1, 64, 0
2, 678600, Note_on_c, 1, 59, 127
2, 678600, Note_on_c, 1, 67, 127
2, 678720, Note_off_c, 1, 59, 0
2, 678720, Note_off_c, 1, 67, 0
2, 678760, Note_on_c, 1, 64, 127
2, 678760, Note_on_c, 1, 71, 127
2, 678880, Note_off_c, 1, 71, 0
2, 678920, Note_on_c, 1, 67, 127
2, 679080, Note_off_c, 1, 64, 0
2, 679080, Note_off_c, 1, 67, 0
2, 679120, Note_on_c, 1, 50, 127
2, 679120, Note_on_c, 1, 71, 127
2, 679240, Note_off_c, 1, 50, 0
2, 679240, Note_off_c, 1, 71, 0
2, 679280, Note_on_c, 1, 49, 127
2, 679280, Note_on_c, 1, 76, 127
2, 679440, Note_off_c, 1, 76, 0
2, 679480, Note_on_c, 1, 73, 127
2, 679600, Note_off_c, 1, 73, 0
2, 679640, Note_on_c, 1, 69, 127
2, 679760, Note_off_c, 1, 49, 0
2, 679760, Note_off_c, 1, 69, 0
2, 679800, Note_on_c, 1, 67, 127
2, 679960, Note_off_c, 1, 67, 0
2, 680000, Note_on_c, 1, 66, 127
2, 680120, Note_off_c, 1, 66, 0
2, 680160, Note_on_c, 1, 45, 127
2, 680160, Note_on_c, 1, 64, 127
2, 680280, Note_off_c, 1, 45, 0
2, 680280, Note_off_c, 1, 64, 0
2, 680360, Note_on_c, 1, 50, 127
2, 680360, Note_on_c, 1, 66, 127
2, 680480, Note_off_c, 1, 50, 0
2, 680480, Note_off_c, 1, 66, 0
2, 680520, Note_on_c, 1, 54, 127
2, 680520, Note_on_c, 1, 62, 127
2, 680640, Note_off_c, 1, 54, 0
2, 680640, Note_off_c, 1, 62, 0
2, 680680, Note_on_c, 1, 57, 127
2, 680680, Note_on_c, 1, 66, 127
2, 680840, Note_off_c, 1, 57, 0
2, 680840, Note_off_c, 1, 66, 0
2, 680880, Note_on_c, 1, 62, 127
2, 680880, Note_on_c, 1, 69, 127
2, 681000, Note_off_c, 1, 69, 0
2, 681040, Note_on_c, 1, 66, 127
2, 681160, Note_off_c, 1, 62, 0
2, 681160, Note_off_c, 1, 66, 0
2, 681200, Note_on_c, 1, 49, 127
2, 681200, Note_on_c, 1, 69, 127
2, 681360, Note_off_c, 1, 49, 0
2, 681360, Note_off_c, 1, 69, 0
2, 681400, Note_on_c, 1, 47, 127
2, 681400, Note_on_c, 1, 74, 127
2, 681520, Note_off_c, 1, 74, 0
2, 681560, Note_on_c, 1, 71, 127
2, 681720, Note_off_c, 1, 71, 0
2, 681760, Note_on_c, 1, 67, 127
2, 681880, Note_off_c, 1, 47, 0
2, 681880, Note_off_c, 1, 67, 0
2, 681920, Note_on_c, 1, 59, 127
2, 681920, Note_on_c, 1, 66, 127
2, 682040, Note_off_c, 1, 66, 0
2, 682080, Note_on_c, 1, 64, 127
2, 682240, Note_off_c, 1, 64, 0
2, 682280, Note_on_c, 1, 62, 127
2, 682400, Note_off_c, 1, 62, 0
2, 682440, Note_on_c, 1, 73, 127
2, 682560, Note_off_c, 1, 73, 0
2, 682640, Note_on_c, 1, 70, 127
2, 682760, Note_off_c, 1, 70, 0
2, 682800, Note_on_c, 1, 66, 127
2, 682920, Note_off_c, 1, 59, 0
2, 682920, Note_off_c, 1, 66, 0
2, 682960, Note_on_c, 1, 58, 127
2, 682960, Note_on_c, 1, 64, 127
2, 683120, Note_off_c, 1, 64, 0
2, 683160, Note_on_c, 1, 62, 127
2, 683280, Note_off_c, 1, 62, 0
2, 683320, Note_on_c, 1, 61, 127
2, 683440, Note_off_c, 1, 58, 0
2, 683440, Note_off_c, 1, 61, 0
2, 683480, Note_on_c, 1, 59, 127
2, 683480, Note_on_c, 1, 62, 127
2, 683640, Note_off_c, 1, 62, 0
2, 683680, Note_on_c, 1, 66, 127
2, 683800, Note_off_c, 1, 66, 0
2, 683840, Note_on_c, 1, 71, 127
2, 684000, Note_off_c, 1, 59, 0
2, 684000, Note_off_c, 1, 71, 0
2, 684040, Note_on_c, 1, 55, 127
2, 684040, Note_on_c, 1, 64, 127
2, 684160, Note_off_c, 1, 64, 0
2, 684200, Note_on_c, 1, 73, 127
2, 684320, Note_off_c, 1, 73, 0
2, 684360, Note_on_c, 1, 71, 127
2, 684520, Note_off_c, 1, 55, 0
2, 684520, Note_off_c, 1, 71, 0
2, 684560, Note_on_c, 1, 54, 127
2, 684560, Note_on_c, 1, 70, 127
2, 684680, Note_off_c, 1, 70, 0
2, 684720, Note_on_c, 1, 71, 127
2, 684840, Note_off_c, 1, 71, 0
2, 684920, Note_on_c, 1, 73, 127
2, 685040, Note_off_c, 1, 54, 0
2, 685040, Note_off_c, 1, 73, 0
2, 685080, Note_on_c, 1, 42, 127
2, 685080, Note_on_c, 1, 66, 127
2, 685200, Note_off_c, 1, 42, 0
2, 685240, Note_on_c, 1, 44, 127
2, 685400, Note_off_c, 1, 44, 0
2, 685400, Note_off_c, 1, 66, 0
2, 685440, Note_on_c, 1, 46, 127
2, 685440, Note_on_c, 1, 73, 127
2, 685560, Note_off_c, 1, 46, 0
2, 685560, Note_off_c, 1, 73, 0
2, 685600, Note_on_c, 1, 47, 127
2, 685600, Note_on_c, 1, 74, 127
2, 685720, Note_off_c, 1, 47, 0
2, 685720, Note_off_c, 1, 74, 0
2, 685760, Note_on_c, 1, 49, 127
2, 685760, Note_on_c, 1, 76, 127
2, 685920, Note_off_c, 1, 49, 0
2, 685920, Note_off_c, 1, 76, 0
2, 685960, Note_on_c, 1, 50, 127
2, 685960, Note_on_c, 1, 78, 127
2, 686080, Note_off_c, 1, 50, 0
2, 686080, Note_off_c, 1, 78, 0
2, 686120, Note_on_c, 1, 46, 127
2, 686120, Note_on_c, 1, 66, 127
2, 686280, Note_off_c, 1, 46, 0
2, 686280, Note_off_c, 1, 66, 0
2, 686320, Note_on_c, 1, 47, 127
2, 686320, Note_on_c, 1, 68, 127
2, 686440, Note_off_c, 1, 47, 0
2, 686440, Note_off_c, 1, 68, 0
2, 686480, Note_on_c, 1, 49, 127
2, 686480, Note_on_c, 1, 70, 127
2, 686600, Note_off_c, 1, 49, 0
2, 686600, Note_off_c, 1, 70, 0
2, 686640, Note_on_c, 1, 50, 127
2, 686640, Note_on_c, 1, 71, 127
2, 686800, Note_off_c, 1, 50, 0
2, 686800, Note_off_c, 1, 71, 0
2, 686840, Note_on_c, 1, 52, 127
2, 686840, Note_on_c, 1, 73, 127
2, 686960, Note_off_c, 1, 52, 0
2, 686960, Note_off_c, 1, 73, 0
2, 687000, Note_on_c, 1, 54, 127
2, 687000, Note_on_c, 1, 74, 127
2, 687120, Note_off_c, 1, 54, 0
2, 687120, Note_off_c, 1, 74, 0
2, 687200, Note_on_c, 1, 54, 127
2, 687200, Note_on_c, 1, 70, 127
2, 687320, Note_off_c, 1, 54, 0
2, 687320, Note_off_c, 1, 70, 0
2, 687360, Note_on_c, 1, 56, 127
2, 687360, Note_on_c, 1, 71, 127
2, 687480, Note_off_c, 1, 56, 0
2, 687480, Note_off_c, 1, 71, 0
2, 687520, Note_on_c, 1, 58, 127
2, 687520, Note_on_c, 1, 73, 127
2, 687680, Note_off_c, 1, 58, 0
2, 687680, Note_off_c, 1, 73, 0
2, 687720, Note_on_c, 1, 59, 127
2, 687720, Note_on_c, 1, 74, 127
2, 687840, Note_off_c, 1, 59, 0
2, 687840, Note_off_c, 1, 74, 0
2, 687880, Note_on_c, 1, 61, 127
2, 687880, Note_on_c, 1, 76, 127
2, 688000, Note_off_c, 1, 61, 0
2, 688000, Note_off_c, 1, 76, 0
2, 688040, Note_on_c, 1, 62, 127
2, 688040, Note_on_c, 1, 78, 127
2, 688200, Note_off_c, 1, 62, 0
2, 688200, Note_off_c, 1, 78, 0
2, 688240, Note_on_c, 1, 58, 127
2, 688240, Note_on_c, 1, 66, 127
2, 688360, Note_off_c, 1, 58, 0
2, 688360, Note_off_c, 1, 66, 0
2, 688400, Note_on_c, 1, 59, 127
2, 688400, Note_on_c, 1, 68, 127
2, 688560, Note_off_c, 1, 59, 0
2, 688560, Note_off_c, 1, 68, 0
2, 688600, Note_on_c, 1, 61, 127
2, 688600, Note_on_c, 1, 70, 127
2, 688720, Note_off_c, 1, 61, 0
2, 688720, Note_off_c, 1, 70, 0
2, 688760, Note_on_c, 1, 62, 127
2, 688760, Note_on_c, 1, 71, 127
2, 688880, Note_off_c, 1, 62, 0
2, 688880, Note_off_c, 1, 71, 0
2, 688920, Note_on_c, 1, 64, 127
2, 688920, Note_on_c, 1, 73, 127
2, 689080, Note_off_c, 1, 64, 0
2, 689080, Note_off_c, 1, 73, 0
2, 689120, Note_on_c, 1, 66, 127
2, 689120, Note_on_c, 1, 74, 127
2, 689240, Note_off_c, 1, 66, 0
2, 689240, Note_off_c, 1, 74, 0
2, 689280, Note_on_c, 1, 66, 127
2, 689280, Note_on_c, 1, 70, 127
2, 689400, Note_off_c, 1, 66, 0
2, 689400, Note_off_c, 1, 70, 0
2, 689480, Note_on_c, 1, 68, 127
2, 689480, Note_on_c, 1, 71, 127
2, 689600, Note_off_c, 1, 68, 0
2, 689600, Note_off_c, 1, 71, 0
2, 689640, Note_on_c, 1, 70, 127
2, 689640, Note_on_c, 1, 73, 127
2, 689760, Note_off_c, 1, 70, 0
2, 689760, Note_off_c, 1, 73, 0
2, 689800, Note_on_c, 1, 71, 127
2, 689800, Note_on_c, 1, 74, 127
2, 689960, Note_off_c, 1, 74, 0
2, 690000, Note_on_c, 1, 76, 127
2, 690120, Note_off_c, 1, 71, 0
2, 690120, Note_off_c, 1, 76, 0
2, 690160, Note_on_c, 1, 64, 127
2, 690160, Note_on_c, 1, 78, 127
2, 690280, Note_off_c, 1, 64, 0
2, 690280, Note_off_c, 1, 78, 0
2, 690360, Note_on_c, 1, 66, 127
2, 690360, Note_on_c, 1, 76, 127
2, 690400, Note_off_c, 1, 76, 0
2, 690440, Note_on_c, 1, 74, 127
2, 690480, Note_off_c, 1, 74, 0
2, 690560, Note_on_c, 1, 73, 127
2, 690640, Note_off_c, 1, 66, 0
2, 690680, Note_off_c, 1, 73, 0
2, 690720, Note_on_c, 1, 54, 127
2, 690720, Note_on_c, 1, 71, 127
2, 690840, Note_off_c, 1, 54, 0
2, 690840, Note_off_c, 1, 71, 0
2, 690920, Note_on_c, 1, 47, 127
2, 690920, Note_on_c, 1, 71, 127
2, 691080, Note_off_c, 1, 71, 0
2, 691120, Note_on_c, 1, 66, 127
2, 691320, Note_off_c, 1, 66, 0
2, 691360, Note_on_c, 1, 62, 127
2, 691640, Note_off_c, 1, 62, 0
2, 691680, Note_on_c, 1, 59, 127
2, 693560, Note_off_c, 1, 47, 0
2, 693560, Note_off_c, 1, 59, 0
2, 694520, End_track
3, 0, Start_track
3, 0, Title_t, "MIDI"
3, 1536, End_track
0, 0, End_of_file
