0, 0, Header, 1, 3, 384
1, 0, Start_track
1, 0, Time_signature, 4, 2, 24, 8
1, 0, Tempo, 500000
1, 732720, End_track
2, 0, Start_track
2, 0, Text_t, "random instrument: random person i dunno whatev"
2, 0, Title_t, "Track 1"
2, 0, Note_on_c, 1, 44, 127
2, 240, Note_on_c, 1, 48, 127
2, 320, Note_off_c, 1, 48, 0
2, 360, Note_on_c, 1, 51, 127
2, 440, Note_off_c, 1, 44, 0
2, 440, Note_off_c, 1, 51, 0
2, 480, Note_on_c, 1, 56, 127
2, 560, Note_off_c, 1, 56, 0
2, 600, Note_on_c, 1, 55, 127
2, 680, Note_off_c, 1, 55, 0
2, 720, Note_on_c, 1, 53, 127
2, 800, Note_off_c, 1, 53, 0
2, 840, Note_on_c, 1, 51, 127
2, 1000, Note_on_c, 1, 55, 127
2, 1080, Note_off_c, 1, 55, 0
2, 1120, Note_on_c, 1, 58, 127
2, 1200, Note_off_c, 1, 58, 0
2, 1240, Note_on_c, 1, 61, 127
2, 1280, Note_off_c, 1, 51, 0
2, 1320, Note_off_c, 1, 61, 0
2, 1360, Note_on_c, 1, 60, 127
2, 1440, Note_off_c, 1, 60, 0
2, 1480, Note_on_c, 1, 58, 127
2, 1560, Note_off_c, 1, 58, 0
2, 1600, Note_on_c, 1, 56, 127
2, 1720, Note_on_c, 1, 60, 127
2, 1800, Note_off_c, 1, 60, 0
2, 1840, Note_on_c, 1, 63, 127
2, 1920, Note_off_c, 1, 63, 0
2, 1960, Note_on_c, 1, 68, 127
2, 2040, Note_off_c, 1, 56, 0
2, 2040, Note_off_c, 1, 68, 0
2, 2080, Note_on_c, 1, 67, 127
2, 2160, Note_off_c, 1, 67, 0
2, 2200, Note_on_c, 1, 65, 127
2, 2280, Note_off_c, 1, 65, 0
2, 2320, Note_on_c, 1, 63, 127
2, 2480, Note_on_c, 1, 67, 127
2, 2560, Note_off_c, 1, 67, 0
2, 2600, Note_on_c, 1, 70, 127
2, 2680, Note_off_c, 1, 70, 0
2, 2720, Note_on_c, 1, 73, 127
2, 2760, Note_off_c, 1, 63, 0
2, 2800, Note_off_c, 1, 73, 0
2, 2840, Note_on_c, 1, 72, 127
2, 2920, Note_off_c, 1, 72, 0
2, 2960, Note_on_c, 1, 70, 127
2, 3040, Note_off_c, 1, 70, 0
2, 3080, Note_on_c, 1, 68, 127
2, 3440, Note_off_c, 1, 68, 0
2, 3440, Note_on_c, 1, 70, 127
2, 3520, Note_off_c, 1, 70, 0
2, 3560, Note_on_c, 1, 72, 127
2, 3640, Note_off_c, 1, 72, 0
2, 3680, Note_on_c, 1, 73, 127
2, 3720, Note_off_c, 1, 73, 0
2, 3760, Note_on_c, 1, 75, 127
2, 3840, Note_off_c, 1, 75, 0
2, 3880, Note_on_c, 1, 77, 127
2, 3960, Note_off_c, 1, 77, 0
2, 4000, Note_on_c, 1, 79, 127
2, 4080, Note_off_c, 1, 79, 0
2, 4120, Note_on_c, 1, 80, 127
2, 4160, Note_off_c, 1, 80, 0
2, 4200, Note_on_c, 1, 82, 127
2, 4280, Note_off_c, 1, 82, 0
2, 4320, Note_on_c, 1, 79, 127
2, 4400, Note_off_c, 1, 79, 0
2, 4440, Note_on_c, 1, 75, 127
2, 4520, Note_off_c, 1, 75, 0
2, 4560, Note_on_c, 1, 79, 127
2, 4640, Note_off_c, 1, 79, 0
2, 4680, Note_on_c, 1, 80, 127
2, 5200, Note_on_c, 1, 79, 127
2, 5320, Note_off_c, 1, 79, 0
2, 5360, Note_on_c, 1, 77, 127
2, 5440, Note_off_c, 1, 77, 0
2, 5480, Note_on_c, 1, 75, 127
2, 5640, Note_on_c, 1, 73, 127
2, 5720, Note_off_c, 1, 73, 0
2, 5760, Note_on_c, 1, 72, 127
2, 5920, Note_on_c, 1, 70, 127
2, 6000, Note_off_c, 1, 70, 0
2, 6080, Note_on_c, 1, 68, 127
2, 6160, Note_off_c, 1, 68, 0
2, 6200, Note_on_c, 1, 67, 127
2, 6320, Note_off_c, 1, 67, 0
2, 6360, Note_on_c, 1, 68, 127
2, 6600, Note_on_c, 1, 63, 127
2, 6920, Note_on_c, 1, 56, 127
2, 7240, Note_off_c, 1, 80, 0
2, 7440, Note_off_c, 1, 72, 0
2, 7440, Note_off_c, 1, 75, 0
2, 8200, Note_off_c, 1, 68, 0
2, 8320, Note_off_c, 1, 63, 0
2, 9720, Note_off_c, 1, 56, 0
2, 10120, Note_on_c, 1, 80, 127
2, 10280, Note_off_c, 1, 80, 0
2, 10320, Note_on_c, 1, 79, 127
2, 10480, Note_off_c, 1, 79, 0
2, 10520, Note_on_c, 1, 77, 127
2, 10680, Note_off_c, 1, 77, 0
2, 10720, Note_on_c, 1, 75, 127
2, 10880, Note_off_c, 1, 75, 0
2, 10920, Note_on_c, 1, 77, 127
2, 11080, Note_off_c, 1, 77, 0
2, 11120, Note_on_c, 1, 73, 127
2, 11280, Note_off_c, 1, 73, 0
2, 11320, Note_on_c, 1, 68, 127
2, 11320, Note_on_c, 1, 72, 127
2, 11360, Note_on_c, 1, 70, 127
2, 11360, Note_off_c, 1, 72, 0
2, 11400, Note_off_c, 1, 70, 0
2, 11440, Note_on_c, 1, 72, 127
2, 11480, Note_off_c, 1, 68, 0
2, 11520, Note_on_c, 1, 67, 127
2, 11680, Note_off_c, 1, 67, 0
2, 11720, Note_on_c, 1, 65, 127
2, 11880, Note_off_c, 1, 65, 0
2, 11920, Note_on_c, 1, 63, 127
2, 12080, Note_off_c, 1, 63, 0
2, 12120, Note_on_c, 1, 65, 127
2, 12280, Note_off_c, 1, 65, 0
2, 12280, Note_off_c, 1, 72, 0
2, 12320, Note_on_c, 1, 61, 127
2, 12320, Note_on_c, 1, 75, 127
2, 12360, Note_on_c, 1, 73, 127
2, 12360, Note_off_c, 1, 75, 0
2, 12400, Note_off_c, 1, 73, 0
2, 12440, Note_on_c, 1, 72, 127
2, 12480, Note_off_c, 1, 61, 0
2, 12480, Note_off_c, 1, 72, 0
2, 12480, Note_on_c, 1, 73, 127
2, 12520, Note_on_c, 1, 60, 127
2, 12520, Note_off_c, 1, 73, 0
2, 12520, Note_on_c, 1, 75, 127
2, 12680, Note_off_c, 1, 75, 0
2, 12720, Note_on_c, 1, 73, 127
2, 12880, Note_off_c, 1, 73, 0
2, 12920, Note_on_c, 1, 72, 127
2, 13080, Note_off_c, 1, 72, 0
2, 13120, Note_on_c, 1, 70, 127
2, 13200, Note_off_c, 1, 60, 0
2, 13280, Note_off_c, 1, 70, 0
2, 13320, Note_on_c, 1, 72, 127
2, 13480, Note_off_c, 1, 72, 0
2, 13520, Note_on_c, 1, 61, 127
2, 13520, Note_on_c, 1, 68, 127
2, 13680, Note_off_c, 1, 61, 0
2, 13680, Note_off_c, 1, 68, 0
2, 13720, Note_on_c, 1, 63, 127
2, 13720, Note_on_c, 1, 67, 127
2, 13920, Note_on_c, 1, 61, 127
2, 14080, Note_off_c, 1, 61, 0
2, 14120, Note_on_c, 1, 60, 127
2, 14320, Note_off_c, 1, 60, 0
2, 14360, Note_on_c, 1, 58, 127
2, 14520, Note_off_c, 1, 58, 0
2, 14560, Note_on_c, 1, 60, 127
2, 14720, Note_off_c, 1, 60, 0
2, 14720, Note_off_c, 1, 67, 0
2, 14760, Note_on_c, 1, 56, 127
2, 14760, Note_on_c, 1, 68, 127
2, 14920, Note_off_c, 1, 56, 0
2, 14920, Note_off_c, 1, 68, 0
2, 14960, Note_on_c, 1, 55, 127
2, 14960, Note_on_c, 1, 70, 127
2, 15120, Note_off_c, 1, 70, 0
2, 15160, Note_on_c, 1, 72, 127
2, 15320, Note_off_c, 1, 63, 0
2, 15320, Note_off_c, 1, 72, 0
2, 15360, Note_on_c, 1, 58, 127
2, 15360, Note_on_c, 1, 73, 127
2, 15520, Note_off_c, 1, 58, 0
2, 15520, Note_off_c, 1, 73, 0
2, 15560, Note_on_c, 1, 63, 127
2, 15560, Note_on_c, 1, 72, 127
2, 15720, Note_off_c, 1, 72, 0
2, 15760, Note_on_c, 1, 73, 127
2, 15920, Note_off_c, 1, 55, 0
2, 15920, Note_off_c, 1, 73, 0
2, 15960, Note_on_c, 1, 51, 127
2, 15960, Note_on_c, 1, 70, 127
2, 16120, Note_off_c, 1, 51, 0
2, 16120, Note_off_c, 1, 70, 0
2, 16160, Note_on_c, 1, 56, 127
2, 16160, Note_on_c, 1, 68, 127
2, 16160, Note_on_c, 1, 70, 127
2, 16280, Note_off_c, 1, 70, 0
2, 16320, Note_off_c, 1, 56, 0
2, 16320, Note_on_c, 1, 72, 127
2, 16360, Note_on_c, 1, 55, 127
2, 16360, Note_on_c, 1, 70, 127
2, 16360, Note_off_c, 1, 72, 0
2, 16400, Note_off_c, 1, 70, 0
2, 16440, Note_on_c, 1, 72, 127
2, 16520, Note_off_c, 1, 55, 0
2, 16520, Note_off_c, 1, 63, 0
2, 16560, Note_on_c, 1, 53, 127
2, 16720, Note_off_c, 1, 53, 0
2, 16760, Note_on_c, 1, 51, 127
2, 16920, Note_off_c, 1, 51, 0
2, 16960, Note_on_c, 1, 53, 127
2, 16960, Note_off_c, 1, 72, 0
2, 17120, Note_off_c, 1, 53, 0
2, 17160, Note_on_c, 1, 49, 127
2, 17160, Note_on_c, 1, 73, 127
2, 17320, Note_off_c, 1, 49, 0
2, 17320, Note_off_c, 1, 73, 0
2, 17360, Note_on_c, 1, 48, 127
2, 17360, Note_on_c, 1, 75, 127
2, 17520, Note_off_c, 1, 75, 0
2, 17560, Note_on_c, 1, 77, 127
2, 17720, Note_off_c, 1, 77, 0
2, 17760, Note_on_c, 1, 51, 127
2, 17760, Note_on_c, 1, 78, 127
2, 17920, Note_off_c, 1, 51, 0
2, 17920, Note_off_c, 1, 78, 0
2, 17960, Note_on_c, 1, 56, 127
2, 17960, Note_on_c, 1, 77, 127
2, 18120, Note_off_c, 1, 77, 0
2, 18160, Note_on_c, 1, 78, 127
2, 18320, Note_off_c, 1, 78, 0
2, 18360, Note_off_c, 1, 48, 0
2, 18400, Note_on_c, 1, 44, 127
2, 18400, Note_on_c, 1, 75, 127
2, 18560, Note_off_c, 1, 44, 0
2, 18560, Note_off_c, 1, 75, 0
2, 18600, Note_on_c, 1, 49, 127
2, 18600, Note_on_c, 1, 77, 127
2, 18640, Note_on_c, 1, 75, 127
2, 18640, Note_off_c, 1, 77, 0
2, 18680, Note_off_c, 1, 75, 0
2, 18720, Note_on_c, 1, 77, 127
2, 18760, Note_off_c, 1, 56, 0
2, 18800, Note_on_c, 1, 56, 127
2, 18960, Note_off_c, 1, 56, 0
2, 18960, Note_off_c, 1, 77, 0
2, 19000, Note_on_c, 1, 54, 127
2, 19000, Note_on_c, 1, 75, 127
2, 19160, Note_off_c, 1, 49, 0
2, 19160, Note_off_c, 1, 54, 0
2, 19160, Note_off_c, 1, 75, 0
2, 19200, Note_on_c, 1, 53, 127
2, 19200, Note_on_c, 1, 73, 127
2, 19360, Note_off_c, 1, 53, 0
2, 19400, Note_on_c, 1, 54, 127
2, 19560, Note_off_c, 1, 54, 0
2, 19560, Note_off_c, 1, 73, 0
2, 19600, Note_on_c, 1, 51, 127
2, 19600, Note_on_c, 1, 75, 127
2, 19760, Note_off_c, 1, 51, 0
2, 19760, Note_off_c, 1, 68, 0
2, 19760, Note_off_c, 1, 75, 0
2, 19800, Note_on_c, 1, 50, 127
2, 19800, Note_on_c, 1, 77, 127
2, 19960, Note_off_c, 1, 77, 0
2, 20000, Note_on_c, 1, 79, 127
2, 20160, Note_off_c, 1, 50, 0
2, 20160, Note_off_c, 1, 79, 0
2, 20200, Note_on_c, 1, 53, 127
2, 20200, Note_on_c, 1, 80, 127
2, 20360, Note_off_c, 1, 53, 0
2, 20360, Note_off_c, 1, 80, 0
2, 20400, Note_on_c, 1, 50, 127
2, 20400, Note_on_c, 1, 82, 127
2, 20560, Note_off_c, 1, 82, 0
2, 20600, Note_on_c, 1, 79, 127
2, 20760, Note_off_c, 1, 50, 0
2, 20760, Note_off_c, 1, 79, 0
2, 20800, Note_on_c, 1, 46, 127
2, 20800, Note_on_c, 1, 80, 127
2, 20960, Note_off_c, 1, 46, 0
2, 20960, Note_off_c, 1, 80, 0
2, 21000, Note_on_c, 1, 51, 127
2, 21000, Note_on_c, 1, 75, 127
2, 21000, Note_on_c, 1, 80, 127
2, 21160, Note_off_c, 1, 51, 0
2, 21200, Note_on_c, 1, 50, 127
2, 21360, Note_off_c, 1, 50, 0
2, 21400, Note_on_c, 1, 48, 127
2, 21560, Note_off_c, 1, 48, 0
2, 21560, Note_off_c, 1, 80, 0
2, 21600, Note_on_c, 1, 46, 127
2, 21600, Note_on_c, 1, 79, 127
2, 21760, Note_off_c, 1, 46, 0
2, 21800, Note_on_c, 1, 48, 127
2, 21880, Note_off_c, 1, 79, 0
2, 21920, Note_on_c, 1, 82, 127
2, 21960, Note_off_c, 1, 48, 0
2, 21960, Note_off_c, 1, 82, 0
2, 22000, Note_on_c, 1, 44, 127
2, 22000, Note_on_c, 1, 80, 127
2, 22040, Note_off_c, 1, 80, 0
2, 22080, Note_on_c, 1, 79, 127
2, 22120, Note_off_c, 1, 79, 0
2, 22160, Note_off_c, 1, 44, 0
2, 22160, Note_on_c, 1, 80, 127
2, 22200, Note_off_c, 1, 80, 0
2, 22240, Note_on_c, 1, 43, 127
2, 22240, Note_on_c, 1, 82, 127
2, 22400, Note_off_c, 1, 82, 0
2, 22440, Note_on_c, 1, 46, 127
2, 22440, Note_on_c, 1, 80, 127
2, 22600, Note_off_c, 1, 46, 0
2, 22600, Note_off_c, 1, 80, 0
2, 22640, Note_on_c, 1, 51, 127
2, 22640, Note_on_c, 1, 79, 127
2, 22760, Note_off_c, 1, 75, 0
2, 22800, Note_off_c, 1, 43, 0
2, 22800, Note_off_c, 1, 51, 0
2, 22800, Note_off_c, 1, 79, 0
2, 22840, Note_on_c, 1, 44, 127
2, 22840, Note_on_c, 1, 77, 127
2, 23000, Note_off_c, 1, 77, 0
2, 23040, Note_on_c, 1, 48, 127
2, 23040, Note_on_c, 1, 79, 127
2, 23200, Note_off_c, 1, 48, 0
2, 23200, Note_off_c, 1, 79, 0
2, 23240, Note_on_c, 1, 53, 127
2, 23240, Note_on_c, 1, 75, 127
2, 23400, Note_off_c, 1, 44, 0
2, 23400, Note_off_c, 1, 53, 0
2, 23400, Note_off_c, 1, 75, 0
2, 23440, Note_on_c, 1, 46, 127
2, 23440, Note_on_c, 1, 74, 127
2, 23600, Note_off_c, 1, 74, 0
2, 23640, Note_on_c, 1, 58, 127
2, 23640, Note_on_c, 1, 75, 127
2, 23800, Note_off_c, 1, 46, 0
2, 23800, Note_off_c, 1, 58, 0
2, 23800, Note_off_c, 1, 75, 0
2, 23840, Note_on_c, 1, 60, 127
2, 23840, Note_on_c, 1, 77, 127
2, 24000, Note_off_c, 1, 60, 0
2, 24040, Note_on_c, 1, 62, 127
2, 24040, Note_on_c, 1, 70, 127
2, 24200, Note_off_c, 1, 62, 0
2, 24200, Note_off_c, 1, 70, 0
2, 24240, Note_on_c, 1, 60, 127
2, 24240, Note_on_c, 1, 72, 127
2, 24400, Note_off_c, 1, 60, 0
2, 24400, Note_off_c, 1, 72, 0
2, 24440, Note_on_c, 1, 58, 127
2, 24440, Note_on_c, 1, 68, 127
2, 24600, Note_off_c, 1, 58, 0
2, 24600, Note_off_c, 1, 68, 0
2, 24640, Note_on_c, 1, 63, 127
2, 24640, Note_on_c, 1, 67, 127
2, 24800, Note_off_c, 1, 63, 0
2, 24800, Note_off_c, 1, 77, 0
2, 24840, Note_on_c, 1, 55, 127
2, 24840, Note_on_c, 1, 70, 127
2, 25000, Note_off_c, 1, 55, 0
2, 25000, Note_off_c, 1, 70, 0
2, 25040, Note_on_c, 1, 56, 127
2, 25040, Note_on_c, 1, 75, 127
2, 25200, Note_off_c, 1, 56, 0
2, 25200, Note_off_c, 1, 67, 0
2, 25240, Note_on_c, 1, 58, 127
2, 25240, Note_on_c, 1, 65, 127
2, 25400, Note_off_c, 1, 58, 0
2, 25400, Note_off_c, 1, 75, 0
2, 25440, Note_on_c, 1, 56, 127
2, 25440, Note_on_c, 1, 75, 127
2, 25600, Note_off_c, 1, 56, 0
2, 25600, Note_off_c, 1, 75, 0
2, 25640, Note_on_c, 1, 58, 127
2, 25640, Note_on_c, 1, 74, 127
2, 25800, Note_off_c, 1, 58, 0
2, 25800, Note_off_c, 1, 65, 0
2, 25800, Note_off_c, 1, 74, 0
2, 25840, Note_on_c, 1, 51, 127
2, 25840, Note_on_c, 1, 63, 127
2, 25840, Note_on_c, 1, 75, 127
2, 26000, Note_off_c, 1, 75, 0
2, 26080, Note_on_c, 1, 74, 127
2, 26240, Note_off_c, 1, 74, 0
2, 26280, Note_on_c, 1, 53, 127
2, 26280, Note_on_c, 1, 72, 127
2, 26440, Note_off_c, 1, 53, 0
2, 26440, Note_off_c, 1, 72, 0
2, 26480, Note_on_c, 1, 55, 127
2, 26480, Note_on_c, 1, 70, 127
2, 26640, Note_off_c, 1, 70, 0
2, 26680, Note_on_c, 1, 72, 127
2, 26840, Note_off_c, 1, 55, 0
2, 26840, Note_off_c, 1, 72, 0
2, 26880, Note_on_c, 1, 56, 127
2, 26880, Note_on_c, 1, 68, 127
2, 27040, Note_off_c, 1, 56, 0
2, 27040, Note_off_c, 1, 68, 0
2, 27080, Note_on_c, 1, 58, 127
2, 27080, Note_on_c, 1, 67, 127
2, 27240, Note_off_c, 1, 58, 0
2, 27240, Note_off_c, 1, 63, 0
2, 27280, Note_on_c, 1, 62, 127
2, 27440, Note_off_c, 1, 62, 0
2, 27440, Note_off_c, 1, 67, 0
2, 27480, Note_on_c, 1, 60, 127
2, 27480, Note_on_c, 1, 68, 127
2, 27640, Note_off_c, 1, 60, 0
2, 27640, Note_off_c, 1, 68, 0
2, 27680, Note_on_c, 1, 58, 127
2, 27680, Note_on_c, 1, 68, 127
2, 27720, Note_off_c, 1, 68, 0
2, 27760, Note_on_c, 1, 67, 127
2, 27800, Note_off_c, 1, 67, 0
2, 27840, Note_off_c, 1, 58, 0
2, 27840, Note_on_c, 1, 68, 127
2, 27880, Note_on_c, 1, 60, 127
2, 27880, Note_on_c, 1, 67, 127
2, 27880, Note_off_c, 1, 68, 0
2, 27920, Note_off_c, 1, 67, 0
2, 27920, Note_on_c, 1, 68, 127
2, 27960, Note_on_c, 1, 67, 127
2, 27960, Note_off_c, 1, 68, 0
2, 28040, Note_off_c, 1, 60, 0
2, 28040, Note_off_c, 1, 67, 0
2, 28080, Note_on_c, 1, 56, 127
2, 28080, Note_on_c, 1, 65, 127
2, 28240, Note_off_c, 1, 56, 0
2, 28240, Note_off_c, 1, 65, 0
2, 28280, Note_on_c, 1, 55, 127
2, 28280, Note_on_c, 1, 63, 127
2, 28440, Note_off_c, 1, 51, 0
2, 28480, Note_on_c, 1, 50, 127
2, 28640, Note_off_c, 1, 50, 0
2, 28640, Note_off_c, 1, 55, 0
2, 28680, Note_on_c, 1, 48, 127
2, 28680, Note_on_c, 1, 56, 127
2, 28840, Note_off_c, 1, 48, 0
2, 28840, Note_off_c, 1, 56, 0
2, 28880, Note_on_c, 1, 46, 127
2, 28880, Note_on_c, 1, 55, 127
2, 29040, Note_off_c, 1, 46, 0
2, 29080, Note_on_c, 1, 48, 127
2, 29240, Note_off_c, 1, 48, 0
2, 29240, Note_off_c, 1, 55, 0
2, 29280, Note_on_c, 1, 44, 127
2, 29280, Note_on_c, 1, 53, 127
2, 29440, Note_off_c, 1, 44, 0
2, 29440, Note_off_c, 1, 53, 0
2, 29480, Note_on_c, 1, 43, 127
2, 29480, Note_on_c, 1, 51, 127
2, 29640, Note_off_c, 1, 63, 0
2, 29680, Note_on_c, 1, 61, 127
2, 29840, Note_off_c, 1, 43, 0
2, 29840, Note_off_c, 1, 61, 0
2, 29880, Note_on_c, 1, 44, 127
2, 29880, Note_on_c, 1, 60, 127
2, 30040, Note_off_c, 1, 44, 0
2, 30040, Note_off_c, 1, 60, 0
2, 30120, Note_on_c, 1, 43, 127
2, 30120, Note_on_c, 1, 58, 127
2, 30280, Note_off_c, 1, 43, 0
2, 30280, Note_off_c, 1, 58, 0
2, 30320, Note_on_c, 1, 41, 127
2, 30320, Note_on_c, 1, 61, 127
2, 30480, Note_off_c, 1, 41, 0
2, 30480, Note_off_c, 1, 61, 0
2, 30520, Note_on_c, 1, 39, 127
2, 30520, Note_on_c, 1, 60, 127
2, 30680, Note_off_c, 1, 39, 0
2, 30680, Note_off_c, 1, 51, 0
2, 30680, Note_off_c, 1, 60, 0
2, 30720, Note_on_c, 1, 41, 127
2, 30720, Note_on_c, 1, 61, 127
2, 30880, Note_off_c, 1, 41, 0
2, 30880, Note_off_c, 1, 61, 0
2, 30920, Note_on_c, 1, 43, 127
2, 30920, Note_on_c, 1, 63, 127
2, 31080, Note_off_c, 1, 43, 0
2, 31080, Note_off_c, 1, 63, 0
2, 31120, Note_on_c, 1, 44, 127
2, 31120, Note_on_c, 1, 65, 127
2, 31280, Note_off_c, 1, 44, 0
2, 31280, Note_off_c, 1, 65, 0
2, 31320, Note_on_c, 1, 43, 127
2, 31320, Note_on_c, 1, 63, 127
2, 31480, Note_off_c, 1, 43, 0
2, 31480, Note_off_c, 1, 63, 0
2, 31520, Note_on_c, 1, 44, 127
2, 31520, Note_on_c, 1, 65, 127
2, 31680, Note_off_c, 1, 44, 0
2, 31680, Note_off_c, 1, 65, 0
2, 31720, Note_on_c, 1, 46, 127
2, 31720, Note_on_c, 1, 61, 127
2, 31880, Note_off_c, 1, 46, 0
2, 31880, Note_off_c, 1, 61, 0
2, 31920, Note_on_c, 1, 44, 127
2, 31920, Note_on_c, 1, 60, 127
2, 31920, Note_on_c, 1, 68, 127
2, 32080, Note_off_c, 1, 68, 0
2, 32120, Note_on_c, 1, 67, 127
2, 32280, Note_off_c, 1, 44, 0
2, 32280, Note_off_c, 1, 67, 0
2, 32320, Note_on_c, 1, 46, 127
2, 32320, Note_on_c, 1, 65, 127
2, 32480, Note_off_c, 1, 46, 0
2, 32480, Note_off_c, 1, 65, 0
2, 32520, Note_on_c, 1, 48, 127
2, 32520, Note_on_c, 1, 63, 127
2, 32680, Note_off_c, 1, 48, 0
2, 32680, Note_off_c, 1, 63, 0
2, 32720, Note_on_c, 1, 46, 127
2, 32720, Note_on_c, 1, 66, 127
2, 32880, Note_off_c, 1, 46, 0
2, 32880, Note_off_c, 1, 66, 0
2, 32920, Note_on_c, 1, 44, 127
2, 32920, Note_on_c, 1, 65, 127
2, 33080, Note_off_c, 1, 44, 0
2, 33080, Note_off_c, 1, 60, 0
2, 33080, Note_off_c, 1, 65, 0
2, 33120, Note_on_c, 1, 46, 127
2, 33120, Note_on_c, 1, 61, 127
2, 33120, Note_on_c, 1, 66, 127
2, 33280, Note_off_c, 1, 46, 0
2, 33280, Note_off_c, 1, 66, 0
2, 33320, Note_on_c, 1, 48, 127
2, 33320, Note_on_c, 1, 68, 127
2, 33480, Note_off_c, 1, 48, 0
2, 33480, Note_off_c, 1, 68, 0
2, 33520, Note_on_c, 1, 49, 127
2, 33520, Note_on_c, 1, 70, 127
2, 33680, Note_off_c, 1, 49, 0
2, 33680, Note_off_c, 1, 61, 0
2, 33680, Note_off_c, 1, 70, 0
2, 33720, Note_on_c, 1, 48, 127
2, 33720, Note_on_c, 1, 63, 127
2, 33720, Note_on_c, 1, 68, 127
2, 33880, Note_off_c, 1, 48, 0
2, 33880, Note_off_c, 1, 68, 0
2, 33920, Note_on_c, 1, 49, 127
2, 33920, Note_on_c, 1, 70, 127
2, 34120, Note_off_c, 1, 49, 0
2, 34120, Note_off_c, 1, 70, 0
2, 34160, Note_on_c, 1, 51, 127
2, 34160, Note_on_c, 1, 66, 127
2, 34320, Note_off_c, 1, 51, 0
2, 34320, Note_off_c, 1, 66, 0
2, 34360, Note_on_c, 1, 49, 127
2, 34360, Note_on_c, 1, 65, 127
2, 34520, Note_off_c, 1, 49, 0
2, 34520, Note_off_c, 1, 65, 0
2, 34560, Note_on_c, 1, 51, 127
2, 34560, Note_on_c, 1, 67, 127
2, 34720, Note_off_c, 1, 51, 0
2, 34720, Note_off_c, 1, 67, 0
2, 34760, Note_on_c, 1, 53, 127
2, 34760, Note_on_c, 1, 68, 127
2, 34920, Note_off_c, 1, 53, 0
2, 34920, Note_off_c, 1, 63, 0
2, 34920, Note_off_c, 1, 68, 0
2, 34960, Note_on_c, 1, 43, 127
2, 34960, Note_on_c, 1, 61, 127
2, 34960, Note_on_c, 1, 70, 127
2, 35120, Note_off_c, 1, 43, 0
2, 35160, Note_on_c, 1, 44, 127
2, 35320, Note_off_c, 1, 44, 0
2, 35360, Note_on_c, 1, 46, 127
2, 35520, Note_off_c, 1, 46, 0
2, 35520, Note_off_c, 1, 61, 0
2, 35560, Note_on_c, 1, 41, 127
2, 35560, Note_on_c, 1, 60, 127
2, 35600, Note_off_c, 1, 41, 0
2, 35640, Note_on_c, 1, 40, 127
2, 35680, Note_off_c, 1, 40, 0
2, 35720, Note_on_c, 1, 38, 127
2, 35720, Note_off_c, 1, 70, 0
2, 35760, Note_off_c, 1, 38, 0
2, 35760, Note_on_c, 1, 40, 127
2, 35760, Note_on_c, 1, 68, 127
2, 35800, Note_off_c, 1, 40, 0
2, 35840, Note_on_c, 1, 41, 127
2, 35880, Note_off_c, 1, 41, 0
2, 35920, Note_on_c, 1, 40, 127
2, 35920, Note_off_c, 1, 68, 0
2, 35960, Note_off_c, 1, 40, 0
2, 35960, Note_on_c, 1, 67, 127
2, 36000, Note_on_c, 1, 38, 127
2, 36040, Note_off_c, 1, 38, 0
2, 36080, Note_on_c, 1, 40, 127
2, 36120, Note_off_c, 1, 40, 0
2, 36120, Note_off_c, 1, 67, 0
2, 36160, Note_on_c, 1, 41, 127
2, 36160, Note_on_c, 1, 68, 127
2, 36320, Note_off_c, 1, 41, 0
2, 36320, Note_off_c, 1, 68, 0
2, 36360, Note_on_c, 1, 39, 127
2, 36360, Note_on_c, 1, 65, 127
2, 36520, Note_off_c, 1, 39, 0
2, 36520, Note_off_c, 1, 60, 0
2, 36520, Note_off_c, 1, 65, 0
2, 36560, Note_on_c, 1, 37, 127
2, 36560, Note_on_c, 1, 58, 127
2, 36560, Note_on_c, 1, 67, 127
2, 36720, Note_off_c, 1, 37, 0
2, 36720, Note_off_c, 1, 58, 0
2, 36720, Note_off_c, 1, 67, 0
2, 36760, Note_on_c, 1, 36, 127
2, 36760, Note_on_c, 1, 60, 127
2, 36760, Note_on_c, 1, 64, 127
2, 36920, Note_off_c, 1, 60, 0
2, 36960, Note_on_c, 1, 58, 127
2, 37120, Note_off_c, 1, 58, 0
2, 37160, Note_on_c, 1, 56, 127
2, 37320, Note_off_c, 1, 56, 0
2, 37360, Note_on_c, 1, 55, 127
2, 37520, Note_off_c, 1, 55, 0
2, 37560, Note_on_c, 1, 58, 127
2, 37720, Note_off_c, 1, 58, 0
2, 37760, Note_on_c, 1, 56, 127
2, 37920, Note_off_c, 1, 56, 0
2, 38000, Note_on_c, 1, 58, 127
2, 38120, Note_off_c, 1, 64, 0
2, 38200, Note_on_c, 1, 65, 127
2, 38360, Note_off_c, 1, 65, 0
2, 38400, Note_on_c, 1, 67, 127
2, 38560, Note_off_c, 1, 67, 0
2, 38600, Note_on_c, 1, 60, 127
2, 38760, Note_off_c, 1, 60, 0
2, 38800, Note_on_c, 1, 65, 127
2, 38960, Note_off_c, 1, 36, 0
2, 38960, Note_off_c, 1, 65, 0
2, 39000, Note_on_c, 1, 48, 127
2, 39000, Note_on_c, 1, 64, 127
2, 39160, Note_off_c, 1, 48, 0
2, 39160, Note_off_c, 1, 58, 0
2, 39160, Note_off_c, 1, 64, 0
2, 39200, Note_on_c, 1, 49, 127
2, 39200, Note_on_c, 1, 56, 127
2, 39200, Note_on_c, 1, 65, 127
2, 39360, Note_off_c, 1, 65, 0
2, 39400, Note_on_c, 1, 67, 127
2, 39560, Note_off_c, 1, 67, 0
2, 39600, Note_on_c, 1, 68, 127
2, 39760, Note_off_c, 1, 49, 0
2, 39760, Note_off_c, 1, 68, 0
2, 39800, Note_on_c, 1, 50, 127
2, 39800, Note_on_c, 1, 70, 127
2, 39960, Note_off_c, 1, 56, 0
2, 40000, Note_on_c, 1, 55, 127
2, 40160, Note_off_c, 1, 55, 0
2, 40200, Note_on_c, 1, 53, 127
2, 40360, Note_off_c, 1, 50, 0
2, 40360, Note_off_c, 1, 53, 0
2, 40400, Note_on_c, 1, 51, 127
2, 40400, Note_on_c, 1, 55, 127
2, 40560, Note_off_c, 1, 70, 0
2, 40600, Note_on_c, 1, 72, 127
2, 40760, Note_off_c, 1, 72, 0
2, 40800, Note_on_c, 1, 73, 127
2, 40960, Note_off_c, 1, 51, 0
2, 40960, Note_off_c, 1, 73, 0
2, 41000, Note_on_c, 1, 52, 127
2, 41000, Note_on_c, 1, 72, 127
2, 41160, Note_off_c, 1, 55, 0
2, 41160, Note_off_c, 1, 72, 0
2, 41200, Note_on_c, 1, 55, 127
2, 41200, Note_on_c, 1, 73, 127
2, 41360, Note_off_c, 1, 55, 0
2, 41360, Note_off_c, 1, 73, 0
2, 41400, Note_on_c, 1, 60, 127
2, 41400, Note_on_c, 1, 70, 127
2, 41560, Note_off_c, 1, 52, 0
2, 41560, Note_off_c, 1, 60, 0
2, 41560, Note_off_c, 1, 70, 0
2, 41600, Note_on_c, 1, 53, 127
2, 41600, Note_on_c, 1, 68, 127
2, 41760, Note_off_c, 1, 68, 0
2, 41800, Note_on_c, 1, 70, 127
2, 42000, Note_off_c, 1, 70, 0
2, 42040, Note_on_c, 1, 46, 127
2, 42040, Note_on_c, 1, 67, 127
2, 42200, Note_off_c, 1, 46, 0
2, 42200, Note_off_c, 1, 67, 0
2, 42240, Note_on_c, 1, 48, 127
2, 42240, Note_on_c, 1, 68, 127
2, 42280, Note_off_c, 1, 68, 0
2, 42320, Note_on_c, 1, 67, 127
2, 42360, Note_off_c, 1, 67, 0
2, 42360, Note_on_c, 1, 68, 127
2, 42400, Note_off_c, 1, 53, 0
2, 42400, Note_off_c, 1, 68, 0
2, 42440, Note_on_c, 1, 53, 127
2, 42440, Note_on_c, 1, 67, 127
2, 42480, Note_off_c, 1, 67, 0
2, 42480, Note_on_c, 1, 68, 127
2, 42520, Note_off_c, 1, 68, 0
2, 42560, Note_on_c, 1, 67, 127
2, 42600, Note_off_c, 1, 53, 0
2, 42600, Note_off_c, 1, 67, 0
2, 42640, Note_on_c, 1, 52, 127
2, 42640, Note_on_c, 1, 65, 127
2, 42800, Note_off_c, 1, 48, 0
2, 42800, Note_off_c, 1, 52, 0
2, 42800, Note_off_c, 1, 65, 0
2, 42840, Note_on_c, 1, 41, 127
2, 42840, Note_on_c, 1, 53, 127
2, 42840, Note_on_c, 1, 65, 127
2, 42840, Note_on_c, 1, 77, 127
2, 43000, Note_off_c, 1, 77, 0
2, 43040, Note_on_c, 1, 75, 127
2, 43200, Note_off_c, 1, 75, 0
2, 43240, Note_on_c, 1, 55, 127
2, 43240, Note_on_c, 1, 73, 127
2, 43400, Note_off_c, 1, 41, 0
2, 43400, Note_off_c, 1, 55, 0
2, 43400, Note_off_c, 1, 73, 0
2, 43440, Note_on_c, 1, 57, 127
2, 43440, Note_on_c, 1, 72, 127
2, 43600, Note_off_c, 1, 72, 0
2, 43640, Note_on_c, 1, 73, 127
2, 43800, Note_off_c, 1, 57, 0
2, 43800, Note_off_c, 1, 73, 0
2, 43840, Note_on_c, 1, 58, 127
2, 43840, Note_on_c, 1, 70, 127
2, 44000, Note_off_c, 1, 58, 0
2, 44000, Note_off_c, 1, 70, 0
2, 44040, Note_on_c, 1, 60, 127
2, 44040, Note_on_c, 1, 69, 127
2, 44200, Note_off_c, 1, 60, 0
2, 44200, Note_off_c, 1, 65, 0
2, 44240, Note_on_c, 1, 63, 127
2, 44400, Note_off_c, 1, 63, 0
2, 44400, Note_off_c, 1, 69, 0
2, 44440, Note_on_c, 1, 61, 127
2, 44440, Note_on_c, 1, 70, 127
2, 44600, Note_off_c, 1, 61, 0
2, 44600, Note_off_c, 1, 70, 0
2, 44640, Note_on_c, 1, 60, 127
2, 44640, Note_on_c, 1, 70, 127
2, 44720, Note_off_c, 1, 70, 0
2, 44760, Note_on_c, 1, 69, 127
2, 44800, Note_off_c, 1, 60, 0
2, 44800, Note_off_c, 1, 69, 0
2, 44800, Note_on_c, 1, 70, 127
2, 44840, Note_on_c, 1, 61, 127
2, 44840, Note_off_c, 1, 70, 0
2, 44880, Note_on_c, 1, 69, 127
2, 44920, Note_off_c, 1, 69, 0
2, 44920, Note_on_c, 1, 70, 127
2, 44960, Note_off_c, 1, 70, 0
2, 45000, Note_off_c, 1, 61, 0
2, 45000, Note_on_c, 1, 69, 127
2, 45040, Note_on_c, 1, 58, 127
2, 45040, Note_on_c, 1, 67, 127
2, 45040, Note_off_c, 1, 69, 0
2, 45200, Note_off_c, 1, 58, 0
2, 45200, Note_off_c, 1, 67, 0
2, 45240, Note_on_c, 1, 57, 127
2, 45240, Note_on_c, 1, 65, 127
2, 45440, Note_on_c, 1, 63, 127
2, 45600, Note_off_c, 1, 57, 0
2, 45600, Note_off_c, 1, 63, 0
2, 45640, Note_on_c, 1, 58, 127
2, 45640, Note_on_c, 1, 61, 127
2, 45800, Note_off_c, 1, 58, 0
2, 45800, Note_off_c, 1, 61, 0
2, 45840, Note_on_c, 1, 57, 127
2, 45840, Note_on_c, 1, 60, 127
2, 46000, Note_off_c, 1, 60, 0
2, 46040, Note_on_c, 1, 61, 127
2, 46200, Note_off_c, 1, 57, 0
2, 46200, Note_off_c, 1, 61, 0
2, 46280, Note_on_c, 1, 55, 127
2, 46280, Note_on_c, 1, 58, 127
2, 46400, Note_off_c, 1, 53, 0
2, 46440, Note_off_c, 1, 55, 0
2, 46440, Note_off_c, 1, 58, 0
2, 46480, Note_on_c, 1, 53, 127
2, 46480, Note_on_c, 1, 57, 127
2, 46640, Note_off_c, 1, 65, 0
2, 46680, Note_on_c, 1, 67, 127
2, 46840, Note_off_c, 1, 53, 0
2, 46840, Note_off_c, 1, 57, 0
2, 46840, Note_off_c, 1, 67, 0
2, 46880, Note_on_c, 1, 51, 127
2, 46880, Note_on_c, 1, 69, 127
2, 47040, Note_off_c, 1, 51, 0
2, 47040, Note_off_c, 1, 69, 0
2, 47080, Note_on_c, 1, 49, 127
2, 47080, Note_on_c, 1, 70, 127
2, 47240, Note_off_c, 1, 70, 0
2, 47280, Note_on_c, 1, 69, 127
2, 47440, Note_off_c, 1, 49, 0
2, 47440, Note_off_c, 1, 69, 0
2, 47480, Note_on_c, 1, 48, 127
2, 47480, Note_on_c, 1, 72, 127
2, 47640, Note_off_c, 1, 48, 0
2, 47640, Note_off_c, 1, 72, 0
2, 47680, Note_on_c, 1, 46, 127
2, 47680, Note_on_c, 1, 58, 127
2, 47680, Note_on_c, 1, 73, 127
2, 47840, Note_off_c, 1, 58, 0
2, 47880, Note_on_c, 1, 60, 127
2, 48040, Note_off_c, 1, 46, 0
2, 48040, Note_off_c, 1, 60, 0
2, 48080, Note_on_c, 1, 61, 127
2, 48240, Note_off_c, 1, 61, 0
2, 48280, Note_on_c, 1, 63, 127
2, 48440, Note_off_c, 1, 63, 0
2, 48480, Note_on_c, 1, 61, 127
2, 48640, Note_off_c, 1, 61, 0
2, 48680, Note_on_c, 1, 65, 127
2, 48840, Note_off_c, 1, 65, 0
2, 48880, Note_on_c, 1, 66, 127
2, 49040, Note_off_c, 1, 73, 0
2, 49080, Note_on_c, 1, 72, 127
2, 49240, Note_off_c, 1, 72, 0
2, 49280, Note_on_c, 1, 70, 127
2, 49440, Note_off_c, 1, 70, 0
2, 49480, Note_on_c, 1, 75, 127
2, 49640, Note_off_c, 1, 66, 0
2, 49680, Note_on_c, 1, 65, 127
2, 49840, Note_off_c, 1, 65, 0
2, 49880, Note_on_c, 1, 63, 127
2, 50040, Note_off_c, 1, 63, 0
2, 50120, Note_on_c, 1, 70, 127
2, 50280, Note_off_c, 1, 75, 0
2, 50320, Note_on_c, 1, 73, 127
2, 50480, Note_off_c, 1, 73, 0
2, 50520, Note_on_c, 1, 72, 127
2, 50680, Note_off_c, 1, 72, 0
2, 50720, Note_on_c, 1, 73, 127
2, 50880, Note_off_c, 1, 73, 0
2, 50920, Note_on_c, 1, 77, 127
2, 51080, Note_off_c, 1, 77, 0
2, 51120, Note_on_c, 1, 75, 127
2, 51280, Note_off_c, 1, 70, 0
2, 51280, Note_off_c, 1, 75, 0
2, 51320, Note_on_c, 1, 53, 127
2, 51320, Note_on_c, 1, 69, 127
2, 51320, Note_on_c, 1, 77, 127
2, 51480, Note_off_c, 1, 53, 0
2, 51480, Note_off_c, 1, 69, 0
2, 51520, Note_on_c, 1, 55, 127
2, 51520, Note_on_c, 1, 70, 127
2, 51680, Note_off_c, 1, 55, 0
2, 51680, Note_off_c, 1, 70, 0
2, 51720, Note_on_c, 1, 57, 127
2, 51720, Note_on_c, 1, 72, 127
2, 51880, Note_off_c, 1, 57, 0
2, 51880, Note_off_c, 1, 72, 0
2, 51920, Note_on_c, 1, 58, 127
2, 51920, Note_on_c, 1, 73, 127
2, 52080, Note_off_c, 1, 58, 0
2, 52080, Note_off_c, 1, 73, 0
2, 52120, Note_on_c, 1, 57, 127
2, 52120, Note_on_c, 1, 75, 127
2, 52280, Note_off_c, 1, 57, 0
2, 52280, Note_off_c, 1, 75, 0
2, 52320, Note_on_c, 1, 60, 127
2, 52320, Note_on_c, 1, 69, 127
2, 52480, Note_off_c, 1, 60, 0
2, 52480, Note_off_c, 1, 69, 0
2, 52520, Note_on_c, 1, 61, 127
2, 52520, Note_on_c, 1, 70, 127
2, 52680, Note_off_c, 1, 77, 0
2, 52720, Note_on_c, 1, 78, 127
2, 52880, Note_off_c, 1, 78, 0
2, 52920, Note_on_c, 1, 80, 127
2, 53080, Note_off_c, 1, 80, 0
2, 53120, Note_on_c, 1, 82, 127
2, 53280, Note_off_c, 1, 82, 0
2, 53320, Note_on_c, 1, 83, 127
2, 53480, Note_off_c, 1, 61, 0
2, 53480, Note_off_c, 1, 83, 0
2, 53520, Note_on_c, 1, 62, 127
2, 53520, Note_on_c, 1, 80, 127
2, 53680, Note_off_c, 1, 62, 0
2, 53680, Note_off_c, 1, 80, 0
2, 53720, Note_on_c, 1, 63, 127
2, 53720, Note_on_c, 1, 78, 127
2, 53880, Note_off_c, 1, 63, 0
2, 53880, Note_off_c, 1, 78, 0
2, 53920, Note_on_c, 1, 65, 127
2, 53920, Note_on_c, 1, 77, 127
2, 54120, Note_off_c, 1, 65, 0
2, 54120, Note_off_c, 1, 77, 0
2, 54160, Note_on_c, 1, 66, 127
2, 54160, Note_on_c, 1, 75, 127
2, 54320, Note_off_c, 1, 66, 0
2, 54320, Note_off_c, 1, 75, 0
2, 54360, Note_on_c, 1, 65, 127
2, 54360, Note_on_c, 1, 73, 127
2, 54520, Note_off_c, 1, 65, 0
2, 54520, Note_off_c, 1, 73, 0
2, 54560, Note_on_c, 1, 66, 127
2, 54560, Note_on_c, 1, 75, 127
2, 54720, Note_off_c, 1, 66, 0
2, 54720, Note_off_c, 1, 75, 0
2, 54760, Note_on_c, 1, 63, 127
2, 54760, Note_on_c, 1, 72, 127
2, 54920, Note_off_c, 1, 63, 0
2, 54920, Note_off_c, 1, 72, 0
2, 54960, Note_on_c, 1, 61, 127
2, 54960, Note_on_c, 1, 77, 127
2, 55120, Note_off_c, 1, 61, 0
2, 55160, Note_on_c, 1, 65, 127
2, 55320, Note_off_c, 1, 65, 0
2, 55320, Note_off_c, 1, 77, 0
2, 55360, Note_on_c, 1, 63, 127
2, 55360, Note_on_c, 1, 78, 127
2, 55520, Note_off_c, 1, 63, 0
2, 55520, Note_off_c, 1, 70, 0
2, 55520, Note_off_c, 1, 78, 0
2, 55560, Note_on_c, 1, 65, 127
2, 55560, Note_on_c, 1, 69, 127
2, 55560, Note_on_c, 1, 73, 127
2, 55600, Note_off_c, 1, 73, 0
2, 55640, Note_on_c, 1, 72, 127
2, 55680, Note_off_c, 1, 72, 0
2, 55720, Note_off_c, 1, 65, 0
2, 55720, Note_on_c, 1, 73, 127
2, 55760, Note_on_c, 1, 60, 127
2, 55760, Note_on_c, 1, 72, 127
2, 55760, Note_off_c, 1, 73, 0
2, 55800, Note_off_c, 1, 72, 0
2, 55840, Note_on_c, 1, 73, 127
2, 55880, Note_on_c, 1, 72, 127
2, 55880, Note_off_c, 1, 73, 0
2, 55920, Note_off_c, 1, 60, 0
2, 55920, Note_off_c, 1, 69, 0
2, 55920, Note_off_c, 1, 72, 0
2, 55960, Note_on_c, 1, 63, 127
2, 55960, Note_on_c, 1, 70, 127
2, 56120, Note_off_c, 1, 63, 0
2, 56120, Note_off_c, 1, 70, 0
2, 56160, Note_on_c, 1, 63, 127
2, 56160, Note_on_c, 1, 70, 127
2, 56160, Note_on_c, 1, 82, 127
2, 56200, Note_off_c, 1, 63, 0
2, 56240, Note_on_c, 1, 62, 127
2, 56280, Note_off_c, 1, 62, 0
2, 56320, Note_on_c, 1, 63, 127
2, 56320, Note_off_c, 1, 82, 0
2, 56360, Note_on_c, 1, 62, 127
2, 56360, Note_off_c, 1, 63, 0
2, 56360, Note_on_c, 1, 80, 127
2, 56520, Note_off_c, 1, 80, 0
2, 56560, Note_on_c, 1, 79, 127
2, 56720, Note_off_c, 1, 79, 0
2, 56760, Note_on_c, 1, 77, 127
2, 56920, Note_off_c, 1, 77, 0
2, 56960, Note_on_c, 1, 79, 127
2, 57120, Note_off_c, 1, 62, 0
2, 57120, Note_off_c, 1, 79, 0
2, 57160, Note_on_c, 1, 63, 127
2, 57160, Note_on_c, 1, 75, 127
2, 57320, Note_off_c, 1, 63, 0
2, 57320, Note_off_c, 1, 75, 0
2, 57360, Note_on_c, 1, 65, 127
2, 57360, Note_on_c, 1, 74, 127
2, 57520, Note_off_c, 1, 65, 0
2, 57520, Note_off_c, 1, 74, 0
2, 57560, Note_on_c, 1, 58, 127
2, 57560, Note_on_c, 1, 75, 127
2, 57720, Note_off_c, 1, 58, 0
2, 57720, Note_off_c, 1, 75, 0
2, 57760, Note_on_c, 1, 56, 127
2, 57760, Note_on_c, 1, 77, 127
2, 57920, Note_off_c, 1, 56, 0
2, 57920, Note_off_c, 1, 70, 0
2, 57920, Note_off_c, 1, 77, 0
2, 57960, Note_on_c, 1, 55, 127
2, 57960, Note_on_c, 1, 70, 127
2, 58160, Note_off_c, 1, 55, 0
2, 58200, Note_on_c, 1, 56, 127
2, 58200, Note_on_c, 1, 72, 127
2, 58320, Note_off_c, 1, 70, 0
2, 58360, Note_off_c, 1, 56, 0
2, 58360, Note_off_c, 1, 72, 0
2, 58400, Note_on_c, 1, 53, 127
2, 58400, Note_on_c, 1, 68, 127
2, 58400, Note_on_c, 1, 74, 127
2, 58560, Note_off_c, 1, 53, 0
2, 58560, Note_off_c, 1, 68, 0
2, 58560, Note_off_c, 1, 74, 0
2, 58600, Note_on_c, 1, 51, 127
2, 58600, Note_on_c, 1, 67, 127
2, 58600, Note_on_c, 1, 75, 127
2, 58760, Note_off_c, 1, 51, 0
2, 58760, Note_off_c, 1, 75, 0
2, 58800, Note_on_c, 1, 53, 127
2, 58800, Note_on_c, 1, 70, 127
2, 58960, Note_off_c, 1, 53, 0
2, 58960, Note_off_c, 1, 70, 0
2, 59000, Note_on_c, 1, 55, 127
2, 59000, Note_on_c, 1, 75, 127
2, 59160, Note_off_c, 1, 55, 0
2, 59160, Note_off_c, 1, 67, 0
2, 59200, Note_on_c, 1, 56, 127
2, 59200, Note_on_c, 1, 65, 127
2, 59360, Note_off_c, 1, 56, 0
2, 59360, Note_off_c, 1, 75, 0
2, 59400, Note_on_c, 1, 53, 127
2, 59400, Note_on_c, 1, 75, 127
2, 59560, Note_off_c, 1, 53, 0
2, 59560, Note_off_c, 1, 75, 0
2, 59600, Note_on_c, 1, 58, 127
2, 59600, Note_on_c, 1, 73, 127
2, 59760, Note_off_c, 1, 58, 0
2, 59760, Note_off_c, 1, 65, 0
2, 59800, Note_on_c, 1, 55, 127
2, 59800, Note_on_c, 1, 63, 127
2, 59960, Note_off_c, 1, 55, 0
2, 59960, Note_off_c, 1, 73, 0
2, 60000, Note_on_c, 1, 51, 127
2, 60000, Note_on_c, 1, 73, 127
2, 60160, Note_off_c, 1, 51, 0
2, 60160, Note_off_c, 1, 73, 0
2, 60200, Note_on_c, 1, 56, 127
2, 60200, Note_on_c, 1, 72, 127
2, 60360, Note_off_c, 1, 56, 0
2, 60360, Note_off_c, 1, 63, 0
2, 60400, Note_on_c, 1, 50, 127
2, 60400, Note_on_c, 1, 65, 127
2, 60560, Note_off_c, 1, 72, 0
2, 60600, Note_on_c, 1, 53, 127
2, 60600, Note_on_c, 1, 70, 127
2, 60760, Note_off_c, 1, 53, 0
2, 60760, Note_off_c, 1, 70, 0
2, 60800, Note_on_c, 1, 58, 127
2, 60800, Note_on_c, 1, 68, 127
2, 60960, Note_off_c, 1, 50, 0
2, 60960, Note_off_c, 1, 65, 0
2, 60960, Note_off_c, 1, 68, 0
2, 61000, Note_on_c, 1, 51, 127
2, 61000, Note_on_c, 1, 67, 127
2, 61160, Note_off_c, 1, 58, 0
2, 61200, Note_on_c, 1, 60, 127
2, 61360, Note_off_c, 1, 60, 0
2, 61400, Note_on_c, 1, 46, 127
2, 61400, Note_on_c, 1, 62, 127
2, 61560, Note_off_c, 1, 46, 0
2, 61560, Note_off_c, 1, 62, 0
2, 61600, Note_on_c, 1, 43, 127
2, 61600, Note_on_c, 1, 63, 127
2, 61760, Note_off_c, 1, 43, 0
2, 61760, Note_off_c, 1, 63, 0
2, 61800, Note_on_c, 1, 44, 127
2, 61800, Note_on_c, 1, 62, 127
2, 61960, Note_off_c, 1, 44, 0
2, 61960, Note_off_c, 1, 62, 0
2, 62040, Note_on_c, 1, 46, 127
2, 62040, Note_on_c, 1, 65, 127
2, 62200, Note_off_c, 1, 46, 0
2, 62200, Note_off_c, 1, 65, 0
2, 62240, Note_on_c, 1, 39, 127
2, 62240, Note_on_c, 1, 63, 127
2, 62400, Note_off_c, 1, 51, 0
2, 62400, Note_off_c, 1, 67, 0
2, 62440, Note_on_c, 1, 53, 127
2, 62440, Note_on_c, 1, 68, 127
2, 62600, Note_off_c, 1, 39, 0
2, 62600, Note_off_c, 1, 53, 0
2, 62600, Note_off_c, 1, 68, 0
2, 62640, Note_on_c, 1, 55, 127
2, 62640, Note_on_c, 1, 70, 127
2, 62800, Note_off_c, 1, 55, 0
2, 62800, Note_off_c, 1, 70, 0
2, 62840, Note_on_c, 1, 56, 127
2, 62840, Note_on_c, 1, 72, 127
2, 63000, Note_off_c, 1, 56, 0
2, 63000, Note_off_c, 1, 72, 0
2, 63040, Note_on_c, 1, 55, 127
2, 63040, Note_on_c, 1, 70, 127
2, 63200, Note_off_c, 1, 55, 0
2, 63200, Note_off_c, 1, 70, 0
2, 63240, Note_on_c, 1, 58, 127
2, 63240, Note_on_c, 1, 73, 127
2, 63400, Note_off_c, 1, 58, 0
2, 63400, Note_off_c, 1, 73, 0
2, 63440, Note_on_c, 1, 56, 127
2, 63440, Note_on_c, 1, 72, 127
2, 63600, Note_off_c, 1, 63, 0
2, 63640, Note_on_c, 1, 65, 127
2, 63800, Note_off_c, 1, 65, 0
2, 63840, Note_on_c, 1, 51, 127
2, 63840, Note_on_c, 1, 67, 127
2, 64000, Note_off_c, 1, 51, 0
2, 64000, Note_off_c, 1, 67, 0
2, 64040, Note_on_c, 1, 48, 127
2, 64040, Note_on_c, 1, 68, 127
2, 64200, Note_off_c, 1, 48, 0
2, 64200, Note_off_c, 1, 68, 0
2, 64240, Note_on_c, 1, 49, 127
2, 64240, Note_on_c, 1, 67, 127
2, 64400, Note_off_c, 1, 49, 0
2, 64400, Note_off_c, 1, 67, 0
2, 64440, Note_on_c, 1, 51, 127
2, 64440, Note_on_c, 1, 70, 127
2, 64600, Note_off_c, 1, 51, 0
2, 64600, Note_off_c, 1, 70, 0
2, 64640, Note_on_c, 1, 44, 127
2, 64640, Note_on_c, 1, 68, 127
2, 64800, Note_off_c, 1, 56, 0
2, 64800, Note_off_c, 1, 72, 0
2, 64840, Note_on_c, 1, 58, 127
2, 64840, Note_on_c, 1, 73, 127
2, 65000, Note_off_c, 1, 44, 0
2, 65000, Note_off_c, 1, 58, 0
2, 65000, Note_off_c, 1, 73, 0
2, 65040, Note_on_c, 1, 60, 127
2, 65040, Note_on_c, 1, 75, 127
2, 65200, Note_off_c, 1, 60, 0
2, 65200, Note_off_c, 1, 75, 0
2, 65240, Note_on_c, 1, 61, 127
2, 65240, Note_on_c, 1, 77, 127
2, 65400, Note_off_c, 1, 61, 0
2, 65400, Note_off_c, 1, 77, 0
2, 65440, Note_on_c, 1, 60, 127
2, 65440, Note_on_c, 1, 75, 127
2, 65600, Note_off_c, 1, 60, 0
2, 65600, Note_off_c, 1, 75, 0
2, 65640, Note_on_c, 1, 63, 127
2, 65640, Note_on_c, 1, 78, 127
2, 65800, Note_off_c, 1, 63, 0
2, 65800, Note_off_c, 1, 78, 0
2, 65880, Note_on_c, 1, 61, 127
2, 65880, Note_on_c, 1, 77, 127
2, 66000, Note_off_c, 1, 68, 0
2, 66080, Note_on_c, 1, 70, 127
2, 66240, Note_off_c, 1, 70, 0
2, 66280, Note_on_c, 1, 56, 127
2, 66280, Note_on_c, 1, 72, 127
2, 66440, Note_off_c, 1, 56, 0
2, 66440, Note_off_c, 1, 72, 0
2, 66480, Note_on_c, 1, 53, 127
2, 66480, Note_on_c, 1, 73, 127
2, 66640, Note_off_c, 1, 53, 0
2, 66640, Note_off_c, 1, 73, 0
2, 66680, Note_on_c, 1, 54, 127
2, 66680, Note_on_c, 1, 72, 127
2, 66840, Note_off_c, 1, 54, 0
2, 66840, Note_off_c, 1, 72, 0
2, 66880, Note_on_c, 1, 56, 127
2, 66880, Note_on_c, 1, 75, 127
2, 67040, Note_off_c, 1, 56, 0
2, 67040, Note_off_c, 1, 61, 0
2, 67040, Note_off_c, 1, 75, 0
2, 67080, Note_on_c, 1, 49, 127
2, 67080, Note_on_c, 1, 73, 127
2, 67240, Note_off_c, 1, 49, 0
2, 67240, Note_off_c, 1, 77, 0
2, 67280, Note_on_c, 1, 53, 127
2, 67280, Note_on_c, 1, 79, 127
2, 67440, Note_off_c, 1, 53, 0
2, 67440, Note_off_c, 1, 79, 0
2, 67480, Note_on_c, 1, 49, 127
2, 67480, Note_on_c, 1, 80, 127
2, 67640, Note_off_c, 1, 49, 0
2, 67640, Note_off_c, 1, 80, 0
2, 67680, Note_on_c, 1, 46, 127
2, 67680, Note_on_c, 1, 82, 127
2, 67840, Note_off_c, 1, 46, 0
2, 67840, Note_off_c, 1, 82, 0
2, 67880, Note_on_c, 1, 49, 127
2, 67880, Note_on_c, 1, 77, 127
2, 68040, Note_off_c, 1, 49, 0
2, 68040, Note_off_c, 1, 77, 0
2, 68080, Note_on_c, 1, 46, 127
2, 68080, Note_on_c, 1, 80, 127
2, 68240, Note_off_c, 1, 46, 0
2, 68240, Note_off_c, 1, 80, 0
2, 68280, Note_on_c, 1, 51, 127
2, 68280, Note_on_c, 1, 79, 127
2, 68440, Note_off_c, 1, 79, 0
2, 68480, Note_on_c, 1, 77, 127
2, 68640, Note_off_c, 1, 77, 0
2, 68680, Note_on_c, 1, 75, 127
2, 68840, Note_off_c, 1, 73, 0
2, 68840, Note_off_c, 1, 75, 0
2, 68880, Note_on_c, 1, 72, 127
2, 68880, Note_on_c, 1, 80, 127
2, 69040, Note_off_c, 1, 72, 0
2, 69080, Note_on_c, 1, 70, 127
2, 69240, Note_off_c, 1, 70, 0
2, 69280, Note_on_c, 1, 68, 127
2, 69440, Note_off_c, 1, 68, 0
2, 69480, Note_on_c, 1, 70, 127
2, 69640, Note_off_c, 1, 80, 0
2, 69720, Note_on_c, 1, 79, 127
2, 69880, Note_off_c, 1, 79, 0
2, 69920, Note_on_c, 1, 77, 127
2, 70080, Note_off_c, 1, 77, 0
2, 70120, Note_on_c, 1, 79, 127
2, 70280, Note_off_c, 1, 51, 0
2, 70280, Note_off_c, 1, 70, 0
2, 70280, Note_off_c, 1, 79, 0
2, 70320, Note_on_c, 1, 63, 127
2, 70320, Note_on_c, 1, 72, 127
2, 70320, Note_on_c, 1, 75, 127
2, 70480, Note_off_c, 1, 63, 0
2, 70480, Note_off_c, 1, 72, 0
2, 70480, Note_off_c, 1, 75, 0
2, 70520, Note_on_c, 1, 61, 127
2, 70520, Note_on_c, 1, 73, 127
2, 70520, Note_on_c, 1, 77, 127
2, 70680, Note_off_c, 1, 61, 0
2, 70680, Note_off_c, 1, 73, 0
2, 70680, Note_off_c, 1, 77, 0
2, 70720, Note_on_c, 1, 60, 127
2, 70720, Note_on_c, 1, 75, 127
2, 70720, Note_on_c, 1, 78, 127
2, 70880, Note_off_c, 1, 60, 0
2, 70880, Note_off_c, 1, 75, 0
2, 70920, Note_on_c, 1, 61, 127
2, 70920, Note_on_c, 1, 73, 127
2, 71080, Note_off_c, 1, 61, 0
2, 71080, Note_off_c, 1, 73, 0
2, 71120, Note_on_c, 1, 58, 127
2, 71120, Note_on_c, 1, 77, 127
2, 71280, Note_off_c, 1, 58, 0
2, 71280, Note_off_c, 1, 77, 0
2, 71320, Note_on_c, 1, 60, 127
2, 71320, Note_on_c, 1, 75, 127
2, 71480, Note_off_c, 1, 60, 0
2, 71520, Note_on_c, 1, 58, 127
2, 71680, Note_off_c, 1, 58, 0
2, 71720, Note_on_c, 1, 56, 127
2, 71880, Note_off_c, 1, 56, 0
2, 71880, Note_off_c, 1, 78, 0
2, 71920, Note_on_c, 1, 61, 127
2, 71920, Note_on_c, 1, 77, 127
2, 72080, Note_off_c, 1, 75, 0
2, 72120, Note_on_c, 1, 68, 127
2, 72280, Note_off_c, 1, 68, 0
2, 72320, Note_on_c, 1, 72, 127
2, 72480, Note_off_c, 1, 72, 0
2, 72520, Note_on_c, 1, 73, 127
2, 72680, Note_off_c, 1, 61, 0
2, 72720, Note_on_c, 1, 58, 127
2, 72880, Note_off_c, 1, 58, 0
2, 72920, Note_on_c, 1, 61, 127
2, 73080, Note_off_c, 1, 61, 0
2, 73080, Note_off_c, 1, 77, 0
2, 73120, Note_on_c, 1, 55, 127
2, 73120, Note_on_c, 1, 75, 127
2, 73280, Note_off_c, 1, 55, 0
2, 73280, Note_off_c, 1, 73, 0
2, 73320, Note_on_c, 1, 58, 127
2, 73320, Note_on_c, 1, 67, 127
2, 73480, Note_off_c, 1, 58, 0
2, 73480, Note_off_c, 1, 67, 0
2, 73520, Note_on_c, 1, 51, 127
2, 73520, Note_on_c, 1, 70, 127
2, 73720, Note_off_c, 1, 51, 0
2, 73720, Note_off_c, 1, 70, 0
2, 73760, Note_on_c, 1, 56, 127
2, 73760, Note_on_c, 1, 72, 127
2, 73920, Note_off_c, 1, 56, 0
2, 73960, Note_on_c, 1, 48, 127
2, 74120, Note_off_c, 1, 48, 0
2, 74160, Note_on_c, 1, 51, 127
2, 74320, Note_off_c, 1, 51, 0
2, 74320, Note_off_c, 1, 75, 0
2, 74360, Note_on_c, 1, 41, 127
2, 74360, Note_on_c, 1, 73, 127
2, 74520, Note_off_c, 1, 72, 0
2, 74560, Note_on_c, 1, 70, 127
2, 74720, Note_off_c, 1, 70, 0
2, 74760, Note_on_c, 1, 68, 127
2, 74920, Note_off_c, 1, 41, 0
2, 74920, Note_off_c, 1, 68, 0
2, 74960, Note_on_c, 1, 41, 127
2, 74960, Note_on_c, 1, 70, 127
2, 75000, Note_off_c, 1, 41, 0
2, 75040, Note_on_c, 1, 43, 127
2, 75080, Note_off_c, 1, 43, 0
2, 75080, Note_on_c, 1, 44, 127
2, 75120, Note_off_c, 1, 44, 0
2, 75120, Note_off_c, 1, 73, 0
2, 75160, Note_on_c, 1, 43, 127
2, 75160, Note_on_c, 1, 72, 127
2, 75200, Note_off_c, 1, 43, 0
2, 75240, Note_on_c, 1, 44, 127
2, 75280, Note_off_c, 1, 44, 0
2, 75320, Note_on_c, 1, 43, 127
2, 75320, Note_off_c, 1, 70, 0
2, 75320, Note_off_c, 1, 72, 0
2, 75360, Note_off_c, 1, 43, 0
2, 75360, Note_on_c, 1, 70, 127
2, 75400, Note_on_c, 1, 41, 127
2, 75440, Note_off_c, 1, 41, 0
2, 75440, Note_on_c, 1, 43, 127
2, 75520, Note_off_c, 1, 43, 0
2, 75520, Note_off_c, 1, 70, 0
2, 75560, Note_on_c, 1, 44, 127
2, 75560, Note_on_c, 1, 72, 127
2, 75720, Note_off_c, 1, 44, 0
2, 75760, Note_on_c, 1, 48, 127
2, 75760, Note_on_c, 1, 68, 127
2, 75920, Note_off_c, 1, 48, 0
2, 75920, Note_off_c, 1, 68, 0
2, 75960, Note_on_c, 1, 51, 127
2, 75960, Note_on_c, 1, 66, 127
2, 76120, Note_off_c, 1, 51, 0
2, 76120, Note_off_c, 1, 66, 0
2, 76160, Note_on_c, 1, 56, 127
2, 76160, Note_on_c, 1, 65, 127
2, 76320, Note_off_c, 1, 56, 0
2, 76320, Note_off_c, 1, 65, 0
2, 76360, Note_on_c, 1, 44, 127
2, 76360, Note_on_c, 1, 66, 127
2, 76520, Note_off_c, 1, 44, 0
2, 76520, Note_off_c, 1, 66, 0
2, 76560, Note_on_c, 1, 48, 127
2, 76560, Note_on_c, 1, 63, 127
2, 76720, Note_off_c, 1, 48, 0
2, 76720, Note_off_c, 1, 63, 0
2, 76760, Note_on_c, 1, 37, 127
2, 76760, Note_on_c, 1, 65, 127
2, 76920, Note_off_c, 1, 72, 0
2, 76960, Note_on_c, 1, 73, 127
2, 77120, Note_off_c, 1, 73, 0
2, 77160, Note_on_c, 1, 72, 127
2, 77320, Note_off_c, 1, 37, 0
2, 77320, Note_off_c, 1, 72, 0
2, 77360, Note_on_c, 1, 36, 127
2, 77360, Note_on_c, 1, 70, 127
2, 77400, Note_off_c, 1, 36, 0
2, 77440, Note_on_c, 1, 38, 127
2, 77480, Note_off_c, 1, 38, 0
2, 77520, Note_on_c, 1, 39, 127
2, 77560, Note_off_c, 1, 39, 0
2, 77560, Note_off_c, 1, 70, 0
2, 77600, Note_on_c, 1, 38, 127
2, 77600, Note_on_c, 1, 72, 127
2, 77640, Note_off_c, 1, 38, 0
2, 77680, Note_on_c, 1, 39, 127
2, 77720, Note_on_c, 1, 38, 127
2, 77720, Note_off_c, 1, 39, 0
2, 77760, Note_off_c, 1, 38, 0
2, 77760, Note_off_c, 1, 72, 0
2, 77800, Note_on_c, 1, 36, 127
2, 77800, Note_on_c, 1, 68, 127
2, 77840, Note_off_c, 1, 36, 0
2, 77880, Note_on_c, 1, 38, 127
2, 77960, Note_off_c, 1, 38, 0
2, 77960, Note_off_c, 1, 65, 0
2, 77960, Note_off_c, 1, 68, 0
2, 78000, Note_on_c, 1, 39, 127
2, 78000, Note_on_c, 1, 63, 127
2, 78000, Note_on_c, 1, 68, 127
2, 78040, Note_off_c, 1, 68, 0
2, 78080, Note_on_c, 1, 67, 127
2, 78120, Note_off_c, 1, 67, 0
2, 78160, Note_off_c, 1, 63, 0
2, 78160, Note_on_c, 1, 68, 127
2, 78200, Note_on_c, 1, 61, 127
2, 78200, Note_off_c, 1, 68, 0
2, 78240, Note_on_c, 1, 67, 127
2, 78280, Note_off_c, 1, 67, 0
2, 78320, Note_on_c, 1, 68, 127
2, 78360, Note_off_c, 1, 39, 0
2, 78360, Note_off_c, 1, 61, 0
2, 78360, Note_off_c, 1, 68, 0
2, 78400, Note_on_c, 1, 60, 127
2, 78400, Note_on_c, 1, 67, 127
2, 78560, Note_off_c, 1, 60, 0
2, 78600, Note_on_c, 1, 58, 127
2, 78760, Note_off_c, 1, 58, 0
2, 78760, Note_off_c, 1, 67, 0
2, 78800, Note_on_c, 1, 60, 127
2, 78800, Note_on_c, 1, 68, 127
2, 78960, Note_off_c, 1, 60, 0
2, 78960, Note_off_c, 1, 68, 0
2, 79000, Note_on_c, 1, 56, 127
2, 79000, Note_on_c, 1, 70, 127
2, 79160, Note_off_c, 1, 56, 0
2, 79160, Note_off_c, 1, 70, 0
2, 79200, Note_on_c, 1, 55, 127
2, 79200, Note_on_c, 1, 63, 127
2, 79400, Note_on_c, 1, 61, 127
2, 79560, Note_off_c, 1, 55, 0
2, 79560, Note_off_c, 1, 61, 0
2, 79600, Note_on_c, 1, 56, 127
2, 79600, Note_on_c, 1, 60, 127
2, 79760, Note_off_c, 1, 56, 0
2, 79760, Note_off_c, 1, 60, 0
2, 79800, Note_on_c, 1, 55, 127
2, 79800, Note_on_c, 1, 58, 127
2, 79960, Note_off_c, 1, 58, 0
2, 79960, Note_off_c, 1, 63, 0
2, 80000, Note_on_c, 1, 60, 127
2, 80160, Note_off_c, 1, 55, 0
2, 80160, Note_off_c, 1, 60, 0
2, 80200, Note_on_c, 1, 53, 127
2, 80200, Note_on_c, 1, 56, 127
2, 80360, Note_off_c, 1, 53, 0
2, 80360, Note_off_c, 1, 56, 0
2, 80400, Note_on_c, 1, 51, 127
2, 80400, Note_on_c, 1, 55, 127
2, 80400, Note_on_c, 1, 75, 127
2, 80560, Note_off_c, 1, 75, 0
2, 80600, Note_on_c, 1, 73, 127
2, 80760, Note_off_c, 1, 51, 0
2, 80760, Note_off_c, 1, 55, 0
2, 80760, Note_off_c, 1, 73, 0
2, 80800, Note_on_c, 1, 53, 127
2, 80800, Note_on_c, 1, 56, 127
2, 80800, Note_on_c, 1, 72, 127
2, 80960, Note_off_c, 1, 53, 0
2, 80960, Note_off_c, 1, 56, 0
2, 80960, Note_off_c, 1, 72, 0
2, 81000, Note_on_c, 1, 55, 127
2, 81000, Note_on_c, 1, 58, 127
2, 81000, Note_on_c, 1, 70, 127
2, 81160, Note_off_c, 1, 58, 0
2, 81160, Note_off_c, 1, 70, 0
2, 81200, Note_on_c, 1, 63, 127
2, 81200, Note_on_c, 1, 73, 127
2, 81360, Note_off_c, 1, 55, 0
2, 81360, Note_off_c, 1, 63, 0
2, 81360, Note_off_c, 1, 73, 0
2, 81400, Note_on_c, 1, 56, 127
2, 81400, Note_on_c, 1, 65, 127
2, 81400, Note_on_c, 1, 72, 127
2, 81600, Note_off_c, 1, 56, 0
2, 81600, Note_off_c, 1, 65, 0
2, 81600, Note_off_c, 1, 72, 0
2, 81640, Note_on_c, 1, 51, 127
2, 81640, Note_on_c, 1, 58, 127
2, 81640, Note_on_c, 1, 67, 127
2, 81640, Note_on_c, 1, 73, 127
2, 81800, Note_off_c, 1, 51, 0
2, 81840, Note_on_c, 1, 49, 127
2, 82000, Note_off_c, 1, 49, 0
2, 82000, Note_off_c, 1, 58, 0
2, 82040, Note_on_c, 1, 48, 127
2, 82200, Note_off_c, 1, 48, 0
2, 82240, Note_on_c, 1, 46, 127
2, 82400, Note_off_c, 1, 46, 0
2, 82440, Note_on_c, 1, 48, 127
2, 82600, Note_off_c, 1, 48, 0
2, 82600, Note_off_c, 1, 67, 0
2, 82640, Note_on_c, 1, 44, 127
2, 82640, Note_on_c, 1, 68, 127
2, 82800, Note_off_c, 1, 44, 0
2, 82800, Note_off_c, 1, 68, 0
2, 82840, Note_on_c, 1, 43, 127
2, 82840, Note_on_c, 1, 70, 127
2, 83000, Note_off_c, 1, 43, 0
2, 83040, Note_on_c, 1, 41, 127
2, 83200, Note_off_c, 1, 41, 0
2, 83240, Note_on_c, 1, 39, 127
2, 83400, Note_off_c, 1, 39, 0
2, 83400, Note_off_c, 1, 73, 0
2, 83440, Note_on_c, 1, 44, 127
2, 83440, Note_on_c, 1, 72, 127
2, 83600, Note_off_c, 1, 44, 0
2, 83600, Note_off_c, 1, 70, 0
2, 83640, Note_on_c, 1, 46, 127
2, 83640, Note_on_c, 1, 68, 127
2, 83800, Note_off_c, 1, 46, 0
2, 83800, Note_off_c, 1, 68, 0
2, 83840, Note_on_c, 1, 48, 127
2, 83840, Note_on_c, 1, 66, 127
2, 84000, Note_off_c, 1, 48, 0
2, 84000, Note_off_c, 1, 66, 0
2, 84040, Note_on_c, 1, 49, 127
2, 84040, Note_on_c, 1, 65, 127
2, 84200, Note_off_c, 1, 49, 0
2, 84200, Note_off_c, 1, 72, 0
2, 84240, Note_on_c, 1, 48, 127
2, 84240, Note_on_c, 1, 73, 127
2, 84400, Note_off_c, 1, 48, 0
2, 84400, Note_off_c, 1, 73, 0
2, 84440, Note_on_c, 1, 51, 127
2, 84440, Note_on_c, 1, 72, 127
2, 84600, Note_off_c, 1, 51, 0
2, 84600, Note_off_c, 1, 65, 0
2, 84600, Note_off_c, 1, 72, 0
2, 84640, Note_on_c, 1, 49, 127
2, 84640, Note_on_c, 1, 64, 127
2, 84640, Note_on_c, 1, 70, 127
2, 84800, Note_off_c, 1, 49, 0
2, 84800, Note_off_c, 1, 70, 0
2, 84840, Note_on_c, 1, 51, 127
2, 84840, Note_on_c, 1, 71, 127
2, 85000, Note_off_c, 1, 51, 0
2, 85000, Note_off_c, 1, 71, 0
2, 85040, Note_on_c, 1, 52, 127
2, 85040, Note_on_c, 1, 68, 127
2, 85200, Note_off_c, 1, 52, 0
2, 85200, Note_off_c, 1, 68, 0
2, 85240, Note_on_c, 1, 51, 127
2, 85240, Note_on_c, 1, 67, 127
2, 85440, Note_off_c, 1, 64, 0
2, 85480, Note_on_c, 1, 63, 127
2, 85640, Note_off_c, 1, 63, 0
2, 85680, Note_on_c, 1, 61, 127
2, 85840, Note_off_c, 1, 51, 0
2, 85840, Note_off_c, 1, 61, 0
2, 85880, Note_on_c, 1, 60, 127
2, 86040, Note_off_c, 1, 60, 0
2, 86040, Note_off_c, 1, 67, 0
2, 86080, Note_on_c, 1, 61, 127
2, 86080, Note_on_c, 1, 70, 127
2, 86240, Note_off_c, 1, 61, 0
2, 86240, Note_off_c, 1, 70, 0
2, 86280, Note_on_c, 1, 58, 127
2, 86280, Note_on_c, 1, 67, 127
2, 86440, Note_off_c, 1, 58, 0
2, 86440, Note_off_c, 1, 67, 0
2, 86480, Note_on_c, 1, 60, 127
2, 86480, Note_on_c, 1, 63, 127
2, 86640, Note_off_c, 1, 63, 0
2, 86680, Note_on_c, 1, 75, 127
2, 86840, Note_off_c, 1, 75, 0
2, 86880, Note_on_c, 1, 68, 127
2, 87040, Note_off_c, 1, 60, 0
2, 87080, Note_on_c, 1, 58, 127
2, 87080, Note_on_c, 1, 61, 127
2, 87240, Note_off_c, 1, 68, 0
2, 87280, Note_on_c, 1, 70, 127
2, 87440, Note_off_c, 1, 70, 0
2, 87480, Note_on_c, 1, 67, 127
2, 87640, Note_off_c, 1, 61, 0
2, 87640, Note_off_c, 1, 67, 0
2, 87680, Note_off_c, 1, 58, 0
2, 87720, Note_on_c, 1, 56, 127
2, 87720, Note_on_c, 1, 60, 127
2, 87720, Note_on_c, 1, 68, 127
2, 87720, Note_on_c, 1, 80, 127
2, 87880, Note_off_c, 1, 80, 0
2, 87920, Note_on_c, 1, 79, 127
2, 88080, Note_off_c, 1, 60, 0
2, 88080, Note_off_c, 1, 79, 0
2, 88120, Note_on_c, 1, 61, 127
2, 88120, Note_on_c, 1, 77, 127
2, 88280, Note_off_c, 1, 61, 0
2, 88280, Note_off_c, 1, 77, 0
2, 88320, Note_on_c, 1, 60, 127
2, 88320, Note_on_c, 1, 75, 127
2, 88480, Note_off_c, 1, 75, 0
2, 88520, Note_on_c, 1, 77, 127
2, 88680, Note_off_c, 1, 60, 0
2, 88680, Note_off_c, 1, 77, 0
2, 88720, Note_on_c, 1, 58, 127
2, 88720, Note_on_c, 1, 73, 127
2, 88880, Note_off_c, 1, 56, 0
2, 88880, Note_off_c, 1, 58, 0
2, 88880, Note_off_c, 1, 73, 0
2, 88920, Note_on_c, 1, 56, 127
2, 88920, Note_on_c, 1, 72, 127
2, 89080, Note_off_c, 1, 68, 0
2, 89120, Note_on_c, 1, 67, 127
2, 89280, Note_off_c, 1, 67, 0
2, 89280, Note_off_c, 1, 72, 0
2, 89320, Note_on_c, 1, 65, 127
2, 89320, Note_on_c, 1, 73, 127
2, 89480, Note_off_c, 1, 65, 0
2, 89480, Note_off_c, 1, 73, 0
2, 89520, Note_on_c, 1, 63, 127
2, 89520, Note_on_c, 1, 73, 127
2, 89600, Note_off_c, 1, 73, 0
2, 89640, Note_on_c, 1, 72, 127
2, 89680, Note_off_c, 1, 63, 0
2, 89680, Note_off_c, 1, 72, 0
2, 89680, Note_on_c, 1, 73, 127
2, 89720, Note_on_c, 1, 65, 127
2, 89720, Note_on_c, 1, 72, 127
2, 89720, Note_off_c, 1, 73, 0
2, 89760, Note_off_c, 1, 72, 0
2, 89800, Note_on_c, 1, 73, 127
2, 89840, Note_on_c, 1, 72, 127
2, 89840, Note_off_c, 1, 73, 0
2, 89880, Note_off_c, 1, 65, 0
2, 89880, Note_off_c, 1, 72, 0
2, 89920, Note_on_c, 1, 61, 127
2, 89920, Note_on_c, 1, 70, 127
2, 90080, Note_off_c, 1, 56, 0
2, 90120, Note_off_c, 1, 61, 0
2, 90120, Note_off_c, 1, 70, 0
2, 90160, Note_on_c, 1, 56, 127
2, 90160, Note_on_c, 1, 60, 127
2, 90160, Note_on_c, 1, 68, 127
2, 90320, Note_off_c, 1, 60, 0
2, 90360, Note_on_c, 1, 61, 127
2, 90360, Note_on_c, 1, 70, 127
2, 90520, Note_off_c, 1, 61, 0
2, 90520, Note_off_c, 1, 70, 0
2, 90560, Note_on_c, 1, 63, 127
2, 90560, Note_on_c, 1, 72, 127
2, 90720, Note_off_c, 1, 63, 0
2, 90720, Note_off_c, 1, 72, 0
2, 90760, Note_on_c, 1, 65, 127
2, 90760, Note_on_c, 1, 73, 127
2, 90920, Note_off_c, 1, 65, 0
2, 90920, Note_off_c, 1, 73, 0
2, 90960, Note_on_c, 1, 61, 127
2, 90960, Note_on_c, 1, 77, 127
2, 91160, Note_off_c, 1, 61, 0
2, 91160, Note_off_c, 1, 77, 0
2, 91200, Note_on_c, 1, 60, 127
2, 91200, Note_on_c, 1, 75, 127
2, 91360, Note_off_c, 1, 60, 0
2, 91360, Note_off_c, 1, 75, 0
2, 91400, Note_on_c, 1, 61, 127
2, 91400, Note_on_c, 1, 77, 127
2, 91560, Note_off_c, 1, 61, 0
2, 91560, Note_off_c, 1, 68, 0
2, 91560, Note_off_c, 1, 77, 0
2, 91600, Note_on_c, 1, 65, 127
2, 91600, Note_on_c, 1, 73, 127
2, 91760, Note_off_c, 1, 65, 0
2, 91800, Note_on_c, 1, 63, 127
2, 91800, Note_on_c, 1, 75, 127
2, 92000, Note_off_c, 1, 63, 0
2, 92000, Note_off_c, 1, 75, 0
2, 92040, Note_on_c, 1, 61, 127
2, 92040, Note_on_c, 1, 77, 127
2, 92200, Note_off_c, 1, 61, 0
2, 92240, Note_on_c, 1, 65, 127
2, 92240, Note_on_c, 1, 80, 127
2, 92400, Note_off_c, 1, 65, 0
2, 92400, Note_off_c, 1, 80, 0
2, 92440, Note_on_c, 1, 63, 127
2, 92440, Note_on_c, 1, 79, 127
2, 92600, Note_off_c, 1, 56, 0
2, 92640, Note_off_c, 1, 63, 0
2, 92640, Note_off_c, 1, 79, 0
2, 92680, Note_on_c, 1, 56, 127
2, 92680, Note_on_c, 1, 65, 127
2, 92680, Note_on_c, 1, 80, 127
2, 92840, Note_off_c, 1, 65, 0
2, 92880, Note_on_c, 1, 68, 127
2, 93120, Note_on_c, 1, 67, 127
2, 93280, Note_off_c, 1, 67, 0
2, 93280, Note_off_c, 1, 68, 0
2, 93360, Note_on_c, 1, 68, 127
2, 93560, Note_off_c, 1, 73, 0
2, 93560, Note_off_c, 1, 77, 0
2, 93600, Note_on_c, 1, 72, 127
2, 93600, Note_on_c, 1, 75, 127
2, 93840, Note_off_c, 1, 72, 0
2, 93840, Note_off_c, 1, 75, 0
2, 93920, Note_on_c, 1, 70, 127
2, 93920, Note_on_c, 1, 73, 127
2, 94080, Note_off_c, 1, 68, 0
2, 94120, Note_off_c, 1, 70, 0
2, 94120, Note_off_c, 1, 73, 0
2, 94200, Note_on_c, 1, 44, 127
2, 94200, Note_on_c, 1, 68, 127
2, 94200, Note_on_c, 1, 72, 127
2, 96600, Note_off_c, 1, 56, 0
2, 96600, Note_off_c, 1, 80, 0
2, 97600, Note_off_c, 1, 44, 0
2, 97600, Note_off_c, 1, 68, 0
2, 97600, Note_off_c, 1, 72, 0
2, 99520, Note_on_c, 1, 80, 127
2, 99680, Note_off_c, 1, 80, 0
2, 99720, Note_on_c, 1, 80, 127
2, 99920, Note_on_c, 1, 56, 127
2, 100120, Note_on_c, 1, 60, 127
2, 100320, Note_on_c, 1, 63, 127
2, 100520, Note_on_c, 1, 68, 127
2, 100720, Note_on_c, 1, 72, 127
2, 100880, Note_off_c, 1, 72, 0
2, 100880, Note_off_c, 1, 80, 0
2, 100920, Note_on_c, 1, 75, 127
2, 101080, Note_off_c, 1, 75, 0
2, 101120, Note_on_c, 1, 80, 127
2, 101240, Note_off_c, 1, 68, 0
2, 101280, Note_off_c, 1, 60, 0
2, 101280, Note_off_c, 1, 63, 0
2, 101320, Note_on_c, 1, 61, 127
2, 101320, Note_on_c, 1, 70, 127
2, 101440, Note_off_c, 1, 80, 0
2, 101520, Note_on_c, 1, 80, 127
2, 101640, Note_off_c, 1, 80, 0
2, 101680, Note_on_c, 1, 79, 127
2, 101840, Note_off_c, 1, 79, 0
2, 101880, Note_on_c, 1, 77, 127
2, 102040, Note_off_c, 1, 77, 0
2, 102080, Note_on_c, 1, 79, 127
2, 102240, Note_off_c, 1, 79, 0
2, 102280, Note_on_c, 1, 82, 127
2, 102440, Note_off_c, 1, 82, 0
2, 102480, Note_on_c, 1, 75, 127
2, 102640, Note_off_c, 1, 75, 0
2, 102680, Note_on_c, 1, 77, 127
2, 102840, Note_off_c, 1, 61, 0
2, 102840, Note_off_c, 1, 70, 0
2, 102840, Note_off_c, 1, 77, 0
2, 102880, Note_on_c, 1, 63, 127
2, 102880, Note_on_c, 1, 78, 127
2, 102960, Note_on_c, 1, 61, 127
2, 102960, Note_off_c, 1, 63, 0
2, 103000, Note_off_c, 1, 61, 0
2, 103040, Note_on_c, 1, 63, 127
2, 103080, Note_on_c, 1, 75, 127
2, 103280, Note_on_c, 1, 72, 127
2, 103480, Note_on_c, 1, 68, 127
2, 103640, Note_off_c, 1, 63, 0
2, 103680, Note_on_c, 1, 65, 127
2, 103840, Note_off_c, 1, 68, 0
2, 103880, Note_on_c, 1, 68, 127
2, 104040, Note_off_c, 1, 72, 0
2, 104040, Note_off_c, 1, 75, 0
2, 104040, Note_off_c, 1, 78, 0
2, 104080, Note_on_c, 1, 73, 127
2, 104080, Note_on_c, 1, 77, 127
2, 104240, Note_off_c, 1, 65, 0
2, 104240, Note_off_c, 1, 68, 0
2, 104280, Note_on_c, 1, 67, 127
2, 104440, Note_off_c, 1, 67, 0
2, 104440, Note_off_c, 1, 73, 0
2, 104440, Note_off_c, 1, 77, 0
2, 104480, Note_on_c, 1, 68, 127
2, 104480, Note_on_c, 1, 75, 127
2, 104680, Note_on_c, 1, 73, 127
2, 104840, Note_off_c, 1, 73, 0
2, 104880, Note_on_c, 1, 72, 127
2, 105040, Note_off_c, 1, 72, 0
2, 105080, Note_on_c, 1, 70, 127
2, 105240, Note_off_c, 1, 70, 0
2, 105280, Note_on_c, 1, 72, 127
2, 105440, Note_off_c, 1, 68, 0
2, 105480, Note_on_c, 1, 70, 127
2, 105600, Note_off_c, 1, 70, 0
2, 105640, Note_on_c, 1, 63, 127
2, 105800, Note_off_c, 1, 63, 0
2, 105840, Note_on_c, 1, 65, 127
2, 106000, Note_off_c, 1, 65, 0
2, 106040, Note_on_c, 1, 66, 127
2, 106080, Note_off_c, 1, 56, 0
2, 106240, Note_on_c, 1, 63, 127
2, 106440, Note_on_c, 1, 60, 127
2, 106640, Note_on_c, 1, 56, 127
2, 106800, Note_off_c, 1, 60, 0
2, 106800, Note_off_c, 1, 63, 0
2, 106800, Note_off_c, 1, 66, 0
2, 106800, Note_off_c, 1, 75, 0
2, 106840, Note_on_c, 1, 65, 127
2, 107000, Note_off_c, 1, 72, 0
2, 107040, Note_on_c, 1, 68, 127
2, 107200, Note_off_c, 1, 65, 0
2, 107240, Note_on_c, 1, 64, 127
2, 107240, Note_on_c, 1, 73, 127
2, 107400, Note_off_c, 1, 68, 0
2, 107440, Note_on_c, 1, 67, 127
2, 107600, Note_off_c, 1, 64, 0
2, 107600, Note_off_c, 1, 67, 0
2, 107640, Note_on_c, 1, 63, 127
2, 107640, Note_on_c, 1, 68, 127
2, 107800, Note_off_c, 1, 73, 0
2, 107840, Note_on_c, 1, 73, 127
2, 108000, Note_off_c, 1, 73, 0
2, 108040, Note_on_c, 1, 72, 127
2, 108200, Note_off_c, 1, 72, 0
2, 108240, Note_on_c, 1, 70, 127
2, 108400, Note_off_c, 1, 63, 0
2, 108400, Note_off_c, 1, 68, 0
2, 108400, Note_off_c, 1, 70, 0
2, 108440, Note_on_c, 1, 63, 127
2, 108440, Note_on_c, 1, 68, 127
2, 108440, Note_on_c, 1, 72, 127
2, 108480, Note_on_c, 1, 67, 127
2, 108480, Note_off_c, 1, 68, 0
2, 108560, Note_off_c, 1, 67, 0
2, 108560, Note_on_c, 1, 68, 127
2, 108600, Note_off_c, 1, 56, 0
2, 108640, Note_on_c, 1, 60, 127
2, 108800, Note_off_c, 1, 60, 0
2, 108840, Note_on_c, 1, 53, 127
2, 109000, Note_off_c, 1, 53, 0
2, 109040, Note_on_c, 1, 55, 127
2, 109160, Note_off_c, 1, 63, 0
2, 109160, Note_off_c, 1, 68, 0
2, 109160, Note_off_c, 1, 72, 0
2, 109200, Note_off_c, 1, 55, 0
2, 109240, Note_on_c, 1, 56, 127
2, 109240, Note_on_c, 1, 62, 127
2, 109240, Note_on_c, 1, 65, 127
2, 109240, Note_on_c, 1, 70, 127
2, 109440, Note_on_c, 1, 53, 127
2, 109640, Note_on_c, 1, 50, 127
2, 109800, Note_on_c, 1, 46, 127
2, 109960, Note_off_c, 1, 46, 0
2, 109960, Note_off_c, 1, 50, 0
2, 109960, Note_off_c, 1, 53, 0
2, 109960, Note_off_c, 1, 56, 0
2, 109960, Note_off_c, 1, 62, 0
2, 110000, Note_on_c, 1, 55, 127
2, 110200, Note_on_c, 1, 58, 127
2, 110360, Note_off_c, 1, 65, 0
2, 110400, Note_on_c, 1, 63, 127
2, 110560, Note_off_c, 1, 70, 0
2, 110600, Note_on_c, 1, 72, 127
2, 110760, Note_off_c, 1, 55, 0
2, 110760, Note_off_c, 1, 58, 0
2, 110760, Note_off_c, 1, 72, 0
2, 110800, Note_on_c, 1, 53, 127
2, 110800, Note_on_c, 1, 60, 127
2, 110800, Note_on_c, 1, 68, 127
2, 110960, Note_off_c, 1, 68, 0
2, 111000, Note_on_c, 1, 72, 127
2, 111160, Note_off_c, 1, 72, 0
2, 111200, Note_on_c, 1, 65, 127
2, 111360, Note_off_c, 1, 65, 0
2, 111400, Note_on_c, 1, 67, 127
2, 111560, Note_off_c, 1, 67, 0
2, 111600, Note_on_c, 1, 68, 127
2, 111760, Note_off_c, 1, 63, 0
2, 111800, Note_on_c, 1, 65, 127
2, 111960, Note_off_c, 1, 60, 0
2, 111960, Note_off_c, 1, 65, 0
2, 112000, Note_on_c, 1, 58, 127
2, 112000, Note_on_c, 1, 62, 127
2, 112160, Note_off_c, 1, 58, 0
2, 112200, Note_on_c, 1, 56, 127
2, 112360, Note_off_c, 1, 53, 0
2, 112360, Note_off_c, 1, 56, 0
2, 112360, Note_off_c, 1, 62, 0
2, 112400, Note_on_c, 1, 51, 127
2, 112400, Note_on_c, 1, 58, 127
2, 112400, Note_on_c, 1, 63, 127
2, 112560, Note_off_c, 1, 68, 0
2, 112600, Note_on_c, 1, 68, 127
2, 112760, Note_off_c, 1, 68, 0
2, 112800, Note_on_c, 1, 67, 127
2, 112960, Note_off_c, 1, 67, 0
2, 113000, Note_on_c, 1, 65, 127
2, 113120, Note_off_c, 1, 58, 0
2, 113120, Note_off_c, 1, 63, 0
2, 113160, Note_off_c, 1, 65, 0
2, 113200, Note_on_c, 1, 58, 127
2, 113200, Note_on_c, 1, 63, 127
2, 113200, Note_on_c, 1, 67, 127
2, 113240, Note_off_c, 1, 63, 0
2, 113280, Note_on_c, 1, 62, 127
2, 113320, Note_off_c, 1, 62, 0
2, 113320, Note_on_c, 1, 63, 127
2, 113360, Note_off_c, 1, 51, 0
2, 113400, Note_on_c, 1, 53, 127
2, 113560, Note_off_c, 1, 53, 0
2, 113600, Note_on_c, 1, 46, 127
2, 113720, Note_off_c, 1, 46, 0
2, 113800, Note_on_c, 1, 48, 127
2, 113920, Note_off_c, 1, 48, 0
2, 113960, Note_on_c, 1, 49, 127
2, 114160, Note_on_c, 1, 46, 127
2, 114360, Note_on_c, 1, 43, 127
2, 114480, Note_off_c, 1, 63, 0
2, 114520, Note_off_c, 1, 58, 0
2, 114520, Note_off_c, 1, 67, 0
2, 114560, Note_on_c, 1, 39, 127
2, 114560, Note_on_c, 1, 67, 127
2, 114720, Note_off_c, 1, 39, 0
2, 114720, Note_off_c, 1, 43, 0
2, 114720, Note_off_c, 1, 46, 0
2, 114720, Note_off_c, 1, 49, 0
2, 114720, Note_off_c, 1, 67, 0
2, 114760, Note_on_c, 1, 48, 127
2, 114760, Note_on_c, 1, 63, 127
2, 114760, Note_on_c, 1, 68, 127
2, 114920, Note_off_c, 1, 68, 0
2, 114960, Note_on_c, 1, 56, 127
2, 114960, Note_on_c, 1, 70, 127
2, 115120, Note_off_c, 1, 48, 0
2, 115120, Note_off_c, 1, 70, 0
2, 115160, Note_on_c, 1, 46, 127
2, 115160, Note_on_c, 1, 72, 127
2, 115240, Note_off_c, 1, 72, 0
2, 115280, Note_on_c, 1, 70, 127
2, 115320, Note_off_c, 1, 56, 0
2, 115320, Note_off_c, 1, 70, 0
2, 115360, Note_on_c, 1, 55, 127
2, 115360, Note_on_c, 1, 68, 127
2, 115440, Note_off_c, 1, 68, 0
2, 115480, Note_on_c, 1, 70, 127
2, 115520, Note_off_c, 1, 46, 0
2, 115520, Note_off_c, 1, 55, 0
2, 115520, Note_off_c, 1, 70, 0
2, 115560, Note_on_c, 1, 44, 127
2, 115560, Note_on_c, 1, 72, 127
2, 115760, Note_on_c, 1, 70, 127
2, 115920, Note_off_c, 1, 70, 0
2, 115960, Note_on_c, 1, 68, 127
2, 116120, Note_off_c, 1, 68, 0
2, 116160, Note_on_c, 1, 51, 127
2, 116160, Note_on_c, 1, 67, 127
2, 116320, Note_off_c, 1, 44, 0
2, 116320, Note_off_c, 1, 51, 0
2, 116320, Note_off_c, 1, 67, 0
2, 116360, Note_on_c, 1, 56, 127
2, 116360, Note_on_c, 1, 68, 127
2, 116520, Note_off_c, 1, 56, 0
2, 116560, Note_on_c, 1, 58, 127
2, 116720, Note_off_c, 1, 58, 0
2, 116760, Note_on_c, 1, 51, 127
2, 116920, Note_off_c, 1, 51, 0
2, 116960, Note_on_c, 1, 53, 127
2, 117120, Note_off_c, 1, 53, 0
2, 117160, Note_on_c, 1, 54, 127
2, 117360, Note_on_c, 1, 51, 127
2, 117560, Note_on_c, 1, 48, 127
2, 117600, Note_off_c, 1, 63, 0
2, 117680, Note_off_c, 1, 68, 0
2, 117680, Note_off_c, 1, 72, 0
2, 117760, Note_on_c, 1, 44, 127
2, 117760, Note_on_c, 1, 72, 127
2, 117880, Note_off_c, 1, 44, 0
2, 117880, Note_off_c, 1, 48, 0
2, 117880, Note_off_c, 1, 51, 0
2, 117880, Note_off_c, 1, 54, 0
2, 117880, Note_off_c, 1, 72, 0
2, 117920, Note_on_c, 1, 53, 127
2, 117920, Note_on_c, 1, 68, 127
2, 117920, Note_on_c, 1, 73, 127
2, 118080, Note_off_c, 1, 73, 0
2, 118120, Note_on_c, 1, 61, 127
2, 118120, Note_on_c, 1, 72, 127
2, 118200, Note_off_c, 1, 72, 0
2, 118240, Note_on_c, 1, 73, 127
2, 118280, Note_off_c, 1, 53, 0
2, 118280, Note_off_c, 1, 73, 0
2, 118320, Note_on_c, 1, 51, 127
2, 118320, Note_on_c, 1, 75, 127
2, 118480, Note_off_c, 1, 61, 0
2, 118480, Note_off_c, 1, 75, 0
2, 118520, Note_on_c, 1, 60, 127
2, 118520, Note_on_c, 1, 73, 127
2, 118600, Note_off_c, 1, 73, 0
2, 118640, Note_on_c, 1, 75, 127
2, 118680, Note_off_c, 1, 51, 0
2, 118680, Note_off_c, 1, 60, 0
2, 118680, Note_off_c, 1, 75, 0
2, 118720, Note_on_c, 1, 49, 127
2, 118720, Note_on_c, 1, 77, 127
2, 118920, Note_on_c, 1, 75, 127
2, 119080, Note_off_c, 1, 75, 0
2, 119120, Note_on_c, 1, 73, 127
2, 119280, Note_off_c, 1, 73, 0
2, 119320, Note_on_c, 1, 56, 127
2, 119320, Note_on_c, 1, 72, 127
2, 119480, Note_off_c, 1, 49, 0
2, 119480, Note_off_c, 1, 56, 0
2, 119480, Note_off_c, 1, 72, 0
2, 119520, Note_on_c, 1, 61, 127
2, 119520, Note_on_c, 1, 73, 127
2, 119680, Note_off_c, 1, 61, 0
2, 119720, Note_on_c, 1, 65, 127
2, 119880, Note_off_c, 1, 65, 0
2, 119920, Note_on_c, 1, 58, 127
2, 120080, Note_off_c, 1, 58, 0
2, 120080, Note_off_c, 1, 73, 0
2, 120080, Note_off_c, 1, 77, 0
2, 120120, Note_on_c, 1, 60, 127
2, 120120, Note_on_c, 1, 77, 127
2, 120280, Note_off_c, 1, 60, 0
2, 120280, Note_off_c, 1, 68, 0
2, 120280, Note_off_c, 1, 77, 0
2, 120320, Note_on_c, 1, 61, 127
2, 120320, Note_on_c, 1, 75, 127
2, 120320, Note_on_c, 1, 79, 127
2, 120480, Note_off_c, 1, 79, 0
2, 120520, Note_on_c, 1, 58, 127
2, 120520, Note_on_c, 1, 80, 127
2, 120680, Note_off_c, 1, 80, 0
2, 120720, Note_on_c, 1, 55, 127
2, 120720, Note_on_c, 1, 79, 127
2, 120880, Note_off_c, 1, 79, 0
2, 120920, Note_on_c, 1, 51, 127
2, 120920, Note_on_c, 1, 80, 127
2, 121040, Note_off_c, 1, 58, 0
2, 121040, Note_off_c, 1, 61, 0
2, 121080, Note_off_c, 1, 51, 0
2, 121080, Note_off_c, 1, 55, 0
2, 121080, Note_off_c, 1, 80, 0
2, 121120, Note_on_c, 1, 60, 127
2, 121120, Note_on_c, 1, 82, 127
2, 121320, Note_on_c, 1, 63, 127
2, 121320, Note_on_c, 1, 80, 127
2, 121320, Note_off_c, 1, 82, 0
2, 121360, Note_off_c, 1, 80, 0
2, 121400, Note_on_c, 1, 82, 127
2, 121440, Note_off_c, 1, 60, 0
2, 121440, Note_off_c, 1, 82, 0
2, 121480, Note_on_c, 1, 80, 127
2, 121520, Note_on_c, 1, 58, 127
2, 121520, Note_off_c, 1, 80, 0
2, 121560, Note_on_c, 1, 82, 127
2, 121600, Note_off_c, 1, 82, 0
2, 121640, Note_off_c, 1, 58, 0
2, 121640, Note_on_c, 1, 80, 127
2, 121680, Note_off_c, 1, 80, 0
2, 121720, Note_on_c, 1, 56, 127
2, 121720, Note_on_c, 1, 79, 127
2, 121800, Note_off_c, 1, 79, 0
2, 121840, Note_off_c, 1, 56, 0
2, 121840, Note_on_c, 1, 80, 127
2, 121880, Note_on_c, 1, 55, 127
2, 121880, Note_off_c, 1, 80, 0
2, 121880, Note_on_c, 1, 82, 127
2, 122040, Note_off_c, 1, 75, 0
2, 122080, Note_on_c, 1, 80, 127
2, 122240, Note_off_c, 1, 80, 0
2, 122280, Note_on_c, 1, 79, 127
2, 122440, Note_off_c, 1, 79, 0
2, 122480, Note_on_c, 1, 56, 127
2, 122480, Note_on_c, 1, 77, 127
2, 122640, Note_off_c, 1, 56, 0
2, 122640, Note_off_c, 1, 77, 0
2, 122680, Note_on_c, 1, 58, 127
2, 122680, Note_on_c, 1, 75, 127
2, 122840, Note_off_c, 1, 75, 0
2, 122880, Note_on_c, 1, 73, 127
2, 123040, Note_off_c, 1, 63, 0
2, 123040, Note_off_c, 1, 73, 0
2, 123080, Note_on_c, 1, 63, 127
2, 123080, Note_on_c, 1, 72, 127
2, 123240, Note_off_c, 1, 72, 0
2, 123280, Note_on_c, 1, 70, 127
2, 123440, Note_off_c, 1, 55, 0
2, 123440, Note_off_c, 1, 58, 0
2, 123440, Note_off_c, 1, 70, 0
2, 123480, Note_on_c, 1, 56, 127
2, 123480, Note_on_c, 1, 72, 127
2, 123640, Note_off_c, 1, 82, 0
2, 123680, Note_on_c, 1, 75, 127
2, 123840, Note_off_c, 1, 56, 0
2, 123840, Note_off_c, 1, 75, 0
2, 123880, Note_on_c, 1, 60, 127
2, 123880, Note_on_c, 1, 80, 127
2, 124040, Note_off_c, 1, 60, 0
2, 124040, Note_off_c, 1, 72, 0
2, 124080, Note_on_c, 1, 56, 127
2, 124080, Note_on_c, 1, 72, 127
2, 124240, Note_off_c, 1, 56, 0
2, 124240, Note_off_c, 1, 63, 0
2, 124240, Note_off_c, 1, 72, 0
2, 124240, Note_off_c, 1, 80, 0
2, 124280, Note_on_c, 1, 63, 127
2, 124280, Note_on_c, 1, 70, 127
2, 124480, Note_on_c, 1, 73, 127
2, 124680, Note_on_c, 1, 51, 127
2, 124680, Note_on_c, 1, 80, 127
2, 124840, Note_off_c, 1, 80, 0
2, 124880, Note_on_c, 1, 79, 127
2, 125000, Note_off_c, 1, 70, 0
2, 125000, Note_off_c, 1, 73, 0
2, 125040, Note_off_c, 1, 51, 0
2, 125080, Note_on_c, 1, 56, 127
2, 125080, Note_on_c, 1, 72, 127
2, 125240, Note_off_c, 1, 63, 0
2, 125240, Note_off_c, 1, 79, 0
2, 125280, Note_on_c, 1, 63, 127
2, 125280, Note_on_c, 1, 79, 127
2, 125440, Note_off_c, 1, 63, 0
2, 125440, Note_off_c, 1, 79, 0
2, 125480, Note_on_c, 1, 65, 127
2, 125480, Note_on_c, 1, 77, 127
2, 125600, Note_off_c, 1, 65, 0
2, 125600, Note_off_c, 1, 77, 0
2, 125680, Note_on_c, 1, 67, 127
2, 125680, Note_on_c, 1, 75, 127
2, 125800, Note_off_c, 1, 67, 0
2, 125800, Note_off_c, 1, 75, 0
2, 125840, Note_on_c, 1, 68, 127
2, 125840, Note_on_c, 1, 77, 127
2, 126000, Note_off_c, 1, 77, 0
2, 126040, Note_on_c, 1, 80, 127
2, 126200, Note_off_c, 1, 56, 0
2, 126200, Note_off_c, 1, 72, 0
2, 126200, Note_off_c, 1, 80, 0
2, 126240, Note_on_c, 1, 56, 127
2, 126240, Note_on_c, 1, 72, 127
2, 126400, Note_off_c, 1, 68, 0
2, 126400, Note_off_c, 1, 72, 0
2, 126440, Note_on_c, 1, 67, 127
2, 126440, Note_on_c, 1, 74, 127
2, 126600, Note_off_c, 1, 56, 0
2, 126600, Note_off_c, 1, 67, 0
2, 126600, Note_off_c, 1, 74, 0
2, 126640, Note_on_c, 1, 57, 127
2, 126640, Note_on_c, 1, 75, 127
2, 126840, Note_on_c, 1, 72, 127
2, 127040, Note_on_c, 1, 69, 127
2, 127240, Note_on_c, 1, 65, 127
2, 127400, Note_off_c, 1, 75, 0
2, 127440, Note_on_c, 1, 75, 127
2, 127600, Note_off_c, 1, 57, 0
2, 127640, Note_on_c, 1, 53, 127
2, 127800, Note_off_c, 1, 53, 0
2, 127840, Note_on_c, 1, 55, 127
2, 128000, Note_off_c, 1, 55, 0
2, 128000, Note_off_c, 1, 75, 0
2, 128040, Note_on_c, 1, 57, 127
2, 128040, Note_on_c, 1, 77, 127
2, 128200, Note_off_c, 1, 57, 0
2, 128200, Note_off_c, 1, 69, 0
2, 128200, Note_off_c, 1, 72, 0
2, 128200, Note_off_c, 1, 77, 0
2, 128240, Note_on_c, 1, 58, 127
2, 128240, Note_on_c, 1, 74, 127
2, 128440, Note_on_c, 1, 72, 127
2, 128600, Note_off_c, 1, 72, 0
2, 128640, Note_on_c, 1, 70, 127
2, 128800, Note_off_c, 1, 70, 0
2, 128840, Note_on_c, 1, 69, 127
2, 129000, Note_off_c, 1, 69, 0
2, 129040, Note_on_c, 1, 70, 127
2, 129200, Note_off_c, 1, 58, 0
2, 129240, Note_on_c, 1, 60, 127
2, 129400, Note_off_c, 1, 60, 0
2, 129440, Note_on_c, 1, 53, 127
2, 129560, Note_off_c, 1, 53, 0
2, 129640, Note_on_c, 1, 55, 127
2, 129760, Note_off_c, 1, 55, 0
2, 129800, Note_on_c, 1, 56, 127
2, 130000, Note_on_c, 1, 53, 127
2, 130200, Note_on_c, 1, 50, 127
2, 130400, Note_on_c, 1, 46, 127
2, 130520, Note_off_c, 1, 65, 0
2, 130560, Note_off_c, 1, 46, 0
2, 130560, Note_off_c, 1, 50, 0
2, 130560, Note_off_c, 1, 53, 0
2, 130560, Note_off_c, 1, 56, 0
2, 130560, Note_off_c, 1, 70, 0
2, 130560, Note_off_c, 1, 74, 0
2, 130600, Note_on_c, 1, 55, 127
2, 130600, Note_on_c, 1, 70, 127
2, 130600, Note_on_c, 1, 73, 127
2, 130680, Note_off_c, 1, 73, 0
2, 130720, Note_on_c, 1, 72, 127
2, 130760, Note_off_c, 1, 72, 0
2, 130800, Note_on_c, 1, 58, 127
2, 130800, Note_on_c, 1, 73, 127
2, 131000, Note_on_c, 1, 63, 127
2, 131160, Note_off_c, 1, 73, 0
2, 131200, Note_on_c, 1, 75, 127
2, 131360, Note_off_c, 1, 55, 0
2, 131360, Note_off_c, 1, 58, 0
2, 131360, Note_off_c, 1, 75, 0
2, 131400, Note_on_c, 1, 56, 127
2, 131400, Note_on_c, 1, 72, 127
2, 131560, Note_off_c, 1, 70, 0
2, 131600, Note_on_c, 1, 70, 127
2, 131760, Note_off_c, 1, 56, 0
2, 131760, Note_off_c, 1, 70, 0
2, 131800, Note_on_c, 1, 55, 127
2, 131800, Note_on_c, 1, 68, 127
2, 131960, Note_off_c, 1, 68, 0
2, 132000, Note_on_c, 1, 67, 127
2, 132160, Note_off_c, 1, 55, 0
2, 132160, Note_off_c, 1, 63, 0
2, 132160, Note_off_c, 1, 67, 0
2, 132160, Note_off_c, 1, 72, 0
2, 132200, Note_on_c, 1, 53, 127
2, 132200, Note_on_c, 1, 68, 127
2, 132360, Note_off_c, 1, 68, 0
2, 132400, Note_on_c, 1, 72, 127
2, 132560, Note_off_c, 1, 53, 0
2, 132560, Note_off_c, 1, 72, 0
2, 132600, Note_on_c, 1, 51, 127
2, 132600, Note_on_c, 1, 65, 127
2, 132760, Note_off_c, 1, 65, 0
2, 132800, Note_on_c, 1, 67, 127
2, 132960, Note_off_c, 1, 51, 0
2, 132960, Note_off_c, 1, 67, 0
2, 133000, Note_on_c, 1, 50, 127
2, 133000, Note_on_c, 1, 68, 127
2, 133200, Note_on_c, 1, 65, 127
2, 133360, Note_off_c, 1, 50, 0
2, 133400, Note_on_c, 1, 46, 127
2, 133400, Note_on_c, 1, 62, 127
2, 133600, Note_on_c, 1, 58, 127
2, 133720, Note_off_c, 1, 46, 0
2, 133720, Note_off_c, 1, 58, 0
2, 133720, Note_off_c, 1, 62, 0
2, 133720, Note_off_c, 1, 65, 0
2, 133720, Note_off_c, 1, 68, 0
2, 133800, Note_on_c, 1, 51, 127
2, 133800, Note_on_c, 1, 67, 127
2, 133960, Note_on_c, 1, 58, 127
2, 134120, Note_off_c, 1, 58, 0
2, 134160, Note_on_c, 1, 39, 127
2, 134160, Note_on_c, 1, 63, 127
2, 134320, Note_off_c, 1, 67, 0
2, 134360, Note_on_c, 1, 67, 127
2, 134520, Note_off_c, 1, 39, 0
2, 134520, Note_off_c, 1, 63, 0
2, 134560, Note_on_c, 1, 44, 127
2, 134560, Note_on_c, 1, 60, 127
2, 134720, Note_off_c, 1, 51, 0
2, 134720, Note_off_c, 1, 67, 0
2, 134760, Note_on_c, 1, 51, 127
2, 134760, Note_on_c, 1, 67, 127
2, 134920, Note_off_c, 1, 51, 0
2, 134920, Note_off_c, 1, 67, 0
2, 134960, Note_on_c, 1, 53, 127
2, 134960, Note_on_c, 1, 65, 127
2, 135120, Note_off_c, 1, 53, 0
2, 135120, Note_off_c, 1, 65, 0
2, 135160, Note_on_c, 1, 55, 127
2, 135160, Note_on_c, 1, 63, 127
2, 135320, Note_off_c, 1, 55, 0
2, 135320, Note_off_c, 1, 63, 0
2, 135360, Note_on_c, 1, 56, 127
2, 135360, Note_on_c, 1, 65, 127
2, 135520, Note_off_c, 1, 65, 0
2, 135560, Note_on_c, 1, 68, 127
2, 135720, Note_off_c, 1, 44, 0
2, 135720, Note_off_c, 1, 60, 0
2, 135720, Note_off_c, 1, 68, 0
2, 135760, Note_on_c, 1, 44, 127
2, 135760, Note_on_c, 1, 60, 127
2, 135920, Note_off_c, 1, 56, 0
2, 135920, Note_off_c, 1, 60, 0
2, 135960, Note_on_c, 1, 58, 127
2, 135960, Note_on_c, 1, 62, 127
2, 136120, Note_off_c, 1, 44, 0
2, 136120, Note_off_c, 1, 58, 0
2, 136120, Note_off_c, 1, 62, 0
2, 136160, Note_on_c, 1, 45, 127
2, 136160, Note_on_c, 1, 63, 127
2, 136360, Note_on_c, 1, 60, 127
2, 136560, Note_on_c, 1, 57, 127
2, 136760, Note_on_c, 1, 53, 127
2, 136920, Note_off_c, 1, 63, 0
2, 136960, Note_on_c, 1, 63, 127
2, 137120, Note_off_c, 1, 45, 0
2, 137160, Note_on_c, 1, 41, 127
2, 137320, Note_off_c, 1, 41, 0
2, 137360, Note_on_c, 1, 43, 127
2, 137520, Note_off_c, 1, 43, 0
2, 137520, Note_off_c, 1, 63, 0
2, 137560, Note_on_c, 1, 45, 127
2, 137560, Note_on_c, 1, 65, 127
2, 137680, Note_off_c, 1, 45, 0
2, 137680, Note_off_c, 1, 57, 0
2, 137680, Note_off_c, 1, 60, 0
2, 137680, Note_off_c, 1, 65, 0
2, 137720, Note_off_c, 1, 53, 0
2, 137760, Note_on_c, 1, 34, 127
2, 137760, Note_on_c, 1, 63, 127
2, 137840, Note_off_c, 1, 63, 0
2, 137880, Note_off_c, 1, 34, 0
2, 137880, Note_on_c, 1, 62, 127
2, 137920, Note_on_c, 1, 46, 127
2, 137920, Note_off_c, 1, 62, 0
2, 137920, Note_on_c, 1, 63, 127
2, 137960, Note_off_c, 1, 63, 0
2, 138000, Note_on_c, 1, 62, 127
2, 138040, Note_off_c, 1, 62, 0
2, 138080, Note_on_c, 1, 63, 127
2, 138120, Note_on_c, 1, 50, 127
2, 138120, Note_on_c, 1, 62, 127
2, 138120, Note_off_c, 1, 63, 0
2, 138320, Note_on_c, 1, 53, 127
2, 138480, Note_off_c, 1, 62, 0
2, 138520, Note_on_c, 1, 58, 127
2, 138720, Note_on_c, 1, 62, 127
2, 138880, Note_off_c, 1, 62, 0
2, 138920, Note_on_c, 1, 65, 127
2, 139080, Note_off_c, 1, 65, 0
2, 139120, Note_on_c, 1, 70, 127
2, 139280, Note_off_c, 1, 50, 0
2, 139280, Note_off_c, 1, 53, 0
2, 139280, Note_off_c, 1, 58, 0
2, 139320, Note_on_c, 1, 51, 127
2, 139320, Note_on_c, 1, 60, 127
2, 139480, Note_off_c, 1, 70, 0
2, 139520, Note_on_c, 1, 70, 127
2, 139680, Note_off_c, 1, 70, 0
2, 139720, Note_on_c, 1, 69, 127
2, 139880, Note_off_c, 1, 69, 0
2, 139920, Note_on_c, 1, 67, 127
2, 140080, Note_off_c, 1, 67, 0
2, 140120, Note_on_c, 1, 69, 127
2, 140280, Note_off_c, 1, 69, 0
2, 140320, Note_on_c, 1, 72, 127
2, 140480, Note_off_c, 1, 72, 0
2, 140520, Note_on_c, 1, 65, 127
2, 140680, Note_off_c, 1, 65, 0
2, 140720, Note_on_c, 1, 67, 127
2, 140880, Note_off_c, 1, 51, 0
2, 140880, Note_off_c, 1, 60, 0
2, 140880, Note_off_c, 1, 67, 0
2, 140920, Note_on_c, 1, 53, 127
2, 140920, Note_on_c, 1, 68, 127
2, 141120, Note_on_c, 1, 65, 127
2, 141320, Note_on_c, 1, 62, 127
2, 141520, Note_on_c, 1, 58, 127
2, 141560, Note_off_c, 1, 62, 0
2, 141640, Note_off_c, 1, 53, 0
2, 141680, Note_on_c, 1, 55, 127
2, 141840, Note_off_c, 1, 58, 0
2, 141880, Note_on_c, 1, 58, 127
2, 142040, Note_off_c, 1, 65, 0
2, 142040, Note_off_c, 1, 68, 0
2, 142080, Note_on_c, 1, 63, 127
2, 142080, Note_on_c, 1, 67, 127
2, 142240, Note_off_c, 1, 55, 0
2, 142280, Note_on_c, 1, 57, 127
2, 142440, Note_off_c, 1, 57, 0
2, 142440, Note_off_c, 1, 58, 0
2, 142440, Note_off_c, 1, 67, 0
2, 142480, Note_on_c, 1, 58, 127
2, 142480, Note_on_c, 1, 65, 127
2, 142640, Note_off_c, 1, 63, 0
2, 142680, Note_on_c, 1, 63, 127
2, 142840, Note_off_c, 1, 63, 0
2, 142880, Note_on_c, 1, 62, 127
2, 143040, Note_off_c, 1, 62, 0
2, 143080, Note_on_c, 1, 60, 127
2, 143240, Note_off_c, 1, 60, 0
2, 143280, Note_on_c, 1, 62, 127
2, 143440, Note_off_c, 1, 58, 0
2, 143480, Note_on_c, 1, 60, 127
2, 143640, Note_off_c, 1, 60, 0
2, 143680, Note_on_c, 1, 53, 127
2, 143840, Note_off_c, 1, 53, 0
2, 143880, Note_on_c, 1, 55, 127
2, 144040, Note_off_c, 1, 55, 0
2, 144080, Note_on_c, 1, 56, 127
2, 144240, Note_off_c, 1, 56, 0
2, 144280, Note_on_c, 1, 53, 127
2, 144480, Note_off_c, 1, 46, 0
2, 144480, Note_on_c, 1, 50, 127
2, 144680, Note_on_c, 1, 46, 127
2, 144800, Note_off_c, 1, 53, 0
2, 144840, Note_off_c, 1, 50, 0
2, 144880, Note_on_c, 1, 55, 127
2, 145040, Note_off_c, 1, 62, 0
2, 145080, Note_on_c, 1, 58, 127
2, 145160, Note_off_c, 1, 65, 0
2, 145240, Note_off_c, 1, 55, 0
2, 145280, Note_on_c, 1, 54, 127
2, 145280, Note_on_c, 1, 63, 127
2, 145400, Note_off_c, 1, 58, 0
2, 145480, Note_on_c, 1, 57, 127
2, 145600, Note_off_c, 1, 54, 0
2, 145600, Note_off_c, 1, 57, 0
2, 145680, Note_on_c, 1, 53, 127
2, 145680, Note_on_c, 1, 58, 127
2, 145720, Note_off_c, 1, 63, 0
2, 145760, Note_on_c, 1, 65, 127
2, 145840, Note_off_c, 1, 65, 0
2, 145880, Note_on_c, 1, 67, 127
2, 145920, Note_off_c, 1, 67, 0
2, 145960, Note_on_c, 1, 68, 127
2, 146000, Note_off_c, 1, 53, 0
2, 146040, Note_off_c, 1, 68, 0
2, 146080, Note_on_c, 1, 51, 127
2, 146080, Note_on_c, 1, 67, 127
2, 146120, Note_off_c, 1, 67, 0
2, 146160, Note_on_c, 1, 65, 127
2, 146240, Note_off_c, 1, 65, 0
2, 146280, Note_on_c, 1, 67, 127
2, 146320, Note_off_c, 1, 67, 0
2, 146360, Note_on_c, 1, 68, 127
2, 146440, Note_off_c, 1, 51, 0
2, 146440, Note_off_c, 1, 68, 0
2, 146480, Note_on_c, 1, 53, 127
2, 146480, Note_on_c, 1, 63, 127
2, 146560, Note_off_c, 1, 63, 0
2, 146600, Note_on_c, 1, 62, 127
2, 146640, Note_off_c, 1, 53, 0
2, 146640, Note_off_c, 1, 62, 0
2, 146680, Note_on_c, 1, 55, 127
2, 146680, Note_on_c, 1, 63, 127
2, 146720, Note_on_c, 1, 62, 127
2, 146720, Note_off_c, 1, 63, 0
2, 146760, Note_off_c, 1, 62, 0
2, 146800, Note_on_c, 1, 63, 127
2, 146840, Note_off_c, 1, 55, 0
2, 146840, Note_off_c, 1, 63, 0
2, 146880, Note_on_c, 1, 56, 127
2, 146880, Note_on_c, 1, 62, 127
2, 147000, Note_off_c, 1, 62, 0
2, 147080, Note_on_c, 1, 63, 127
2, 147120, Note_off_c, 1, 46, 0
2, 147200, Note_off_c, 1, 63, 0
2, 147240, Note_on_c, 1, 51, 127
2, 147240, Note_on_c, 1, 63, 127
2, 147400, Note_off_c, 1, 58, 0
2, 147440, Note_on_c, 1, 58, 127
2, 147600, Note_off_c, 1, 56, 0
2, 147600, Note_off_c, 1, 58, 0
2, 147640, Note_on_c, 1, 55, 127
2, 147640, Note_on_c, 1, 60, 127
2, 147800, Note_off_c, 1, 60, 0
2, 147840, Note_on_c, 1, 61, 127
2, 148000, Note_off_c, 1, 61, 0
2, 148040, Note_on_c, 1, 60, 127
2, 148200, Note_off_c, 1, 55, 0
2, 148240, Note_on_c, 1, 56, 127
2, 148400, Note_off_c, 1, 56, 0
2, 148440, Note_on_c, 1, 53, 127
2, 148600, Note_off_c, 1, 60, 0
2, 148600, Note_off_c, 1, 63, 0
2, 148640, Note_on_c, 1, 56, 127
2, 148640, Note_on_c, 1, 59, 127
2, 148640, Note_on_c, 1, 62, 127
2, 148800, Note_off_c, 1, 51, 0
2, 148800, Note_off_c, 1, 53, 0
2, 148800, Note_off_c, 1, 56, 0
2, 148800, Note_off_c, 1, 59, 0
2, 148800, Note_off_c, 1, 62, 0
2, 148840, Note_on_c, 1, 51, 127
2, 148840, Note_on_c, 1, 55, 127
2, 148840, Note_on_c, 1, 58, 127
2, 148840, Note_on_c, 1, 63, 127
2, 149040, Note_on_c, 1, 39, 127
2, 149240, Note_on_c, 1, 43, 127
2, 149400, Note_off_c, 1, 43, 0
2, 149440, Note_on_c, 1, 46, 127
2, 149600, Note_off_c, 1, 51, 0
2, 149640, Note_on_c, 1, 51, 127
2, 150160, Note_off_c, 1, 55, 0
2, 150160, Note_off_c, 1, 58, 0
2, 150160, Note_off_c, 1, 63, 0
2, 150240, Note_on_c, 1, 70, 127
2, 150360, Note_off_c, 1, 46, 0
2, 150360, Note_off_c, 1, 51, 0
2, 150400, Note_off_c, 1, 39, 0
2, 150400, Note_off_c, 1, 70, 0
2, 150440, Note_on_c, 1, 70, 127
2, 150640, Note_on_c, 1, 51, 127
2, 150840, Note_on_c, 1, 55, 127
2, 151040, Note_on_c, 1, 58, 127
2, 151200, Note_on_c, 1, 63, 127
2, 151400, Note_on_c, 1, 67, 127
2, 151560, Note_off_c, 1, 70, 0
2, 151600, Note_on_c, 1, 70, 127
2, 151800, Note_on_c, 1, 75, 127
2, 151960, Note_off_c, 1, 55, 0
2, 151960, Note_off_c, 1, 58, 0
2, 151960, Note_off_c, 1, 63, 0
2, 151960, Note_off_c, 1, 67, 0
2, 151960, Note_off_c, 1, 70, 0
2, 151960, Note_off_c, 1, 75, 0
2, 152000, Note_on_c, 1, 60, 127
2, 152000, Note_on_c, 1, 65, 127
2, 152000, Note_on_c, 1, 70, 127
2, 152120, Note_off_c, 1, 70, 0
2, 152160, Note_off_c, 1, 51, 0
2, 152160, Note_on_c, 1, 69, 127
2, 152200, Note_on_c, 1, 54, 127
2, 152200, Note_off_c, 1, 69, 0
2, 152200, Note_on_c, 1, 70, 127
2, 152240, Note_off_c, 1, 70, 0
2, 152280, Note_on_c, 1, 69, 127
2, 152320, Note_off_c, 1, 69, 0
2, 152360, Note_off_c, 1, 54, 0
2, 152360, Note_on_c, 1, 70, 127
2, 152400, Note_on_c, 1, 48, 127
2, 152400, Note_on_c, 1, 69, 127
2, 152400, Note_off_c, 1, 70, 0
2, 152440, Note_off_c, 1, 69, 0
2, 152480, Note_on_c, 1, 70, 127
2, 152520, Note_on_c, 1, 69, 127
2, 152520, Note_off_c, 1, 70, 0
2, 152560, Note_off_c, 1, 48, 0
2, 152600, Note_on_c, 1, 51, 127
2, 152760, Note_off_c, 1, 51, 0
2, 152800, Note_on_c, 1, 45, 127
2, 152960, Note_off_c, 1, 45, 0
2, 153000, Note_on_c, 1, 48, 127
2, 153160, Note_off_c, 1, 48, 0
2, 153200, Note_on_c, 1, 41, 127
2, 153360, Note_off_c, 1, 41, 0
2, 153400, Note_on_c, 1, 51, 127
2, 153560, Note_off_c, 1, 51, 0
2, 153600, Note_on_c, 1, 49, 127
2, 153680, Note_off_c, 1, 69, 0
2, 153800, Note_on_c, 1, 53, 127
2, 154000, Note_on_c, 1, 57, 127
2, 154160, Note_off_c, 1, 65, 0
2, 154200, Note_on_c, 1, 63, 127
2, 154320, Note_off_c, 1, 53, 0
2, 154360, Note_off_c, 1, 57, 0
2, 154360, Note_off_c, 1, 60, 0
2, 154360, Note_off_c, 1, 63, 0
2, 154400, Note_on_c, 1, 58, 127
2, 154400, Note_on_c, 1, 61, 127
2, 154600, Note_on_c, 1, 65, 127
2, 154760, Note_off_c, 1, 49, 0
2, 154800, Note_on_c, 1, 49, 127
2, 154800, Note_on_c, 1, 53, 127
2, 154800, Note_on_c, 1, 70, 127
2, 155000, Note_on_c, 1, 73, 127
2, 155120, Note_off_c, 1, 49, 0
2, 155120, Note_off_c, 1, 53, 0
2, 155120, Note_off_c, 1, 61, 0
2, 155120, Note_off_c, 1, 65, 0
2, 155120, Note_off_c, 1, 70, 0
2, 155120, Note_off_c, 1, 73, 0
2, 155160, Note_on_c, 1, 48, 127
2, 155160, Note_on_c, 1, 54, 127
2, 155160, Note_on_c, 1, 75, 127
2, 155320, Note_off_c, 1, 75, 0
2, 155360, Note_on_c, 1, 78, 127
2, 155520, Note_off_c, 1, 54, 0
2, 155520, Note_off_c, 1, 58, 0
2, 155520, Note_off_c, 1, 78, 0
2, 155560, Note_on_c, 1, 51, 127
2, 155560, Note_on_c, 1, 54, 127
2, 155560, Note_on_c, 1, 72, 127
2, 155720, Note_off_c, 1, 72, 0
2, 155760, Note_on_c, 1, 75, 127
2, 155920, Note_off_c, 1, 48, 0
2, 155920, Note_off_c, 1, 51, 0
2, 155920, Note_off_c, 1, 54, 0
2, 155920, Note_off_c, 1, 75, 0
2, 155960, Note_on_c, 1, 53, 127
2, 155960, Note_on_c, 1, 69, 127
2, 156120, Note_off_c, 1, 69, 0
2, 156160, Note_on_c, 1, 72, 127
2, 156320, Note_off_c, 1, 72, 0
2, 156360, Note_on_c, 1, 41, 127
2, 156360, Note_on_c, 1, 65, 127
2, 156560, Note_on_c, 1, 75, 127
2, 156720, Note_off_c, 1, 41, 0
2, 156720, Note_off_c, 1, 53, 0
2, 156720, Note_off_c, 1, 75, 0
2, 156760, Note_on_c, 1, 46, 127
2, 156760, Note_on_c, 1, 73, 127
2, 156920, Note_off_c, 1, 65, 0
2, 156960, Note_on_c, 1, 65, 127
2, 157120, Note_off_c, 1, 65, 0
2, 157160, Note_on_c, 1, 67, 127
2, 157320, Note_off_c, 1, 67, 0
2, 157360, Note_on_c, 1, 69, 127
2, 157520, Note_off_c, 1, 69, 0
2, 157520, Note_off_c, 1, 73, 0
2, 157560, Note_on_c, 1, 70, 127
2, 157760, Note_on_c, 1, 73, 127
2, 157920, Note_off_c, 1, 73, 0
2, 157960, Note_on_c, 1, 66, 127
2, 158120, Note_off_c, 1, 70, 0
2, 158160, Note_on_c, 1, 70, 127
2, 158320, Note_off_c, 1, 66, 0
2, 158320, Note_off_c, 1, 70, 0
2, 158360, Note_on_c, 1, 64, 127
2, 158360, Note_on_c, 1, 67, 127
2, 158360, Note_on_c, 1, 72, 127
2, 158520, Note_off_c, 1, 46, 0
2, 158560, Note_on_c, 1, 49, 127
2, 158720, Note_off_c, 1, 49, 0
2, 158760, Note_on_c, 1, 43, 127
2, 158880, Note_off_c, 1, 43, 0
2, 158960, Note_on_c, 1, 46, 127
2, 159080, Note_off_c, 1, 46, 0
2, 159120, Note_on_c, 1, 40, 127
2, 159280, Note_off_c, 1, 40, 0
2, 159320, Note_on_c, 1, 43, 127
2, 159480, Note_off_c, 1, 43, 0
2, 159520, Note_on_c, 1, 36, 127
2, 159680, Note_off_c, 1, 36, 0
2, 159720, Note_on_c, 1, 46, 127
2, 159880, Note_off_c, 1, 46, 0
2, 159880, Note_off_c, 1, 64, 0
2, 159880, Note_off_c, 1, 67, 0
2, 159920, Note_on_c, 1, 44, 127
2, 159920, Note_on_c, 1, 65, 127
2, 159920, Note_on_c, 1, 68, 127
2, 160120, Note_on_c, 1, 48, 127
2, 160320, Note_on_c, 1, 53, 127
2, 160520, Note_on_c, 1, 56, 127
2, 160680, Note_off_c, 1, 48, 0
2, 160680, Note_off_c, 1, 53, 0
2, 160680, Note_off_c, 1, 56, 0
2, 160680, Note_off_c, 1, 65, 0
2, 160680, Note_off_c, 1, 68, 0
2, 160680, Note_off_c, 1, 72, 0
2, 160720, Note_on_c, 1, 50, 127
2, 160720, Note_on_c, 1, 58, 127
2, 160920, Note_on_c, 1, 62, 127
2, 161080, Note_off_c, 1, 44, 0
2, 161080, Note_off_c, 1, 50, 0
2, 161120, Note_on_c, 1, 44, 127
2, 161120, Note_on_c, 1, 65, 127
2, 161320, Note_on_c, 1, 70, 127
2, 161440, Note_off_c, 1, 62, 0
2, 161480, Note_off_c, 1, 44, 0
2, 161480, Note_off_c, 1, 58, 0
2, 161480, Note_off_c, 1, 65, 0
2, 161520, Note_on_c, 1, 43, 127
2, 161520, Note_on_c, 1, 64, 127
2, 161680, Note_off_c, 1, 43, 0
2, 161680, Note_off_c, 1, 70, 0
2, 161720, Note_on_c, 1, 48, 127
2, 161720, Note_on_c, 1, 67, 127
2, 161880, Note_off_c, 1, 48, 0
2, 161880, Note_off_c, 1, 64, 0
2, 161880, Note_off_c, 1, 67, 0
2, 161920, Note_on_c, 1, 50, 127
2, 161920, Note_on_c, 1, 72, 127
2, 162080, Note_off_c, 1, 50, 0
2, 162080, Note_off_c, 1, 72, 0
2, 162120, Note_on_c, 1, 52, 127
2, 162120, Note_on_c, 1, 70, 127
2, 162280, Note_off_c, 1, 52, 0
2, 162280, Note_off_c, 1, 70, 0
2, 162320, Note_on_c, 1, 53, 127
2, 162320, Note_on_c, 1, 68, 127
2, 162480, Note_off_c, 1, 53, 0
2, 162520, Note_on_c, 1, 52, 127
2, 162520, Note_on_c, 1, 65, 127
2, 162640, Note_off_c, 1, 68, 0
2, 162680, Note_off_c, 1, 52, 0
2, 162720, Note_on_c, 1, 53, 127
2, 162720, Note_on_c, 1, 73, 127
2, 162840, Note_off_c, 1, 53, 0
2, 162840, Note_off_c, 1, 65, 0
2, 162920, Note_on_c, 1, 55, 127
2, 162920, Note_on_c, 1, 64, 127
2, 163040, Note_off_c, 1, 55, 0
2, 163040, Note_off_c, 1, 64, 0
2, 163040, Note_off_c, 1, 73, 0
2, 163080, Note_on_c, 1, 56, 127
2, 163080, Note_on_c, 1, 72, 127
2, 163240, Note_off_c, 1, 56, 0
2, 163280, Note_on_c, 1, 55, 127
2, 163280, Note_on_c, 1, 64, 127
2, 163440, Note_off_c, 1, 55, 0
2, 163440, Note_off_c, 1, 64, 0
2, 163480, Note_on_c, 1, 56, 127
2, 163480, Note_on_c, 1, 65, 127
2, 163640, Note_off_c, 1, 56, 0
2, 163640, Note_off_c, 1, 72, 0
2, 163680, Note_on_c, 1, 58, 127
2, 163680, Note_on_c, 1, 67, 127
2, 163840, Note_off_c, 1, 58, 0
2, 163840, Note_off_c, 1, 67, 0
2, 163880, Note_on_c, 1, 60, 127
2, 163880, Note_on_c, 1, 68, 127
2, 164040, Note_off_c, 1, 65, 0
2, 164080, Note_on_c, 1, 65, 127
2, 164240, Note_off_c, 1, 60, 0
2, 164240, Note_off_c, 1, 68, 0
2, 164280, Note_on_c, 1, 48, 127
2, 164280, Note_on_c, 1, 67, 127
2, 164440, Note_off_c, 1, 65, 0
2, 164480, Note_on_c, 1, 64, 127
2, 164640, Note_off_c, 1, 48, 0
2, 164640, Note_off_c, 1, 64, 0
2, 164640, Note_off_c, 1, 67, 0
2, 164680, Note_on_c, 1, 53, 127
2, 164680, Note_on_c, 1, 65, 127
2, 164880, Note_on_c, 1, 56, 127
2, 164880, Note_off_c, 1, 65, 0
2, 164880, Note_on_c, 1, 72, 127
2, 165040, Note_off_c, 1, 56, 0
2, 165040, Note_off_c, 1, 72, 0
2, 165080, Note_on_c, 1, 60, 127
2, 165080, Note_on_c, 1, 77, 127
2, 165240, Note_off_c, 1, 60, 0
2, 165240, Note_off_c, 1, 77, 0
2, 165280, Note_on_c, 1, 64, 127
2, 165280, Note_on_c, 1, 79, 127
2, 165440, Note_off_c, 1, 53, 0
2, 165440, Note_off_c, 1, 64, 0
2, 165440, Note_off_c, 1, 79, 0
2, 165480, Note_on_c, 1, 65, 127
2, 165480, Note_on_c, 1, 80, 127
2, 165560, Note_off_c, 1, 80, 0
2, 165600, Note_on_c, 1, 79, 127
2, 165640, Note_off_c, 1, 65, 0
2, 165640, Note_off_c, 1, 79, 0
2, 165680, Note_on_c, 1, 68, 127
2, 165680, Note_on_c, 1, 80, 127
2, 165840, Note_off_c, 1, 68, 0
2, 165880, Note_on_c, 1, 53, 127
2, 165880, Note_on_c, 1, 61, 127
2, 166040, Note_off_c, 1, 61, 0
2, 166040, Note_off_c, 1, 80, 0
2, 166080, Note_on_c, 1, 65, 127
2, 166080, Note_on_c, 1, 80, 127
2, 166240, Note_off_c, 1, 53, 0
2, 166240, Note_off_c, 1, 65, 0
2, 166240, Note_off_c, 1, 80, 0
2, 166280, Note_on_c, 1, 55, 127
2, 166280, Note_on_c, 1, 59, 127
2, 166280, Note_on_c, 1, 80, 127
2, 166440, Note_off_c, 1, 80, 0
2, 166480, Note_on_c, 1, 77, 127
2, 166640, Note_off_c, 1, 77, 0
2, 166680, Note_on_c, 1, 74, 127
2, 166840, Note_off_c, 1, 74, 0
2, 166880, Note_on_c, 1, 77, 127
2, 167040, Note_off_c, 1, 59, 0
2, 167040, Note_off_c, 1, 77, 0
2, 167080, Note_on_c, 1, 71, 127
2, 167240, Note_off_c, 1, 55, 0
2, 167240, Note_off_c, 1, 71, 0
2, 167280, Note_on_c, 1, 55, 127
2, 167280, Note_on_c, 1, 74, 127
2, 167440, Note_off_c, 1, 55, 0
2, 167440, Note_off_c, 1, 74, 0
2, 167480, Note_on_c, 1, 57, 127
2, 167480, Note_on_c, 1, 67, 127
2, 167640, Note_off_c, 1, 57, 0
2, 167640, Note_off_c, 1, 67, 0
2, 167680, Note_on_c, 1, 59, 127
2, 167680, Note_on_c, 1, 77, 127
2, 167840, Note_off_c, 1, 59, 0
2, 167840, Note_off_c, 1, 77, 0
2, 167880, Note_on_c, 1, 60, 127
2, 167880, Note_on_c, 1, 75, 127
2, 168040, Note_off_c, 1, 60, 0
2, 168080, Note_on_c, 1, 63, 127
2, 168080, Note_on_c, 1, 74, 127
2, 168240, Note_off_c, 1, 63, 0
2, 168240, Note_off_c, 1, 74, 0
2, 168280, Note_on_c, 1, 56, 127
2, 168280, Note_on_c, 1, 72, 127
2, 168400, Note_off_c, 1, 56, 0
2, 168400, Note_off_c, 1, 72, 0
2, 168480, Note_on_c, 1, 60, 127
2, 168480, Note_on_c, 1, 70, 127
2, 168600, Note_off_c, 1, 60, 0
2, 168600, Note_off_c, 1, 70, 0
2, 168640, Note_on_c, 1, 53, 127
2, 168640, Note_on_c, 1, 68, 127
2, 168800, Note_off_c, 1, 53, 0
2, 168800, Note_off_c, 1, 75, 0
2, 168840, Note_on_c, 1, 56, 127
2, 168840, Note_on_c, 1, 75, 127
2, 169000, Note_off_c, 1, 56, 0
2, 169000, Note_off_c, 1, 75, 0
2, 169040, Note_on_c, 1, 50, 127
2, 169040, Note_on_c, 1, 74, 127
2, 169200, Note_off_c, 1, 50, 0
2, 169200, Note_off_c, 1, 74, 0
2, 169240, Note_on_c, 1, 53, 127
2, 169240, Note_on_c, 1, 72, 127
2, 169400, Note_off_c, 1, 53, 0
2, 169400, Note_off_c, 1, 72, 0
2, 169440, Note_on_c, 1, 43, 127
2, 169440, Note_on_c, 1, 71, 127
2, 169600, Note_off_c, 1, 68, 0
2, 169640, Note_on_c, 1, 50, 127
2, 169640, Note_on_c, 1, 67, 127
2, 169800, Note_off_c, 1, 50, 0
2, 169800, Note_off_c, 1, 71, 0
2, 169840, Note_on_c, 1, 55, 127
2, 169840, Note_on_c, 1, 69, 127
2, 170000, Note_off_c, 1, 55, 0
2, 170000, Note_off_c, 1, 69, 0
2, 170040, Note_on_c, 1, 53, 127
2, 170040, Note_on_c, 1, 71, 127
2, 170200, Note_off_c, 1, 43, 0
2, 170200, Note_off_c, 1, 53, 0
2, 170200, Note_off_c, 1, 71, 0
2, 170240, Note_on_c, 1, 51, 127
2, 170240, Note_on_c, 1, 72, 127
2, 170400, Note_off_c, 1, 72, 0
2, 170440, Note_on_c, 1, 60, 127
2, 170440, Note_on_c, 1, 71, 127
2, 170600, Note_off_c, 1, 51, 0
2, 170600, Note_off_c, 1, 71, 0
2, 170640, Note_on_c, 1, 50, 127
2, 170640, Note_on_c, 1, 72, 127
2, 170800, Note_off_c, 1, 60, 0
2, 170800, Note_off_c, 1, 72, 0
2, 170840, Note_on_c, 1, 59, 127
2, 170840, Note_on_c, 1, 74, 127
2, 171000, Note_off_c, 1, 50, 0
2, 171000, Note_off_c, 1, 59, 0
2, 171000, Note_off_c, 1, 67, 0
2, 171000, Note_off_c, 1, 74, 0
2, 171040, Note_on_c, 1, 48, 127
2, 171040, Note_on_c, 1, 75, 127
2, 171200, Note_off_c, 1, 48, 0
2, 171200, Note_off_c, 1, 75, 0
2, 171240, Note_on_c, 1, 50, 127
2, 171240, Note_on_c, 1, 77, 127
2, 171400, Note_off_c, 1, 50, 0
2, 171400, Note_off_c, 1, 77, 0
2, 171440, Note_on_c, 1, 51, 127
2, 171440, Note_on_c, 1, 79, 127
2, 171600, Note_off_c, 1, 51, 0
2, 171600, Note_off_c, 1, 79, 0
2, 171640, Note_on_c, 1, 53, 127
2, 171640, Note_on_c, 1, 80, 127
2, 171800, Note_off_c, 1, 53, 0
2, 171800, Note_off_c, 1, 80, 0
2, 171840, Note_on_c, 1, 55, 127
2, 171840, Note_on_c, 1, 71, 127
2, 171840, Note_on_c, 1, 75, 127
2, 171920, Note_off_c, 1, 75, 0
2, 171960, Note_on_c, 1, 74, 127
2, 172000, Note_off_c, 1, 74, 0
2, 172040, Note_on_c, 1, 75, 127
2, 172080, Note_on_c, 1, 74, 127
2, 172080, Note_off_c, 1, 75, 0
2, 172120, Note_off_c, 1, 74, 0
2, 172160, Note_on_c, 1, 75, 127
2, 172200, Note_off_c, 1, 75, 0
2, 172240, Note_on_c, 1, 43, 127
2, 172240, Note_on_c, 1, 74, 127
2, 172360, Note_off_c, 1, 74, 0
2, 172400, Note_on_c, 1, 72, 127
2, 172560, Note_off_c, 1, 43, 0
2, 172560, Note_off_c, 1, 71, 0
2, 172560, Note_off_c, 1, 72, 0
2, 172600, Note_on_c, 1, 48, 127
2, 172600, Note_on_c, 1, 72, 127
2, 172800, Note_on_c, 1, 67, 127
2, 173000, Note_on_c, 1, 63, 127
2, 173160, Note_off_c, 1, 55, 0
2, 173200, Note_on_c, 1, 55, 127
2, 173360, Note_off_c, 1, 48, 0
2, 173360, Note_off_c, 1, 55, 0
2, 173400, Note_on_c, 1, 60, 127
2, 173480, Note_off_c, 1, 60, 0
2, 173520, Note_on_c, 1, 59, 127
2, 173560, Note_off_c, 1, 59, 0
2, 173560, Note_off_c, 1, 63, 0
2, 173560, Note_off_c, 1, 67, 0
2, 173560, Note_off_c, 1, 72, 0
2, 173600, Note_on_c, 1, 60, 127
2, 173600, Note_on_c, 1, 73, 127
2, 173760, Note_off_c, 1, 73, 0
2, 173800, Note_on_c, 1, 72, 127
2, 173960, Note_off_c, 1, 60, 0
2, 173960, Note_off_c, 1, 72, 0
2, 174000, Note_on_c, 1, 58, 127
2, 174000, Note_on_c, 1, 73, 127
2, 174160, Note_off_c, 1, 58, 0
2, 174160, Note_off_c, 1, 73, 0
2, 174200, Note_on_c, 1, 57, 127
2, 174200, Note_on_c, 1, 75, 127
2, 174360, Note_off_c, 1, 57, 0
2, 174360, Note_off_c, 1, 75, 0
2, 174400, Note_on_c, 1, 58, 127
2, 174400, Note_on_c, 1, 78, 127
2, 174560, Note_off_c, 1, 58, 0
2, 174560, Note_off_c, 1, 78, 0
2, 174600, Note_on_c, 1, 57, 127
2, 174600, Note_on_c, 1, 72, 127
2, 174760, Note_off_c, 1, 57, 0
2, 174760, Note_off_c, 1, 72, 0
2, 174800, Note_on_c, 1, 55, 127
2, 174800, Note_on_c, 1, 75, 127
2, 174960, Note_off_c, 1, 55, 0
2, 174960, Note_off_c, 1, 75, 0
2, 175000, Note_on_c, 1, 53, 127
2, 175000, Note_on_c, 1, 69, 127
2, 175160, Note_off_c, 1, 53, 0
2, 175160, Note_off_c, 1, 69, 0
2, 175200, Note_on_c, 1, 51, 127
2, 175200, Note_on_c, 1, 72, 127
2, 175360, Note_off_c, 1, 51, 0
2, 175360, Note_off_c, 1, 72, 0
2, 175400, Note_on_c, 1, 49, 127
2, 175400, Note_on_c, 1, 65, 127
2, 175560, Note_off_c, 1, 49, 0
2, 175560, Note_off_c, 1, 65, 0
2, 175600, Note_on_c, 1, 48, 127
2, 175600, Note_on_c, 1, 75, 127
2, 175760, Note_off_c, 1, 48, 0
2, 175760, Note_off_c, 1, 75, 0
2, 175800, Note_on_c, 1, 46, 127
2, 175800, Note_on_c, 1, 73, 127
2, 176000, Note_on_c, 1, 70, 127
2, 176200, Note_on_c, 1, 65, 127
2, 176360, Note_on_c, 1, 53, 127
2, 176520, Note_off_c, 1, 46, 0
2, 176520, Note_off_c, 1, 53, 0
2, 176560, Note_on_c, 1, 58, 127
2, 176640, Note_off_c, 1, 58, 0
2, 176680, Note_on_c, 1, 57, 127
2, 176720, Note_off_c, 1, 57, 0
2, 176720, Note_off_c, 1, 65, 0
2, 176720, Note_off_c, 1, 70, 0
2, 176720, Note_off_c, 1, 73, 0
2, 176760, Note_on_c, 1, 58, 127
2, 176760, Note_on_c, 1, 72, 127
2, 176920, Note_off_c, 1, 72, 0
2, 176960, Note_on_c, 1, 70, 127
2, 177120, Note_off_c, 1, 58, 0
2, 177120, Note_off_c, 1, 70, 0
2, 177160, Note_on_c, 1, 56, 127
2, 177160, Note_on_c, 1, 72, 127
2, 177320, Note_off_c, 1, 56, 0
2, 177320, Note_off_c, 1, 72, 0
2, 177360, Note_on_c, 1, 55, 127
2, 177360, Note_on_c, 1, 73, 127
2, 177520, Note_off_c, 1, 55, 0
2, 177520, Note_off_c, 1, 73, 0
2, 177560, Note_on_c, 1, 56, 127
2, 177560, Note_on_c, 1, 75, 127
2, 177640, Note_off_c, 1, 75, 0
2, 177680, Note_on_c, 1, 77, 127
2, 177720, Note_off_c, 1, 56, 0
2, 177720, Note_off_c, 1, 77, 0
2, 177760, Note_on_c, 1, 55, 127
2, 177760, Note_on_c, 1, 70, 127
2, 177920, Note_off_c, 1, 55, 0
2, 177920, Note_off_c, 1, 70, 0
2, 177960, Note_on_c, 1, 53, 127
2, 177960, Note_on_c, 1, 72, 127
2, 178000, Note_off_c, 1, 72, 0
2, 178080, Note_on_c, 1, 73, 127
2, 178120, Note_off_c, 1, 53, 0
2, 178120, Note_off_c, 1, 73, 0
2, 178160, Note_on_c, 1, 51, 127
2, 178160, Note_on_c, 1, 67, 127
2, 178320, Note_off_c, 1, 51, 0
2, 178320, Note_off_c, 1, 67, 0
2, 178360, Note_on_c, 1, 49, 127
2, 178360, Note_on_c, 1, 68, 127
2, 178400, Note_off_c, 1, 68, 0
2, 178440, Note_on_c, 1, 70, 127
2, 178520, Note_off_c, 1, 49, 0
2, 178520, Note_off_c, 1, 70, 0
2, 178560, Note_on_c, 1, 48, 127
2, 178560, Note_on_c, 1, 63, 127
2, 178720, Note_off_c, 1, 48, 0
2, 178720, Note_off_c, 1, 63, 0
2, 178760, Note_on_c, 1, 46, 127
2, 178760, Note_on_c, 1, 73, 127
2, 178920, Note_off_c, 1, 46, 0
2, 178920, Note_off_c, 1, 73, 0
2, 178960, Note_on_c, 1, 44, 127
2, 178960, Note_on_c, 1, 72, 127
2, 179160, Note_on_c, 1, 68, 127
2, 179360, Note_on_c, 1, 63, 127
2, 179560, Note_on_c, 1, 51, 127
2, 179680, Note_off_c, 1, 44, 0
2, 179720, Note_off_c, 1, 51, 0
2, 179760, Note_on_c, 1, 56, 127
2, 179800, Note_off_c, 1, 56, 0
2, 179840, Note_on_c, 1, 55, 127
2, 179880, Note_off_c, 1, 55, 0
2, 179880, Note_off_c, 1, 63, 0
2, 179880, Note_off_c, 1, 68, 0
2, 179920, Note_off_c, 1, 72, 0
2, 179960, Note_on_c, 1, 56, 127
2, 179960, Note_on_c, 1, 68, 127
2, 180080, Note_off_c, 1, 68, 0
2, 180120, Note_on_c, 1, 70, 127
2, 180280, Note_off_c, 1, 56, 0
2, 180280, Note_off_c, 1, 70, 0
2, 180320, Note_on_c, 1, 54, 127
2, 180320, Note_on_c, 1, 72, 127
2, 180480, Note_off_c, 1, 54, 0
2, 180480, Note_off_c, 1, 72, 0
2, 180520, Note_on_c, 1, 53, 127
2, 180520, Note_on_c, 1, 73, 127
2, 180680, Note_off_c, 1, 53, 0
2, 180680, Note_off_c, 1, 73, 0
2, 180720, Note_on_c, 1, 54, 127
2, 180720, Note_on_c, 1, 75, 127
2, 180880, Note_off_c, 1, 54, 0
2, 180880, Note_off_c, 1, 75, 0
2, 180920, Note_on_c, 1, 53, 127
2, 180920, Note_on_c, 1, 73, 127
2, 181080, Note_off_c, 1, 53, 0
2, 181080, Note_off_c, 1, 73, 0
2, 181120, Note_on_c, 1, 51, 127
2, 181120, Note_on_c, 1, 72, 127
2, 181280, Note_off_c, 1, 51, 0
2, 181280, Note_off_c, 1, 72, 0
2, 181320, Note_on_c, 1, 49, 127
2, 181320, Note_on_c, 1, 70, 127
2, 181480, Note_off_c, 1, 49, 0
2, 181480, Note_off_c, 1, 70, 0
2, 181520, Note_on_c, 1, 48, 127
2, 181520, Note_on_c, 1, 68, 127
2, 181680, Note_off_c, 1, 48, 0
2, 181680, Note_off_c, 1, 68, 0
2, 181720, Note_on_c, 1, 46, 127
2, 181720, Note_on_c, 1, 67, 127
2, 181880, Note_off_c, 1, 46, 0
2, 181880, Note_off_c, 1, 67, 0
2, 181920, Note_on_c, 1, 44, 127
2, 181920, Note_on_c, 1, 68, 127
2, 182080, Note_off_c, 1, 44, 0
2, 182080, Note_off_c, 1, 68, 0
2, 182120, Note_on_c, 1, 51, 127
2, 182120, Note_on_c, 1, 68, 127
2, 182160, Note_off_c, 1, 68, 0
2, 182200, Note_on_c, 1, 67, 127
2, 182240, Note_off_c, 1, 67, 0
2, 182240, Note_on_c, 1, 68, 127
2, 182280, Note_off_c, 1, 68, 0
2, 182320, Note_on_c, 1, 67, 127
2, 182480, Note_off_c, 1, 67, 0
2, 182520, Note_on_c, 1, 63, 127
2, 182680, Note_off_c, 1, 51, 0
2, 182680, Note_off_c, 1, 63, 0
2, 182720, Note_on_c, 1, 49, 127
2, 182720, Note_on_c, 1, 70, 127
2, 182880, Note_off_c, 1, 49, 0
2, 182880, Note_off_c, 1, 70, 0
2, 182920, Note_on_c, 1, 48, 127
2, 182920, Note_on_c, 1, 75, 127
2, 183080, Note_off_c, 1, 48, 0
2, 183120, Note_on_c, 1, 44, 127
2, 183280, Note_off_c, 1, 44, 0
2, 183320, Note_on_c, 1, 48, 127
2, 183480, Note_off_c, 1, 48, 0
2, 183480, Note_off_c, 1, 75, 0
2, 183520, Note_on_c, 1, 51, 127
2, 183520, Note_on_c, 1, 73, 127
2, 183640, Note_off_c, 1, 51, 0
2, 183640, Note_off_c, 1, 73, 0
2, 183720, Note_on_c, 1, 56, 127
2, 183720, Note_on_c, 1, 72, 127
2, 183840, Note_off_c, 1, 72, 0
2, 183880, Note_on_c, 1, 68, 127
2, 184040, Note_off_c, 1, 68, 0
2, 184080, Note_on_c, 1, 72, 127
2, 184240, Note_off_c, 1, 56, 0
2, 184240, Note_off_c, 1, 72, 0
2, 184280, Note_on_c, 1, 54, 127
2, 184280, Note_on_c, 1, 75, 127
2, 184440, Note_off_c, 1, 54, 0
2, 184440, Note_off_c, 1, 75, 0
2, 184480, Note_on_c, 1, 53, 127
2, 184480, Note_on_c, 1, 80, 127
2, 184640, Note_off_c, 1, 53, 0
2, 184680, Note_on_c, 1, 49, 127
2, 184840, Note_off_c, 1, 49, 0
2, 184880, Note_on_c, 1, 53, 127
2, 185040, Note_off_c, 1, 53, 0
2, 185040, Note_off_c, 1, 80, 0
2, 185080, Note_on_c, 1, 56, 127
2, 185080, Note_on_c, 1, 78, 127
2, 185240, Note_off_c, 1, 56, 0
2, 185240, Note_off_c, 1, 78, 0
2, 185280, Note_on_c, 1, 61, 127
2, 185280, Note_on_c, 1, 77, 127
2, 185440, Note_off_c, 1, 77, 0
2, 185480, Note_on_c, 1, 80, 127
2, 185640, Note_off_c, 1, 61, 0
2, 185640, Note_off_c, 1, 80, 0
2, 185680, Note_on_c, 1, 60, 127
2, 185680, Note_on_c, 1, 73, 127
2, 185840, Note_off_c, 1, 73, 0
2, 185880, Note_on_c, 1, 75, 127
2, 186040, Note_off_c, 1, 60, 0
2, 186040, Note_off_c, 1, 75, 0
2, 186080, Note_on_c, 1, 58, 127
2, 186080, Note_on_c, 1, 77, 127
2, 186240, Note_off_c, 1, 77, 0
2, 186280, Note_on_c, 1, 73, 127
2, 186440, Note_off_c, 1, 58, 0
2, 186440, Note_off_c, 1, 73, 0
2, 186480, Note_on_c, 1, 56, 127
2, 186480, Note_on_c, 1, 70, 127
2, 186640, Note_off_c, 1, 70, 0
2, 186680, Note_on_c, 1, 72, 127
2, 186840, Note_off_c, 1, 56, 0
2, 186840, Note_off_c, 1, 72, 0
2, 186880, Note_on_c, 1, 58, 127
2, 186880, Note_on_c, 1, 73, 127
2, 187040, Note_off_c, 1, 73, 0
2, 187080, Note_on_c, 1, 77, 127
2, 187240, Note_off_c, 1, 58, 0
2, 187240, Note_off_c, 1, 77, 0
2, 187280, Note_on_c, 1, 56, 127
2, 187280, Note_on_c, 1, 70, 127
2, 187400, Note_off_c, 1, 70, 0
2, 187480, Note_on_c, 1, 72, 127
2, 187600, Note_off_c, 1, 56, 0
2, 187600, Note_off_c, 1, 72, 0
2, 187640, Note_on_c, 1, 55, 127
2, 187640, Note_on_c, 1, 73, 127
2, 187800, Note_off_c, 1, 73, 0
2, 187840, Note_on_c, 1, 70, 127
2, 188000, Note_off_c, 1, 55, 0
2, 188000, Note_off_c, 1, 70, 0
2, 188040, Note_on_c, 1, 53, 127
2, 188040, Note_on_c, 1, 67, 127
2, 188200, Note_off_c, 1, 67, 0
2, 188240, Note_on_c, 1, 68, 127
2, 188400, Note_off_c, 1, 53, 0
2, 188400, Note_off_c, 1, 68, 0
2, 188440, Note_on_c, 1, 51, 127
2, 188440, Note_on_c, 1, 68, 127
2, 188480, Note_off_c, 1, 68, 0
2, 188520, Note_on_c, 1, 67, 127
2, 188560, Note_off_c, 1, 67, 0
2, 188600, Note_on_c, 1, 68, 127
2, 188640, Note_on_c, 1, 53, 127
2, 188640, Note_on_c, 1, 67, 127
2, 188640, Note_off_c, 1, 68, 0
2, 188800, Note_off_c, 1, 53, 0
2, 188840, Note_on_c, 1, 55, 127
2, 188920, Note_off_c, 1, 67, 0
2, 189040, Note_on_c, 1, 58, 127
2, 189040, Note_on_c, 1, 65, 127
2, 189200, Note_off_c, 1, 65, 0
2, 189240, Note_on_c, 1, 63, 127
2, 189440, Note_on_c, 1, 67, 127
2, 189600, Note_off_c, 1, 67, 0
2, 189640, Note_on_c, 1, 70, 127
2, 189800, Note_off_c, 1, 70, 0
2, 189840, Note_on_c, 1, 75, 127
2, 190000, Note_off_c, 1, 55, 0
2, 190000, Note_off_c, 1, 58, 0
2, 190000, Note_off_c, 1, 63, 0
2, 190040, Note_on_c, 1, 56, 127
2, 190040, Note_on_c, 1, 65, 127
2, 190200, Note_off_c, 1, 75, 0
2, 190240, Note_on_c, 1, 75, 127
2, 190400, Note_off_c, 1, 75, 0
2, 190440, Note_on_c, 1, 74, 127
2, 190600, Note_off_c, 1, 74, 0
2, 190640, Note_on_c, 1, 72, 127
2, 190800, Note_off_c, 1, 72, 0
2, 190840, Note_on_c, 1, 74, 127
2, 190960, Note_off_c, 1, 74, 0
2, 191040, Note_on_c, 1, 77, 127
2, 191160, Note_off_c, 1, 77, 0
2, 191200, Note_on_c, 1, 70, 127
2, 191360, Note_off_c, 1, 70, 0
2, 191400, Note_on_c, 1, 72, 127
2, 191560, Note_off_c, 1, 56, 0
2, 191560, Note_off_c, 1, 65, 0
2, 191560, Note_off_c, 1, 72, 0
2, 191600, Note_on_c, 1, 58, 127
2, 191600, Note_on_c, 1, 73, 127
2, 191800, Note_on_c, 1, 70, 127
2, 192000, Note_on_c, 1, 67, 127
2, 192200, Note_on_c, 1, 63, 127
2, 192360, Note_off_c, 1, 58, 0
2, 192400, Note_on_c, 1, 60, 127
2, 192560, Note_off_c, 1, 63, 0
2, 192600, Note_on_c, 1, 63, 127
2, 192760, Note_off_c, 1, 67, 0
2, 192760, Note_off_c, 1, 70, 0
2, 192760, Note_off_c, 1, 73, 0
2, 192800, Note_on_c, 1, 68, 127
2, 192800, Note_on_c, 1, 72, 127
2, 192960, Note_off_c, 1, 60, 0
2, 193000, Note_on_c, 1, 62, 127
2, 193160, Note_off_c, 1, 62, 0
2, 193160, Note_off_c, 1, 63, 0
2, 193160, Note_off_c, 1, 72, 0
2, 193200, Note_on_c, 1, 63, 127
2, 193200, Note_on_c, 1, 70, 127
2, 193360, Note_off_c, 1, 68, 0
2, 193400, Note_on_c, 1, 68, 127
2, 193560, Note_off_c, 1, 68, 0
2, 193600, Note_on_c, 1, 67, 127
2, 193760, Note_off_c, 1, 67, 0
2, 193800, Note_on_c, 1, 65, 127
2, 193960, Note_off_c, 1, 65, 0
2, 194000, Note_on_c, 1, 67, 127
2, 194160, Note_off_c, 1, 63, 0
2, 194200, Note_on_c, 1, 65, 127
2, 194360, Note_off_c, 1, 65, 0
2, 194400, Note_on_c, 1, 58, 127
2, 194560, Note_off_c, 1, 58, 0
2, 194600, Note_on_c, 1, 60, 127
2, 194760, Note_off_c, 1, 60, 0
2, 194800, Note_on_c, 1, 61, 127
2, 195000, Note_on_c, 1, 58, 127
2, 195200, Note_off_c, 1, 51, 0
2, 195200, Note_on_c, 1, 55, 127
2, 195360, Note_on_c, 1, 51, 127
2, 195520, Note_off_c, 1, 55, 0
2, 195520, Note_off_c, 1, 58, 0
2, 195520, Note_off_c, 1, 61, 0
2, 195560, Note_on_c, 1, 60, 127
2, 195720, Note_off_c, 1, 67, 0
2, 195760, Note_on_c, 1, 63, 127
2, 195880, Note_off_c, 1, 70, 0
2, 195920, Note_off_c, 1, 60, 0
2, 195960, Note_on_c, 1, 59, 127
2, 195960, Note_on_c, 1, 68, 127
2, 196120, Note_off_c, 1, 63, 0
2, 196160, Note_on_c, 1, 62, 127
2, 196320, Note_off_c, 1, 59, 0
2, 196320, Note_off_c, 1, 62, 0
2, 196360, Note_on_c, 1, 58, 127
2, 196360, Note_on_c, 1, 63, 127
2, 196400, Note_off_c, 1, 68, 0
2, 196480, Note_on_c, 1, 70, 127
2, 196520, Note_off_c, 1, 70, 0
2, 196560, Note_on_c, 1, 72, 127
2, 196640, Note_off_c, 1, 72, 0
2, 196680, Note_on_c, 1, 73, 127
2, 196720, Note_off_c, 1, 58, 0
2, 196720, Note_off_c, 1, 73, 0
2, 196760, Note_on_c, 1, 56, 127
2, 196760, Note_on_c, 1, 72, 127
2, 196840, Note_off_c, 1, 72, 0
2, 196880, Note_on_c, 1, 70, 127
2, 196920, Note_off_c, 1, 70, 0
2, 196960, Note_on_c, 1, 72, 127
2, 197040, Note_off_c, 1, 72, 0
2, 197080, Note_on_c, 1, 73, 127
2, 197120, Note_off_c, 1, 56, 0
2, 197120, Note_off_c, 1, 73, 0
2, 197160, Note_on_c, 1, 58, 127
2, 197160, Note_on_c, 1, 68, 127
2, 197240, Note_off_c, 1, 68, 0
2, 197280, Note_on_c, 1, 67, 127
2, 197320, Note_off_c, 1, 58, 0
2, 197320, Note_off_c, 1, 67, 0
2, 197360, Note_on_c, 1, 60, 127
2, 197360, Note_on_c, 1, 68, 127
2, 197400, Note_off_c, 1, 68, 0
2, 197440, Note_on_c, 1, 67, 127
2, 197480, Note_off_c, 1, 67, 0
2, 197480, Note_on_c, 1, 68, 127
2, 197520, Note_off_c, 1, 60, 0
2, 197520, Note_off_c, 1, 68, 0
2, 197560, Note_on_c, 1, 61, 127
2, 197560, Note_on_c, 1, 67, 127
2, 197720, Note_off_c, 1, 51, 0
2, 197720, Note_off_c, 1, 67, 0
2, 197760, Note_on_c, 1, 68, 127
2, 197920, Note_off_c, 1, 68, 0
2, 197960, Note_on_c, 1, 56, 127
2, 197960, Note_on_c, 1, 68, 127
2, 198120, Note_off_c, 1, 63, 0
2, 198160, Note_on_c, 1, 63, 127
2, 198320, Note_off_c, 1, 61, 0
2, 198320, Note_off_c, 1, 63, 0
2, 198360, Note_on_c, 1, 60, 127
2, 198360, Note_on_c, 1, 65, 127
2, 198520, Note_off_c, 1, 65, 0
2, 198560, Note_on_c, 1, 66, 127
2, 198720, Note_off_c, 1, 66, 0
2, 198760, Note_on_c, 1, 65, 127
2, 198960, Note_off_c, 1, 60, 0
2, 199000, Note_on_c, 1, 61, 127
2, 199160, Note_off_c, 1, 61, 0
2, 199200, Note_on_c, 1, 58, 127
2, 199360, Note_off_c, 1, 65, 0
2, 199360, Note_off_c, 1, 68, 0
2, 199400, Note_on_c, 1, 61, 127
2, 199400, Note_on_c, 1, 64, 127
2, 199400, Note_on_c, 1, 67, 127
2, 199600, Note_off_c, 1, 56, 0
2, 199600, Note_off_c, 1, 58, 0
2, 199600, Note_off_c, 1, 61, 0
2, 199600, Note_off_c, 1, 64, 0
2, 199600, Note_off_c, 1, 67, 0
2, 199640, Note_on_c, 1, 56, 127
2, 199640, Note_on_c, 1, 60, 127
2, 199640, Note_on_c, 1, 63, 127
2, 199640, Note_on_c, 1, 68, 127
2, 199880, Note_on_c, 1, 44, 127
2, 200120, Note_on_c, 1, 48, 127
2, 200360, Note_on_c, 1, 51, 127
2, 200560, Note_off_c, 1, 48, 0
2, 200560, Note_off_c, 1, 56, 0
2, 200600, Note_on_c, 1, 56, 127
2, 203120, Note_off_c, 1, 44, 0
2, 203120, Note_off_c, 1, 51, 0
2, 203120, Note_off_c, 1, 56, 0
2, 203120, Note_off_c, 1, 60, 0
2, 203120, Note_off_c, 1, 63, 0
2, 203120, Note_off_c, 1, 68, 0
2, 204880, Note_on_c, 1, 80, 127
2, 205080, Note_off_c, 1, 80, 0
2, 205120, Note_on_c, 1, 56, 127
2, 205120, Note_on_c, 1, 72, 127
2, 205240, Note_on_c, 1, 75, 127
2, 205320, Note_on_c, 1, 80, 127
2, 205360, Note_on_c, 1, 44, 127
2, 205520, Note_off_c, 1, 44, 0
2, 205560, Note_on_c, 1, 46, 127
2, 205720, Note_off_c, 1, 46, 0
2, 205720, Note_off_c, 1, 72, 0
2, 205720, Note_off_c, 1, 75, 0
2, 205720, Note_off_c, 1, 80, 0
2, 205760, Note_on_c, 1, 48, 127
2, 205760, Note_on_c, 1, 79, 127
2, 205920, Note_off_c, 1, 48, 0
2, 205920, Note_off_c, 1, 79, 0
2, 205960, Note_on_c, 1, 49, 127
2, 205960, Note_on_c, 1, 77, 127
2, 206120, Note_off_c, 1, 77, 0
2, 206160, Note_on_c, 1, 75, 127
2, 206320, Note_off_c, 1, 49, 0
2, 206320, Note_off_c, 1, 56, 0
2, 206320, Note_off_c, 1, 75, 0
2, 206360, Note_on_c, 1, 51, 127
2, 206360, Note_on_c, 1, 55, 127
2, 206360, Note_on_c, 1, 73, 127
2, 206520, Note_off_c, 1, 73, 0
2, 206560, Note_on_c, 1, 72, 127
2, 206720, Note_off_c, 1, 51, 0
2, 206720, Note_off_c, 1, 55, 0
2, 206720, Note_off_c, 1, 72, 0
2, 206760, Note_on_c, 1, 53, 127
2, 206760, Note_on_c, 1, 72, 127
2, 206840, Note_on_c, 1, 55, 127
2, 206880, Note_off_c, 1, 55, 0
2, 206920, Note_on_c, 1, 56, 127
2, 206920, Note_off_c, 1, 72, 0
2, 206960, Note_on_c, 1, 73, 127
2, 207000, Note_on_c, 1, 72, 127
2, 207000, Note_off_c, 1, 73, 0
2, 207040, Note_off_c, 1, 72, 0
2, 207080, Note_off_c, 1, 53, 0
2, 207080, Note_off_c, 1, 56, 0
2, 207080, Note_on_c, 1, 73, 127
2, 207160, Note_on_c, 1, 55, 127
2, 207240, Note_on_c, 1, 56, 127
2, 207280, Note_off_c, 1, 56, 0
2, 207280, Note_off_c, 1, 73, 0
2, 207320, Note_on_c, 1, 58, 127
2, 207320, Note_on_c, 1, 75, 127
2, 207480, Note_off_c, 1, 55, 0
2, 207480, Note_off_c, 1, 58, 0
2, 207480, Note_off_c, 1, 75, 0
2, 207520, Note_on_c, 1, 56, 127
2, 207520, Note_on_c, 1, 73, 127
2, 207560, Note_off_c, 1, 73, 0
2, 207600, Note_on_c, 1, 72, 127
2, 207640, Note_off_c, 1, 72, 0
2, 207680, Note_on_c, 1, 73, 127
2, 207720, Note_on_c, 1, 60, 127
2, 207720, Note_on_c, 1, 72, 127
2, 207720, Note_off_c, 1, 73, 0
2, 207920, Note_on_c, 1, 63, 127
2, 208080, Note_off_c, 1, 56, 0
2, 208080, Note_off_c, 1, 72, 0
2, 208120, Note_on_c, 1, 55, 127
2, 208120, Note_on_c, 1, 70, 127
2, 208280, Note_off_c, 1, 55, 0
2, 208280, Note_off_c, 1, 60, 0
2, 208280, Note_off_c, 1, 63, 0
2, 208280, Note_off_c, 1, 70, 0
2, 208320, Note_on_c, 1, 53, 127
2, 208320, Note_on_c, 1, 68, 127
2, 208480, Note_off_c, 1, 53, 0
2, 208480, Note_off_c, 1, 68, 0
2, 208520, Note_on_c, 1, 51, 127
2, 208520, Note_on_c, 1, 67, 127
2, 208680, Note_off_c, 1, 51, 0
2, 208680, Note_off_c, 1, 67, 0
2, 208720, Note_on_c, 1, 49, 127
2, 208720, Note_on_c, 1, 65, 127
2, 208880, Note_off_c, 1, 49, 0
2, 208880, Note_off_c, 1, 65, 0
2, 208920, Note_on_c, 1, 48, 127
2, 208920, Note_on_c, 1, 73, 127
2, 209080, Note_off_c, 1, 48, 0
2, 209080, Note_off_c, 1, 73, 0
2, 209120, Note_on_c, 1, 49, 127
2, 209120, Note_on_c, 1, 72, 127
2, 209200, Note_off_c, 1, 72, 0
2, 209240, Note_on_c, 1, 70, 127
2, 209280, Note_off_c, 1, 70, 0
2, 209320, Note_on_c, 1, 53, 127
2, 209320, Note_on_c, 1, 72, 127
2, 209360, Note_off_c, 1, 72, 0
2, 209400, Note_on_c, 1, 70, 127
2, 209440, Note_off_c, 1, 70, 0
2, 209440, Note_on_c, 1, 72, 127
2, 209480, Note_off_c, 1, 49, 0
2, 209480, Note_off_c, 1, 72, 0
2, 209520, Note_on_c, 1, 46, 127
2, 209520, Note_on_c, 1, 70, 127
2, 209680, Note_off_c, 1, 70, 0
2, 209720, Note_on_c, 1, 68, 127
2, 209840, Note_off_c, 1, 53, 0
2, 209880, Note_off_c, 1, 46, 0
2, 209880, Note_off_c, 1, 68, 0
2, 209920, Note_on_c, 1, 51, 127
2, 209920, Note_on_c, 1, 68, 127
2, 209960, Note_on_c, 1, 67, 127
2, 209960, Note_off_c, 1, 68, 0
2, 210000, Note_off_c, 1, 67, 0
2, 210040, Note_on_c, 1, 68, 127
2, 210080, Note_off_c, 1, 68, 0
2, 210120, Note_on_c, 1, 55, 127
2, 210120, Note_on_c, 1, 67, 127
2, 210320, Note_on_c, 1, 58, 127
2, 210480, Note_off_c, 1, 67, 0
2, 210520, Note_on_c, 1, 65, 127
2, 210640, Note_off_c, 1, 51, 0
2, 210680, Note_off_c, 1, 65, 0
2, 210720, Note_on_c, 1, 49, 127
2, 210720, Note_on_c, 1, 63, 127
2, 210880, Note_off_c, 1, 63, 0
2, 210920, Note_on_c, 1, 65, 127
2, 211040, Note_off_c, 1, 49, 0
2, 211040, Note_off_c, 1, 58, 0
2, 211040, Note_off_c, 1, 65, 0
2, 211080, Note_off_c, 1, 55, 0
2, 211120, Note_on_c, 1, 48, 127
2, 211120, Note_on_c, 1, 51, 127
2, 211120, Note_on_c, 1, 56, 127
2, 211120, Note_on_c, 1, 67, 127
2, 211240, Note_off_c, 1, 67, 0
2, 211280, Note_on_c, 1, 68, 127
2, 211440, Note_off_c, 1, 48, 0
2, 211440, Note_off_c, 1, 51, 0
2, 211440, Note_off_c, 1, 56, 0
2, 211440, Note_off_c, 1, 68, 0
2, 211480, Note_on_c, 1, 46, 127
2, 211480, Note_on_c, 1, 49, 127
2, 211480, Note_on_c, 1, 68, 127
2, 211640, Note_off_c, 1, 68, 0
2, 211680, Note_on_c, 1, 55, 127
2, 211680, Note_on_c, 1, 70, 127
2, 211720, Note_off_c, 1, 70, 0
2, 211760, Note_on_c, 1, 68, 127
2, 211800, Note_off_c, 1, 68, 0
2, 211840, Note_off_c, 1, 46, 0
2, 211840, Note_off_c, 1, 49, 0
2, 211840, Note_off_c, 1, 55, 0
2, 211840, Note_on_c, 1, 70, 127
2, 211880, Note_on_c, 1, 44, 127
2, 211880, Note_on_c, 1, 51, 127
2, 212040, Note_off_c, 1, 70, 0
2, 212080, Note_on_c, 1, 56, 127
2, 212080, Note_on_c, 1, 72, 127
2, 212240, Note_off_c, 1, 44, 0
2, 212240, Note_off_c, 1, 51, 0
2, 212240, Note_off_c, 1, 56, 0
2, 212240, Note_off_c, 1, 72, 0
2, 212280, Note_on_c, 1, 43, 127
2, 212280, Note_on_c, 1, 73, 127
2, 212480, Note_on_c, 1, 46, 127
2, 212480, Note_on_c, 1, 70, 127
2, 212640, Note_off_c, 1, 46, 0
2, 212640, Note_off_c, 1, 70, 0
2, 212680, Note_on_c, 1, 51, 127
2, 212680, Note_on_c, 1, 67, 127
2, 212840, Note_off_c, 1, 43, 0
2, 212840, Note_off_c, 1, 73, 0
2, 212880, Note_on_c, 1, 39, 127
2, 212880, Note_on_c, 1, 75, 127
2, 213040, Note_off_c, 1, 39, 0
2, 213040, Note_off_c, 1, 67, 0
2, 213040, Note_off_c, 1, 75, 0
2, 213080, Note_on_c, 1, 44, 127
2, 213080, Note_on_c, 1, 68, 127
2, 213080, Note_on_c, 1, 73, 127
2, 213120, Note_off_c, 1, 73, 0
2, 213160, Note_on_c, 1, 72, 127
2, 213200, Note_off_c, 1, 72, 0
2, 213200, Note_on_c, 1, 73, 127
2, 213240, Note_off_c, 1, 73, 0
2, 213280, Note_on_c, 1, 72, 127
2, 213440, Note_off_c, 1, 44, 0
2, 213440, Note_off_c, 1, 51, 0
2, 213480, Note_on_c, 1, 49, 127
2, 213480, Note_on_c, 1, 53, 127
2, 213640, Note_off_c, 1, 72, 0
2, 213680, Note_on_c, 1, 70, 127
2, 213840, Note_off_c, 1, 49, 0
2, 213840, Note_off_c, 1, 53, 0
2, 213840, Note_off_c, 1, 68, 0
2, 213840, Note_off_c, 1, 70, 0
2, 213880, Note_on_c, 1, 51, 127
2, 213880, Note_on_c, 1, 67, 127
2, 213880, Note_on_c, 1, 72, 127
2, 213960, Note_off_c, 1, 72, 0
2, 214000, Note_on_c, 1, 70, 127
2, 214040, Note_off_c, 1, 70, 0
2, 214080, Note_on_c, 1, 72, 127
2, 214120, Note_on_c, 1, 70, 127
2, 214120, Note_off_c, 1, 72, 0
2, 214160, Note_off_c, 1, 70, 0
2, 214200, Note_on_c, 1, 72, 127
2, 214240, Note_off_c, 1, 72, 0
2, 214280, Note_on_c, 1, 39, 127
2, 214280, Note_on_c, 1, 70, 127
2, 214440, Note_off_c, 1, 70, 0
2, 214480, Note_on_c, 1, 68, 127
2, 214600, Note_off_c, 1, 39, 0
2, 214600, Note_off_c, 1, 51, 0
2, 214600, Note_off_c, 1, 67, 0
2, 214600, Note_off_c, 1, 68, 0
2, 214680, Note_on_c, 1, 44, 127
2, 214680, Note_on_c, 1, 60, 127
2, 214760, Note_on_c, 1, 63, 127
2, 214840, Note_on_c, 1, 51, 127
2, 214840, Note_on_c, 1, 68, 127
2, 215000, Note_off_c, 1, 51, 0
2, 215040, Note_on_c, 1, 53, 127
2, 215200, Note_off_c, 1, 53, 0
2, 215240, Note_on_c, 1, 55, 127
2, 215400, Note_off_c, 1, 44, 0
2, 215400, Note_off_c, 1, 55, 0
2, 215400, Note_off_c, 1, 60, 0
2, 215400, Note_off_c, 1, 63, 0
2, 215440, Note_on_c, 1, 56, 127
2, 215600, Note_off_c, 1, 68, 0
2, 215640, Note_on_c, 1, 72, 127
2, 215800, Note_off_c, 1, 56, 0
2, 215800, Note_off_c, 1, 72, 0
2, 215840, Note_on_c, 1, 55, 127
2, 215840, Note_on_c, 1, 70, 127
2, 216000, Note_off_c, 1, 55, 0
2, 216000, Note_off_c, 1, 70, 0
2, 216040, Note_on_c, 1, 53, 127
2, 216040, Note_on_c, 1, 68, 127
2, 216200, Note_off_c, 1, 53, 0
2, 216200, Note_off_c, 1, 68, 0
2, 216240, Note_on_c, 1, 52, 127
2, 216240, Note_on_c, 1, 68, 127
2, 216320, Note_off_c, 1, 68, 0
2, 216360, Note_on_c, 1, 67, 127
2, 216400, Note_off_c, 1, 67, 0
2, 216440, Note_on_c, 1, 55, 127
2, 216440, Note_on_c, 1, 68, 127
2, 216480, Note_off_c, 1, 68, 0
2, 216520, Note_on_c, 1, 67, 127
2, 216560, Note_off_c, 1, 67, 0
2, 216560, Note_on_c, 1, 68, 127
2, 216600, Note_off_c, 1, 52, 0
2, 216600, Note_off_c, 1, 68, 0
2, 216640, Note_on_c, 1, 48, 127
2, 216640, Note_on_c, 1, 67, 127
2, 216800, Note_off_c, 1, 67, 0
2, 216840, Note_on_c, 1, 68, 127
2, 217000, Note_off_c, 1, 48, 0
2, 217000, Note_off_c, 1, 55, 0
2, 217000, Note_off_c, 1, 68, 0
2, 217040, Note_on_c, 1, 53, 127
2, 217040, Note_on_c, 1, 70, 127
2, 217200, Note_off_c, 1, 70, 0
2, 217240, Note_on_c, 1, 68, 127
2, 217400, Note_off_c, 1, 68, 0
2, 217440, Note_on_c, 1, 67, 127
2, 217600, Note_off_c, 1, 53, 0
2, 217600, Note_off_c, 1, 67, 0
2, 217640, Note_on_c, 1, 55, 127
2, 217640, Note_on_c, 1, 65, 127
2, 217800, Note_off_c, 1, 55, 0
2, 217800, Note_off_c, 1, 65, 0
2, 217840, Note_on_c, 1, 56, 127
2, 217840, Note_on_c, 1, 77, 127
2, 217880, Note_on_c, 1, 75, 127
2, 217880, Note_off_c, 1, 77, 0
2, 217920, Note_off_c, 1, 75, 0
2, 217960, Note_on_c, 1, 77, 127
2, 218000, Note_off_c, 1, 56, 0
2, 218040, Note_on_c, 1, 60, 127
2, 218200, Note_off_c, 1, 60, 0
2, 218240, Note_on_c, 1, 58, 127
2, 218360, Note_off_c, 1, 58, 0
2, 218360, Note_off_c, 1, 77, 0
2, 218440, Note_on_c, 1, 56, 127
2, 218440, Note_on_c, 1, 74, 127
2, 218560, Note_off_c, 1, 56, 0
2, 218560, Note_off_c, 1, 74, 0
2, 218600, Note_on_c, 1, 55, 127
2, 218600, Note_on_c, 1, 74, 127
2, 218720, Note_on_c, 1, 56, 127
2, 218720, Note_off_c, 1, 74, 0
2, 218760, Note_off_c, 1, 56, 0
2, 218760, Note_on_c, 1, 75, 127
2, 218800, Note_on_c, 1, 58, 127
2, 218800, Note_on_c, 1, 74, 127
2, 218800, Note_off_c, 1, 75, 0
2, 218840, Note_off_c, 1, 74, 0
2, 218880, Note_on_c, 1, 75, 127
2, 218960, Note_off_c, 1, 55, 0
2, 218960, Note_off_c, 1, 58, 0
2, 219000, Note_on_c, 1, 57, 127
2, 219120, Note_on_c, 1, 58, 127
2, 219160, Note_off_c, 1, 58, 0
2, 219160, Note_off_c, 1, 75, 0
2, 219200, Note_on_c, 1, 60, 127
2, 219200, Note_on_c, 1, 77, 127
2, 219360, Note_off_c, 1, 57, 0
2, 219360, Note_off_c, 1, 60, 0
2, 219360, Note_off_c, 1, 77, 0
2, 219400, Note_on_c, 1, 58, 127
2, 219400, Note_on_c, 1, 75, 127
2, 219440, Note_off_c, 1, 75, 0
2, 219480, Note_on_c, 1, 74, 127
2, 219520, Note_off_c, 1, 74, 0
2, 219560, Note_on_c, 1, 75, 127
2, 219600, Note_on_c, 1, 62, 127
2, 219600, Note_on_c, 1, 74, 127
2, 219600, Note_off_c, 1, 75, 0
2, 219800, Note_on_c, 1, 65, 127
2, 219960, Note_off_c, 1, 74, 0
2, 220000, Note_on_c, 1, 72, 127
2, 220160, Note_off_c, 1, 58, 0
2, 220160, Note_off_c, 1, 72, 0
2, 220200, Note_on_c, 1, 56, 127
2, 220200, Note_on_c, 1, 70, 127
2, 220360, Note_off_c, 1, 70, 0
2, 220400, Note_on_c, 1, 72, 127
2, 220560, Note_off_c, 1, 56, 0
2, 220560, Note_off_c, 1, 62, 0
2, 220560, Note_off_c, 1, 65, 0
2, 220560, Note_off_c, 1, 72, 0
2, 220600, Note_on_c, 1, 55, 127
2, 220600, Note_on_c, 1, 58, 127
2, 220600, Note_on_c, 1, 63, 127
2, 220600, Note_on_c, 1, 74, 127
2, 220760, Note_off_c, 1, 74, 0
2, 220800, Note_on_c, 1, 75, 127
2, 220960, Note_off_c, 1, 55, 0
2, 220960, Note_off_c, 1, 58, 0
2, 220960, Note_off_c, 1, 63, 0
2, 220960, Note_off_c, 1, 75, 0
2, 221000, Note_on_c, 1, 53, 127
2, 221000, Note_on_c, 1, 56, 127
2, 221000, Note_on_c, 1, 75, 127
2, 221160, Note_off_c, 1, 75, 0
2, 221200, Note_on_c, 1, 62, 127
2, 221200, Note_on_c, 1, 77, 127
2, 221240, Note_on_c, 1, 75, 127
2, 221240, Note_off_c, 1, 77, 0
2, 221280, Note_off_c, 1, 75, 0
2, 221320, Note_on_c, 1, 77, 127
2, 221360, Note_off_c, 1, 53, 0
2, 221360, Note_off_c, 1, 56, 0
2, 221360, Note_off_c, 1, 62, 0
2, 221400, Note_on_c, 1, 51, 127
2, 221400, Note_on_c, 1, 58, 127
2, 221560, Note_off_c, 1, 77, 0
2, 221600, Note_on_c, 1, 63, 127
2, 221600, Note_on_c, 1, 79, 127
2, 221760, Note_off_c, 1, 51, 0
2, 221760, Note_off_c, 1, 58, 0
2, 221760, Note_off_c, 1, 63, 0
2, 221760, Note_off_c, 1, 79, 0
2, 221800, Note_on_c, 1, 50, 127
2, 221800, Note_on_c, 1, 80, 127
2, 222000, Note_on_c, 1, 53, 127
2, 222000, Note_on_c, 1, 77, 127
2, 222160, Note_off_c, 1, 53, 0
2, 222160, Note_off_c, 1, 77, 0
2, 222200, Note_on_c, 1, 58, 127
2, 222200, Note_on_c, 1, 74, 127
2, 222320, Note_off_c, 1, 50, 0
2, 222320, Note_off_c, 1, 80, 0
2, 222400, Note_on_c, 1, 46, 127
2, 222400, Note_on_c, 1, 82, 127
2, 222520, Note_off_c, 1, 46, 0
2, 222520, Note_off_c, 1, 74, 0
2, 222520, Note_off_c, 1, 82, 0
2, 222560, Note_on_c, 1, 51, 127
2, 222560, Note_on_c, 1, 75, 127
2, 222560, Note_on_c, 1, 80, 127
2, 222600, Note_off_c, 1, 80, 0
2, 222640, Note_on_c, 1, 79, 127
2, 222680, Note_off_c, 1, 79, 0
2, 222720, Note_on_c, 1, 80, 127
2, 222760, Note_on_c, 1, 79, 127
2, 222760, Note_off_c, 1, 80, 0
2, 222800, Note_off_c, 1, 79, 0
2, 222840, Note_on_c, 1, 80, 127
2, 222880, Note_off_c, 1, 80, 0
2, 222920, Note_off_c, 1, 51, 0
2, 222920, Note_off_c, 1, 58, 0
2, 222920, Note_on_c, 1, 79, 127
2, 222960, Note_on_c, 1, 56, 127
2, 222960, Note_on_c, 1, 60, 127
2, 223120, Note_off_c, 1, 79, 0
2, 223160, Note_on_c, 1, 77, 127
2, 223320, Note_off_c, 1, 56, 0
2, 223320, Note_off_c, 1, 60, 0
2, 223320, Note_off_c, 1, 75, 0
2, 223320, Note_off_c, 1, 77, 0
2, 223360, Note_on_c, 1, 58, 127
2, 223360, Note_on_c, 1, 74, 127
2, 223360, Note_on_c, 1, 79, 127
2, 223480, Note_off_c, 1, 79, 0
2, 223520, Note_on_c, 1, 77, 127
2, 223560, Note_off_c, 1, 77, 0
2, 223560, Note_on_c, 1, 79, 127
2, 223600, Note_off_c, 1, 79, 0
2, 223640, Note_on_c, 1, 77, 127
2, 223680, Note_off_c, 1, 77, 0
2, 223680, Note_on_c, 1, 79, 127
2, 223720, Note_off_c, 1, 79, 0
2, 223760, Note_on_c, 1, 55, 127
2, 223760, Note_on_c, 1, 77, 127
2, 223920, Note_off_c, 1, 77, 0
2, 223960, Note_on_c, 1, 75, 127
2, 224120, Note_off_c, 1, 55, 0
2, 224120, Note_off_c, 1, 58, 0
2, 224120, Note_off_c, 1, 74, 0
2, 224120, Note_off_c, 1, 75, 0
2, 224160, Note_on_c, 1, 60, 127
2, 224160, Note_on_c, 1, 75, 127
2, 224320, Note_off_c, 1, 60, 0
2, 224360, Note_on_c, 1, 62, 127
2, 224520, Note_off_c, 1, 62, 0
2, 224560, Note_on_c, 1, 60, 127
2, 224720, Note_off_c, 1, 60, 0
2, 224760, Note_on_c, 1, 58, 127
2, 224760, Note_on_c, 1, 74, 127
2, 224920, Note_off_c, 1, 58, 0
2, 224920, Note_off_c, 1, 74, 0
2, 224960, Note_on_c, 1, 56, 127
2, 224960, Note_on_c, 1, 72, 127
2, 225120, Note_off_c, 1, 56, 0
2, 225120, Note_off_c, 1, 72, 0
2, 225160, Note_on_c, 1, 55, 127
2, 225160, Note_on_c, 1, 70, 127
2, 225320, Note_off_c, 1, 55, 0
2, 225320, Note_off_c, 1, 70, 0
2, 225360, Note_on_c, 1, 53, 127
2, 225360, Note_on_c, 1, 68, 127
2, 225520, Note_off_c, 1, 53, 0
2, 225520, Note_off_c, 1, 68, 0
2, 225560, Note_on_c, 1, 51, 127
2, 225560, Note_on_c, 1, 67, 127
2, 225720, Note_off_c, 1, 51, 0
2, 225720, Note_off_c, 1, 67, 0
2, 225720, Note_off_c, 1, 75, 0
2, 225760, Note_on_c, 1, 58, 127
2, 225760, Note_on_c, 1, 65, 127
2, 225960, Note_on_c, 1, 68, 127
2, 226120, Note_on_c, 1, 46, 127
2, 226120, Note_on_c, 1, 75, 127
2, 226280, Note_off_c, 1, 75, 0
2, 226320, Note_on_c, 1, 74, 127
2, 226480, Note_off_c, 1, 46, 0
2, 226480, Note_off_c, 1, 58, 0
2, 226480, Note_off_c, 1, 65, 0
2, 226480, Note_off_c, 1, 68, 0
2, 226480, Note_off_c, 1, 74, 0
2, 226520, Note_on_c, 1, 51, 127
2, 226520, Note_on_c, 1, 75, 127
2, 226920, Note_on_c, 1, 39, 127
2, 227120, Note_on_c, 1, 70, 127
2, 227280, Note_off_c, 1, 51, 0
2, 227280, Note_off_c, 1, 70, 0
2, 227320, Note_on_c, 1, 46, 127
2, 227320, Note_on_c, 1, 72, 127
2, 227480, Note_off_c, 1, 72, 0
2, 227520, Note_on_c, 1, 68, 127
2, 227680, Note_off_c, 1, 46, 0
2, 227680, Note_off_c, 1, 68, 0
2, 227680, Note_off_c, 1, 75, 0
2, 227720, Note_on_c, 1, 51, 127
2, 227720, Note_on_c, 1, 67, 127
2, 227800, Note_on_c, 1, 70, 127
2, 227880, Note_on_c, 1, 75, 127
2, 228480, Note_off_c, 1, 67, 0
2, 228480, Note_off_c, 1, 70, 0
2, 228680, Note_off_c, 1, 39, 0
2, 228680, Note_off_c, 1, 51, 0
2, 228680, Note_off_c, 1, 75, 0
2, 228720, Note_on_c, 1, 70, 127
2, 228880, Note_off_c, 1, 70, 0
2, 228920, Note_on_c, 1, 39, 127
2, 228920, Note_on_c, 1, 63, 127
2, 229000, Note_on_c, 1, 67, 127
2, 229080, Note_on_c, 1, 70, 127
2, 229120, Note_on_c, 1, 46, 127
2, 229280, Note_off_c, 1, 46, 0
2, 229320, Note_on_c, 1, 48, 127
2, 229440, Note_off_c, 1, 63, 0
2, 229440, Note_off_c, 1, 67, 0
2, 229480, Note_off_c, 1, 48, 0
2, 229480, Note_off_c, 1, 70, 0
2, 229520, Note_on_c, 1, 50, 127
2, 229520, Note_on_c, 1, 68, 127
2, 229640, Note_off_c, 1, 39, 0
2, 229680, Note_off_c, 1, 50, 0
2, 229680, Note_off_c, 1, 68, 0
2, 229720, Note_on_c, 1, 51, 127
2, 229720, Note_on_c, 1, 67, 127
2, 229880, Note_off_c, 1, 67, 0
2, 229920, Note_on_c, 1, 53, 127
2, 229920, Note_on_c, 1, 68, 127
2, 230080, Note_off_c, 1, 53, 0
2, 230080, Note_off_c, 1, 68, 0
2, 230120, Note_on_c, 1, 55, 127
2, 230120, Note_on_c, 1, 70, 127
2, 230240, Note_off_c, 1, 70, 0
2, 230320, Note_on_c, 1, 72, 127
2, 230440, Note_off_c, 1, 51, 0
2, 230440, Note_off_c, 1, 55, 0
2, 230440, Note_off_c, 1, 72, 0
2, 230480, Note_on_c, 1, 53, 127
2, 230480, Note_on_c, 1, 72, 127
2, 230600, Note_on_c, 1, 55, 127
2, 230640, Note_off_c, 1, 55, 0
2, 230640, Note_off_c, 1, 72, 0
2, 230680, Note_on_c, 1, 56, 127
2, 230680, Note_on_c, 1, 73, 127
2, 230720, Note_off_c, 1, 73, 0
2, 230760, Note_on_c, 1, 72, 127
2, 230800, Note_off_c, 1, 72, 0
2, 230840, Note_off_c, 1, 53, 0
2, 230840, Note_off_c, 1, 56, 0
2, 230840, Note_on_c, 1, 73, 127
2, 230880, Note_on_c, 1, 55, 127
2, 230960, Note_on_c, 1, 56, 127
2, 231040, Note_off_c, 1, 56, 0
2, 231040, Note_off_c, 1, 73, 0
2, 231080, Note_on_c, 1, 58, 127
2, 231080, Note_on_c, 1, 75, 127
2, 231240, Note_off_c, 1, 55, 0
2, 231240, Note_off_c, 1, 58, 0
2, 231240, Note_off_c, 1, 75, 0
2, 231280, Note_on_c, 1, 56, 127
2, 231280, Note_on_c, 1, 73, 127
2, 231320, Note_off_c, 1, 73, 0
2, 231360, Note_on_c, 1, 72, 127
2, 231400, Note_off_c, 1, 72, 0
2, 231400, Note_on_c, 1, 73, 127
2, 231440, Note_off_c, 1, 73, 0
2, 231480, Note_on_c, 1, 60, 127
2, 231480, Note_on_c, 1, 72, 127
2, 231640, Note_off_c, 1, 60, 0
2, 231680, Note_on_c, 1, 63, 127
2, 231840, Note_off_c, 1, 56, 0
2, 231840, Note_off_c, 1, 72, 0
2, 231880, Note_on_c, 1, 58, 127
2, 231880, Note_on_c, 1, 70, 127
2, 232040, Note_off_c, 1, 58, 0
2, 232040, Note_off_c, 1, 70, 0
2, 232080, Note_on_c, 1, 60, 127
2, 232080, Note_on_c, 1, 68, 127
2, 232240, Note_off_c, 1, 68, 0
2, 232280, Note_on_c, 1, 80, 127
2, 232440, Note_off_c, 1, 60, 0
2, 232440, Note_off_c, 1, 63, 0
2, 232440, Note_off_c, 1, 80, 0
2, 232480, Note_on_c, 1, 56, 127
2, 232480, Note_on_c, 1, 60, 127
2, 232480, Note_on_c, 1, 79, 127
2, 232640, Note_off_c, 1, 79, 0
2, 232680, Note_on_c, 1, 77, 127
2, 232840, Note_off_c, 1, 56, 0
2, 232840, Note_off_c, 1, 60, 0
2, 232840, Note_off_c, 1, 77, 0
2, 232880, Note_on_c, 1, 61, 127
2, 232880, Note_on_c, 1, 65, 127
2, 232880, Note_on_c, 1, 82, 127
2, 233040, Note_off_c, 1, 82, 0
2, 233080, Note_on_c, 1, 79, 127
2, 233240, Note_off_c, 1, 61, 0
2, 233240, Note_off_c, 1, 65, 0
2, 233240, Note_off_c, 1, 79, 0
2, 233280, Note_on_c, 1, 58, 127
2, 233280, Note_on_c, 1, 61, 127
2, 233280, Note_on_c, 1, 80, 127
2, 233440, Note_off_c, 1, 80, 0
2, 233480, Note_on_c, 1, 77, 127
2, 233640, Note_off_c, 1, 58, 0
2, 233640, Note_off_c, 1, 61, 0
2, 233640, Note_off_c, 1, 77, 0
2, 233680, Note_on_c, 1, 60, 127
2, 233680, Note_on_c, 1, 77, 127
2, 233760, Note_off_c, 1, 77, 0
2, 233800, Note_on_c, 1, 76, 127
2, 233840, Note_off_c, 1, 76, 0
2, 233880, Note_on_c, 1, 72, 127
2, 233880, Note_on_c, 1, 77, 127
2, 233920, Note_on_c, 1, 76, 127
2, 233920, Note_off_c, 1, 77, 0
2, 233960, Note_off_c, 1, 76, 0
2, 234000, Note_on_c, 1, 77, 127
2, 234040, Note_on_c, 1, 67, 127
2, 234040, Note_on_c, 1, 76, 127
2, 234040, Note_off_c, 1, 77, 0
2, 234080, Note_off_c, 1, 76, 0
2, 234120, Note_on_c, 1, 77, 127
2, 234160, Note_off_c, 1, 77, 0
2, 234200, Note_off_c, 1, 60, 0
2, 234200, Note_on_c, 1, 76, 127
2, 234240, Note_on_c, 1, 58, 127
2, 234400, Note_off_c, 1, 58, 0
2, 234440, Note_on_c, 1, 56, 127
2, 234600, Note_off_c, 1, 56, 0
2, 234640, Note_on_c, 1, 55, 127
2, 234800, Note_off_c, 1, 55, 0
2, 234800, Note_off_c, 1, 67, 0
2, 234800, Note_off_c, 1, 72, 0
2, 234800, Note_off_c, 1, 76, 0
2, 234840, Note_on_c, 1, 53, 127
2, 234840, Note_on_c, 1, 68, 127
2, 234920, Note_on_c, 1, 72, 127
2, 235000, Note_off_c, 1, 53, 0
2, 235040, Note_on_c, 1, 52, 127
2, 235040, Note_on_c, 1, 77, 127
2, 235200, Note_off_c, 1, 52, 0
2, 235200, Note_off_c, 1, 68, 0
2, 235200, Note_off_c, 1, 72, 0
2, 235200, Note_off_c, 1, 77, 0
2, 235240, Note_on_c, 1, 53, 127
2, 235240, Note_on_c, 1, 75, 127
2, 235320, Note_on_c, 1, 55, 127
2, 235320, Note_off_c, 1, 75, 0
2, 235360, Note_off_c, 1, 55, 0
2, 235360, Note_on_c, 1, 74, 127
2, 235400, Note_on_c, 1, 56, 127
2, 235400, Note_off_c, 1, 74, 0
2, 235440, Note_on_c, 1, 75, 127
2, 235480, Note_off_c, 1, 75, 0
2, 235520, Note_on_c, 1, 74, 127
2, 235560, Note_off_c, 1, 74, 0
2, 235560, Note_on_c, 1, 75, 127
2, 235600, Note_off_c, 1, 53, 0
2, 235600, Note_off_c, 1, 56, 0
2, 235600, Note_off_c, 1, 75, 0
2, 235640, Note_on_c, 1, 55, 127
2, 235640, Note_on_c, 1, 74, 127
2, 235720, Note_on_c, 1, 56, 127
2, 235760, Note_off_c, 1, 56, 0
2, 235800, Note_on_c, 1, 58, 127
2, 235800, Note_off_c, 1, 74, 0
2, 235840, Note_on_c, 1, 75, 127
2, 236000, Note_off_c, 1, 55, 0
2, 236000, Note_off_c, 1, 58, 0
2, 236000, Note_off_c, 1, 75, 0
2, 236040, Note_on_c, 1, 56, 127
2, 236040, Note_on_c, 1, 72, 127
2, 236080, Note_off_c, 1, 72, 0
2, 236120, Note_on_c, 1, 70, 127
2, 236160, Note_off_c, 1, 70, 0
2, 236160, Note_on_c, 1, 72, 127
2, 236240, Note_on_c, 1, 60, 127
2, 236400, Note_off_c, 1, 60, 0
2, 236440, Note_on_c, 1, 65, 127
2, 236600, Note_off_c, 1, 56, 0
2, 236600, Note_off_c, 1, 72, 0
2, 236640, Note_on_c, 1, 58, 127
2, 236640, Note_on_c, 1, 73, 127
2, 236800, Note_off_c, 1, 58, 0
2, 236800, Note_off_c, 1, 65, 0
2, 236800, Note_off_c, 1, 73, 0
2, 236840, Note_on_c, 1, 55, 127
2, 236840, Note_on_c, 1, 64, 127
2, 236840, Note_on_c, 1, 72, 127
2, 236920, Note_off_c, 1, 72, 0
2, 236960, Note_on_c, 1, 70, 127
2, 237000, Note_off_c, 1, 70, 0
2, 237040, Note_on_c, 1, 72, 127
2, 237080, Note_on_c, 1, 70, 127
2, 237080, Note_off_c, 1, 72, 0
2, 237120, Note_off_c, 1, 70, 0
2, 237160, Note_off_c, 1, 64, 0
2, 237160, Note_on_c, 1, 72, 127
2, 237200, Note_off_c, 1, 55, 0
2, 237200, Note_off_c, 1, 72, 0
2, 237240, Note_on_c, 1, 53, 127
2, 237240, Note_on_c, 1, 65, 127
2, 237240, Note_on_c, 1, 70, 127
2, 237360, Note_off_c, 1, 70, 0
2, 237440, Note_on_c, 1, 68, 127
2, 237560, Note_off_c, 1, 53, 0
2, 237560, Note_off_c, 1, 65, 0
2, 237560, Note_off_c, 1, 68, 0
2, 237600, Note_on_c, 1, 60, 127
2, 237600, Note_on_c, 1, 64, 127
2, 237600, Note_on_c, 1, 68, 127
2, 237720, Note_off_c, 1, 68, 0
2, 237760, Note_on_c, 1, 67, 127
2, 237800, Note_off_c, 1, 67, 0
2, 237800, Note_on_c, 1, 68, 127
2, 237840, Note_off_c, 1, 68, 0
2, 237880, Note_on_c, 1, 67, 127
2, 237920, Note_off_c, 1, 67, 0
2, 237960, Note_off_c, 1, 60, 0
2, 237960, Note_on_c, 1, 68, 127
2, 238000, Note_on_c, 1, 48, 127
2, 238000, Note_on_c, 1, 67, 127
2, 238000, Note_off_c, 1, 68, 0
2, 238160, Note_off_c, 1, 67, 0
2, 238200, Note_on_c, 1, 65, 127
2, 238360, Note_off_c, 1, 48, 0
2, 238360, Note_off_c, 1, 64, 0
2, 238360, Note_off_c, 1, 65, 0
2, 238400, Note_on_c, 1, 41, 127
2, 238400, Note_on_c, 1, 56, 127
2, 238480, Note_on_c, 1, 60, 127
2, 238600, Note_on_c, 1, 48, 127
2, 238600, Note_on_c, 1, 65, 127
2, 238760, Note_off_c, 1, 48, 0
2, 238800, Note_on_c, 1, 50, 127
2, 238960, Note_off_c, 1, 50, 0
2, 239000, Note_on_c, 1, 52, 127
2, 239160, Note_off_c, 1, 41, 0
2, 239160, Note_off_c, 1, 52, 0
2, 239160, Note_off_c, 1, 56, 0
2, 239160, Note_off_c, 1, 60, 0
2, 239200, Note_on_c, 1, 53, 127
2, 239360, Note_off_c, 1, 65, 0
2, 239400, Note_on_c, 1, 56, 127
2, 239400, Note_on_c, 1, 77, 127
2, 239560, Note_off_c, 1, 53, 0
2, 239560, Note_off_c, 1, 56, 0
2, 239560, Note_off_c, 1, 77, 0
2, 239600, Note_on_c, 1, 55, 127
2, 239600, Note_on_c, 1, 75, 127
2, 239760, Note_off_c, 1, 75, 0
2, 239800, Note_on_c, 1, 58, 127
2, 239800, Note_on_c, 1, 73, 127
2, 239960, Note_off_c, 1, 55, 0
2, 239960, Note_off_c, 1, 58, 0
2, 239960, Note_off_c, 1, 73, 0
2, 240000, Note_on_c, 1, 57, 127
2, 240000, Note_on_c, 1, 73, 127
2, 240080, Note_off_c, 1, 73, 0
2, 240120, Note_on_c, 1, 72, 127
2, 240160, Note_off_c, 1, 72, 0
2, 240200, Note_on_c, 1, 60, 127
2, 240200, Note_on_c, 1, 73, 127
2, 240240, Note_on_c, 1, 72, 127
2, 240240, Note_off_c, 1, 73, 0
2, 240280, Note_off_c, 1, 72, 0
2, 240320, Note_on_c, 1, 73, 127
2, 240360, Note_off_c, 1, 57, 0
2, 240360, Note_off_c, 1, 73, 0
2, 240400, Note_on_c, 1, 53, 127
2, 240400, Note_on_c, 1, 72, 127
2, 240560, Note_off_c, 1, 72, 0
2, 240600, Note_on_c, 1, 73, 127
2, 240720, Note_off_c, 1, 60, 0
2, 240760, Note_off_c, 1, 53, 0
2, 240760, Note_off_c, 1, 73, 0
2, 240800, Note_on_c, 1, 58, 127
2, 240800, Note_on_c, 1, 75, 127
2, 240960, Note_off_c, 1, 75, 0
2, 241000, Note_on_c, 1, 73, 127
2, 241120, Note_off_c, 1, 73, 0
2, 241200, Note_on_c, 1, 72, 127
2, 241320, Note_off_c, 1, 58, 0
2, 241320, Note_off_c, 1, 72, 0
2, 241360, Note_on_c, 1, 60, 127
2, 241360, Note_on_c, 1, 70, 127
2, 241520, Note_off_c, 1, 60, 0
2, 241520, Note_off_c, 1, 70, 0
2, 241560, Note_on_c, 1, 61, 127
2, 241560, Note_on_c, 1, 82, 127
2, 241600, Note_off_c, 1, 82, 0
2, 241640, Note_on_c, 1, 80, 127
2, 241680, Note_off_c, 1, 80, 0
2, 241720, Note_off_c, 1, 61, 0
2, 241720, Note_on_c, 1, 82, 127
2, 241760, Note_on_c, 1, 65, 127
2, 241920, Note_off_c, 1, 65, 0
2, 241960, Note_on_c, 1, 63, 127
2, 242120, Note_off_c, 1, 63, 0
2, 242120, Note_off_c, 1, 82, 0
2, 242160, Note_on_c, 1, 61, 127
2, 242160, Note_on_c, 1, 79, 127
2, 242320, Note_off_c, 1, 61, 0
2, 242320, Note_off_c, 1, 79, 0
2, 242360, Note_on_c, 1, 60, 127
2, 242360, Note_on_c, 1, 79, 127
2, 242440, Note_on_c, 1, 61, 127
2, 242480, Note_off_c, 1, 61, 0
2, 242520, Note_off_c, 1, 79, 0
2, 242560, Note_on_c, 1, 63, 127
2, 242560, Note_on_c, 1, 80, 127
2, 242600, Note_off_c, 1, 80, 0
2, 242640, Note_on_c, 1, 79, 127
2, 242680, Note_off_c, 1, 79, 0
2, 242680, Note_on_c, 1, 80, 127
2, 242720, Note_off_c, 1, 60, 0
2, 242720, Note_off_c, 1, 63, 0
2, 242760, Note_on_c, 1, 62, 127
2, 242840, Note_on_c, 1, 63, 127
2, 242880, Note_off_c, 1, 63, 0
2, 242920, Note_on_c, 1, 65, 127
2, 242920, Note_off_c, 1, 80, 0
2, 242960, Note_on_c, 1, 82, 127
2, 243120, Note_off_c, 1, 62, 0
2, 243120, Note_off_c, 1, 65, 0
2, 243120, Note_off_c, 1, 82, 0
2, 243160, Note_on_c, 1, 63, 127
2, 243160, Note_on_c, 1, 80, 127
2, 243240, Note_off_c, 1, 80, 0
2, 243280, Note_on_c, 1, 79, 127
2, 243320, Note_off_c, 1, 79, 0
2, 243360, Note_on_c, 1, 67, 127
2, 243360, Note_on_c, 1, 80, 127
2, 243400, Note_off_c, 1, 80, 0
2, 243440, Note_on_c, 1, 79, 127
2, 243480, Note_off_c, 1, 79, 0
2, 243480, Note_on_c, 1, 80, 127
2, 243520, Note_off_c, 1, 80, 0
2, 243560, Note_on_c, 1, 70, 127
2, 243560, Note_on_c, 1, 79, 127
2, 243680, Note_off_c, 1, 63, 0
2, 243720, Note_off_c, 1, 67, 0
2, 243720, Note_off_c, 1, 79, 0
2, 243760, Note_on_c, 1, 61, 127
2, 243760, Note_on_c, 1, 77, 127
2, 243920, Note_off_c, 1, 61, 0
2, 243920, Note_off_c, 1, 70, 0
2, 243920, Note_off_c, 1, 77, 0
2, 243960, Note_on_c, 1, 60, 127
2, 243960, Note_on_c, 1, 75, 127
2, 244120, Note_off_c, 1, 60, 0
2, 244120, Note_off_c, 1, 75, 0
2, 244160, Note_on_c, 1, 58, 127
2, 244160, Note_on_c, 1, 73, 127
2, 244320, Note_off_c, 1, 58, 0
2, 244320, Note_off_c, 1, 73, 0
2, 244360, Note_on_c, 1, 56, 127
2, 244360, Note_on_c, 1, 72, 127
2, 244520, Note_off_c, 1, 56, 0
2, 244520, Note_off_c, 1, 72, 0
2, 244560, Note_on_c, 1, 55, 127
2, 244560, Note_on_c, 1, 70, 127
2, 244680, Note_off_c, 1, 55, 0
2, 244680, Note_off_c, 1, 70, 0
2, 244760, Note_on_c, 1, 53, 127
2, 244760, Note_on_c, 1, 68, 127
2, 244880, Note_off_c, 1, 53, 0
2, 244880, Note_off_c, 1, 68, 0
2, 244920, Note_on_c, 1, 51, 127
2, 244920, Note_on_c, 1, 67, 127
2, 245080, Note_off_c, 1, 51, 0
2, 245080, Note_off_c, 1, 67, 0
2, 245120, Note_on_c, 1, 49, 127
2, 245120, Note_on_c, 1, 68, 127
2, 245280, Note_off_c, 1, 49, 0
2, 245280, Note_off_c, 1, 68, 0
2, 245320, Note_on_c, 1, 48, 127
2, 245320, Note_on_c, 1, 65, 127
2, 245480, Note_off_c, 1, 48, 0
2, 245480, Note_off_c, 1, 65, 0
2, 245520, Note_on_c, 1, 46, 127
2, 245520, Note_on_c, 1, 73, 127
2, 245560, Note_off_c, 1, 73, 0
2, 245600, Note_on_c, 1, 72, 127
2, 245640, Note_off_c, 1, 72, 0
2, 245680, Note_off_c, 1, 46, 0
2, 245680, Note_on_c, 1, 73, 127
2, 245720, Note_on_c, 1, 44, 127
2, 245880, Note_off_c, 1, 44, 0
2, 245920, Note_on_c, 1, 46, 127
2, 246080, Note_off_c, 1, 46, 0
2, 246080, Note_off_c, 1, 73, 0
2, 246120, Note_on_c, 1, 43, 127
2, 246120, Note_on_c, 1, 75, 127
2, 246280, Note_off_c, 1, 43, 0
2, 246280, Note_off_c, 1, 75, 0
2, 246320, Note_on_c, 1, 44, 127
2, 246320, Note_on_c, 1, 73, 127
2, 246400, Note_off_c, 1, 73, 0
2, 246440, Note_on_c, 1, 72, 127
2, 246480, Note_off_c, 1, 72, 0
2, 246520, Note_on_c, 1, 73, 127
2, 246560, Note_off_c, 1, 73, 0
2, 246600, Note_on_c, 1, 72, 127
2, 246640, Note_off_c, 1, 72, 0
2, 246640, Note_on_c, 1, 73, 127
2, 246680, Note_off_c, 1, 44, 0
2, 246680, Note_off_c, 1, 73, 0
2, 246720, Note_on_c, 1, 49, 127
2, 246720, Note_on_c, 1, 68, 127
2, 246720, Note_on_c, 1, 72, 127
2, 246880, Note_off_c, 1, 72, 0
2, 246920, Note_on_c, 1, 70, 127
2, 247080, Note_off_c, 1, 49, 0
2, 247080, Note_off_c, 1, 68, 0
2, 247080, Note_off_c, 1, 70, 0
2, 247120, Note_on_c, 1, 51, 127
2, 247120, Note_on_c, 1, 67, 127
2, 247120, Note_on_c, 1, 72, 127
2, 247200, Note_off_c, 1, 72, 0
2, 247240, Note_on_c, 1, 70, 127
2, 247280, Note_off_c, 1, 70, 0
2, 247320, Note_on_c, 1, 72, 127
2, 247360, Note_on_c, 1, 70, 127
2, 247360, Note_off_c, 1, 72, 0
2, 247400, Note_off_c, 1, 70, 0
2, 247440, Note_on_c, 1, 72, 127
2, 247480, Note_off_c, 1, 72, 0
2, 247520, Note_on_c, 1, 48, 127
2, 247520, Note_on_c, 1, 70, 127
2, 247680, Note_off_c, 1, 70, 0
2, 247720, Note_on_c, 1, 68, 127
2, 247840, Note_off_c, 1, 51, 0
2, 247840, Note_off_c, 1, 67, 0
2, 247880, Note_off_c, 1, 48, 0
2, 247880, Note_off_c, 1, 68, 0
2, 247920, Note_on_c, 1, 53, 127
2, 247920, Note_on_c, 1, 68, 127
2, 248080, Note_off_c, 1, 53, 0
2, 248120, Note_on_c, 1, 55, 127
2, 248240, Note_off_c, 1, 55, 0
2, 248320, Note_on_c, 1, 53, 127
2, 248440, Note_off_c, 1, 53, 0
2, 248480, Note_on_c, 1, 51, 127
2, 248480, Note_on_c, 1, 67, 127
2, 248640, Note_off_c, 1, 51, 0
2, 248640, Note_off_c, 1, 67, 0
2, 248680, Note_on_c, 1, 49, 127
2, 248680, Note_on_c, 1, 65, 127
2, 248840, Note_off_c, 1, 49, 0
2, 248840, Note_off_c, 1, 65, 0
2, 248880, Note_on_c, 1, 48, 127
2, 248880, Note_on_c, 1, 63, 127
2, 249040, Note_off_c, 1, 48, 0
2, 249040, Note_off_c, 1, 63, 0
2, 249080, Note_on_c, 1, 46, 127
2, 249080, Note_on_c, 1, 61, 127
2, 249240, Note_off_c, 1, 46, 0
2, 249240, Note_off_c, 1, 61, 0
2, 249280, Note_on_c, 1, 44, 127
2, 249280, Note_on_c, 1, 60, 127
2, 249440, Note_off_c, 1, 44, 0
2, 249440, Note_off_c, 1, 60, 0
2, 249440, Note_off_c, 1, 68, 0
2, 249480, Note_on_c, 1, 51, 127
2, 249480, Note_on_c, 1, 58, 127
2, 249680, Note_on_c, 1, 61, 127
2, 249880, Note_on_c, 1, 39, 127
2, 249880, Note_on_c, 1, 68, 127
2, 250040, Note_off_c, 1, 68, 0
2, 250080, Note_on_c, 1, 67, 127
2, 250240, Note_off_c, 1, 39, 0
2, 250240, Note_off_c, 1, 51, 0
2, 250240, Note_off_c, 1, 58, 0
2, 250240, Note_off_c, 1, 61, 0
2, 250240, Note_off_c, 1, 67, 0
2, 250280, Note_on_c, 1, 44, 127
2, 250280, Note_on_c, 1, 68, 127
2, 250680, Note_on_c, 1, 32, 127
2, 250880, Note_on_c, 1, 63, 127
2, 251040, Note_off_c, 1, 44, 0
2, 251040, Note_off_c, 1, 63, 0
2, 251080, Note_on_c, 1, 39, 127
2, 251080, Note_on_c, 1, 65, 127
2, 251240, Note_off_c, 1, 65, 0
2, 251280, Note_on_c, 1, 61, 127
2, 251440, Note_off_c, 1, 39, 0
2, 251440, Note_off_c, 1, 61, 0
2, 251440, Note_off_c, 1, 68, 0
2, 251480, Note_on_c, 1, 44, 127
2, 251480, Note_on_c, 1, 60, 127
2, 251560, Note_on_c, 1, 63, 127
2, 251640, Note_on_c, 1, 68, 127
2, 252200, Note_off_c, 1, 44, 0
2, 252240, Note_off_c, 1, 32, 0
2, 252400, Note_off_c, 1, 68, 0
2, 252440, Note_off_c, 1, 60, 0
2, 252440, Note_off_c, 1, 63, 0
2, 252480, Note_on_c, 1, 68, 127
2, 252600, Note_off_c, 1, 68, 0
2, 252640, Note_on_c, 1, 44, 127
2, 252640, Note_on_c, 1, 68, 127
2, 252840, Note_on_c, 1, 63, 127
2, 253040, Note_on_c, 1, 60, 127
2, 253200, Note_off_c, 1, 44, 0
2, 253240, Note_on_c, 1, 46, 127
2, 253320, Note_off_c, 1, 46, 0
2, 253360, Note_on_c, 1, 48, 127
2, 253400, Note_off_c, 1, 48, 0
2, 253440, Note_on_c, 1, 46, 127
2, 253600, Note_off_c, 1, 46, 0
2, 253640, Note_on_c, 1, 48, 127
2, 253720, Note_off_c, 1, 48, 0
2, 253760, Note_on_c, 1, 49, 127
2, 253800, Note_off_c, 1, 49, 0
2, 253800, Note_off_c, 1, 60, 0
2, 253800, Note_off_c, 1, 63, 0
2, 253800, Note_off_c, 1, 68, 0
2, 253840, Note_on_c, 1, 48, 127
2, 253840, Note_on_c, 1, 63, 127
2, 254200, Note_off_c, 1, 48, 0
2, 254200, Note_off_c, 1, 63, 0
2, 254240, Note_on_c, 1, 48, 127
2, 254240, Note_on_c, 1, 65, 127
2, 254280, Note_off_c, 1, 65, 0
2, 254320, Note_off_c, 1, 48, 0
2, 254320, Note_on_c, 1, 63, 127
2, 254360, Note_on_c, 1, 46, 127
2, 254360, Note_off_c, 1, 63, 0
2, 254360, Note_on_c, 1, 65, 127
2, 254400, Note_off_c, 1, 46, 0
2, 254440, Note_on_c, 1, 48, 127
2, 254480, Note_off_c, 1, 48, 0
2, 254520, Note_on_c, 1, 46, 127
2, 254600, Note_off_c, 1, 46, 0
2, 254640, Note_on_c, 1, 44, 127
2, 254800, Note_off_c, 1, 65, 0
2, 254840, Note_on_c, 1, 66, 127
2, 255000, Note_off_c, 1, 44, 0
2, 255000, Note_off_c, 1, 66, 0
2, 255040, Note_on_c, 1, 49, 127
2, 255040, Note_on_c, 1, 66, 127
2, 255120, Note_off_c, 1, 66, 0
2, 255160, Note_on_c, 1, 65, 127
2, 255200, Note_off_c, 1, 65, 0
2, 255240, Note_on_c, 1, 66, 127
2, 255280, Note_on_c, 1, 65, 127
2, 255280, Note_off_c, 1, 66, 0
2, 255320, Note_off_c, 1, 65, 0
2, 255360, Note_on_c, 1, 66, 127
2, 255400, Note_off_c, 1, 49, 0
2, 255400, Note_off_c, 1, 66, 0
2, 255440, Note_on_c, 1, 49, 127
2, 255440, Note_on_c, 1, 65, 127
2, 255520, Note_off_c, 1, 49, 0
2, 255560, Note_on_c, 1, 48, 127
2, 255600, Note_off_c, 1, 48, 0
2, 255600, Note_off_c, 1, 65, 0
2, 255640, Note_on_c, 1, 49, 127
2, 255640, Note_on_c, 1, 68, 127
2, 255680, Note_on_c, 1, 48, 127
2, 255680, Note_off_c, 1, 49, 0
2, 255800, Note_off_c, 1, 48, 0
2, 255800, Note_off_c, 1, 68, 0
2, 255840, Note_on_c, 1, 46, 127
2, 255840, Note_on_c, 1, 73, 127
2, 255880, Note_off_c, 1, 73, 0
2, 255920, Note_on_c, 1, 72, 127
2, 255960, Note_off_c, 1, 72, 0
2, 256040, Note_on_c, 1, 73, 127
2, 256160, Note_off_c, 1, 46, 0
2, 256200, Note_on_c, 1, 55, 127
2, 256360, Note_off_c, 1, 73, 0
2, 256400, Note_on_c, 1, 75, 127
2, 256560, Note_off_c, 1, 55, 0
2, 256560, Note_off_c, 1, 75, 0
2, 256600, Note_on_c, 1, 56, 127
2, 256600, Note_on_c, 1, 73, 127
2, 256640, Note_off_c, 1, 56, 0
2, 256680, Note_on_c, 1, 55, 127
2, 256720, Note_off_c, 1, 55, 0
2, 256720, Note_off_c, 1, 73, 0
2, 256760, Note_on_c, 1, 56, 127
2, 256760, Note_on_c, 1, 72, 127
2, 256800, Note_off_c, 1, 72, 0
2, 256800, Note_on_c, 1, 73, 127
2, 256840, Note_off_c, 1, 73, 0
2, 256880, Note_on_c, 1, 72, 127
2, 256920, Note_off_c, 1, 72, 0
2, 256960, Note_off_c, 1, 56, 0
2, 256960, Note_on_c, 1, 73, 127
2, 257000, Note_on_c, 1, 44, 127
2, 257000, Note_on_c, 1, 72, 127
2, 257000, Note_off_c, 1, 73, 0
2, 257160, Note_off_c, 1, 72, 0
2, 257200, Note_on_c, 1, 70, 127
2, 257360, Note_off_c, 1, 44, 0
2, 257360, Note_off_c, 1, 70, 0
2, 257400, Note_on_c, 1, 51, 127
2, 257400, Note_on_c, 1, 70, 127
2, 257600, Note_on_c, 1, 67, 127
2, 257800, Note_on_c, 1, 63, 127
2, 257960, Note_off_c, 1, 51, 0
2, 258000, Note_on_c, 1, 53, 127
2, 258040, Note_off_c, 1, 53, 0
2, 258080, Note_on_c, 1, 55, 127
2, 258160, Note_off_c, 1, 55, 0
2, 258200, Note_on_c, 1, 53, 127
2, 258360, Note_off_c, 1, 53, 0
2, 258400, Note_on_c, 1, 55, 127
2, 258440, Note_off_c, 1, 55, 0
2, 258480, Note_on_c, 1, 56, 127
2, 258560, Note_off_c, 1, 56, 0
2, 258560, Note_off_c, 1, 63, 0
2, 258560, Note_off_c, 1, 67, 0
2, 258560, Note_off_c, 1, 70, 0
2, 258600, Note_on_c, 1, 55, 127
2, 258600, Note_on_c, 1, 75, 127
2, 258640, Note_on_c, 1, 73, 127
2, 258640, Note_off_c, 1, 75, 0
2, 258680, Note_off_c, 1, 73, 0
2, 258720, Note_on_c, 1, 75, 127
2, 258960, Note_off_c, 1, 55, 0
2, 258960, Note_off_c, 1, 75, 0
2, 259000, Note_on_c, 1, 55, 127
2, 259000, Note_on_c, 1, 75, 127
2, 259080, Note_off_c, 1, 55, 0
2, 259080, Note_off_c, 1, 75, 0
2, 259120, Note_on_c, 1, 53, 127
2, 259120, Note_on_c, 1, 73, 127
2, 259160, Note_off_c, 1, 53, 0
2, 259160, Note_off_c, 1, 73, 0
2, 259200, Note_on_c, 1, 55, 127
2, 259200, Note_on_c, 1, 75, 127
2, 259240, Note_on_c, 1, 53, 127
2, 259240, Note_off_c, 1, 55, 0
2, 259240, Note_on_c, 1, 73, 127
2, 259240, Note_off_c, 1, 75, 0
2, 259280, Note_off_c, 1, 73, 0
2, 259320, Note_on_c, 1, 75, 127
2, 259360, Note_off_c, 1, 53, 0
2, 259360, Note_off_c, 1, 75, 0
2, 259400, Note_on_c, 1, 51, 127
2, 259400, Note_on_c, 1, 73, 127
2, 259520, Note_off_c, 1, 73, 0
2, 259600, Note_on_c, 1, 75, 127
2, 259720, Note_off_c, 1, 51, 0
2, 259720, Note_off_c, 1, 75, 0
2, 259760, Note_on_c, 1, 56, 127
2, 259760, Note_on_c, 1, 73, 127
2, 259800, Note_off_c, 1, 73, 0
2, 259840, Note_on_c, 1, 72, 127
2, 259880, Note_off_c, 1, 72, 0
2, 259920, Note_on_c, 1, 73, 127
2, 259960, Note_on_c, 1, 72, 127
2, 259960, Note_off_c, 1, 73, 0
2, 260120, Note_off_c, 1, 56, 0
2, 260160, Note_on_c, 1, 58, 127
2, 260320, Note_off_c, 1, 72, 0
2, 260360, Note_on_c, 1, 70, 127
2, 260520, Note_off_c, 1, 58, 0
2, 260520, Note_off_c, 1, 70, 0
2, 260560, Note_on_c, 1, 60, 127
2, 260560, Note_on_c, 1, 68, 127
2, 260720, Note_off_c, 1, 68, 0
2, 260760, Note_on_c, 1, 72, 127
2, 260920, Note_off_c, 1, 60, 0
2, 260920, Note_off_c, 1, 72, 0
2, 260960, Note_on_c, 1, 53, 127
2, 260960, Note_on_c, 1, 56, 127
2, 260960, Note_on_c, 1, 77, 127
2, 261320, Note_off_c, 1, 53, 0
2, 261320, Note_off_c, 1, 56, 0
2, 261320, Note_off_c, 1, 77, 0
2, 261360, Note_on_c, 1, 55, 127
2, 261360, Note_on_c, 1, 58, 127
2, 261360, Note_on_c, 1, 77, 127
2, 261440, Note_off_c, 1, 77, 0
2, 261480, Note_on_c, 1, 75, 127
2, 261520, Note_off_c, 1, 75, 0
2, 261560, Note_on_c, 1, 77, 127
2, 261600, Note_off_c, 1, 77, 0
2, 261640, Note_on_c, 1, 75, 127
2, 261680, Note_off_c, 1, 75, 0
2, 261680, Note_on_c, 1, 77, 127
2, 261720, Note_off_c, 1, 55, 0
2, 261720, Note_off_c, 1, 58, 0
2, 261720, Note_off_c, 1, 77, 0
2, 261760, Note_on_c, 1, 57, 127
2, 261760, Note_on_c, 1, 60, 127
2, 261760, Note_on_c, 1, 75, 127
2, 261920, Note_off_c, 1, 75, 0
2, 261960, Note_on_c, 1, 77, 127
2, 262120, Note_off_c, 1, 57, 0
2, 262120, Note_off_c, 1, 60, 0
2, 262120, Note_off_c, 1, 77, 0
2, 262160, Note_on_c, 1, 58, 127
2, 262160, Note_on_c, 1, 75, 127
2, 262200, Note_on_c, 1, 74, 127
2, 262200, Note_off_c, 1, 75, 0
2, 262240, Note_off_c, 1, 74, 0
2, 262280, Note_on_c, 1, 75, 127
2, 262320, Note_off_c, 1, 75, 0
2, 262360, Note_on_c, 1, 74, 127
2, 262520, Note_off_c, 1, 58, 0
2, 262560, Note_on_c, 1, 60, 127
2, 262720, Note_off_c, 1, 74, 0
2, 262760, Note_on_c, 1, 72, 127
2, 262920, Note_off_c, 1, 60, 0
2, 262920, Note_off_c, 1, 72, 0
2, 262960, Note_on_c, 1, 62, 127
2, 262960, Note_on_c, 1, 70, 127
2, 263160, Note_on_c, 1, 77, 127
2, 263280, Note_off_c, 1, 62, 0
2, 263280, Note_off_c, 1, 77, 0
2, 263320, Note_on_c, 1, 55, 127
2, 263320, Note_on_c, 1, 82, 127
2, 263680, Note_off_c, 1, 55, 0
2, 263680, Note_off_c, 1, 70, 0
2, 263680, Note_off_c, 1, 82, 0
2, 263720, Note_on_c, 1, 60, 127
2, 263720, Note_on_c, 1, 75, 127
2, 263720, Note_on_c, 1, 82, 127
2, 263840, Note_off_c, 1, 82, 0
2, 263880, Note_on_c, 1, 80, 127
2, 263920, Note_off_c, 1, 80, 0
2, 263920, Note_on_c, 1, 82, 127
2, 263960, Note_off_c, 1, 82, 0
2, 264000, Note_on_c, 1, 80, 127
2, 264040, Note_off_c, 1, 80, 0
2, 264080, Note_off_c, 1, 60, 0
2, 264080, Note_off_c, 1, 75, 0
2, 264080, Note_on_c, 1, 82, 127
2, 264120, Note_on_c, 1, 62, 127
2, 264120, Note_on_c, 1, 77, 127
2, 264120, Note_on_c, 1, 80, 127
2, 264120, Note_off_c, 1, 82, 0
2, 264280, Note_off_c, 1, 80, 0
2, 264320, Note_on_c, 1, 82, 127
2, 264480, Note_off_c, 1, 62, 0
2, 264480, Note_off_c, 1, 77, 0
2, 264480, Note_off_c, 1, 82, 0
2, 264520, Note_on_c, 1, 63, 127
2, 264520, Note_on_c, 1, 70, 127
2, 264520, Note_on_c, 1, 80, 127
2, 264600, Note_off_c, 1, 80, 0
2, 264680, Note_on_c, 1, 79, 127
2, 264720, Note_off_c, 1, 79, 0
2, 264720, Note_on_c, 1, 80, 127
2, 264760, Note_off_c, 1, 80, 0
2, 264800, Note_on_c, 1, 79, 127
2, 264840, Note_off_c, 1, 79, 0
2, 264840, Note_on_c, 1, 80, 127
2, 264880, Note_off_c, 1, 63, 0
2, 264880, Note_off_c, 1, 80, 0
2, 264920, Note_on_c, 1, 51, 127
2, 264920, Note_on_c, 1, 79, 127
2, 265080, Note_off_c, 1, 51, 0
2, 265080, Note_off_c, 1, 79, 0
2, 265120, Note_on_c, 1, 53, 127
2, 265120, Note_on_c, 1, 80, 127
2, 265280, Note_off_c, 1, 53, 0
2, 265280, Note_off_c, 1, 80, 0
2, 265320, Note_on_c, 1, 55, 127
2, 265320, Note_on_c, 1, 82, 127
2, 265480, Note_off_c, 1, 82, 0
2, 265520, Note_on_c, 1, 79, 127
2, 265680, Note_off_c, 1, 55, 0
2, 265680, Note_off_c, 1, 79, 0
2, 265720, Note_on_c, 1, 51, 127
2, 265720, Note_on_c, 1, 80, 127
2, 265880, Note_off_c, 1, 80, 0
2, 265920, Note_on_c, 1, 82, 127
2, 266080, Note_off_c, 1, 51, 0
2, 266080, Note_off_c, 1, 70, 0
2, 266080, Note_off_c, 1, 82, 0
2, 266120, Note_on_c, 1, 56, 127
2, 266120, Note_on_c, 1, 73, 127
2, 266160, Note_on_c, 1, 72, 127
2, 266160, Note_off_c, 1, 73, 0
2, 266200, Note_off_c, 1, 72, 0
2, 266240, Note_on_c, 1, 73, 127
2, 266280, Note_off_c, 1, 73, 0
2, 266320, Note_on_c, 1, 70, 127
2, 266320, Note_on_c, 1, 72, 127
2, 266360, Note_off_c, 1, 72, 0
2, 266360, Note_on_c, 1, 73, 127
2, 266400, Note_off_c, 1, 73, 0
2, 266440, Note_on_c, 1, 72, 127
2, 266480, Note_off_c, 1, 56, 0
2, 266480, Note_off_c, 1, 70, 0
2, 266520, Note_on_c, 1, 53, 127
2, 266520, Note_on_c, 1, 68, 127
2, 266640, Note_off_c, 1, 72, 0
2, 266720, Note_on_c, 1, 80, 127
2, 266840, Note_off_c, 1, 53, 0
2, 266840, Note_off_c, 1, 80, 0
2, 266920, Note_on_c, 1, 58, 127
2, 266920, Note_on_c, 1, 75, 127
2, 267000, Note_off_c, 1, 75, 0
2, 267040, Note_off_c, 1, 58, 0
2, 267040, Note_on_c, 1, 74, 127
2, 267080, Note_on_c, 1, 60, 127
2, 267080, Note_off_c, 1, 74, 0
2, 267080, Note_on_c, 1, 75, 127
2, 267120, Note_off_c, 1, 75, 0
2, 267160, Note_on_c, 1, 74, 127
2, 267200, Note_off_c, 1, 74, 0
2, 267240, Note_off_c, 1, 60, 0
2, 267240, Note_on_c, 1, 75, 127
2, 267280, Note_on_c, 1, 58, 127
2, 267280, Note_on_c, 1, 74, 127
2, 267280, Note_off_c, 1, 75, 0
2, 267440, Note_off_c, 1, 58, 0
2, 267440, Note_off_c, 1, 74, 0
2, 267480, Note_on_c, 1, 56, 127
2, 267480, Note_on_c, 1, 72, 127
2, 267640, Note_off_c, 1, 56, 0
2, 267640, Note_off_c, 1, 68, 0
2, 267640, Note_off_c, 1, 72, 0
2, 267680, Note_on_c, 1, 55, 127
2, 267680, Note_on_c, 1, 70, 127
2, 267840, Note_off_c, 1, 55, 0
2, 267840, Note_off_c, 1, 70, 0
2, 267880, Note_on_c, 1, 53, 127
2, 267880, Note_on_c, 1, 68, 127
2, 268040, Note_off_c, 1, 53, 0
2, 268040, Note_off_c, 1, 68, 0
2, 268080, Note_on_c, 1, 51, 127
2, 268080, Note_on_c, 1, 67, 127
2, 268240, Note_off_c, 1, 67, 0
2, 268280, Note_on_c, 1, 75, 127
2, 268440, Note_off_c, 1, 51, 0
2, 268440, Note_off_c, 1, 75, 0
2, 268480, Note_on_c, 1, 58, 127
2, 268480, Note_on_c, 1, 62, 127
2, 268480, Note_on_c, 1, 67, 127
2, 268560, Note_off_c, 1, 67, 0
2, 268600, Note_on_c, 1, 65, 127
2, 268640, Note_off_c, 1, 65, 0
2, 268680, Note_on_c, 1, 67, 127
2, 268720, Note_off_c, 1, 67, 0
2, 268760, Note_on_c, 1, 65, 127
2, 268800, Note_off_c, 1, 65, 0
2, 268800, Note_on_c, 1, 67, 127
2, 268840, Note_off_c, 1, 67, 0
2, 268880, Note_on_c, 1, 46, 127
2, 268880, Note_on_c, 1, 65, 127
2, 269040, Note_off_c, 1, 65, 0
2, 269080, Note_on_c, 1, 63, 127
2, 269240, Note_off_c, 1, 46, 0
2, 269240, Note_off_c, 1, 58, 0
2, 269240, Note_off_c, 1, 62, 0
2, 269240, Note_off_c, 1, 63, 0
2, 269280, Note_on_c, 1, 51, 127
2, 269280, Note_on_c, 1, 63, 127
2, 269680, Note_on_c, 1, 39, 127
2, 270000, Note_off_c, 1, 51, 0
2, 270080, Note_on_c, 1, 46, 127
2, 270440, Note_off_c, 1, 46, 0
2, 270480, Note_on_c, 1, 51, 127
2, 270480, Note_on_c, 1, 55, 127
2, 270480, Note_on_c, 1, 58, 127
2, 271200, Note_off_c, 1, 39, 0
2, 271200, Note_off_c, 1, 51, 0
2, 271200, Note_off_c, 1, 63, 0
2, 271400, Note_off_c, 1, 55, 0
2, 271400, Note_off_c, 1, 58, 0
2, 271440, Note_on_c, 1, 70, 127
2, 271600, Note_off_c, 1, 70, 0
2, 271640, Note_on_c, 1, 39, 127
2, 271640, Note_on_c, 1, 70, 127
2, 271840, Note_on_c, 1, 67, 127
2, 272040, Note_on_c, 1, 63, 127
2, 272120, Note_off_c, 1, 39, 0
2, 272160, Note_on_c, 1, 46, 127
2, 272200, Note_off_c, 1, 46, 0
2, 272240, Note_on_c, 1, 48, 127
2, 272320, Note_off_c, 1, 48, 0
2, 272360, Note_on_c, 1, 49, 127
2, 272400, Note_off_c, 1, 49, 0
2, 272440, Note_on_c, 1, 48, 127
2, 272600, Note_off_c, 1, 48, 0
2, 272640, Note_on_c, 1, 49, 127
2, 272720, Note_off_c, 1, 49, 0
2, 272760, Note_on_c, 1, 51, 127
2, 272800, Note_off_c, 1, 51, 0
2, 272800, Note_off_c, 1, 63, 0
2, 272800, Note_off_c, 1, 67, 0
2, 272800, Note_off_c, 1, 70, 0
2, 272840, Note_on_c, 1, 49, 127
2, 272840, Note_on_c, 1, 63, 127
2, 272840, Note_on_c, 1, 67, 127
2, 273200, Note_off_c, 1, 49, 0
2, 273200, Note_off_c, 1, 63, 0
2, 273200, Note_off_c, 1, 67, 0
2, 273240, Note_on_c, 1, 49, 127
2, 273240, Note_on_c, 1, 65, 127
2, 273240, Note_on_c, 1, 67, 127
2, 273320, Note_off_c, 1, 49, 0
2, 273360, Note_on_c, 1, 48, 127
2, 273400, Note_off_c, 1, 48, 0
2, 273400, Note_off_c, 1, 67, 0
2, 273440, Note_on_c, 1, 49, 127
2, 273440, Note_on_c, 1, 68, 127
2, 273480, Note_off_c, 1, 49, 0
2, 273480, Note_off_c, 1, 68, 0
2, 273520, Note_on_c, 1, 48, 127
2, 273520, Note_on_c, 1, 67, 127
2, 273560, Note_off_c, 1, 67, 0
2, 273560, Note_on_c, 1, 68, 127
2, 273600, Note_off_c, 1, 48, 0
2, 273640, Note_on_c, 1, 46, 127
2, 273760, Note_off_c, 1, 65, 0
2, 273800, Note_off_c, 1, 68, 0
2, 273840, Note_on_c, 1, 67, 127
2, 273840, Note_on_c, 1, 70, 127
2, 274000, Note_off_c, 1, 46, 0
2, 274000, Note_off_c, 1, 67, 0
2, 274000, Note_off_c, 1, 70, 0
2, 274040, Note_on_c, 1, 44, 127
2, 274040, Note_on_c, 1, 68, 127
2, 274040, Note_on_c, 1, 72, 127
2, 274400, Note_off_c, 1, 44, 0
2, 274440, Note_on_c, 1, 48, 127
2, 274600, Note_off_c, 1, 68, 0
2, 274600, Note_off_c, 1, 72, 0
2, 274640, Note_on_c, 1, 68, 127
2, 274800, Note_off_c, 1, 48, 0
2, 274840, Note_on_c, 1, 49, 127
2, 274840, Note_on_c, 1, 77, 127
2, 274880, Note_on_c, 1, 75, 127
2, 274880, Note_off_c, 1, 77, 0
2, 274920, Note_off_c, 1, 75, 0
2, 274960, Note_on_c, 1, 77, 127
2, 275160, Note_off_c, 1, 49, 0
2, 275160, Note_off_c, 1, 68, 0
2, 275200, Note_on_c, 1, 54, 127
2, 275200, Note_on_c, 1, 70, 127
2, 275360, Note_off_c, 1, 77, 0
2, 275400, Note_on_c, 1, 78, 127
2, 275560, Note_off_c, 1, 54, 0
2, 275560, Note_off_c, 1, 78, 0
2, 275600, Note_on_c, 1, 48, 127
2, 275600, Note_on_c, 1, 77, 127
2, 275760, Note_off_c, 1, 77, 0
2, 275800, Note_on_c, 1, 75, 127
2, 275840, Note_off_c, 1, 75, 0
2, 275880, Note_on_c, 1, 77, 127
2, 275920, Note_off_c, 1, 77, 0
2, 275960, Note_off_c, 1, 48, 0
2, 275960, Note_off_c, 1, 70, 0
2, 275960, Note_on_c, 1, 75, 127
2, 276000, Note_on_c, 1, 53, 127
2, 276000, Note_on_c, 1, 69, 127
2, 276000, Note_off_c, 1, 75, 0
2, 276000, Note_on_c, 1, 77, 127
2, 276040, Note_off_c, 1, 77, 0
2, 276080, Note_on_c, 1, 75, 127
2, 276240, Note_off_c, 1, 75, 0
2, 276280, Note_on_c, 1, 73, 127
2, 276320, Note_on_c, 1, 72, 127
2, 276320, Note_off_c, 1, 73, 0
2, 276360, Note_off_c, 1, 53, 0
2, 276360, Note_off_c, 1, 69, 0
2, 276360, Note_off_c, 1, 72, 0
2, 276400, Note_on_c, 1, 46, 127
2, 276400, Note_on_c, 1, 70, 127
2, 276400, Note_on_c, 1, 73, 127
2, 276440, Note_off_c, 1, 73, 0
2, 276480, Note_on_c, 1, 72, 127
2, 276520, Note_off_c, 1, 72, 0
2, 276520, Note_on_c, 1, 73, 127
2, 276960, Note_off_c, 1, 46, 0
2, 277000, Note_on_c, 1, 48, 127
2, 277040, Note_off_c, 1, 48, 0
2, 277080, Note_on_c, 1, 49, 127
2, 277160, Note_off_c, 1, 49, 0
2, 277200, Note_on_c, 1, 48, 127
2, 277360, Note_off_c, 1, 48, 0
2, 277400, Note_on_c, 1, 49, 127
2, 277440, Note_off_c, 1, 49, 0
2, 277480, Note_on_c, 1, 51, 127
2, 277560, Note_off_c, 1, 51, 0
2, 277560, Note_off_c, 1, 70, 0
2, 277560, Note_off_c, 1, 73, 0
2, 277600, Note_on_c, 1, 49, 127
2, 277600, Note_on_c, 1, 70, 127
2, 277680, Note_on_c, 1, 77, 127
2, 277760, Note_on_c, 1, 82, 127
2, 277960, Note_off_c, 1, 49, 0
2, 277960, Note_off_c, 1, 70, 0
2, 277960, Note_off_c, 1, 77, 0
2, 277960, Note_off_c, 1, 82, 0
2, 278000, Note_on_c, 1, 51, 127
2, 278000, Note_on_c, 1, 77, 127
2, 278000, Note_on_c, 1, 82, 127
2, 278080, Note_off_c, 1, 82, 0
2, 278120, Note_on_c, 1, 80, 127
2, 278160, Note_off_c, 1, 51, 0
2, 278160, Note_off_c, 1, 80, 0
2, 278200, Note_on_c, 1, 50, 127
2, 278200, Note_on_c, 1, 82, 127
2, 278240, Note_on_c, 1, 80, 127
2, 278240, Note_off_c, 1, 82, 0
2, 278280, Note_off_c, 1, 80, 0
2, 278320, Note_on_c, 1, 82, 127
2, 278360, Note_off_c, 1, 50, 0
2, 278360, Note_off_c, 1, 82, 0
2, 278400, Note_on_c, 1, 48, 127
2, 278400, Note_on_c, 1, 80, 127
2, 278440, Note_off_c, 1, 48, 0
2, 278440, Note_on_c, 1, 50, 127
2, 278480, Note_off_c, 1, 50, 0
2, 278520, Note_on_c, 1, 48, 127
2, 278520, Note_off_c, 1, 80, 0
2, 278560, Note_off_c, 1, 48, 0
2, 278600, Note_on_c, 1, 46, 127
2, 278600, Note_on_c, 1, 82, 127
2, 278720, Note_off_c, 1, 46, 0
2, 278720, Note_off_c, 1, 77, 0
2, 278720, Note_off_c, 1, 82, 0
2, 278760, Note_on_c, 1, 51, 127
2, 278760, Note_on_c, 1, 75, 127
2, 278760, Note_on_c, 1, 80, 127
2, 278800, Note_off_c, 1, 80, 0
2, 278840, Note_on_c, 1, 78, 127
2, 278880, Note_off_c, 1, 78, 0
2, 278920, Note_on_c, 1, 80, 127
2, 278960, Note_on_c, 1, 78, 127
2, 278960, Note_off_c, 1, 80, 0
2, 279120, Note_off_c, 1, 51, 0
2, 279160, Note_on_c, 1, 53, 127
2, 279320, Note_off_c, 1, 78, 0
2, 279360, Note_on_c, 1, 77, 127
2, 279520, Note_off_c, 1, 53, 0
2, 279520, Note_off_c, 1, 75, 0
2, 279520, Note_off_c, 1, 77, 0
2, 279560, Note_on_c, 1, 54, 127
2, 279560, Note_on_c, 1, 75, 127
2, 279720, Note_off_c, 1, 75, 0
2, 279760, Note_on_c, 1, 78, 127
2, 279920, Note_off_c, 1, 54, 0
2, 279920, Note_off_c, 1, 78, 0
2, 279960, Note_on_c, 1, 53, 127
2, 279960, Note_on_c, 1, 61, 127
2, 279960, Note_on_c, 1, 66, 127
2, 279960, Note_on_c, 1, 70, 127
2, 280320, Note_off_c, 1, 53, 0
2, 280320, Note_off_c, 1, 61, 0
2, 280320, Note_off_c, 1, 66, 0
2, 280320, Note_off_c, 1, 70, 0
2, 280360, Note_on_c, 1, 53, 127
2, 280360, Note_on_c, 1, 63, 127
2, 280400, Note_off_c, 1, 53, 0
2, 280440, Note_on_c, 1, 66, 127
2, 280480, Note_on_c, 1, 51, 127
2, 280480, Note_on_c, 1, 68, 127
2, 280520, Note_off_c, 1, 51, 0
2, 280560, Note_on_c, 1, 53, 127
2, 280560, Note_on_c, 1, 72, 127
2, 280600, Note_off_c, 1, 53, 0
2, 280640, Note_on_c, 1, 51, 127
2, 280720, Note_off_c, 1, 51, 0
2, 280720, Note_off_c, 1, 63, 0
2, 280720, Note_off_c, 1, 66, 0
2, 280720, Note_off_c, 1, 68, 0
2, 280760, Note_on_c, 1, 49, 127
2, 280760, Note_on_c, 1, 65, 127
2, 280920, Note_off_c, 1, 72, 0
2, 280960, Note_on_c, 1, 73, 127
2, 281120, Note_off_c, 1, 49, 0
2, 281120, Note_off_c, 1, 65, 0
2, 281120, Note_off_c, 1, 73, 0
2, 281160, Note_on_c, 1, 56, 127
2, 281160, Note_on_c, 1, 63, 127
2, 281160, Note_on_c, 1, 73, 127
2, 281200, Note_on_c, 1, 72, 127
2, 281200, Note_off_c, 1, 73, 0
2, 281240, Note_off_c, 1, 72, 0
2, 281280, Note_on_c, 1, 73, 127
2, 281320, Note_off_c, 1, 73, 0
2, 281360, Note_on_c, 1, 72, 127
2, 281520, Note_off_c, 1, 56, 0
2, 281560, Note_on_c, 1, 58, 127
2, 281720, Note_off_c, 1, 72, 0
2, 281760, Note_on_c, 1, 70, 127
2, 281920, Note_off_c, 1, 58, 0
2, 281920, Note_off_c, 1, 70, 0
2, 281960, Note_on_c, 1, 60, 127
2, 281960, Note_on_c, 1, 68, 127
2, 282120, Note_off_c, 1, 68, 0
2, 282160, Note_on_c, 1, 75, 127
2, 282280, Note_off_c, 1, 60, 0
2, 282280, Note_off_c, 1, 63, 0
2, 282280, Note_off_c, 1, 75, 0
2, 282360, Note_on_c, 1, 56, 127
2, 282360, Note_on_c, 1, 60, 127
2, 282360, Note_on_c, 1, 80, 127
2, 282680, Note_off_c, 1, 56, 0
2, 282680, Note_off_c, 1, 60, 0
2, 282680, Note_off_c, 1, 80, 0
2, 282720, Note_on_c, 1, 58, 127
2, 282720, Note_on_c, 1, 61, 127
2, 282720, Note_on_c, 1, 80, 127
2, 282840, Note_off_c, 1, 80, 0
2, 282880, Note_on_c, 1, 78, 127
2, 282920, Note_off_c, 1, 78, 0
2, 282920, Note_on_c, 1, 80, 127
2, 282960, Note_off_c, 1, 80, 0
2, 283000, Note_on_c, 1, 78, 127
2, 283040, Note_off_c, 1, 78, 0
2, 283080, Note_off_c, 1, 58, 0
2, 283080, Note_off_c, 1, 61, 0
2, 283080, Note_on_c, 1, 80, 127
2, 283120, Note_on_c, 1, 60, 127
2, 283120, Note_on_c, 1, 63, 127
2, 283120, Note_on_c, 1, 78, 127
2, 283120, Note_off_c, 1, 80, 0
2, 283280, Note_off_c, 1, 78, 0
2, 283320, Note_on_c, 1, 80, 127
2, 283480, Note_off_c, 1, 60, 0
2, 283480, Note_off_c, 1, 63, 0
2, 283480, Note_off_c, 1, 80, 0
2, 283520, Note_on_c, 1, 61, 127
2, 283520, Note_on_c, 1, 77, 127
2, 283560, Note_off_c, 1, 77, 0
2, 283600, Note_on_c, 1, 75, 127
2, 283640, Note_off_c, 1, 75, 0
2, 283640, Note_on_c, 1, 77, 127
2, 283920, Note_on_c, 1, 49, 127
2, 284080, Note_off_c, 1, 49, 0
2, 284080, Note_off_c, 1, 77, 0
2, 284120, Note_on_c, 1, 51, 127
2, 284120, Note_on_c, 1, 75, 127
2, 284280, Note_off_c, 1, 51, 0
2, 284280, Note_off_c, 1, 75, 0
2, 284320, Note_on_c, 1, 53, 127
2, 284320, Note_on_c, 1, 73, 127
2, 284480, Note_off_c, 1, 73, 0
2, 284520, Note_on_c, 1, 72, 127
2, 284680, Note_off_c, 1, 53, 0
2, 284680, Note_off_c, 1, 61, 0
2, 284680, Note_off_c, 1, 72, 0
2, 284720, Note_on_c, 1, 54, 127
2, 284720, Note_on_c, 1, 70, 127
2, 284880, Note_off_c, 1, 70, 0
2, 284920, Note_on_c, 1, 75, 127
2, 285080, Note_off_c, 1, 54, 0
2, 285080, Note_off_c, 1, 75, 0
2, 285120, Note_on_c, 1, 56, 127
2, 285120, Note_on_c, 1, 73, 127
2, 285200, Note_off_c, 1, 73, 0
2, 285240, Note_on_c, 1, 72, 127
2, 285280, Note_off_c, 1, 72, 0
2, 285320, Note_on_c, 1, 73, 127
2, 285360, Note_on_c, 1, 72, 127
2, 285360, Note_off_c, 1, 73, 0
2, 285400, Note_off_c, 1, 72, 0
2, 285440, Note_on_c, 1, 73, 127
2, 285480, Note_off_c, 1, 73, 0
2, 285520, Note_on_c, 1, 44, 127
2, 285520, Note_on_c, 1, 72, 127
2, 285680, Note_off_c, 1, 72, 0
2, 285720, Note_on_c, 1, 73, 127
2, 285840, Note_off_c, 1, 56, 0
2, 285880, Note_off_c, 1, 44, 0
2, 285880, Note_off_c, 1, 73, 0
2, 285920, Note_on_c, 1, 49, 127
2, 285920, Note_on_c, 1, 73, 127
2, 286120, Note_on_c, 1, 68, 127
2, 286280, Note_on_c, 1, 65, 127
2, 286440, Note_off_c, 1, 49, 0
2, 286480, Note_on_c, 1, 51, 127
2, 286560, Note_off_c, 1, 51, 0
2, 286600, Note_on_c, 1, 53, 127
2, 286640, Note_off_c, 1, 53, 0
2, 286680, Note_on_c, 1, 51, 127
2, 286840, Note_off_c, 1, 51, 0
2, 286880, Note_on_c, 1, 53, 127
2, 286960, Note_off_c, 1, 53, 0
2, 287000, Note_on_c, 1, 54, 127
2, 287040, Note_off_c, 1, 54, 0
2, 287040, Note_off_c, 1, 65, 0
2, 287040, Note_off_c, 1, 68, 0
2, 287040, Note_off_c, 1, 73, 0
2, 287120, Note_on_c, 1, 45, 127
2, 287120, Note_on_c, 1, 72, 127
2, 287120, Note_on_c, 1, 77, 127
2, 287480, Note_off_c, 1, 45, 0
2, 287480, Note_off_c, 1, 72, 0
2, 287480, Note_off_c, 1, 77, 0
2, 287520, Note_on_c, 1, 46, 127
2, 287520, Note_on_c, 1, 73, 127
2, 287520, Note_on_c, 1, 77, 127
2, 287640, Note_off_c, 1, 77, 0
2, 287720, Note_on_c, 1, 78, 127
2, 287760, Note_on_c, 1, 77, 127
2, 287760, Note_off_c, 1, 78, 0
2, 287800, Note_off_c, 1, 77, 0
2, 287840, Note_off_c, 1, 46, 0
2, 287840, Note_off_c, 1, 73, 0
2, 287840, Note_on_c, 1, 78, 127
2, 287880, Note_on_c, 1, 44, 127
2, 287880, Note_on_c, 1, 71, 127
2, 288040, Note_off_c, 1, 78, 0
2, 288080, Note_on_c, 1, 77, 127
2, 288240, Note_off_c, 1, 44, 0
2, 288240, Note_off_c, 1, 71, 0
2, 288240, Note_off_c, 1, 77, 0
2, 288280, Note_on_c, 1, 42, 127
2, 288280, Note_on_c, 1, 70, 127
2, 288280, Note_on_c, 1, 77, 127
2, 288320, Note_off_c, 1, 77, 0
2, 288360, Note_on_c, 1, 75, 127
2, 288400, Note_off_c, 1, 75, 0
2, 288440, Note_on_c, 1, 77, 127
2, 288480, Note_on_c, 1, 75, 127
2, 288480, Note_off_c, 1, 77, 0
2, 288640, Note_off_c, 1, 42, 0
2, 288640, Note_off_c, 1, 70, 0
2, 288680, Note_on_c, 1, 42, 127
2, 288680, Note_on_c, 1, 68, 127
2, 288760, Note_off_c, 1, 42, 0
2, 288800, Note_on_c, 1, 41, 127
2, 288840, Note_off_c, 1, 41, 0
2, 288840, Note_off_c, 1, 75, 0
2, 288880, Note_on_c, 1, 42, 127
2, 288880, Note_on_c, 1, 73, 127
2, 288960, Note_off_c, 1, 42, 0
2, 289000, Note_on_c, 1, 41, 127
2, 289040, Note_off_c, 1, 41, 0
2, 289040, Note_off_c, 1, 68, 0
2, 289040, Note_off_c, 1, 73, 0
2, 289080, Note_on_c, 1, 39, 127
2, 289080, Note_on_c, 1, 66, 127
2, 289080, Note_on_c, 1, 73, 127
2, 289240, Note_off_c, 1, 73, 0
2, 289280, Note_on_c, 1, 71, 127
2, 289440, Note_off_c, 1, 39, 0
2, 289440, Note_off_c, 1, 71, 0
2, 289480, Note_on_c, 1, 48, 127
2, 289480, Note_on_c, 1, 70, 127
2, 289640, Note_off_c, 1, 70, 0
2, 289680, Note_on_c, 1, 69, 127
2, 289840, Note_off_c, 1, 48, 0
2, 289840, Note_off_c, 1, 66, 0
2, 289840, Note_off_c, 1, 69, 0
2, 289880, Note_on_c, 1, 49, 127
2, 289880, Note_on_c, 1, 65, 127
2, 289880, Note_on_c, 1, 70, 127
2, 289920, Note_off_c, 1, 70, 0
2, 289960, Note_on_c, 1, 69, 127
2, 290000, Note_off_c, 1, 69, 0
2, 290000, Note_on_c, 1, 70, 127
2, 290240, Note_off_c, 1, 49, 0
2, 290240, Note_off_c, 1, 65, 0
2, 290280, Note_on_c, 1, 51, 127
2, 290280, Note_on_c, 1, 66, 127
2, 290440, Note_off_c, 1, 70, 0
2, 290480, Note_on_c, 1, 72, 127
2, 290640, Note_off_c, 1, 51, 0
2, 290640, Note_off_c, 1, 66, 0
2, 290640, Note_off_c, 1, 72, 0
2, 290680, Note_on_c, 1, 53, 127
2, 290680, Note_on_c, 1, 60, 127
2, 290680, Note_on_c, 1, 70, 127
2, 290760, Note_off_c, 1, 70, 0
2, 290800, Note_on_c, 1, 69, 127
2, 290840, Note_off_c, 1, 69, 0
2, 290880, Note_on_c, 1, 70, 127
2, 290920, Note_on_c, 1, 69, 127
2, 290920, Note_off_c, 1, 70, 0
2, 290960, Note_off_c, 1, 69, 0
2, 291000, Note_on_c, 1, 70, 127
2, 291040, Note_off_c, 1, 53, 0
2, 291040, Note_off_c, 1, 70, 0
2, 291080, Note_on_c, 1, 55, 127
2, 291080, Note_on_c, 1, 69, 127
2, 291240, Note_off_c, 1, 69, 0
2, 291280, Note_on_c, 1, 67, 127
2, 291400, Note_off_c, 1, 55, 0
2, 291400, Note_off_c, 1, 67, 0
2, 291480, Note_on_c, 1, 57, 127
2, 291480, Note_on_c, 1, 65, 127
2, 291600, Note_off_c, 1, 65, 0
2, 291640, Note_on_c, 1, 72, 127
2, 291800, Note_off_c, 1, 57, 0
2, 291800, Note_off_c, 1, 60, 0
2, 291800, Note_off_c, 1, 72, 0
2, 291840, Note_on_c, 1, 53, 127
2, 291840, Note_on_c, 1, 57, 127
2, 291840, Note_on_c, 1, 77, 127
2, 292200, Note_off_c, 1, 53, 0
2, 292200, Note_off_c, 1, 57, 0
2, 292200, Note_off_c, 1, 77, 0
2, 292240, Note_on_c, 1, 55, 127
2, 292240, Note_on_c, 1, 58, 127
2, 292240, Note_on_c, 1, 77, 127
2, 292360, Note_off_c, 1, 77, 0
2, 292400, Note_on_c, 1, 75, 127
2, 292440, Note_off_c, 1, 75, 0
2, 292440, Note_on_c, 1, 77, 127
2, 292480, Note_off_c, 1, 77, 0
2, 292520, Note_on_c, 1, 75, 127
2, 292560, Note_off_c, 1, 75, 0
2, 292600, Note_off_c, 1, 55, 0
2, 292600, Note_off_c, 1, 58, 0
2, 292600, Note_on_c, 1, 77, 127
2, 292640, Note_on_c, 1, 57, 127
2, 292640, Note_on_c, 1, 60, 127
2, 292640, Note_on_c, 1, 75, 127
2, 292640, Note_off_c, 1, 77, 0
2, 292800, Note_off_c, 1, 75, 0
2, 292840, Note_on_c, 1, 77, 127
2, 293000, Note_off_c, 1, 57, 0
2, 293000, Note_off_c, 1, 60, 0
2, 293000, Note_off_c, 1, 77, 0
2, 293040, Note_on_c, 1, 58, 127
2, 293040, Note_on_c, 1, 75, 127
2, 293080, Note_off_c, 1, 75, 0
2, 293120, Note_on_c, 1, 73, 127
2, 293160, Note_off_c, 1, 73, 0
2, 293160, Note_on_c, 1, 75, 127
2, 293200, Note_off_c, 1, 58, 0
2, 293200, Note_off_c, 1, 75, 0
2, 293240, Note_on_c, 1, 60, 127
2, 293240, Note_on_c, 1, 73, 127
2, 293400, Note_off_c, 1, 60, 0
2, 293440, Note_on_c, 1, 58, 127
2, 293600, Note_off_c, 1, 58, 0
2, 293600, Note_off_c, 1, 73, 0
2, 293640, Note_on_c, 1, 56, 127
2, 293640, Note_on_c, 1, 72, 127
2, 293800, Note_off_c, 1, 56, 0
2, 293800, Note_off_c, 1, 72, 0
2, 293840, Note_on_c, 1, 54, 127
2, 293840, Note_on_c, 1, 70, 127
2, 294000, Note_off_c, 1, 54, 0
2, 294000, Note_off_c, 1, 70, 0
2, 294040, Note_on_c, 1, 53, 127
2, 294040, Note_on_c, 1, 69, 127
2, 294200, Note_off_c, 1, 53, 0
2, 294200, Note_off_c, 1, 69, 0
2, 294240, Note_on_c, 1, 54, 127
2, 294240, Note_on_c, 1, 70, 127
2, 294400, Note_off_c, 1, 54, 0
2, 294400, Note_off_c, 1, 70, 0
2, 294440, Note_on_c, 1, 51, 127
2, 294440, Note_on_c, 1, 72, 127
2, 294600, Note_off_c, 1, 51, 0
2, 294600, Note_off_c, 1, 72, 0
2, 294640, Note_on_c, 1, 53, 127
2, 294640, Note_on_c, 1, 69, 127
2, 294640, Note_on_c, 1, 73, 127
2, 294720, Note_off_c, 1, 73, 0
2, 294760, Note_on_c, 1, 72, 127
2, 294800, Note_off_c, 1, 72, 0
2, 294840, Note_on_c, 1, 73, 127
2, 294880, Note_on_c, 1, 72, 127
2, 294880, Note_off_c, 1, 73, 0
2, 294920, Note_off_c, 1, 72, 0
2, 294960, Note_on_c, 1, 73, 127
2, 295000, Note_off_c, 1, 73, 0
2, 295040, Note_on_c, 1, 41, 127
2, 295040, Note_on_c, 1, 72, 127
2, 295160, Note_off_c, 1, 72, 0
2, 295200, Note_on_c, 1, 70, 127
2, 295360, Note_off_c, 1, 41, 0
2, 295360, Note_off_c, 1, 53, 0
2, 295360, Note_off_c, 1, 69, 0
2, 295360, Note_off_c, 1, 70, 0
2, 295400, Note_on_c, 1, 46, 127
2, 295400, Note_on_c, 1, 70, 127
2, 295600, Note_on_c, 1, 65, 127
2, 295800, Note_on_c, 1, 61, 127
2, 295960, Note_off_c, 1, 46, 0
2, 296000, Note_on_c, 1, 49, 127
2, 296080, Note_off_c, 1, 49, 0
2, 296120, Note_on_c, 1, 48, 127
2, 296160, Note_off_c, 1, 48, 0
2, 296200, Note_on_c, 1, 46, 127
2, 296360, Note_off_c, 1, 46, 0
2, 296400, Note_on_c, 1, 48, 127
2, 296480, Note_off_c, 1, 48, 0
2, 296520, Note_on_c, 1, 49, 127
2, 296560, Note_off_c, 1, 49, 0
2, 296560, Note_off_c, 1, 61, 0
2, 296560, Note_off_c, 1, 65, 0
2, 296560, Note_off_c, 1, 70, 0
2, 296600, Note_on_c, 1, 43, 127
2, 296600, Note_on_c, 1, 70, 127
2, 296640, Note_off_c, 1, 70, 0
2, 296680, Note_on_c, 1, 68, 127
2, 296720, Note_off_c, 1, 68, 0
2, 296720, Note_on_c, 1, 70, 127
2, 296960, Note_off_c, 1, 43, 0
2, 296960, Note_off_c, 1, 70, 0
2, 297000, Note_on_c, 1, 43, 127
2, 297000, Note_on_c, 1, 63, 127
2, 297080, Note_off_c, 1, 43, 0
2, 297080, Note_on_c, 1, 70, 127
2, 297120, Note_on_c, 1, 41, 127
2, 297160, Note_off_c, 1, 41, 0
2, 297160, Note_on_c, 1, 75, 127
2, 297200, Note_on_c, 1, 43, 127
2, 297240, Note_off_c, 1, 43, 0
2, 297280, Note_on_c, 1, 41, 127
2, 297360, Note_off_c, 1, 41, 0
2, 297400, Note_on_c, 1, 39, 127
2, 297560, Note_off_c, 1, 75, 0
2, 297600, Note_on_c, 1, 73, 127
2, 297760, Note_off_c, 1, 39, 0
2, 297760, Note_off_c, 1, 63, 0
2, 297760, Note_off_c, 1, 70, 0
2, 297760, Note_off_c, 1, 73, 0
2, 297800, Note_on_c, 1, 44, 127
2, 297800, Note_on_c, 1, 63, 127
2, 297800, Note_on_c, 1, 73, 127
2, 297840, Note_on_c, 1, 72, 127
2, 297840, Note_off_c, 1, 73, 0
2, 297880, Note_off_c, 1, 72, 0
2, 297920, Note_on_c, 1, 73, 127
2, 297960, Note_off_c, 1, 73, 0
2, 298000, Note_on_c, 1, 72, 127
2, 298160, Note_off_c, 1, 44, 0
2, 298200, Note_on_c, 1, 46, 127
2, 298360, Note_off_c, 1, 72, 0
2, 298400, Note_on_c, 1, 70, 127
2, 298560, Note_off_c, 1, 46, 0
2, 298560, Note_off_c, 1, 70, 0
2, 298600, Note_on_c, 1, 48, 127
2, 298600, Note_on_c, 1, 68, 127
2, 298720, Note_off_c, 1, 68, 0
2, 298800, Note_on_c, 1, 72, 127
2, 298920, Note_off_c, 1, 48, 0
2, 298920, Note_off_c, 1, 63, 0
2, 298920, Note_off_c, 1, 72, 0
2, 298960, Note_on_c, 1, 49, 127
2, 298960, Note_on_c, 1, 56, 127
2, 298960, Note_on_c, 1, 65, 127
2, 299320, Note_off_c, 1, 49, 0
2, 299320, Note_off_c, 1, 56, 0
2, 299320, Note_off_c, 1, 65, 0
2, 299360, Note_on_c, 1, 48, 127
2, 299360, Note_on_c, 1, 61, 127
2, 299480, Note_off_c, 1, 48, 0
2, 299480, Note_on_c, 1, 63, 127
2, 299520, Note_on_c, 1, 46, 127
2, 299560, Note_off_c, 1, 46, 0
2, 299560, Note_on_c, 1, 48, 127
2, 299560, Note_on_c, 1, 67, 127
2, 299600, Note_off_c, 1, 48, 0
2, 299640, Note_on_c, 1, 46, 127
2, 299720, Note_off_c, 1, 46, 0
2, 299720, Note_off_c, 1, 61, 0
2, 299720, Note_off_c, 1, 63, 0
2, 299760, Note_on_c, 1, 44, 127
2, 299760, Note_on_c, 1, 60, 127
2, 299920, Note_off_c, 1, 67, 0
2, 299960, Note_on_c, 1, 68, 127
2, 300120, Note_off_c, 1, 44, 0
2, 300120, Note_off_c, 1, 60, 0
2, 300120, Note_off_c, 1, 68, 0
2, 300160, Note_on_c, 1, 51, 127
2, 300160, Note_on_c, 1, 58, 127
2, 300160, Note_on_c, 1, 68, 127
2, 300200, Note_off_c, 1, 68, 0
2, 300240, Note_on_c, 1, 67, 127
2, 300280, Note_off_c, 1, 67, 0
2, 300320, Note_on_c, 1, 68, 127
2, 300360, Note_on_c, 1, 67, 127
2, 300360, Note_off_c, 1, 68, 0
2, 300520, Note_off_c, 1, 51, 0
2, 300560, Note_on_c, 1, 53, 127
2, 300720, Note_off_c, 1, 67, 0
2, 300760, Note_on_c, 1, 65, 127
2, 300920, Note_off_c, 1, 53, 0
2, 300920, Note_off_c, 1, 65, 0
2, 300960, Note_on_c, 1, 55, 127
2, 300960, Note_on_c, 1, 63, 127
2, 301320, Note_off_c, 1, 55, 0
2, 301320, Note_off_c, 1, 58, 0
2, 301320, Note_off_c, 1, 63, 0
2, 301360, Note_on_c, 1, 51, 127
2, 301360, Note_on_c, 1, 70, 127
2, 301520, Note_off_c, 1, 70, 0
2, 301560, Note_on_c, 1, 72, 127
2, 301600, Note_off_c, 1, 72, 0
2, 301640, Note_on_c, 1, 73, 127
2, 301720, Note_off_c, 1, 51, 0
2, 301720, Note_off_c, 1, 73, 0
2, 301760, Note_on_c, 1, 56, 127
2, 301760, Note_on_c, 1, 73, 127
2, 301840, Note_off_c, 1, 73, 0
2, 301880, Note_on_c, 1, 72, 127
2, 301920, Note_off_c, 1, 72, 0
2, 301960, Note_on_c, 1, 73, 127
2, 302000, Note_on_c, 1, 72, 127
2, 302000, Note_off_c, 1, 73, 0
2, 302040, Note_off_c, 1, 72, 0
2, 302080, Note_on_c, 1, 73, 127
2, 302120, Note_off_c, 1, 56, 0
2, 302120, Note_off_c, 1, 73, 0
2, 302160, Note_on_c, 1, 58, 127
2, 302160, Note_on_c, 1, 72, 127
2, 302320, Note_off_c, 1, 72, 0
2, 302360, Note_on_c, 1, 70, 127
2, 302520, Note_off_c, 1, 58, 0
2, 302520, Note_off_c, 1, 70, 0
2, 302560, Note_on_c, 1, 60, 127
2, 302560, Note_on_c, 1, 70, 127
2, 302680, Note_off_c, 1, 70, 0
2, 302760, Note_on_c, 1, 75, 127
2, 302920, Note_on_c, 1, 58, 127
2, 303080, Note_off_c, 1, 75, 0
2, 303120, Note_on_c, 1, 77, 127
2, 303280, Note_off_c, 1, 58, 0
2, 303280, Note_off_c, 1, 60, 0
2, 303280, Note_off_c, 1, 77, 0
2, 303320, Note_on_c, 1, 56, 127
2, 303320, Note_on_c, 1, 78, 127
2, 303480, Note_off_c, 1, 78, 0
2, 303520, Note_on_c, 1, 75, 127
2, 303680, Note_off_c, 1, 56, 0
2, 303680, Note_off_c, 1, 75, 0
2, 303720, Note_on_c, 1, 44, 127
2, 303720, Note_on_c, 1, 72, 127
2, 303720, Note_on_c, 1, 80, 127
2, 304080, Note_off_c, 1, 44, 0
2, 304080, Note_off_c, 1, 72, 0
2, 304080, Note_off_c, 1, 80, 0
2, 304120, Note_on_c, 1, 46, 127
2, 304120, Note_on_c, 1, 73, 127
2, 304120, Note_on_c, 1, 80, 127
2, 304200, Note_off_c, 1, 80, 0
2, 304240, Note_on_c, 1, 78, 127
2, 304280, Note_off_c, 1, 78, 0
2, 304320, Note_on_c, 1, 80, 127
2, 304360, Note_off_c, 1, 80, 0
2, 304400, Note_on_c, 1, 78, 127
2, 304440, Note_off_c, 1, 78, 0
2, 304440, Note_on_c, 1, 80, 127
2, 304480, Note_off_c, 1, 46, 0
2, 304480, Note_off_c, 1, 73, 0
2, 304480, Note_off_c, 1, 80, 0
2, 304520, Note_on_c, 1, 48, 127
2, 304520, Note_on_c, 1, 75, 127
2, 304520, Note_on_c, 1, 78, 127
2, 304680, Note_off_c, 1, 78, 0
2, 304720, Note_on_c, 1, 80, 127
2, 304880, Note_off_c, 1, 48, 0
2, 304880, Note_off_c, 1, 80, 0
2, 304920, Note_on_c, 1, 49, 127
2, 304920, Note_on_c, 1, 68, 127
2, 304920, Note_on_c, 1, 78, 127
2, 305080, Note_off_c, 1, 75, 0
2, 305080, Note_off_c, 1, 78, 0
2, 305120, Note_on_c, 1, 77, 127
2, 305280, Note_off_c, 1, 49, 0
2, 305280, Note_off_c, 1, 68, 0
2, 305320, Note_on_c, 1, 46, 127
2, 305320, Note_on_c, 1, 73, 127
2, 305440, Note_off_c, 1, 77, 0
2, 305520, Note_on_c, 1, 79, 127
2, 305680, Note_off_c, 1, 46, 0
2, 305680, Note_off_c, 1, 73, 0
2, 305680, Note_off_c, 1, 79, 0
2, 305720, Note_on_c, 1, 48, 127
2, 305720, Note_on_c, 1, 72, 127
2, 305720, Note_on_c, 1, 80, 127
2, 305880, Note_off_c, 1, 72, 0
2, 305880, Note_off_c, 1, 80, 0
2, 305920, Note_on_c, 1, 70, 127
2, 305920, Note_on_c, 1, 73, 127
2, 306080, Note_off_c, 1, 48, 0
2, 306080, Note_off_c, 1, 70, 0
2, 306080, Note_off_c, 1, 73, 0
2, 306120, Note_on_c, 1, 49, 127
2, 306120, Note_on_c, 1, 68, 127
2, 306120, Note_on_c, 1, 72, 127
2, 306280, Note_off_c, 1, 68, 0
2, 306280, Note_off_c, 1, 72, 0
2, 306320, Note_on_c, 1, 70, 127
2, 306480, Note_off_c, 1, 49, 0
2, 306480, Note_off_c, 1, 70, 0
2, 306520, Note_on_c, 1, 51, 127
2, 306520, Note_on_c, 1, 67, 127
2, 306520, Note_on_c, 1, 72, 127
2, 306600, Note_off_c, 1, 72, 0
2, 306640, Note_on_c, 1, 70, 127
2, 306680, Note_off_c, 1, 70, 0
2, 306720, Note_on_c, 1, 72, 127
2, 306760, Note_on_c, 1, 70, 127
2, 306760, Note_off_c, 1, 72, 0
2, 306800, Note_off_c, 1, 70, 0
2, 306840, Note_on_c, 1, 72, 127
2, 306880, Note_on_c, 1, 39, 127
2, 306880, Note_on_c, 1, 70, 127
2, 306880, Note_off_c, 1, 72, 0
2, 307040, Note_off_c, 1, 70, 0
2, 307080, Note_on_c, 1, 68, 127
2, 307240, Note_off_c, 1, 39, 0
2, 307240, Note_off_c, 1, 51, 0
2, 307240, Note_off_c, 1, 67, 0
2, 307240, Note_off_c, 1, 68, 0
2, 307280, Note_on_c, 1, 44, 127
2, 307280, Note_on_c, 1, 68, 127
2, 307680, Note_on_c, 1, 32, 127
2, 308040, Note_off_c, 1, 44, 0
2, 308080, Note_on_c, 1, 39, 127
2, 308440, Note_off_c, 1, 39, 0
2, 308480, Note_on_c, 1, 44, 127
2, 308480, Note_on_c, 1, 60, 127
2, 308480, Note_on_c, 1, 63, 127
2, 309240, Note_off_c, 1, 32, 0
2, 309240, Note_off_c, 1, 44, 0
2, 309400, Note_off_c, 1, 68, 0
2, 309440, Note_off_c, 1, 60, 0
2, 309440, Note_off_c, 1, 63, 0
2, 309480, Note_on_c, 1, 68, 127
2, 309640, Note_off_c, 1, 68, 0
2, 309680, Note_on_c, 1, 44, 127
2, 309680, Note_on_c, 1, 68, 127
2, 309880, Note_on_c, 1, 63, 127
2, 310080, Note_on_c, 1, 60, 127
2, 310120, Note_off_c, 1, 44, 0
2, 310160, Note_on_c, 1, 56, 127
2, 310240, Note_off_c, 1, 56, 0
2, 310280, Note_on_c, 1, 55, 127
2, 310320, Note_off_c, 1, 55, 0
2, 310360, Note_on_c, 1, 53, 127
2, 310440, Note_off_c, 1, 53, 0
2, 310480, Note_on_c, 1, 51, 127
2, 310640, Note_off_c, 1, 51, 0
2, 310680, Note_on_c, 1, 53, 127
2, 310720, Note_off_c, 1, 53, 0
2, 310760, Note_on_c, 1, 49, 127
2, 310840, Note_off_c, 1, 49, 0
2, 310840, Note_off_c, 1, 60, 0
2, 310840, Note_off_c, 1, 63, 0
2, 310840, Note_off_c, 1, 68, 0
2, 310880, Note_on_c, 1, 48, 127
2, 310880, Note_on_c, 1, 63, 127
2, 311000, Note_off_c, 1, 48, 0
2, 311080, Note_on_c, 1, 49, 127
2, 311120, Note_off_c, 1, 49, 0
2, 311160, Note_on_c, 1, 51, 127
2, 311200, Note_off_c, 1, 51, 0
2, 311200, Note_off_c, 1, 63, 0
2, 311240, Note_on_c, 1, 49, 127
2, 311240, Note_on_c, 1, 63, 127
2, 311400, Note_off_c, 1, 49, 0
2, 311400, Note_off_c, 1, 63, 0
2, 311440, Note_on_c, 1, 51, 127
2, 311440, Note_on_c, 1, 65, 127
2, 311480, Note_off_c, 1, 65, 0
2, 311520, Note_off_c, 1, 51, 0
2, 311520, Note_on_c, 1, 63, 127
2, 311560, Note_on_c, 1, 48, 127
2, 311560, Note_off_c, 1, 63, 0
2, 311600, Note_off_c, 1, 48, 0
2, 311600, Note_on_c, 1, 65, 127
2, 311640, Note_on_c, 1, 46, 127
2, 311800, Note_off_c, 1, 46, 0
2, 311800, Note_off_c, 1, 65, 0
2, 311840, Note_on_c, 1, 48, 127
2, 311840, Note_on_c, 1, 66, 127
2, 311920, Note_off_c, 1, 48, 0
2, 311960, Note_on_c, 1, 44, 127
2, 312000, Note_off_c, 1, 44, 0
2, 312000, Note_off_c, 1, 66, 0
2, 312040, Note_on_c, 1, 49, 127
2, 312040, Note_on_c, 1, 66, 127
2, 312120, Note_off_c, 1, 66, 0
2, 312160, Note_on_c, 1, 65, 127
2, 312200, Note_off_c, 1, 65, 0
2, 312200, Note_on_c, 1, 66, 127
2, 312240, Note_on_c, 1, 65, 127
2, 312240, Note_off_c, 1, 66, 0
2, 312320, Note_off_c, 1, 65, 0
2, 312360, Note_on_c, 1, 61, 127
2, 312400, Note_off_c, 1, 49, 0
2, 312400, Note_off_c, 1, 61, 0
2, 312400, Note_on_c, 1, 63, 127
2, 312440, Note_on_c, 1, 48, 127
2, 312440, Note_off_c, 1, 63, 0
2, 312480, Note_on_c, 1, 65, 127
2, 312520, Note_off_c, 1, 65, 0
2, 312560, Note_on_c, 1, 67, 127
2, 312600, Note_off_c, 1, 67, 0
2, 312640, Note_on_c, 1, 68, 127
2, 312680, Note_off_c, 1, 68, 0
2, 312720, Note_on_c, 1, 70, 127
2, 312760, Note_off_c, 1, 70, 0
2, 312760, Note_on_c, 1, 72, 127
2, 312800, Note_off_c, 1, 48, 0
2, 312800, Note_off_c, 1, 72, 0
2, 312840, Note_on_c, 1, 46, 127
2, 312840, Note_on_c, 1, 73, 127
2, 313040, Note_on_c, 1, 70, 127
2, 313200, Note_off_c, 1, 46, 0
2, 313200, Note_off_c, 1, 70, 0
2, 313240, Note_on_c, 1, 51, 127
2, 313240, Note_on_c, 1, 67, 127
2, 313400, Note_off_c, 1, 73, 0
2, 313440, Note_on_c, 1, 75, 127
2, 313600, Note_off_c, 1, 51, 0
2, 313600, Note_off_c, 1, 67, 0
2, 313600, Note_off_c, 1, 75, 0
2, 313640, Note_on_c, 1, 44, 127
2, 313640, Note_on_c, 1, 73, 127
2, 313680, Note_off_c, 1, 73, 0
2, 313720, Note_on_c, 1, 72, 127
2, 313760, Note_off_c, 1, 72, 0
2, 313760, Note_on_c, 1, 73, 127
2, 313800, Note_off_c, 1, 73, 0
2, 313840, Note_on_c, 1, 72, 127
2, 313920, Note_on_c, 1, 70, 127
2, 314000, Note_off_c, 1, 44, 0
2, 314000, Note_off_c, 1, 70, 0
2, 314040, Note_on_c, 1, 37, 127
2, 314040, Note_on_c, 1, 68, 127
2, 314200, Note_off_c, 1, 72, 0
2, 314240, Note_off_c, 1, 68, 0
2, 314240, Note_on_c, 1, 70, 127
2, 314400, Note_off_c, 1, 37, 0
2, 314400, Note_off_c, 1, 70, 0
2, 314440, Note_on_c, 1, 39, 127
2, 314440, Note_on_c, 1, 70, 127
2, 314640, Note_on_c, 1, 67, 127
2, 314840, Note_on_c, 1, 63, 127
2, 314880, Note_off_c, 1, 39, 0
2, 314920, Note_on_c, 1, 51, 127
2, 314960, Note_off_c, 1, 51, 0
2, 315000, Note_on_c, 1, 49, 127
2, 315080, Note_off_c, 1, 49, 0
2, 315120, Note_on_c, 1, 48, 127
2, 315160, Note_off_c, 1, 48, 0
2, 315200, Note_on_c, 1, 46, 127
2, 315360, Note_off_c, 1, 46, 0
2, 315400, Note_on_c, 1, 48, 127
2, 315480, Note_off_c, 1, 48, 0
2, 315520, Note_on_c, 1, 44, 127
2, 315560, Note_off_c, 1, 44, 0
2, 315560, Note_off_c, 1, 63, 0
2, 315560, Note_off_c, 1, 67, 0
2, 315560, Note_off_c, 1, 70, 0
2, 315600, Note_on_c, 1, 43, 127
2, 315600, Note_on_c, 1, 63, 127
2, 315720, Note_on_c, 1, 70, 127
2, 315760, Note_off_c, 1, 43, 0
2, 315800, Note_on_c, 1, 44, 127
2, 315800, Note_on_c, 1, 75, 127
2, 315880, Note_off_c, 1, 44, 0
2, 315920, Note_on_c, 1, 46, 127
2, 315960, Note_off_c, 1, 46, 0
2, 315960, Note_off_c, 1, 63, 0
2, 315960, Note_off_c, 1, 70, 0
2, 315960, Note_off_c, 1, 75, 0
2, 316000, Note_on_c, 1, 44, 127
2, 316000, Note_on_c, 1, 70, 127
2, 316000, Note_on_c, 1, 75, 127
2, 316040, Note_off_c, 1, 75, 0
2, 316080, Note_on_c, 1, 73, 127
2, 316120, Note_off_c, 1, 73, 0
2, 316160, Note_off_c, 1, 44, 0
2, 316160, Note_on_c, 1, 72, 127
2, 316200, Note_on_c, 1, 46, 127
2, 316200, Note_off_c, 1, 72, 0
2, 316200, Note_on_c, 1, 73, 127
2, 316240, Note_off_c, 1, 73, 0
2, 316280, Note_off_c, 1, 46, 0
2, 316280, Note_on_c, 1, 75, 127
2, 316320, Note_on_c, 1, 43, 127
2, 316320, Note_on_c, 1, 73, 127
2, 316320, Note_off_c, 1, 75, 0
2, 316360, Note_off_c, 1, 43, 0
2, 316360, Note_off_c, 1, 73, 0
2, 316400, Note_on_c, 1, 41, 127
2, 316400, Note_on_c, 1, 75, 127
2, 316440, Note_off_c, 1, 75, 0
2, 316480, Note_on_c, 1, 73, 127
2, 316520, Note_on_c, 1, 72, 127
2, 316520, Note_off_c, 1, 73, 0
2, 316560, Note_off_c, 1, 41, 0
2, 316560, Note_off_c, 1, 72, 0
2, 316600, Note_on_c, 1, 43, 127
2, 316600, Note_on_c, 1, 73, 127
2, 316640, Note_off_c, 1, 43, 0
2, 316640, Note_off_c, 1, 73, 0
2, 316680, Note_on_c, 1, 75, 127
2, 316720, Note_on_c, 1, 39, 127
2, 316760, Note_off_c, 1, 39, 0
2, 316760, Note_off_c, 1, 70, 0
2, 316760, Note_off_c, 1, 75, 0
2, 316800, Note_on_c, 1, 44, 127
2, 316800, Note_on_c, 1, 73, 127
2, 316960, Note_off_c, 1, 73, 0
2, 317000, Note_on_c, 1, 72, 127
2, 317160, Note_off_c, 1, 44, 0
2, 317160, Note_off_c, 1, 72, 0
2, 317200, Note_on_c, 1, 46, 127
2, 317200, Note_on_c, 1, 70, 127
2, 317360, Note_off_c, 1, 70, 0
2, 317400, Note_on_c, 1, 68, 127
2, 317560, Note_off_c, 1, 46, 0
2, 317560, Note_off_c, 1, 68, 0
2, 317600, Note_on_c, 1, 48, 127
2, 317600, Note_on_c, 1, 67, 127
2, 317760, Note_off_c, 1, 67, 0
2, 317800, Note_on_c, 1, 65, 127
2, 317960, Note_off_c, 1, 48, 0
2, 317960, Note_off_c, 1, 65, 0
2, 318000, Note_on_c, 1, 41, 127
2, 318000, Note_on_c, 1, 77, 127
2, 318360, Note_off_c, 1, 41, 0
2, 318360, Note_off_c, 1, 77, 0
2, 318400, Note_on_c, 1, 43, 127
2, 318400, Note_on_c, 1, 77, 127
2, 318440, Note_on_c, 1, 75, 127
2, 318440, Note_off_c, 1, 77, 0
2, 318480, Note_off_c, 1, 75, 0
2, 318520, Note_on_c, 1, 74, 127
2, 318560, Note_off_c, 1, 74, 0
2, 318600, Note_on_c, 1, 75, 127
2, 318640, Note_off_c, 1, 75, 0
2, 318640, Note_on_c, 1, 77, 127
2, 318680, Note_off_c, 1, 77, 0
2, 318720, Note_off_c, 1, 43, 0
2, 318720, Note_on_c, 1, 75, 127
2, 318760, Note_on_c, 1, 45, 127
2, 318760, Note_off_c, 1, 75, 0
2, 318760, Note_on_c, 1, 77, 127
2, 318800, Note_off_c, 1, 77, 0
2, 318840, Note_on_c, 1, 75, 127
2, 318880, Note_off_c, 1, 75, 0
2, 318920, Note_on_c, 1, 74, 127
2, 318960, Note_off_c, 1, 74, 0
2, 318960, Note_on_c, 1, 75, 127
2, 319000, Note_off_c, 1, 75, 0
2, 319040, Note_on_c, 1, 77, 127
2, 319120, Note_off_c, 1, 45, 0
2, 319120, Note_off_c, 1, 77, 0
2, 319160, Note_on_c, 1, 46, 127
2, 319160, Note_on_c, 1, 75, 127
2, 319320, Note_off_c, 1, 75, 0
2, 319360, Note_on_c, 1, 74, 127
2, 319520, Note_off_c, 1, 46, 0
2, 319520, Note_off_c, 1, 74, 0
2, 319560, Note_on_c, 1, 48, 127
2, 319560, Note_on_c, 1, 72, 127
2, 319720, Note_off_c, 1, 72, 0
2, 319760, Note_on_c, 1, 70, 127
2, 319920, Note_off_c, 1, 48, 0
2, 319920, Note_off_c, 1, 70, 0
2, 319960, Note_on_c, 1, 50, 127
2, 319960, Note_on_c, 1, 68, 127
2, 320120, Note_off_c, 1, 68, 0
2, 320160, Note_on_c, 1, 67, 127
2, 320320, Note_off_c, 1, 50, 0
2, 320320, Note_off_c, 1, 67, 0
2, 320360, Note_on_c, 1, 43, 127
2, 320360, Note_on_c, 1, 82, 127
2, 320720, Note_off_c, 1, 43, 0
2, 320720, Note_off_c, 1, 82, 0
2, 320760, Note_on_c, 1, 48, 127
2, 320760, Note_on_c, 1, 82, 127
2, 320800, Note_off_c, 1, 82, 0
2, 320840, Note_on_c, 1, 80, 127
2, 320880, Note_on_c, 1, 79, 127
2, 320880, Note_off_c, 1, 80, 0
2, 320920, Note_off_c, 1, 79, 0
2, 320960, Note_on_c, 1, 80, 127
2, 321000, Note_off_c, 1, 80, 0
2, 321000, Note_on_c, 1, 82, 127
2, 321040, Note_off_c, 1, 82, 0
2, 321080, Note_on_c, 1, 80, 127
2, 321120, Note_off_c, 1, 48, 0
2, 321120, Note_off_c, 1, 80, 0
2, 321160, Note_on_c, 1, 50, 127
2, 321160, Note_on_c, 1, 82, 127
2, 321200, Note_on_c, 1, 80, 127
2, 321200, Note_off_c, 1, 82, 0
2, 321240, Note_off_c, 1, 80, 0
2, 321280, Note_on_c, 1, 79, 127
2, 321320, Note_off_c, 1, 79, 0
2, 321360, Note_on_c, 1, 80, 127
2, 321400, Note_off_c, 1, 80, 0
2, 321400, Note_on_c, 1, 82, 127
2, 321520, Note_off_c, 1, 50, 0
2, 321520, Note_off_c, 1, 82, 0
2, 321560, Note_on_c, 1, 51, 127
2, 321560, Note_on_c, 1, 80, 127
2, 321600, Note_on_c, 1, 79, 127
2, 321600, Note_off_c, 1, 80, 0
2, 321640, Note_off_c, 1, 79, 0
2, 321640, Note_on_c, 1, 80, 127
2, 321680, Note_on_c, 1, 79, 127
2, 321680, Note_off_c, 1, 80, 0
2, 321720, Note_off_c, 1, 79, 0
2, 321760, Note_on_c, 1, 77, 127
2, 321920, Note_off_c, 1, 51, 0
2, 321920, Note_off_c, 1, 77, 0
2, 321960, Note_on_c, 1, 53, 127
2, 321960, Note_on_c, 1, 79, 127
2, 322080, Note_off_c, 1, 79, 0
2, 322160, Note_on_c, 1, 80, 127
2, 322280, Note_off_c, 1, 53, 0
2, 322280, Note_off_c, 1, 80, 0
2, 322320, Note_on_c, 1, 55, 127
2, 322320, Note_on_c, 1, 82, 127
2, 322480, Note_off_c, 1, 82, 0
2, 322520, Note_on_c, 1, 79, 127
2, 322680, Note_off_c, 1, 55, 0
2, 322680, Note_off_c, 1, 79, 0
2, 322720, Note_on_c, 1, 51, 127
2, 322720, Note_on_c, 1, 80, 127
2, 322880, Note_off_c, 1, 80, 0
2, 322920, Note_on_c, 1, 82, 127
2, 323080, Note_off_c, 1, 51, 0
2, 323080, Note_off_c, 1, 82, 0
2, 323120, Note_on_c, 1, 56, 127
2, 323120, Note_on_c, 1, 73, 127
2, 323160, Note_off_c, 1, 73, 0
2, 323200, Note_on_c, 1, 72, 127
2, 323240, Note_off_c, 1, 72, 0
2, 323240, Note_on_c, 1, 73, 127
2, 323280, Note_off_c, 1, 73, 0
2, 323320, Note_on_c, 1, 72, 127
2, 323360, Note_on_c, 1, 70, 127
2, 323360, Note_off_c, 1, 72, 0
2, 323480, Note_off_c, 1, 56, 0
2, 323480, Note_off_c, 1, 70, 0
2, 323520, Note_on_c, 1, 53, 127
2, 323520, Note_on_c, 1, 72, 127
2, 323680, Note_off_c, 1, 72, 0
2, 323720, Note_on_c, 1, 80, 127
2, 323880, Note_off_c, 1, 53, 0
2, 323880, Note_off_c, 1, 80, 0
2, 323920, Note_on_c, 1, 58, 127
2, 323920, Note_on_c, 1, 75, 127
2, 323960, Note_off_c, 1, 75, 0
2, 324000, Note_on_c, 1, 74, 127
2, 324040, Note_off_c, 1, 74, 0
2, 324040, Note_on_c, 1, 75, 127
2, 324080, Note_off_c, 1, 75, 0
2, 324120, Note_on_c, 1, 74, 127
2, 324160, Note_on_c, 1, 72, 127
2, 324160, Note_off_c, 1, 74, 0
2, 324280, Note_off_c, 1, 58, 0
2, 324280, Note_off_c, 1, 72, 0
2, 324320, Note_on_c, 1, 60, 127
2, 324320, Note_on_c, 1, 74, 127
2, 324480, Note_off_c, 1, 74, 0
2, 324520, Note_on_c, 1, 75, 127
2, 324680, Note_off_c, 1, 60, 0
2, 324680, Note_off_c, 1, 75, 0
2, 324720, Note_on_c, 1, 62, 127
2, 324720, Note_on_c, 1, 77, 127
2, 324920, Note_on_c, 1, 68, 127
2, 325080, Note_off_c, 1, 62, 0
2, 325080, Note_off_c, 1, 68, 0
2, 325120, Note_on_c, 1, 63, 127
2, 325120, Note_on_c, 1, 67, 127
2, 325240, Note_off_c, 1, 77, 0
2, 325280, Note_off_c, 1, 63, 0
2, 325320, Note_on_c, 1, 56, 127
2, 325320, Note_on_c, 1, 75, 127
2, 325480, Note_off_c, 1, 56, 0
2, 325480, Note_off_c, 1, 67, 0
2, 325520, Note_on_c, 1, 58, 127
2, 325520, Note_on_c, 1, 65, 127
2, 325680, Note_off_c, 1, 75, 0
2, 325720, Note_on_c, 1, 68, 127
2, 325880, Note_off_c, 1, 58, 0
2, 325920, Note_on_c, 1, 46, 127
2, 325920, Note_on_c, 1, 75, 127
2, 326080, Note_off_c, 1, 75, 0
2, 326120, Note_on_c, 1, 74, 127
2, 326240, Note_off_c, 1, 65, 0
2, 326240, Note_off_c, 1, 68, 0
2, 326280, Note_off_c, 1, 46, 0
2, 326280, Note_off_c, 1, 74, 0
2, 326320, Note_on_c, 1, 51, 127
2, 326320, Note_on_c, 1, 75, 127
2, 326520, Note_on_c, 1, 70, 127
2, 326720, Note_on_c, 1, 67, 127
2, 326880, Note_on_c, 1, 62, 127
2, 327040, Note_off_c, 1, 62, 0
2, 327080, Note_on_c, 1, 63, 127
2, 327280, Note_on_c, 1, 46, 127
2, 327440, Note_off_c, 1, 46, 0
2, 327480, Note_on_c, 1, 39, 127
2, 328240, Note_off_c, 1, 51, 0
2, 328240, Note_off_c, 1, 67, 0
2, 328240, Note_off_c, 1, 70, 0
2, 328240, Note_off_c, 1, 75, 0
2, 328320, Note_on_c, 1, 70, 127
2, 328440, Note_off_c, 1, 63, 0
2, 328600, Note_off_c, 1, 70, 0
2, 328640, Note_off_c, 1, 39, 0
2, 328680, Note_on_c, 1, 39, 127
2, 328680, Note_on_c, 1, 70, 127
2, 328880, Note_on_c, 1, 67, 127
2, 329080, Note_on_c, 1, 63, 127
2, 329120, Note_off_c, 1, 39, 0
2, 329160, Note_on_c, 1, 55, 127
2, 329240, Note_off_c, 1, 55, 0
2, 329280, Note_on_c, 1, 53, 127
2, 329320, Note_off_c, 1, 53, 0
2, 329360, Note_on_c, 1, 51, 127
2, 329440, Note_off_c, 1, 51, 0
2, 329480, Note_on_c, 1, 49, 127
2, 329640, Note_off_c, 1, 49, 0
2, 329680, Note_on_c, 1, 51, 127
2, 329720, Note_off_c, 1, 51, 0
2, 329760, Note_on_c, 1, 48, 127
2, 329840, Note_off_c, 1, 48, 0
2, 329840, Note_off_c, 1, 63, 0
2, 329840, Note_off_c, 1, 67, 0
2, 329840, Note_off_c, 1, 70, 0
2, 329880, Note_on_c, 1, 49, 127
2, 329880, Note_on_c, 1, 63, 127
2, 329880, Note_on_c, 1, 67, 127
2, 330040, Note_off_c, 1, 49, 0
2, 330080, Note_on_c, 1, 51, 127
2, 330120, Note_off_c, 1, 51, 0
2, 330160, Note_on_c, 1, 53, 127
2, 330240, Note_off_c, 1, 53, 0
2, 330240, Note_off_c, 1, 63, 0
2, 330240, Note_off_c, 1, 67, 0
2, 330280, Note_on_c, 1, 51, 127
2, 330280, Note_on_c, 1, 65, 127
2, 330280, Note_on_c, 1, 67, 127
2, 330440, Note_off_c, 1, 51, 0
2, 330440, Note_off_c, 1, 67, 0
2, 330480, Note_on_c, 1, 53, 127
2, 330480, Note_on_c, 1, 68, 127
2, 330520, Note_off_c, 1, 53, 0
2, 330520, Note_on_c, 1, 67, 127
2, 330520, Note_off_c, 1, 68, 0
2, 330560, Note_on_c, 1, 49, 127
2, 330560, Note_off_c, 1, 67, 0
2, 330600, Note_off_c, 1, 49, 0
2, 330600, Note_on_c, 1, 68, 127
2, 330680, Note_on_c, 1, 48, 127
2, 330800, Note_off_c, 1, 48, 0
2, 330800, Note_off_c, 1, 65, 0
2, 330800, Note_off_c, 1, 68, 0
2, 330880, Note_on_c, 1, 49, 127
2, 330880, Note_on_c, 1, 67, 127
2, 330880, Note_on_c, 1, 70, 127
2, 330920, Note_off_c, 1, 49, 0
2, 330960, Note_on_c, 1, 46, 127
2, 331000, Note_off_c, 1, 46, 0
2, 331000, Note_off_c, 1, 67, 0
2, 331000, Note_off_c, 1, 70, 0
2, 331040, Note_on_c, 1, 44, 127
2, 331040, Note_on_c, 1, 68, 127
2, 331040, Note_on_c, 1, 70, 127
2, 331120, Note_off_c, 1, 70, 0
2, 331160, Note_on_c, 1, 72, 127
2, 331200, Note_off_c, 1, 68, 0
2, 331200, Note_off_c, 1, 72, 0
2, 331240, Note_on_c, 1, 70, 127
2, 331320, Note_off_c, 1, 70, 0
2, 331360, Note_on_c, 1, 68, 127
2, 331400, Note_off_c, 1, 44, 0
2, 331400, Note_off_c, 1, 68, 0
2, 331440, Note_on_c, 1, 48, 127
2, 331440, Note_on_c, 1, 70, 127
2, 331520, Note_off_c, 1, 70, 0
2, 331560, Note_on_c, 1, 72, 127
2, 331600, Note_off_c, 1, 72, 0
2, 331640, Note_on_c, 1, 73, 127
2, 331720, Note_off_c, 1, 73, 0
2, 331760, Note_on_c, 1, 75, 127
2, 331800, Note_off_c, 1, 48, 0
2, 331800, Note_off_c, 1, 75, 0
2, 331840, Note_on_c, 1, 49, 127
2, 331840, Note_on_c, 1, 77, 127
2, 332040, Note_on_c, 1, 73, 127
2, 332200, Note_off_c, 1, 49, 0
2, 332200, Note_off_c, 1, 73, 0
2, 332240, Note_on_c, 1, 54, 127
2, 332240, Note_on_c, 1, 70, 127
2, 332400, Note_off_c, 1, 77, 0
2, 332440, Note_on_c, 1, 78, 127
2, 332600, Note_off_c, 1, 54, 0
2, 332600, Note_off_c, 1, 78, 0
2, 332640, Note_on_c, 1, 48, 127
2, 332640, Note_on_c, 1, 77, 127
2, 332800, Note_off_c, 1, 77, 0
2, 332840, Note_on_c, 1, 75, 127
2, 333000, Note_off_c, 1, 48, 0
2, 333000, Note_off_c, 1, 70, 0
2, 333000, Note_off_c, 1, 75, 0
2, 333040, Note_on_c, 1, 53, 127
2, 333040, Note_on_c, 1, 69, 127
2, 333040, Note_on_c, 1, 73, 127
2, 333200, Note_off_c, 1, 73, 0
2, 333240, Note_on_c, 1, 72, 127
2, 333400, Note_off_c, 1, 53, 0
2, 333400, Note_off_c, 1, 69, 0
2, 333400, Note_off_c, 1, 72, 0
2, 333440, Note_on_c, 1, 46, 127
2, 333440, Note_on_c, 1, 72, 127
2, 333640, Note_on_c, 1, 70, 127
2, 333840, Note_on_c, 1, 65, 127
2, 333880, Note_off_c, 1, 46, 0
2, 333920, Note_on_c, 1, 58, 127
2, 333960, Note_off_c, 1, 72, 0
2, 334000, Note_off_c, 1, 58, 0
2, 334040, Note_on_c, 1, 56, 127
2, 334040, Note_on_c, 1, 73, 127
2, 334080, Note_off_c, 1, 56, 0
2, 334120, Note_on_c, 1, 54, 127
2, 334200, Note_off_c, 1, 54, 0
2, 334240, Note_on_c, 1, 53, 127
2, 334400, Note_off_c, 1, 53, 0
2, 334440, Note_on_c, 1, 54, 127
2, 334480, Note_off_c, 1, 54, 0
2, 334520, Note_on_c, 1, 51, 127
2, 334560, Note_off_c, 1, 51, 0
2, 334560, Note_off_c, 1, 65, 0
2, 334560, Note_off_c, 1, 73, 0
2, 334600, Note_off_c, 1, 70, 0
2, 334640, Note_on_c, 1, 49, 127
2, 334640, Note_on_c, 1, 70, 127
2, 334720, Note_on_c, 1, 77, 127
2, 334760, Note_off_c, 1, 49, 0
2, 334800, Note_on_c, 1, 51, 127
2, 334800, Note_on_c, 1, 82, 127
2, 334880, Note_off_c, 1, 51, 0
2, 334920, Note_on_c, 1, 53, 127
2, 334960, Note_off_c, 1, 53, 0
2, 334960, Note_off_c, 1, 70, 0
2, 334960, Note_off_c, 1, 77, 0
2, 334960, Note_off_c, 1, 82, 0
2, 335000, Note_on_c, 1, 51, 127
2, 335000, Note_on_c, 1, 77, 127
2, 335000, Note_on_c, 1, 82, 127
2, 335040, Note_off_c, 1, 82, 0
2, 335080, Note_on_c, 1, 80, 127
2, 335120, Note_off_c, 1, 80, 0
2, 335160, Note_off_c, 1, 51, 0
2, 335160, Note_on_c, 1, 79, 127
2, 335200, Note_on_c, 1, 53, 127
2, 335200, Note_off_c, 1, 79, 0
2, 335200, Note_on_c, 1, 80, 127
2, 335240, Note_off_c, 1, 80, 0
2, 335280, Note_off_c, 1, 53, 0
2, 335280, Note_on_c, 1, 82, 127
2, 335320, Note_on_c, 1, 50, 127
2, 335320, Note_off_c, 1, 82, 0
2, 335360, Note_off_c, 1, 50, 0
2, 335360, Note_on_c, 1, 80, 127
2, 335400, Note_on_c, 1, 48, 127
2, 335400, Note_off_c, 1, 80, 0
2, 335400, Note_on_c, 1, 82, 127
2, 335440, Note_off_c, 1, 82, 0
2, 335480, Note_on_c, 1, 80, 127
2, 335520, Note_off_c, 1, 80, 0
2, 335560, Note_off_c, 1, 48, 0
2, 335560, Note_on_c, 1, 79, 127
2, 335600, Note_on_c, 1, 50, 127
2, 335600, Note_off_c, 1, 79, 0
2, 335600, Note_on_c, 1, 80, 127
2, 335640, Note_off_c, 1, 80, 0
2, 335680, Note_off_c, 1, 50, 0
2, 335680, Note_on_c, 1, 82, 127
2, 335720, Note_on_c, 1, 46, 127
2, 335760, Note_off_c, 1, 46, 0
2, 335760, Note_off_c, 1, 77, 0
2, 335760, Note_off_c, 1, 82, 0
2, 335800, Note_on_c, 1, 51, 127
2, 335800, Note_on_c, 1, 80, 127
2, 335960, Note_off_c, 1, 80, 0
2, 336000, Note_on_c, 1, 78, 127
2, 336160, Note_off_c, 1, 51, 0
2, 336160, Note_off_c, 1, 78, 0
2, 336200, Note_on_c, 1, 53, 127
2, 336200, Note_on_c, 1, 77, 127
2, 336360, Note_off_c, 1, 77, 0
2, 336400, Note_on_c, 1, 75, 127
2, 336560, Note_off_c, 1, 53, 0
2, 336560, Note_off_c, 1, 75, 0
2, 336600, Note_on_c, 1, 54, 127
2, 336600, Note_on_c, 1, 73, 127
2, 336760, Note_off_c, 1, 73, 0
2, 336800, Note_on_c, 1, 72, 127
2, 336960, Note_off_c, 1, 54, 0
2, 336960, Note_off_c, 1, 72, 0
2, 337000, Note_on_c, 1, 53, 127
2, 337000, Note_on_c, 1, 70, 127
2, 337160, Note_off_c, 1, 70, 0
2, 337200, Note_on_c, 1, 72, 127
2, 337360, Note_off_c, 1, 53, 0
2, 337360, Note_off_c, 1, 72, 0
2, 337400, Note_on_c, 1, 51, 127
2, 337400, Note_on_c, 1, 73, 127
2, 337440, Note_off_c, 1, 51, 0
2, 337480, Note_on_c, 1, 53, 127
2, 337560, Note_off_c, 1, 53, 0
2, 337560, Note_off_c, 1, 73, 0
2, 337600, Note_on_c, 1, 51, 127
2, 337600, Note_on_c, 1, 77, 127
2, 337760, Note_off_c, 1, 51, 0
2, 337760, Note_off_c, 1, 77, 0
2, 337800, Note_on_c, 1, 49, 127
2, 337800, Note_on_c, 1, 75, 127
2, 337960, Note_off_c, 1, 75, 0
2, 338000, Note_on_c, 1, 73, 127
2, 338160, Note_off_c, 1, 49, 0
2, 338160, Note_off_c, 1, 73, 0
2, 338200, Note_on_c, 1, 56, 127
2, 338200, Note_on_c, 1, 73, 127
2, 338240, Note_on_c, 1, 72, 127
2, 338240, Note_off_c, 1, 73, 0
2, 338280, Note_off_c, 1, 72, 0
2, 338320, Note_on_c, 1, 73, 127
2, 338360, Note_on_c, 1, 72, 127
2, 338360, Note_off_c, 1, 73, 0
2, 338400, Note_off_c, 1, 72, 0
2, 338440, Note_on_c, 1, 70, 127
2, 338520, Note_off_c, 1, 70, 0
2, 338600, Note_on_c, 1, 60, 127
2, 338600, Note_on_c, 1, 68, 127
2, 338720, Note_off_c, 1, 68, 0
2, 338760, Note_on_c, 1, 70, 127
2, 338920, Note_off_c, 1, 60, 0
2, 338920, Note_off_c, 1, 70, 0
2, 338960, Note_on_c, 1, 63, 127
2, 338960, Note_on_c, 1, 72, 127
2, 339120, Note_off_c, 1, 72, 0
2, 339160, Note_on_c, 1, 73, 127
2, 339320, Note_off_c, 1, 56, 0
2, 339320, Note_off_c, 1, 63, 0
2, 339320, Note_off_c, 1, 73, 0
2, 339360, Note_on_c, 1, 56, 127
2, 339360, Note_on_c, 1, 60, 127
2, 339360, Note_on_c, 1, 75, 127
2, 339520, Note_off_c, 1, 75, 0
2, 339560, Note_on_c, 1, 77, 127
2, 339720, Note_off_c, 1, 56, 0
2, 339720, Note_off_c, 1, 60, 0
2, 339720, Note_off_c, 1, 77, 0
2, 339760, Note_on_c, 1, 58, 127
2, 339760, Note_on_c, 1, 61, 127
2, 339760, Note_on_c, 1, 78, 127
2, 339920, Note_off_c, 1, 78, 0
2, 339960, Note_on_c, 1, 82, 127
2, 340120, Note_off_c, 1, 58, 0
2, 340120, Note_off_c, 1, 61, 0
2, 340120, Note_off_c, 1, 82, 0
2, 340160, Note_on_c, 1, 60, 127
2, 340160, Note_on_c, 1, 63, 127
2, 340160, Note_on_c, 1, 80, 127
2, 340320, Note_off_c, 1, 80, 0
2, 340360, Note_on_c, 1, 78, 127
2, 340520, Note_off_c, 1, 60, 0
2, 340520, Note_off_c, 1, 63, 0
2, 340520, Note_off_c, 1, 78, 0
2, 340560, Note_on_c, 1, 61, 127
2, 340560, Note_on_c, 1, 77, 127
2, 340720, Note_off_c, 1, 77, 0
2, 340760, Note_on_c, 1, 78, 127
2, 340920, Note_off_c, 1, 61, 0
2, 340920, Note_off_c, 1, 78, 0
2, 340960, Note_on_c, 1, 49, 127
2, 340960, Note_on_c, 1, 77, 127
2, 341120, Note_off_c, 1, 49, 0
2, 341120, Note_off_c, 1, 77, 0
2, 341160, Note_on_c, 1, 51, 127
2, 341160, Note_on_c, 1, 75, 127
2, 341320, Note_off_c, 1, 51, 0
2, 341320, Note_off_c, 1, 75, 0
2, 341360, Note_on_c, 1, 53, 127
2, 341360, Note_on_c, 1, 73, 127
2, 341520, Note_off_c, 1, 73, 0
2, 341560, Note_on_c, 1, 72, 127
2, 341720, Note_off_c, 1, 53, 0
2, 341720, Note_off_c, 1, 72, 0
2, 341760, Note_on_c, 1, 54, 127
2, 341760, Note_on_c, 1, 70, 127
2, 341920, Note_off_c, 1, 70, 0
2, 341960, Note_on_c, 1, 75, 127
2, 342120, Note_off_c, 1, 54, 0
2, 342120, Note_off_c, 1, 75, 0
2, 342160, Note_on_c, 1, 56, 127
2, 342160, Note_on_c, 1, 73, 127
2, 342240, Note_off_c, 1, 73, 0
2, 342280, Note_on_c, 1, 72, 127
2, 342320, Note_off_c, 1, 72, 0
2, 342360, Note_on_c, 1, 73, 127
2, 342400, Note_on_c, 1, 72, 127
2, 342400, Note_off_c, 1, 73, 0
2, 342440, Note_off_c, 1, 72, 0
2, 342480, Note_off_c, 1, 56, 0
2, 342480, Note_on_c, 1, 73, 127
2, 342520, Note_on_c, 1, 44, 127
2, 342520, Note_on_c, 1, 72, 127
2, 342520, Note_off_c, 1, 73, 0
2, 342680, Note_off_c, 1, 72, 0
2, 342720, Note_on_c, 1, 73, 127
2, 342880, Note_off_c, 1, 44, 0
2, 342880, Note_off_c, 1, 73, 0
2, 342920, Note_on_c, 1, 37, 127
2, 342920, Note_on_c, 1, 73, 127
2, 343120, Note_on_c, 1, 68, 127
2, 343320, Note_on_c, 1, 65, 127
2, 343400, Note_off_c, 1, 37, 0
2, 343440, Note_on_c, 1, 53, 127
2, 343480, Note_off_c, 1, 53, 0
2, 343520, Note_on_c, 1, 51, 127
2, 343600, Note_off_c, 1, 51, 0
2, 343640, Note_on_c, 1, 49, 127
2, 343680, Note_off_c, 1, 49, 0
2, 343720, Note_on_c, 1, 48, 127
2, 343880, Note_off_c, 1, 48, 0
2, 343920, Note_on_c, 1, 49, 127
2, 344000, Note_off_c, 1, 49, 0
2, 344040, Note_on_c, 1, 46, 127
2, 344080, Note_off_c, 1, 46, 0
2, 344080, Note_off_c, 1, 65, 0
2, 344080, Note_off_c, 1, 68, 0
2, 344080, Note_off_c, 1, 73, 0
2, 344120, Note_on_c, 1, 45, 127
2, 344120, Note_on_c, 1, 77, 127
2, 344280, Note_off_c, 1, 45, 0
2, 344280, Note_off_c, 1, 77, 0
2, 344320, Note_on_c, 1, 46, 127
2, 344320, Note_on_c, 1, 78, 127
2, 344360, Note_off_c, 1, 46, 0
2, 344360, Note_off_c, 1, 78, 0
2, 344400, Note_on_c, 1, 48, 127
2, 344400, Note_on_c, 1, 80, 127
2, 344480, Note_off_c, 1, 48, 0
2, 344480, Note_off_c, 1, 80, 0
2, 344520, Note_on_c, 1, 46, 127
2, 344520, Note_on_c, 1, 80, 127
2, 344600, Note_off_c, 1, 80, 0
2, 344640, Note_on_c, 1, 78, 127
2, 344680, Note_off_c, 1, 46, 0
2, 344680, Note_off_c, 1, 78, 0
2, 344720, Note_on_c, 1, 48, 127
2, 344720, Note_on_c, 1, 80, 127
2, 344760, Note_off_c, 1, 48, 0
2, 344760, Note_off_c, 1, 80, 0
2, 344800, Note_on_c, 1, 44, 127
2, 344800, Note_on_c, 1, 78, 127
2, 344840, Note_off_c, 1, 78, 0
2, 344840, Note_on_c, 1, 80, 127
2, 344880, Note_off_c, 1, 44, 0
2, 344880, Note_off_c, 1, 80, 0
2, 344920, Note_on_c, 1, 42, 127
2, 344920, Note_on_c, 1, 78, 127
2, 345080, Note_off_c, 1, 42, 0
2, 345080, Note_off_c, 1, 78, 0
2, 345120, Note_on_c, 1, 44, 127
2, 345120, Note_on_c, 1, 77, 127
2, 345160, Note_off_c, 1, 44, 0
2, 345200, Note_on_c, 1, 41, 127
2, 345280, Note_off_c, 1, 41, 0
2, 345280, Note_off_c, 1, 77, 0
2, 345320, Note_on_c, 1, 42, 127
2, 345320, Note_on_c, 1, 77, 127
2, 345480, Note_off_c, 1, 77, 0
2, 345520, Note_on_c, 1, 75, 127
2, 345680, Note_off_c, 1, 42, 0
2, 345680, Note_off_c, 1, 75, 0
2, 345720, Note_on_c, 1, 41, 127
2, 345720, Note_on_c, 1, 73, 127
2, 345760, Note_off_c, 1, 41, 0
2, 345800, Note_on_c, 1, 42, 127
2, 345880, Note_off_c, 1, 42, 0
2, 345880, Note_off_c, 1, 73, 0
2, 345920, Note_on_c, 1, 41, 127
2, 345920, Note_on_c, 1, 72, 127
2, 346040, Note_off_c, 1, 41, 0
2, 346040, Note_off_c, 1, 72, 0
2, 346120, Note_on_c, 1, 39, 127
2, 346120, Note_on_c, 1, 73, 127
2, 346240, Note_off_c, 1, 73, 0
2, 346280, Note_on_c, 1, 72, 127
2, 346440, Note_off_c, 1, 39, 0
2, 346440, Note_off_c, 1, 72, 0
2, 346480, Note_on_c, 1, 48, 127
2, 346480, Note_on_c, 1, 70, 127
2, 346640, Note_off_c, 1, 70, 0
2, 346680, Note_on_c, 1, 69, 127
2, 346840, Note_off_c, 1, 48, 0
2, 346840, Note_off_c, 1, 69, 0
2, 346880, Note_on_c, 1, 49, 127
2, 346880, Note_on_c, 1, 70, 127
2, 347040, Note_off_c, 1, 70, 0
2, 347080, Note_on_c, 1, 69, 127
2, 347240, Note_off_c, 1, 49, 0
2, 347240, Note_off_c, 1, 69, 0
2, 347280, Note_on_c, 1, 51, 127
2, 347280, Note_on_c, 1, 70, 127
2, 347440, Note_off_c, 1, 70, 0
2, 347480, Note_on_c, 1, 72, 127
2, 347640, Note_off_c, 1, 51, 0
2, 347640, Note_off_c, 1, 72, 0
2, 347680, Note_on_c, 1, 53, 127
2, 347680, Note_on_c, 1, 69, 127
2, 347840, Note_off_c, 1, 69, 0
2, 347880, Note_on_c, 1, 67, 127
2, 348040, Note_off_c, 1, 67, 0
2, 348080, Note_on_c, 1, 57, 127
2, 348080, Note_on_c, 1, 65, 127
2, 348240, Note_off_c, 1, 65, 0
2, 348280, Note_on_c, 1, 67, 127
2, 348440, Note_off_c, 1, 57, 0
2, 348440, Note_off_c, 1, 67, 0
2, 348480, Note_on_c, 1, 60, 127
2, 348480, Note_on_c, 1, 69, 127
2, 348640, Note_off_c, 1, 69, 0
2, 348680, Note_on_c, 1, 70, 127
2, 348840, Note_off_c, 1, 53, 0
2, 348840, Note_off_c, 1, 60, 0
2, 348840, Note_off_c, 1, 70, 0
2, 348880, Note_on_c, 1, 53, 127
2, 348880, Note_on_c, 1, 57, 127
2, 348880, Note_on_c, 1, 72, 127
2, 349040, Note_off_c, 1, 72, 0
2, 349080, Note_on_c, 1, 73, 127
2, 349240, Note_off_c, 1, 53, 0
2, 349240, Note_off_c, 1, 57, 0
2, 349240, Note_off_c, 1, 73, 0
2, 349280, Note_on_c, 1, 55, 127
2, 349280, Note_on_c, 1, 58, 127
2, 349280, Note_on_c, 1, 75, 127
2, 349440, Note_off_c, 1, 75, 0
2, 349480, Note_on_c, 1, 78, 127
2, 349640, Note_off_c, 1, 55, 0
2, 349640, Note_off_c, 1, 58, 0
2, 349640, Note_off_c, 1, 78, 0
2, 349680, Note_on_c, 1, 57, 127
2, 349680, Note_on_c, 1, 60, 127
2, 349680, Note_on_c, 1, 77, 127
2, 349800, Note_off_c, 1, 77, 0
2, 349880, Note_on_c, 1, 75, 127
2, 350000, Note_off_c, 1, 57, 0
2, 350000, Note_off_c, 1, 60, 0
2, 350000, Note_off_c, 1, 75, 0
2, 350040, Note_on_c, 1, 58, 127
2, 350040, Note_on_c, 1, 73, 127
2, 350200, Note_off_c, 1, 58, 0
2, 350200, Note_off_c, 1, 73, 0
2, 350240, Note_on_c, 1, 60, 127
2, 350240, Note_on_c, 1, 75, 127
2, 350400, Note_off_c, 1, 60, 0
2, 350400, Note_off_c, 1, 75, 0
2, 350440, Note_on_c, 1, 58, 127
2, 350440, Note_on_c, 1, 73, 127
2, 350600, Note_off_c, 1, 58, 0
2, 350600, Note_off_c, 1, 73, 0
2, 350640, Note_on_c, 1, 56, 127
2, 350640, Note_on_c, 1, 72, 127
2, 350800, Note_off_c, 1, 56, 0
2, 350800, Note_off_c, 1, 72, 0
2, 350840, Note_on_c, 1, 54, 127
2, 350840, Note_on_c, 1, 70, 127
2, 351000, Note_off_c, 1, 54, 0
2, 351000, Note_off_c, 1, 70, 0
2, 351040, Note_on_c, 1, 53, 127
2, 351040, Note_on_c, 1, 69, 127
2, 351200, Note_off_c, 1, 53, 0
2, 351200, Note_off_c, 1, 69, 0
2, 351240, Note_on_c, 1, 54, 127
2, 351240, Note_on_c, 1, 70, 127
2, 351400, Note_off_c, 1, 54, 0
2, 351400, Note_off_c, 1, 70, 0
2, 351440, Note_on_c, 1, 51, 127
2, 351440, Note_on_c, 1, 72, 127
2, 351600, Note_off_c, 1, 51, 0
2, 351600, Note_off_c, 1, 72, 0
2, 351640, Note_on_c, 1, 53, 127
2, 351640, Note_on_c, 1, 69, 127
2, 351640, Note_on_c, 1, 73, 127
2, 351680, Note_off_c, 1, 73, 0
2, 351720, Note_on_c, 1, 72, 127
2, 351760, Note_off_c, 1, 72, 0
2, 351760, Note_on_c, 1, 73, 127
2, 351800, Note_off_c, 1, 73, 0
2, 351840, Note_on_c, 1, 72, 127
2, 351880, Note_off_c, 1, 72, 0
2, 351920, Note_on_c, 1, 73, 127
2, 351960, Note_on_c, 1, 72, 127
2, 351960, Note_off_c, 1, 73, 0
2, 352000, Note_off_c, 1, 53, 0
2, 352040, Note_on_c, 1, 41, 127
2, 352160, Note_off_c, 1, 69, 0
2, 352200, Note_off_c, 1, 72, 0
2, 352240, Note_on_c, 1, 70, 127
2, 352400, Note_off_c, 1, 41, 0
2, 352400, Note_off_c, 1, 70, 0
2, 352440, Note_on_c, 1, 34, 127
2, 352440, Note_on_c, 1, 70, 127
2, 352640, Note_on_c, 1, 65, 127
2, 352840, Note_on_c, 1, 61, 127
2, 352880, Note_off_c, 1, 34, 0
2, 352920, Note_on_c, 1, 51, 127
2, 353000, Note_off_c, 1, 51, 0
2, 353040, Note_on_c, 1, 49, 127
2, 353080, Note_off_c, 1, 49, 0
2, 353120, Note_on_c, 1, 48, 127
2, 353200, Note_off_c, 1, 48, 0
2, 353240, Note_on_c, 1, 46, 127
2, 353400, Note_off_c, 1, 46, 0
2, 353440, Note_on_c, 1, 48, 127
2, 353480, Note_off_c, 1, 48, 0
2, 353520, Note_on_c, 1, 44, 127
2, 353560, Note_off_c, 1, 44, 0
2, 353560, Note_off_c, 1, 61, 0
2, 353560, Note_off_c, 1, 70, 0
2, 353600, Note_off_c, 1, 65, 0
2, 353640, Note_on_c, 1, 43, 127
2, 353640, Note_on_c, 1, 70, 127
2, 353760, Note_off_c, 1, 43, 0
2, 353800, Note_on_c, 1, 44, 127
2, 353880, Note_off_c, 1, 44, 0
2, 353920, Note_on_c, 1, 46, 127
2, 353960, Note_off_c, 1, 46, 0
2, 353960, Note_off_c, 1, 70, 0
2, 354000, Note_on_c, 1, 44, 127
2, 354000, Note_on_c, 1, 72, 127
2, 354040, Note_off_c, 1, 72, 0
2, 354080, Note_on_c, 1, 73, 127
2, 354120, Note_off_c, 1, 73, 0
2, 354160, Note_off_c, 1, 44, 0
2, 354160, Note_on_c, 1, 75, 127
2, 354200, Note_on_c, 1, 46, 127
2, 354280, Note_off_c, 1, 46, 0
2, 354320, Note_on_c, 1, 43, 127
2, 354360, Note_off_c, 1, 43, 0
2, 354400, Note_on_c, 1, 41, 127
2, 354560, Note_off_c, 1, 41, 0
2, 354560, Note_off_c, 1, 75, 0
2, 354600, Note_on_c, 1, 43, 127
2, 354600, Note_on_c, 1, 73, 127
2, 354680, Note_off_c, 1, 43, 0
2, 354720, Note_on_c, 1, 39, 127
2, 354760, Note_off_c, 1, 39, 0
2, 354760, Note_off_c, 1, 73, 0
2, 354800, Note_on_c, 1, 44, 127
2, 354800, Note_on_c, 1, 72, 127
2, 354960, Note_off_c, 1, 72, 0
2, 355000, Note_on_c, 1, 73, 127
2, 355160, Note_off_c, 1, 44, 0
2, 355160, Note_off_c, 1, 73, 0
2, 355200, Note_on_c, 1, 46, 127
2, 355200, Note_on_c, 1, 72, 127
2, 355360, Note_off_c, 1, 72, 0
2, 355400, Note_on_c, 1, 70, 127
2, 355560, Note_off_c, 1, 46, 0
2, 355560, Note_off_c, 1, 70, 0
2, 355600, Note_on_c, 1, 48, 127
2, 355600, Note_on_c, 1, 68, 127
2, 355760, Note_off_c, 1, 68, 0
2, 355800, Note_on_c, 1, 67, 127
2, 355960, Note_off_c, 1, 48, 0
2, 355960, Note_off_c, 1, 67, 0
2, 356000, Note_on_c, 1, 49, 127
2, 356000, Note_on_c, 1, 65, 127
2, 356160, Note_off_c, 1, 49, 0
2, 356160, Note_off_c, 1, 65, 0
2, 356200, Note_on_c, 1, 48, 127
2, 356200, Note_on_c, 1, 67, 127
2, 356360, Note_off_c, 1, 48, 0
2, 356360, Note_off_c, 1, 67, 0
2, 356400, Note_on_c, 1, 46, 127
2, 356400, Note_on_c, 1, 68, 127
2, 356440, Note_off_c, 1, 46, 0
2, 356480, Note_on_c, 1, 48, 127
2, 356560, Note_off_c, 1, 48, 0
2, 356560, Note_off_c, 1, 68, 0
2, 356600, Note_on_c, 1, 46, 127
2, 356600, Note_on_c, 1, 72, 127
2, 356760, Note_off_c, 1, 46, 0
2, 356760, Note_off_c, 1, 72, 0
2, 356800, Note_on_c, 1, 44, 127
2, 356800, Note_on_c, 1, 70, 127
2, 356960, Note_off_c, 1, 70, 0
2, 357000, Note_on_c, 1, 68, 127
2, 357160, Note_off_c, 1, 44, 0
2, 357160, Note_off_c, 1, 68, 0
2, 357200, Note_on_c, 1, 51, 127
2, 357200, Note_on_c, 1, 67, 127
2, 357320, Note_off_c, 1, 67, 0
2, 357400, Note_on_c, 1, 65, 127
2, 357520, Note_off_c, 1, 65, 0
2, 357560, Note_on_c, 1, 55, 127
2, 357560, Note_on_c, 1, 63, 127
2, 357720, Note_off_c, 1, 63, 0
2, 357760, Note_on_c, 1, 65, 127
2, 357920, Note_off_c, 1, 55, 0
2, 357920, Note_off_c, 1, 65, 0
2, 357960, Note_on_c, 1, 58, 127
2, 357960, Note_on_c, 1, 67, 127
2, 358120, Note_off_c, 1, 67, 0
2, 358160, Note_on_c, 1, 68, 127
2, 358320, Note_off_c, 1, 51, 0
2, 358320, Note_off_c, 1, 68, 0
2, 358360, Note_on_c, 1, 51, 127
2, 358360, Note_on_c, 1, 70, 127
2, 358520, Note_off_c, 1, 70, 0
2, 358560, Note_on_c, 1, 72, 127
2, 358720, Note_off_c, 1, 51, 0
2, 358720, Note_off_c, 1, 58, 0
2, 358720, Note_off_c, 1, 72, 0
2, 358760, Note_on_c, 1, 56, 127
2, 358760, Note_on_c, 1, 73, 127
2, 358920, Note_off_c, 1, 73, 0
2, 358960, Note_on_c, 1, 72, 127
2, 359120, Note_off_c, 1, 56, 0
2, 359120, Note_off_c, 1, 72, 0
2, 359160, Note_on_c, 1, 58, 127
2, 359160, Note_on_c, 1, 70, 127
2, 359200, Note_off_c, 1, 70, 0
2, 359240, Note_on_c, 1, 72, 127
2, 359280, Note_on_c, 1, 70, 127
2, 359280, Note_off_c, 1, 72, 0
2, 359320, Note_off_c, 1, 70, 0
2, 359360, Note_on_c, 1, 68, 127
2, 359520, Note_off_c, 1, 58, 0
2, 359520, Note_off_c, 1, 68, 0
2, 359560, Note_on_c, 1, 60, 127
2, 359560, Note_on_c, 1, 75, 127
2, 359720, Note_off_c, 1, 75, 0
2, 359760, Note_on_c, 1, 73, 127
2, 359920, Note_off_c, 1, 73, 0
2, 359960, Note_on_c, 1, 63, 127
2, 359960, Note_on_c, 1, 72, 127
2, 360120, Note_off_c, 1, 72, 0
2, 360160, Note_on_c, 1, 73, 127
2, 360320, Note_off_c, 1, 63, 0
2, 360320, Note_off_c, 1, 73, 0
2, 360360, Note_on_c, 1, 68, 127
2, 360360, Note_on_c, 1, 75, 127
2, 360520, Note_off_c, 1, 75, 0
2, 360560, Note_on_c, 1, 77, 127
2, 360720, Note_off_c, 1, 60, 0
2, 360720, Note_off_c, 1, 68, 0
2, 360720, Note_off_c, 1, 77, 0
2, 360760, Note_on_c, 1, 56, 127
2, 360760, Note_on_c, 1, 60, 127
2, 360760, Note_on_c, 1, 78, 127
2, 360880, Note_off_c, 1, 78, 0
2, 360960, Note_on_c, 1, 77, 127
2, 361080, Note_off_c, 1, 56, 0
2, 361080, Note_off_c, 1, 60, 0
2, 361080, Note_off_c, 1, 77, 0
2, 361120, Note_on_c, 1, 58, 127
2, 361120, Note_on_c, 1, 61, 127
2, 361120, Note_on_c, 1, 78, 127
2, 361280, Note_off_c, 1, 78, 0
2, 361320, Note_on_c, 1, 82, 127
2, 361480, Note_off_c, 1, 58, 0
2, 361480, Note_off_c, 1, 61, 0
2, 361480, Note_off_c, 1, 82, 0
2, 361520, Note_on_c, 1, 60, 127
2, 361520, Note_on_c, 1, 63, 127
2, 361520, Note_on_c, 1, 80, 127
2, 361680, Note_off_c, 1, 80, 0
2, 361720, Note_on_c, 1, 78, 127
2, 361880, Note_off_c, 1, 60, 0
2, 361880, Note_off_c, 1, 63, 0
2, 361880, Note_off_c, 1, 78, 0
2, 361920, Note_on_c, 1, 61, 127
2, 361920, Note_on_c, 1, 77, 127
2, 362080, Note_off_c, 1, 77, 0
2, 362120, Note_on_c, 1, 75, 127
2, 362280, Note_off_c, 1, 61, 0
2, 362280, Note_off_c, 1, 75, 0
2, 362320, Note_on_c, 1, 60, 127
2, 362320, Note_on_c, 1, 77, 127
2, 362480, Note_off_c, 1, 60, 0
2, 362480, Note_off_c, 1, 77, 0
2, 362520, Note_on_c, 1, 58, 127
2, 362520, Note_on_c, 1, 79, 127
2, 362680, Note_off_c, 1, 58, 0
2, 362680, Note_off_c, 1, 79, 0
2, 362720, Note_on_c, 1, 60, 127
2, 362720, Note_on_c, 1, 80, 127
2, 362880, Note_off_c, 1, 80, 0
2, 362920, Note_on_c, 1, 73, 127
2, 363080, Note_off_c, 1, 60, 0
2, 363080, Note_off_c, 1, 73, 0
2, 363120, Note_on_c, 1, 61, 127
2, 363120, Note_on_c, 1, 72, 127
2, 363280, Note_off_c, 1, 72, 0
2, 363320, Note_on_c, 1, 70, 127
2, 363480, Note_off_c, 1, 61, 0
2, 363480, Note_off_c, 1, 70, 0
2, 363520, Note_on_c, 1, 63, 127
2, 363520, Note_on_c, 1, 67, 127
2, 363520, Note_on_c, 1, 72, 127
2, 363600, Note_off_c, 1, 72, 0
2, 363640, Note_on_c, 1, 70, 127
2, 363680, Note_off_c, 1, 70, 0
2, 363720, Note_on_c, 1, 72, 127
2, 363760, Note_on_c, 1, 70, 127
2, 363760, Note_off_c, 1, 72, 0
2, 363800, Note_off_c, 1, 70, 0
2, 363840, Note_on_c, 1, 72, 127
2, 363880, Note_off_c, 1, 63, 0
2, 363880, Note_off_c, 1, 72, 0
2, 363920, Note_on_c, 1, 51, 127
2, 363920, Note_on_c, 1, 70, 127
2, 363960, Note_off_c, 1, 70, 0
2, 363960, Note_on_c, 1, 72, 127
2, 364000, Note_off_c, 1, 72, 0
2, 364040, Note_off_c, 1, 67, 0
2, 364040, Note_on_c, 1, 70, 127
2, 364080, Note_off_c, 1, 70, 0
2, 364120, Note_on_c, 1, 68, 127
2, 364280, Note_off_c, 1, 51, 0
2, 364280, Note_off_c, 1, 68, 0
2, 364320, Note_on_c, 1, 44, 127
2, 364320, Note_on_c, 1, 68, 127
2, 364520, Note_on_c, 1, 63, 127
2, 364720, Note_on_c, 1, 60, 127
2, 364880, Note_on_c, 1, 55, 127
2, 365040, Note_off_c, 1, 55, 0
2, 365080, Note_on_c, 1, 56, 127
2, 365240, Note_off_c, 1, 44, 0
2, 365280, Note_on_c, 1, 39, 127
2, 365440, Note_off_c, 1, 39, 0
2, 365480, Note_on_c, 1, 32, 127
2, 366240, Note_off_c, 1, 60, 0
2, 366240, Note_off_c, 1, 63, 0
2, 366240, Note_off_c, 1, 68, 0
2, 366440, Note_off_c, 1, 56, 0
2, 366480, Note_on_c, 1, 68, 127
2, 366640, Note_off_c, 1, 32, 0
2, 366640, Note_off_c, 1, 68, 0
2, 366680, Note_on_c, 1, 56, 127
2, 366680, Note_on_c, 1, 68, 127
2, 366880, Note_on_c, 1, 63, 127
2, 367080, Note_on_c, 1, 60, 127
2, 367240, Note_off_c, 1, 56, 0
2, 367280, Note_on_c, 1, 44, 127
2, 367440, Note_off_c, 1, 44, 0
2, 367480, Note_on_c, 1, 46, 127
2, 367640, Note_off_c, 1, 46, 0
2, 367680, Note_on_c, 1, 49, 127
2, 367840, Note_off_c, 1, 49, 0
2, 367840, Note_off_c, 1, 60, 0
2, 367840, Note_off_c, 1, 63, 0
2, 367840, Note_off_c, 1, 68, 0
2, 367880, Note_on_c, 1, 48, 127
2, 367880, Note_on_c, 1, 63, 127
2, 368040, Note_off_c, 1, 48, 0
2, 368080, Note_on_c, 1, 51, 127
2, 368240, Note_off_c, 1, 51, 0
2, 368240, Note_off_c, 1, 63, 0
2, 368280, Note_on_c, 1, 49, 127
2, 368280, Note_on_c, 1, 63, 127
2, 368360, Note_off_c, 1, 63, 0
2, 368400, Note_on_c, 1, 65, 127
2, 368440, Note_off_c, 1, 49, 0
2, 368440, Note_off_c, 1, 65, 0
2, 368480, Note_on_c, 1, 48, 127
2, 368480, Note_on_c, 1, 63, 127
2, 368520, Note_off_c, 1, 63, 0
2, 368520, Note_on_c, 1, 65, 127
2, 368600, Note_off_c, 1, 48, 0
2, 368680, Note_on_c, 1, 46, 127
2, 368800, Note_off_c, 1, 46, 0
2, 368800, Note_off_c, 1, 65, 0
2, 368840, Note_on_c, 1, 44, 127
2, 368840, Note_on_c, 1, 66, 127
2, 369000, Note_off_c, 1, 44, 0
2, 369000, Note_off_c, 1, 66, 0
2, 369040, Note_on_c, 1, 49, 127
2, 369040, Note_on_c, 1, 66, 127
2, 369160, Note_off_c, 1, 66, 0
2, 369200, Note_off_c, 1, 49, 0
2, 369200, Note_on_c, 1, 65, 127
2, 369240, Note_on_c, 1, 51, 127
2, 369240, Note_off_c, 1, 65, 0
2, 369240, Note_on_c, 1, 66, 127
2, 369280, Note_off_c, 1, 66, 0
2, 369320, Note_on_c, 1, 65, 127
2, 369360, Note_off_c, 1, 65, 0
2, 369400, Note_off_c, 1, 51, 0
2, 369400, Note_on_c, 1, 66, 127
2, 369440, Note_on_c, 1, 49, 127
2, 369440, Note_on_c, 1, 65, 127
2, 369440, Note_off_c, 1, 66, 0
2, 369600, Note_off_c, 1, 49, 0
2, 369600, Note_off_c, 1, 65, 0
2, 369640, Note_on_c, 1, 48, 127
2, 369640, Note_on_c, 1, 68, 127
2, 369800, Note_off_c, 1, 48, 0
2, 369800, Note_off_c, 1, 68, 0
2, 369840, Note_on_c, 1, 46, 127
2, 369840, Note_on_c, 1, 73, 127
2, 370000, Note_off_c, 1, 46, 0
2, 370040, Note_on_c, 1, 44, 127
2, 370040, Note_on_c, 1, 72, 127
2, 370200, Note_off_c, 1, 44, 0
2, 370200, Note_off_c, 1, 72, 0
2, 370240, Note_on_c, 1, 43, 127
2, 370240, Note_on_c, 1, 70, 127
2, 370400, Note_off_c, 1, 43, 0
2, 370400, Note_off_c, 1, 73, 0
2, 370440, Note_on_c, 1, 39, 127
2, 370440, Note_on_c, 1, 75, 127
2, 370600, Note_off_c, 1, 39, 0
2, 370600, Note_off_c, 1, 75, 0
2, 370640, Note_on_c, 1, 44, 127
2, 370640, Note_on_c, 1, 73, 127
2, 370720, Note_off_c, 1, 73, 0
2, 370760, Note_on_c, 1, 72, 127
2, 370800, Note_off_c, 1, 44, 0
2, 370800, Note_off_c, 1, 72, 0
2, 370840, Note_on_c, 1, 39, 127
2, 370840, Note_on_c, 1, 73, 127
2, 370880, Note_off_c, 1, 73, 0
2, 370920, Note_on_c, 1, 72, 127
2, 370960, Note_off_c, 1, 72, 0
2, 370960, Note_on_c, 1, 73, 127
2, 371000, Note_off_c, 1, 39, 0
2, 371000, Note_off_c, 1, 70, 0
2, 371000, Note_off_c, 1, 73, 0
2, 371040, Note_on_c, 1, 36, 127
2, 371040, Note_on_c, 1, 68, 127
2, 371040, Note_on_c, 1, 72, 127
2, 371200, Note_off_c, 1, 36, 0
2, 371200, Note_off_c, 1, 68, 0
2, 371200, Note_off_c, 1, 72, 0
2, 371240, Note_on_c, 1, 32, 127
2, 371240, Note_on_c, 1, 70, 127
2, 371400, Note_off_c, 1, 32, 0
2, 371400, Note_off_c, 1, 70, 0
2, 371440, Note_on_c, 1, 39, 127
2, 371440, Note_on_c, 1, 70, 127
2, 371640, Note_on_c, 1, 67, 127
2, 371840, Note_on_c, 1, 63, 127
2, 372000, Note_off_c, 1, 39, 0
2, 372040, Note_on_c, 1, 51, 127
2, 372200, Note_off_c, 1, 51, 0
2, 372240, Note_on_c, 1, 53, 127
2, 372360, Note_off_c, 1, 53, 0
2, 372440, Note_on_c, 1, 56, 127
2, 372560, Note_off_c, 1, 56, 0
2, 372560, Note_off_c, 1, 63, 0
2, 372560, Note_off_c, 1, 67, 0
2, 372560, Note_off_c, 1, 70, 0
2, 372600, Note_on_c, 1, 55, 127
2, 372600, Note_on_c, 1, 63, 127
2, 372720, Note_on_c, 1, 70, 127
2, 372760, Note_off_c, 1, 55, 0
2, 372800, Note_on_c, 1, 58, 127
2, 372800, Note_on_c, 1, 75, 127
2, 372960, Note_off_c, 1, 58, 0
2, 372960, Note_off_c, 1, 63, 0
2, 372960, Note_off_c, 1, 70, 0
2, 372960, Note_off_c, 1, 75, 0
2, 373000, Note_on_c, 1, 56, 127
2, 373000, Note_on_c, 1, 70, 127
2, 373000, Note_on_c, 1, 75, 127
2, 373040, Note_off_c, 1, 75, 0
2, 373080, Note_on_c, 1, 73, 127
2, 373120, Note_off_c, 1, 73, 0
2, 373160, Note_off_c, 1, 56, 0
2, 373160, Note_on_c, 1, 72, 127
2, 373200, Note_on_c, 1, 55, 127
2, 373200, Note_off_c, 1, 72, 0
2, 373200, Note_on_c, 1, 73, 127
2, 373240, Note_off_c, 1, 73, 0
2, 373280, Note_on_c, 1, 75, 127
2, 373320, Note_off_c, 1, 75, 0
2, 373360, Note_off_c, 1, 55, 0
2, 373360, Note_on_c, 1, 73, 127
2, 373400, Note_on_c, 1, 53, 127
2, 373400, Note_off_c, 1, 73, 0
2, 373400, Note_on_c, 1, 75, 127
2, 373440, Note_off_c, 1, 75, 0
2, 373480, Note_on_c, 1, 73, 127
2, 373520, Note_off_c, 1, 73, 0
2, 373560, Note_off_c, 1, 53, 0
2, 373560, Note_on_c, 1, 72, 127
2, 373600, Note_on_c, 1, 51, 127
2, 373600, Note_off_c, 1, 72, 0
2, 373600, Note_on_c, 1, 73, 127
2, 373640, Note_off_c, 1, 73, 0
2, 373680, Note_on_c, 1, 75, 127
2, 373760, Note_off_c, 1, 51, 0
2, 373760, Note_off_c, 1, 70, 0
2, 373760, Note_off_c, 1, 75, 0
2, 373800, Note_on_c, 1, 56, 127
2, 373800, Note_on_c, 1, 68, 127
2, 373800, Note_on_c, 1, 73, 127
2, 373840, Note_off_c, 1, 73, 0
2, 373880, Note_on_c, 1, 72, 127
2, 373920, Note_off_c, 1, 72, 0
2, 373920, Note_on_c, 1, 73, 127
2, 373960, Note_off_c, 1, 56, 0
2, 373960, Note_off_c, 1, 73, 0
2, 374000, Note_on_c, 1, 58, 127
2, 374000, Note_on_c, 1, 72, 127
2, 374160, Note_off_c, 1, 58, 0
2, 374200, Note_on_c, 1, 56, 127
2, 374360, Note_off_c, 1, 56, 0
2, 374360, Note_off_c, 1, 68, 0
2, 374360, Note_off_c, 1, 72, 0
2, 374400, Note_on_c, 1, 55, 127
2, 374400, Note_on_c, 1, 70, 127
2, 374560, Note_off_c, 1, 55, 0
2, 374560, Note_off_c, 1, 70, 0
2, 374600, Note_on_c, 1, 53, 127
2, 374600, Note_on_c, 1, 68, 127
2, 374760, Note_off_c, 1, 53, 0
2, 374760, Note_off_c, 1, 68, 0
2, 374800, Note_on_c, 1, 55, 127
2, 374800, Note_on_c, 1, 72, 127
2, 374960, Note_off_c, 1, 55, 0
2, 374960, Note_off_c, 1, 72, 0
2, 375000, Note_on_c, 1, 56, 127
2, 375000, Note_on_c, 1, 77, 127
2, 375160, Note_off_c, 1, 56, 0
2, 375200, Note_on_c, 1, 53, 127
2, 375360, Note_off_c, 1, 53, 0
2, 375360, Note_off_c, 1, 77, 0
2, 375400, Note_on_c, 1, 55, 127
2, 375400, Note_on_c, 1, 77, 127
2, 375440, Note_on_c, 1, 75, 127
2, 375440, Note_off_c, 1, 77, 0
2, 375480, Note_off_c, 1, 75, 0
2, 375520, Note_on_c, 1, 74, 127
2, 375560, Note_off_c, 1, 55, 0
2, 375560, Note_off_c, 1, 74, 0
2, 375600, Note_on_c, 1, 58, 127
2, 375600, Note_on_c, 1, 75, 127
2, 375640, Note_off_c, 1, 75, 0
2, 375640, Note_on_c, 1, 77, 127
2, 375680, Note_off_c, 1, 77, 0
2, 375720, Note_off_c, 1, 58, 0
2, 375720, Note_on_c, 1, 75, 127
2, 375760, Note_off_c, 1, 75, 0
2, 375800, Note_on_c, 1, 57, 127
2, 375800, Note_on_c, 1, 77, 127
2, 375840, Note_on_c, 1, 75, 127
2, 375840, Note_off_c, 1, 77, 0
2, 375880, Note_off_c, 1, 75, 0
2, 375920, Note_off_c, 1, 57, 0
2, 375920, Note_on_c, 1, 74, 127
2, 375960, Note_on_c, 1, 60, 127
2, 375960, Note_off_c, 1, 74, 0
2, 375960, Note_on_c, 1, 75, 127
2, 376000, Note_off_c, 1, 75, 0
2, 376040, Note_on_c, 1, 77, 127
2, 376120, Note_off_c, 1, 60, 0
2, 376120, Note_off_c, 1, 77, 0
2, 376160, Note_on_c, 1, 58, 127
2, 376160, Note_on_c, 1, 75, 127
2, 376200, Note_off_c, 1, 75, 0
2, 376240, Note_on_c, 1, 74, 127
2, 376280, Note_off_c, 1, 74, 0
2, 376320, Note_off_c, 1, 58, 0
2, 376320, Note_on_c, 1, 75, 127
2, 376360, Note_on_c, 1, 60, 127
2, 376360, Note_on_c, 1, 74, 127
2, 376360, Note_off_c, 1, 75, 0
2, 376520, Note_off_c, 1, 60, 0
2, 376560, Note_on_c, 1, 58, 127
2, 376720, Note_off_c, 1, 58, 0
2, 376720, Note_off_c, 1, 74, 0
2, 376760, Note_on_c, 1, 56, 127
2, 376760, Note_on_c, 1, 72, 127
2, 376920, Note_off_c, 1, 56, 0
2, 376920, Note_off_c, 1, 72, 0
2, 376960, Note_on_c, 1, 55, 127
2, 376960, Note_on_c, 1, 70, 127
2, 377120, Note_off_c, 1, 55, 0
2, 377120, Note_off_c, 1, 70, 0
2, 377160, Note_on_c, 1, 56, 127
2, 377160, Note_on_c, 1, 77, 127
2, 377320, Note_off_c, 1, 56, 0
2, 377320, Note_off_c, 1, 77, 0
2, 377360, Note_on_c, 1, 58, 127
2, 377360, Note_on_c, 1, 82, 127
2, 377520, Note_off_c, 1, 58, 0
2, 377560, Note_on_c, 1, 55, 127
2, 377720, Note_off_c, 1, 55, 0
2, 377720, Note_off_c, 1, 82, 0
2, 377760, Note_on_c, 1, 60, 127
2, 377760, Note_on_c, 1, 82, 127
2, 377800, Note_off_c, 1, 82, 0
2, 377840, Note_on_c, 1, 80, 127
2, 377880, Note_on_c, 1, 79, 127
2, 377880, Note_off_c, 1, 80, 0
2, 377920, Note_off_c, 1, 60, 0
2, 377920, Note_off_c, 1, 79, 0
2, 377960, Note_on_c, 1, 63, 127
2, 377960, Note_on_c, 1, 80, 127
2, 378000, Note_off_c, 1, 80, 0
2, 378040, Note_on_c, 1, 82, 127
2, 378080, Note_on_c, 1, 80, 127
2, 378080, Note_off_c, 1, 82, 0
2, 378120, Note_off_c, 1, 63, 0
2, 378120, Note_off_c, 1, 80, 0
2, 378160, Note_on_c, 1, 62, 127
2, 378160, Note_on_c, 1, 82, 127
2, 378200, Note_on_c, 1, 80, 127
2, 378200, Note_off_c, 1, 82, 0
2, 378240, Note_off_c, 1, 80, 0
2, 378280, Note_on_c, 1, 79, 127
2, 378320, Note_off_c, 1, 62, 0
2, 378320, Note_off_c, 1, 79, 0
2, 378360, Note_on_c, 1, 65, 127
2, 378360, Note_on_c, 1, 80, 127
2, 378400, Note_off_c, 1, 80, 0
2, 378400, Note_on_c, 1, 82, 127
2, 378520, Note_off_c, 1, 65, 0
2, 378520, Note_off_c, 1, 82, 0
2, 378560, Note_on_c, 1, 63, 127
2, 378560, Note_on_c, 1, 80, 127
2, 378600, Note_on_c, 1, 79, 127
2, 378600, Note_off_c, 1, 80, 0
2, 378640, Note_off_c, 1, 79, 0
2, 378680, Note_on_c, 1, 80, 127
2, 378720, Note_off_c, 1, 63, 0
2, 378720, Note_off_c, 1, 80, 0
2, 378760, Note_on_c, 1, 62, 127
2, 378760, Note_on_c, 1, 79, 127
2, 378880, Note_off_c, 1, 62, 0
2, 378960, Note_on_c, 1, 63, 127
2, 379080, Note_off_c, 1, 63, 0
2, 379080, Note_off_c, 1, 79, 0
2, 379120, Note_on_c, 1, 65, 127
2, 379120, Note_on_c, 1, 80, 127
2, 379280, Note_off_c, 1, 65, 0
2, 379280, Note_off_c, 1, 80, 0
2, 379320, Note_on_c, 1, 67, 127
2, 379320, Note_on_c, 1, 82, 127
2, 379480, Note_off_c, 1, 67, 0
2, 379480, Note_off_c, 1, 82, 0
2, 379520, Note_on_c, 1, 63, 127
2, 379520, Note_on_c, 1, 79, 127
2, 379680, Note_off_c, 1, 63, 0
2, 379680, Note_off_c, 1, 79, 0
2, 379720, Note_on_c, 1, 65, 127
2, 379720, Note_on_c, 1, 80, 127
2, 379880, Note_off_c, 1, 65, 0
2, 379880, Note_off_c, 1, 80, 0
2, 379920, Note_on_c, 1, 67, 127
2, 379920, Note_on_c, 1, 82, 127
2, 380080, Note_off_c, 1, 67, 0
2, 380080, Note_off_c, 1, 82, 0
2, 380120, Note_on_c, 1, 68, 127
2, 380120, Note_on_c, 1, 73, 127
2, 380160, Note_off_c, 1, 73, 0
2, 380200, Note_on_c, 1, 72, 127
2, 380240, Note_off_c, 1, 72, 0
2, 380280, Note_off_c, 1, 68, 0
2, 380280, Note_on_c, 1, 73, 127
2, 380320, Note_on_c, 1, 67, 127
2, 380320, Note_on_c, 1, 72, 127
2, 380320, Note_off_c, 1, 73, 0
2, 380480, Note_off_c, 1, 67, 0
2, 380520, Note_on_c, 1, 68, 127
2, 380680, Note_off_c, 1, 68, 0
2, 380680, Note_off_c, 1, 72, 0
2, 380720, Note_on_c, 1, 65, 127
2, 380720, Note_on_c, 1, 80, 127
2, 380880, Note_off_c, 1, 65, 0
2, 380880, Note_off_c, 1, 80, 0
2, 380920, Note_on_c, 1, 70, 127
2, 380920, Note_on_c, 1, 75, 127
2, 380960, Note_off_c, 1, 75, 0
2, 381000, Note_on_c, 1, 74, 127
2, 381040, Note_off_c, 1, 74, 0
2, 381040, Note_on_c, 1, 75, 127
2, 381080, Note_off_c, 1, 75, 0
2, 381120, Note_on_c, 1, 46, 127
2, 381120, Note_on_c, 1, 74, 127
2, 381280, Note_off_c, 1, 46, 0
2, 381320, Note_on_c, 1, 48, 127
2, 381440, Note_off_c, 1, 70, 0
2, 381480, Note_off_c, 1, 48, 0
2, 381480, Note_off_c, 1, 74, 0
2, 381520, Note_on_c, 1, 50, 127
2, 381520, Note_on_c, 1, 72, 127
2, 381680, Note_off_c, 1, 50, 0
2, 381680, Note_off_c, 1, 72, 0
2, 381720, Note_on_c, 1, 51, 127
2, 381720, Note_on_c, 1, 70, 127
2, 381880, Note_off_c, 1, 51, 0
2, 381880, Note_off_c, 1, 70, 0
2, 381920, Note_on_c, 1, 53, 127
2, 381920, Note_on_c, 1, 68, 127
2, 382080, Note_off_c, 1, 53, 0
2, 382080, Note_off_c, 1, 68, 0
2, 382120, Note_on_c, 1, 55, 127
2, 382120, Note_on_c, 1, 67, 127
2, 382280, Note_off_c, 1, 55, 0
2, 382280, Note_off_c, 1, 67, 0
2, 382320, Note_on_c, 1, 56, 127
2, 382320, Note_on_c, 1, 75, 127
2, 382480, Note_off_c, 1, 56, 0
2, 382480, Note_off_c, 1, 75, 0
2, 382520, Note_on_c, 1, 58, 127
2, 382520, Note_on_c, 1, 62, 127
2, 382520, Note_on_c, 1, 67, 127
2, 382600, Note_off_c, 1, 67, 0
2, 382640, Note_off_c, 1, 58, 0
2, 382640, Note_on_c, 1, 65, 127
2, 382680, Note_off_c, 1, 65, 0
2, 382720, Note_on_c, 1, 56, 127
2, 382720, Note_on_c, 1, 67, 127
2, 382760, Note_on_c, 1, 65, 127
2, 382760, Note_off_c, 1, 67, 0
2, 382800, Note_off_c, 1, 65, 0
2, 382840, Note_off_c, 1, 56, 0
2, 382840, Note_on_c, 1, 67, 127
2, 382880, Note_on_c, 1, 58, 127
2, 382880, Note_on_c, 1, 65, 127
2, 382880, Note_off_c, 1, 67, 0
2, 383040, Note_off_c, 1, 58, 0
2, 383040, Note_off_c, 1, 62, 0
2, 383040, Note_off_c, 1, 65, 0
2, 383080, Note_on_c, 1, 46, 127
2, 383080, Note_on_c, 1, 63, 127
2, 383240, Note_off_c, 1, 46, 0
2, 383240, Note_off_c, 1, 63, 0
2, 383280, Note_on_c, 1, 51, 127
2, 383280, Note_on_c, 1, 63, 127
2, 383480, Note_on_c, 1, 58, 127
2, 383680, Note_on_c, 1, 55, 127
2, 383840, Note_off_c, 1, 51, 0
2, 383880, Note_on_c, 1, 46, 127
2, 384040, Note_off_c, 1, 46, 0
2, 384080, Note_on_c, 1, 39, 127
2, 384280, Note_on_c, 1, 46, 127
2, 384480, Note_on_c, 1, 51, 127
2, 385040, Note_off_c, 1, 58, 0
2, 385240, Note_off_c, 1, 39, 0
2, 385240, Note_off_c, 1, 46, 0
2, 385240, Note_off_c, 1, 63, 0
2, 385320, Note_on_c, 1, 70, 127
2, 385440, Note_off_c, 1, 51, 0
2, 385440, Note_off_c, 1, 55, 0
2, 385600, Note_off_c, 1, 70, 0
2, 385680, Note_on_c, 1, 39, 127
2, 385680, Note_on_c, 1, 70, 127
2, 385880, Note_on_c, 1, 67, 127
2, 386080, Note_on_c, 1, 63, 127
2, 386240, Note_off_c, 1, 39, 0
2, 386280, Note_on_c, 1, 46, 127
2, 386440, Note_off_c, 1, 46, 0
2, 386480, Note_on_c, 1, 48, 127
2, 386600, Note_off_c, 1, 48, 0
2, 386680, Note_on_c, 1, 51, 127
2, 386800, Note_off_c, 1, 51, 0
2, 386800, Note_off_c, 1, 63, 0
2, 386800, Note_off_c, 1, 67, 0
2, 386800, Note_off_c, 1, 70, 0
2, 386840, Note_on_c, 1, 49, 127
2, 386840, Note_on_c, 1, 63, 127
2, 386840, Note_on_c, 1, 67, 127
2, 387000, Note_off_c, 1, 49, 0
2, 387040, Note_on_c, 1, 53, 127
2, 387200, Note_off_c, 1, 53, 0
2, 387200, Note_off_c, 1, 63, 0
2, 387200, Note_off_c, 1, 67, 0
2, 387240, Note_on_c, 1, 51, 127
2, 387240, Note_on_c, 1, 65, 127
2, 387240, Note_on_c, 1, 67, 127
2, 387360, Note_off_c, 1, 67, 0
2, 387400, Note_off_c, 1, 51, 0
2, 387400, Note_on_c, 1, 68, 127
2, 387440, Note_on_c, 1, 49, 127
2, 387440, Note_on_c, 1, 67, 127
2, 387440, Note_off_c, 1, 68, 0
2, 387480, Note_off_c, 1, 67, 0
2, 387520, Note_on_c, 1, 68, 127
2, 387600, Note_off_c, 1, 49, 0
2, 387640, Note_on_c, 1, 48, 127
2, 387800, Note_off_c, 1, 48, 0
2, 387800, Note_off_c, 1, 65, 0
2, 387800, Note_off_c, 1, 68, 0
2, 387840, Note_on_c, 1, 46, 127
2, 387840, Note_on_c, 1, 67, 127
2, 387840, Note_on_c, 1, 70, 127
2, 388000, Note_off_c, 1, 46, 0
2, 388000, Note_off_c, 1, 67, 0
2, 388000, Note_off_c, 1, 70, 0
2, 388040, Note_on_c, 1, 44, 127
2, 388040, Note_on_c, 1, 68, 127
2, 388040, Note_on_c, 1, 72, 127
2, 388200, Note_off_c, 1, 44, 0
2, 388240, Note_on_c, 1, 56, 127
2, 388400, Note_off_c, 1, 56, 0
2, 388440, Note_on_c, 1, 58, 127
2, 388600, Note_off_c, 1, 58, 0
2, 388600, Note_off_c, 1, 68, 0
2, 388600, Note_off_c, 1, 72, 0
2, 388640, Note_on_c, 1, 60, 127
2, 388640, Note_on_c, 1, 68, 127
2, 388800, Note_off_c, 1, 60, 0
2, 388840, Note_on_c, 1, 61, 127
2, 388840, Note_on_c, 1, 77, 127
2, 389000, Note_off_c, 1, 61, 0
2, 389040, Note_on_c, 1, 60, 127
2, 389160, Note_off_c, 1, 68, 0
2, 389200, Note_off_c, 1, 60, 0
2, 389240, Note_on_c, 1, 58, 127
2, 389240, Note_on_c, 1, 73, 127
2, 389360, Note_off_c, 1, 77, 0
2, 389400, Note_off_c, 1, 58, 0
2, 389440, Note_on_c, 1, 56, 127
2, 389440, Note_on_c, 1, 78, 127
2, 389600, Note_off_c, 1, 56, 0
2, 389600, Note_off_c, 1, 78, 0
2, 389640, Note_on_c, 1, 55, 127
2, 389640, Note_on_c, 1, 77, 127
2, 389720, Note_off_c, 1, 77, 0
2, 389760, Note_off_c, 1, 73, 0
2, 389760, Note_on_c, 1, 75, 127
2, 389800, Note_off_c, 1, 55, 0
2, 389800, Note_off_c, 1, 75, 0
2, 389840, Note_on_c, 1, 58, 127
2, 389840, Note_on_c, 1, 77, 127
2, 389880, Note_on_c, 1, 75, 127
2, 389880, Note_off_c, 1, 77, 0
2, 389920, Note_off_c, 1, 75, 0
2, 389960, Note_on_c, 1, 77, 127
2, 390000, Note_off_c, 1, 58, 0
2, 390000, Note_off_c, 1, 77, 0
2, 390040, Note_on_c, 1, 57, 127
2, 390040, Note_on_c, 1, 72, 127
2, 390040, Note_on_c, 1, 75, 127
2, 390200, Note_off_c, 1, 57, 0
2, 390200, Note_off_c, 1, 72, 0
2, 390200, Note_off_c, 1, 75, 0
2, 390240, Note_on_c, 1, 60, 127
2, 390240, Note_on_c, 1, 73, 127
2, 390280, Note_off_c, 1, 73, 0
2, 390320, Note_on_c, 1, 72, 127
2, 390400, Note_off_c, 1, 60, 0
2, 390400, Note_off_c, 1, 72, 0
2, 390440, Note_on_c, 1, 58, 127
2, 390440, Note_on_c, 1, 73, 127
2, 390560, Note_off_c, 1, 58, 0
2, 390640, Note_on_c, 1, 57, 127
2, 390640, Note_on_c, 1, 70, 127
2, 390760, Note_off_c, 1, 57, 0
2, 390800, Note_on_c, 1, 58, 127
2, 390800, Note_on_c, 1, 65, 127
2, 390960, Note_off_c, 1, 58, 0
2, 391000, Note_on_c, 1, 61, 127
2, 391160, Note_off_c, 1, 61, 0
2, 391200, Note_on_c, 1, 60, 127
2, 391360, Note_off_c, 1, 60, 0
2, 391400, Note_on_c, 1, 63, 127
2, 391560, Note_off_c, 1, 63, 0
2, 391560, Note_off_c, 1, 65, 0
2, 391560, Note_off_c, 1, 70, 0
2, 391560, Note_off_c, 1, 73, 0
2, 391600, Note_on_c, 1, 61, 127
2, 391600, Note_on_c, 1, 70, 127
2, 391680, Note_on_c, 1, 77, 127
2, 391760, Note_off_c, 1, 61, 0
2, 391800, Note_on_c, 1, 65, 127
2, 391800, Note_on_c, 1, 82, 127
2, 391960, Note_off_c, 1, 65, 0
2, 391960, Note_off_c, 1, 70, 0
2, 391960, Note_off_c, 1, 77, 0
2, 391960, Note_off_c, 1, 82, 0
2, 392000, Note_on_c, 1, 63, 127
2, 392000, Note_on_c, 1, 77, 127
2, 392000, Note_on_c, 1, 82, 127
2, 392040, Note_off_c, 1, 82, 0
2, 392080, Note_on_c, 1, 80, 127
2, 392120, Note_on_c, 1, 79, 127
2, 392120, Note_off_c, 1, 80, 0
2, 392160, Note_off_c, 1, 63, 0
2, 392160, Note_off_c, 1, 79, 0
2, 392200, Note_on_c, 1, 62, 127
2, 392200, Note_on_c, 1, 80, 127
2, 392240, Note_off_c, 1, 80, 0
2, 392280, Note_on_c, 1, 82, 127
2, 392320, Note_on_c, 1, 80, 127
2, 392320, Note_off_c, 1, 82, 0
2, 392360, Note_off_c, 1, 62, 0
2, 392360, Note_off_c, 1, 80, 0
2, 392400, Note_on_c, 1, 60, 127
2, 392400, Note_on_c, 1, 82, 127
2, 392440, Note_off_c, 1, 82, 0
2, 392480, Note_on_c, 1, 80, 127
2, 392520, Note_on_c, 1, 79, 127
2, 392520, Note_off_c, 1, 80, 0
2, 392560, Note_off_c, 1, 60, 0
2, 392560, Note_off_c, 1, 79, 0
2, 392600, Note_on_c, 1, 58, 127
2, 392600, Note_on_c, 1, 80, 127
2, 392640, Note_off_c, 1, 80, 0
2, 392680, Note_on_c, 1, 82, 127
2, 392760, Note_off_c, 1, 58, 0
2, 392760, Note_off_c, 1, 77, 0
2, 392760, Note_off_c, 1, 82, 0
2, 392800, Note_on_c, 1, 63, 127
2, 392800, Note_on_c, 1, 75, 127
2, 392800, Note_on_c, 1, 80, 127
2, 392880, Note_off_c, 1, 80, 0
2, 392920, Note_on_c, 1, 78, 127
2, 392960, Note_off_c, 1, 63, 0
2, 392960, Note_off_c, 1, 78, 0
2, 393000, Note_on_c, 1, 65, 127
2, 393000, Note_on_c, 1, 80, 127
2, 393040, Note_off_c, 1, 80, 0
2, 393080, Note_on_c, 1, 78, 127
2, 393120, Note_off_c, 1, 78, 0
2, 393120, Note_on_c, 1, 80, 127
2, 393160, Note_off_c, 1, 65, 0
2, 393160, Note_off_c, 1, 80, 0
2, 393200, Note_on_c, 1, 63, 127
2, 393200, Note_on_c, 1, 78, 127
2, 393320, Note_off_c, 1, 75, 0
2, 393360, Note_off_c, 1, 63, 0
2, 393360, Note_off_c, 1, 78, 0
2, 393400, Note_on_c, 1, 61, 127
2, 393400, Note_on_c, 1, 77, 127
2, 393560, Note_off_c, 1, 61, 0
2, 393560, Note_off_c, 1, 77, 0
2, 393600, Note_on_c, 1, 60, 127
2, 393600, Note_on_c, 1, 75, 127
2, 393760, Note_off_c, 1, 60, 0
2, 393760, Note_off_c, 1, 75, 0
2, 393800, Note_on_c, 1, 58, 127
2, 393800, Note_on_c, 1, 78, 127
2, 393960, Note_off_c, 1, 58, 0
2, 393960, Note_off_c, 1, 78, 0
2, 394000, Note_on_c, 1, 56, 127
2, 394000, Note_on_c, 1, 61, 127
2, 394000, Note_on_c, 1, 70, 127
2, 394160, Note_off_c, 1, 56, 0
2, 394200, Note_on_c, 1, 54, 127
2, 394320, Note_off_c, 1, 54, 0
2, 394320, Note_off_c, 1, 61, 0
2, 394320, Note_off_c, 1, 70, 0
2, 394400, Note_on_c, 1, 53, 127
2, 394400, Note_on_c, 1, 63, 127
2, 394440, Note_on_c, 1, 66, 127
2, 394480, Note_on_c, 1, 68, 127
2, 394520, Note_off_c, 1, 53, 0
2, 394520, Note_on_c, 1, 72, 127
2, 394600, Note_on_c, 1, 51, 127
2, 394720, Note_off_c, 1, 51, 0
2, 394760, Note_on_c, 1, 53, 127
2, 394880, Note_off_c, 1, 68, 0
2, 394920, Note_off_c, 1, 53, 0
2, 394920, Note_off_c, 1, 63, 0
2, 394920, Note_off_c, 1, 66, 0
2, 394920, Note_off_c, 1, 72, 0
2, 394960, Note_on_c, 1, 49, 127
2, 394960, Note_on_c, 1, 65, 127
2, 394960, Note_on_c, 1, 73, 127
2, 395120, Note_off_c, 1, 49, 0
2, 395120, Note_off_c, 1, 65, 0
2, 395120, Note_off_c, 1, 73, 0
2, 395160, Note_on_c, 1, 56, 127
2, 395160, Note_on_c, 1, 63, 127
2, 395160, Note_on_c, 1, 73, 127
2, 395200, Note_off_c, 1, 73, 0
2, 395240, Note_on_c, 1, 72, 127
2, 395280, Note_off_c, 1, 72, 0
2, 395320, Note_off_c, 1, 56, 0
2, 395320, Note_on_c, 1, 73, 127
2, 395360, Note_on_c, 1, 58, 127
2, 395360, Note_on_c, 1, 72, 127
2, 395360, Note_off_c, 1, 73, 0
2, 395400, Note_off_c, 1, 72, 0
2, 395440, Note_on_c, 1, 73, 127
2, 395480, Note_off_c, 1, 73, 0
2, 395520, Note_off_c, 1, 58, 0
2, 395520, Note_on_c, 1, 72, 127
2, 395560, Note_on_c, 1, 56, 127
2, 395720, Note_off_c, 1, 56, 0
2, 395720, Note_off_c, 1, 72, 0
2, 395760, Note_on_c, 1, 54, 127
2, 395760, Note_on_c, 1, 70, 127
2, 395920, Note_off_c, 1, 54, 0
2, 395920, Note_off_c, 1, 63, 0
2, 395920, Note_off_c, 1, 70, 0
2, 395960, Note_on_c, 1, 53, 127
2, 395960, Note_on_c, 1, 68, 127
2, 396120, Note_off_c, 1, 53, 0
2, 396160, Note_on_c, 1, 51, 127
2, 396160, Note_on_c, 1, 75, 127
2, 396320, Note_off_c, 1, 51, 0
2, 396360, Note_on_c, 1, 49, 127
2, 396360, Note_on_c, 1, 80, 127
2, 396520, Note_off_c, 1, 49, 0
2, 396560, Note_on_c, 1, 48, 127
2, 396720, Note_off_c, 1, 48, 0
2, 396720, Note_off_c, 1, 68, 0
2, 396720, Note_off_c, 1, 75, 0
2, 396720, Note_off_c, 1, 80, 0
2, 396760, Note_on_c, 1, 46, 127
2, 396760, Note_on_c, 1, 73, 127
2, 396760, Note_on_c, 1, 80, 127
2, 396800, Note_off_c, 1, 80, 0
2, 396840, Note_on_c, 1, 78, 127
2, 396880, Note_on_c, 1, 77, 127
2, 396880, Note_off_c, 1, 78, 0
2, 396920, Note_off_c, 1, 46, 0
2, 396920, Note_off_c, 1, 77, 0
2, 396960, Note_on_c, 1, 49, 127
2, 396960, Note_on_c, 1, 78, 127
2, 397000, Note_off_c, 1, 78, 0
2, 397000, Note_on_c, 1, 80, 127
2, 397040, Note_off_c, 1, 80, 0
2, 397080, Note_on_c, 1, 78, 127
2, 397120, Note_off_c, 1, 49, 0
2, 397120, Note_off_c, 1, 73, 0
2, 397120, Note_off_c, 1, 78, 0
2, 397160, Note_on_c, 1, 48, 127
2, 397160, Note_on_c, 1, 75, 127
2, 397160, Note_on_c, 1, 80, 127
2, 397200, Note_on_c, 1, 78, 127
2, 397200, Note_off_c, 1, 80, 0
2, 397240, Note_off_c, 1, 78, 0
2, 397280, Note_on_c, 1, 77, 127
2, 397320, Note_off_c, 1, 48, 0
2, 397320, Note_off_c, 1, 77, 0
2, 397360, Note_on_c, 1, 51, 127
2, 397360, Note_on_c, 1, 78, 127
2, 397400, Note_off_c, 1, 78, 0
2, 397400, Note_on_c, 1, 80, 127
2, 397520, Note_off_c, 1, 51, 0
2, 397520, Note_off_c, 1, 75, 0
2, 397520, Note_off_c, 1, 80, 0
2, 397560, Note_on_c, 1, 49, 127
2, 397560, Note_on_c, 1, 68, 127
2, 397560, Note_on_c, 1, 78, 127
2, 397640, Note_off_c, 1, 78, 0
2, 397680, Note_on_c, 1, 77, 127
2, 397720, Note_off_c, 1, 49, 0
2, 397720, Note_off_c, 1, 77, 0
2, 397760, Note_on_c, 1, 53, 127
2, 397760, Note_on_c, 1, 78, 127
2, 397800, Note_on_c, 1, 77, 127
2, 397800, Note_off_c, 1, 78, 0
2, 397920, Note_off_c, 1, 53, 0
2, 397960, Note_on_c, 1, 51, 127
2, 398080, Note_off_c, 1, 51, 0
2, 398080, Note_off_c, 1, 77, 0
2, 398160, Note_on_c, 1, 54, 127
2, 398160, Note_on_c, 1, 75, 127
2, 398280, Note_off_c, 1, 54, 0
2, 398280, Note_off_c, 1, 75, 0
2, 398320, Note_on_c, 1, 53, 127
2, 398320, Note_on_c, 1, 73, 127
2, 398480, Note_off_c, 1, 53, 0
2, 398480, Note_off_c, 1, 73, 0
2, 398520, Note_on_c, 1, 56, 127
2, 398520, Note_on_c, 1, 72, 127
2, 398680, Note_off_c, 1, 56, 0
2, 398680, Note_off_c, 1, 68, 0
2, 398680, Note_off_c, 1, 72, 0
2, 398720, Note_on_c, 1, 54, 127
2, 398720, Note_on_c, 1, 70, 127
2, 398880, Note_off_c, 1, 54, 0
2, 398880, Note_off_c, 1, 70, 0
2, 398920, Note_on_c, 1, 58, 127
2, 398920, Note_on_c, 1, 75, 127
2, 399080, Note_off_c, 1, 58, 0
2, 399080, Note_off_c, 1, 75, 0
2, 399120, Note_on_c, 1, 56, 127
2, 399120, Note_on_c, 1, 66, 127
2, 399120, Note_on_c, 1, 73, 127
2, 399240, Note_off_c, 1, 73, 0
2, 399280, Note_off_c, 1, 56, 0
2, 399280, Note_on_c, 1, 72, 127
2, 399320, Note_on_c, 1, 54, 127
2, 399320, Note_off_c, 1, 72, 0
2, 399320, Note_on_c, 1, 73, 127
2, 399360, Note_off_c, 1, 73, 0
2, 399400, Note_on_c, 1, 72, 127
2, 399440, Note_off_c, 1, 72, 0
2, 399440, Note_on_c, 1, 73, 127
2, 399480, Note_off_c, 1, 54, 0
2, 399480, Note_off_c, 1, 73, 0
2, 399520, Note_on_c, 1, 56, 127
2, 399520, Note_on_c, 1, 72, 127
2, 399680, Note_off_c, 1, 56, 0
2, 399680, Note_off_c, 1, 72, 0
2, 399720, Note_on_c, 1, 44, 127
2, 399720, Note_on_c, 1, 73, 127
2, 399880, Note_off_c, 1, 44, 0
2, 399880, Note_off_c, 1, 66, 0
2, 399880, Note_off_c, 1, 73, 0
2, 399920, Note_on_c, 1, 49, 127
2, 399920, Note_on_c, 1, 65, 127
2, 399920, Note_on_c, 1, 68, 127
2, 399920, Note_on_c, 1, 73, 127
2, 400080, Note_off_c, 1, 49, 0
2, 400120, Note_on_c, 1, 56, 127
2, 400280, Note_off_c, 1, 56, 0
2, 400320, Note_on_c, 1, 58, 127
2, 400480, Note_off_c, 1, 58, 0
2, 400520, Note_on_c, 1, 61, 127
2, 400680, Note_off_c, 1, 61, 0
2, 400720, Note_on_c, 1, 60, 127
2, 400880, Note_off_c, 1, 60, 0
2, 400920, Note_on_c, 1, 63, 127
2, 401080, Note_off_c, 1, 63, 0
2, 401080, Note_off_c, 1, 65, 0
2, 401080, Note_off_c, 1, 68, 0
2, 401080, Note_off_c, 1, 73, 0
2, 401120, Note_on_c, 1, 61, 127
2, 401120, Note_on_c, 1, 77, 127
2, 401160, Note_off_c, 1, 77, 0
2, 401200, Note_on_c, 1, 75, 127
2, 401240, Note_off_c, 1, 75, 0
2, 401240, Note_on_c, 1, 77, 127
2, 401280, Note_off_c, 1, 61, 0
2, 401320, Note_on_c, 1, 65, 127
2, 401480, Note_off_c, 1, 65, 0
2, 401480, Note_off_c, 1, 77, 0
2, 401520, Note_on_c, 1, 63, 127
2, 401520, Note_on_c, 1, 77, 127
2, 401680, Note_off_c, 1, 63, 0
2, 401680, Note_off_c, 1, 77, 0
2, 401720, Note_on_c, 1, 61, 127
2, 401720, Note_on_c, 1, 78, 127
2, 401760, Note_off_c, 1, 78, 0
2, 401800, Note_on_c, 1, 77, 127
2, 401840, Note_off_c, 1, 77, 0
2, 401840, Note_on_c, 1, 78, 127
2, 401880, Note_off_c, 1, 61, 0
2, 401920, Note_on_c, 1, 60, 127
2, 402080, Note_off_c, 1, 60, 0
2, 402080, Note_off_c, 1, 78, 0
2, 402120, Note_on_c, 1, 58, 127
2, 402120, Note_on_c, 1, 77, 127
2, 402280, Note_off_c, 1, 58, 0
2, 402280, Note_off_c, 1, 77, 0
2, 402320, Note_on_c, 1, 57, 127
2, 402320, Note_on_c, 1, 77, 127
2, 402400, Note_off_c, 1, 77, 0
2, 402440, Note_on_c, 1, 75, 127
2, 402480, Note_off_c, 1, 57, 0
2, 402480, Note_off_c, 1, 75, 0
2, 402520, Note_on_c, 1, 58, 127
2, 402520, Note_on_c, 1, 77, 127
2, 402560, Note_on_c, 1, 75, 127
2, 402560, Note_off_c, 1, 77, 0
2, 402600, Note_off_c, 1, 75, 0
2, 402640, Note_on_c, 1, 77, 127
2, 402680, Note_off_c, 1, 58, 0
2, 402680, Note_off_c, 1, 77, 0
2, 402720, Note_on_c, 1, 60, 127
2, 402720, Note_on_c, 1, 75, 127
2, 402880, Note_off_c, 1, 60, 0
2, 402880, Note_off_c, 1, 75, 0
2, 402920, Note_on_c, 1, 61, 127
2, 402920, Note_on_c, 1, 73, 127
2, 403040, Note_off_c, 1, 61, 0
2, 403040, Note_off_c, 1, 73, 0
2, 403120, Note_on_c, 1, 63, 127
2, 403120, Note_on_c, 1, 73, 127
2, 403200, Note_off_c, 1, 73, 0
2, 403240, Note_off_c, 1, 63, 0
2, 403240, Note_on_c, 1, 72, 127
2, 403280, Note_on_c, 1, 61, 127
2, 403280, Note_off_c, 1, 72, 0
2, 403280, Note_on_c, 1, 73, 127
2, 403320, Note_off_c, 1, 73, 0
2, 403360, Note_on_c, 1, 72, 127
2, 403440, Note_off_c, 1, 61, 0
2, 403440, Note_off_c, 1, 72, 0
2, 403480, Note_on_c, 1, 63, 127
2, 403480, Note_on_c, 1, 70, 127
2, 403640, Note_off_c, 1, 63, 0
2, 403640, Note_off_c, 1, 70, 0
2, 403680, Note_on_c, 1, 65, 127
2, 403680, Note_on_c, 1, 69, 127
2, 403840, Note_off_c, 1, 65, 0
2, 403840, Note_off_c, 1, 69, 0
2, 403880, Note_on_c, 1, 66, 127
2, 403880, Note_on_c, 1, 69, 127
2, 404000, Note_off_c, 1, 69, 0
2, 404040, Note_off_c, 1, 66, 0
2, 404040, Note_on_c, 1, 70, 127
2, 404080, Note_on_c, 1, 65, 127
2, 404080, Note_on_c, 1, 69, 127
2, 404080, Note_off_c, 1, 70, 0
2, 404120, Note_off_c, 1, 69, 0
2, 404160, Note_on_c, 1, 70, 127
2, 404240, Note_off_c, 1, 65, 0
2, 404280, Note_on_c, 1, 66, 127
2, 404440, Note_off_c, 1, 66, 0
2, 404440, Note_off_c, 1, 70, 0
2, 404480, Note_on_c, 1, 63, 127
2, 404480, Note_on_c, 1, 72, 127
2, 404640, Note_off_c, 1, 63, 0
2, 404640, Note_off_c, 1, 72, 0
2, 404680, Note_on_c, 1, 65, 127
2, 404680, Note_on_c, 1, 70, 127
2, 404720, Note_off_c, 1, 70, 0
2, 404760, Note_on_c, 1, 69, 127
2, 404800, Note_off_c, 1, 69, 0
2, 404800, Note_on_c, 1, 70, 127
2, 404840, Note_off_c, 1, 65, 0
2, 404840, Note_off_c, 1, 70, 0
2, 404880, Note_on_c, 1, 66, 127
2, 404880, Note_on_c, 1, 69, 127
2, 405040, Note_off_c, 1, 66, 0
2, 405080, Note_on_c, 1, 65, 127
2, 405240, Note_off_c, 1, 65, 0
2, 405240, Note_off_c, 1, 69, 0
2, 405280, Note_on_c, 1, 63, 127
2, 405280, Note_on_c, 1, 67, 127
2, 405440, Note_off_c, 1, 63, 0
2, 405440, Note_off_c, 1, 67, 0
2, 405480, Note_on_c, 1, 61, 127
2, 405480, Note_on_c, 1, 65, 127
2, 405640, Note_off_c, 1, 61, 0
2, 405680, Note_on_c, 1, 60, 127
2, 405680, Note_on_c, 1, 72, 127
2, 405840, Note_off_c, 1, 60, 0
2, 405880, Note_on_c, 1, 58, 127
2, 405880, Note_on_c, 1, 77, 127
2, 406040, Note_off_c, 1, 58, 0
2, 406080, Note_on_c, 1, 56, 127
2, 406200, Note_off_c, 1, 65, 0
2, 406200, Note_off_c, 1, 72, 0
2, 406240, Note_off_c, 1, 56, 0
2, 406240, Note_off_c, 1, 77, 0
2, 406280, Note_on_c, 1, 55, 127
2, 406280, Note_on_c, 1, 70, 127
2, 406280, Note_on_c, 1, 77, 127
2, 406360, Note_off_c, 1, 77, 0
2, 406400, Note_on_c, 1, 75, 127
2, 406440, Note_off_c, 1, 55, 0
2, 406440, Note_off_c, 1, 75, 0
2, 406480, Note_on_c, 1, 58, 127
2, 406480, Note_on_c, 1, 77, 127
2, 406520, Note_on_c, 1, 75, 127
2, 406520, Note_off_c, 1, 77, 0
2, 406560, Note_off_c, 1, 75, 0
2, 406600, Note_off_c, 1, 70, 0
2, 406600, Note_on_c, 1, 77, 127
2, 406640, Note_off_c, 1, 58, 0
2, 406640, Note_off_c, 1, 77, 0
2, 406680, Note_on_c, 1, 57, 127
2, 406680, Note_on_c, 1, 72, 127
2, 406680, Note_on_c, 1, 75, 127
2, 406800, Note_off_c, 1, 57, 0
2, 406800, Note_off_c, 1, 75, 0
2, 406880, Note_on_c, 1, 60, 127
2, 406880, Note_on_c, 1, 77, 127
2, 407000, Note_off_c, 1, 60, 0
2, 407000, Note_off_c, 1, 72, 0
2, 407000, Note_off_c, 1, 77, 0
2, 407040, Note_on_c, 1, 58, 127
2, 407040, Note_on_c, 1, 65, 127
2, 407040, Note_on_c, 1, 75, 127
2, 407080, Note_off_c, 1, 75, 0
2, 407120, Note_on_c, 1, 73, 127
2, 407160, Note_off_c, 1, 73, 0
2, 407200, Note_off_c, 1, 58, 0
2, 407200, Note_on_c, 1, 75, 127
2, 407240, Note_on_c, 1, 60, 127
2, 407240, Note_on_c, 1, 73, 127
2, 407240, Note_off_c, 1, 75, 0
2, 407400, Note_off_c, 1, 60, 0
2, 407440, Note_on_c, 1, 58, 127
2, 407600, Note_off_c, 1, 58, 0
2, 407600, Note_off_c, 1, 73, 0
2, 407640, Note_on_c, 1, 56, 127
2, 407640, Note_on_c, 1, 72, 127
2, 407800, Note_off_c, 1, 56, 0
2, 407800, Note_off_c, 1, 65, 0
2, 407800, Note_off_c, 1, 72, 0
2, 407840, Note_on_c, 1, 54, 127
2, 407840, Note_on_c, 1, 70, 127
2, 408000, Note_off_c, 1, 54, 0
2, 408000, Note_off_c, 1, 70, 0
2, 408040, Note_on_c, 1, 53, 127
2, 408040, Note_on_c, 1, 69, 127
2, 408200, Note_off_c, 1, 53, 0
2, 408200, Note_off_c, 1, 69, 0
2, 408240, Note_on_c, 1, 54, 127
2, 408240, Note_on_c, 1, 70, 127
2, 408400, Note_off_c, 1, 54, 0
2, 408400, Note_off_c, 1, 70, 0
2, 408440, Note_on_c, 1, 51, 127
2, 408440, Note_on_c, 1, 72, 127
2, 408600, Note_off_c, 1, 51, 0
2, 408600, Note_off_c, 1, 72, 0
2, 408640, Note_on_c, 1, 53, 127
2, 408640, Note_on_c, 1, 69, 127
2, 408640, Note_on_c, 1, 73, 127
2, 408720, Note_off_c, 1, 69, 0
2, 408720, Note_off_c, 1, 73, 0
2, 408760, Note_on_c, 1, 72, 127
2, 408800, Note_off_c, 1, 53, 0
2, 408800, Note_off_c, 1, 72, 0
2, 408840, Note_on_c, 1, 51, 127
2, 408840, Note_on_c, 1, 73, 127
2, 408880, Note_off_c, 1, 73, 0
2, 408920, Note_on_c, 1, 72, 127
2, 408960, Note_off_c, 1, 72, 0
2, 408960, Note_on_c, 1, 73, 127
2, 409000, Note_off_c, 1, 51, 0
2, 409000, Note_off_c, 1, 73, 0
2, 409040, Note_on_c, 1, 53, 127
2, 409040, Note_on_c, 1, 72, 127
2, 409080, Note_off_c, 1, 72, 0
2, 409120, Note_on_c, 1, 73, 127
2, 409160, Note_on_c, 1, 72, 127
2, 409160, Note_off_c, 1, 73, 0
2, 409200, Note_off_c, 1, 53, 0
2, 409200, Note_off_c, 1, 72, 0
2, 409240, Note_on_c, 1, 41, 127
2, 409240, Note_on_c, 1, 70, 127
2, 409400, Note_off_c, 1, 41, 0
2, 409400, Note_off_c, 1, 70, 0
2, 409440, Note_on_c, 1, 46, 127
2, 409440, Note_on_c, 1, 61, 127
2, 409440, Note_on_c, 1, 65, 127
2, 409440, Note_on_c, 1, 70, 127
2, 409600, Note_off_c, 1, 46, 0
2, 409640, Note_on_c, 1, 48, 127
2, 409800, Note_off_c, 1, 48, 0
2, 409840, Note_on_c, 1, 49, 127
2, 410000, Note_off_c, 1, 49, 0
2, 410040, Note_on_c, 1, 48, 127
2, 410200, Note_off_c, 1, 48, 0
2, 410240, Note_on_c, 1, 46, 127
2, 410360, Note_off_c, 1, 46, 0
2, 410440, Note_on_c, 1, 44, 127
2, 410560, Note_off_c, 1, 44, 0
2, 410560, Note_off_c, 1, 61, 0
2, 410560, Note_off_c, 1, 65, 0
2, 410560, Note_off_c, 1, 70, 0
2, 410600, Note_on_c, 1, 43, 127
2, 410600, Note_on_c, 1, 70, 127
2, 410760, Note_off_c, 1, 43, 0
2, 410800, Note_on_c, 1, 46, 127
2, 410960, Note_off_c, 1, 46, 0
2, 410960, Note_off_c, 1, 70, 0
2, 411000, Note_on_c, 1, 44, 127
2, 411000, Note_on_c, 1, 70, 127
2, 411000, Note_on_c, 1, 72, 127
2, 411040, Note_off_c, 1, 72, 0
2, 411080, Note_on_c, 1, 73, 127
2, 411120, Note_off_c, 1, 73, 0
2, 411160, Note_off_c, 1, 44, 0
2, 411160, Note_on_c, 1, 75, 127
2, 411200, Note_on_c, 1, 43, 127
2, 411360, Note_off_c, 1, 43, 0
2, 411400, Note_on_c, 1, 41, 127
2, 411560, Note_off_c, 1, 41, 0
2, 411560, Note_off_c, 1, 75, 0
2, 411600, Note_on_c, 1, 39, 127
2, 411600, Note_on_c, 1, 73, 127
2, 411760, Note_off_c, 1, 39, 0
2, 411760, Note_off_c, 1, 70, 0
2, 411760, Note_off_c, 1, 73, 0
2, 411800, Note_on_c, 1, 44, 127
2, 411800, Note_on_c, 1, 68, 127
2, 411800, Note_on_c, 1, 73, 127
2, 411880, Note_off_c, 1, 73, 0
2, 411920, Note_on_c, 1, 72, 127
2, 411960, Note_off_c, 1, 44, 0
2, 411960, Note_off_c, 1, 72, 0
2, 412000, Note_on_c, 1, 46, 127
2, 412000, Note_on_c, 1, 73, 127
2, 412040, Note_off_c, 1, 73, 0
2, 412080, Note_on_c, 1, 72, 127
2, 412120, Note_off_c, 1, 72, 0
2, 412120, Note_on_c, 1, 73, 127
2, 412160, Note_off_c, 1, 46, 0
2, 412160, Note_off_c, 1, 73, 0
2, 412200, Note_on_c, 1, 44, 127
2, 412200, Note_on_c, 1, 72, 127
2, 412360, Note_off_c, 1, 44, 0
2, 412360, Note_off_c, 1, 68, 0
2, 412360, Note_off_c, 1, 72, 0
2, 412400, Note_on_c, 1, 43, 127
2, 412400, Note_on_c, 1, 70, 127
2, 412560, Note_off_c, 1, 43, 0
2, 412560, Note_off_c, 1, 70, 0
2, 412600, Note_on_c, 1, 41, 127
2, 412600, Note_on_c, 1, 68, 127
2, 412760, Note_off_c, 1, 41, 0
2, 412760, Note_off_c, 1, 68, 0
2, 412800, Note_on_c, 1, 39, 127
2, 412800, Note_on_c, 1, 72, 127
2, 412960, Note_off_c, 1, 39, 0
2, 412960, Note_off_c, 1, 72, 0
2, 413000, Note_on_c, 1, 37, 127
2, 413000, Note_on_c, 1, 56, 127
2, 413000, Note_on_c, 1, 65, 127
2, 413160, Note_off_c, 1, 37, 0
2, 413200, Note_on_c, 1, 39, 127
2, 413360, Note_off_c, 1, 39, 0
2, 413360, Note_off_c, 1, 56, 0
2, 413360, Note_off_c, 1, 65, 0
2, 413400, Note_on_c, 1, 37, 127
2, 413400, Note_on_c, 1, 58, 127
2, 413440, Note_off_c, 1, 58, 0
2, 413440, Note_on_c, 1, 61, 127
2, 413480, Note_on_c, 1, 63, 127
2, 413520, Note_on_c, 1, 67, 127
2, 413560, Note_off_c, 1, 37, 0
2, 413600, Note_on_c, 1, 36, 127
2, 413760, Note_off_c, 1, 36, 0
2, 413800, Note_on_c, 1, 34, 127
2, 413960, Note_off_c, 1, 34, 0
2, 413960, Note_off_c, 1, 61, 0
2, 413960, Note_off_c, 1, 63, 0
2, 413960, Note_off_c, 1, 67, 0
2, 414000, Note_on_c, 1, 32, 127
2, 414000, Note_on_c, 1, 60, 127
2, 414000, Note_on_c, 1, 68, 127
2, 414160, Note_off_c, 1, 32, 0
2, 414160, Note_off_c, 1, 60, 0
2, 414160, Note_off_c, 1, 68, 0
2, 414200, Note_on_c, 1, 39, 127
2, 414200, Note_on_c, 1, 58, 127
2, 414200, Note_on_c, 1, 68, 127
2, 414240, Note_on_c, 1, 67, 127
2, 414240, Note_off_c, 1, 68, 0
2, 414280, Note_off_c, 1, 67, 0
2, 414320, Note_off_c, 1, 39, 0
2, 414320, Note_on_c, 1, 68, 127
2, 414360, Note_off_c, 1, 68, 0
2, 414400, Note_on_c, 1, 37, 127
2, 414400, Note_on_c, 1, 67, 127
2, 414520, Note_off_c, 1, 37, 0
2, 414560, Note_on_c, 1, 39, 127
2, 414720, Note_off_c, 1, 39, 0
2, 414720, Note_off_c, 1, 67, 0
2, 414760, Note_on_c, 1, 41, 127
2, 414760, Note_on_c, 1, 65, 127
2, 414920, Note_off_c, 1, 41, 0
2, 414920, Note_off_c, 1, 58, 0
2, 414920, Note_off_c, 1, 65, 0
2, 414960, Note_on_c, 1, 43, 127
2, 414960, Note_on_c, 1, 63, 127
2, 415120, Note_off_c, 1, 43, 0
2, 415160, Note_on_c, 1, 41, 127
2, 415320, Note_off_c, 1, 41, 0
2, 415320, Note_off_c, 1, 63, 0
2, 415360, Note_on_c, 1, 43, 127
2, 415360, Note_on_c, 1, 70, 127
2, 415520, Note_off_c, 1, 43, 0
2, 415520, Note_off_c, 1, 70, 0
2, 415560, Note_on_c, 1, 39, 127
2, 415560, Note_on_c, 1, 72, 127
2, 415640, Note_off_c, 1, 72, 0
2, 415680, Note_on_c, 1, 73, 127
2, 415720, Note_off_c, 1, 39, 0
2, 415720, Note_off_c, 1, 73, 0
2, 415760, Note_on_c, 1, 44, 127
2, 415760, Note_on_c, 1, 73, 127
2, 415840, Note_off_c, 1, 73, 0
2, 415880, Note_on_c, 1, 72, 127
2, 415920, Note_off_c, 1, 44, 0
2, 415920, Note_off_c, 1, 72, 0
2, 415960, Note_on_c, 1, 43, 127
2, 415960, Note_on_c, 1, 73, 127
2, 416000, Note_off_c, 1, 73, 0
2, 416040, Note_on_c, 1, 72, 127
2, 416080, Note_off_c, 1, 72, 0
2, 416080, Note_on_c, 1, 73, 127
2, 416120, Note_off_c, 1, 43, 0
2, 416120, Note_off_c, 1, 73, 0
2, 416160, Note_on_c, 1, 44, 127
2, 416160, Note_on_c, 1, 72, 127
2, 416320, Note_off_c, 1, 44, 0
2, 416320, Note_off_c, 1, 72, 0
2, 416360, Note_on_c, 1, 46, 127
2, 416360, Note_on_c, 1, 70, 127
2, 416520, Note_off_c, 1, 46, 0
2, 416520, Note_off_c, 1, 70, 0
2, 416560, Note_on_c, 1, 48, 127
2, 416560, Note_on_c, 1, 70, 127
2, 416720, Note_off_c, 1, 48, 0
2, 416760, Note_on_c, 1, 46, 127
2, 416760, Note_on_c, 1, 75, 127
2, 416920, Note_off_c, 1, 46, 0
2, 416920, Note_off_c, 1, 70, 0
2, 416960, Note_on_c, 1, 48, 127
2, 416960, Note_on_c, 1, 68, 127
2, 417120, Note_off_c, 1, 48, 0
2, 417120, Note_off_c, 1, 75, 0
2, 417160, Note_on_c, 1, 44, 127
2, 417160, Note_on_c, 1, 77, 127
2, 417320, Note_off_c, 1, 44, 0
2, 417320, Note_off_c, 1, 68, 0
2, 417320, Note_off_c, 1, 77, 0
2, 417360, Note_on_c, 1, 46, 127
2, 417360, Note_on_c, 1, 78, 127
2, 417520, Note_off_c, 1, 46, 0
2, 417520, Note_off_c, 1, 78, 0
2, 417560, Note_on_c, 1, 49, 127
2, 417560, Note_on_c, 1, 75, 127
2, 417720, Note_off_c, 1, 49, 0
2, 417720, Note_off_c, 1, 75, 0
2, 417760, Note_on_c, 1, 48, 127
2, 417760, Note_on_c, 1, 68, 127
2, 417800, Note_on_c, 1, 75, 127
2, 417880, Note_off_c, 1, 48, 0
2, 417880, Note_on_c, 1, 80, 127
2, 417960, Note_on_c, 1, 51, 127
2, 418080, Note_off_c, 1, 51, 0
2, 418080, Note_off_c, 1, 68, 0
2, 418080, Note_off_c, 1, 75, 0
2, 418080, Note_off_c, 1, 80, 0
2, 418120, Note_on_c, 1, 49, 127
2, 418120, Note_on_c, 1, 75, 127
2, 418120, Note_on_c, 1, 80, 127
2, 418160, Note_off_c, 1, 80, 0
2, 418200, Note_on_c, 1, 78, 127
2, 418240, Note_off_c, 1, 78, 0
2, 418280, Note_off_c, 1, 49, 0
2, 418280, Note_on_c, 1, 77, 127
2, 418320, Note_on_c, 1, 48, 127
2, 418320, Note_off_c, 1, 77, 0
2, 418320, Note_on_c, 1, 78, 127
2, 418360, Note_off_c, 1, 78, 0
2, 418400, Note_on_c, 1, 80, 127
2, 418440, Note_off_c, 1, 80, 0
2, 418480, Note_off_c, 1, 48, 0
2, 418480, Note_on_c, 1, 78, 127
2, 418520, Note_on_c, 1, 46, 127
2, 418520, Note_off_c, 1, 78, 0
2, 418520, Note_on_c, 1, 80, 127
2, 418560, Note_off_c, 1, 80, 0
2, 418600, Note_on_c, 1, 78, 127
2, 418640, Note_off_c, 1, 78, 0
2, 418680, Note_off_c, 1, 46, 0
2, 418680, Note_on_c, 1, 77, 127
2, 418720, Note_on_c, 1, 44, 127
2, 418720, Note_off_c, 1, 77, 0
2, 418720, Note_on_c, 1, 78, 127
2, 418760, Note_off_c, 1, 78, 0
2, 418800, Note_on_c, 1, 80, 127
2, 418880, Note_off_c, 1, 44, 0
2, 418880, Note_off_c, 1, 75, 0
2, 418880, Note_off_c, 1, 80, 0
2, 418920, Note_on_c, 1, 49, 127
2, 418920, Note_on_c, 1, 68, 127
2, 418920, Note_on_c, 1, 78, 127
2, 419040, Note_off_c, 1, 78, 0
2, 419080, Note_off_c, 1, 49, 0
2, 419080, Note_on_c, 1, 77, 127
2, 419120, Note_on_c, 1, 53, 127
2, 419120, Note_off_c, 1, 77, 0
2, 419120, Note_on_c, 1, 78, 127
2, 419160, Note_off_c, 1, 78, 0
2, 419200, Note_on_c, 1, 77, 127
2, 419240, Note_off_c, 1, 77, 0
2, 419280, Note_off_c, 1, 53, 0
2, 419280, Note_on_c, 1, 78, 127
2, 419320, Note_on_c, 1, 51, 127
2, 419320, Note_on_c, 1, 77, 127
2, 419320, Note_off_c, 1, 78, 0
2, 419480, Note_off_c, 1, 51, 0
2, 419480, Note_off_c, 1, 68, 0
2, 419480, Note_off_c, 1, 77, 0
2, 419520, Note_on_c, 1, 49, 127
2, 419520, Note_on_c, 1, 70, 127
2, 419520, Note_on_c, 1, 79, 127
2, 419720, Note_off_c, 1, 49, 0
2, 419720, Note_off_c, 1, 70, 0
2, 419720, Note_off_c, 1, 79, 0
2, 419760, Note_on_c, 1, 48, 127
2, 419760, Note_on_c, 1, 72, 127
2, 419760, Note_on_c, 1, 80, 127
2, 419920, Note_off_c, 1, 48, 0
2, 419920, Note_off_c, 1, 72, 0
2, 419920, Note_off_c, 1, 80, 0
2, 419960, Note_on_c, 1, 46, 127
2, 419960, Note_on_c, 1, 73, 127
2, 420120, Note_off_c, 1, 46, 0
2, 420120, Note_off_c, 1, 73, 0
2, 420160, Note_on_c, 1, 44, 127
2, 420160, Note_on_c, 1, 72, 127
2, 420320, Note_off_c, 1, 44, 0
2, 420320, Note_off_c, 1, 72, 0
2, 420360, Note_on_c, 1, 49, 127
2, 420360, Note_on_c, 1, 70, 127
2, 420560, Note_off_c, 1, 49, 0
2, 420560, Note_off_c, 1, 70, 0
2, 420600, Note_on_c, 1, 51, 127
2, 420600, Note_on_c, 1, 67, 127
2, 420600, Note_on_c, 1, 72, 127
2, 420680, Note_off_c, 1, 72, 0
2, 420720, Note_on_c, 1, 70, 127
2, 420760, Note_off_c, 1, 51, 0
2, 420760, Note_off_c, 1, 70, 0
2, 420800, Note_on_c, 1, 49, 127
2, 420800, Note_on_c, 1, 72, 127
2, 420840, Note_off_c, 1, 72, 0
2, 420880, Note_on_c, 1, 70, 127
2, 420920, Note_off_c, 1, 70, 0
2, 420960, Note_off_c, 1, 49, 0
2, 420960, Note_on_c, 1, 72, 127
2, 421000, Note_on_c, 1, 51, 127
2, 421000, Note_on_c, 1, 70, 127
2, 421000, Note_off_c, 1, 72, 0
2, 421040, Note_off_c, 1, 70, 0
2, 421080, Note_on_c, 1, 72, 127
2, 421120, Note_off_c, 1, 72, 0
2, 421160, Note_off_c, 1, 67, 0
2, 421160, Note_on_c, 1, 70, 127
2, 421200, Note_off_c, 1, 51, 0
2, 421200, Note_off_c, 1, 70, 0
2, 421240, Note_on_c, 1, 39, 127
2, 421240, Note_on_c, 1, 68, 127
2, 421440, Note_off_c, 1, 39, 0
2, 421440, Note_off_c, 1, 68, 0
2, 421480, Note_on_c, 1, 44, 127
2, 421480, Note_on_c, 1, 68, 127
2, 421720, Note_on_c, 1, 63, 127
2, 421960, Note_on_c, 1, 60, 127
2, 422160, Note_off_c, 1, 44, 0
2, 422200, Note_on_c, 1, 39, 127
2, 422400, Note_off_c, 1, 39, 0
2, 422440, Note_on_c, 1, 32, 127
2, 422680, Note_on_c, 1, 39, 127
2, 422880, Note_off_c, 1, 39, 0
2, 422920, Note_on_c, 1, 44, 127
2, 425360, Note_off_c, 1, 32, 0
2, 425360, Note_off_c, 1, 44, 0
2, 425360, Note_off_c, 1, 60, 0
2, 425360, Note_off_c, 1, 63, 0
2, 425360, Note_off_c, 1, 68, 0
2, 427160, Note_on_c, 1, 44, 127
2, 427160, Note_on_c, 1, 63, 127
2, 427200, Note_on_c, 1, 51, 127
2, 427200, Note_on_c, 1, 68, 127
2, 427280, Note_on_c, 1, 56, 127
2, 427280, Note_on_c, 1, 70, 127
2, 427320, Note_off_c, 1, 70, 0
2, 427360, Note_on_c, 1, 72, 127
2, 427520, Note_off_c, 1, 63, 0
2, 427520, Note_off_c, 1, 68, 0
2, 427760, Note_off_c, 1, 72, 0
2, 427800, Note_on_c, 1, 73, 127
2, 427840, Note_off_c, 1, 73, 0
2, 427880, Note_on_c, 1, 75, 127
2, 427960, Note_off_c, 1, 75, 0
2, 428000, Note_on_c, 1, 73, 127
2, 428440, Note_off_c, 1, 73, 0
2, 428480, Note_on_c, 1, 72, 127
2, 428840, Note_off_c, 1, 72, 0
2, 428880, Note_on_c, 1, 72, 127
2, 428920, Note_off_c, 1, 72, 0
2, 428960, Note_on_c, 1, 70, 127
2, 429000, Note_off_c, 1, 70, 0
2, 429000, Note_on_c, 1, 72, 127
2, 429040, Note_off_c, 1, 72, 0
2, 429080, Note_on_c, 1, 70, 127
2, 429240, Note_off_c, 1, 70, 0
2, 429280, Note_on_c, 1, 68, 127
2, 429640, Note_off_c, 1, 51, 0
2, 429680, Note_off_c, 1, 44, 0
2, 429680, Note_off_c, 1, 56, 0
2, 429680, Note_off_c, 1, 68, 0
2, 429720, Note_on_c, 1, 56, 127
2, 429720, Note_on_c, 1, 60, 127
2, 429720, Note_on_c, 1, 63, 127
2, 429720, Note_on_c, 1, 68, 127
2, 429720, Note_on_c, 1, 75, 127
2, 429720, Note_on_c, 1, 78, 127
2, 430080, Note_off_c, 1, 75, 0
2, 430080, Note_off_c, 1, 78, 0
2, 430120, Note_on_c, 1, 73, 127
2, 430120, Note_on_c, 1, 77, 127
2, 430480, Note_off_c, 1, 60, 0
2, 430480, Note_off_c, 1, 63, 0
2, 430480, Note_off_c, 1, 68, 0
2, 430480, Note_off_c, 1, 73, 0
2, 430480, Note_off_c, 1, 77, 0
2, 430520, Note_on_c, 1, 61, 127
2, 430520, Note_on_c, 1, 65, 127
2, 430520, Note_on_c, 1, 68, 127
2, 430520, Note_on_c, 1, 75, 127
2, 430520, Note_on_c, 1, 78, 127
2, 431320, Note_off_c, 1, 75, 0
2, 431320, Note_off_c, 1, 78, 0
2, 431360, Note_on_c, 1, 73, 127
2, 431360, Note_on_c, 1, 77, 127
2, 432160, Note_off_c, 1, 56, 0
2, 432160, Note_off_c, 1, 61, 0
2, 432160, Note_off_c, 1, 65, 0
2, 432160, Note_off_c, 1, 68, 0
2, 432160, Note_off_c, 1, 73, 0
2, 432160, Note_off_c, 1, 77, 0
2, 432200, Note_on_c, 1, 58, 127
2, 432200, Note_on_c, 1, 61, 127
2, 432200, Note_on_c, 1, 70, 127
2, 432200, Note_on_c, 1, 73, 127
2, 432200, Note_on_c, 1, 75, 127
2, 432200, Note_on_c, 1, 80, 127
2, 432560, Note_off_c, 1, 80, 0
2, 432600, Note_on_c, 1, 79, 127
2, 433000, Note_off_c, 1, 58, 0
2, 433000, Note_off_c, 1, 61, 0
2, 433000, Note_off_c, 1, 70, 0
2, 433000, Note_off_c, 1, 73, 0
2, 433000, Note_off_c, 1, 75, 0
2, 433000, Note_off_c, 1, 79, 0
2, 433040, Note_on_c, 1, 60, 127
2, 433040, Note_on_c, 1, 63, 127
2, 433040, Note_on_c, 1, 68, 127
2, 433040, Note_on_c, 1, 72, 127
2, 433040, Note_on_c, 1, 75, 127
2, 433040, Note_on_c, 1, 79, 127
2, 433400, Note_off_c, 1, 79, 0
2, 433440, Note_on_c, 1, 80, 127
2, 433800, Note_off_c, 1, 60, 0
2, 433800, Note_off_c, 1, 63, 0
2, 433800, Note_off_c, 1, 68, 0
2, 433800, Note_off_c, 1, 72, 0
2, 433800, Note_off_c, 1, 75, 0
2, 433800, Note_off_c, 1, 80, 0
2, 433840, Note_on_c, 1, 61, 127
2, 433840, Note_on_c, 1, 65, 127
2, 433840, Note_on_c, 1, 70, 127
2, 434080, Note_on_c, 1, 82, 127
2, 434120, Note_off_c, 1, 82, 0
2, 434160, Note_on_c, 1, 80, 127
2, 434240, Note_off_c, 1, 80, 0
2, 434280, Note_on_c, 1, 79, 127
2, 434320, Note_off_c, 1, 79, 0
2, 434360, Note_on_c, 1, 80, 127
2, 434440, Note_off_c, 1, 80, 0
2, 434480, Note_on_c, 1, 82, 127
2, 434640, Note_off_c, 1, 61, 0
2, 434640, Note_off_c, 1, 65, 0
2, 434640, Note_off_c, 1, 70, 0
2, 434640, Note_off_c, 1, 82, 0
2, 434680, Note_on_c, 1, 63, 127
2, 434680, Note_on_c, 1, 70, 127
2, 434680, Note_on_c, 1, 80, 127
2, 434760, Note_off_c, 1, 80, 0
2, 434800, Note_on_c, 1, 79, 127
2, 434840, Note_off_c, 1, 79, 0
2, 434880, Note_on_c, 1, 80, 127
2, 434920, Note_off_c, 1, 80, 0
2, 434960, Note_on_c, 1, 79, 127
2, 435000, Note_off_c, 1, 79, 0
2, 435040, Note_on_c, 1, 80, 127
2, 435080, Note_on_c, 1, 79, 127
2, 435080, Note_off_c, 1, 80, 0
2, 435120, Note_off_c, 1, 79, 0
2, 435160, Note_on_c, 1, 80, 127
2, 435200, Note_off_c, 1, 80, 0
2, 435240, Note_on_c, 1, 79, 127
2, 435280, Note_off_c, 1, 79, 0
2, 435320, Note_on_c, 1, 80, 127
2, 435360, Note_on_c, 1, 79, 127
2, 435360, Note_off_c, 1, 80, 0
2, 435520, Note_on_c, 1, 51, 127
2, 435880, Note_off_c, 1, 70, 0
2, 435880, Note_off_c, 1, 79, 0
2, 435920, Note_on_c, 1, 68, 127
2, 435920, Note_on_c, 1, 77, 127
2, 436280, Note_off_c, 1, 68, 0
2, 436280, Note_off_c, 1, 77, 0
2, 436320, Note_on_c, 1, 67, 127
2, 436320, Note_on_c, 1, 75, 127
2, 436720, Note_off_c, 1, 51, 0
2, 436720, Note_off_c, 1, 75, 0
2, 436760, Note_on_c, 1, 53, 127
2, 436760, Note_on_c, 1, 73, 127
2, 437120, Note_off_c, 1, 53, 0
2, 437120, Note_off_c, 1, 63, 0
2, 437120, Note_off_c, 1, 67, 0
2, 437120, Note_off_c, 1, 73, 0
2, 437160, Note_on_c, 1, 54, 127
2, 437160, Note_on_c, 1, 63, 127
2, 437160, Note_on_c, 1, 68, 127
2, 437160, Note_on_c, 1, 72, 127
2, 437760, Note_off_c, 1, 68, 0
2, 437760, Note_off_c, 1, 72, 0
2, 437800, Note_on_c, 1, 73, 127
2, 437840, Note_off_c, 1, 73, 0
2, 437880, Note_on_c, 1, 75, 127
2, 437960, Note_off_c, 1, 75, 0
2, 438000, Note_on_c, 1, 73, 127
2, 438360, Note_off_c, 1, 73, 0
2, 438400, Note_on_c, 1, 72, 127
2, 438760, Note_off_c, 1, 72, 0
2, 438800, Note_on_c, 1, 72, 127
2, 438840, Note_off_c, 1, 72, 0
2, 438880, Note_on_c, 1, 70, 127
2, 438920, Note_off_c, 1, 70, 0
2, 438960, Note_on_c, 1, 72, 127
2, 439000, Note_off_c, 1, 72, 0
2, 439040, Note_on_c, 1, 70, 127
2, 439200, Note_off_c, 1, 70, 0
2, 439240, Note_on_c, 1, 68, 127
2, 439600, Note_off_c, 1, 54, 0
2, 439600, Note_off_c, 1, 63, 0
2, 439600, Note_off_c, 1, 68, 0
2, 439640, Note_on_c, 1, 46, 127
2, 439640, Note_on_c, 1, 72, 127
2, 439640, Note_on_c, 1, 75, 127
2, 439720, Note_off_c, 1, 46, 0
2, 439720, Note_on_c, 1, 77, 127
2, 439760, Note_on_c, 1, 45, 127
2, 439760, Note_off_c, 1, 77, 0
2, 439800, Note_on_c, 1, 78, 127
2, 439840, Note_off_c, 1, 45, 0
2, 439880, Note_on_c, 1, 46, 127
2, 439960, Note_off_c, 1, 46, 0
2, 440000, Note_on_c, 1, 45, 127
2, 440000, Note_off_c, 1, 78, 0
2, 440040, Note_on_c, 1, 77, 127
2, 440440, Note_off_c, 1, 45, 0
2, 440440, Note_off_c, 1, 75, 0
2, 440440, Note_off_c, 1, 77, 0
2, 440480, Note_on_c, 1, 46, 127
2, 440480, Note_on_c, 1, 75, 127
2, 440560, Note_off_c, 1, 75, 0
2, 440600, Note_on_c, 1, 73, 127
2, 440640, Note_off_c, 1, 73, 0
2, 440680, Note_on_c, 1, 75, 127
2, 440720, Note_off_c, 1, 75, 0
2, 440760, Note_on_c, 1, 73, 127
2, 440800, Note_off_c, 1, 73, 0
2, 440800, Note_on_c, 1, 75, 127
2, 440840, Note_off_c, 1, 75, 0
2, 440880, Note_on_c, 1, 73, 127
2, 440920, Note_off_c, 1, 73, 0
2, 440960, Note_on_c, 1, 75, 127
2, 441000, Note_on_c, 1, 73, 127
2, 441000, Note_off_c, 1, 75, 0
2, 441040, Note_off_c, 1, 46, 0
2, 441080, Note_on_c, 1, 48, 127
2, 441160, Note_off_c, 1, 48, 0
2, 441200, Note_on_c, 1, 49, 127
2, 441240, Note_off_c, 1, 49, 0
2, 441240, Note_off_c, 1, 72, 0
2, 441280, Note_on_c, 1, 44, 127
2, 441280, Note_on_c, 1, 70, 127
2, 441360, Note_off_c, 1, 44, 0
2, 441400, Note_on_c, 1, 43, 127
2, 441440, Note_off_c, 1, 43, 0
2, 441520, Note_on_c, 1, 44, 127
2, 441560, Note_off_c, 1, 44, 0
2, 441600, Note_on_c, 1, 43, 127
2, 441680, Note_off_c, 1, 73, 0
2, 441720, Note_on_c, 1, 75, 127
2, 442080, Note_off_c, 1, 43, 0
2, 442080, Note_off_c, 1, 75, 0
2, 442120, Note_on_c, 1, 44, 127
2, 442120, Note_on_c, 1, 73, 127
2, 442280, Note_off_c, 1, 73, 0
2, 442320, Note_on_c, 1, 72, 127
2, 442480, Note_off_c, 1, 72, 0
2, 442520, Note_on_c, 1, 73, 127
2, 442720, Note_off_c, 1, 44, 0
2, 442720, Note_off_c, 1, 73, 0
2, 442760, Note_on_c, 1, 46, 127
2, 442760, Note_on_c, 1, 75, 127
2, 442800, Note_off_c, 1, 46, 0
2, 442840, Note_on_c, 1, 48, 127
2, 442920, Note_off_c, 1, 48, 0
2, 442920, Note_off_c, 1, 75, 0
2, 442960, Note_on_c, 1, 41, 127
2, 442960, Note_on_c, 1, 75, 127
2, 443200, Note_off_c, 1, 75, 0
2, 443240, Note_on_c, 1, 74, 127
2, 443280, Note_off_c, 1, 74, 0
2, 443280, Note_on_c, 1, 75, 127
2, 443320, Note_off_c, 1, 70, 0
2, 443320, Note_off_c, 1, 75, 0
2, 443360, Note_on_c, 1, 68, 127
2, 443360, Note_on_c, 1, 74, 127
2, 443400, Note_off_c, 1, 74, 0
2, 443440, Note_on_c, 1, 75, 127
2, 443480, Note_off_c, 1, 75, 0
2, 443520, Note_on_c, 1, 74, 127
2, 443560, Note_off_c, 1, 74, 0
2, 443560, Note_on_c, 1, 75, 127
2, 443600, Note_off_c, 1, 75, 0
2, 443640, Note_on_c, 1, 74, 127
2, 443680, Note_off_c, 1, 74, 0
2, 443720, Note_off_c, 1, 41, 0
2, 443720, Note_off_c, 1, 68, 0
2, 443720, Note_on_c, 1, 75, 127
2, 443760, Note_on_c, 1, 46, 127
2, 443760, Note_on_c, 1, 72, 127
2, 443760, Note_on_c, 1, 74, 127
2, 443760, Note_off_c, 1, 75, 0
2, 443800, Note_off_c, 1, 74, 0
2, 443840, Note_on_c, 1, 75, 127
2, 443880, Note_off_c, 1, 75, 0
2, 443920, Note_on_c, 1, 74, 127
2, 444160, Note_off_c, 1, 72, 0
2, 444200, Note_on_c, 1, 70, 127
2, 444320, Note_off_c, 1, 74, 0
2, 444360, Note_on_c, 1, 72, 127
2, 444440, Note_off_c, 1, 72, 0
2, 444480, Note_on_c, 1, 74, 127
2, 444560, Note_off_c, 1, 46, 0
2, 444560, Note_off_c, 1, 70, 0
2, 444560, Note_off_c, 1, 74, 0
2, 444600, Note_on_c, 1, 39, 127
2, 444600, Note_on_c, 1, 68, 127
2, 444600, Note_on_c, 1, 75, 127
2, 445000, Note_on_c, 1, 46, 127
2, 445200, Note_off_c, 1, 75, 0
2, 445240, Note_on_c, 1, 77, 127
2, 445280, Note_off_c, 1, 77, 0
2, 445320, Note_on_c, 1, 74, 127
2, 445400, Note_off_c, 1, 46, 0
2, 445400, Note_off_c, 1, 68, 0
2, 445400, Note_off_c, 1, 74, 0
2, 445440, Note_on_c, 1, 51, 127
2, 445440, Note_on_c, 1, 68, 127
2, 445440, Note_on_c, 1, 74, 127
2, 446200, Note_off_c, 1, 68, 0
2, 446200, Note_off_c, 1, 74, 0
2, 446240, Note_on_c, 1, 67, 127
2, 446240, Note_on_c, 1, 75, 127
2, 446320, Note_off_c, 1, 67, 0
2, 446360, Note_on_c, 1, 68, 127
2, 446400, Note_off_c, 1, 68, 0
2, 446440, Note_on_c, 1, 67, 127
2, 446480, Note_off_c, 1, 67, 0
2, 446520, Note_on_c, 1, 68, 127
2, 446560, Note_off_c, 1, 68, 0
2, 446600, Note_on_c, 1, 67, 127
2, 447080, Note_off_c, 1, 39, 0
2, 447080, Note_off_c, 1, 51, 0
2, 447080, Note_off_c, 1, 67, 0
2, 447080, Note_off_c, 1, 75, 0
2, 447120, Note_on_c, 1, 49, 127
2, 447120, Note_on_c, 1, 58, 127
2, 447120, Note_on_c, 1, 63, 127
2, 447120, Note_on_c, 1, 67, 127
2, 447680, Note_off_c, 1, 67, 0
2, 447720, Note_on_c, 1, 68, 127
2, 447800, Note_off_c, 1, 68, 0
2, 447840, Note_on_c, 1, 70, 127
2, 447920, Note_off_c, 1, 70, 0
2, 447960, Note_on_c, 1, 68, 127
2, 448320, Note_off_c, 1, 68, 0
2, 448360, Note_on_c, 1, 67, 127
2, 448720, Note_off_c, 1, 67, 0
2, 448760, Note_on_c, 1, 67, 127
2, 448800, Note_off_c, 1, 67, 0
2, 448840, Note_on_c, 1, 65, 127
2, 448880, Note_off_c, 1, 65, 0
2, 448920, Note_on_c, 1, 67, 127
2, 448960, Note_on_c, 1, 65, 127
2, 448960, Note_off_c, 1, 67, 0
2, 449160, Note_off_c, 1, 63, 0
2, 449160, Note_off_c, 1, 65, 0
2, 449200, Note_on_c, 1, 63, 127
2, 449560, Note_off_c, 1, 49, 0
2, 449560, Note_off_c, 1, 58, 0
2, 449560, Note_off_c, 1, 63, 0
2, 449600, Note_on_c, 1, 48, 127
2, 449600, Note_on_c, 1, 56, 127
2, 449600, Note_on_c, 1, 66, 127
2, 449600, Note_on_c, 1, 75, 127
2, 449960, Note_off_c, 1, 66, 0
2, 449960, Note_off_c, 1, 75, 0
2, 450000, Note_on_c, 1, 65, 127
2, 450000, Note_on_c, 1, 73, 127
2, 450400, Note_off_c, 1, 65, 0
2, 450400, Note_off_c, 1, 73, 0
2, 450440, Note_on_c, 1, 65, 127
2, 450440, Note_on_c, 1, 73, 127
2, 450600, Note_off_c, 1, 48, 0
2, 450600, Note_off_c, 1, 56, 0
2, 450640, Note_on_c, 1, 49, 127
2, 450800, Note_off_c, 1, 49, 0
2, 450840, Note_on_c, 1, 51, 127
2, 451000, Note_off_c, 1, 51, 0
2, 451040, Note_on_c, 1, 49, 127
2, 451200, Note_off_c, 1, 49, 0
2, 451200, Note_off_c, 1, 65, 0
2, 451200, Note_off_c, 1, 73, 0
2, 451240, Note_on_c, 1, 48, 127
2, 451240, Note_on_c, 1, 66, 127
2, 451240, Note_on_c, 1, 75, 127
2, 451440, Note_off_c, 1, 48, 0
2, 451480, Note_on_c, 1, 46, 127
2, 451640, Note_off_c, 1, 46, 0
2, 451680, Note_on_c, 1, 45, 127
2, 451840, Note_off_c, 1, 45, 0
2, 451880, Note_on_c, 1, 46, 127
2, 452040, Note_off_c, 1, 46, 0
2, 452040, Note_off_c, 1, 66, 0
2, 452080, Note_on_c, 1, 45, 127
2, 452080, Note_on_c, 1, 65, 127
2, 452680, Note_off_c, 1, 75, 0
2, 452720, Note_on_c, 1, 77, 127
2, 452760, Note_off_c, 1, 77, 0
2, 452800, Note_on_c, 1, 78, 127
2, 452880, Note_off_c, 1, 78, 0
2, 452920, Note_on_c, 1, 48, 127
2, 452920, Note_on_c, 1, 77, 127
2, 453280, Note_off_c, 1, 77, 0
2, 453320, Note_on_c, 1, 75, 127
2, 453680, Note_off_c, 1, 48, 0
2, 453680, Note_off_c, 1, 75, 0
2, 453720, Note_on_c, 1, 53, 127
2, 453720, Note_on_c, 1, 75, 127
2, 453760, Note_off_c, 1, 75, 0
2, 453800, Note_on_c, 1, 73, 127
2, 453840, Note_off_c, 1, 73, 0
2, 453880, Note_on_c, 1, 75, 127
2, 453920, Note_off_c, 1, 75, 0
2, 453960, Note_on_c, 1, 73, 127
2, 454120, Note_off_c, 1, 73, 0
2, 454160, Note_on_c, 1, 72, 127
2, 454520, Note_off_c, 1, 45, 0
2, 454520, Note_off_c, 1, 72, 0
2, 454560, Note_on_c, 1, 46, 127
2, 454560, Note_on_c, 1, 73, 127
2, 454920, Note_off_c, 1, 65, 0
2, 454920, Note_off_c, 1, 73, 0
2, 454960, Note_on_c, 1, 63, 127
2, 454960, Note_on_c, 1, 69, 127
2, 454960, Note_on_c, 1, 72, 127
2, 455360, Note_off_c, 1, 53, 0
2, 455360, Note_off_c, 1, 63, 0
2, 455360, Note_off_c, 1, 69, 0
2, 455360, Note_off_c, 1, 72, 0
2, 455400, Note_on_c, 1, 58, 127
2, 455400, Note_on_c, 1, 65, 127
2, 455400, Note_on_c, 1, 69, 127
2, 455400, Note_on_c, 1, 72, 127
2, 455560, Note_off_c, 1, 46, 0
2, 455600, Note_on_c, 1, 48, 127
2, 455760, Note_off_c, 1, 48, 0
2, 455800, Note_on_c, 1, 49, 127
2, 455960, Note_off_c, 1, 49, 0
2, 456000, Note_on_c, 1, 48, 127
2, 456160, Note_off_c, 1, 48, 0
2, 456160, Note_off_c, 1, 58, 0
2, 456160, Note_off_c, 1, 69, 0
2, 456160, Note_off_c, 1, 72, 0
2, 456200, Note_on_c, 1, 46, 127
2, 456200, Note_on_c, 1, 70, 127
2, 456200, Note_on_c, 1, 73, 127
2, 456400, Note_off_c, 1, 46, 0
2, 456440, Note_on_c, 1, 44, 127
2, 456600, Note_off_c, 1, 44, 0
2, 456640, Note_on_c, 1, 42, 127
2, 456800, Note_off_c, 1, 42, 0
2, 456840, Note_on_c, 1, 44, 127
2, 456920, Note_off_c, 1, 44, 0
2, 456960, Note_on_c, 1, 46, 127
2, 457000, Note_off_c, 1, 46, 0
2, 457000, Note_off_c, 1, 65, 0
2, 457000, Note_off_c, 1, 70, 0
2, 457000, Note_off_c, 1, 73, 0
2, 457080, Note_on_c, 1, 39, 127
2, 457080, Note_on_c, 1, 66, 127
2, 457080, Note_on_c, 1, 71, 127
2, 457640, Note_off_c, 1, 71, 0
2, 457680, Note_on_c, 1, 73, 127
2, 457760, Note_off_c, 1, 73, 0
2, 457800, Note_on_c, 1, 75, 127
2, 457840, Note_off_c, 1, 39, 0
2, 457840, Note_off_c, 1, 75, 0
2, 457880, Note_on_c, 1, 51, 127
2, 457880, Note_on_c, 1, 73, 127
2, 458280, Note_off_c, 1, 73, 0
2, 458320, Note_on_c, 1, 71, 127
2, 458680, Note_off_c, 1, 51, 0
2, 458680, Note_off_c, 1, 66, 0
2, 458680, Note_off_c, 1, 71, 0
2, 458720, Note_on_c, 1, 54, 127
2, 458720, Note_on_c, 1, 65, 127
2, 458720, Note_on_c, 1, 71, 127
2, 458800, Note_off_c, 1, 54, 0
2, 458840, Note_on_c, 1, 53, 127
2, 458880, Note_off_c, 1, 53, 0
2, 458880, Note_off_c, 1, 71, 0
2, 458920, Note_on_c, 1, 51, 127
2, 458920, Note_on_c, 1, 70, 127
2, 459000, Note_off_c, 1, 51, 0
2, 459040, Note_on_c, 1, 53, 127
2, 459080, Note_off_c, 1, 53, 0
2, 459080, Note_off_c, 1, 70, 0
2, 459120, Note_on_c, 1, 54, 127
2, 459120, Note_on_c, 1, 72, 127
2, 459200, Note_off_c, 1, 54, 0
2, 459240, Note_on_c, 1, 53, 127
2, 459280, Note_off_c, 1, 72, 0
2, 459320, Note_off_c, 1, 53, 0
2, 459360, Note_on_c, 1, 51, 127
2, 459360, Note_on_c, 1, 69, 127
2, 459400, Note_off_c, 1, 51, 0
2, 459440, Note_on_c, 1, 53, 127
2, 459480, Note_off_c, 1, 65, 0
2, 459520, Note_off_c, 1, 53, 0
2, 459520, Note_off_c, 1, 69, 0
2, 459560, Note_on_c, 1, 54, 127
2, 459560, Note_on_c, 1, 63, 127
2, 459560, Note_on_c, 1, 70, 127
2, 460120, Note_off_c, 1, 63, 0
2, 460160, Note_on_c, 1, 65, 127
2, 460240, Note_off_c, 1, 65, 0
2, 460280, Note_on_c, 1, 66, 127
2, 460320, Note_off_c, 1, 54, 0
2, 460320, Note_off_c, 1, 66, 0
2, 460360, Note_on_c, 1, 49, 127
2, 460360, Note_on_c, 1, 65, 127
2, 460760, Note_off_c, 1, 65, 0
2, 460800, Note_on_c, 1, 63, 127
2, 461160, Note_off_c, 1, 49, 0
2, 461160, Note_off_c, 1, 63, 0
2, 461200, Note_on_c, 1, 51, 127
2, 461200, Note_on_c, 1, 61, 127
2, 461560, Note_off_c, 1, 61, 0
2, 461600, Note_on_c, 1, 60, 127
2, 462000, Note_off_c, 1, 51, 0
2, 462000, Note_off_c, 1, 60, 0
2, 462040, Note_on_c, 1, 53, 127
2, 462040, Note_on_c, 1, 61, 127
2, 462600, Note_off_c, 1, 61, 0
2, 462600, Note_off_c, 1, 70, 0
2, 462640, Note_on_c, 1, 63, 127
2, 462640, Note_on_c, 1, 72, 127
2, 462720, Note_off_c, 1, 63, 0
2, 462720, Note_off_c, 1, 72, 0
2, 462760, Note_on_c, 1, 65, 127
2, 462760, Note_on_c, 1, 73, 127
2, 462800, Note_off_c, 1, 65, 0
2, 462800, Note_off_c, 1, 73, 0
2, 462840, Note_on_c, 1, 60, 127
2, 462840, Note_on_c, 1, 65, 127
2, 463240, Note_off_c, 1, 60, 0
2, 463280, Note_on_c, 1, 63, 127
2, 463400, Note_off_c, 1, 65, 0
2, 463440, Note_off_c, 1, 63, 0
2, 463480, Note_on_c, 1, 61, 127
2, 463480, Note_on_c, 1, 70, 127
2, 463640, Note_off_c, 1, 61, 0
2, 463640, Note_off_c, 1, 70, 0
2, 463680, Note_on_c, 1, 63, 127
2, 463680, Note_on_c, 1, 70, 127
2, 463760, Note_off_c, 1, 70, 0
2, 463800, Note_on_c, 1, 69, 127
2, 463840, Note_off_c, 1, 69, 0
2, 463880, Note_on_c, 1, 70, 127
2, 463920, Note_off_c, 1, 70, 0
2, 463960, Note_on_c, 1, 69, 127
2, 464000, Note_off_c, 1, 69, 0
2, 464040, Note_on_c, 1, 70, 127
2, 464080, Note_on_c, 1, 69, 127
2, 464080, Note_off_c, 1, 70, 0
2, 464280, Note_off_c, 1, 69, 0
2, 464320, Note_on_c, 1, 73, 127
2, 464480, Note_off_c, 1, 53, 0
2, 464480, Note_off_c, 1, 73, 0
2, 464520, Note_on_c, 1, 58, 127
2, 464520, Note_on_c, 1, 72, 127
2, 464880, Note_off_c, 1, 63, 0
2, 464880, Note_off_c, 1, 72, 0
2, 464920, Note_on_c, 1, 66, 127
2, 464920, Note_on_c, 1, 70, 127
2, 465080, Note_off_c, 1, 66, 0
2, 465120, Note_on_c, 1, 65, 127
2, 465280, Note_off_c, 1, 65, 0
2, 465280, Note_off_c, 1, 70, 0
2, 465320, Note_on_c, 1, 63, 127
2, 465320, Note_on_c, 1, 70, 127
2, 465560, Note_on_c, 1, 54, 127
2, 465720, Note_off_c, 1, 54, 0
2, 465720, Note_off_c, 1, 58, 0
2, 465760, Note_on_c, 1, 53, 127
2, 465920, Note_off_c, 1, 53, 0
2, 465960, Note_on_c, 1, 51, 127
2, 466120, Note_off_c, 1, 51, 0
2, 466120, Note_off_c, 1, 63, 0
2, 466160, Note_on_c, 1, 49, 127
2, 466160, Note_on_c, 1, 61, 127
2, 466320, Note_off_c, 1, 49, 0
2, 466360, Note_on_c, 1, 48, 127
2, 466520, Note_off_c, 1, 48, 0
2, 466560, Note_on_c, 1, 46, 127
2, 466760, Note_off_c, 1, 46, 0
2, 466800, Note_on_c, 1, 48, 127
2, 466880, Note_off_c, 1, 48, 0
2, 466920, Note_on_c, 1, 49, 127
2, 466960, Note_off_c, 1, 61, 0
2, 466960, Note_off_c, 1, 70, 0
2, 467000, Note_off_c, 1, 49, 0
2, 467040, Note_on_c, 1, 40, 127
2, 467040, Note_on_c, 1, 60, 127
2, 467600, Note_off_c, 1, 60, 0
2, 467640, Note_on_c, 1, 72, 127
2, 467720, Note_off_c, 1, 72, 0
2, 467760, Note_on_c, 1, 73, 127
2, 467800, Note_off_c, 1, 40, 0
2, 467800, Note_off_c, 1, 73, 0
2, 467840, Note_on_c, 1, 52, 127
2, 467840, Note_on_c, 1, 72, 127
2, 468240, Note_off_c, 1, 72, 0
2, 468280, Note_on_c, 1, 70, 127
2, 468640, Note_off_c, 1, 52, 0
2, 468640, Note_off_c, 1, 70, 0
2, 468680, Note_on_c, 1, 48, 127
2, 468680, Note_on_c, 1, 70, 127
2, 468720, Note_off_c, 1, 70, 0
2, 468760, Note_on_c, 1, 68, 127
2, 468800, Note_off_c, 1, 68, 0
2, 468800, Note_on_c, 1, 70, 127
2, 468840, Note_off_c, 1, 70, 0
2, 468880, Note_on_c, 1, 68, 127
2, 468920, Note_off_c, 1, 68, 0
2, 468960, Note_on_c, 1, 70, 127
2, 469000, Note_off_c, 1, 70, 0
2, 469040, Note_on_c, 1, 68, 127
2, 469120, Note_off_c, 1, 68, 0
2, 469160, Note_on_c, 1, 67, 127
2, 469480, Note_off_c, 1, 48, 0
2, 469480, Note_off_c, 1, 67, 0
2, 469520, Note_on_c, 1, 53, 127
2, 469520, Note_on_c, 1, 68, 127
2, 469680, Note_off_c, 1, 68, 0
2, 469720, Note_on_c, 1, 67, 127
2, 469880, Note_off_c, 1, 67, 0
2, 469920, Note_on_c, 1, 65, 127
2, 470080, Note_off_c, 1, 65, 0
2, 470120, Note_on_c, 1, 64, 127
2, 470280, Note_off_c, 1, 64, 0
2, 470320, Note_on_c, 1, 65, 127
2, 470520, Note_off_c, 1, 65, 0
2, 470560, Note_on_c, 1, 67, 127
2, 470720, Note_off_c, 1, 53, 0
2, 470720, Note_off_c, 1, 67, 0
2, 470760, Note_on_c, 1, 54, 127
2, 470760, Note_on_c, 1, 68, 127
2, 470920, Note_off_c, 1, 54, 0
2, 470920, Note_off_c, 1, 68, 0
2, 470960, Note_on_c, 1, 53, 127
2, 470960, Note_on_c, 1, 70, 127
2, 471120, Note_off_c, 1, 53, 0
2, 471120, Note_off_c, 1, 70, 0
2, 471160, Note_on_c, 1, 51, 127
2, 471160, Note_on_c, 1, 72, 127
2, 471320, Note_off_c, 1, 51, 0
2, 471320, Note_off_c, 1, 72, 0
2, 471360, Note_on_c, 1, 49, 127
2, 471360, Note_on_c, 1, 73, 127
2, 471520, Note_off_c, 1, 49, 0
2, 471520, Note_off_c, 1, 73, 0
2, 471560, Note_on_c, 1, 48, 127
2, 471560, Note_on_c, 1, 75, 127
2, 471760, Note_off_c, 1, 48, 0
2, 471760, Note_off_c, 1, 75, 0
2, 471800, Note_on_c, 1, 49, 127
2, 471800, Note_on_c, 1, 77, 127
2, 471960, Note_off_c, 1, 49, 0
2, 471960, Note_off_c, 1, 77, 0
2, 472000, Note_on_c, 1, 48, 127
2, 472000, Note_on_c, 1, 80, 127
2, 472320, Note_off_c, 1, 80, 0
2, 472360, Note_on_c, 1, 78, 127
2, 472560, Note_off_c, 1, 78, 0
2, 472600, Note_on_c, 1, 80, 127
2, 472680, Note_off_c, 1, 80, 0
2, 472720, Note_on_c, 1, 82, 127
2, 472760, Note_off_c, 1, 82, 0
2, 472840, Note_on_c, 1, 51, 127
2, 472840, Note_on_c, 1, 80, 127
2, 473200, Note_off_c, 1, 80, 0
2, 473240, Note_on_c, 1, 78, 127
2, 473600, Note_off_c, 1, 51, 0
2, 473600, Note_off_c, 1, 78, 0
2, 473640, Note_on_c, 1, 56, 127
2, 473640, Note_on_c, 1, 78, 127
2, 473680, Note_off_c, 1, 78, 0
2, 473720, Note_on_c, 1, 77, 127
2, 473760, Note_off_c, 1, 77, 0
2, 473800, Note_on_c, 1, 78, 127
2, 473840, Note_on_c, 1, 77, 127
2, 473840, Note_off_c, 1, 78, 0
2, 474000, Note_off_c, 1, 77, 0
2, 474080, Note_on_c, 1, 75, 127
2, 474080, Note_on_c, 1, 78, 127
2, 474440, Note_off_c, 1, 48, 0
2, 474440, Note_off_c, 1, 75, 0
2, 474440, Note_off_c, 1, 78, 0
2, 474480, Note_on_c, 1, 49, 127
2, 474480, Note_on_c, 1, 75, 127
2, 474480, Note_on_c, 1, 78, 127
2, 474840, Note_off_c, 1, 75, 0
2, 474840, Note_off_c, 1, 78, 0
2, 474880, Note_on_c, 1, 73, 127
2, 474880, Note_on_c, 1, 77, 127
2, 475280, Note_off_c, 1, 56, 0
2, 475280, Note_off_c, 1, 73, 0
2, 475280, Note_off_c, 1, 77, 0
2, 475320, Note_on_c, 1, 73, 127
2, 475320, Note_on_c, 1, 78, 127
2, 475360, Note_off_c, 1, 49, 0
2, 475400, Note_on_c, 1, 44, 127
2, 475400, Note_off_c, 1, 78, 0
2, 475440, Note_on_c, 1, 77, 127
2, 475480, Note_off_c, 1, 44, 0
2, 475480, Note_off_c, 1, 77, 0
2, 475520, Note_on_c, 1, 46, 127
2, 475520, Note_on_c, 1, 78, 127
2, 475560, Note_off_c, 1, 46, 0
2, 475560, Note_on_c, 1, 77, 127
2, 475560, Note_off_c, 1, 78, 0
2, 475600, Note_on_c, 1, 48, 127
2, 475600, Note_off_c, 1, 77, 0
2, 475640, Note_on_c, 1, 78, 127
2, 475680, Note_off_c, 1, 48, 0
2, 475680, Note_off_c, 1, 78, 0
2, 475720, Note_on_c, 1, 49, 127
2, 475720, Note_on_c, 1, 77, 127
2, 475760, Note_off_c, 1, 49, 0
2, 475760, Note_off_c, 1, 77, 0
2, 475800, Note_on_c, 1, 51, 127
2, 475800, Note_on_c, 1, 78, 127
2, 475840, Note_on_c, 1, 77, 127
2, 475840, Note_off_c, 1, 78, 0
2, 475880, Note_off_c, 1, 51, 0
2, 475880, Note_off_c, 1, 77, 0
2, 475920, Note_on_c, 1, 53, 127
2, 475920, Note_on_c, 1, 78, 127
2, 475960, Note_off_c, 1, 78, 0
2, 476000, Note_off_c, 1, 53, 0
2, 476000, Note_on_c, 1, 77, 127
2, 476040, Note_on_c, 1, 54, 127
2, 476080, Note_off_c, 1, 54, 0
2, 476120, Note_on_c, 1, 56, 127
2, 476200, Note_off_c, 1, 56, 0
2, 476240, Note_on_c, 1, 58, 127
2, 476280, Note_off_c, 1, 58, 0
2, 476320, Note_on_c, 1, 60, 127
2, 476400, Note_off_c, 1, 60, 0
2, 476440, Note_on_c, 1, 61, 127
2, 476480, Note_off_c, 1, 61, 0
2, 476520, Note_on_c, 1, 60, 127
2, 476600, Note_off_c, 1, 60, 0
2, 476640, Note_on_c, 1, 58, 127
2, 476720, Note_off_c, 1, 58, 0
2, 476760, Note_on_c, 1, 60, 127
2, 476800, Note_off_c, 1, 60, 0
2, 476840, Note_on_c, 1, 56, 127
2, 476920, Note_off_c, 1, 56, 0
2, 476920, Note_off_c, 1, 73, 0
2, 476920, Note_off_c, 1, 77, 0
2, 476960, Note_on_c, 1, 61, 127
2, 476960, Note_on_c, 1, 70, 127
2, 476960, Note_on_c, 1, 75, 127
2, 476960, Note_on_c, 1, 79, 127
2, 477520, Note_off_c, 1, 79, 0
2, 477560, Note_on_c, 1, 80, 127
2, 477640, Note_off_c, 1, 80, 0
2, 477680, Note_on_c, 1, 82, 127
2, 477720, Note_off_c, 1, 61, 0
2, 477720, Note_off_c, 1, 70, 0
2, 477720, Note_off_c, 1, 82, 0
2, 477760, Note_on_c, 1, 60, 127
2, 477760, Note_on_c, 1, 63, 127
2, 477760, Note_on_c, 1, 80, 127
2, 478160, Note_off_c, 1, 80, 0
2, 478200, Note_on_c, 1, 79, 127
2, 478560, Note_off_c, 1, 60, 0
2, 478560, Note_off_c, 1, 63, 0
2, 478560, Note_off_c, 1, 75, 0
2, 478560, Note_off_c, 1, 79, 0
2, 478600, Note_on_c, 1, 56, 127
2, 478600, Note_on_c, 1, 68, 127
2, 478600, Note_on_c, 1, 72, 127
2, 478600, Note_on_c, 1, 79, 127
2, 478760, Note_off_c, 1, 79, 0
2, 478800, Note_on_c, 1, 77, 127
2, 478960, Note_off_c, 1, 68, 0
2, 478960, Note_off_c, 1, 77, 0
2, 479000, Note_on_c, 1, 67, 127
2, 479000, Note_on_c, 1, 75, 127
2, 479400, Note_off_c, 1, 56, 0
2, 479400, Note_off_c, 1, 67, 0
2, 479400, Note_off_c, 1, 72, 0
2, 479400, Note_off_c, 1, 75, 0
2, 479440, Note_on_c, 1, 58, 127
2, 479440, Note_on_c, 1, 65, 127
2, 479440, Note_on_c, 1, 70, 127
2, 479440, Note_on_c, 1, 73, 127
2, 479480, Note_off_c, 1, 73, 0
2, 479520, Note_on_c, 1, 72, 127
2, 479600, Note_off_c, 1, 72, 0
2, 479640, Note_on_c, 1, 73, 127
2, 480040, Note_off_c, 1, 73, 0
2, 480040, Note_on_c, 1, 75, 127
2, 480120, Note_off_c, 1, 75, 0
2, 480160, Note_on_c, 1, 77, 127
2, 480200, Note_off_c, 1, 58, 0
2, 480200, Note_off_c, 1, 65, 0
2, 480200, Note_off_c, 1, 77, 0
2, 480280, Note_on_c, 1, 55, 127
2, 480280, Note_on_c, 1, 58, 127
2, 480280, Note_on_c, 1, 75, 127
2, 480640, Note_off_c, 1, 75, 0
2, 480680, Note_on_c, 1, 73, 127
2, 481040, Note_off_c, 1, 55, 0
2, 481040, Note_off_c, 1, 58, 0
2, 481040, Note_off_c, 1, 70, 0
2, 481040, Note_off_c, 1, 73, 0
2, 481080, Note_on_c, 1, 51, 127
2, 481080, Note_on_c, 1, 63, 127
2, 481080, Note_on_c, 1, 67, 127
2, 481080, Note_on_c, 1, 73, 127
2, 481120, Note_off_c, 1, 73, 0
2, 481160, Note_on_c, 1, 72, 127
2, 481200, Note_off_c, 1, 72, 0
2, 481240, Note_on_c, 1, 73, 127
2, 481280, Note_on_c, 1, 72, 127
2, 481280, Note_off_c, 1, 73, 0
2, 481440, Note_off_c, 1, 63, 0
2, 481440, Note_off_c, 1, 72, 0
2, 481520, Note_on_c, 1, 61, 127
2, 481520, Note_on_c, 1, 70, 127
2, 481880, Note_off_c, 1, 51, 0
2, 481880, Note_off_c, 1, 61, 0
2, 481880, Note_off_c, 1, 67, 0
2, 481880, Note_off_c, 1, 70, 0
2, 481920, Note_on_c, 1, 53, 127
2, 481920, Note_on_c, 1, 60, 127
2, 481920, Note_on_c, 1, 65, 127
2, 481920, Note_on_c, 1, 68, 127
2, 482480, Note_off_c, 1, 68, 0
2, 482520, Note_on_c, 1, 70, 127
2, 482600, Note_off_c, 1, 70, 0
2, 482640, Note_on_c, 1, 72, 127
2, 482680, Note_off_c, 1, 53, 0
2, 482680, Note_off_c, 1, 60, 0
2, 482680, Note_off_c, 1, 72, 0
2, 482760, Note_on_c, 1, 50, 127
2, 482760, Note_on_c, 1, 53, 127
2, 482760, Note_on_c, 1, 70, 127
2, 483120, Note_off_c, 1, 70, 0
2, 483160, Note_on_c, 1, 68, 127
2, 483520, Note_off_c, 1, 50, 0
2, 483520, Note_off_c, 1, 53, 0
2, 483520, Note_off_c, 1, 65, 0
2, 483520, Note_off_c, 1, 68, 0
2, 483560, Note_on_c, 1, 46, 127
2, 483560, Note_on_c, 1, 58, 127
2, 483560, Note_on_c, 1, 62, 127
2, 483560, Note_on_c, 1, 67, 127
2, 483720, Note_off_c, 1, 67, 0
2, 483760, Note_on_c, 1, 68, 127
2, 483960, Note_off_c, 1, 68, 0
2, 484000, Note_on_c, 1, 67, 127
2, 484160, Note_off_c, 1, 67, 0
2, 484200, Note_on_c, 1, 68, 127
2, 484360, Note_off_c, 1, 46, 0
2, 484360, Note_off_c, 1, 58, 0
2, 484360, Note_off_c, 1, 62, 0
2, 484360, Note_off_c, 1, 68, 0
2, 484400, Note_on_c, 1, 51, 127
2, 484400, Note_on_c, 1, 58, 127
2, 484400, Note_on_c, 1, 63, 127
2, 484400, Note_on_c, 1, 68, 127
2, 484440, Note_off_c, 1, 51, 0
2, 484480, Note_off_c, 1, 68, 0
2, 484520, Note_on_c, 1, 39, 127
2, 484520, Note_on_c, 1, 67, 127
2, 484560, Note_off_c, 1, 39, 0
2, 484600, Note_on_c, 1, 41, 127
2, 484600, Note_off_c, 1, 67, 0
2, 484640, Note_on_c, 1, 68, 127
2, 484680, Note_off_c, 1, 41, 0
2, 484680, Note_off_c, 1, 68, 0
2, 484720, Note_on_c, 1, 43, 127
2, 484720, Note_on_c, 1, 67, 127
2, 484760, Note_off_c, 1, 43, 0
2, 484800, Note_on_c, 1, 44, 127
2, 484880, Note_off_c, 1, 44, 0
2, 484920, Note_on_c, 1, 46, 127
2, 484960, Note_off_c, 1, 46, 0
2, 485000, Note_on_c, 1, 48, 127
2, 485080, Note_off_c, 1, 48, 0
2, 485120, Note_on_c, 1, 49, 127
2, 485200, Note_off_c, 1, 49, 0
2, 485240, Note_on_c, 1, 51, 127
2, 485280, Note_off_c, 1, 51, 0
2, 485320, Note_on_c, 1, 53, 127
2, 485400, Note_off_c, 1, 53, 0
2, 485440, Note_on_c, 1, 55, 127
2, 485480, Note_off_c, 1, 55, 0
2, 485520, Note_on_c, 1, 56, 127
2, 485560, Note_off_c, 1, 67, 0
2, 485600, Note_off_c, 1, 56, 0
2, 485600, Note_off_c, 1, 58, 0
2, 485600, Note_off_c, 1, 63, 0
2, 485640, Note_on_c, 1, 58, 127
2, 485640, Note_on_c, 1, 65, 127
2, 485680, Note_off_c, 1, 58, 0
2, 485720, Note_on_c, 1, 60, 127
2, 485800, Note_off_c, 1, 60, 0
2, 485840, Note_on_c, 1, 61, 127
2, 485920, Note_off_c, 1, 61, 0
2, 485960, Note_on_c, 1, 60, 127
2, 486000, Note_off_c, 1, 60, 0
2, 486000, Note_off_c, 1, 65, 0
2, 486040, Note_on_c, 1, 58, 127
2, 486040, Note_on_c, 1, 63, 127
2, 486120, Note_off_c, 1, 58, 0
2, 486160, Note_on_c, 1, 56, 127
2, 486200, Note_off_c, 1, 56, 0
2, 486240, Note_on_c, 1, 55, 127
2, 486320, Note_off_c, 1, 55, 0
2, 486360, Note_on_c, 1, 53, 127
2, 486400, Note_off_c, 1, 53, 0
2, 486480, Note_on_c, 1, 51, 127
2, 486520, Note_off_c, 1, 51, 0
2, 486560, Note_on_c, 1, 49, 127
2, 486640, Note_off_c, 1, 49, 0
2, 486680, Note_on_c, 1, 48, 127
2, 486720, Note_off_c, 1, 48, 0
2, 486760, Note_on_c, 1, 46, 127
2, 486840, Note_off_c, 1, 46, 0
2, 486840, Note_off_c, 1, 63, 0
2, 486880, Note_on_c, 1, 44, 127
2, 486880, Note_on_c, 1, 72, 127
2, 486920, Note_off_c, 1, 72, 0
2, 486960, Note_on_c, 1, 70, 127
2, 487040, Note_off_c, 1, 70, 0
2, 487080, Note_on_c, 1, 72, 127
2, 487480, Note_off_c, 1, 72, 0
2, 487520, Note_on_c, 1, 73, 127
2, 487560, Note_off_c, 1, 73, 0
2, 487600, Note_on_c, 1, 75, 127
2, 487680, Note_off_c, 1, 75, 0
2, 487720, Note_on_c, 1, 73, 127
2, 488080, Note_off_c, 1, 73, 0
2, 488120, Note_on_c, 1, 72, 127
2, 488520, Note_off_c, 1, 44, 0
2, 488520, Note_off_c, 1, 72, 0
2, 488560, Note_on_c, 1, 72, 127
2, 488600, Note_on_c, 1, 70, 127
2, 488600, Note_off_c, 1, 72, 0
2, 488640, Note_off_c, 1, 70, 0
2, 488680, Note_on_c, 1, 72, 127
2, 488720, Note_off_c, 1, 72, 0
2, 488760, Note_on_c, 1, 70, 127
2, 488920, Note_off_c, 1, 70, 0
2, 488960, Note_on_c, 1, 68, 127
2, 489320, Note_off_c, 1, 68, 0
2, 489360, Note_on_c, 1, 48, 127
2, 489360, Note_on_c, 1, 68, 127
2, 489360, Note_on_c, 1, 75, 127
2, 489360, Note_on_c, 1, 78, 127
2, 489760, Note_off_c, 1, 75, 0
2, 489760, Note_off_c, 1, 78, 0
2, 489800, Note_on_c, 1, 73, 127
2, 489800, Note_on_c, 1, 77, 127
2, 489960, Note_off_c, 1, 48, 0
2, 490000, Note_on_c, 1, 49, 127
2, 490040, Note_off_c, 1, 49, 0
2, 490080, Note_on_c, 1, 51, 127
2, 490160, Note_off_c, 1, 51, 0
2, 490160, Note_off_c, 1, 68, 0
2, 490160, Note_off_c, 1, 73, 0
2, 490160, Note_off_c, 1, 77, 0
2, 490200, Note_on_c, 1, 49, 127
2, 490200, Note_on_c, 1, 68, 127
2, 490200, Note_on_c, 1, 73, 127
2, 490200, Note_on_c, 1, 77, 127
2, 490560, Note_off_c, 1, 49, 0
2, 490600, Note_on_c, 1, 48, 127
2, 491000, Note_off_c, 1, 48, 0
2, 491000, Note_off_c, 1, 73, 0
2, 491000, Note_off_c, 1, 77, 0
2, 491040, Note_on_c, 1, 48, 127
2, 491040, Note_on_c, 1, 75, 127
2, 491040, Note_on_c, 1, 78, 127
2, 491080, Note_off_c, 1, 48, 0
2, 491120, Note_on_c, 1, 46, 127
2, 491200, Note_off_c, 1, 46, 0
2, 491240, Note_on_c, 1, 48, 127
2, 491280, Note_off_c, 1, 48, 0
2, 491320, Note_on_c, 1, 46, 127
2, 491400, Note_off_c, 1, 46, 0
2, 491440, Note_on_c, 1, 44, 127
2, 491840, Note_off_c, 1, 44, 0
2, 491840, Note_off_c, 1, 68, 0
2, 491840, Note_off_c, 1, 75, 0
2, 491840, Note_off_c, 1, 78, 0
2, 491880, Note_on_c, 1, 56, 127
2, 491880, Note_on_c, 1, 73, 127
2, 491880, Note_on_c, 1, 77, 127
2, 492240, Note_off_c, 1, 56, 0
2, 492280, Note_on_c, 1, 55, 127
2, 492440, Note_off_c, 1, 77, 0
2, 492480, Note_on_c, 1, 78, 127
2, 492560, Note_off_c, 1, 78, 0
2, 492600, Note_on_c, 1, 80, 127
2, 492640, Note_off_c, 1, 55, 0
2, 492640, Note_off_c, 1, 73, 0
2, 492640, Note_off_c, 1, 80, 0
2, 492680, Note_on_c, 1, 56, 127
2, 492680, Note_on_c, 1, 78, 127
2, 493080, Note_off_c, 1, 78, 0
2, 493120, Note_on_c, 1, 77, 127
2, 493480, Note_off_c, 1, 77, 0
2, 493520, Note_on_c, 1, 77, 127
2, 493560, Note_off_c, 1, 77, 0
2, 493600, Note_on_c, 1, 75, 127
2, 493640, Note_off_c, 1, 75, 0
2, 493640, Note_on_c, 1, 77, 127
2, 493680, Note_off_c, 1, 77, 0
2, 493720, Note_on_c, 1, 75, 127
2, 493880, Note_off_c, 1, 75, 0
2, 493920, Note_on_c, 1, 73, 127
2, 494320, Note_off_c, 1, 56, 0
2, 494320, Note_off_c, 1, 73, 0
2, 494360, Note_on_c, 1, 43, 127
2, 494360, Note_on_c, 1, 73, 127
2, 494360, Note_on_c, 1, 75, 127
2, 494360, Note_on_c, 1, 82, 127
2, 494720, Note_off_c, 1, 73, 0
2, 494720, Note_off_c, 1, 82, 0
2, 494760, Note_on_c, 1, 72, 127
2, 494760, Note_on_c, 1, 80, 127
2, 494920, Note_off_c, 1, 43, 0
2, 494960, Note_on_c, 1, 44, 127
2, 495040, Note_off_c, 1, 44, 0
2, 495080, Note_on_c, 1, 46, 127
2, 495120, Note_off_c, 1, 46, 0
2, 495120, Note_off_c, 1, 72, 0
2, 495120, Note_off_c, 1, 80, 0
2, 495160, Note_on_c, 1, 44, 127
2, 495160, Note_on_c, 1, 72, 127
2, 495160, Note_on_c, 1, 80, 127
2, 495560, Note_off_c, 1, 44, 0
2, 495600, Note_on_c, 1, 43, 127
2, 495960, Note_off_c, 1, 43, 0
2, 495960, Note_off_c, 1, 72, 0
2, 495960, Note_off_c, 1, 80, 0
2, 496000, Note_on_c, 1, 43, 127
2, 496000, Note_on_c, 1, 73, 127
2, 496000, Note_on_c, 1, 82, 127
2, 496080, Note_off_c, 1, 43, 0
2, 496120, Note_on_c, 1, 41, 127
2, 496160, Note_off_c, 1, 41, 0
2, 496200, Note_on_c, 1, 43, 127
2, 496280, Note_off_c, 1, 43, 0
2, 496320, Note_on_c, 1, 41, 127
2, 496360, Note_off_c, 1, 41, 0
2, 496400, Note_on_c, 1, 39, 127
2, 496800, Note_off_c, 1, 39, 0
2, 496800, Note_off_c, 1, 75, 0
2, 496840, Note_on_c, 1, 47, 127
2, 497200, Note_off_c, 1, 82, 0
2, 497240, Note_off_c, 1, 47, 0
2, 497280, Note_on_c, 1, 46, 127
2, 497280, Note_on_c, 1, 79, 127
2, 497440, Note_off_c, 1, 73, 0
2, 497480, Note_on_c, 1, 75, 127
2, 497520, Note_off_c, 1, 75, 0
2, 497560, Note_on_c, 1, 76, 127
2, 497640, Note_off_c, 1, 46, 0
2, 497640, Note_off_c, 1, 76, 0
2, 497640, Note_off_c, 1, 79, 0
2, 497680, Note_on_c, 1, 47, 127
2, 497680, Note_on_c, 1, 75, 127
2, 497680, Note_on_c, 1, 80, 127
2, 498080, Note_off_c, 1, 75, 0
2, 498120, Note_on_c, 1, 73, 127
2, 498480, Note_off_c, 1, 47, 0
2, 498480, Note_off_c, 1, 73, 0
2, 498520, Note_on_c, 1, 73, 127
2, 498560, Note_off_c, 1, 73, 0
2, 498600, Note_on_c, 1, 71, 127
2, 498640, Note_off_c, 1, 71, 0
2, 498680, Note_on_c, 1, 73, 127
2, 498720, Note_off_c, 1, 73, 0
2, 498760, Note_on_c, 1, 71, 127
2, 498920, Note_off_c, 1, 71, 0
2, 498960, Note_on_c, 1, 70, 127
2, 499320, Note_off_c, 1, 70, 0
2, 499360, Note_on_c, 1, 52, 127
2, 499360, Note_on_c, 1, 71, 127
2, 499760, Note_off_c, 1, 52, 0
2, 499760, Note_off_c, 1, 80, 0
2, 499800, Note_on_c, 1, 51, 127
2, 499800, Note_on_c, 1, 79, 127
2, 499960, Note_off_c, 1, 71, 0
2, 500000, Note_on_c, 1, 73, 127
2, 500080, Note_off_c, 1, 73, 0
2, 500120, Note_on_c, 1, 75, 127
2, 500160, Note_off_c, 1, 51, 0
2, 500160, Note_off_c, 1, 79, 0
2, 500200, Note_on_c, 1, 52, 127
2, 500200, Note_on_c, 1, 73, 127
2, 500200, Note_off_c, 1, 75, 0
2, 500200, Note_on_c, 1, 79, 127
2, 500600, Note_off_c, 1, 73, 0
2, 500640, Note_on_c, 1, 71, 127
2, 501000, Note_off_c, 1, 52, 0
2, 501000, Note_off_c, 1, 71, 0
2, 501000, Note_off_c, 1, 79, 0
2, 501040, Note_on_c, 1, 51, 127
2, 501040, Note_on_c, 1, 71, 127
2, 501040, Note_on_c, 1, 80, 127
2, 501080, Note_off_c, 1, 71, 0
2, 501120, Note_off_c, 1, 51, 0
2, 501120, Note_on_c, 1, 70, 127
2, 501160, Note_on_c, 1, 50, 127
2, 501160, Note_off_c, 1, 70, 0
2, 501200, Note_on_c, 1, 71, 127
2, 501240, Note_off_c, 1, 50, 0
2, 501240, Note_off_c, 1, 71, 0
2, 501280, Note_on_c, 1, 51, 127
2, 501280, Note_on_c, 1, 70, 127
2, 501360, Note_off_c, 1, 51, 0
2, 501440, Note_on_c, 1, 50, 127
2, 501440, Note_off_c, 1, 70, 0
2, 501480, Note_on_c, 1, 68, 127
2, 501800, Note_off_c, 1, 50, 0
2, 501880, Note_off_c, 1, 68, 0
2, 501920, Note_on_c, 1, 73, 127
2, 501960, Note_off_c, 1, 73, 0
2, 502000, Note_on_c, 1, 75, 127
2, 502040, Note_off_c, 1, 75, 0
2, 502080, Note_on_c, 1, 76, 127
2, 502320, Note_off_c, 1, 76, 0
2, 502360, Note_on_c, 1, 75, 127
2, 502760, Note_off_c, 1, 75, 0
2, 502800, Note_on_c, 1, 51, 127
2, 502800, Note_on_c, 1, 73, 127
2, 502840, Note_off_c, 1, 73, 0
2, 502880, Note_off_c, 1, 51, 0
2, 502880, Note_on_c, 1, 71, 127
2, 502920, Note_on_c, 1, 50, 127
2, 502960, Note_off_c, 1, 71, 0
2, 503000, Note_off_c, 1, 50, 0
2, 503000, Note_on_c, 1, 70, 127
2, 503040, Note_on_c, 1, 51, 127
2, 503040, Note_off_c, 1, 70, 0
2, 503080, Note_on_c, 1, 71, 127
2, 503120, Note_off_c, 1, 71, 0
2, 503160, Note_on_c, 1, 73, 127
2, 503200, Note_off_c, 1, 73, 0
2, 503280, Note_on_c, 1, 71, 127
2, 503320, Note_off_c, 1, 71, 0
2, 503360, Note_on_c, 1, 73, 127
2, 503400, Note_off_c, 1, 73, 0
2, 503440, Note_on_c, 1, 71, 127
2, 503600, Note_off_c, 1, 80, 0
2, 503640, Note_off_c, 1, 71, 0
2, 503680, Note_on_c, 1, 39, 127
2, 503680, Note_off_c, 1, 51, 0
2, 503680, Note_on_c, 1, 70, 127
2, 503680, Note_on_c, 1, 79, 127
2, 504080, Note_off_c, 1, 70, 0
2, 504120, Note_on_c, 1, 68, 127
2, 504560, Note_off_c, 1, 39, 0
2, 504560, Note_off_c, 1, 68, 0
2, 504560, Note_off_c, 1, 79, 0
2, 504600, Note_on_c, 1, 44, 127
2, 504600, Note_on_c, 1, 68, 127
2, 504600, Note_on_c, 1, 80, 127
2, 505120, Note_on_c, 1, 48, 127
2, 505320, Note_off_c, 1, 48, 0
2, 505360, Note_on_c, 1, 51, 127
2, 505560, Note_off_c, 1, 51, 0
2, 505560, Note_off_c, 1, 68, 0
2, 505560, Note_off_c, 1, 80, 0
2, 505600, Note_on_c, 1, 56, 127
2, 505600, Note_on_c, 1, 68, 127
2, 505600, Note_on_c, 1, 72, 127
2, 505600, Note_on_c, 1, 75, 127
2, 505600, Note_on_c, 1, 80, 127
2, 507960, Note_off_c, 1, 44, 0
2, 507960, Note_off_c, 1, 56, 0
2, 507960, Note_off_c, 1, 68, 0
2, 507960, Note_off_c, 1, 72, 0
2, 507960, Note_off_c, 1, 75, 0
2, 507960, Note_off_c, 1, 80, 0
2, 510240, Note_on_c, 1, 63, 127
2, 510560, Note_off_c, 1, 63, 0
2, 510640, Note_on_c, 1, 68, 127
2, 510760, Note_off_c, 1, 68, 0
2, 510800, Note_on_c, 1, 67, 127
2, 510960, Note_off_c, 1, 67, 0
2, 511000, Note_on_c, 1, 70, 127
2, 511160, Note_off_c, 1, 70, 0
2, 511200, Note_on_c, 1, 68, 127
2, 511320, Note_off_c, 1, 68, 0
2, 511400, Note_on_c, 1, 72, 127
2, 511520, Note_off_c, 1, 72, 0
2, 511560, Note_on_c, 1, 70, 127
2, 511720, Note_off_c, 1, 70, 0
2, 511760, Note_on_c, 1, 68, 127
2, 511920, Note_off_c, 1, 68, 0
2, 511960, Note_on_c, 1, 67, 127
2, 512080, Note_off_c, 1, 67, 0
2, 512120, Note_on_c, 1, 68, 127
2, 512440, Note_off_c, 1, 68, 0
2, 512520, Note_on_c, 1, 63, 127
2, 512840, Note_off_c, 1, 63, 0
2, 512880, Note_on_c, 1, 60, 127
2, 513040, Note_off_c, 1, 60, 0
2, 513080, Note_on_c, 1, 63, 127
2, 513200, Note_off_c, 1, 63, 0
2, 513240, Note_on_c, 1, 51, 127
2, 513240, Note_on_c, 1, 68, 127
2, 513400, Note_off_c, 1, 68, 0
2, 513440, Note_on_c, 1, 70, 127
2, 513600, Note_off_c, 1, 51, 0
2, 513600, Note_off_c, 1, 70, 0
2, 513640, Note_on_c, 1, 56, 127
2, 513640, Note_on_c, 1, 72, 127
2, 513760, Note_off_c, 1, 56, 0
2, 513760, Note_off_c, 1, 72, 0
2, 513800, Note_on_c, 1, 55, 127
2, 513800, Note_on_c, 1, 70, 127
2, 513960, Note_off_c, 1, 55, 0
2, 513960, Note_off_c, 1, 70, 0
2, 514000, Note_on_c, 1, 58, 127
2, 514000, Note_on_c, 1, 73, 127
2, 514160, Note_off_c, 1, 58, 0
2, 514160, Note_off_c, 1, 73, 0
2, 514200, Note_on_c, 1, 56, 127
2, 514200, Note_on_c, 1, 72, 127
2, 514320, Note_off_c, 1, 56, 0
2, 514320, Note_off_c, 1, 72, 0
2, 514400, Note_on_c, 1, 60, 127
2, 514400, Note_on_c, 1, 75, 127
2, 514520, Note_off_c, 1, 60, 0
2, 514520, Note_off_c, 1, 75, 0
2, 514560, Note_on_c, 1, 58, 127
2, 514560, Note_on_c, 1, 73, 127
2, 514720, Note_off_c, 1, 58, 0
2, 514720, Note_off_c, 1, 73, 0
2, 514760, Note_on_c, 1, 56, 127
2, 514760, Note_on_c, 1, 72, 127
2, 514920, Note_off_c, 1, 56, 0
2, 514920, Note_off_c, 1, 72, 0
2, 514960, Note_on_c, 1, 55, 127
2, 514960, Note_on_c, 1, 70, 127
2, 515080, Note_off_c, 1, 55, 0
2, 515080, Note_off_c, 1, 70, 0
2, 515120, Note_on_c, 1, 56, 127
2, 515120, Note_on_c, 1, 73, 127
2, 515280, Note_off_c, 1, 73, 0
2, 515320, Note_on_c, 1, 72, 127
2, 515440, Note_off_c, 1, 56, 0
2, 515480, Note_off_c, 1, 72, 0
2, 515520, Note_on_c, 1, 51, 127
2, 515520, Note_on_c, 1, 70, 127
2, 515640, Note_off_c, 1, 70, 0
2, 515680, Note_on_c, 1, 72, 127
2, 515840, Note_off_c, 1, 51, 0
2, 515840, Note_off_c, 1, 72, 0
2, 515880, Note_on_c, 1, 48, 127
2, 515880, Note_on_c, 1, 68, 127
2, 516040, Note_off_c, 1, 48, 0
2, 516040, Note_off_c, 1, 68, 0
2, 516080, Note_on_c, 1, 51, 127
2, 516080, Note_on_c, 1, 70, 127
2, 516200, Note_off_c, 1, 51, 0
2, 516200, Note_off_c, 1, 70, 0
2, 516240, Note_on_c, 1, 56, 127
2, 516240, Note_on_c, 1, 72, 127
2, 516400, Note_off_c, 1, 56, 0
2, 516400, Note_off_c, 1, 72, 0
2, 516440, Note_on_c, 1, 58, 127
2, 516440, Note_on_c, 1, 73, 127
2, 516600, Note_off_c, 1, 58, 0
2, 516600, Note_off_c, 1, 73, 0
2, 516640, Note_on_c, 1, 60, 127
2, 516640, Note_on_c, 1, 75, 127
2, 516760, Note_off_c, 1, 60, 0
2, 516800, Note_on_c, 1, 58, 127
2, 516920, Note_off_c, 1, 75, 0
2, 516960, Note_off_c, 1, 58, 0
2, 517000, Note_on_c, 1, 61, 127
2, 517000, Note_on_c, 1, 78, 127
2, 517160, Note_off_c, 1, 61, 0
2, 517160, Note_off_c, 1, 78, 0
2, 517200, Note_on_c, 1, 60, 127
2, 517200, Note_on_c, 1, 76, 127
2, 517320, Note_off_c, 1, 60, 0
2, 517320, Note_off_c, 1, 76, 0
2, 517400, Note_on_c, 1, 63, 127
2, 517400, Note_on_c, 1, 78, 127
2, 517440, Note_off_c, 1, 78, 0
2, 517480, Note_on_c, 1, 76, 127
2, 517520, Note_off_c, 1, 63, 0
2, 517520, Note_off_c, 1, 76, 0
2, 517560, Note_on_c, 1, 61, 127
2, 517560, Note_on_c, 1, 78, 127
2, 517720, Note_off_c, 1, 61, 0
2, 517760, Note_on_c, 1, 60, 127
2, 517880, Note_off_c, 1, 78, 0
2, 517920, Note_off_c, 1, 60, 0
2, 517960, Note_on_c, 1, 56, 127
2, 517960, Note_on_c, 1, 80, 127
2, 518080, Note_off_c, 1, 56, 0
2, 518080, Note_off_c, 1, 80, 0
2, 518120, Note_on_c, 1, 61, 127
2, 518120, Note_on_c, 1, 77, 127
2, 518280, Note_off_c, 1, 61, 0
2, 518320, Note_on_c, 1, 60, 127
2, 518440, Note_off_c, 1, 77, 0
2, 518480, Note_off_c, 1, 60, 0
2, 518520, Note_on_c, 1, 63, 127
2, 518520, Note_on_c, 1, 80, 127
2, 518640, Note_off_c, 1, 63, 0
2, 518640, Note_off_c, 1, 80, 0
2, 518680, Note_on_c, 1, 61, 127
2, 518680, Note_on_c, 1, 79, 127
2, 518840, Note_off_c, 1, 61, 0
2, 518840, Note_off_c, 1, 79, 0
2, 518880, Note_on_c, 1, 65, 127
2, 518880, Note_on_c, 1, 80, 127
2, 518920, Note_off_c, 1, 80, 0
2, 518960, Note_on_c, 1, 79, 127
2, 519040, Note_off_c, 1, 65, 0
2, 519040, Note_off_c, 1, 79, 0
2, 519080, Note_on_c, 1, 63, 127
2, 519080, Note_on_c, 1, 80, 127
2, 519200, Note_off_c, 1, 63, 0
2, 519240, Note_on_c, 1, 62, 127
2, 519400, Note_off_c, 1, 62, 0
2, 519400, Note_off_c, 1, 80, 0
2, 519440, Note_on_c, 1, 58, 127
2, 519440, Note_on_c, 1, 82, 127
2, 519600, Note_off_c, 1, 58, 0
2, 519600, Note_off_c, 1, 82, 0
2, 519640, Note_on_c, 1, 63, 127
2, 519640, Note_on_c, 1, 79, 127
2, 519760, Note_off_c, 1, 63, 0
2, 519760, Note_off_c, 1, 79, 0
2, 519800, Note_on_c, 1, 65, 127
2, 519800, Note_on_c, 1, 80, 127
2, 519960, Note_off_c, 1, 65, 0
2, 519960, Note_off_c, 1, 80, 0
2, 520000, Note_on_c, 1, 63, 127
2, 520000, Note_on_c, 1, 79, 127
2, 520160, Note_off_c, 1, 63, 0
2, 520160, Note_off_c, 1, 79, 0
2, 520200, Note_on_c, 1, 61, 127
2, 520200, Note_on_c, 1, 80, 127
2, 520360, Note_off_c, 1, 61, 0
2, 520360, Note_off_c, 1, 80, 0
2, 520400, Note_on_c, 1, 60, 127
2, 520400, Note_on_c, 1, 82, 127
2, 520480, Note_off_c, 1, 82, 0
2, 520520, Note_off_c, 1, 60, 0
2, 520520, Note_on_c, 1, 80, 127
2, 520560, Note_on_c, 1, 58, 127
2, 520600, Note_off_c, 1, 80, 0
2, 520640, Note_on_c, 1, 82, 127
2, 520680, Note_off_c, 1, 82, 0
2, 520720, Note_off_c, 1, 58, 0
2, 520720, Note_on_c, 1, 80, 127
2, 520760, Note_on_c, 1, 60, 127
2, 520760, Note_off_c, 1, 80, 0
2, 520800, Note_on_c, 1, 82, 127
2, 520840, Note_off_c, 1, 82, 0
2, 520880, Note_on_c, 1, 80, 127
2, 520920, Note_off_c, 1, 60, 0
2, 520920, Note_off_c, 1, 80, 0
2, 520960, Note_on_c, 1, 56, 127
2, 520960, Note_on_c, 1, 79, 127
2, 521000, Note_off_c, 1, 79, 0
2, 521040, Note_on_c, 1, 80, 127
2, 521080, Note_off_c, 1, 56, 0
2, 521120, Note_on_c, 1, 63, 127
2, 521120, Note_off_c, 1, 80, 0
2, 521120, Note_on_c, 1, 82, 127
2, 521280, Note_off_c, 1, 63, 0
2, 521320, Note_on_c, 1, 62, 127
2, 521480, Note_off_c, 1, 62, 0
2, 521520, Note_on_c, 1, 65, 127
2, 521640, Note_off_c, 1, 65, 0
2, 521640, Note_off_c, 1, 82, 0
2, 521680, Note_on_c, 1, 63, 127
2, 521840, Note_off_c, 1, 63, 0
2, 521880, Note_on_c, 1, 67, 127
2, 522040, Note_off_c, 1, 67, 0
2, 522080, Note_on_c, 1, 65, 127
2, 522200, Note_off_c, 1, 65, 0
2, 522240, Note_on_c, 1, 63, 127
2, 522440, Note_on_c, 1, 61, 127
2, 522600, Note_off_c, 1, 61, 0
2, 522600, Note_off_c, 1, 63, 0
2, 522640, Note_on_c, 1, 60, 127
2, 522640, Note_on_c, 1, 68, 127
2, 522760, Note_off_c, 1, 60, 0
2, 522760, Note_off_c, 1, 68, 0
2, 522800, Note_on_c, 1, 58, 127
2, 522800, Note_on_c, 1, 67, 127
2, 522960, Note_off_c, 1, 58, 0
2, 522960, Note_off_c, 1, 67, 0
2, 523000, Note_on_c, 1, 61, 127
2, 523000, Note_on_c, 1, 70, 127
2, 523160, Note_off_c, 1, 61, 0
2, 523160, Note_off_c, 1, 70, 0
2, 523200, Note_on_c, 1, 60, 127
2, 523200, Note_on_c, 1, 68, 127
2, 523360, Note_off_c, 1, 60, 0
2, 523360, Note_off_c, 1, 68, 0
2, 523400, Note_on_c, 1, 63, 127
2, 523400, Note_on_c, 1, 72, 127
2, 523520, Note_off_c, 1, 63, 0
2, 523520, Note_off_c, 1, 72, 0
2, 523560, Note_on_c, 1, 61, 127
2, 523560, Note_on_c, 1, 70, 127
2, 523720, Note_off_c, 1, 61, 0
2, 523720, Note_off_c, 1, 70, 0
2, 523760, Note_on_c, 1, 60, 127
2, 523760, Note_on_c, 1, 68, 127
2, 523920, Note_off_c, 1, 60, 0
2, 523920, Note_off_c, 1, 68, 0
2, 523960, Note_on_c, 1, 58, 127
2, 523960, Note_on_c, 1, 67, 127
2, 524080, Note_off_c, 1, 58, 0
2, 524080, Note_off_c, 1, 67, 0
2, 524120, Note_on_c, 1, 60, 127
2, 524120, Note_on_c, 1, 68, 127
2, 524280, Note_off_c, 1, 60, 0
2, 524320, Note_on_c, 1, 61, 127
2, 524440, Note_off_c, 1, 68, 0
2, 524480, Note_off_c, 1, 61, 0
2, 524520, Note_on_c, 1, 60, 127
2, 524520, Note_on_c, 1, 63, 127
2, 524640, Note_off_c, 1, 60, 0
2, 524680, Note_on_c, 1, 58, 127
2, 524840, Note_off_c, 1, 58, 0
2, 524840, Note_off_c, 1, 63, 0
2, 524880, Note_on_c, 1, 56, 127
2, 524880, Note_on_c, 1, 60, 127
2, 525040, Note_off_c, 1, 60, 0
2, 525080, Note_on_c, 1, 63, 127
2, 525200, Note_off_c, 1, 56, 0
2, 525200, Note_off_c, 1, 63, 0
2, 525240, Note_on_c, 1, 51, 127
2, 525240, Note_on_c, 1, 68, 127
2, 525400, Note_off_c, 1, 68, 0
2, 525440, Note_on_c, 1, 70, 127
2, 525600, Note_off_c, 1, 51, 0
2, 525600, Note_off_c, 1, 70, 0
2, 525640, Note_on_c, 1, 56, 127
2, 525640, Note_on_c, 1, 72, 127
2, 525760, Note_off_c, 1, 56, 0
2, 525760, Note_off_c, 1, 72, 0
2, 525800, Note_on_c, 1, 55, 127
2, 525800, Note_on_c, 1, 70, 127
2, 525960, Note_off_c, 1, 55, 0
2, 525960, Note_off_c, 1, 70, 0
2, 526000, Note_on_c, 1, 58, 127
2, 526000, Note_on_c, 1, 73, 127
2, 526160, Note_off_c, 1, 58, 0
2, 526160, Note_off_c, 1, 73, 0
2, 526200, Note_on_c, 1, 56, 127
2, 526200, Note_on_c, 1, 72, 127
2, 526360, Note_off_c, 1, 56, 0
2, 526360, Note_off_c, 1, 72, 0
2, 526400, Note_on_c, 1, 60, 127
2, 526400, Note_on_c, 1, 75, 127
2, 526520, Note_off_c, 1, 60, 0
2, 526520, Note_off_c, 1, 75, 0
2, 526560, Note_on_c, 1, 58, 127
2, 526560, Note_on_c, 1, 73, 127
2, 526720, Note_off_c, 1, 58, 0
2, 526720, Note_off_c, 1, 73, 0
2, 526760, Note_on_c, 1, 56, 127
2, 526760, Note_on_c, 1, 72, 127
2, 526920, Note_off_c, 1, 56, 0
2, 526920, Note_off_c, 1, 72, 0
2, 526960, Note_on_c, 1, 55, 127
2, 526960, Note_on_c, 1, 70, 127
2, 527080, Note_off_c, 1, 55, 0
2, 527080, Note_off_c, 1, 70, 0
2, 527120, Note_on_c, 1, 56, 127
2, 527120, Note_on_c, 1, 73, 127
2, 527280, Note_off_c, 1, 73, 0
2, 527320, Note_on_c, 1, 72, 127
2, 527440, Note_off_c, 1, 56, 0
2, 527480, Note_off_c, 1, 72, 0
2, 527520, Note_on_c, 1, 51, 127
2, 527520, Note_on_c, 1, 70, 127
2, 527640, Note_off_c, 1, 70, 0
2, 527680, Note_on_c, 1, 72, 127
2, 527840, Note_off_c, 1, 51, 0
2, 527840, Note_off_c, 1, 72, 0
2, 527880, Note_on_c, 1, 48, 127
2, 527880, Note_on_c, 1, 68, 127
2, 528040, Note_off_c, 1, 68, 0
2, 528080, Note_on_c, 1, 67, 127
2, 528200, Note_off_c, 1, 48, 0
2, 528200, Note_off_c, 1, 67, 0
2, 528240, Note_on_c, 1, 51, 127
2, 528240, Note_on_c, 1, 70, 127
2, 528400, Note_off_c, 1, 70, 0
2, 528440, Note_on_c, 1, 68, 127
2, 528600, Note_off_c, 1, 51, 0
2, 528600, Note_off_c, 1, 68, 0
2, 528640, Note_on_c, 1, 44, 127
2, 528640, Note_on_c, 1, 72, 127
2, 528760, Note_off_c, 1, 72, 0
2, 528800, Note_on_c, 1, 70, 127
2, 528960, Note_off_c, 1, 44, 0
2, 528960, Note_off_c, 1, 70, 0
2, 529000, Note_on_c, 1, 51, 127
2, 529000, Note_on_c, 1, 68, 127
2, 529160, Note_off_c, 1, 68, 0
2, 529200, Note_on_c, 1, 67, 127
2, 529360, Note_off_c, 1, 51, 0
2, 529360, Note_off_c, 1, 67, 0
2, 529400, Note_on_c, 1, 56, 127
2, 529400, Note_on_c, 1, 65, 127
2, 529520, Note_off_c, 1, 56, 0
2, 529520, Note_off_c, 1, 65, 0
2, 529560, Note_on_c, 1, 55, 127
2, 529560, Note_on_c, 1, 63, 127
2, 529720, Note_off_c, 1, 55, 0
2, 529720, Note_off_c, 1, 63, 0
2, 529760, Note_on_c, 1, 58, 127
2, 529760, Note_on_c, 1, 67, 127
2, 529920, Note_off_c, 1, 58, 0
2, 529920, Note_off_c, 1, 67, 0
2, 529960, Note_on_c, 1, 56, 127
2, 529960, Note_on_c, 1, 65, 127
2, 530080, Note_off_c, 1, 56, 0
2, 530080, Note_off_c, 1, 65, 0
2, 530120, Note_on_c, 1, 60, 127
2, 530120, Note_on_c, 1, 68, 127
2, 530280, Note_off_c, 1, 60, 0
2, 530280, Note_off_c, 1, 68, 0
2, 530320, Note_on_c, 1, 58, 127
2, 530320, Note_on_c, 1, 67, 127
2, 530480, Note_off_c, 1, 58, 0
2, 530480, Note_off_c, 1, 67, 0
2, 530520, Note_on_c, 1, 56, 127
2, 530520, Note_on_c, 1, 65, 127
2, 530640, Note_off_c, 1, 56, 0
2, 530640, Note_off_c, 1, 65, 0
2, 530680, Note_on_c, 1, 55, 127
2, 530680, Note_on_c, 1, 63, 127
2, 530840, Note_off_c, 1, 55, 0
2, 530840, Note_off_c, 1, 63, 0
2, 530880, Note_on_c, 1, 53, 127
2, 530880, Note_on_c, 1, 62, 127
2, 531040, Note_off_c, 1, 53, 0
2, 531040, Note_off_c, 1, 62, 0
2, 531080, Note_on_c, 1, 51, 127
2, 531080, Note_on_c, 1, 60, 127
2, 531200, Note_off_c, 1, 51, 0
2, 531200, Note_off_c, 1, 60, 0
2, 531240, Note_on_c, 1, 55, 127
2, 531240, Note_on_c, 1, 63, 127
2, 531400, Note_off_c, 1, 55, 0
2, 531400, Note_off_c, 1, 63, 0
2, 531440, Note_on_c, 1, 53, 127
2, 531440, Note_on_c, 1, 62, 127
2, 531600, Note_off_c, 1, 53, 0
2, 531600, Note_off_c, 1, 62, 0
2, 531640, Note_on_c, 1, 56, 127
2, 531640, Note_on_c, 1, 65, 127
2, 531760, Note_off_c, 1, 56, 0
2, 531760, Note_off_c, 1, 65, 0
2, 531800, Note_on_c, 1, 55, 127
2, 531800, Note_on_c, 1, 58, 127
2, 531960, Note_off_c, 1, 55, 0
2, 531960, Note_off_c, 1, 58, 0
2, 532000, Note_on_c, 1, 53, 127
2, 532000, Note_on_c, 1, 70, 127
2, 532160, Note_off_c, 1, 53, 0
2, 532200, Note_on_c, 1, 51, 127
2, 532360, Note_off_c, 1, 51, 0
2, 532360, Note_off_c, 1, 70, 0
2, 532400, Note_on_c, 1, 58, 127
2, 532400, Note_on_c, 1, 68, 127
2, 532440, Note_off_c, 1, 68, 0
2, 532480, Note_on_c, 1, 67, 127
2, 532520, Note_off_c, 1, 67, 0
2, 532560, Note_on_c, 1, 68, 127
2, 532640, Note_off_c, 1, 68, 0
2, 532680, Note_on_c, 1, 67, 127
2, 532720, Note_off_c, 1, 58, 0
2, 532720, Note_off_c, 1, 67, 0
2, 532760, Note_on_c, 1, 46, 127
2, 532760, Note_on_c, 1, 65, 127
2, 532920, Note_off_c, 1, 65, 0
2, 532960, Note_on_c, 1, 63, 127
2, 533080, Note_off_c, 1, 46, 0
2, 533080, Note_off_c, 1, 63, 0
2, 533120, Note_on_c, 1, 51, 127
2, 533120, Note_on_c, 1, 63, 127
2, 533520, Note_on_c, 1, 46, 127
2, 533840, Note_off_c, 1, 46, 0
2, 533880, Note_on_c, 1, 39, 127
2, 534200, Note_off_c, 1, 39, 0
2, 534200, Note_off_c, 1, 51, 0
2, 534200, Note_off_c, 1, 63, 0
2, 534240, Note_on_c, 1, 63, 127
2, 534560, Note_off_c, 1, 63, 0
2, 534640, Note_on_c, 1, 70, 127
2, 534760, Note_off_c, 1, 70, 0
2, 534800, Note_on_c, 1, 68, 127
2, 534960, Note_off_c, 1, 68, 0
2, 535000, Note_on_c, 1, 72, 127
2, 535160, Note_off_c, 1, 72, 0
2, 535200, Note_on_c, 1, 70, 127
2, 535360, Note_off_c, 1, 70, 0
2, 535400, Note_on_c, 1, 73, 127
2, 535520, Note_off_c, 1, 73, 0
2, 535560, Note_on_c, 1, 72, 127
2, 535720, Note_off_c, 1, 72, 0
2, 535760, Note_on_c, 1, 51, 127
2, 535760, Note_on_c, 1, 75, 127
2, 536080, Note_off_c, 1, 51, 0
2, 536080, Note_off_c, 1, 75, 0
2, 536120, Note_on_c, 1, 56, 127
2, 536120, Note_on_c, 1, 73, 127
2, 536240, Note_off_c, 1, 73, 0
2, 536280, Note_off_c, 1, 56, 0
2, 536280, Note_on_c, 1, 72, 127
2, 536320, Note_on_c, 1, 55, 127
2, 536320, Note_off_c, 1, 72, 0
2, 536360, Note_on_c, 1, 73, 127
2, 536400, Note_on_c, 1, 72, 127
2, 536400, Note_off_c, 1, 73, 0
2, 536480, Note_off_c, 1, 55, 0
2, 536480, Note_off_c, 1, 72, 0
2, 536520, Note_on_c, 1, 58, 127
2, 536520, Note_on_c, 1, 70, 127
2, 536640, Note_off_c, 1, 58, 0
2, 536640, Note_off_c, 1, 70, 0
2, 536680, Note_on_c, 1, 56, 127
2, 536680, Note_on_c, 1, 72, 127
2, 536840, Note_off_c, 1, 56, 0
2, 536840, Note_off_c, 1, 72, 0
2, 536880, Note_on_c, 1, 60, 127
2, 536880, Note_on_c, 1, 68, 127
2, 537040, Note_off_c, 1, 60, 0
2, 537040, Note_off_c, 1, 68, 0
2, 537080, Note_on_c, 1, 58, 127
2, 537080, Note_on_c, 1, 70, 127
2, 537200, Note_off_c, 1, 58, 0
2, 537200, Note_off_c, 1, 70, 0
2, 537240, Note_on_c, 1, 63, 127
2, 537240, Note_on_c, 1, 72, 127
2, 537400, Note_off_c, 1, 72, 0
2, 537440, Note_on_c, 1, 73, 127
2, 537560, Note_off_c, 1, 63, 0
2, 537600, Note_off_c, 1, 73, 0
2, 537640, Note_on_c, 1, 61, 127
2, 537640, Note_on_c, 1, 75, 127
2, 537680, Note_off_c, 1, 61, 0
2, 537720, Note_on_c, 1, 60, 127
2, 537760, Note_off_c, 1, 60, 0
2, 537760, Note_off_c, 1, 75, 0
2, 537800, Note_on_c, 1, 61, 127
2, 537800, Note_on_c, 1, 73, 127
2, 537840, Note_off_c, 1, 61, 0
2, 537880, Note_on_c, 1, 60, 127
2, 537960, Note_off_c, 1, 60, 0
2, 537960, Note_off_c, 1, 73, 0
2, 538000, Note_on_c, 1, 58, 127
2, 538000, Note_on_c, 1, 77, 127
2, 538160, Note_off_c, 1, 58, 0
2, 538160, Note_off_c, 1, 77, 0
2, 538200, Note_on_c, 1, 60, 127
2, 538200, Note_on_c, 1, 75, 127
2, 538360, Note_off_c, 1, 60, 0
2, 538360, Note_off_c, 1, 75, 0
2, 538400, Note_on_c, 1, 56, 127
2, 538400, Note_on_c, 1, 78, 127
2, 538520, Note_off_c, 1, 78, 0
2, 538560, Note_on_c, 1, 77, 127
2, 538720, Note_off_c, 1, 56, 0
2, 538720, Note_off_c, 1, 77, 0
2, 538760, Note_on_c, 1, 44, 127
2, 538760, Note_on_c, 1, 80, 127
2, 539080, Note_off_c, 1, 44, 0
2, 539080, Note_off_c, 1, 80, 0
2, 539120, Note_on_c, 1, 49, 127
2, 539120, Note_on_c, 1, 78, 127
2, 539200, Note_on_c, 1, 77, 127
2, 539200, Note_off_c, 1, 78, 0
2, 539240, Note_off_c, 1, 77, 0
2, 539280, Note_off_c, 1, 49, 0
2, 539280, Note_on_c, 1, 78, 127
2, 539320, Note_on_c, 1, 48, 127
2, 539320, Note_off_c, 1, 78, 0
2, 539360, Note_on_c, 1, 77, 127
2, 539440, Note_off_c, 1, 77, 0
2, 539480, Note_off_c, 1, 48, 0
2, 539520, Note_on_c, 1, 51, 127
2, 539520, Note_on_c, 1, 75, 127
2, 539640, Note_off_c, 1, 51, 0
2, 539640, Note_off_c, 1, 75, 0
2, 539680, Note_on_c, 1, 49, 127
2, 539680, Note_on_c, 1, 77, 127
2, 539840, Note_off_c, 1, 49, 0
2, 539840, Note_off_c, 1, 77, 0
2, 539880, Note_on_c, 1, 53, 127
2, 539880, Note_on_c, 1, 73, 127
2, 540040, Note_off_c, 1, 53, 0
2, 540080, Note_on_c, 1, 49, 127
2, 540200, Note_off_c, 1, 49, 0
2, 540200, Note_off_c, 1, 73, 0
2, 540240, Note_on_c, 1, 61, 127
2, 540240, Note_on_c, 1, 77, 127
2, 540600, Note_off_c, 1, 61, 0
2, 540600, Note_off_c, 1, 77, 0
2, 540640, Note_on_c, 1, 42, 127
2, 540640, Note_on_c, 1, 77, 127
2, 540760, Note_off_c, 1, 77, 0
2, 540800, Note_on_c, 1, 73, 127
2, 540960, Note_off_c, 1, 73, 0
2, 541000, Note_on_c, 1, 72, 127
2, 541160, Note_off_c, 1, 72, 0
2, 541200, Note_on_c, 1, 70, 127
2, 541320, Note_off_c, 1, 42, 0
2, 541360, Note_off_c, 1, 70, 0
2, 541400, Note_on_c, 1, 73, 127
2, 541520, Note_off_c, 1, 73, 0
2, 541560, Note_on_c, 1, 72, 127
2, 541720, Note_off_c, 1, 72, 0
2, 541760, Note_on_c, 1, 60, 127
2, 541760, Note_on_c, 1, 75, 127
2, 541920, Note_off_c, 1, 75, 0
2, 541960, Note_on_c, 1, 73, 127
2, 542080, Note_off_c, 1, 60, 0
2, 542080, Note_off_c, 1, 73, 0
2, 542120, Note_on_c, 1, 41, 127
2, 542120, Note_on_c, 1, 75, 127
2, 542280, Note_off_c, 1, 75, 0
2, 542320, Note_on_c, 1, 72, 127
2, 542480, Note_off_c, 1, 72, 0
2, 542520, Note_on_c, 1, 70, 127
2, 542640, Note_off_c, 1, 70, 0
2, 542680, Note_on_c, 1, 69, 127
2, 542840, Note_off_c, 1, 41, 0
2, 542840, Note_off_c, 1, 69, 0
2, 542880, Note_on_c, 1, 72, 127
2, 543040, Note_off_c, 1, 72, 0
2, 543080, Note_on_c, 1, 70, 127
2, 543200, Note_off_c, 1, 70, 0
2, 543240, Note_on_c, 1, 58, 127
2, 543240, Note_on_c, 1, 73, 127
2, 543400, Note_off_c, 1, 73, 0
2, 543440, Note_on_c, 1, 72, 127
2, 543600, Note_off_c, 1, 58, 0
2, 543600, Note_off_c, 1, 72, 0
2, 543640, Note_on_c, 1, 54, 127
2, 543640, Note_on_c, 1, 75, 127
2, 543760, Note_off_c, 1, 75, 0
2, 543800, Note_on_c, 1, 73, 127
2, 543960, Note_off_c, 1, 54, 0
2, 543960, Note_off_c, 1, 73, 0
2, 544000, Note_on_c, 1, 49, 127
2, 544000, Note_on_c, 1, 72, 127
2, 544160, Note_off_c, 1, 72, 0
2, 544200, Note_on_c, 1, 70, 127
2, 544360, Note_off_c, 1, 49, 0
2, 544360, Note_off_c, 1, 70, 0
2, 544400, Note_on_c, 1, 51, 127
2, 544400, Note_on_c, 1, 73, 127
2, 544520, Note_off_c, 1, 73, 0
2, 544560, Note_on_c, 1, 72, 127
2, 544720, Note_off_c, 1, 51, 0
2, 544720, Note_off_c, 1, 72, 0
2, 544760, Note_on_c, 1, 53, 127
2, 544760, Note_on_c, 1, 70, 127
2, 544920, Note_off_c, 1, 70, 0
2, 544960, Note_on_c, 1, 69, 127
2, 545080, Note_off_c, 1, 53, 0
2, 545080, Note_off_c, 1, 69, 0
2, 545120, Note_on_c, 1, 46, 127
2, 545120, Note_on_c, 1, 70, 127
2, 545280, Note_off_c, 1, 46, 0
2, 545320, Note_on_c, 1, 45, 127
2, 545480, Note_off_c, 1, 45, 0
2, 545520, Note_on_c, 1, 48, 127
2, 545640, Note_off_c, 1, 48, 0
2, 545680, Note_on_c, 1, 46, 127
2, 545840, Note_off_c, 1, 46, 0
2, 545880, Note_on_c, 1, 49, 127
2, 546040, Note_off_c, 1, 49, 0
2, 546080, Note_on_c, 1, 48, 127
2, 546200, Note_off_c, 1, 48, 0
2, 546200, Note_off_c, 1, 70, 0
2, 546240, Note_on_c, 1, 51, 127
2, 546240, Note_on_c, 1, 70, 127
2, 546600, Note_off_c, 1, 51, 0
2, 546600, Note_off_c, 1, 70, 0
2, 546640, Note_on_c, 1, 51, 127
2, 546640, Note_on_c, 1, 77, 127
2, 546680, Note_off_c, 1, 51, 0
2, 546720, Note_on_c, 1, 50, 127
2, 546760, Note_off_c, 1, 50, 0
2, 546760, Note_off_c, 1, 77, 0
2, 546800, Note_on_c, 1, 51, 127
2, 546840, Note_on_c, 1, 50, 127
2, 546840, Note_off_c, 1, 51, 0
2, 546840, Note_on_c, 1, 75, 127
2, 546960, Note_off_c, 1, 75, 0
2, 547000, Note_on_c, 1, 79, 127
2, 547160, Note_off_c, 1, 79, 0
2, 547200, Note_on_c, 1, 77, 127
2, 547280, Note_off_c, 1, 50, 0
2, 547360, Note_off_c, 1, 77, 0
2, 547400, Note_on_c, 1, 80, 127
2, 547520, Note_off_c, 1, 80, 0
2, 547560, Note_on_c, 1, 79, 127
2, 547720, Note_off_c, 1, 79, 0
2, 547760, Note_on_c, 1, 46, 127
2, 547760, Note_on_c, 1, 82, 127
2, 548080, Note_off_c, 1, 46, 0
2, 548080, Note_off_c, 1, 82, 0
2, 548120, Note_on_c, 1, 51, 127
2, 548120, Note_on_c, 1, 80, 127
2, 548200, Note_off_c, 1, 80, 0
2, 548280, Note_off_c, 1, 51, 0
2, 548280, Note_on_c, 1, 79, 127
2, 548320, Note_on_c, 1, 50, 127
2, 548320, Note_off_c, 1, 79, 0
2, 548360, Note_on_c, 1, 80, 127
2, 548400, Note_on_c, 1, 79, 127
2, 548400, Note_off_c, 1, 80, 0
2, 548480, Note_off_c, 1, 50, 0
2, 548480, Note_off_c, 1, 79, 0
2, 548520, Note_on_c, 1, 53, 127
2, 548520, Note_on_c, 1, 77, 127
2, 548640, Note_off_c, 1, 53, 0
2, 548640, Note_off_c, 1, 77, 0
2, 548680, Note_on_c, 1, 51, 127
2, 548680, Note_on_c, 1, 79, 127
2, 548840, Note_off_c, 1, 51, 0
2, 548840, Note_off_c, 1, 79, 0
2, 548880, Note_on_c, 1, 55, 127
2, 548880, Note_on_c, 1, 75, 127
2, 549040, Note_off_c, 1, 55, 0
2, 549080, Note_on_c, 1, 53, 127
2, 549200, Note_off_c, 1, 53, 0
2, 549200, Note_off_c, 1, 75, 0
2, 549240, Note_on_c, 1, 56, 127
2, 549240, Note_on_c, 1, 63, 127
2, 549600, Note_off_c, 1, 56, 0
2, 549600, Note_off_c, 1, 63, 0
2, 549640, Note_on_c, 1, 56, 127
2, 549640, Note_on_c, 1, 70, 127
2, 549680, Note_off_c, 1, 56, 0
2, 549720, Note_on_c, 1, 55, 127
2, 549760, Note_off_c, 1, 55, 0
2, 549800, Note_on_c, 1, 56, 127
2, 549800, Note_off_c, 1, 70, 0
2, 549840, Note_off_c, 1, 56, 0
2, 549840, Note_on_c, 1, 68, 127
2, 549880, Note_on_c, 1, 55, 127
2, 549960, Note_off_c, 1, 68, 0
2, 550000, Note_on_c, 1, 72, 127
2, 550160, Note_off_c, 1, 72, 0
2, 550200, Note_on_c, 1, 70, 127
2, 550320, Note_off_c, 1, 55, 0
2, 550360, Note_off_c, 1, 70, 0
2, 550400, Note_on_c, 1, 73, 127
2, 550520, Note_off_c, 1, 73, 0
2, 550560, Note_on_c, 1, 72, 127
2, 550720, Note_off_c, 1, 72, 0
2, 550760, Note_on_c, 1, 51, 127
2, 550760, Note_on_c, 1, 75, 127
2, 551080, Note_off_c, 1, 51, 0
2, 551080, Note_off_c, 1, 75, 0
2, 551120, Note_on_c, 1, 56, 127
2, 551120, Note_on_c, 1, 73, 127
2, 551160, Note_off_c, 1, 73, 0
2, 551200, Note_on_c, 1, 72, 127
2, 551240, Note_off_c, 1, 72, 0
2, 551280, Note_off_c, 1, 56, 0
2, 551280, Note_on_c, 1, 73, 127
2, 551320, Note_on_c, 1, 55, 127
2, 551320, Note_off_c, 1, 73, 0
2, 551360, Note_on_c, 1, 72, 127
2, 551480, Note_off_c, 1, 55, 0
2, 551480, Note_off_c, 1, 72, 0
2, 551520, Note_on_c, 1, 58, 127
2, 551520, Note_on_c, 1, 70, 127
2, 551640, Note_off_c, 1, 58, 0
2, 551640, Note_off_c, 1, 70, 0
2, 551680, Note_on_c, 1, 56, 127
2, 551680, Note_on_c, 1, 72, 127
2, 551840, Note_off_c, 1, 56, 0
2, 551840, Note_off_c, 1, 72, 0
2, 551880, Note_on_c, 1, 60, 127
2, 551880, Note_on_c, 1, 68, 127
2, 552040, Note_off_c, 1, 60, 0
2, 552040, Note_off_c, 1, 68, 0
2, 552080, Note_on_c, 1, 58, 127
2, 552080, Note_on_c, 1, 70, 127
2, 552200, Note_off_c, 1, 58, 0
2, 552200, Note_off_c, 1, 70, 0
2, 552280, Note_on_c, 1, 63, 127
2, 552280, Note_on_c, 1, 72, 127
2, 552400, Note_off_c, 1, 72, 0
2, 552440, Note_on_c, 1, 73, 127
2, 552600, Note_off_c, 1, 63, 0
2, 552600, Note_off_c, 1, 73, 0
2, 552640, Note_on_c, 1, 61, 127
2, 552640, Note_on_c, 1, 75, 127
2, 552680, Note_off_c, 1, 61, 0
2, 552720, Note_on_c, 1, 60, 127
2, 552760, Note_off_c, 1, 60, 0
2, 552800, Note_on_c, 1, 61, 127
2, 552800, Note_off_c, 1, 75, 0
2, 552840, Note_on_c, 1, 60, 127
2, 552840, Note_off_c, 1, 61, 0
2, 552840, Note_on_c, 1, 72, 127
2, 552960, Note_off_c, 1, 60, 0
2, 552960, Note_off_c, 1, 72, 0
2, 553000, Note_on_c, 1, 61, 127
2, 553000, Note_on_c, 1, 70, 127
2, 553160, Note_off_c, 1, 70, 0
2, 553200, Note_on_c, 1, 68, 127
2, 553360, Note_off_c, 1, 61, 0
2, 553360, Note_off_c, 1, 68, 0
2, 553400, Note_on_c, 1, 60, 127
2, 553400, Note_on_c, 1, 75, 127
2, 553520, Note_off_c, 1, 75, 0
2, 553560, Note_on_c, 1, 73, 127
2, 553720, Note_off_c, 1, 60, 0
2, 553720, Note_off_c, 1, 73, 0
2, 553760, Note_on_c, 1, 58, 127
2, 553760, Note_on_c, 1, 77, 127
2, 553920, Note_off_c, 1, 77, 0
2, 553960, Note_on_c, 1, 75, 127
2, 554080, Note_off_c, 1, 58, 0
2, 554080, Note_off_c, 1, 75, 0
2, 554120, Note_on_c, 1, 56, 127
2, 554120, Note_on_c, 1, 78, 127
2, 554320, Note_on_c, 1, 72, 127
2, 554480, Note_off_c, 1, 56, 0
2, 554480, Note_off_c, 1, 72, 0
2, 554480, Note_off_c, 1, 78, 0
2, 554520, Note_on_c, 1, 56, 127
2, 554520, Note_on_c, 1, 70, 127
2, 554640, Note_off_c, 1, 70, 0
2, 554720, Note_on_c, 1, 68, 127
2, 554840, Note_off_c, 1, 56, 0
2, 554840, Note_off_c, 1, 68, 0
2, 554880, Note_on_c, 1, 56, 127
2, 554880, Note_on_c, 1, 73, 127
2, 555040, Note_off_c, 1, 73, 0
2, 555080, Note_on_c, 1, 72, 127
2, 555240, Note_off_c, 1, 56, 0
2, 555240, Note_off_c, 1, 72, 0
2, 555280, Note_on_c, 1, 56, 127
2, 555280, Note_on_c, 1, 75, 127
2, 555400, Note_off_c, 1, 75, 0
2, 555440, Note_on_c, 1, 73, 127
2, 555600, Note_off_c, 1, 56, 0
2, 555600, Note_off_c, 1, 73, 0
2, 555640, Note_on_c, 1, 56, 127
2, 555640, Note_on_c, 1, 77, 127
2, 555840, Note_on_c, 1, 72, 127
2, 555960, Note_off_c, 1, 56, 0
2, 555960, Note_off_c, 1, 72, 0
2, 555960, Note_off_c, 1, 77, 0
2, 556000, Note_on_c, 1, 56, 127
2, 556000, Note_on_c, 1, 70, 127
2, 556160, Note_off_c, 1, 70, 0
2, 556200, Note_on_c, 1, 68, 127
2, 556360, Note_off_c, 1, 56, 0
2, 556360, Note_off_c, 1, 68, 0
2, 556400, Note_on_c, 1, 56, 127
2, 556400, Note_on_c, 1, 75, 127
2, 556520, Note_off_c, 1, 75, 0
2, 556560, Note_on_c, 1, 73, 127
2, 556720, Note_off_c, 1, 56, 0
2, 556720, Note_off_c, 1, 73, 0
2, 556760, Note_on_c, 1, 56, 127
2, 556760, Note_on_c, 1, 77, 127
2, 556920, Note_off_c, 1, 77, 0
2, 556960, Note_on_c, 1, 75, 127
2, 557080, Note_off_c, 1, 56, 0
2, 557080, Note_off_c, 1, 75, 0
2, 557120, Note_on_c, 1, 56, 127
2, 557120, Note_on_c, 1, 78, 127
2, 557320, Note_on_c, 1, 72, 127
2, 557480, Note_off_c, 1, 56, 0
2, 557480, Note_off_c, 1, 72, 0
2, 557480, Note_off_c, 1, 78, 0
2, 557520, Note_on_c, 1, 54, 127
2, 557520, Note_on_c, 1, 70, 127
2, 557640, Note_off_c, 1, 70, 0
2, 557720, Note_on_c, 1, 68, 127
2, 557840, Note_off_c, 1, 54, 0
2, 557840, Note_off_c, 1, 68, 0
2, 557880, Note_on_c, 1, 53, 127
2, 557880, Note_on_c, 1, 73, 127
2, 558040, Note_off_c, 1, 73, 0
2, 558080, Note_on_c, 1, 72, 127
2, 558240, Note_off_c, 1, 53, 0
2, 558240, Note_off_c, 1, 72, 0
2, 558280, Note_on_c, 1, 51, 127
2, 558280, Note_on_c, 1, 75, 127
2, 558400, Note_off_c, 1, 75, 0
2, 558440, Note_on_c, 1, 73, 127
2, 558600, Note_off_c, 1, 51, 0
2, 558600, Note_off_c, 1, 73, 0
2, 558640, Note_on_c, 1, 49, 127
2, 558640, Note_on_c, 1, 77, 127
2, 558800, Note_off_c, 1, 77, 0
2, 558840, Note_on_c, 1, 73, 127
2, 558960, Note_off_c, 1, 49, 0
2, 558960, Note_off_c, 1, 73, 0
2, 559000, Note_on_c, 1, 51, 127
2, 559000, Note_on_c, 1, 72, 127
2, 559160, Note_off_c, 1, 72, 0
2, 559200, Note_on_c, 1, 70, 127
2, 559360, Note_off_c, 1, 51, 0
2, 559360, Note_off_c, 1, 70, 0
2, 559400, Note_on_c, 1, 49, 127
2, 559400, Note_on_c, 1, 77, 127
2, 559520, Note_off_c, 1, 77, 0
2, 559560, Note_on_c, 1, 75, 127
2, 559720, Note_off_c, 1, 49, 0
2, 559720, Note_off_c, 1, 75, 0
2, 559760, Note_on_c, 1, 48, 127
2, 559760, Note_on_c, 1, 79, 127
2, 559920, Note_off_c, 1, 79, 0
2, 559960, Note_on_c, 1, 77, 127
2, 560080, Note_off_c, 1, 48, 0
2, 560080, Note_off_c, 1, 77, 0
2, 560120, Note_on_c, 1, 46, 127
2, 560120, Note_on_c, 1, 80, 127
2, 560320, Note_on_c, 1, 74, 127
2, 560480, Note_off_c, 1, 46, 0
2, 560480, Note_off_c, 1, 74, 0
2, 560520, Note_on_c, 1, 46, 127
2, 560520, Note_on_c, 1, 72, 127
2, 560520, Note_off_c, 1, 80, 0
2, 560640, Note_off_c, 1, 72, 0
2, 560720, Note_on_c, 1, 70, 127
2, 560840, Note_off_c, 1, 46, 0
2, 560840, Note_off_c, 1, 70, 0
2, 560880, Note_on_c, 1, 46, 127
2, 560880, Note_on_c, 1, 75, 127
2, 561040, Note_off_c, 1, 75, 0
2, 561080, Note_on_c, 1, 74, 127
2, 561240, Note_off_c, 1, 46, 0
2, 561240, Note_off_c, 1, 74, 0
2, 561280, Note_on_c, 1, 46, 127
2, 561280, Note_on_c, 1, 77, 127
2, 561440, Note_on_c, 1, 75, 127
2, 561440, Note_off_c, 1, 77, 0
2, 561600, Note_off_c, 1, 46, 0
2, 561600, Note_off_c, 1, 75, 0
2, 561640, Note_on_c, 1, 46, 127
2, 561640, Note_on_c, 1, 79, 127
2, 561840, Note_on_c, 1, 74, 127
2, 561960, Note_off_c, 1, 46, 0
2, 561960, Note_off_c, 1, 74, 0
2, 562000, Note_on_c, 1, 46, 127
2, 562000, Note_on_c, 1, 72, 127
2, 562000, Note_off_c, 1, 79, 0
2, 562160, Note_off_c, 1, 72, 0
2, 562200, Note_on_c, 1, 70, 127
2, 562360, Note_off_c, 1, 46, 0
2, 562360, Note_off_c, 1, 70, 0
2, 562400, Note_on_c, 1, 46, 127
2, 562400, Note_on_c, 1, 77, 127
2, 562560, Note_on_c, 1, 75, 127
2, 562560, Note_off_c, 1, 77, 0
2, 562720, Note_off_c, 1, 46, 0
2, 562720, Note_off_c, 1, 75, 0
2, 562760, Note_on_c, 1, 46, 127
2, 562760, Note_on_c, 1, 79, 127
2, 562920, Note_off_c, 1, 79, 0
2, 562960, Note_on_c, 1, 77, 127
2, 563080, Note_off_c, 1, 46, 0
2, 563080, Note_off_c, 1, 77, 0
2, 563120, Note_on_c, 1, 46, 127
2, 563120, Note_on_c, 1, 80, 127
2, 563320, Note_on_c, 1, 74, 127
2, 563480, Note_off_c, 1, 46, 0
2, 563480, Note_off_c, 1, 74, 0
2, 563520, Note_on_c, 1, 44, 127
2, 563520, Note_on_c, 1, 72, 127
2, 563520, Note_off_c, 1, 80, 0
2, 563640, Note_off_c, 1, 72, 0
2, 563720, Note_on_c, 1, 70, 127
2, 563840, Note_off_c, 1, 44, 0
2, 563840, Note_off_c, 1, 70, 0
2, 563880, Note_on_c, 1, 43, 127
2, 563880, Note_on_c, 1, 75, 127
2, 564040, Note_off_c, 1, 75, 0
2, 564080, Note_on_c, 1, 74, 127
2, 564240, Note_off_c, 1, 43, 0
2, 564240, Note_off_c, 1, 74, 0
2, 564280, Note_on_c, 1, 41, 127
2, 564280, Note_on_c, 1, 77, 127
2, 564400, Note_off_c, 1, 77, 0
2, 564440, Note_on_c, 1, 75, 127
2, 564600, Note_off_c, 1, 41, 0
2, 564600, Note_off_c, 1, 75, 0
2, 564640, Note_on_c, 1, 39, 127
2, 564640, Note_on_c, 1, 79, 127
2, 564800, Note_off_c, 1, 79, 0
2, 564840, Note_on_c, 1, 77, 127
2, 564960, Note_off_c, 1, 39, 0
2, 564960, Note_off_c, 1, 77, 0
2, 565000, Note_on_c, 1, 39, 127
2, 565000, Note_on_c, 1, 75, 127
2, 565160, Note_off_c, 1, 75, 0
2, 565200, Note_on_c, 1, 77, 127
2, 565360, Note_off_c, 1, 39, 0
2, 565360, Note_off_c, 1, 77, 0
2, 565400, Note_on_c, 1, 39, 127
2, 565400, Note_on_c, 1, 79, 127
2, 565520, Note_off_c, 1, 79, 0
2, 565560, Note_on_c, 1, 77, 127
2, 565720, Note_off_c, 1, 39, 0
2, 565720, Note_off_c, 1, 77, 0
2, 565760, Note_on_c, 1, 39, 127
2, 565760, Note_on_c, 1, 80, 127
2, 565920, Note_off_c, 1, 80, 0
2, 565960, Note_on_c, 1, 79, 127
2, 566080, Note_off_c, 1, 39, 0
2, 566080, Note_off_c, 1, 79, 0
2, 566120, Note_on_c, 1, 37, 127
2, 566120, Note_on_c, 1, 82, 127
2, 566280, Note_off_c, 1, 82, 0
2, 566320, Note_on_c, 1, 80, 127
2, 566480, Note_off_c, 1, 37, 0
2, 566480, Note_off_c, 1, 80, 0
2, 566520, Note_on_c, 1, 37, 127
2, 566520, Note_on_c, 1, 79, 127
2, 566640, Note_off_c, 1, 79, 0
2, 566720, Note_on_c, 1, 77, 127
2, 566840, Note_off_c, 1, 37, 0
2, 566840, Note_off_c, 1, 77, 0
2, 566880, Note_on_c, 1, 37, 127
2, 566880, Note_on_c, 1, 80, 127
2, 567040, Note_off_c, 1, 80, 0
2, 567080, Note_on_c, 1, 79, 127
2, 567240, Note_off_c, 1, 37, 0
2, 567240, Note_off_c, 1, 79, 0
2, 567280, Note_on_c, 1, 49, 127
2, 567280, Note_on_c, 1, 77, 127
2, 567400, Note_off_c, 1, 77, 0
2, 567440, Note_on_c, 1, 75, 127
2, 567600, Note_off_c, 1, 49, 0
2, 567600, Note_off_c, 1, 75, 0
2, 567640, Note_on_c, 1, 48, 127
2, 567640, Note_on_c, 1, 80, 127
2, 567960, Note_off_c, 1, 48, 0
2, 568000, Note_on_c, 1, 51, 127
2, 568080, Note_off_c, 1, 51, 0
2, 568120, Note_on_c, 1, 49, 127
2, 568160, Note_off_c, 1, 49, 0
2, 568160, Note_off_c, 1, 80, 0
2, 568200, Note_on_c, 1, 48, 127
2, 568200, Note_on_c, 1, 82, 127
2, 568240, Note_off_c, 1, 48, 0
2, 568280, Note_on_c, 1, 49, 127
2, 568360, Note_off_c, 1, 49, 0
2, 568360, Note_off_c, 1, 82, 0
2, 568400, Note_on_c, 1, 51, 127
2, 568400, Note_on_c, 1, 80, 127
2, 568440, Note_on_c, 1, 79, 127
2, 568440, Note_off_c, 1, 80, 0
2, 568520, Note_off_c, 1, 79, 0
2, 568520, Note_on_c, 1, 80, 127
2, 568600, Note_on_c, 1, 79, 127
2, 568600, Note_off_c, 1, 80, 0
2, 568680, Note_off_c, 1, 79, 0
2, 568680, Note_on_c, 1, 80, 127
2, 568720, Note_off_c, 1, 51, 0
2, 568760, Note_on_c, 1, 39, 127
2, 568760, Note_on_c, 1, 79, 127
2, 568760, Note_off_c, 1, 80, 0
2, 568800, Note_off_c, 1, 79, 0
2, 568840, Note_on_c, 1, 80, 127
2, 568880, Note_off_c, 1, 80, 0
2, 568920, Note_on_c, 1, 79, 127
2, 569000, Note_on_c, 1, 77, 127
2, 569000, Note_off_c, 1, 79, 0
2, 569040, Note_off_c, 1, 77, 0
2, 569080, Note_off_c, 1, 39, 0
2, 569080, Note_on_c, 1, 79, 127
2, 569120, Note_on_c, 1, 44, 127
2, 569120, Note_off_c, 1, 79, 0
2, 569120, Note_on_c, 1, 80, 127
2, 569280, Note_off_c, 1, 44, 0
2, 569320, Note_on_c, 1, 51, 127
2, 569480, Note_off_c, 1, 51, 0
2, 569520, Note_on_c, 1, 53, 127
2, 569640, Note_off_c, 1, 53, 0
2, 569720, Note_on_c, 1, 55, 127
2, 569840, Note_off_c, 1, 55, 0
2, 569840, Note_off_c, 1, 80, 0
2, 569880, Note_on_c, 1, 56, 127
2, 570040, Note_off_c, 1, 56, 0
2, 570080, Note_on_c, 1, 58, 127
2, 570240, Note_off_c, 1, 58, 0
2, 570280, Note_on_c, 1, 60, 127
2, 570280, Note_on_c, 1, 75, 127
2, 570600, Note_off_c, 1, 60, 0
2, 570600, Note_off_c, 1, 75, 0
2, 570640, Note_on_c, 1, 41, 127
2, 570640, Note_on_c, 1, 75, 127
2, 570800, Note_off_c, 1, 75, 0
2, 570840, Note_on_c, 1, 72, 127
2, 570960, Note_off_c, 1, 72, 0
2, 571000, Note_on_c, 1, 70, 127
2, 571160, Note_off_c, 1, 70, 0
2, 571200, Note_on_c, 1, 68, 127
2, 571320, Note_off_c, 1, 41, 0
2, 571360, Note_off_c, 1, 68, 0
2, 571400, Note_on_c, 1, 72, 127
2, 571520, Note_off_c, 1, 72, 0
2, 571560, Note_on_c, 1, 70, 127
2, 571720, Note_off_c, 1, 70, 0
2, 571760, Note_on_c, 1, 58, 127
2, 571760, Note_on_c, 1, 73, 127
2, 571920, Note_off_c, 1, 73, 0
2, 571960, Note_on_c, 1, 72, 127
2, 572080, Note_off_c, 1, 58, 0
2, 572080, Note_off_c, 1, 72, 0
2, 572120, Note_on_c, 1, 39, 127
2, 572120, Note_on_c, 1, 73, 127
2, 572280, Note_off_c, 1, 73, 0
2, 572320, Note_on_c, 1, 70, 127
2, 572480, Note_off_c, 1, 70, 0
2, 572520, Note_on_c, 1, 68, 127
2, 572640, Note_off_c, 1, 68, 0
2, 572720, Note_on_c, 1, 67, 127
2, 572840, Note_off_c, 1, 39, 0
2, 572840, Note_off_c, 1, 67, 0
2, 572880, Note_on_c, 1, 70, 127
2, 573040, Note_off_c, 1, 70, 0
2, 573080, Note_on_c, 1, 68, 127
2, 573240, Note_off_c, 1, 68, 0
2, 573280, Note_on_c, 1, 56, 127
2, 573280, Note_on_c, 1, 72, 127
2, 573400, Note_off_c, 1, 72, 0
2, 573440, Note_on_c, 1, 70, 127
2, 573600, Note_off_c, 1, 56, 0
2, 573600, Note_off_c, 1, 70, 0
2, 573640, Note_on_c, 1, 53, 127
2, 573640, Note_on_c, 1, 73, 127
2, 573800, Note_off_c, 1, 73, 0
2, 573840, Note_on_c, 1, 72, 127
2, 573960, Note_off_c, 1, 53, 0
2, 573960, Note_off_c, 1, 72, 0
2, 574000, Note_on_c, 1, 48, 127
2, 574000, Note_on_c, 1, 70, 127
2, 574160, Note_off_c, 1, 70, 0
2, 574200, Note_on_c, 1, 68, 127
2, 574360, Note_off_c, 1, 48, 0
2, 574360, Note_off_c, 1, 68, 0
2, 574400, Note_on_c, 1, 49, 127
2, 574400, Note_on_c, 1, 72, 127
2, 574520, Note_off_c, 1, 72, 0
2, 574560, Note_on_c, 1, 70, 127
2, 574720, Note_off_c, 1, 49, 0
2, 574720, Note_off_c, 1, 70, 0
2, 574760, Note_on_c, 1, 51, 127
2, 574760, Note_on_c, 1, 68, 127
2, 574920, Note_off_c, 1, 68, 0
2, 574960, Note_on_c, 1, 67, 127
2, 575080, Note_off_c, 1, 51, 0
2, 575080, Note_off_c, 1, 67, 0
2, 575120, Note_on_c, 1, 44, 127
2, 575120, Note_on_c, 1, 68, 127
2, 575280, Note_off_c, 1, 44, 0
2, 575280, Note_off_c, 1, 68, 0
2, 575320, Note_on_c, 1, 43, 127
2, 575320, Note_on_c, 1, 63, 127
2, 575480, Note_off_c, 1, 43, 0
2, 575480, Note_off_c, 1, 63, 0
2, 575520, Note_on_c, 1, 44, 127
2, 575520, Note_on_c, 1, 65, 127
2, 575640, Note_off_c, 1, 44, 0
2, 575640, Note_off_c, 1, 65, 0
2, 575720, Note_on_c, 1, 46, 127
2, 575720, Note_on_c, 1, 67, 127
2, 575840, Note_off_c, 1, 46, 0
2, 575840, Note_off_c, 1, 67, 0
2, 575880, Note_on_c, 1, 48, 127
2, 575880, Note_on_c, 1, 68, 127
2, 576040, Note_off_c, 1, 48, 0
2, 576040, Note_off_c, 1, 68, 0
2, 576080, Note_on_c, 1, 49, 127
2, 576080, Note_on_c, 1, 70, 127
2, 576240, Note_off_c, 1, 49, 0
2, 576240, Note_off_c, 1, 70, 0
2, 576280, Note_on_c, 1, 51, 127
2, 576280, Note_on_c, 1, 72, 127
2, 576400, Note_off_c, 1, 51, 0
2, 576400, Note_off_c, 1, 72, 0
2, 576440, Note_on_c, 1, 48, 127
2, 576440, Note_on_c, 1, 73, 127
2, 576600, Note_off_c, 1, 48, 0
2, 576600, Note_off_c, 1, 73, 0
2, 576640, Note_on_c, 1, 53, 127
2, 576640, Note_on_c, 1, 75, 127
2, 576680, Note_off_c, 1, 53, 0
2, 576720, Note_on_c, 1, 51, 127
2, 576760, Note_off_c, 1, 51, 0
2, 576800, Note_on_c, 1, 53, 127
2, 576800, Note_off_c, 1, 75, 0
2, 576840, Note_on_c, 1, 72, 127
2, 576960, Note_off_c, 1, 72, 0
2, 577000, Note_on_c, 1, 70, 127
2, 577160, Note_off_c, 1, 70, 0
2, 577200, Note_on_c, 1, 68, 127
2, 577360, Note_off_c, 1, 68, 0
2, 577400, Note_off_c, 1, 53, 0
2, 577400, Note_on_c, 1, 72, 127
2, 577520, Note_off_c, 1, 72, 0
2, 577560, Note_on_c, 1, 70, 127
2, 577720, Note_off_c, 1, 70, 0
2, 577760, Note_on_c, 1, 46, 127
2, 577760, Note_on_c, 1, 73, 127
2, 577920, Note_off_c, 1, 73, 0
2, 577960, Note_on_c, 1, 72, 127
2, 578080, Note_off_c, 1, 46, 0
2, 578080, Note_off_c, 1, 72, 0
2, 578120, Note_on_c, 1, 51, 127
2, 578120, Note_on_c, 1, 73, 127
2, 578200, Note_off_c, 1, 51, 0
2, 578240, Note_on_c, 1, 49, 127
2, 578280, Note_off_c, 1, 49, 0
2, 578280, Note_off_c, 1, 73, 0
2, 578320, Note_on_c, 1, 51, 127
2, 578320, Note_on_c, 1, 70, 127
2, 578480, Note_off_c, 1, 70, 0
2, 578520, Note_on_c, 1, 68, 127
2, 578640, Note_off_c, 1, 68, 0
2, 578720, Note_on_c, 1, 67, 127
2, 578840, Note_off_c, 1, 67, 0
2, 578880, Note_on_c, 1, 70, 127
2, 578920, Note_off_c, 1, 51, 0
2, 579040, Note_off_c, 1, 70, 0
2, 579080, Note_on_c, 1, 68, 127
2, 579240, Note_off_c, 1, 68, 0
2, 579280, Note_on_c, 1, 44, 127
2, 579280, Note_on_c, 1, 72, 127
2, 579400, Note_off_c, 1, 72, 0
2, 579440, Note_on_c, 1, 70, 127
2, 579600, Note_off_c, 1, 44, 0
2, 579600, Note_off_c, 1, 70, 0
2, 579640, Note_on_c, 1, 41, 127
2, 579640, Note_on_c, 1, 73, 127
2, 579800, Note_off_c, 1, 73, 0
2, 579840, Note_on_c, 1, 72, 127
2, 579960, Note_off_c, 1, 41, 0
2, 579960, Note_off_c, 1, 72, 0
2, 580000, Note_on_c, 1, 36, 127
2, 580000, Note_on_c, 1, 70, 127
2, 580160, Note_off_c, 1, 70, 0
2, 580200, Note_on_c, 1, 68, 127
2, 580360, Note_off_c, 1, 36, 0
2, 580360, Note_off_c, 1, 68, 0
2, 580400, Note_on_c, 1, 37, 127
2, 580400, Note_on_c, 1, 72, 127
2, 580520, Note_off_c, 1, 72, 0
2, 580560, Note_on_c, 1, 70, 127
2, 580720, Note_off_c, 1, 37, 0
2, 580720, Note_off_c, 1, 70, 0
2, 580760, Note_on_c, 1, 39, 127
2, 580760, Note_on_c, 1, 68, 127
2, 580920, Note_off_c, 1, 68, 0
2, 580960, Note_on_c, 1, 67, 127
2, 581080, Note_off_c, 1, 39, 0
2, 581080, Note_off_c, 1, 67, 0
2, 581120, Note_on_c, 1, 32, 127
2, 581120, Note_on_c, 1, 68, 127
2, 581200, Note_off_c, 1, 68, 0
2, 581240, Note_on_c, 1, 67, 127
2, 581280, Note_off_c, 1, 67, 0
2, 581320, Note_on_c, 1, 68, 127
2, 581520, Note_on_c, 1, 39, 127
2, 581840, Note_off_c, 1, 39, 0
2, 581880, Note_on_c, 1, 44, 127
2, 582040, Note_off_c, 1, 68, 0
2, 582240, Note_off_c, 1, 32, 0
2, 582280, Note_on_c, 1, 51, 127
2, 582280, Note_on_c, 1, 59, 127
2, 582400, Note_off_c, 1, 51, 0
2, 582400, Note_off_c, 1, 59, 0
2, 582440, Note_on_c, 1, 49, 127
2, 582440, Note_on_c, 1, 61, 127
2, 582600, Note_off_c, 1, 44, 0
2, 582600, Note_off_c, 1, 49, 0
2, 582600, Note_off_c, 1, 61, 0
2, 582640, Note_on_c, 1, 47, 127
2, 582640, Note_on_c, 1, 63, 127
2, 582800, Note_off_c, 1, 47, 0
2, 582840, Note_on_c, 1, 46, 127
2, 582960, Note_off_c, 1, 46, 0
2, 582960, Note_off_c, 1, 63, 0
2, 583000, Note_on_c, 1, 44, 127
2, 583000, Note_on_c, 1, 64, 127
2, 583160, Note_off_c, 1, 44, 0
2, 583200, Note_on_c, 1, 46, 127
2, 583360, Note_off_c, 1, 46, 0
2, 583360, Note_off_c, 1, 64, 0
2, 583400, Note_on_c, 1, 47, 127
2, 583400, Note_on_c, 1, 63, 127
2, 583520, Note_off_c, 1, 47, 0
2, 583560, Note_on_c, 1, 46, 127
2, 583720, Note_off_c, 1, 46, 0
2, 583720, Note_off_c, 1, 63, 0
2, 583760, Note_on_c, 1, 44, 127
2, 583760, Note_on_c, 1, 61, 127
2, 583920, Note_off_c, 1, 44, 0
2, 583960, Note_on_c, 1, 46, 127
2, 584080, Note_off_c, 1, 46, 0
2, 584080, Note_off_c, 1, 61, 0
2, 584120, Note_on_c, 1, 47, 127
2, 584120, Note_on_c, 1, 63, 127
2, 584200, Note_on_c, 1, 61, 127
2, 584200, Note_off_c, 1, 63, 0
2, 584240, Note_off_c, 1, 61, 0
2, 584280, Note_off_c, 1, 47, 0
2, 584280, Note_on_c, 1, 63, 127
2, 584320, Note_on_c, 1, 46, 127
2, 584480, Note_off_c, 1, 46, 0
2, 584520, Note_on_c, 1, 44, 127
2, 584520, Note_on_c, 1, 56, 127
2, 584520, Note_off_c, 1, 63, 0
2, 584640, Note_off_c, 1, 44, 0
2, 584720, Note_on_c, 1, 46, 127
2, 584840, Note_off_c, 1, 46, 0
2, 584880, Note_on_c, 1, 47, 127
2, 585040, Note_off_c, 1, 47, 0
2, 585080, Note_on_c, 1, 49, 127
2, 585120, Note_off_c, 1, 56, 0
2, 585240, Note_off_c, 1, 49, 0
2, 585280, Note_on_c, 1, 51, 127
2, 585280, Note_on_c, 1, 55, 127
2, 585400, Note_off_c, 1, 51, 0
2, 585440, Note_on_c, 1, 49, 127
2, 585600, Note_off_c, 1, 49, 0
2, 585600, Note_off_c, 1, 55, 0
2, 585640, Note_on_c, 1, 47, 127
2, 585640, Note_on_c, 1, 56, 127
2, 585800, Note_off_c, 1, 47, 0
2, 585840, Note_on_c, 1, 46, 127
2, 585960, Note_off_c, 1, 46, 0
2, 585960, Note_off_c, 1, 56, 0
2, 586000, Note_on_c, 1, 44, 127
2, 586000, Note_on_c, 1, 64, 127
2, 586160, Note_off_c, 1, 44, 0
2, 586200, Note_on_c, 1, 46, 127
2, 586360, Note_off_c, 1, 46, 0
2, 586360, Note_off_c, 1, 64, 0
2, 586400, Note_on_c, 1, 47, 127
2, 586400, Note_on_c, 1, 63, 127
2, 586520, Note_off_c, 1, 47, 0
2, 586560, Note_on_c, 1, 46, 127
2, 586720, Note_off_c, 1, 46, 0
2, 586720, Note_off_c, 1, 63, 0
2, 586760, Note_on_c, 1, 44, 127
2, 586760, Note_on_c, 1, 61, 127
2, 586920, Note_off_c, 1, 44, 0
2, 586960, Note_on_c, 1, 46, 127
2, 587080, Note_off_c, 1, 46, 0
2, 587080, Note_off_c, 1, 61, 0
2, 587120, Note_on_c, 1, 47, 127
2, 587120, Note_on_c, 1, 63, 127
2, 587200, Note_on_c, 1, 61, 127
2, 587200, Note_off_c, 1, 63, 0
2, 587240, Note_off_c, 1, 61, 0
2, 587280, Note_off_c, 1, 47, 0
2, 587280, Note_on_c, 1, 63, 127
2, 587320, Note_on_c, 1, 46, 127
2, 587480, Note_off_c, 1, 46, 0
2, 587520, Note_on_c, 1, 44, 127
2, 587520, Note_on_c, 1, 56, 127
2, 587520, Note_off_c, 1, 63, 0
2, 587640, Note_off_c, 1, 44, 0
2, 587720, Note_on_c, 1, 46, 127
2, 587840, Note_off_c, 1, 46, 0
2, 587880, Note_on_c, 1, 47, 127
2, 588040, Note_off_c, 1, 47, 0
2, 588080, Note_on_c, 1, 49, 127
2, 588120, Note_off_c, 1, 56, 0
2, 588240, Note_off_c, 1, 49, 0
2, 588280, Note_on_c, 1, 51, 127
2, 588280, Note_on_c, 1, 55, 127
2, 588400, Note_off_c, 1, 51, 0
2, 588440, Note_on_c, 1, 49, 127
2, 588600, Note_off_c, 1, 49, 0
2, 588600, Note_off_c, 1, 55, 0
2, 588640, Note_on_c, 1, 47, 127
2, 588640, Note_on_c, 1, 56, 127
2, 588800, Note_off_c, 1, 47, 0
2, 588840, Note_on_c, 1, 46, 127
2, 588960, Note_off_c, 1, 46, 0
2, 588960, Note_off_c, 1, 56, 0
2, 589000, Note_on_c, 1, 44, 127
2, 589000, Note_on_c, 1, 64, 127
2, 589160, Note_off_c, 1, 44, 0
2, 589200, Note_on_c, 1, 46, 127
2, 589360, Note_off_c, 1, 46, 0
2, 589360, Note_off_c, 1, 64, 0
2, 589400, Note_on_c, 1, 47, 127
2, 589400, Note_on_c, 1, 63, 127
2, 589520, Note_off_c, 1, 47, 0
2, 589560, Note_on_c, 1, 46, 127
2, 589720, Note_off_c, 1, 46, 0
2, 589720, Note_off_c, 1, 63, 0
2, 589760, Note_on_c, 1, 44, 127
2, 589760, Note_on_c, 1, 61, 127
2, 589920, Note_off_c, 1, 44, 0
2, 589960, Note_on_c, 1, 46, 127
2, 590080, Note_off_c, 1, 46, 0
2, 590080, Note_off_c, 1, 61, 0
2, 590120, Note_on_c, 1, 47, 127
2, 590120, Note_on_c, 1, 68, 127
2, 590280, Note_off_c, 1, 47, 0
2, 590320, Note_on_c, 1, 46, 127
2, 590480, Note_off_c, 1, 46, 0
2, 590480, Note_off_c, 1, 68, 0
2, 590520, Note_on_c, 1, 44, 127
2, 590520, Note_on_c, 1, 66, 127
2, 590640, Note_off_c, 1, 44, 0
2, 590640, Note_off_c, 1, 66, 0
2, 590720, Note_on_c, 1, 46, 127
2, 590720, Note_on_c, 1, 64, 127
2, 590840, Note_off_c, 1, 46, 0
2, 590840, Note_off_c, 1, 64, 0
2, 590880, Note_on_c, 1, 47, 127
2, 590880, Note_on_c, 1, 63, 127
2, 591040, Note_off_c, 1, 47, 0
2, 591080, Note_on_c, 1, 49, 127
2, 591240, Note_off_c, 1, 49, 0
2, 591240, Note_off_c, 1, 63, 0
2, 591280, Note_on_c, 1, 51, 127
2, 591280, Note_on_c, 1, 61, 127
2, 591400, Note_off_c, 1, 51, 0
2, 591440, Note_on_c, 1, 52, 127
2, 591600, Note_off_c, 1, 52, 0
2, 591600, Note_off_c, 1, 61, 0
2, 591640, Note_on_c, 1, 51, 127
2, 591640, Note_on_c, 1, 61, 127
2, 591760, Note_off_c, 1, 61, 0
2, 591800, Note_off_c, 1, 51, 0
2, 591800, Note_on_c, 1, 59, 127
2, 591840, Note_on_c, 1, 49, 127
2, 591840, Note_off_c, 1, 59, 0
2, 591880, Note_on_c, 1, 61, 127
2, 591920, Note_on_c, 1, 59, 127
2, 591920, Note_off_c, 1, 61, 0
2, 591960, Note_off_c, 1, 49, 0
2, 591960, Note_off_c, 1, 59, 0
2, 592000, Note_on_c, 1, 47, 127
2, 592000, Note_on_c, 1, 58, 127
2, 592160, Note_off_c, 1, 47, 0
2, 592160, Note_off_c, 1, 58, 0
2, 592200, Note_on_c, 1, 46, 127
2, 592200, Note_on_c, 1, 59, 127
2, 592360, Note_off_c, 1, 46, 0
2, 592360, Note_off_c, 1, 59, 0
2, 592400, Note_on_c, 1, 44, 127
2, 592400, Note_on_c, 1, 61, 127
2, 592520, Note_off_c, 1, 44, 0
2, 592520, Note_off_c, 1, 61, 0
2, 592560, Note_on_c, 1, 43, 127
2, 592560, Note_on_c, 1, 58, 127
2, 592720, Note_off_c, 1, 43, 0
2, 592720, Note_off_c, 1, 58, 0
2, 592760, Note_on_c, 1, 44, 127
2, 592760, Note_on_c, 1, 59, 127
2, 592920, Note_off_c, 1, 59, 0
2, 592960, Note_on_c, 1, 56, 127
2, 593080, Note_off_c, 1, 44, 0
2, 593080, Note_off_c, 1, 56, 0
2, 593120, Note_on_c, 1, 39, 127
2, 593120, Note_on_c, 1, 58, 127
2, 593280, Note_off_c, 1, 58, 0
2, 593320, Note_on_c, 1, 56, 127
2, 593480, Note_off_c, 1, 56, 0
2, 593520, Note_on_c, 1, 55, 127
2, 593640, Note_off_c, 1, 55, 0
2, 593720, Note_on_c, 1, 56, 127
2, 593840, Note_off_c, 1, 39, 0
2, 593840, Note_off_c, 1, 56, 0
2, 593880, Note_on_c, 1, 58, 127
2, 594040, Note_off_c, 1, 58, 0
2, 594080, Note_on_c, 1, 59, 127
2, 594240, Note_off_c, 1, 59, 0
2, 594280, Note_on_c, 1, 51, 127
2, 594280, Note_on_c, 1, 61, 127
2, 594400, Note_off_c, 1, 51, 0
2, 594400, Note_off_c, 1, 61, 0
2, 594440, Note_on_c, 1, 52, 127
2, 594440, Note_on_c, 1, 58, 127
2, 594600, Note_off_c, 1, 52, 0
2, 594600, Note_off_c, 1, 58, 0
2, 594640, Note_on_c, 1, 51, 127
2, 594640, Note_on_c, 1, 59, 127
2, 594800, Note_off_c, 1, 59, 0
2, 594840, Note_on_c, 1, 61, 127
2, 594960, Note_off_c, 1, 51, 0
2, 594960, Note_off_c, 1, 61, 0
2, 595000, Note_on_c, 1, 49, 127
2, 595000, Note_on_c, 1, 63, 127
2, 595160, Note_off_c, 1, 63, 0
2, 595200, Note_on_c, 1, 64, 127
2, 595360, Note_off_c, 1, 49, 0
2, 595360, Note_off_c, 1, 64, 0
2, 595400, Note_on_c, 1, 47, 127
2, 595400, Note_on_c, 1, 63, 127
2, 595520, Note_off_c, 1, 63, 0
2, 595560, Note_on_c, 1, 61, 127
2, 595720, Note_off_c, 1, 47, 0
2, 595720, Note_off_c, 1, 61, 0
2, 595760, Note_on_c, 1, 46, 127
2, 595760, Note_on_c, 1, 59, 127
2, 595920, Note_off_c, 1, 59, 0
2, 595960, Note_on_c, 1, 61, 127
2, 596080, Note_off_c, 1, 46, 0
2, 596080, Note_off_c, 1, 61, 0
2, 596120, Note_on_c, 1, 47, 127
2, 596120, Note_on_c, 1, 63, 127
2, 596280, Note_off_c, 1, 63, 0
2, 596320, Note_on_c, 1, 61, 127
2, 596400, Note_off_c, 1, 47, 0
2, 596480, Note_off_c, 1, 61, 0
2, 596520, Note_on_c, 1, 44, 127
2, 596520, Note_on_c, 1, 59, 127
2, 596640, Note_off_c, 1, 44, 0
2, 596640, Note_off_c, 1, 59, 0
2, 596720, Note_on_c, 1, 46, 127
2, 596720, Note_on_c, 1, 58, 127
2, 596840, Note_off_c, 1, 46, 0
2, 596840, Note_off_c, 1, 58, 0
2, 596880, Note_on_c, 1, 47, 127
2, 596880, Note_on_c, 1, 56, 127
2, 597040, Note_off_c, 1, 47, 0
2, 597040, Note_off_c, 1, 56, 0
2, 597080, Note_on_c, 1, 49, 127
2, 597080, Note_on_c, 1, 58, 127
2, 597240, Note_off_c, 1, 49, 0
2, 597240, Note_off_c, 1, 58, 0
2, 597280, Note_on_c, 1, 51, 127
2, 597280, Note_on_c, 1, 59, 127
2, 597400, Note_off_c, 1, 51, 0
2, 597400, Note_off_c, 1, 59, 0
2, 597440, Note_on_c, 1, 52, 127
2, 597440, Note_on_c, 1, 61, 127
2, 597600, Note_off_c, 1, 52, 0
2, 597600, Note_off_c, 1, 61, 0
2, 597640, Note_on_c, 1, 54, 127
2, 597640, Note_on_c, 1, 63, 127
2, 597800, Note_off_c, 1, 63, 0
2, 597840, Note_on_c, 1, 64, 127
2, 597960, Note_off_c, 1, 54, 0
2, 597960, Note_off_c, 1, 64, 0
2, 598000, Note_on_c, 1, 52, 127
2, 598000, Note_on_c, 1, 66, 127
2, 598160, Note_off_c, 1, 66, 0
2, 598200, Note_on_c, 1, 68, 127
2, 598360, Note_off_c, 1, 52, 0
2, 598360, Note_off_c, 1, 68, 0
2, 598400, Note_on_c, 1, 51, 127
2, 598400, Note_on_c, 1, 66, 127
2, 598520, Note_off_c, 1, 66, 0
2, 598560, Note_on_c, 1, 64, 127
2, 598720, Note_off_c, 1, 51, 0
2, 598720, Note_off_c, 1, 64, 0
2, 598760, Note_on_c, 1, 49, 127
2, 598760, Note_on_c, 1, 63, 127
2, 598920, Note_off_c, 1, 63, 0
2, 598960, Note_on_c, 1, 64, 127
2, 599080, Note_off_c, 1, 49, 0
2, 599080, Note_off_c, 1, 64, 0
2, 599120, Note_on_c, 1, 51, 127
2, 599120, Note_on_c, 1, 66, 127
2, 599280, Note_off_c, 1, 66, 0
2, 599320, Note_on_c, 1, 64, 127
2, 599440, Note_off_c, 1, 51, 0
2, 599480, Note_off_c, 1, 64, 0
2, 599520, Note_on_c, 1, 47, 127
2, 599520, Note_on_c, 1, 63, 127
2, 599640, Note_off_c, 1, 47, 0
2, 599640, Note_off_c, 1, 63, 0
2, 599720, Note_on_c, 1, 49, 127
2, 599720, Note_on_c, 1, 61, 127
2, 599840, Note_off_c, 1, 49, 0
2, 599840, Note_off_c, 1, 61, 0
2, 599880, Note_on_c, 1, 51, 127
2, 599880, Note_on_c, 1, 59, 127
2, 600040, Note_off_c, 1, 51, 0
2, 600040, Note_off_c, 1, 59, 0
2, 600080, Note_on_c, 1, 53, 127
2, 600080, Note_on_c, 1, 61, 127
2, 600240, Note_off_c, 1, 53, 0
2, 600240, Note_off_c, 1, 61, 0
2, 600280, Note_on_c, 1, 54, 127
2, 600280, Note_on_c, 1, 63, 127
2, 600400, Note_off_c, 1, 54, 0
2, 600400, Note_off_c, 1, 63, 0
2, 600440, Note_on_c, 1, 56, 127
2, 600440, Note_on_c, 1, 65, 127
2, 600600, Note_off_c, 1, 56, 0
2, 600600, Note_off_c, 1, 65, 0
2, 600640, Note_on_c, 1, 58, 127
2, 600640, Note_on_c, 1, 66, 127
2, 600800, Note_off_c, 1, 66, 0
2, 600840, Note_on_c, 1, 68, 127
2, 600960, Note_off_c, 1, 58, 0
2, 600960, Note_off_c, 1, 68, 0
2, 601000, Note_on_c, 1, 56, 127
2, 601000, Note_on_c, 1, 70, 127
2, 601160, Note_off_c, 1, 70, 0
2, 601200, Note_on_c, 1, 71, 127
2, 601360, Note_off_c, 1, 56, 0
2, 601360, Note_off_c, 1, 71, 0
2, 601400, Note_on_c, 1, 54, 127
2, 601400, Note_on_c, 1, 70, 127
2, 601520, Note_off_c, 1, 70, 0
2, 601560, Note_on_c, 1, 68, 127
2, 601720, Note_off_c, 1, 54, 0
2, 601720, Note_off_c, 1, 68, 0
2, 601760, Note_on_c, 1, 53, 127
2, 601760, Note_on_c, 1, 66, 127
2, 601920, Note_off_c, 1, 66, 0
2, 601960, Note_on_c, 1, 68, 127
2, 602080, Note_off_c, 1, 53, 0
2, 602080, Note_off_c, 1, 68, 0
2, 602120, Note_on_c, 1, 54, 127
2, 602120, Note_on_c, 1, 70, 127
2, 602280, Note_off_c, 1, 70, 0
2, 602320, Note_on_c, 1, 68, 127
2, 602440, Note_off_c, 1, 54, 0
2, 602480, Note_off_c, 1, 68, 0
2, 602520, Note_on_c, 1, 51, 127
2, 602520, Note_on_c, 1, 66, 127
2, 602640, Note_off_c, 1, 66, 0
2, 602720, Note_on_c, 1, 65, 127
2, 602840, Note_off_c, 1, 51, 0
2, 602840, Note_off_c, 1, 65, 0
2, 602880, Note_on_c, 1, 59, 127
2, 602880, Note_on_c, 1, 63, 127
2, 603040, Note_off_c, 1, 63, 0
2, 603080, Note_on_c, 1, 62, 127
2, 603240, Note_off_c, 1, 59, 0
2, 603240, Note_off_c, 1, 62, 0
2, 603280, Note_on_c, 1, 56, 127
2, 603280, Note_on_c, 1, 63, 127
2, 603400, Note_off_c, 1, 63, 0
2, 603440, Note_on_c, 1, 65, 127
2, 603600, Note_off_c, 1, 65, 0
2, 603640, Note_on_c, 1, 58, 127
2, 603800, Note_off_c, 1, 56, 0
2, 603840, Note_on_c, 1, 54, 127
2, 603960, Note_off_c, 1, 54, 0
2, 603960, Note_off_c, 1, 58, 0
2, 604000, Note_on_c, 1, 53, 127
2, 604000, Note_on_c, 1, 66, 127
2, 604160, Note_off_c, 1, 53, 0
2, 604200, Note_on_c, 1, 51, 127
2, 604360, Note_off_c, 1, 51, 0
2, 604400, Note_on_c, 1, 58, 127
2, 604520, Note_off_c, 1, 66, 0
2, 604560, Note_on_c, 1, 65, 127
2, 604720, Note_off_c, 1, 58, 0
2, 604720, Note_off_c, 1, 65, 0
2, 604760, Note_on_c, 1, 46, 127
2, 604760, Note_on_c, 1, 63, 127
2, 604920, Note_off_c, 1, 63, 0
2, 604960, Note_on_c, 1, 62, 127
2, 605080, Note_off_c, 1, 46, 0
2, 605080, Note_off_c, 1, 62, 0
2, 605120, Note_on_c, 1, 51, 127
2, 605120, Note_on_c, 1, 63, 127
2, 605480, Note_off_c, 1, 51, 0
2, 605520, Note_on_c, 1, 46, 127
2, 605840, Note_off_c, 1, 46, 0
2, 605880, Note_on_c, 1, 39, 127
2, 606240, Note_off_c, 1, 39, 0
2, 606240, Note_off_c, 1, 63, 0
2, 606280, Note_on_c, 1, 51, 127
2, 606280, Note_on_c, 1, 63, 127
2, 606400, Note_off_c, 1, 51, 0
2, 606400, Note_off_c, 1, 63, 0
2, 606440, Note_on_c, 1, 52, 127
2, 606440, Note_on_c, 1, 61, 127
2, 606600, Note_off_c, 1, 52, 0
2, 606600, Note_off_c, 1, 61, 0
2, 606640, Note_on_c, 1, 54, 127
2, 606640, Note_on_c, 1, 60, 127
2, 606800, Note_off_c, 1, 54, 0
2, 606840, Note_on_c, 1, 52, 127
2, 606960, Note_off_c, 1, 52, 0
2, 606960, Note_off_c, 1, 60, 0
2, 607000, Note_on_c, 1, 51, 127
2, 607000, Note_on_c, 1, 58, 127
2, 607160, Note_off_c, 1, 51, 0
2, 607200, Note_on_c, 1, 52, 127
2, 607360, Note_off_c, 1, 52, 0
2, 607360, Note_off_c, 1, 58, 0
2, 607400, Note_on_c, 1, 54, 127
2, 607400, Note_on_c, 1, 60, 127
2, 607520, Note_off_c, 1, 54, 0
2, 607560, Note_on_c, 1, 52, 127
2, 607720, Note_off_c, 1, 52, 0
2, 607720, Note_off_c, 1, 60, 0
2, 607760, Note_on_c, 1, 51, 127
2, 607760, Note_on_c, 1, 61, 127
2, 607920, Note_off_c, 1, 51, 0
2, 607960, Note_on_c, 1, 52, 127
2, 608080, Note_off_c, 1, 52, 0
2, 608080, Note_off_c, 1, 61, 0
2, 608120, Note_on_c, 1, 54, 127
2, 608120, Note_on_c, 1, 63, 127
2, 608280, Note_off_c, 1, 54, 0
2, 608280, Note_off_c, 1, 63, 0
2, 608320, Note_on_c, 1, 52, 127
2, 608320, Note_on_c, 1, 66, 127
2, 608480, Note_off_c, 1, 52, 0
2, 608480, Note_off_c, 1, 66, 0
2, 608520, Note_on_c, 1, 51, 127
2, 608520, Note_on_c, 1, 69, 127
2, 608640, Note_off_c, 1, 51, 0
2, 608720, Note_on_c, 1, 52, 127
2, 608840, Note_off_c, 1, 52, 0
2, 608880, Note_on_c, 1, 54, 127
2, 609240, Note_off_c, 1, 54, 0
2, 609240, Note_off_c, 1, 69, 0
2, 609280, Note_on_c, 1, 48, 127
2, 609280, Note_on_c, 1, 68, 127
2, 609400, Note_off_c, 1, 68, 0
2, 609440, Note_on_c, 1, 66, 127
2, 609600, Note_off_c, 1, 48, 0
2, 609600, Note_off_c, 1, 66, 0
2, 609640, Note_on_c, 1, 49, 127
2, 609640, Note_on_c, 1, 64, 127
2, 609800, Note_off_c, 1, 64, 0
2, 609840, Note_on_c, 1, 63, 127
2, 609960, Note_off_c, 1, 49, 0
2, 609960, Note_off_c, 1, 63, 0
2, 610000, Note_on_c, 1, 45, 127
2, 610000, Note_on_c, 1, 64, 127
2, 610160, Note_off_c, 1, 64, 0
2, 610200, Note_on_c, 1, 73, 127
2, 610360, Note_off_c, 1, 45, 0
2, 610360, Note_off_c, 1, 73, 0
2, 610400, Note_on_c, 1, 42, 127
2, 610400, Note_on_c, 1, 72, 127
2, 610520, Note_off_c, 1, 72, 0
2, 610560, Note_on_c, 1, 70, 127
2, 610720, Note_off_c, 1, 42, 0
2, 610720, Note_off_c, 1, 70, 0
2, 610760, Note_on_c, 1, 44, 127
2, 610760, Note_on_c, 1, 68, 127
2, 610920, Note_off_c, 1, 68, 0
2, 610960, Note_on_c, 1, 66, 127
2, 611080, Note_off_c, 1, 44, 0
2, 611080, Note_off_c, 1, 66, 0
2, 611120, Note_on_c, 1, 37, 127
2, 611120, Note_on_c, 1, 64, 127
2, 611280, Note_off_c, 1, 64, 0
2, 611320, Note_on_c, 1, 66, 127
2, 611480, Note_off_c, 1, 66, 0
2, 611520, Note_on_c, 1, 68, 127
2, 611640, Note_off_c, 1, 68, 0
2, 611720, Note_on_c, 1, 66, 127
2, 611840, Note_off_c, 1, 37, 0
2, 611840, Note_off_c, 1, 66, 0
2, 611880, Note_on_c, 1, 64, 127
2, 612040, Note_off_c, 1, 64, 0
2, 612080, Note_on_c, 1, 63, 127
2, 612240, Note_off_c, 1, 63, 0
2, 612280, Note_on_c, 1, 49, 127
2, 612280, Note_on_c, 1, 61, 127
2, 612400, Note_off_c, 1, 49, 0
2, 612400, Note_off_c, 1, 61, 0
2, 612440, Note_on_c, 1, 51, 127
2, 612440, Note_on_c, 1, 59, 127
2, 612600, Note_off_c, 1, 51, 0
2, 612600, Note_off_c, 1, 59, 0
2, 612640, Note_on_c, 1, 52, 127
2, 612640, Note_on_c, 1, 58, 127
2, 612800, Note_off_c, 1, 52, 0
2, 612840, Note_on_c, 1, 51, 127
2, 612960, Note_off_c, 1, 51, 0
2, 612960, Note_off_c, 1, 58, 0
2, 613000, Note_on_c, 1, 49, 127
2, 613000, Note_on_c, 1, 58, 127
2, 613160, Note_off_c, 1, 49, 0
2, 613160, Note_off_c, 1, 58, 0
2, 613200, Note_on_c, 1, 51, 127
2, 613200, Note_on_c, 1, 56, 127
2, 613360, Note_off_c, 1, 51, 0
2, 613360, Note_off_c, 1, 56, 0
2, 613400, Note_on_c, 1, 52, 127
2, 613400, Note_on_c, 1, 58, 127
2, 613520, Note_off_c, 1, 52, 0
2, 613560, Note_on_c, 1, 51, 127
2, 613720, Note_off_c, 1, 51, 0
2, 613720, Note_off_c, 1, 58, 0
2, 613760, Note_on_c, 1, 49, 127
2, 613760, Note_on_c, 1, 58, 127
2, 613920, Note_off_c, 1, 49, 0
2, 613920, Note_off_c, 1, 58, 0
2, 613960, Note_on_c, 1, 51, 127
2, 613960, Note_on_c, 1, 59, 127
2, 614080, Note_off_c, 1, 51, 0
2, 614080, Note_off_c, 1, 59, 0
2, 614120, Note_on_c, 1, 52, 127
2, 614120, Note_on_c, 1, 61, 127
2, 614280, Note_off_c, 1, 52, 0
2, 614280, Note_off_c, 1, 61, 0
2, 614320, Note_on_c, 1, 51, 127
2, 614320, Note_on_c, 1, 64, 127
2, 614480, Note_off_c, 1, 51, 0
2, 614480, Note_off_c, 1, 64, 0
2, 614520, Note_on_c, 1, 49, 127
2, 614520, Note_on_c, 1, 68, 127
2, 614640, Note_off_c, 1, 49, 0
2, 614720, Note_on_c, 1, 51, 127
2, 614840, Note_off_c, 1, 51, 0
2, 614880, Note_on_c, 1, 52, 127
2, 615040, Note_off_c, 1, 52, 0
2, 615080, Note_on_c, 1, 54, 127
2, 615240, Note_off_c, 1, 54, 0
2, 615240, Note_off_c, 1, 68, 0
2, 615280, Note_on_c, 1, 56, 127
2, 615280, Note_on_c, 1, 66, 127
2, 615400, Note_off_c, 1, 56, 0
2, 615400, Note_off_c, 1, 66, 0
2, 615440, Note_on_c, 1, 58, 127
2, 615440, Note_on_c, 1, 64, 127
2, 615600, Note_off_c, 1, 58, 0
2, 615600, Note_off_c, 1, 64, 0
2, 615640, Note_on_c, 1, 59, 127
2, 615640, Note_on_c, 1, 63, 127
2, 615800, Note_off_c, 1, 63, 0
2, 615840, Note_on_c, 1, 61, 127
2, 615960, Note_off_c, 1, 59, 0
2, 615960, Note_off_c, 1, 61, 0
2, 616000, Note_on_c, 1, 56, 127
2, 616000, Note_on_c, 1, 63, 127
2, 616160, Note_off_c, 1, 63, 0
2, 616200, Note_on_c, 1, 71, 127
2, 616360, Note_off_c, 1, 56, 0
2, 616360, Note_off_c, 1, 71, 0
2, 616400, Note_on_c, 1, 52, 127
2, 616400, Note_on_c, 1, 70, 127
2, 616520, Note_off_c, 1, 70, 0
2, 616560, Note_on_c, 1, 68, 127
2, 616720, Note_off_c, 1, 52, 0
2, 616720, Note_off_c, 1, 68, 0
2, 616760, Note_on_c, 1, 54, 127
2, 616760, Note_on_c, 1, 66, 127
2, 616920, Note_off_c, 1, 66, 0
2, 616960, Note_on_c, 1, 64, 127
2, 617080, Note_off_c, 1, 54, 0
2, 617080, Note_off_c, 1, 64, 0
2, 617120, Note_on_c, 1, 47, 127
2, 617120, Note_on_c, 1, 63, 127
2, 617280, Note_off_c, 1, 63, 0
2, 617320, Note_on_c, 1, 64, 127
2, 617480, Note_off_c, 1, 64, 0
2, 617520, Note_on_c, 1, 66, 127
2, 617640, Note_off_c, 1, 66, 0
2, 617720, Note_on_c, 1, 64, 127
2, 617760, Note_off_c, 1, 47, 0
2, 617840, Note_off_c, 1, 64, 0
2, 617880, Note_on_c, 1, 63, 127
2, 618040, Note_off_c, 1, 63, 0
2, 618080, Note_on_c, 1, 52, 127
2, 618080, Note_on_c, 1, 61, 127
2, 618240, Note_off_c, 1, 52, 0
2, 618240, Note_off_c, 1, 61, 0
2, 618280, Note_on_c, 1, 51, 127
2, 618280, Note_on_c, 1, 59, 127
2, 618400, Note_off_c, 1, 51, 0
2, 618400, Note_off_c, 1, 59, 0
2, 618440, Note_on_c, 1, 49, 127
2, 618440, Note_on_c, 1, 58, 127
2, 618600, Note_off_c, 1, 49, 0
2, 618600, Note_off_c, 1, 58, 0
2, 618640, Note_on_c, 1, 47, 127
2, 618640, Note_on_c, 1, 56, 127
2, 618800, Note_off_c, 1, 47, 0
2, 618800, Note_off_c, 1, 56, 0
2, 618840, Note_on_c, 1, 46, 127
2, 618840, Note_on_c, 1, 66, 127
2, 618960, Note_off_c, 1, 46, 0
2, 618960, Note_off_c, 1, 66, 0
2, 619000, Note_on_c, 1, 47, 127
2, 619000, Note_on_c, 1, 64, 127
2, 619160, Note_off_c, 1, 64, 0
2, 619200, Note_on_c, 1, 63, 127
2, 619360, Note_off_c, 1, 63, 0
2, 619400, Note_on_c, 1, 64, 127
2, 619480, Note_off_c, 1, 47, 0
2, 619560, Note_on_c, 1, 51, 127
2, 619720, Note_off_c, 1, 51, 0
2, 619720, Note_off_c, 1, 64, 0
2, 619760, Note_on_c, 1, 49, 127
2, 619760, Note_on_c, 1, 56, 127
2, 619920, Note_off_c, 1, 49, 0
2, 619960, Note_on_c, 1, 47, 127
2, 620080, Note_off_c, 1, 47, 0
2, 620080, Note_off_c, 1, 56, 0
2, 620120, Note_on_c, 1, 46, 127
2, 620120, Note_on_c, 1, 55, 127
2, 620280, Note_off_c, 1, 46, 0
2, 620280, Note_off_c, 1, 55, 0
2, 620320, Note_on_c, 1, 44, 127
2, 620320, Note_on_c, 1, 53, 127
2, 620480, Note_off_c, 1, 44, 0
2, 620480, Note_off_c, 1, 53, 0
2, 620520, Note_on_c, 1, 46, 127
2, 620520, Note_on_c, 1, 55, 127
2, 620640, Note_off_c, 1, 55, 0
2, 620720, Note_on_c, 1, 64, 127
2, 620840, Note_off_c, 1, 64, 0
2, 620880, Note_on_c, 1, 63, 127
2, 621000, Note_off_c, 1, 46, 0
2, 621080, Note_on_c, 1, 49, 127
2, 621240, Note_off_c, 1, 49, 0
2, 621240, Note_off_c, 1, 63, 0
2, 621280, Note_on_c, 1, 47, 127
2, 621280, Note_on_c, 1, 54, 127
2, 621400, Note_off_c, 1, 47, 0
2, 621440, Note_on_c, 1, 46, 127
2, 621600, Note_off_c, 1, 46, 0
2, 621600, Note_off_c, 1, 54, 0
2, 621640, Note_on_c, 1, 44, 127
2, 621640, Note_on_c, 1, 53, 127
2, 621800, Note_off_c, 1, 44, 0
2, 621800, Note_off_c, 1, 53, 0
2, 621840, Note_on_c, 1, 43, 127
2, 621840, Note_on_c, 1, 51, 127
2, 621960, Note_off_c, 1, 43, 0
2, 621960, Note_off_c, 1, 51, 0
2, 622000, Note_on_c, 1, 44, 127
2, 622000, Note_on_c, 1, 52, 127
2, 622160, Note_off_c, 1, 52, 0
2, 622200, Note_on_c, 1, 63, 127
2, 622360, Note_off_c, 1, 63, 0
2, 622400, Note_on_c, 1, 61, 127
2, 622520, Note_off_c, 1, 44, 0
2, 622520, Note_off_c, 1, 61, 0
2, 622560, Note_on_c, 1, 46, 127
2, 622560, Note_on_c, 1, 59, 127
2, 622720, Note_off_c, 1, 46, 0
2, 622720, Note_off_c, 1, 59, 0
2, 622760, Note_on_c, 1, 47, 127
2, 622760, Note_on_c, 1, 58, 127
2, 622920, Note_off_c, 1, 47, 0
2, 622920, Note_off_c, 1, 58, 0
2, 622960, Note_on_c, 1, 49, 127
2, 622960, Note_on_c, 1, 56, 127
2, 623080, Note_off_c, 1, 49, 0
2, 623080, Note_off_c, 1, 56, 0
2, 623120, Note_on_c, 1, 51, 127
2, 623120, Note_on_c, 1, 68, 127
2, 623280, Note_off_c, 1, 51, 0
2, 623280, Note_off_c, 1, 68, 0
2, 623320, Note_on_c, 1, 50, 127
2, 623320, Note_on_c, 1, 67, 127
2, 623480, Note_off_c, 1, 50, 0
2, 623480, Note_off_c, 1, 67, 0
2, 623520, Note_on_c, 1, 51, 127
2, 623520, Note_on_c, 1, 65, 127
2, 623640, Note_off_c, 1, 65, 0
2, 623720, Note_on_c, 1, 63, 127
2, 623840, Note_off_c, 1, 63, 0
2, 623880, Note_on_c, 1, 70, 127
2, 624040, Note_off_c, 1, 51, 0
2, 624080, Note_on_c, 1, 49, 127
2, 624240, Note_off_c, 1, 49, 0
2, 624240, Note_off_c, 1, 70, 0
2, 624280, Note_on_c, 1, 47, 127
2, 624280, Note_on_c, 1, 63, 127
2, 624400, Note_off_c, 1, 47, 0
2, 624400, Note_off_c, 1, 63, 0
2, 624440, Note_on_c, 1, 46, 127
2, 624440, Note_on_c, 1, 61, 127
2, 624600, Note_off_c, 1, 46, 0
2, 624600, Note_off_c, 1, 61, 0
2, 624640, Note_on_c, 1, 44, 127
2, 624640, Note_on_c, 1, 63, 127
2, 624800, Note_off_c, 1, 44, 0
2, 624840, Note_on_c, 1, 43, 127
2, 624960, Note_off_c, 1, 43, 0
2, 624960, Note_off_c, 1, 63, 0
2, 625000, Note_on_c, 1, 41, 127
2, 625000, Note_on_c, 1, 73, 127
2, 625160, Note_off_c, 1, 41, 0
2, 625200, Note_on_c, 1, 43, 127
2, 625360, Note_off_c, 1, 43, 0
2, 625360, Note_off_c, 1, 73, 0
2, 625400, Note_on_c, 1, 44, 127
2, 625400, Note_on_c, 1, 71, 127
2, 625520, Note_off_c, 1, 44, 0
2, 625560, Note_on_c, 1, 43, 127
2, 625720, Note_off_c, 1, 43, 0
2, 625720, Note_off_c, 1, 71, 0
2, 625760, Note_on_c, 1, 41, 127
2, 625760, Note_on_c, 1, 70, 127
2, 625920, Note_off_c, 1, 41, 0
2, 625960, Note_on_c, 1, 43, 127
2, 626080, Note_off_c, 1, 43, 0
2, 626080, Note_off_c, 1, 70, 0
2, 626120, Note_on_c, 1, 44, 127
2, 626120, Note_on_c, 1, 71, 127
2, 626280, Note_off_c, 1, 44, 0
2, 626320, Note_on_c, 1, 46, 127
2, 626480, Note_off_c, 1, 46, 0
2, 626480, Note_off_c, 1, 71, 0
2, 626520, Note_on_c, 1, 47, 127
2, 626520, Note_on_c, 1, 63, 127
2, 626640, Note_off_c, 1, 47, 0
2, 626720, Note_on_c, 1, 49, 127
2, 626840, Note_off_c, 1, 49, 0
2, 626880, Note_on_c, 1, 51, 127
2, 627040, Note_off_c, 1, 51, 0
2, 627080, Note_on_c, 1, 53, 127
2, 627120, Note_off_c, 1, 63, 0
2, 627240, Note_off_c, 1, 53, 0
2, 627280, Note_on_c, 1, 55, 127
2, 627280, Note_on_c, 1, 61, 127
2, 627400, Note_off_c, 1, 55, 0
2, 627400, Note_off_c, 1, 61, 0
2, 627440, Note_on_c, 1, 56, 127
2, 627440, Note_on_c, 1, 59, 127
2, 627600, Note_off_c, 1, 56, 0
2, 627600, Note_off_c, 1, 59, 0
2, 627640, Note_on_c, 1, 55, 127
2, 627640, Note_on_c, 1, 61, 127
2, 627800, Note_off_c, 1, 55, 0
2, 627840, Note_on_c, 1, 56, 127
2, 627960, Note_off_c, 1, 56, 0
2, 627960, Note_off_c, 1, 61, 0
2, 628000, Note_on_c, 1, 58, 127
2, 628000, Note_on_c, 1, 71, 127
2, 628160, Note_off_c, 1, 58, 0
2, 628200, Note_on_c, 1, 56, 127
2, 628360, Note_off_c, 1, 56, 0
2, 628360, Note_off_c, 1, 71, 0
2, 628400, Note_on_c, 1, 55, 127
2, 628400, Note_on_c, 1, 70, 127
2, 628520, Note_off_c, 1, 55, 0
2, 628520, Note_off_c, 1, 70, 0
2, 628560, Note_on_c, 1, 56, 127
2, 628560, Note_on_c, 1, 68, 127
2, 628720, Note_off_c, 1, 56, 0
2, 628720, Note_off_c, 1, 68, 0
2, 628760, Note_on_c, 1, 58, 127
2, 628760, Note_on_c, 1, 67, 127
2, 628920, Note_off_c, 1, 58, 0
2, 628920, Note_off_c, 1, 67, 0
2, 628960, Note_on_c, 1, 56, 127
2, 628960, Note_on_c, 1, 68, 127
2, 629080, Note_off_c, 1, 56, 0
2, 629080, Note_off_c, 1, 68, 0
2, 629120, Note_on_c, 1, 55, 127
2, 629120, Note_on_c, 1, 70, 127
2, 629280, Note_off_c, 1, 55, 0
2, 629320, Note_on_c, 1, 53, 127
2, 629440, Note_off_c, 1, 70, 0
2, 629480, Note_off_c, 1, 53, 0
2, 629520, Note_on_c, 1, 51, 127
2, 629520, Note_on_c, 1, 61, 127
2, 629640, Note_off_c, 1, 51, 0
2, 629720, Note_on_c, 1, 49, 127
2, 629840, Note_off_c, 1, 49, 0
2, 629880, Note_on_c, 1, 47, 127
2, 630040, Note_off_c, 1, 47, 0
2, 630080, Note_on_c, 1, 46, 127
2, 630120, Note_off_c, 1, 61, 0
2, 630240, Note_off_c, 1, 46, 0
2, 630280, Note_on_c, 1, 44, 127
2, 630280, Note_on_c, 1, 59, 127
2, 630400, Note_off_c, 1, 44, 0
2, 630400, Note_off_c, 1, 59, 0
2, 630440, Note_on_c, 1, 43, 127
2, 630440, Note_on_c, 1, 58, 127
2, 630600, Note_off_c, 1, 43, 0
2, 630600, Note_off_c, 1, 58, 0
2, 630640, Note_on_c, 1, 44, 127
2, 630640, Note_on_c, 1, 59, 127
2, 630800, Note_off_c, 1, 59, 0
2, 630840, Note_on_c, 1, 68, 127
2, 630960, Note_off_c, 1, 44, 0
2, 630960, Note_off_c, 1, 68, 0
2, 631000, Note_on_c, 1, 47, 127
2, 631000, Note_on_c, 1, 66, 127
2, 631160, Note_off_c, 1, 66, 0
2, 631200, Note_on_c, 1, 63, 127
2, 631360, Note_off_c, 1, 47, 0
2, 631360, Note_off_c, 1, 63, 0
2, 631400, Note_on_c, 1, 46, 127
2, 631400, Note_on_c, 1, 64, 127
2, 631560, Note_off_c, 1, 64, 0
2, 631600, Note_on_c, 1, 63, 127
2, 631720, Note_off_c, 1, 46, 0
2, 631720, Note_off_c, 1, 63, 0
2, 631760, Note_on_c, 1, 44, 127
2, 631760, Note_on_c, 1, 61, 127
2, 631920, Note_off_c, 1, 61, 0
2, 631960, Note_on_c, 1, 59, 127
2, 632120, Note_off_c, 1, 44, 0
2, 632120, Note_off_c, 1, 59, 0
2, 632160, Note_on_c, 1, 43, 127
2, 632160, Note_on_c, 1, 58, 127
2, 632320, Note_off_c, 1, 58, 0
2, 632360, Note_on_c, 1, 64, 127
2, 632480, Note_off_c, 1, 43, 0
2, 632480, Note_off_c, 1, 64, 0
2, 632520, Note_on_c, 1, 44, 127
2, 632520, Note_on_c, 1, 63, 127
2, 632680, Note_off_c, 1, 63, 0
2, 632720, Note_on_c, 1, 59, 127
2, 632880, Note_off_c, 1, 44, 0
2, 632880, Note_off_c, 1, 59, 0
2, 632920, Note_on_c, 1, 40, 127
2, 632920, Note_on_c, 1, 61, 127
2, 633080, Note_off_c, 1, 61, 0
2, 633120, Note_on_c, 1, 59, 127
2, 633240, Note_off_c, 1, 40, 0
2, 633240, Note_off_c, 1, 59, 0
2, 633320, Note_on_c, 1, 37, 127
2, 633320, Note_on_c, 1, 58, 127
2, 633440, Note_off_c, 1, 58, 0
2, 633480, Note_on_c, 1, 56, 127
2, 633640, Note_off_c, 1, 37, 0
2, 633640, Note_off_c, 1, 56, 0
2, 633680, Note_on_c, 1, 39, 127
2, 633680, Note_on_c, 1, 55, 127
2, 633840, Note_off_c, 1, 55, 0
2, 633880, Note_on_c, 1, 61, 127
2, 634040, Note_off_c, 1, 39, 0
2, 634040, Note_off_c, 1, 61, 0
2, 634080, Note_on_c, 1, 44, 127
2, 634080, Note_on_c, 1, 59, 127
2, 634240, Note_off_c, 1, 59, 0
2, 634280, Note_on_c, 1, 56, 127
2, 634440, Note_off_c, 1, 44, 0
2, 634440, Note_off_c, 1, 56, 0
2, 634480, Note_on_c, 1, 51, 127
2, 634480, Note_on_c, 1, 59, 127
2, 634600, Note_off_c, 1, 59, 0
2, 634680, Note_on_c, 1, 58, 127
2, 634800, Note_off_c, 1, 51, 0
2, 634800, Note_off_c, 1, 58, 0
2, 634840, Note_on_c, 1, 39, 127
2, 634840, Note_on_c, 1, 56, 127
2, 635000, Note_off_c, 1, 56, 0
2, 635040, Note_on_c, 1, 55, 127
2, 635240, Note_off_c, 1, 39, 0
2, 635240, Note_off_c, 1, 55, 0
2, 635280, Note_on_c, 1, 32, 127
2, 635280, Note_on_c, 1, 56, 127
2, 635800, Note_on_c, 1, 39, 127
2, 636240, Note_off_c, 1, 39, 0
2, 636320, Note_on_c, 1, 44, 127
2, 638360, Note_off_c, 1, 32, 0
2, 638360, Note_off_c, 1, 44, 0
2, 638360, Note_off_c, 1, 56, 0
2, 640000, Note_on_c, 1, 75, 127
2, 640240, Note_off_c, 1, 75, 0
2, 640360, Note_on_c, 1, 80, 127
2, 640680, Note_off_c, 1, 80, 0
2, 640720, Note_on_c, 1, 79, 127
2, 640880, Note_off_c, 1, 79, 0
2, 640920, Note_on_c, 1, 77, 127
2, 641040, Note_off_c, 1, 77, 0
2, 641120, Note_on_c, 1, 63, 127
2, 641120, Note_on_c, 1, 75, 127
2, 641240, Note_off_c, 1, 75, 0
2, 641280, Note_on_c, 1, 73, 127
2, 641400, Note_off_c, 1, 63, 0
2, 641440, Note_off_c, 1, 73, 0
2, 641480, Note_on_c, 1, 68, 127
2, 641480, Note_on_c, 1, 72, 127
2, 641600, Note_off_c, 1, 72, 0
2, 641680, Note_on_c, 1, 73, 127
2, 641800, Note_off_c, 1, 68, 0
2, 641800, Note_off_c, 1, 73, 0
2, 641840, Note_on_c, 1, 67, 127
2, 641840, Note_on_c, 1, 75, 127
2, 641880, Note_off_c, 1, 75, 0
2, 641960, Note_on_c, 1, 73, 127
2, 642000, Note_off_c, 1, 67, 0
2, 642000, Note_off_c, 1, 73, 0
2, 642040, Note_on_c, 1, 65, 127
2, 642040, Note_on_c, 1, 75, 127
2, 642080, Note_off_c, 1, 75, 0
2, 642120, Note_on_c, 1, 73, 127
2, 642160, Note_off_c, 1, 65, 0
2, 642160, Note_off_c, 1, 73, 0
2, 642240, Note_on_c, 1, 63, 127
2, 642240, Note_on_c, 1, 75, 127
2, 642280, Note_off_c, 1, 75, 0
2, 642320, Note_on_c, 1, 73, 127
2, 642360, Note_off_c, 1, 63, 0
2, 642360, Note_off_c, 1, 73, 0
2, 642400, Note_on_c, 1, 61, 127
2, 642400, Note_on_c, 1, 72, 127
2, 642440, Note_off_c, 1, 72, 0
2, 642520, Note_on_c, 1, 73, 127
2, 642560, Note_off_c, 1, 61, 0
2, 642560, Note_off_c, 1, 73, 0
2, 642600, Note_on_c, 1, 60, 127
2, 642600, Note_on_c, 1, 75, 127
2, 642720, Note_off_c, 1, 60, 0
2, 642800, Note_on_c, 1, 61, 127
2, 642920, Note_off_c, 1, 61, 0
2, 642920, Note_off_c, 1, 75, 0
2, 642960, Note_on_c, 1, 63, 127
2, 642960, Note_on_c, 1, 73, 127
2, 643000, Note_off_c, 1, 63, 0
2, 643080, Note_on_c, 1, 61, 127
2, 643120, Note_off_c, 1, 61, 0
2, 643120, Note_off_c, 1, 73, 0
2, 643160, Note_on_c, 1, 63, 127
2, 643160, Note_on_c, 1, 72, 127
2, 643200, Note_off_c, 1, 63, 0
2, 643240, Note_on_c, 1, 61, 127
2, 643280, Note_off_c, 1, 61, 0
2, 643280, Note_off_c, 1, 72, 0
2, 643360, Note_on_c, 1, 63, 127
2, 643360, Note_on_c, 1, 70, 127
2, 643400, Note_off_c, 1, 63, 0
2, 643440, Note_on_c, 1, 61, 127
2, 643480, Note_off_c, 1, 61, 0
2, 643480, Note_off_c, 1, 70, 0
2, 643520, Note_on_c, 1, 60, 127
2, 643520, Note_on_c, 1, 68, 127
2, 643560, Note_off_c, 1, 60, 0
2, 643640, Note_on_c, 1, 61, 127
2, 643680, Note_off_c, 1, 61, 0
2, 643680, Note_off_c, 1, 68, 0
2, 643720, Note_on_c, 1, 63, 127
2, 643720, Note_on_c, 1, 67, 127
2, 643840, Note_off_c, 1, 67, 0
2, 643920, Note_on_c, 1, 68, 127
2, 644040, Note_off_c, 1, 63, 0
2, 644040, Note_off_c, 1, 68, 0
2, 644080, Note_on_c, 1, 61, 127
2, 644080, Note_on_c, 1, 70, 127
2, 644120, Note_off_c, 1, 70, 0
2, 644200, Note_on_c, 1, 68, 127
2, 644240, Note_off_c, 1, 61, 0
2, 644240, Note_off_c, 1, 68, 0
2, 644280, Note_on_c, 1, 60, 127
2, 644280, Note_on_c, 1, 70, 127
2, 644320, Note_off_c, 1, 70, 0
2, 644360, Note_on_c, 1, 68, 127
2, 644400, Note_off_c, 1, 60, 0
2, 644400, Note_off_c, 1, 68, 0
2, 644480, Note_on_c, 1, 58, 127
2, 644480, Note_on_c, 1, 70, 127
2, 644520, Note_off_c, 1, 70, 0
2, 644560, Note_on_c, 1, 68, 127
2, 644600, Note_off_c, 1, 58, 0
2, 644600, Note_off_c, 1, 68, 0
2, 644640, Note_on_c, 1, 56, 127
2, 644640, Note_on_c, 1, 67, 127
2, 644680, Note_off_c, 1, 67, 0
2, 644760, Note_on_c, 1, 68, 127
2, 644800, Note_off_c, 1, 56, 0
2, 644800, Note_off_c, 1, 68, 0
2, 644840, Note_on_c, 1, 55, 127
2, 644840, Note_on_c, 1, 70, 127
2, 644960, Note_off_c, 1, 55, 0
2, 644960, Note_off_c, 1, 70, 0
2, 645040, Note_on_c, 1, 56, 127
2, 645040, Note_on_c, 1, 72, 127
2, 645160, Note_off_c, 1, 56, 0
2, 645160, Note_off_c, 1, 72, 0
2, 645200, Note_on_c, 1, 58, 127
2, 645200, Note_on_c, 1, 73, 127
2, 645240, Note_off_c, 1, 58, 0
2, 645240, Note_off_c, 1, 73, 0
2, 645280, Note_on_c, 1, 56, 127
2, 645280, Note_on_c, 1, 72, 127
2, 645360, Note_off_c, 1, 56, 0
2, 645360, Note_off_c, 1, 72, 0
2, 645400, Note_on_c, 1, 58, 127
2, 645400, Note_on_c, 1, 73, 127
2, 645440, Note_off_c, 1, 58, 0
2, 645440, Note_off_c, 1, 73, 0
2, 645480, Note_on_c, 1, 56, 127
2, 645480, Note_on_c, 1, 72, 127
2, 645520, Note_off_c, 1, 56, 0
2, 645520, Note_off_c, 1, 72, 0
2, 645560, Note_on_c, 1, 58, 127
2, 645560, Note_on_c, 1, 73, 127
2, 645640, Note_off_c, 1, 58, 0
2, 645640, Note_off_c, 1, 73, 0
2, 645680, Note_on_c, 1, 56, 127
2, 645680, Note_on_c, 1, 72, 127
2, 645720, Note_off_c, 1, 56, 0
2, 645720, Note_off_c, 1, 72, 0
2, 645760, Note_on_c, 1, 55, 127
2, 645760, Note_on_c, 1, 70, 127
2, 645800, Note_off_c, 1, 55, 0
2, 645800, Note_off_c, 1, 70, 0
2, 645840, Note_on_c, 1, 56, 127
2, 645840, Note_on_c, 1, 72, 127
2, 645880, Note_off_c, 1, 56, 0
2, 645880, Note_off_c, 1, 72, 0
2, 645960, Note_on_c, 1, 58, 127
2, 645960, Note_on_c, 1, 73, 127
2, 646080, Note_off_c, 1, 58, 0
2, 646120, Note_on_c, 1, 56, 127
2, 646280, Note_off_c, 1, 56, 0
2, 646320, Note_on_c, 1, 55, 127
2, 646440, Note_off_c, 1, 55, 0
2, 646440, Note_off_c, 1, 73, 0
2, 646520, Note_on_c, 1, 51, 127
2, 646520, Note_on_c, 1, 75, 127
2, 646640, Note_off_c, 1, 51, 0
2, 646640, Note_off_c, 1, 75, 0
2, 646680, Note_on_c, 1, 56, 127
2, 646680, Note_on_c, 1, 73, 127
2, 646840, Note_off_c, 1, 56, 0
2, 646840, Note_off_c, 1, 73, 0
2, 646880, Note_on_c, 1, 55, 127
2, 646880, Note_on_c, 1, 72, 127
2, 647000, Note_off_c, 1, 55, 0
2, 647080, Note_on_c, 1, 53, 127
2, 647200, Note_off_c, 1, 53, 0
2, 647200, Note_off_c, 1, 72, 0
2, 647240, Note_on_c, 1, 49, 127
2, 647240, Note_on_c, 1, 73, 127
2, 647400, Note_off_c, 1, 49, 0
2, 647400, Note_off_c, 1, 73, 0
2, 647440, Note_on_c, 1, 51, 127
2, 647440, Note_on_c, 1, 72, 127
2, 647600, Note_off_c, 1, 72, 0
2, 647640, Note_on_c, 1, 70, 127
2, 647680, Note_off_c, 1, 70, 0
2, 647680, Note_on_c, 1, 72, 127
2, 647720, Note_off_c, 1, 72, 0
2, 647760, Note_off_c, 1, 51, 0
2, 647760, Note_on_c, 1, 70, 127
2, 647800, Note_on_c, 1, 39, 127
2, 647960, Note_off_c, 1, 39, 0
2, 647960, Note_off_c, 1, 70, 0
2, 648000, Note_on_c, 1, 51, 127
2, 648000, Note_on_c, 1, 75, 127
2, 648120, Note_off_c, 1, 51, 0
2, 648120, Note_off_c, 1, 75, 0
2, 648160, Note_on_c, 1, 56, 127
2, 648160, Note_on_c, 1, 72, 127
2, 648320, Note_off_c, 1, 72, 0
2, 648360, Note_on_c, 1, 70, 127
2, 648480, Note_off_c, 1, 56, 0
2, 648480, Note_off_c, 1, 70, 0
2, 648560, Note_on_c, 1, 55, 127
2, 648560, Note_on_c, 1, 68, 127
2, 648680, Note_off_c, 1, 55, 0
2, 648680, Note_off_c, 1, 68, 0
2, 648720, Note_on_c, 1, 53, 127
2, 648720, Note_on_c, 1, 70, 127
2, 648880, Note_off_c, 1, 53, 0
2, 648880, Note_off_c, 1, 70, 0
2, 648920, Note_on_c, 1, 51, 127
2, 648920, Note_on_c, 1, 72, 127
2, 649040, Note_off_c, 1, 51, 0
2, 649040, Note_off_c, 1, 72, 0
2, 649120, Note_on_c, 1, 49, 127
2, 649120, Note_on_c, 1, 73, 127
2, 649240, Note_off_c, 1, 49, 0
2, 649240, Note_off_c, 1, 73, 0
2, 649280, Note_on_c, 1, 48, 127
2, 649280, Note_on_c, 1, 75, 127
2, 649440, Note_off_c, 1, 48, 0
2, 649440, Note_off_c, 1, 75, 0
2, 649480, Note_on_c, 1, 49, 127
2, 649480, Note_on_c, 1, 73, 127
2, 649600, Note_off_c, 1, 49, 0
2, 649600, Note_off_c, 1, 73, 0
2, 649680, Note_on_c, 1, 51, 127
2, 649680, Note_on_c, 1, 72, 127
2, 649720, Note_off_c, 1, 51, 0
2, 649760, Note_on_c, 1, 49, 127
2, 649800, Note_off_c, 1, 49, 0
2, 649800, Note_off_c, 1, 72, 0
2, 649840, Note_on_c, 1, 51, 127
2, 649840, Note_on_c, 1, 73, 127
2, 649880, Note_off_c, 1, 51, 0
2, 649960, Note_on_c, 1, 49, 127
2, 650000, Note_off_c, 1, 49, 0
2, 650000, Note_off_c, 1, 73, 0
2, 650040, Note_on_c, 1, 51, 127
2, 650040, Note_on_c, 1, 75, 127
2, 650080, Note_off_c, 1, 51, 0
2, 650120, Note_on_c, 1, 49, 127
2, 650160, Note_off_c, 1, 49, 0
2, 650160, Note_off_c, 1, 75, 0
2, 650240, Note_on_c, 1, 48, 127
2, 650240, Note_on_c, 1, 77, 127
2, 650280, Note_off_c, 1, 48, 0
2, 650320, Note_on_c, 1, 49, 127
2, 650360, Note_off_c, 1, 49, 0
2, 650360, Note_off_c, 1, 77, 0
2, 650400, Note_on_c, 1, 51, 127
2, 650400, Note_on_c, 1, 78, 127
2, 650560, Note_off_c, 1, 51, 0
2, 650560, Note_off_c, 1, 78, 0
2, 650600, Note_on_c, 1, 44, 127
2, 650600, Note_on_c, 1, 77, 127
2, 650720, Note_off_c, 1, 44, 0
2, 650720, Note_off_c, 1, 77, 0
2, 650800, Note_on_c, 1, 56, 127
2, 650800, Note_on_c, 1, 75, 127
2, 650920, Note_off_c, 1, 56, 0
2, 650920, Note_off_c, 1, 75, 0
2, 650960, Note_on_c, 1, 54, 127
2, 650960, Note_on_c, 1, 77, 127
2, 651120, Note_off_c, 1, 54, 0
2, 651120, Note_off_c, 1, 77, 0
2, 651160, Note_on_c, 1, 53, 127
2, 651160, Note_on_c, 1, 78, 127
2, 651280, Note_off_c, 1, 53, 0
2, 651280, Note_off_c, 1, 78, 0
2, 651320, Note_on_c, 1, 51, 127
2, 651320, Note_on_c, 1, 80, 127
2, 651480, Note_off_c, 1, 51, 0
2, 651480, Note_off_c, 1, 80, 0
2, 651520, Note_on_c, 1, 49, 127
2, 651520, Note_on_c, 1, 77, 127
2, 651640, Note_off_c, 1, 49, 0
2, 651640, Note_off_c, 1, 77, 0
2, 651720, Note_on_c, 1, 51, 127
2, 651720, Note_on_c, 1, 75, 127
2, 651840, Note_off_c, 1, 51, 0
2, 651840, Note_off_c, 1, 75, 0
2, 651880, Note_on_c, 1, 53, 127
2, 651880, Note_on_c, 1, 73, 127
2, 651920, Note_off_c, 1, 53, 0
2, 652000, Note_on_c, 1, 51, 127
2, 652040, Note_off_c, 1, 51, 0
2, 652040, Note_off_c, 1, 73, 0
2, 652080, Note_on_c, 1, 53, 127
2, 652080, Note_on_c, 1, 75, 127
2, 652120, Note_off_c, 1, 53, 0
2, 652160, Note_on_c, 1, 51, 127
2, 652200, Note_off_c, 1, 51, 0
2, 652200, Note_off_c, 1, 75, 0
2, 652280, Note_on_c, 1, 53, 127
2, 652280, Note_on_c, 1, 77, 127
2, 652320, Note_off_c, 1, 53, 0
2, 652360, Note_on_c, 1, 51, 127
2, 652400, Note_off_c, 1, 51, 0
2, 652400, Note_off_c, 1, 77, 0
2, 652440, Note_on_c, 1, 49, 127
2, 652440, Note_on_c, 1, 79, 127
2, 652480, Note_off_c, 1, 49, 0
2, 652560, Note_on_c, 1, 51, 127
2, 652600, Note_off_c, 1, 51, 0
2, 652600, Note_off_c, 1, 79, 0
2, 652640, Note_on_c, 1, 53, 127
2, 652640, Note_on_c, 1, 80, 127
2, 652760, Note_off_c, 1, 53, 0
2, 652760, Note_off_c, 1, 80, 0
2, 652840, Note_on_c, 1, 46, 127
2, 652840, Note_on_c, 1, 79, 127
2, 652960, Note_off_c, 1, 46, 0
2, 652960, Note_off_c, 1, 79, 0
2, 653000, Note_on_c, 1, 58, 127
2, 653000, Note_on_c, 1, 77, 127
2, 653160, Note_off_c, 1, 58, 0
2, 653160, Note_off_c, 1, 77, 0
2, 653200, Note_on_c, 1, 56, 127
2, 653200, Note_on_c, 1, 79, 127
2, 653320, Note_off_c, 1, 56, 0
2, 653320, Note_off_c, 1, 79, 0
2, 653400, Note_on_c, 1, 55, 127
2, 653400, Note_on_c, 1, 80, 127
2, 653520, Note_off_c, 1, 55, 0
2, 653520, Note_off_c, 1, 80, 0
2, 653560, Note_on_c, 1, 53, 127
2, 653560, Note_on_c, 1, 82, 127
2, 653680, Note_off_c, 1, 53, 0
2, 653680, Note_off_c, 1, 82, 0
2, 653760, Note_on_c, 1, 51, 127
2, 653760, Note_on_c, 1, 79, 127
2, 653880, Note_off_c, 1, 51, 0
2, 653880, Note_off_c, 1, 79, 0
2, 653960, Note_on_c, 1, 53, 127
2, 653960, Note_on_c, 1, 77, 127
2, 654080, Note_off_c, 1, 53, 0
2, 654080, Note_off_c, 1, 77, 0
2, 654120, Note_on_c, 1, 55, 127
2, 654120, Note_on_c, 1, 75, 127
2, 654160, Note_off_c, 1, 55, 0
2, 654240, Note_on_c, 1, 53, 127
2, 654280, Note_off_c, 1, 53, 0
2, 654280, Note_off_c, 1, 75, 0
2, 654320, Note_on_c, 1, 55, 127
2, 654320, Note_on_c, 1, 77, 127
2, 654360, Note_off_c, 1, 55, 0
2, 654400, Note_on_c, 1, 53, 127
2, 654440, Note_off_c, 1, 53, 0
2, 654440, Note_off_c, 1, 77, 0
2, 654520, Note_on_c, 1, 55, 127
2, 654520, Note_on_c, 1, 79, 127
2, 654560, Note_off_c, 1, 55, 0
2, 654600, Note_on_c, 1, 53, 127
2, 654640, Note_off_c, 1, 53, 0
2, 654640, Note_off_c, 1, 79, 0
2, 654680, Note_on_c, 1, 51, 127
2, 654680, Note_on_c, 1, 80, 127
2, 654720, Note_off_c, 1, 51, 0
2, 654800, Note_on_c, 1, 53, 127
2, 654840, Note_off_c, 1, 53, 0
2, 654840, Note_off_c, 1, 80, 0
2, 654880, Note_on_c, 1, 55, 127
2, 654880, Note_on_c, 1, 82, 127
2, 655000, Note_off_c, 1, 55, 0
2, 655000, Note_off_c, 1, 82, 0
2, 655040, Note_on_c, 1, 53, 127
2, 655040, Note_on_c, 1, 80, 127
2, 655200, Note_off_c, 1, 53, 0
2, 655200, Note_off_c, 1, 80, 0
2, 655240, Note_on_c, 1, 51, 127
2, 655240, Note_on_c, 1, 79, 127
2, 655360, Note_off_c, 1, 51, 0
2, 655360, Note_off_c, 1, 79, 0
2, 655440, Note_on_c, 1, 53, 127
2, 655440, Note_on_c, 1, 77, 127
2, 655560, Note_off_c, 1, 53, 0
2, 655560, Note_off_c, 1, 77, 0
2, 655600, Note_on_c, 1, 55, 127
2, 655600, Note_on_c, 1, 75, 127
2, 655760, Note_off_c, 1, 55, 0
2, 655760, Note_off_c, 1, 75, 0
2, 655800, Note_on_c, 1, 51, 127
2, 655800, Note_on_c, 1, 73, 127
2, 655920, Note_off_c, 1, 51, 0
2, 655920, Note_off_c, 1, 73, 0
2, 656000, Note_on_c, 1, 56, 127
2, 656000, Note_on_c, 1, 72, 127
2, 656120, Note_off_c, 1, 56, 0
2, 656120, Note_off_c, 1, 72, 0
2, 656160, Note_on_c, 1, 58, 127
2, 656160, Note_on_c, 1, 74, 127
2, 656320, Note_off_c, 1, 58, 0
2, 656320, Note_off_c, 1, 74, 0
2, 656360, Note_on_c, 1, 60, 127
2, 656360, Note_on_c, 1, 75, 127
2, 656480, Note_off_c, 1, 60, 0
2, 656480, Note_off_c, 1, 75, 0
2, 656560, Note_on_c, 1, 58, 127
2, 656560, Note_on_c, 1, 77, 127
2, 656680, Note_off_c, 1, 58, 0
2, 656680, Note_off_c, 1, 77, 0
2, 656720, Note_on_c, 1, 56, 127
2, 656720, Note_on_c, 1, 79, 127
2, 656880, Note_off_c, 1, 56, 0
2, 656880, Note_off_c, 1, 79, 0
2, 656920, Note_on_c, 1, 55, 127
2, 656920, Note_on_c, 1, 75, 127
2, 657040, Note_off_c, 1, 55, 0
2, 657040, Note_off_c, 1, 75, 0
2, 657120, Note_on_c, 1, 53, 127
2, 657120, Note_on_c, 1, 80, 127
2, 657240, Note_off_c, 1, 53, 0
2, 657240, Note_off_c, 1, 80, 0
2, 657280, Note_on_c, 1, 55, 127
2, 657280, Note_on_c, 1, 79, 127
2, 657440, Note_off_c, 1, 55, 0
2, 657440, Note_off_c, 1, 79, 0
2, 657480, Note_on_c, 1, 56, 127
2, 657480, Note_on_c, 1, 77, 127
2, 657600, Note_off_c, 1, 56, 0
2, 657600, Note_off_c, 1, 77, 0
2, 657640, Note_on_c, 1, 55, 127
2, 657640, Note_on_c, 1, 75, 127
2, 657800, Note_off_c, 1, 55, 0
2, 657800, Note_off_c, 1, 75, 0
2, 657840, Note_on_c, 1, 56, 127
2, 657840, Note_on_c, 1, 74, 127
2, 657960, Note_off_c, 1, 56, 0
2, 657960, Note_off_c, 1, 74, 0
2, 658040, Note_on_c, 1, 53, 127
2, 658040, Note_on_c, 1, 72, 127
2, 658160, Note_off_c, 1, 53, 0
2, 658160, Note_off_c, 1, 72, 0
2, 658200, Note_on_c, 1, 55, 127
2, 658200, Note_on_c, 1, 70, 127
2, 658360, Note_off_c, 1, 55, 0
2, 658360, Note_off_c, 1, 70, 0
2, 658400, Note_on_c, 1, 56, 127
2, 658400, Note_on_c, 1, 72, 127
2, 658520, Note_off_c, 1, 56, 0
2, 658520, Note_off_c, 1, 72, 0
2, 658600, Note_on_c, 1, 58, 127
2, 658600, Note_on_c, 1, 74, 127
2, 658720, Note_off_c, 1, 58, 0
2, 658720, Note_off_c, 1, 74, 0
2, 658760, Note_on_c, 1, 56, 127
2, 658760, Note_on_c, 1, 75, 127
2, 658920, Note_off_c, 1, 56, 0
2, 658920, Note_off_c, 1, 75, 0
2, 658960, Note_on_c, 1, 55, 127
2, 658960, Note_on_c, 1, 77, 127
2, 659080, Note_off_c, 1, 55, 0
2, 659080, Note_off_c, 1, 77, 0
2, 659160, Note_on_c, 1, 53, 127
2, 659160, Note_on_c, 1, 74, 127
2, 659280, Note_off_c, 1, 53, 0
2, 659280, Note_off_c, 1, 74, 0
2, 659320, Note_on_c, 1, 51, 127
2, 659320, Note_on_c, 1, 79, 127
2, 659480, Note_off_c, 1, 51, 0
2, 659480, Note_off_c, 1, 79, 0
2, 659520, Note_on_c, 1, 53, 127
2, 659520, Note_on_c, 1, 77, 127
2, 659640, Note_off_c, 1, 53, 0
2, 659640, Note_off_c, 1, 77, 0
2, 659680, Note_on_c, 1, 55, 127
2, 659680, Note_on_c, 1, 75, 127
2, 659840, Note_off_c, 1, 55, 0
2, 659840, Note_off_c, 1, 75, 0
2, 659880, Note_on_c, 1, 53, 127
2, 659880, Note_on_c, 1, 74, 127
2, 660000, Note_off_c, 1, 53, 0
2, 660000, Note_off_c, 1, 74, 0
2, 660080, Note_on_c, 1, 55, 127
2, 660080, Note_on_c, 1, 72, 127
2, 660200, Note_off_c, 1, 55, 0
2, 660200, Note_off_c, 1, 72, 0
2, 660240, Note_on_c, 1, 51, 127
2, 660240, Note_on_c, 1, 70, 127
2, 660400, Note_off_c, 1, 51, 0
2, 660400, Note_off_c, 1, 70, 0
2, 660440, Note_on_c, 1, 53, 127
2, 660440, Note_on_c, 1, 68, 127
2, 660560, Note_off_c, 1, 53, 0
2, 660560, Note_off_c, 1, 68, 0
2, 660640, Note_on_c, 1, 55, 127
2, 660640, Note_on_c, 1, 70, 127
2, 660760, Note_off_c, 1, 55, 0
2, 660760, Note_off_c, 1, 70, 0
2, 660800, Note_on_c, 1, 56, 127
2, 660800, Note_on_c, 1, 72, 127
2, 660960, Note_off_c, 1, 56, 0
2, 660960, Note_off_c, 1, 72, 0
2, 661000, Note_on_c, 1, 55, 127
2, 661000, Note_on_c, 1, 74, 127
2, 661120, Note_off_c, 1, 55, 0
2, 661120, Note_off_c, 1, 74, 0
2, 661200, Note_on_c, 1, 53, 127
2, 661200, Note_on_c, 1, 75, 127
2, 661320, Note_off_c, 1, 53, 0
2, 661320, Note_off_c, 1, 75, 0
2, 661360, Note_on_c, 1, 51, 127
2, 661360, Note_on_c, 1, 72, 127
2, 661520, Note_off_c, 1, 51, 0
2, 661520, Note_off_c, 1, 72, 0
2, 661560, Note_on_c, 1, 50, 127
2, 661560, Note_on_c, 1, 77, 127
2, 661680, Note_off_c, 1, 50, 0
2, 661680, Note_off_c, 1, 77, 0
2, 661760, Note_on_c, 1, 51, 127
2, 661760, Note_on_c, 1, 75, 127
2, 661880, Note_off_c, 1, 51, 0
2, 661880, Note_off_c, 1, 75, 0
2, 661920, Note_on_c, 1, 53, 127
2, 661920, Note_on_c, 1, 74, 127
2, 662080, Note_off_c, 1, 53, 0
2, 662080, Note_off_c, 1, 74, 0
2, 662120, Note_on_c, 1, 51, 127
2, 662120, Note_on_c, 1, 72, 127
2, 662240, Note_off_c, 1, 51, 0
2, 662240, Note_off_c, 1, 72, 0
2, 662280, Note_on_c, 1, 53, 127
2, 662280, Note_on_c, 1, 70, 127
2, 662440, Note_off_c, 1, 53, 0
2, 662440, Note_off_c, 1, 70, 0
2, 662480, Note_on_c, 1, 50, 127
2, 662480, Note_on_c, 1, 68, 127
2, 662600, Note_off_c, 1, 50, 0
2, 662600, Note_off_c, 1, 68, 0
2, 662680, Note_on_c, 1, 51, 127
2, 662680, Note_on_c, 1, 67, 127
2, 662800, Note_off_c, 1, 51, 0
2, 662800, Note_off_c, 1, 67, 0
2, 662840, Note_on_c, 1, 53, 127
2, 662840, Note_on_c, 1, 75, 127
2, 663000, Note_off_c, 1, 53, 0
2, 663000, Note_off_c, 1, 75, 0
2, 663040, Note_on_c, 1, 55, 127
2, 663040, Note_on_c, 1, 74, 127
2, 663080, Note_off_c, 1, 55, 0
2, 663120, Note_on_c, 1, 53, 127
2, 663160, Note_off_c, 1, 53, 0
2, 663160, Note_off_c, 1, 74, 0
2, 663240, Note_on_c, 1, 51, 127
2, 663240, Note_on_c, 1, 72, 127
2, 663280, Note_off_c, 1, 51, 0
2, 663320, Note_on_c, 1, 53, 127
2, 663360, Note_off_c, 1, 53, 0
2, 663360, Note_off_c, 1, 72, 0
2, 663400, Note_on_c, 1, 55, 127
2, 663400, Note_on_c, 1, 70, 127
2, 663560, Note_off_c, 1, 55, 0
2, 663560, Note_off_c, 1, 70, 0
2, 663600, Note_on_c, 1, 56, 127
2, 663600, Note_on_c, 1, 68, 127
2, 663720, Note_off_c, 1, 56, 0
2, 663720, Note_off_c, 1, 68, 0
2, 663800, Note_on_c, 1, 58, 127
2, 663800, Note_on_c, 1, 67, 127
2, 663840, Note_off_c, 1, 58, 0
2, 663880, Note_on_c, 1, 56, 127
2, 663920, Note_off_c, 1, 56, 0
2, 663920, Note_off_c, 1, 67, 0
2, 663960, Note_on_c, 1, 55, 127
2, 663960, Note_on_c, 1, 68, 127
2, 664000, Note_off_c, 1, 55, 0
2, 664000, Note_off_c, 1, 68, 0
2, 664080, Note_on_c, 1, 56, 127
2, 664080, Note_on_c, 1, 70, 127
2, 664120, Note_off_c, 1, 56, 0
2, 664120, Note_off_c, 1, 70, 0
2, 664160, Note_on_c, 1, 58, 127
2, 664160, Note_on_c, 1, 67, 127
2, 664200, Note_on_c, 1, 65, 127
2, 664200, Note_off_c, 1, 67, 0
2, 664240, Note_off_c, 1, 65, 0
2, 664280, Note_on_c, 1, 67, 127
2, 664320, Note_off_c, 1, 67, 0
2, 664360, Note_on_c, 1, 65, 127
2, 664400, Note_off_c, 1, 65, 0
2, 664400, Note_on_c, 1, 67, 127
2, 664440, Note_off_c, 1, 67, 0
2, 664480, Note_off_c, 1, 58, 0
2, 664480, Note_on_c, 1, 65, 127
2, 664520, Note_on_c, 1, 46, 127
2, 664680, Note_off_c, 1, 65, 0
2, 664720, Note_on_c, 1, 63, 127
2, 664840, Note_off_c, 1, 46, 0
2, 664840, Note_off_c, 1, 63, 0
2, 664920, Note_on_c, 1, 39, 127
2, 664920, Note_on_c, 1, 63, 127
2, 665040, Note_off_c, 1, 63, 0
2, 665080, Note_on_c, 1, 65, 127
2, 665240, Note_off_c, 1, 39, 0
2, 665240, Note_off_c, 1, 65, 0
2, 665280, Note_on_c, 1, 51, 127
2, 665280, Note_on_c, 1, 67, 127
2, 665400, Note_off_c, 1, 51, 0
2, 665400, Note_off_c, 1, 67, 0
2, 665480, Note_on_c, 1, 49, 127
2, 665480, Note_on_c, 1, 68, 127
2, 665600, Note_off_c, 1, 49, 0
2, 665600, Note_off_c, 1, 68, 0
2, 665640, Note_on_c, 1, 48, 127
2, 665640, Note_on_c, 1, 70, 127
2, 665760, Note_off_c, 1, 48, 0
2, 665760, Note_off_c, 1, 70, 0
2, 665840, Note_on_c, 1, 46, 127
2, 665840, Note_on_c, 1, 67, 127
2, 665960, Note_off_c, 1, 46, 0
2, 665960, Note_off_c, 1, 67, 0
2, 666000, Note_on_c, 1, 44, 127
2, 666000, Note_on_c, 1, 72, 127
2, 666160, Note_off_c, 1, 72, 0
2, 666200, Note_on_c, 1, 70, 127
2, 666320, Note_off_c, 1, 44, 0
2, 666320, Note_off_c, 1, 70, 0
2, 666400, Note_on_c, 1, 46, 127
2, 666400, Note_on_c, 1, 68, 127
2, 666440, Note_off_c, 1, 46, 0
2, 666480, Note_on_c, 1, 44, 127
2, 666520, Note_off_c, 1, 44, 0
2, 666520, Note_off_c, 1, 68, 0
2, 666560, Note_on_c, 1, 46, 127
2, 666560, Note_on_c, 1, 67, 127
2, 666600, Note_off_c, 1, 46, 0
2, 666680, Note_on_c, 1, 44, 127
2, 666720, Note_off_c, 1, 44, 0
2, 666720, Note_off_c, 1, 67, 0
2, 666760, Note_on_c, 1, 46, 127
2, 666760, Note_on_c, 1, 65, 127
2, 666800, Note_off_c, 1, 46, 0
2, 666840, Note_on_c, 1, 44, 127
2, 666880, Note_off_c, 1, 44, 0
2, 666880, Note_off_c, 1, 65, 0
2, 666960, Note_on_c, 1, 43, 127
2, 666960, Note_on_c, 1, 63, 127
2, 667000, Note_off_c, 1, 43, 0
2, 667040, Note_on_c, 1, 44, 127
2, 667080, Note_off_c, 1, 44, 0
2, 667080, Note_off_c, 1, 63, 0
2, 667120, Note_on_c, 1, 46, 127
2, 667120, Note_on_c, 1, 62, 127
2, 667280, Note_off_c, 1, 46, 0
2, 667280, Note_off_c, 1, 62, 0
2, 667320, Note_on_c, 1, 48, 127
2, 667320, Note_on_c, 1, 63, 127
2, 667440, Note_off_c, 1, 48, 0
2, 667440, Note_off_c, 1, 63, 0
2, 667520, Note_on_c, 1, 50, 127
2, 667520, Note_on_c, 1, 65, 127
2, 667640, Note_off_c, 1, 50, 0
2, 667640, Note_off_c, 1, 65, 0
2, 667680, Note_on_c, 1, 48, 127
2, 667680, Note_on_c, 1, 67, 127
2, 667840, Note_off_c, 1, 48, 0
2, 667840, Note_off_c, 1, 67, 0
2, 667880, Note_on_c, 1, 46, 127
2, 667880, Note_on_c, 1, 68, 127
2, 668000, Note_off_c, 1, 46, 0
2, 668000, Note_off_c, 1, 68, 0
2, 668080, Note_on_c, 1, 44, 127
2, 668080, Note_on_c, 1, 65, 127
2, 668200, Note_off_c, 1, 44, 0
2, 668200, Note_off_c, 1, 65, 0
2, 668240, Note_on_c, 1, 43, 127
2, 668240, Note_on_c, 1, 70, 127
2, 668400, Note_off_c, 1, 70, 0
2, 668440, Note_on_c, 1, 68, 127
2, 668560, Note_off_c, 1, 43, 0
2, 668560, Note_off_c, 1, 68, 0
2, 668600, Note_on_c, 1, 44, 127
2, 668600, Note_on_c, 1, 67, 127
2, 668680, Note_off_c, 1, 44, 0
2, 668720, Note_on_c, 1, 43, 127
2, 668760, Note_off_c, 1, 43, 0
2, 668760, Note_off_c, 1, 67, 0
2, 668800, Note_on_c, 1, 44, 127
2, 668800, Note_on_c, 1, 65, 127
2, 668840, Note_off_c, 1, 44, 0
2, 668880, Note_on_c, 1, 43, 127
2, 668920, Note_off_c, 1, 43, 0
2, 668960, Note_off_c, 1, 65, 0
2, 669000, Note_on_c, 1, 44, 127
2, 669000, Note_on_c, 1, 63, 127
2, 669040, Note_off_c, 1, 44, 0
2, 669080, Note_on_c, 1, 43, 127
2, 669120, Note_off_c, 1, 43, 0
2, 669120, Note_off_c, 1, 63, 0
2, 669160, Note_on_c, 1, 41, 127
2, 669160, Note_on_c, 1, 62, 127
2, 669200, Note_off_c, 1, 41, 0
2, 669280, Note_on_c, 1, 43, 127
2, 669320, Note_off_c, 1, 43, 0
2, 669320, Note_off_c, 1, 62, 0
2, 669360, Note_on_c, 1, 44, 127
2, 669360, Note_on_c, 1, 60, 127
2, 669480, Note_off_c, 1, 44, 0
2, 669480, Note_off_c, 1, 60, 0
2, 669560, Note_on_c, 1, 46, 127
2, 669560, Note_on_c, 1, 62, 127
2, 669680, Note_off_c, 1, 46, 0
2, 669680, Note_off_c, 1, 62, 0
2, 669720, Note_on_c, 1, 48, 127
2, 669720, Note_on_c, 1, 63, 127
2, 669880, Note_off_c, 1, 48, 0
2, 669880, Note_off_c, 1, 63, 0
2, 669920, Note_on_c, 1, 46, 127
2, 669920, Note_on_c, 1, 65, 127
2, 670040, Note_off_c, 1, 46, 0
2, 670040, Note_off_c, 1, 65, 0
2, 670120, Note_on_c, 1, 44, 127
2, 670120, Note_on_c, 1, 67, 127
2, 670240, Note_off_c, 1, 44, 0
2, 670240, Note_off_c, 1, 67, 0
2, 670280, Note_on_c, 1, 43, 127
2, 670280, Note_on_c, 1, 63, 127
2, 670440, Note_off_c, 1, 43, 0
2, 670440, Note_off_c, 1, 63, 0
2, 670480, Note_on_c, 1, 41, 127
2, 670480, Note_on_c, 1, 68, 127
2, 670600, Note_off_c, 1, 41, 0
2, 670600, Note_off_c, 1, 68, 0
2, 670680, Note_on_c, 1, 43, 127
2, 670680, Note_on_c, 1, 67, 127
2, 670800, Note_off_c, 1, 43, 0
2, 670800, Note_off_c, 1, 67, 0
2, 670840, Note_on_c, 1, 44, 127
2, 670840, Note_on_c, 1, 65, 127
2, 671000, Note_off_c, 1, 44, 0
2, 671000, Note_off_c, 1, 65, 0
2, 671040, Note_on_c, 1, 43, 127
2, 671040, Note_on_c, 1, 63, 127
2, 671160, Note_off_c, 1, 43, 0
2, 671160, Note_off_c, 1, 63, 0
2, 671240, Note_on_c, 1, 41, 127
2, 671240, Note_on_c, 1, 62, 127
2, 671360, Note_off_c, 1, 41, 0
2, 671360, Note_off_c, 1, 62, 0
2, 671400, Note_on_c, 1, 39, 127
2, 671400, Note_on_c, 1, 60, 127
2, 671560, Note_off_c, 1, 39, 0
2, 671560, Note_off_c, 1, 60, 0
2, 671600, Note_on_c, 1, 38, 127
2, 671600, Note_on_c, 1, 58, 127
2, 671720, Note_off_c, 1, 58, 0
2, 671760, Note_on_c, 1, 68, 127
2, 671920, Note_off_c, 1, 38, 0
2, 671920, Note_off_c, 1, 68, 0
2, 671960, Note_on_c, 1, 46, 127
2, 671960, Note_on_c, 1, 67, 127
2, 672080, Note_off_c, 1, 67, 0
2, 672160, Note_on_c, 1, 65, 127
2, 672280, Note_off_c, 1, 46, 0
2, 672280, Note_off_c, 1, 65, 0
2, 672320, Note_on_c, 1, 48, 127
2, 672320, Note_on_c, 1, 63, 127
2, 672480, Note_off_c, 1, 63, 0
2, 672520, Note_on_c, 1, 62, 127
2, 672640, Note_off_c, 1, 48, 0
2, 672640, Note_off_c, 1, 62, 0
2, 672720, Note_on_c, 1, 44, 127
2, 672720, Note_on_c, 1, 63, 127
2, 672840, Note_off_c, 1, 63, 0
2, 672880, Note_on_c, 1, 65, 127
2, 673040, Note_off_c, 1, 44, 0
2, 673040, Note_off_c, 1, 65, 0
2, 673080, Note_on_c, 1, 46, 127
2, 673080, Note_on_c, 1, 67, 127
2, 673120, Note_off_c, 1, 67, 0
2, 673160, Note_on_c, 1, 65, 127
2, 673200, Note_off_c, 1, 65, 0
2, 673240, Note_on_c, 1, 67, 127
2, 673280, Note_off_c, 1, 67, 0
2, 673320, Note_on_c, 1, 65, 127
2, 673360, Note_off_c, 1, 65, 0
2, 673360, Note_on_c, 1, 67, 127
2, 673400, Note_off_c, 1, 46, 0
2, 673400, Note_off_c, 1, 67, 0
2, 673440, Note_on_c, 1, 34, 127
2, 673440, Note_on_c, 1, 65, 127
2, 673600, Note_off_c, 1, 65, 0
2, 673640, Note_on_c, 1, 63, 127
2, 673760, Note_off_c, 1, 34, 0
2, 673760, Note_off_c, 1, 63, 0
2, 673840, Note_on_c, 1, 39, 127
2, 673840, Note_on_c, 1, 63, 127
2, 674200, Note_on_c, 1, 43, 127
2, 674520, Note_off_c, 1, 43, 0
2, 674560, Note_on_c, 1, 46, 127
2, 674880, Note_off_c, 1, 46, 0
2, 674960, Note_on_c, 1, 51, 127
2, 675640, Note_off_c, 1, 39, 0
2, 675640, Note_off_c, 1, 51, 0
2, 675640, Note_off_c, 1, 63, 0
2, 675680, Note_on_c, 1, 70, 127
2, 676000, Note_off_c, 1, 70, 0
2, 676040, Note_on_c, 1, 63, 127
2, 676360, Note_off_c, 1, 63, 0
2, 676440, Note_on_c, 1, 65, 127
2, 676560, Note_off_c, 1, 65, 0
2, 676600, Note_on_c, 1, 67, 127
2, 676760, Note_off_c, 1, 67, 0
2, 676800, Note_on_c, 1, 68, 127
2, 676920, Note_off_c, 1, 68, 0
2, 677000, Note_on_c, 1, 70, 127
2, 677120, Note_off_c, 1, 70, 0
2, 677160, Note_on_c, 1, 68, 127
2, 677320, Note_off_c, 1, 68, 0
2, 677360, Note_on_c, 1, 70, 127
2, 677480, Note_off_c, 1, 70, 0
2, 677560, Note_on_c, 1, 72, 127
2, 677600, Note_off_c, 1, 72, 0
2, 677640, Note_on_c, 1, 70, 127
2, 677680, Note_off_c, 1, 70, 0
2, 677720, Note_on_c, 1, 72, 127
2, 677760, Note_off_c, 1, 72, 0
2, 677840, Note_on_c, 1, 70, 127
2, 677880, Note_off_c, 1, 70, 0
2, 677920, Note_on_c, 1, 51, 127
2, 677920, Note_on_c, 1, 72, 127
2, 677960, Note_off_c, 1, 72, 0
2, 678000, Note_on_c, 1, 70, 127
2, 678040, Note_off_c, 1, 70, 0
2, 678120, Note_on_c, 1, 68, 127
2, 678160, Note_off_c, 1, 68, 0
2, 678200, Note_on_c, 1, 70, 127
2, 678240, Note_off_c, 1, 51, 0
2, 678240, Note_off_c, 1, 70, 0
2, 678280, Note_on_c, 1, 44, 127
2, 678280, Note_on_c, 1, 72, 127
2, 678440, Note_off_c, 1, 72, 0
2, 678480, Note_on_c, 1, 73, 127
2, 678600, Note_off_c, 1, 44, 0
2, 678600, Note_off_c, 1, 73, 0
2, 678640, Note_on_c, 1, 46, 127
2, 678640, Note_on_c, 1, 72, 127
2, 678800, Note_off_c, 1, 46, 0
2, 678800, Note_off_c, 1, 72, 0
2, 678840, Note_on_c, 1, 48, 127
2, 678840, Note_on_c, 1, 70, 127
2, 678960, Note_off_c, 1, 48, 0
2, 678960, Note_off_c, 1, 70, 0
2, 679040, Note_on_c, 1, 49, 127
2, 679040, Note_on_c, 1, 68, 127
2, 679160, Note_off_c, 1, 49, 0
2, 679160, Note_off_c, 1, 68, 0
2, 679200, Note_on_c, 1, 51, 127
2, 679200, Note_on_c, 1, 66, 127
2, 679360, Note_off_c, 1, 51, 0
2, 679360, Note_off_c, 1, 66, 0
2, 679400, Note_on_c, 1, 49, 127
2, 679400, Note_on_c, 1, 65, 127
2, 679520, Note_off_c, 1, 49, 0
2, 679520, Note_off_c, 1, 65, 0
2, 679600, Note_on_c, 1, 51, 127
2, 679600, Note_on_c, 1, 77, 127
2, 679720, Note_off_c, 1, 51, 0
2, 679720, Note_off_c, 1, 77, 0
2, 679760, Note_on_c, 1, 53, 127
2, 679760, Note_on_c, 1, 75, 127
2, 679800, Note_off_c, 1, 53, 0
2, 679880, Note_on_c, 1, 51, 127
2, 679920, Note_off_c, 1, 51, 0
2, 679920, Note_off_c, 1, 75, 0
2, 679960, Note_on_c, 1, 53, 127
2, 679960, Note_on_c, 1, 73, 127
2, 680000, Note_off_c, 1, 53, 0
2, 680040, Note_on_c, 1, 51, 127
2, 680080, Note_off_c, 1, 51, 0
2, 680080, Note_off_c, 1, 73, 0
2, 680160, Note_on_c, 1, 53, 127
2, 680160, Note_on_c, 1, 72, 127
2, 680200, Note_off_c, 1, 53, 0
2, 680240, Note_on_c, 1, 51, 127
2, 680280, Note_off_c, 1, 51, 0
2, 680280, Note_off_c, 1, 72, 0
2, 680320, Note_on_c, 1, 49, 127
2, 680320, Note_on_c, 1, 70, 127
2, 680360, Note_off_c, 1, 49, 0
2, 680440, Note_on_c, 1, 51, 127
2, 680480, Note_off_c, 1, 51, 0
2, 680480, Note_off_c, 1, 70, 0
2, 680520, Note_on_c, 1, 53, 127
2, 680520, Note_on_c, 1, 69, 127
2, 680640, Note_off_c, 1, 69, 0
2, 680720, Note_on_c, 1, 70, 127
2, 680840, Note_off_c, 1, 53, 0
2, 680840, Note_off_c, 1, 70, 0
2, 680880, Note_on_c, 1, 51, 127
2, 680880, Note_on_c, 1, 72, 127
2, 680920, Note_off_c, 1, 72, 0
2, 681000, Note_on_c, 1, 70, 127
2, 681040, Note_off_c, 1, 51, 0
2, 681040, Note_off_c, 1, 70, 0
2, 681080, Note_on_c, 1, 49, 127
2, 681080, Note_on_c, 1, 72, 127
2, 681120, Note_off_c, 1, 72, 0
2, 681160, Note_on_c, 1, 70, 127
2, 681200, Note_off_c, 1, 49, 0
2, 681200, Note_off_c, 1, 70, 0
2, 681280, Note_on_c, 1, 48, 127
2, 681280, Note_on_c, 1, 72, 127
2, 681320, Note_off_c, 1, 72, 0
2, 681360, Note_on_c, 1, 70, 127
2, 681400, Note_off_c, 1, 48, 0
2, 681400, Note_off_c, 1, 70, 0
2, 681440, Note_on_c, 1, 46, 127
2, 681440, Note_on_c, 1, 69, 127
2, 681480, Note_off_c, 1, 69, 0
2, 681560, Note_on_c, 1, 70, 127
2, 681600, Note_off_c, 1, 46, 0
2, 681600, Note_off_c, 1, 70, 0
2, 681640, Note_on_c, 1, 45, 127
2, 681640, Note_on_c, 1, 72, 127
2, 681760, Note_off_c, 1, 45, 0
2, 681760, Note_off_c, 1, 72, 0
2, 681840, Note_on_c, 1, 46, 127
2, 681840, Note_on_c, 1, 73, 127
2, 681960, Note_off_c, 1, 46, 0
2, 681960, Note_off_c, 1, 73, 0
2, 682000, Note_on_c, 1, 48, 127
2, 682000, Note_on_c, 1, 75, 127
2, 682040, Note_off_c, 1, 48, 0
2, 682040, Note_off_c, 1, 75, 0
2, 682120, Note_on_c, 1, 46, 127
2, 682120, Note_on_c, 1, 73, 127
2, 682160, Note_off_c, 1, 46, 0
2, 682160, Note_off_c, 1, 73, 0
2, 682200, Note_on_c, 1, 48, 127
2, 682200, Note_on_c, 1, 75, 127
2, 682240, Note_off_c, 1, 48, 0
2, 682240, Note_off_c, 1, 75, 0
2, 682280, Note_on_c, 1, 46, 127
2, 682280, Note_on_c, 1, 73, 127
2, 682320, Note_off_c, 1, 46, 0
2, 682320, Note_off_c, 1, 73, 0
2, 682400, Note_on_c, 1, 48, 127
2, 682400, Note_on_c, 1, 75, 127
2, 682440, Note_off_c, 1, 48, 0
2, 682440, Note_off_c, 1, 75, 0
2, 682480, Note_on_c, 1, 46, 127
2, 682480, Note_on_c, 1, 73, 127
2, 682520, Note_off_c, 1, 46, 0
2, 682520, Note_off_c, 1, 73, 0
2, 682560, Note_on_c, 1, 45, 127
2, 682560, Note_on_c, 1, 72, 127
2, 682600, Note_off_c, 1, 45, 0
2, 682600, Note_off_c, 1, 72, 0
2, 682680, Note_on_c, 1, 46, 127
2, 682680, Note_on_c, 1, 73, 127
2, 682720, Note_off_c, 1, 46, 0
2, 682720, Note_off_c, 1, 73, 0
2, 682760, Note_on_c, 1, 48, 127
2, 682760, Note_on_c, 1, 75, 127
2, 682880, Note_off_c, 1, 48, 0
2, 682960, Note_on_c, 1, 41, 127
2, 683080, Note_off_c, 1, 41, 0
2, 683120, Note_on_c, 1, 43, 127
2, 683280, Note_off_c, 1, 43, 0
2, 683280, Note_off_c, 1, 75, 0
2, 683320, Note_on_c, 1, 45, 127
2, 683320, Note_on_c, 1, 77, 127
2, 683440, Note_off_c, 1, 45, 0
2, 683440, Note_off_c, 1, 77, 0
2, 683480, Note_on_c, 1, 46, 127
2, 683480, Note_on_c, 1, 75, 127
2, 683640, Note_off_c, 1, 46, 0
2, 683640, Note_off_c, 1, 75, 0
2, 683680, Note_on_c, 1, 48, 127
2, 683680, Note_on_c, 1, 73, 127
2, 683800, Note_off_c, 1, 48, 0
2, 683880, Note_on_c, 1, 49, 127
2, 684000, Note_off_c, 1, 49, 0
2, 684000, Note_off_c, 1, 73, 0
2, 684040, Note_on_c, 1, 46, 127
2, 684040, Note_on_c, 1, 75, 127
2, 684200, Note_off_c, 1, 46, 0
2, 684200, Note_off_c, 1, 75, 0
2, 684240, Note_on_c, 1, 53, 127
2, 684240, Note_on_c, 1, 73, 127
2, 684280, Note_off_c, 1, 73, 0
2, 684320, Note_on_c, 1, 72, 127
2, 684360, Note_off_c, 1, 72, 0
2, 684360, Note_on_c, 1, 73, 127
2, 684400, Note_off_c, 1, 73, 0
2, 684440, Note_on_c, 1, 72, 127
2, 684480, Note_off_c, 1, 72, 0
2, 684480, Note_on_c, 1, 73, 127
2, 684520, Note_off_c, 1, 73, 0
2, 684560, Note_off_c, 1, 53, 0
2, 684560, Note_on_c, 1, 72, 127
2, 684600, Note_on_c, 1, 41, 127
2, 684760, Note_off_c, 1, 72, 0
2, 684800, Note_on_c, 1, 77, 127
2, 684920, Note_off_c, 1, 41, 0
2, 684920, Note_off_c, 1, 77, 0
2, 685000, Note_on_c, 1, 46, 127
2, 685000, Note_on_c, 1, 74, 127
2, 685120, Note_off_c, 1, 74, 0
2, 685160, Note_on_c, 1, 70, 127
2, 685320, Note_off_c, 1, 70, 0
2, 685360, Note_on_c, 1, 72, 127
2, 685480, Note_off_c, 1, 72, 0
2, 685560, Note_on_c, 1, 74, 127
2, 685680, Note_off_c, 1, 46, 0
2, 685680, Note_off_c, 1, 74, 0
2, 685720, Note_on_c, 1, 75, 127
2, 685880, Note_off_c, 1, 75, 0
2, 685920, Note_on_c, 1, 77, 127
2, 686040, Note_off_c, 1, 77, 0
2, 686080, Note_on_c, 1, 75, 127
2, 686240, Note_off_c, 1, 75, 0
2, 686280, Note_on_c, 1, 77, 127
2, 686400, Note_off_c, 1, 77, 0
2, 686480, Note_on_c, 1, 78, 127
2, 686520, Note_off_c, 1, 78, 0
2, 686560, Note_on_c, 1, 77, 127
2, 686600, Note_off_c, 1, 77, 0
2, 686640, Note_on_c, 1, 78, 127
2, 686680, Note_off_c, 1, 78, 0
2, 686760, Note_on_c, 1, 77, 127
2, 686800, Note_off_c, 1, 77, 0
2, 686840, Note_on_c, 1, 58, 127
2, 686840, Note_on_c, 1, 78, 127
2, 686880, Note_off_c, 1, 78, 0
2, 686920, Note_on_c, 1, 77, 127
2, 686960, Note_off_c, 1, 77, 0
2, 687040, Note_on_c, 1, 75, 127
2, 687080, Note_off_c, 1, 75, 0
2, 687120, Note_on_c, 1, 77, 127
2, 687160, Note_off_c, 1, 58, 0
2, 687160, Note_off_c, 1, 77, 0
2, 687200, Note_on_c, 1, 51, 127
2, 687200, Note_on_c, 1, 78, 127
2, 687360, Note_off_c, 1, 78, 0
2, 687400, Note_on_c, 1, 80, 127
2, 687520, Note_off_c, 1, 51, 0
2, 687520, Note_off_c, 1, 80, 0
2, 687600, Note_on_c, 1, 53, 127
2, 687600, Note_on_c, 1, 78, 127
2, 687720, Note_off_c, 1, 53, 0
2, 687720, Note_off_c, 1, 78, 0
2, 687760, Note_on_c, 1, 54, 127
2, 687760, Note_on_c, 1, 77, 127
2, 687920, Note_off_c, 1, 54, 0
2, 687920, Note_off_c, 1, 77, 0
2, 687960, Note_on_c, 1, 56, 127
2, 687960, Note_on_c, 1, 75, 127
2, 688080, Note_off_c, 1, 56, 0
2, 688080, Note_off_c, 1, 75, 0
2, 688160, Note_on_c, 1, 58, 127
2, 688160, Note_on_c, 1, 73, 127
2, 688280, Note_off_c, 1, 58, 0
2, 688280, Note_off_c, 1, 73, 0
2, 688320, Note_on_c, 1, 56, 127
2, 688320, Note_on_c, 1, 71, 127
2, 688480, Note_off_c, 1, 56, 0
2, 688480, Note_off_c, 1, 71, 0
2, 688520, Note_on_c, 1, 58, 127
2, 688520, Note_on_c, 1, 82, 127
2, 688640, Note_off_c, 1, 58, 0
2, 688640, Note_off_c, 1, 82, 0
2, 688720, Note_on_c, 1, 59, 127
2, 688720, Note_on_c, 1, 80, 127
2, 688760, Note_off_c, 1, 59, 0
2, 688800, Note_on_c, 1, 58, 127
2, 688840, Note_off_c, 1, 58, 0
2, 688840, Note_off_c, 1, 80, 0
2, 688880, Note_on_c, 1, 59, 127
2, 688880, Note_on_c, 1, 78, 127
2, 688920, Note_off_c, 1, 59, 0
2, 689000, Note_on_c, 1, 58, 127
2, 689040, Note_off_c, 1, 58, 0
2, 689040, Note_off_c, 1, 78, 0
2, 689080, Note_on_c, 1, 59, 127
2, 689080, Note_on_c, 1, 77, 127
2, 689120, Note_off_c, 1, 59, 0
2, 689160, Note_on_c, 1, 58, 127
2, 689200, Note_off_c, 1, 58, 0
2, 689200, Note_off_c, 1, 77, 0
2, 689280, Note_on_c, 1, 56, 127
2, 689280, Note_on_c, 1, 75, 127
2, 689320, Note_off_c, 1, 56, 0
2, 689360, Note_on_c, 1, 58, 127
2, 689400, Note_off_c, 1, 58, 0
2, 689400, Note_off_c, 1, 75, 0
2, 689440, Note_on_c, 1, 59, 127
2, 689440, Note_on_c, 1, 74, 127
2, 689600, Note_off_c, 1, 59, 0
2, 689600, Note_off_c, 1, 74, 0
2, 689640, Note_on_c, 1, 58, 127
2, 689640, Note_on_c, 1, 75, 127
2, 689760, Note_off_c, 1, 58, 0
2, 689760, Note_off_c, 1, 75, 0
2, 689800, Note_on_c, 1, 56, 127
2, 689800, Note_on_c, 1, 77, 127
2, 689880, Note_off_c, 1, 77, 0
2, 689920, Note_on_c, 1, 75, 127
2, 689960, Note_off_c, 1, 56, 0
2, 689960, Note_off_c, 1, 75, 0
2, 690000, Note_on_c, 1, 54, 127
2, 690000, Note_on_c, 1, 77, 127
2, 690040, Note_off_c, 1, 77, 0
2, 690080, Note_on_c, 1, 75, 127
2, 690160, Note_off_c, 1, 54, 0
2, 690160, Note_off_c, 1, 75, 0
2, 690200, Note_on_c, 1, 53, 127
2, 690200, Note_on_c, 1, 77, 127
2, 690240, Note_off_c, 1, 77, 0
2, 690280, Note_on_c, 1, 75, 127
2, 690320, Note_off_c, 1, 53, 0
2, 690320, Note_off_c, 1, 75, 0
2, 690360, Note_on_c, 1, 51, 127
2, 690360, Note_on_c, 1, 74, 127
2, 690440, Note_off_c, 1, 74, 0
2, 690480, Note_on_c, 1, 75, 127
2, 690520, Note_off_c, 1, 51, 0
2, 690520, Note_off_c, 1, 75, 0
2, 690560, Note_on_c, 1, 50, 127
2, 690560, Note_on_c, 1, 77, 127
2, 690720, Note_off_c, 1, 50, 0
2, 690720, Note_off_c, 1, 77, 0
2, 690760, Note_on_c, 1, 51, 127
2, 690760, Note_on_c, 1, 78, 127
2, 690880, Note_off_c, 1, 51, 0
2, 690880, Note_off_c, 1, 78, 0
2, 690920, Note_on_c, 1, 53, 127
2, 690920, Note_on_c, 1, 80, 127
2, 690960, Note_off_c, 1, 53, 0
2, 690960, Note_off_c, 1, 80, 0
2, 691040, Note_on_c, 1, 51, 127
2, 691040, Note_on_c, 1, 78, 127
2, 691080, Note_off_c, 1, 51, 0
2, 691080, Note_off_c, 1, 78, 0
2, 691120, Note_on_c, 1, 53, 127
2, 691120, Note_on_c, 1, 80, 127
2, 691160, Note_off_c, 1, 53, 0
2, 691160, Note_off_c, 1, 80, 0
2, 691200, Note_on_c, 1, 51, 127
2, 691200, Note_on_c, 1, 78, 127
2, 691240, Note_off_c, 1, 51, 0
2, 691240, Note_off_c, 1, 78, 0
2, 691320, Note_on_c, 1, 53, 127
2, 691320, Note_on_c, 1, 80, 127
2, 691360, Note_off_c, 1, 53, 0
2, 691360, Note_off_c, 1, 80, 0
2, 691400, Note_on_c, 1, 51, 127
2, 691400, Note_on_c, 1, 78, 127
2, 691440, Note_off_c, 1, 51, 0
2, 691440, Note_off_c, 1, 78, 0
2, 691480, Note_on_c, 1, 50, 127
2, 691480, Note_on_c, 1, 77, 127
2, 691520, Note_off_c, 1, 50, 0
2, 691520, Note_off_c, 1, 77, 0
2, 691600, Note_on_c, 1, 51, 127
2, 691600, Note_on_c, 1, 78, 127
2, 691640, Note_off_c, 1, 51, 0
2, 691640, Note_off_c, 1, 78, 0
2, 691680, Note_on_c, 1, 53, 127
2, 691680, Note_on_c, 1, 80, 127
2, 691800, Note_off_c, 1, 53, 0
2, 691880, Note_on_c, 1, 46, 127
2, 692000, Note_off_c, 1, 46, 0
2, 692040, Note_on_c, 1, 48, 127
2, 692200, Note_off_c, 1, 48, 0
2, 692200, Note_off_c, 1, 80, 0
2, 692240, Note_on_c, 1, 50, 127
2, 692240, Note_on_c, 1, 82, 127
2, 692360, Note_off_c, 1, 50, 0
2, 692360, Note_off_c, 1, 82, 0
2, 692440, Note_on_c, 1, 51, 127
2, 692440, Note_on_c, 1, 80, 127
2, 692560, Note_off_c, 1, 51, 0
2, 692560, Note_off_c, 1, 80, 0
2, 692600, Note_on_c, 1, 53, 127
2, 692600, Note_on_c, 1, 78, 127
2, 692760, Note_off_c, 1, 53, 0
2, 692800, Note_on_c, 1, 54, 127
2, 692920, Note_off_c, 1, 54, 0
2, 692920, Note_off_c, 1, 78, 0
2, 693000, Note_on_c, 1, 51, 127
2, 693000, Note_on_c, 1, 80, 127
2, 693120, Note_off_c, 1, 51, 0
2, 693120, Note_off_c, 1, 80, 0
2, 693160, Note_on_c, 1, 58, 127
2, 693160, Note_on_c, 1, 78, 127
2, 693200, Note_off_c, 1, 78, 0
2, 693240, Note_on_c, 1, 77, 127
2, 693280, Note_off_c, 1, 77, 0
2, 693280, Note_on_c, 1, 78, 127
2, 693320, Note_off_c, 1, 78, 0
2, 693360, Note_on_c, 1, 77, 127
2, 693400, Note_off_c, 1, 77, 0
2, 693400, Note_on_c, 1, 78, 127
2, 693440, Note_off_c, 1, 78, 0
2, 693480, Note_off_c, 1, 58, 0
2, 693480, Note_on_c, 1, 77, 127
2, 693560, Note_on_c, 1, 46, 127
2, 693680, Note_off_c, 1, 77, 0
2, 693720, Note_on_c, 1, 82, 127
2, 693880, Note_off_c, 1, 46, 0
2, 693880, Note_off_c, 1, 82, 0
2, 693920, Note_on_c, 1, 39, 127
2, 693920, Note_on_c, 1, 79, 127
2, 694040, Note_off_c, 1, 79, 0
2, 694120, Note_on_c, 1, 80, 127
2, 694240, Note_off_c, 1, 39, 0
2, 694240, Note_off_c, 1, 80, 0
2, 694280, Note_on_c, 1, 41, 127
2, 694280, Note_on_c, 1, 79, 127
2, 694440, Note_off_c, 1, 41, 0
2, 694440, Note_off_c, 1, 79, 0
2, 694480, Note_on_c, 1, 43, 127
2, 694480, Note_on_c, 1, 77, 127
2, 694600, Note_off_c, 1, 43, 0
2, 694600, Note_off_c, 1, 77, 0
2, 694640, Note_on_c, 1, 44, 127
2, 694640, Note_on_c, 1, 75, 127
2, 694800, Note_off_c, 1, 44, 0
2, 694800, Note_off_c, 1, 75, 0
2, 694840, Note_on_c, 1, 46, 127
2, 694840, Note_on_c, 1, 73, 127
2, 694960, Note_off_c, 1, 46, 0
2, 694960, Note_off_c, 1, 73, 0
2, 695040, Note_on_c, 1, 44, 127
2, 695040, Note_on_c, 1, 72, 127
2, 695160, Note_off_c, 1, 44, 0
2, 695160, Note_off_c, 1, 72, 0
2, 695200, Note_on_c, 1, 46, 127
2, 695200, Note_on_c, 1, 70, 127
2, 695360, Note_off_c, 1, 46, 0
2, 695360, Note_off_c, 1, 70, 0
2, 695400, Note_on_c, 1, 48, 127
2, 695400, Note_on_c, 1, 68, 127
2, 695440, Note_off_c, 1, 48, 0
2, 695480, Note_on_c, 1, 46, 127
2, 695520, Note_off_c, 1, 46, 0
2, 695520, Note_off_c, 1, 68, 0
2, 695600, Note_on_c, 1, 48, 127
2, 695600, Note_on_c, 1, 70, 127
2, 695640, Note_off_c, 1, 48, 0
2, 695680, Note_on_c, 1, 46, 127
2, 695720, Note_off_c, 1, 46, 0
2, 695720, Note_off_c, 1, 70, 0
2, 695760, Note_on_c, 1, 48, 127
2, 695760, Note_on_c, 1, 72, 127
2, 695800, Note_off_c, 1, 48, 0
2, 695880, Note_on_c, 1, 46, 127
2, 695920, Note_off_c, 1, 46, 0
2, 695920, Note_off_c, 1, 72, 0
2, 695960, Note_on_c, 1, 44, 127
2, 695960, Note_on_c, 1, 73, 127
2, 696000, Note_off_c, 1, 44, 0
2, 696040, Note_on_c, 1, 46, 127
2, 696080, Note_off_c, 1, 46, 0
2, 696080, Note_off_c, 1, 73, 0
2, 696160, Note_on_c, 1, 48, 127
2, 696160, Note_on_c, 1, 75, 127
2, 696280, Note_off_c, 1, 48, 0
2, 696280, Note_off_c, 1, 75, 0
2, 696320, Note_on_c, 1, 44, 127
2, 696320, Note_on_c, 1, 73, 127
2, 696480, Note_off_c, 1, 44, 0
2, 696480, Note_off_c, 1, 73, 0
2, 696520, Note_on_c, 1, 46, 127
2, 696520, Note_on_c, 1, 72, 127
2, 696640, Note_off_c, 1, 46, 0
2, 696640, Note_off_c, 1, 72, 0
2, 696720, Note_on_c, 1, 48, 127
2, 696720, Note_on_c, 1, 70, 127
2, 696840, Note_off_c, 1, 48, 0
2, 696840, Note_off_c, 1, 70, 0
2, 696880, Note_on_c, 1, 49, 127
2, 696880, Note_on_c, 1, 68, 127
2, 697040, Note_off_c, 1, 49, 0
2, 697040, Note_off_c, 1, 68, 0
2, 697080, Note_on_c, 1, 51, 127
2, 697080, Note_on_c, 1, 66, 127
2, 697200, Note_off_c, 1, 51, 0
2, 697200, Note_off_c, 1, 66, 0
2, 697240, Note_on_c, 1, 49, 127
2, 697240, Note_on_c, 1, 65, 127
2, 697400, Note_off_c, 1, 49, 0
2, 697400, Note_off_c, 1, 65, 0
2, 697440, Note_on_c, 1, 51, 127
2, 697440, Note_on_c, 1, 63, 127
2, 697560, Note_off_c, 1, 51, 0
2, 697560, Note_off_c, 1, 63, 0
2, 697640, Note_on_c, 1, 53, 127
2, 697640, Note_on_c, 1, 61, 127
2, 697680, Note_off_c, 1, 53, 0
2, 697720, Note_on_c, 1, 51, 127
2, 697760, Note_off_c, 1, 51, 0
2, 697760, Note_off_c, 1, 61, 0
2, 697800, Note_on_c, 1, 53, 127
2, 697800, Note_on_c, 1, 63, 127
2, 697840, Note_off_c, 1, 53, 0
2, 697920, Note_on_c, 1, 51, 127
2, 697960, Note_off_c, 1, 51, 0
2, 697960, Note_off_c, 1, 63, 0
2, 698000, Note_on_c, 1, 53, 127
2, 698000, Note_on_c, 1, 65, 127
2, 698040, Note_off_c, 1, 53, 0
2, 698080, Note_on_c, 1, 51, 127
2, 698120, Note_off_c, 1, 51, 0
2, 698120, Note_off_c, 1, 65, 0
2, 698200, Note_on_c, 1, 49, 127
2, 698200, Note_on_c, 1, 66, 127
2, 698240, Note_off_c, 1, 49, 0
2, 698280, Note_on_c, 1, 51, 127
2, 698320, Note_off_c, 1, 51, 0
2, 698320, Note_off_c, 1, 66, 0
2, 698360, Note_on_c, 1, 53, 127
2, 698360, Note_on_c, 1, 68, 127
2, 698520, Note_off_c, 1, 68, 0
2, 698560, Note_on_c, 1, 61, 127
2, 698680, Note_off_c, 1, 61, 0
2, 698760, Note_on_c, 1, 73, 127
2, 698800, Note_off_c, 1, 53, 0
2, 698920, Note_on_c, 1, 49, 127
2, 699080, Note_off_c, 1, 49, 0
2, 699120, Note_on_c, 1, 46, 127
2, 699240, Note_off_c, 1, 46, 0
2, 699320, Note_on_c, 1, 49, 127
2, 699440, Note_off_c, 1, 49, 0
2, 699480, Note_on_c, 1, 43, 127
2, 699640, Note_off_c, 1, 73, 0
2, 699680, Note_on_c, 1, 70, 127
2, 699800, Note_off_c, 1, 70, 0
2, 699880, Note_on_c, 1, 67, 127
2, 699920, Note_off_c, 1, 43, 0
2, 700000, Note_off_c, 1, 67, 0
2, 700040, Note_on_c, 1, 51, 127
2, 700040, Note_on_c, 1, 70, 127
2, 700200, Note_off_c, 1, 51, 0
2, 700200, Note_off_c, 1, 70, 0
2, 700240, Note_on_c, 1, 55, 127
2, 700240, Note_on_c, 1, 63, 127
2, 700360, Note_off_c, 1, 55, 0
2, 700440, Note_on_c, 1, 51, 127
2, 700560, Note_off_c, 1, 51, 0
2, 700600, Note_on_c, 1, 56, 127
2, 700760, Note_off_c, 1, 63, 0
2, 700800, Note_on_c, 1, 68, 127
2, 700920, Note_off_c, 1, 68, 0
2, 700960, Note_on_c, 1, 72, 127
2, 701040, Note_off_c, 1, 56, 0
2, 701160, Note_on_c, 1, 51, 127
2, 701280, Note_off_c, 1, 51, 0
2, 701360, Note_on_c, 1, 44, 127
2, 701480, Note_off_c, 1, 44, 0
2, 701520, Note_on_c, 1, 48, 127
2, 701680, Note_off_c, 1, 48, 0
2, 701720, Note_on_c, 1, 37, 127
2, 701840, Note_off_c, 1, 72, 0
2, 701920, Note_on_c, 1, 68, 127
2, 702040, Note_off_c, 1, 68, 0
2, 702080, Note_on_c, 1, 65, 127
2, 702120, Note_off_c, 1, 37, 0
2, 702240, Note_off_c, 1, 65, 0
2, 702280, Note_on_c, 1, 41, 127
2, 702280, Note_on_c, 1, 68, 127
2, 702400, Note_off_c, 1, 41, 0
2, 702400, Note_off_c, 1, 68, 0
2, 702480, Note_on_c, 1, 43, 127
2, 702480, Note_on_c, 1, 61, 127
2, 702600, Note_off_c, 1, 61, 0
2, 702640, Note_on_c, 1, 72, 127
2, 702800, Note_off_c, 1, 72, 0
2, 702840, Note_on_c, 1, 70, 127
2, 702960, Note_off_c, 1, 43, 0
2, 702960, Note_off_c, 1, 70, 0
2, 703040, Note_on_c, 1, 46, 127
2, 703040, Note_on_c, 1, 67, 127
2, 703160, Note_off_c, 1, 46, 0
2, 703160, Note_off_c, 1, 67, 0
2, 703200, Note_on_c, 1, 48, 127
2, 703200, Note_on_c, 1, 63, 127
2, 703360, Note_off_c, 1, 63, 0
2, 703400, Note_on_c, 1, 67, 127
2, 703520, Note_off_c, 1, 67, 0
2, 703560, Note_on_c, 1, 60, 127
2, 703640, Note_off_c, 1, 48, 0
2, 703720, Note_off_c, 1, 60, 0
2, 703760, Note_on_c, 1, 51, 127
2, 703760, Note_on_c, 1, 70, 127
2, 703880, Note_off_c, 1, 51, 0
2, 703880, Note_off_c, 1, 70, 0
2, 703960, Note_on_c, 1, 53, 127
2, 703960, Note_on_c, 1, 68, 127
2, 704080, Note_off_c, 1, 53, 0
2, 704080, Note_off_c, 1, 68, 0
2, 704120, Note_on_c, 1, 56, 127
2, 704120, Note_on_c, 1, 65, 127
2, 704280, Note_off_c, 1, 56, 0
2, 704280, Note_off_c, 1, 65, 0
2, 704320, Note_on_c, 1, 58, 127
2, 704320, Note_on_c, 1, 61, 127
2, 704440, Note_off_c, 1, 58, 0
2, 704440, Note_off_c, 1, 61, 0
2, 704520, Note_on_c, 1, 53, 127
2, 704520, Note_on_c, 1, 65, 127
2, 704640, Note_off_c, 1, 53, 0
2, 704640, Note_off_c, 1, 65, 0
2, 704680, Note_on_c, 1, 49, 127
2, 704680, Note_on_c, 1, 58, 127
2, 704840, Note_off_c, 1, 49, 0
2, 704840, Note_off_c, 1, 58, 0
2, 704880, Note_on_c, 1, 46, 127
2, 704880, Note_on_c, 1, 68, 127
2, 705000, Note_off_c, 1, 46, 0
2, 705000, Note_off_c, 1, 68, 0
2, 705080, Note_on_c, 1, 51, 127
2, 705080, Note_on_c, 1, 67, 127
2, 705200, Note_off_c, 1, 51, 0
2, 705200, Note_off_c, 1, 67, 0
2, 705240, Note_on_c, 1, 56, 127
2, 705240, Note_on_c, 1, 63, 127
2, 705400, Note_off_c, 1, 56, 0
2, 705400, Note_off_c, 1, 63, 0
2, 705440, Note_on_c, 1, 55, 127
2, 705440, Note_on_c, 1, 65, 127
2, 705560, Note_off_c, 1, 55, 0
2, 705560, Note_off_c, 1, 65, 0
2, 705600, Note_on_c, 1, 53, 127
2, 705600, Note_on_c, 1, 67, 127
2, 705760, Note_off_c, 1, 53, 0
2, 705760, Note_off_c, 1, 67, 0
2, 705800, Note_on_c, 1, 51, 127
2, 705800, Note_on_c, 1, 68, 127
2, 705960, Note_off_c, 1, 51, 0
2, 705960, Note_off_c, 1, 68, 0
2, 706000, Note_on_c, 1, 49, 127
2, 706000, Note_on_c, 1, 70, 127
2, 706120, Note_off_c, 1, 49, 0
2, 706120, Note_off_c, 1, 70, 0
2, 706160, Note_on_c, 1, 48, 127
2, 706160, Note_on_c, 1, 68, 127
2, 706320, Note_off_c, 1, 48, 0
2, 706320, Note_off_c, 1, 68, 0
2, 706360, Note_on_c, 1, 49, 127
2, 706360, Note_on_c, 1, 70, 127
2, 706480, Note_off_c, 1, 49, 0
2, 706480, Note_off_c, 1, 70, 0
2, 706560, Note_on_c, 1, 51, 127
2, 706560, Note_on_c, 1, 72, 127
2, 706600, Note_off_c, 1, 72, 0
2, 706640, Note_on_c, 1, 70, 127
2, 706680, Note_off_c, 1, 51, 0
2, 706680, Note_off_c, 1, 70, 0
2, 706720, Note_on_c, 1, 49, 127
2, 706720, Note_on_c, 1, 72, 127
2, 706760, Note_off_c, 1, 72, 0
2, 706840, Note_on_c, 1, 70, 127
2, 706880, Note_off_c, 1, 49, 0
2, 706880, Note_off_c, 1, 70, 0
2, 706920, Note_on_c, 1, 48, 127
2, 706920, Note_on_c, 1, 72, 127
2, 706960, Note_off_c, 1, 72, 0
2, 707000, Note_on_c, 1, 70, 127
2, 707040, Note_off_c, 1, 48, 0
2, 707040, Note_off_c, 1, 70, 0
2, 707120, Note_on_c, 1, 46, 127
2, 707120, Note_on_c, 1, 68, 127
2, 707160, Note_off_c, 1, 68, 0
2, 707200, Note_on_c, 1, 70, 127
2, 707240, Note_off_c, 1, 46, 0
2, 707240, Note_off_c, 1, 70, 0
2, 707280, Note_on_c, 1, 44, 127
2, 707280, Note_on_c, 1, 72, 127
2, 707440, Note_off_c, 1, 44, 0
2, 707440, Note_off_c, 1, 72, 0
2, 707480, Note_on_c, 1, 49, 127
2, 707480, Note_on_c, 1, 68, 127
2, 707600, Note_off_c, 1, 49, 0
2, 707600, Note_off_c, 1, 68, 0
2, 707680, Note_on_c, 1, 48, 127
2, 707680, Note_on_c, 1, 70, 127
2, 707800, Note_off_c, 1, 48, 0
2, 707800, Note_off_c, 1, 70, 0
2, 707840, Note_on_c, 1, 46, 127
2, 707840, Note_on_c, 1, 72, 127
2, 708000, Note_off_c, 1, 46, 0
2, 708000, Note_off_c, 1, 72, 0
2, 708040, Note_on_c, 1, 44, 127
2, 708040, Note_on_c, 1, 73, 127
2, 708160, Note_off_c, 1, 44, 0
2, 708160, Note_off_c, 1, 73, 0
2, 708240, Note_on_c, 1, 42, 127
2, 708240, Note_on_c, 1, 75, 127
2, 708360, Note_off_c, 1, 42, 0
2, 708360, Note_off_c, 1, 75, 0
2, 708400, Note_on_c, 1, 41, 127
2, 708400, Note_on_c, 1, 73, 127
2, 708560, Note_off_c, 1, 41, 0
2, 708560, Note_off_c, 1, 73, 0
2, 708600, Note_on_c, 1, 42, 127
2, 708600, Note_on_c, 1, 75, 127
2, 708720, Note_off_c, 1, 42, 0
2, 708720, Note_off_c, 1, 75, 0
2, 708760, Note_on_c, 1, 44, 127
2, 708760, Note_on_c, 1, 77, 127
2, 708840, Note_off_c, 1, 77, 0
2, 708880, Note_on_c, 1, 75, 127
2, 708920, Note_off_c, 1, 44, 0
2, 708920, Note_off_c, 1, 75, 0
2, 708960, Note_on_c, 1, 42, 127
2, 708960, Note_on_c, 1, 77, 127
2, 709000, Note_off_c, 1, 77, 0
2, 709040, Note_on_c, 1, 75, 127
2, 709120, Note_off_c, 1, 42, 0
2, 709120, Note_off_c, 1, 75, 0
2, 709160, Note_on_c, 1, 41, 127
2, 709160, Note_on_c, 1, 77, 127
2, 709200, Note_off_c, 1, 77, 0
2, 709240, Note_on_c, 1, 75, 127
2, 709280, Note_off_c, 1, 41, 0
2, 709280, Note_off_c, 1, 75, 0
2, 709320, Note_on_c, 1, 39, 127
2, 709320, Note_on_c, 1, 73, 127
2, 709400, Note_off_c, 1, 73, 0
2, 709440, Note_on_c, 1, 75, 127
2, 709480, Note_off_c, 1, 39, 0
2, 709480, Note_off_c, 1, 75, 0
2, 709520, Note_on_c, 1, 37, 127
2, 709520, Note_on_c, 1, 77, 127
2, 709680, Note_off_c, 1, 37, 0
2, 709680, Note_off_c, 1, 77, 0
2, 709720, Note_on_c, 1, 41, 127
2, 709720, Note_on_c, 1, 73, 127
2, 709840, Note_off_c, 1, 41, 0
2, 709840, Note_off_c, 1, 73, 0
2, 709880, Note_on_c, 1, 42, 127
2, 709880, Note_on_c, 1, 75, 127
2, 710040, Note_off_c, 1, 42, 0
2, 710040, Note_off_c, 1, 75, 0
2, 710080, Note_on_c, 1, 44, 127
2, 710080, Note_on_c, 1, 77, 127
2, 710200, Note_off_c, 1, 44, 0
2, 710200, Note_off_c, 1, 77, 0
2, 710280, Note_on_c, 1, 46, 127
2, 710280, Note_on_c, 1, 78, 127
2, 710400, Note_off_c, 1, 46, 0
2, 710400, Note_off_c, 1, 78, 0
2, 710440, Note_on_c, 1, 48, 127
2, 710440, Note_on_c, 1, 80, 127
2, 710560, Note_off_c, 1, 80, 0
2, 710600, Note_off_c, 1, 48, 0
2, 710640, Note_on_c, 1, 49, 127
2, 710640, Note_on_c, 1, 79, 127
2, 710760, Note_off_c, 1, 49, 0
2, 710760, Note_off_c, 1, 79, 0
2, 710840, Note_on_c, 1, 51, 127
2, 710840, Note_on_c, 1, 80, 127
2, 710960, Note_off_c, 1, 51, 0
2, 710960, Note_off_c, 1, 80, 0
2, 711000, Note_on_c, 1, 49, 127
2, 711000, Note_on_c, 1, 82, 127
2, 711040, Note_off_c, 1, 82, 0
2, 711120, Note_on_c, 1, 80, 127
2, 711160, Note_off_c, 1, 49, 0
2, 711160, Note_off_c, 1, 80, 0
2, 711200, Note_on_c, 1, 48, 127
2, 711200, Note_on_c, 1, 82, 127
2, 711240, Note_off_c, 1, 82, 0
2, 711280, Note_on_c, 1, 80, 127
2, 711320, Note_off_c, 1, 48, 0
2, 711320, Note_off_c, 1, 80, 0
2, 711400, Note_on_c, 1, 46, 127
2, 711400, Note_on_c, 1, 82, 127
2, 711440, Note_off_c, 1, 82, 0
2, 711480, Note_on_c, 1, 80, 127
2, 711520, Note_off_c, 1, 46, 0
2, 711520, Note_off_c, 1, 80, 0
2, 711560, Note_on_c, 1, 44, 127
2, 711560, Note_on_c, 1, 79, 127
2, 711600, Note_off_c, 1, 79, 0
2, 711680, Note_on_c, 1, 80, 127
2, 711720, Note_off_c, 1, 44, 0
2, 711720, Note_off_c, 1, 80, 0
2, 711760, Note_on_c, 1, 43, 127
2, 711760, Note_on_c, 1, 82, 127
2, 711880, Note_off_c, 1, 43, 0
2, 711880, Note_off_c, 1, 82, 0
2, 711960, Note_on_c, 1, 39, 127
2, 711960, Note_on_c, 1, 80, 127
2, 712080, Note_off_c, 1, 39, 0
2, 712080, Note_off_c, 1, 80, 0
2, 712120, Note_on_c, 1, 41, 127
2, 712120, Note_on_c, 1, 79, 127
2, 712280, Note_off_c, 1, 41, 0
2, 712280, Note_off_c, 1, 79, 0
2, 712320, Note_on_c, 1, 43, 127
2, 712320, Note_on_c, 1, 77, 127
2, 712440, Note_off_c, 1, 43, 0
2, 712440, Note_off_c, 1, 77, 0
2, 712520, Note_on_c, 1, 44, 127
2, 712520, Note_on_c, 1, 75, 127
2, 712640, Note_off_c, 1, 44, 0
2, 712640, Note_off_c, 1, 75, 0
2, 712680, Note_on_c, 1, 46, 127
2, 712680, Note_on_c, 1, 73, 127
2, 712840, Note_off_c, 1, 46, 0
2, 712840, Note_off_c, 1, 73, 0
2, 712880, Note_on_c, 1, 44, 127
2, 712880, Note_on_c, 1, 72, 127
2, 713000, Note_off_c, 1, 44, 0
2, 713000, Note_off_c, 1, 72, 0
2, 713040, Note_on_c, 1, 46, 127
2, 713040, Note_on_c, 1, 70, 127
2, 713200, Note_off_c, 1, 46, 0
2, 713200, Note_off_c, 1, 70, 0
2, 713240, Note_on_c, 1, 48, 127
2, 713240, Note_on_c, 1, 68, 127
2, 713280, Note_off_c, 1, 48, 0
2, 713320, Note_on_c, 1, 46, 127
2, 713360, Note_off_c, 1, 46, 0
2, 713360, Note_off_c, 1, 68, 0
2, 713440, Note_on_c, 1, 48, 127
2, 713440, Note_on_c, 1, 70, 127
2, 713480, Note_off_c, 1, 48, 0
2, 713520, Note_on_c, 1, 46, 127
2, 713560, Note_off_c, 1, 46, 0
2, 713560, Note_off_c, 1, 70, 0
2, 713600, Note_on_c, 1, 48, 127
2, 713600, Note_on_c, 1, 72, 127
2, 713640, Note_off_c, 1, 48, 0
2, 713720, Note_on_c, 1, 46, 127
2, 713760, Note_off_c, 1, 46, 0
2, 713760, Note_off_c, 1, 72, 0
2, 713800, Note_on_c, 1, 44, 127
2, 713800, Note_on_c, 1, 73, 127
2, 713840, Note_off_c, 1, 44, 0
2, 713880, Note_on_c, 1, 46, 127
2, 713920, Note_off_c, 1, 46, 0
2, 713920, Note_off_c, 1, 73, 0
2, 714000, Note_on_c, 1, 48, 127
2, 714000, Note_on_c, 1, 75, 127
2, 714120, Note_off_c, 1, 48, 0
2, 714120, Note_off_c, 1, 75, 0
2, 714160, Note_on_c, 1, 46, 127
2, 714160, Note_on_c, 1, 73, 127
2, 714320, Note_off_c, 1, 46, 0
2, 714320, Note_off_c, 1, 73, 0
2, 714360, Note_on_c, 1, 44, 127
2, 714360, Note_on_c, 1, 72, 127
2, 714480, Note_off_c, 1, 44, 0
2, 714480, Note_off_c, 1, 72, 0
2, 714560, Note_on_c, 1, 46, 127
2, 714560, Note_on_c, 1, 70, 127
2, 714680, Note_off_c, 1, 46, 0
2, 714680, Note_off_c, 1, 70, 0
2, 714720, Note_on_c, 1, 48, 127
2, 714720, Note_on_c, 1, 68, 127
2, 714880, Note_off_c, 1, 48, 0
2, 714880, Note_off_c, 1, 68, 0
2, 714920, Note_on_c, 1, 44, 127
2, 714920, Note_on_c, 1, 66, 127
2, 715040, Note_off_c, 1, 44, 0
2, 715040, Note_off_c, 1, 66, 0
2, 715120, Note_on_c, 1, 49, 127
2, 715120, Note_on_c, 1, 65, 127
2, 715240, Note_off_c, 1, 49, 0
2, 715240, Note_off_c, 1, 65, 0
2, 715280, Note_on_c, 1, 48, 127
2, 715280, Note_on_c, 1, 75, 127
2, 715440, Note_off_c, 1, 48, 0
2, 715440, Note_off_c, 1, 75, 0
2, 715480, Note_on_c, 1, 46, 127
2, 715480, Note_on_c, 1, 73, 127
2, 715600, Note_off_c, 1, 46, 0
2, 715600, Note_off_c, 1, 73, 0
2, 715680, Note_on_c, 1, 48, 127
2, 715680, Note_on_c, 1, 72, 127
2, 715800, Note_off_c, 1, 48, 0
2, 715800, Note_off_c, 1, 72, 0
2, 715840, Note_on_c, 1, 49, 127
2, 715840, Note_on_c, 1, 70, 127
2, 715960, Note_off_c, 1, 49, 0
2, 715960, Note_off_c, 1, 70, 0
2, 716040, Note_on_c, 1, 46, 127
2, 716040, Note_on_c, 1, 68, 127
2, 716160, Note_off_c, 1, 46, 0
2, 716160, Note_off_c, 1, 68, 0
2, 716200, Note_on_c, 1, 51, 127
2, 716200, Note_on_c, 1, 67, 127
2, 716360, Note_off_c, 1, 51, 0
2, 716360, Note_off_c, 1, 67, 0
2, 716400, Note_on_c, 1, 53, 127
2, 716400, Note_on_c, 1, 63, 127
2, 716520, Note_off_c, 1, 53, 0
2, 716520, Note_off_c, 1, 63, 0
2, 716600, Note_on_c, 1, 51, 127
2, 716600, Note_on_c, 1, 65, 127
2, 716720, Note_off_c, 1, 51, 0
2, 716720, Note_off_c, 1, 65, 0
2, 716760, Note_on_c, 1, 49, 127
2, 716760, Note_on_c, 1, 67, 127
2, 716920, Note_off_c, 1, 49, 0
2, 716920, Note_off_c, 1, 67, 0
2, 716960, Note_on_c, 1, 48, 127
2, 716960, Note_on_c, 1, 68, 127
2, 717080, Note_off_c, 1, 48, 0
2, 717080, Note_off_c, 1, 68, 0
2, 717160, Note_on_c, 1, 46, 127
2, 717160, Note_on_c, 1, 67, 127
2, 717280, Note_off_c, 1, 46, 0
2, 717280, Note_off_c, 1, 67, 0
2, 717320, Note_on_c, 1, 48, 127
2, 717320, Note_on_c, 1, 68, 127
2, 717480, Note_off_c, 1, 48, 0
2, 717480, Note_off_c, 1, 68, 0
2, 717520, Note_on_c, 1, 49, 127
2, 717520, Note_on_c, 1, 70, 127
2, 717640, Note_off_c, 1, 49, 0
2, 717640, Note_off_c, 1, 70, 0
2, 717720, Note_on_c, 1, 51, 127
2, 717720, Note_on_c, 1, 68, 127
2, 717760, Note_on_c, 1, 67, 127
2, 717760, Note_off_c, 1, 68, 0
2, 717800, Note_off_c, 1, 67, 0
2, 717840, Note_on_c, 1, 68, 127
2, 717880, Note_on_c, 1, 67, 127
2, 717880, Note_off_c, 1, 68, 0
2, 717920, Note_off_c, 1, 67, 0
2, 717960, Note_on_c, 1, 68, 127
2, 718000, Note_on_c, 1, 67, 127
2, 718000, Note_off_c, 1, 68, 0
2, 718040, Note_off_c, 1, 51, 0
2, 718080, Note_on_c, 1, 39, 127
2, 718360, Note_off_c, 1, 67, 0
2, 718400, Note_off_c, 1, 39, 0
2, 718440, Note_on_c, 1, 44, 127
2, 718440, Note_on_c, 1, 68, 127
2, 718600, Note_off_c, 1, 68, 0
2, 718640, Note_on_c, 1, 70, 127
2, 718760, Note_off_c, 1, 44, 0
2, 718760, Note_off_c, 1, 70, 0
2, 718800, Note_on_c, 1, 56, 127
2, 718800, Note_on_c, 1, 72, 127
2, 718960, Note_off_c, 1, 56, 0
2, 718960, Note_off_c, 1, 72, 0
2, 719000, Note_on_c, 1, 55, 127
2, 719000, Note_on_c, 1, 73, 127
2, 719120, Note_off_c, 1, 55, 0
2, 719120, Note_off_c, 1, 73, 0
2, 719200, Note_on_c, 1, 53, 127
2, 719200, Note_on_c, 1, 75, 127
2, 719320, Note_off_c, 1, 53, 0
2, 719320, Note_off_c, 1, 75, 0
2, 719360, Note_on_c, 1, 51, 127
2, 719360, Note_on_c, 1, 72, 127
2, 719520, Note_off_c, 1, 51, 0
2, 719520, Note_off_c, 1, 72, 0
2, 719560, Note_on_c, 1, 49, 127
2, 719560, Note_on_c, 1, 77, 127
2, 719680, Note_off_c, 1, 77, 0
2, 719760, Note_on_c, 1, 75, 127
2, 719880, Note_off_c, 1, 49, 0
2, 719880, Note_off_c, 1, 75, 0
2, 719920, Note_on_c, 1, 51, 127
2, 719920, Note_on_c, 1, 73, 127
2, 719960, Note_off_c, 1, 51, 0
2, 720040, Note_on_c, 1, 49, 127
2, 720080, Note_off_c, 1, 49, 0
2, 720080, Note_off_c, 1, 73, 0
2, 720120, Note_on_c, 1, 51, 127
2, 720120, Note_on_c, 1, 72, 127
2, 720160, Note_off_c, 1, 51, 0
2, 720200, Note_on_c, 1, 49, 127
2, 720240, Note_off_c, 1, 49, 0
2, 720240, Note_off_c, 1, 72, 0
2, 720320, Note_on_c, 1, 51, 127
2, 720320, Note_on_c, 1, 70, 127
2, 720360, Note_off_c, 1, 51, 0
2, 720400, Note_on_c, 1, 49, 127
2, 720440, Note_off_c, 1, 49, 0
2, 720440, Note_off_c, 1, 70, 0
2, 720480, Note_on_c, 1, 48, 127
2, 720480, Note_on_c, 1, 68, 127
2, 720520, Note_off_c, 1, 48, 0
2, 720600, Note_on_c, 1, 49, 127
2, 720640, Note_off_c, 1, 49, 0
2, 720640, Note_off_c, 1, 68, 0
2, 720680, Note_on_c, 1, 51, 127
2, 720680, Note_on_c, 1, 67, 127
2, 720800, Note_off_c, 1, 51, 0
2, 720800, Note_off_c, 1, 67, 0
2, 720880, Note_on_c, 1, 53, 127
2, 720880, Note_on_c, 1, 68, 127
2, 721000, Note_off_c, 1, 53, 0
2, 721000, Note_off_c, 1, 68, 0
2, 721040, Note_on_c, 1, 55, 127
2, 721040, Note_on_c, 1, 70, 127
2, 721200, Note_off_c, 1, 55, 0
2, 721200, Note_off_c, 1, 70, 0
2, 721240, Note_on_c, 1, 53, 127
2, 721240, Note_on_c, 1, 72, 127
2, 721360, Note_off_c, 1, 53, 0
2, 721360, Note_off_c, 1, 72, 0
2, 721440, Note_on_c, 1, 51, 127
2, 721440, Note_on_c, 1, 73, 127
2, 721560, Note_off_c, 1, 51, 0
2, 721560, Note_off_c, 1, 73, 0
2, 721600, Note_on_c, 1, 49, 127
2, 721600, Note_on_c, 1, 70, 127
2, 721760, Note_off_c, 1, 49, 0
2, 721760, Note_off_c, 1, 70, 0
2, 721800, Note_on_c, 1, 48, 127
2, 721800, Note_on_c, 1, 75, 127
2, 721920, Note_off_c, 1, 75, 0
2, 721960, Note_on_c, 1, 73, 127
2, 722120, Note_off_c, 1, 48, 0
2, 722120, Note_off_c, 1, 73, 0
2, 722160, Note_on_c, 1, 49, 127
2, 722160, Note_on_c, 1, 72, 127
2, 722200, Note_off_c, 1, 49, 0
2, 722240, Note_on_c, 1, 48, 127
2, 722280, Note_off_c, 1, 48, 0
2, 722280, Note_off_c, 1, 72, 0
2, 722360, Note_on_c, 1, 49, 127
2, 722360, Note_on_c, 1, 70, 127
2, 722400, Note_off_c, 1, 49, 0
2, 722440, Note_on_c, 1, 48, 127
2, 722480, Note_off_c, 1, 48, 0
2, 722480, Note_off_c, 1, 70, 0
2, 722520, Note_on_c, 1, 49, 127
2, 722520, Note_on_c, 1, 68, 127
2, 722560, Note_off_c, 1, 49, 0
2, 722640, Note_on_c, 1, 48, 127
2, 722680, Note_off_c, 1, 48, 0
2, 722680, Note_off_c, 1, 68, 0
2, 722720, Note_on_c, 1, 46, 127
2, 722720, Note_on_c, 1, 67, 127
2, 722760, Note_off_c, 1, 46, 0
2, 722800, Note_on_c, 1, 48, 127
2, 722840, Note_off_c, 1, 48, 0
2, 722840, Note_off_c, 1, 67, 0
2, 722920, Note_on_c, 1, 49, 127
2, 722920, Note_on_c, 1, 65, 127
2, 723040, Note_off_c, 1, 49, 0
2, 723040, Note_off_c, 1, 65, 0
2, 723080, Note_on_c, 1, 51, 127
2, 723080, Note_on_c, 1, 67, 127
2, 723240, Note_off_c, 1, 51, 0
2, 723240, Note_off_c, 1, 67, 0
2, 723280, Note_on_c, 1, 53, 127
2, 723280, Note_on_c, 1, 68, 127
2, 723400, Note_off_c, 1, 53, 0
2, 723400, Note_off_c, 1, 68, 0
2, 723480, Note_on_c, 1, 51, 127
2, 723480, Note_on_c, 1, 70, 127
2, 723600, Note_off_c, 1, 51, 0
2, 723600, Note_off_c, 1, 70, 0
2, 723640, Note_on_c, 1, 49, 127
2, 723640, Note_on_c, 1, 72, 127
2, 723800, Note_off_c, 1, 49, 0
2, 723800, Note_off_c, 1, 72, 0
2, 723840, Note_on_c, 1, 48, 127
2, 723840, Note_on_c, 1, 68, 127
2, 723960, Note_off_c, 1, 48, 0
2, 723960, Note_off_c, 1, 68, 0
2, 724040, Note_on_c, 1, 46, 127
2, 724040, Note_on_c, 1, 73, 127
2, 724160, Note_off_c, 1, 46, 0
2, 724160, Note_off_c, 1, 73, 0
2, 724200, Note_on_c, 1, 48, 127
2, 724200, Note_on_c, 1, 72, 127
2, 724360, Note_off_c, 1, 48, 0
2, 724360, Note_off_c, 1, 72, 0
2, 724400, Note_on_c, 1, 49, 127
2, 724400, Note_on_c, 1, 70, 127
2, 724520, Note_off_c, 1, 49, 0
2, 724520, Note_off_c, 1, 70, 0
2, 724600, Note_on_c, 1, 48, 127
2, 724600, Note_on_c, 1, 68, 127
2, 724720, Note_off_c, 1, 48, 0
2, 724720, Note_off_c, 1, 68, 0
2, 724760, Note_on_c, 1, 46, 127
2, 724760, Note_on_c, 1, 67, 127
2, 724880, Note_off_c, 1, 46, 0
2, 724880, Note_off_c, 1, 67, 0
2, 724960, Note_on_c, 1, 44, 127
2, 724960, Note_on_c, 1, 65, 127
2, 725080, Note_off_c, 1, 44, 0
2, 725080, Note_off_c, 1, 65, 0
2, 725120, Note_on_c, 1, 43, 127
2, 725120, Note_on_c, 1, 63, 127
2, 725280, Note_off_c, 1, 63, 0
2, 725320, Note_on_c, 1, 73, 127
2, 725480, Note_off_c, 1, 43, 0
2, 725480, Note_off_c, 1, 73, 0
2, 725520, Note_on_c, 1, 51, 127
2, 725520, Note_on_c, 1, 72, 127
2, 725640, Note_off_c, 1, 72, 0
2, 725720, Note_on_c, 1, 70, 127
2, 725840, Note_off_c, 1, 51, 0
2, 725840, Note_off_c, 1, 70, 0
2, 725880, Note_on_c, 1, 53, 127
2, 725880, Note_on_c, 1, 68, 127
2, 726040, Note_off_c, 1, 68, 0
2, 726080, Note_on_c, 1, 67, 127
2, 726200, Note_off_c, 1, 53, 0
2, 726200, Note_off_c, 1, 67, 0
2, 726280, Note_on_c, 1, 49, 127
2, 726280, Note_on_c, 1, 68, 127
2, 726400, Note_off_c, 1, 68, 0
2, 726440, Note_on_c, 1, 70, 127
2, 726600, Note_off_c, 1, 49, 0
2, 726600, Note_off_c, 1, 70, 0
2, 726640, Note_on_c, 1, 51, 127
2, 726640, Note_on_c, 1, 72, 127
2, 726680, Note_off_c, 1, 72, 0
2, 726720, Note_on_c, 1, 70, 127
2, 726760, Note_off_c, 1, 70, 0
2, 726800, Note_on_c, 1, 72, 127
2, 726840, Note_off_c, 1, 72, 0
2, 726880, Note_on_c, 1, 70, 127
2, 726920, Note_off_c, 1, 70, 0
2, 726960, Note_off_c, 1, 51, 0
2, 726960, Note_on_c, 1, 72, 127
2, 727000, Note_off_c, 1, 72, 0
2, 727040, Note_on_c, 1, 39, 127
2, 727040, Note_on_c, 1, 70, 127
2, 727160, Note_off_c, 1, 70, 0
2, 727240, Note_on_c, 1, 68, 127
2, 727360, Note_off_c, 1, 39, 0
2, 727360, Note_off_c, 1, 68, 0
2, 727400, Note_on_c, 1, 32, 127
2, 727400, Note_on_c, 1, 68, 127
2, 727840, Note_on_c, 1, 36, 127
2, 728240, Note_off_c, 1, 36, 0
2, 728280, Note_on_c, 1, 39, 127
2, 728680, Note_off_c, 1, 39, 0
2, 728720, Note_on_c, 1, 44, 127
2, 731760, Note_off_c, 1, 32, 0
2, 731760, Note_off_c, 1, 44, 0
2, 731760, Note_off_c, 1, 68, 0
2, 732720, End_track
3, 0, Start_track
3, 0, Title_t, "MIDI"
3, 1536, End_track
0, 0, End_of_file
