0, 0, Header, 1, 3, 384
1, 0, Start_track
1, 0, Time_signature, 4, 2, 24, 8
1, 0, Tempo, 500000
1, 608600, End_track
2, 0, Start_track
2, 0, Text_t, "random instrument: random person i dunno whatev"
2, 0, Title_t, "Track 1"
2, 0, Note_on_c, 1, 73, 127
2, 280, Note_off_c, 1, 73, 0
2, 320, Note_on_c, 1, 73, 127
2, 600, Note_off_c, 1, 73, 0
2, 640, Note_on_c, 1, 69, 127
2, 920, Note_off_c, 1, 69, 0
2, 960, Note_on_c, 1, 66, 127
2, 960, Note_on_c, 1, 69, 127
2, 1240, Note_off_c, 1, 66, 0
2, 1240, Note_off_c, 1, 69, 0
2, 1280, Note_on_c, 1, 66, 127
2, 1280, Note_on_c, 1, 69, 127
2, 1560, Note_off_c, 1, 66, 0
2, 1560, Note_off_c, 1, 69, 0
2, 1600, Note_on_c, 1, 65, 127
2, 1600, Note_on_c, 1, 68, 127
2, 1720, Note_off_c, 1, 68, 0
2, 1760, Note_on_c, 1, 66, 127
2, 1880, Note_off_c, 1, 65, 0
2, 1880, Note_off_c, 1, 66, 0
2, 1920, Note_on_c, 1, 61, 127
2, 1920, Note_on_c, 1, 65, 127
2, 1920, Note_on_c, 1, 68, 127
2, 2040, Note_off_c, 1, 68, 0
2, 2080, Note_on_c, 1, 69, 127
2, 2200, Note_off_c, 1, 61, 0
2, 2200, Note_off_c, 1, 65, 0
2, 2200, Note_off_c, 1, 69, 0
2, 2240, Note_on_c, 1, 61, 127
2, 2240, Note_on_c, 1, 65, 127
2, 2240, Note_on_c, 1, 68, 127
2, 2360, Note_off_c, 1, 68, 0
2, 2400, Note_on_c, 1, 69, 127
2, 2520, Note_off_c, 1, 61, 0
2, 2520, Note_off_c, 1, 65, 0
2, 2520, Note_off_c, 1, 69, 0
2, 2560, Note_on_c, 1, 57, 127
2, 2560, Note_on_c, 1, 61, 127
2, 2560, Note_on_c, 1, 66, 127
2, 2680, Note_off_c, 1, 66, 0
2, 2720, Note_on_c, 1, 65, 127
2, 2840, Note_off_c, 1, 57, 0
2, 2840, Note_off_c, 1, 61, 0
2, 2840, Note_off_c, 1, 65, 0
2, 2880, Note_on_c, 1, 54, 127
2, 2880, Note_on_c, 1, 57, 127
2, 2880, Note_on_c, 1, 61, 127
2, 2880, Note_on_c, 1, 66, 127
2, 3000, Note_off_c, 1, 66, 0
2, 3080, Note_on_c, 1, 68, 127
2, 3160, Note_off_c, 1, 54, 0
2, 3160, Note_off_c, 1, 57, 0
2, 3160, Note_off_c, 1, 61, 0
2, 3160, Note_off_c, 1, 68, 0
2, 3240, Note_on_c, 1, 54, 127
2, 3240, Note_on_c, 1, 57, 127
2, 3240, Note_on_c, 1, 61, 127
2, 3240, Note_on_c, 1, 69, 127
2, 3360, Note_off_c, 1, 69, 0
2, 3400, Note_on_c, 1, 71, 127
2, 3520, Note_off_c, 1, 54, 0
2, 3520, Note_off_c, 1, 57, 0
2, 3520, Note_off_c, 1, 61, 0
2, 3520, Note_off_c, 1, 71, 0
2, 3560, Note_on_c, 1, 53, 127
2, 3560, Note_on_c, 1, 56, 127
2, 3560, Note_on_c, 1, 61, 127
2, 3560, Note_on_c, 1, 73, 127
2, 3680, Note_off_c, 1, 73, 0
2, 3720, Note_on_c, 1, 71, 127
2, 3840, Note_off_c, 1, 53, 0
2, 3840, Note_off_c, 1, 56, 0
2, 3840, Note_off_c, 1, 61, 0
2, 3840, Note_off_c, 1, 71, 0
2, 3880, Note_on_c, 1, 49, 127
2, 3880, Note_on_c, 1, 53, 127
2, 3880, Note_on_c, 1, 56, 127
2, 3880, Note_on_c, 1, 73, 127
2, 4000, Note_off_c, 1, 73, 0
2, 4040, Note_on_c, 1, 75, 127
2, 4160, Note_off_c, 1, 49, 0
2, 4160, Note_off_c, 1, 53, 0
2, 4160, Note_off_c, 1, 56, 0
2, 4160, Note_off_c, 1, 75, 0
2, 4200, Note_on_c, 1, 49, 127
2, 4200, Note_on_c, 1, 53, 127
2, 4200, Note_on_c, 1, 56, 127
2, 4200, Note_on_c, 1, 77, 127
2, 4320, Note_off_c, 1, 77, 0
2, 4360, Note_on_c, 1, 73, 127
2, 4480, Note_off_c, 1, 49, 0
2, 4480, Note_off_c, 1, 53, 0
2, 4480, Note_off_c, 1, 56, 0
2, 4480, Note_off_c, 1, 73, 0
2, 4520, Note_on_c, 1, 45, 127
2, 4520, Note_on_c, 1, 49, 127
2, 4520, Note_on_c, 1, 54, 127
2, 4520, Note_on_c, 1, 78, 127
2, 4640, Note_off_c, 1, 78, 0
2, 4680, Note_on_c, 1, 77, 127
2, 4800, Note_off_c, 1, 45, 0
2, 4800, Note_off_c, 1, 49, 0
2, 4800, Note_off_c, 1, 54, 0
2, 4800, Note_off_c, 1, 77, 0
2, 4840, Note_on_c, 1, 42, 127
2, 4840, Note_on_c, 1, 45, 127
2, 4840, Note_on_c, 1, 49, 127
2, 4840, Note_on_c, 1, 54, 127
2, 4840, Note_on_c, 1, 78, 127
2, 4960, Note_off_c, 1, 78, 0
2, 5000, Note_on_c, 1, 80, 127
2, 5120, Note_off_c, 1, 42, 0
2, 5120, Note_off_c, 1, 45, 0
2, 5120, Note_off_c, 1, 49, 0
2, 5120, Note_off_c, 1, 54, 0
2, 5120, Note_off_c, 1, 80, 0
2, 5160, Note_on_c, 1, 42, 127
2, 5160, Note_on_c, 1, 45, 127
2, 5160, Note_on_c, 1, 49, 127
2, 5160, Note_on_c, 1, 81, 127
2, 5280, Note_off_c, 1, 81, 0
2, 5320, Note_on_c, 1, 78, 127
2, 5440, Note_off_c, 1, 42, 0
2, 5440, Note_off_c, 1, 45, 0
2, 5440, Note_off_c, 1, 49, 0
2, 5440, Note_off_c, 1, 78, 0
2, 5480, Note_on_c, 1, 37, 127
2, 5480, Note_on_c, 1, 41, 127
2, 5480, Note_on_c, 1, 44, 127
2, 5480, Note_on_c, 1, 49, 127
2, 5480, Note_on_c, 1, 80, 127
2, 5600, Note_off_c, 1, 80, 0
2, 5640, Note_on_c, 1, 78, 127
2, 5760, Note_off_c, 1, 78, 0
2, 5800, Note_on_c, 1, 77, 127
2, 5920, Note_off_c, 1, 77, 0
2, 5960, Note_on_c, 1, 75, 127
2, 6080, Note_off_c, 1, 75, 0
2, 6120, Note_on_c, 1, 73, 127
2, 6200, Note_off_c, 1, 37, 0
2, 6200, Note_off_c, 1, 41, 0
2, 6200, Note_off_c, 1, 44, 0
2, 6200, Note_off_c, 1, 49, 0
2, 6240, Note_off_c, 1, 73, 0
2, 6320, Note_on_c, 1, 71, 127
2, 6440, Note_off_c, 1, 71, 0
2, 6480, Note_on_c, 1, 69, 127
2, 6640, Note_on_c, 1, 68, 127
2, 6760, Note_off_c, 1, 68, 0
2, 6760, Note_off_c, 1, 69, 0
2, 6800, Note_on_c, 1, 66, 127
2, 6800, Note_on_c, 1, 69, 127
2, 6800, Note_on_c, 1, 73, 127
2, 6800, Note_on_c, 1, 78, 127
2, 6920, Note_off_c, 1, 66, 0
2, 6960, Note_on_c, 1, 64, 127
2, 7080, Note_off_c, 1, 64, 0
2, 7080, Note_off_c, 1, 69, 0
2, 7080, Note_off_c, 1, 73, 0
2, 7080, Note_off_c, 1, 78, 0
2, 7120, Note_on_c, 1, 62, 127
2, 7120, Note_on_c, 1, 69, 127
2, 7120, Note_on_c, 1, 73, 127
2, 7120, Note_on_c, 1, 78, 127
2, 7240, Note_off_c, 1, 62, 0
2, 7280, Note_on_c, 1, 61, 127
2, 7400, Note_off_c, 1, 61, 0
2, 7400, Note_off_c, 1, 69, 0
2, 7400, Note_off_c, 1, 73, 0
2, 7400, Note_off_c, 1, 78, 0
2, 7440, Note_on_c, 1, 59, 127
2, 7440, Note_on_c, 1, 71, 127
2, 7440, Note_on_c, 1, 74, 127
2, 7560, Note_off_c, 1, 59, 0
2, 7560, Note_off_c, 1, 74, 0
2, 7600, Note_on_c, 1, 61, 127
2, 7600, Note_on_c, 1, 76, 127
2, 7720, Note_off_c, 1, 61, 0
2, 7720, Note_off_c, 1, 76, 0
2, 7760, Note_on_c, 1, 59, 127
2, 7760, Note_on_c, 1, 74, 127
2, 7880, Note_off_c, 1, 59, 0
2, 7880, Note_off_c, 1, 71, 0
2, 7880, Note_off_c, 1, 74, 0
2, 7920, Note_on_c, 1, 57, 127
2, 7920, Note_on_c, 1, 73, 127
2, 8040, Note_off_c, 1, 57, 0
2, 8040, Note_off_c, 1, 73, 0
2, 8080, Note_on_c, 1, 56, 127
2, 8080, Note_on_c, 1, 71, 127
2, 8200, Note_off_c, 1, 56, 0
2, 8200, Note_off_c, 1, 71, 0
2, 8240, Note_on_c, 1, 54, 127
2, 8240, Note_on_c, 1, 69, 127
2, 8360, Note_off_c, 1, 54, 0
2, 8360, Note_off_c, 1, 69, 0
2, 8400, Note_on_c, 1, 52, 127
2, 8400, Note_on_c, 1, 68, 127
2, 8520, Note_off_c, 1, 52, 0
2, 8560, Note_on_c, 1, 66, 127
2, 8680, Note_off_c, 1, 66, 0
2, 8680, Note_off_c, 1, 68, 0
2, 8720, Note_on_c, 1, 64, 127
2, 8720, Note_on_c, 1, 68, 127
2, 8720, Note_on_c, 1, 71, 127
2, 8720, Note_on_c, 1, 76, 127
2, 8840, Note_off_c, 1, 64, 0
2, 8880, Note_on_c, 1, 62, 127
2, 9000, Note_off_c, 1, 62, 0
2, 9000, Note_off_c, 1, 68, 0
2, 9000, Note_off_c, 1, 71, 0
2, 9000, Note_off_c, 1, 76, 0
2, 9040, Note_on_c, 1, 61, 127
2, 9040, Note_on_c, 1, 68, 127
2, 9040, Note_on_c, 1, 71, 127
2, 9040, Note_on_c, 1, 76, 127
2, 9160, Note_off_c, 1, 61, 0
2, 9200, Note_on_c, 1, 59, 127
2, 9320, Note_off_c, 1, 59, 0
2, 9320, Note_off_c, 1, 68, 0
2, 9320, Note_off_c, 1, 71, 0
2, 9320, Note_off_c, 1, 76, 0
2, 9360, Note_on_c, 1, 57, 127
2, 9360, Note_on_c, 1, 69, 127
2, 9360, Note_on_c, 1, 73, 127
2, 9480, Note_off_c, 1, 57, 0
2, 9480, Note_off_c, 1, 73, 0
2, 9560, Note_on_c, 1, 59, 127
2, 9560, Note_on_c, 1, 74, 127
2, 9640, Note_off_c, 1, 59, 0
2, 9640, Note_off_c, 1, 74, 0
2, 9720, Note_on_c, 1, 57, 127
2, 9720, Note_on_c, 1, 73, 127
2, 9800, Note_off_c, 1, 69, 0
2, 9840, Note_off_c, 1, 57, 0
2, 9840, Note_off_c, 1, 73, 0
2, 9880, Note_on_c, 1, 56, 127
2, 9880, Note_on_c, 1, 71, 127
2, 10000, Note_off_c, 1, 56, 0
2, 10000, Note_off_c, 1, 71, 0
2, 10040, Note_on_c, 1, 54, 127
2, 10040, Note_on_c, 1, 69, 127
2, 10160, Note_off_c, 1, 54, 0
2, 10160, Note_off_c, 1, 69, 0
2, 10200, Note_on_c, 1, 52, 127
2, 10200, Note_on_c, 1, 68, 127
2, 10320, Note_off_c, 1, 52, 0
2, 10320, Note_off_c, 1, 68, 0
2, 10360, Note_on_c, 1, 50, 127
2, 10360, Note_on_c, 1, 66, 127
2, 10480, Note_off_c, 1, 50, 0
2, 10520, Note_on_c, 1, 64, 127
2, 10640, Note_off_c, 1, 64, 0
2, 10640, Note_off_c, 1, 66, 0
2, 10680, Note_on_c, 1, 62, 127
2, 10680, Note_on_c, 1, 66, 127
2, 10680, Note_on_c, 1, 69, 127
2, 10680, Note_on_c, 1, 74, 127
2, 10800, Note_off_c, 1, 62, 0
2, 10840, Note_on_c, 1, 61, 127
2, 10960, Note_off_c, 1, 61, 0
2, 10960, Note_off_c, 1, 66, 0
2, 10960, Note_off_c, 1, 69, 0
2, 10960, Note_off_c, 1, 74, 0
2, 11000, Note_on_c, 1, 59, 127
2, 11000, Note_on_c, 1, 66, 127
2, 11000, Note_on_c, 1, 69, 127
2, 11000, Note_on_c, 1, 74, 127
2, 11120, Note_off_c, 1, 59, 0
2, 11160, Note_on_c, 1, 57, 127
2, 11280, Note_off_c, 1, 57, 0
2, 11280, Note_off_c, 1, 66, 0
2, 11280, Note_off_c, 1, 69, 0
2, 11280, Note_off_c, 1, 74, 0
2, 11320, Note_on_c, 1, 56, 127
2, 11320, Note_on_c, 1, 66, 127
2, 11320, Note_on_c, 1, 71, 127
2, 11440, Note_off_c, 1, 56, 0
2, 11440, Note_off_c, 1, 71, 0
2, 11480, Note_on_c, 1, 57, 127
2, 11480, Note_on_c, 1, 73, 127
2, 11600, Note_off_c, 1, 57, 0
2, 11600, Note_off_c, 1, 73, 0
2, 11640, Note_on_c, 1, 56, 127
2, 11640, Note_on_c, 1, 71, 127
2, 11760, Note_off_c, 1, 56, 0
2, 11760, Note_off_c, 1, 71, 0
2, 11800, Note_on_c, 1, 54, 127
2, 11800, Note_on_c, 1, 69, 127
2, 11920, Note_off_c, 1, 54, 0
2, 11920, Note_off_c, 1, 66, 0
2, 11920, Note_off_c, 1, 69, 0
2, 11960, Note_on_c, 1, 53, 127
2, 11960, Note_on_c, 1, 68, 127
2, 12080, Note_off_c, 1, 53, 0
2, 12080, Note_off_c, 1, 68, 0
2, 12120, Note_on_c, 1, 51, 127
2, 12120, Note_on_c, 1, 66, 127
2, 12240, Note_off_c, 1, 51, 0
2, 12240, Note_off_c, 1, 66, 0
2, 12280, Note_on_c, 1, 49, 127
2, 12280, Note_on_c, 1, 65, 127
2, 12400, Note_off_c, 1, 49, 0
2, 12440, Note_on_c, 1, 50, 127
2, 12560, Note_off_c, 1, 50, 0
2, 12560, Note_off_c, 1, 65, 0
2, 12600, Note_on_c, 1, 49, 127
2, 12600, Note_on_c, 1, 65, 127
2, 12600, Note_on_c, 1, 68, 127
2, 12600, Note_on_c, 1, 73, 127
2, 12720, Note_off_c, 1, 49, 0
2, 12800, Note_on_c, 1, 47, 127
2, 12880, Note_off_c, 1, 65, 0
2, 12880, Note_off_c, 1, 68, 0
2, 12880, Note_off_c, 1, 73, 0
2, 12920, Note_off_c, 1, 47, 0
2, 12960, Note_on_c, 1, 45, 127
2, 12960, Note_on_c, 1, 65, 127
2, 12960, Note_on_c, 1, 68, 127
2, 12960, Note_on_c, 1, 73, 127
2, 13080, Note_off_c, 1, 45, 0
2, 13120, Note_on_c, 1, 44, 127
2, 13240, Note_off_c, 1, 44, 0
2, 13240, Note_off_c, 1, 65, 0
2, 13240, Note_off_c, 1, 68, 0
2, 13240, Note_off_c, 1, 73, 0
2, 13280, Note_on_c, 1, 42, 127
2, 13280, Note_on_c, 1, 61, 127
2, 13280, Note_on_c, 1, 66, 127
2, 13280, Note_on_c, 1, 69, 127
2, 13400, Note_off_c, 1, 42, 0
2, 13440, Note_on_c, 1, 44, 127
2, 13560, Note_off_c, 1, 44, 0
2, 13560, Note_off_c, 1, 66, 0
2, 13560, Note_off_c, 1, 69, 0
2, 13600, Note_on_c, 1, 42, 127
2, 13600, Note_on_c, 1, 66, 127
2, 13600, Note_on_c, 1, 69, 127
2, 13720, Note_off_c, 1, 42, 0
2, 13760, Note_on_c, 1, 40, 127
2, 13880, Note_off_c, 1, 40, 0
2, 13880, Note_off_c, 1, 66, 0
2, 13880, Note_off_c, 1, 69, 0
2, 13920, Note_on_c, 1, 38, 127
2, 13920, Note_on_c, 1, 66, 127
2, 13920, Note_on_c, 1, 69, 127
2, 14040, Note_off_c, 1, 38, 0
2, 14080, Note_on_c, 1, 37, 127
2, 14200, Note_off_c, 1, 37, 0
2, 14200, Note_off_c, 1, 61, 0
2, 14200, Note_off_c, 1, 66, 0
2, 14200, Note_off_c, 1, 69, 0
2, 14240, Note_on_c, 1, 35, 127
2, 14240, Note_on_c, 1, 62, 127
2, 14240, Note_on_c, 1, 69, 127
2, 14360, Note_off_c, 1, 62, 0
2, 14400, Note_on_c, 1, 61, 127
2, 14520, Note_off_c, 1, 35, 0
2, 14520, Note_off_c, 1, 61, 0
2, 14560, Note_on_c, 1, 47, 127
2, 14560, Note_on_c, 1, 62, 127
2, 14680, Note_off_c, 1, 62, 0
2, 14720, Note_on_c, 1, 64, 127
2, 14840, Note_off_c, 1, 47, 0
2, 14840, Note_off_c, 1, 64, 0
2, 14880, Note_on_c, 1, 47, 127
2, 14880, Note_on_c, 1, 66, 127
2, 15000, Note_off_c, 1, 66, 0
2, 15040, Note_on_c, 1, 62, 127
2, 15160, Note_off_c, 1, 47, 0
2, 15160, Note_off_c, 1, 62, 0
2, 15160, Note_off_c, 1, 69, 0
2, 15200, Note_on_c, 1, 40, 127
2, 15200, Note_on_c, 1, 59, 127
2, 15200, Note_on_c, 1, 68, 127
2, 15320, Note_off_c, 1, 59, 0
2, 15360, Note_on_c, 1, 66, 127
2, 15480, Note_off_c, 1, 40, 0
2, 15480, Note_off_c, 1, 66, 0
2, 15520, Note_on_c, 1, 52, 127
2, 15520, Note_on_c, 1, 64, 127
2, 15640, Note_off_c, 1, 64, 0
2, 15680, Note_on_c, 1, 62, 127
2, 15800, Note_off_c, 1, 52, 0
2, 15800, Note_off_c, 1, 62, 0
2, 15880, Note_on_c, 1, 52, 127
2, 15880, Note_on_c, 1, 61, 127
2, 15960, Note_off_c, 1, 61, 0
2, 16040, Note_on_c, 1, 59, 127
2, 16120, Note_off_c, 1, 52, 0
2, 16120, Note_off_c, 1, 59, 0
2, 16200, Note_on_c, 1, 57, 127
2, 16200, Note_on_c, 1, 61, 127
2, 16320, Note_off_c, 1, 61, 0
2, 16360, Note_on_c, 1, 59, 127
2, 16480, Note_off_c, 1, 57, 0
2, 16480, Note_off_c, 1, 59, 0
2, 16520, Note_on_c, 1, 45, 127
2, 16520, Note_on_c, 1, 61, 127
2, 16640, Note_off_c, 1, 61, 0
2, 16680, Note_on_c, 1, 62, 127
2, 16800, Note_off_c, 1, 45, 0
2, 16800, Note_off_c, 1, 62, 0
2, 16840, Note_on_c, 1, 45, 127
2, 16840, Note_on_c, 1, 64, 127
2, 16960, Note_off_c, 1, 64, 0
2, 17000, Note_on_c, 1, 61, 127
2, 17120, Note_off_c, 1, 45, 0
2, 17120, Note_off_c, 1, 61, 0
2, 17120, Note_off_c, 1, 68, 0
2, 17160, Note_on_c, 1, 38, 127
2, 17160, Note_on_c, 1, 57, 127
2, 17160, Note_on_c, 1, 66, 127
2, 17280, Note_off_c, 1, 57, 0
2, 17320, Note_on_c, 1, 64, 127
2, 17440, Note_off_c, 1, 38, 0
2, 17440, Note_off_c, 1, 64, 0
2, 17480, Note_on_c, 1, 50, 127
2, 17480, Note_on_c, 1, 62, 127
2, 17600, Note_off_c, 1, 62, 0
2, 17640, Note_on_c, 1, 61, 127
2, 17760, Note_off_c, 1, 50, 0
2, 17760, Note_off_c, 1, 61, 0
2, 17800, Note_on_c, 1, 50, 127
2, 17800, Note_on_c, 1, 59, 127
2, 17920, Note_off_c, 1, 59, 0
2, 17960, Note_on_c, 1, 57, 127
2, 18080, Note_off_c, 1, 50, 0
2, 18080, Note_off_c, 1, 57, 0
2, 18120, Note_on_c, 1, 56, 127
2, 18120, Note_on_c, 1, 59, 127
2, 18240, Note_off_c, 1, 59, 0
2, 18280, Note_on_c, 1, 57, 127
2, 18400, Note_off_c, 1, 56, 0
2, 18400, Note_off_c, 1, 57, 0
2, 18440, Note_on_c, 1, 44, 127
2, 18440, Note_on_c, 1, 59, 127
2, 18560, Note_off_c, 1, 59, 0
2, 18600, Note_on_c, 1, 61, 127
2, 18720, Note_off_c, 1, 44, 0
2, 18720, Note_off_c, 1, 61, 0
2, 18760, Note_on_c, 1, 44, 127
2, 18760, Note_on_c, 1, 62, 127
2, 18880, Note_off_c, 1, 62, 0
2, 18920, Note_on_c, 1, 59, 127
2, 19040, Note_off_c, 1, 44, 0
2, 19040, Note_off_c, 1, 59, 0
2, 19040, Note_off_c, 1, 66, 0
2, 19080, Note_on_c, 1, 37, 127
2, 19080, Note_on_c, 1, 56, 127
2, 19080, Note_on_c, 1, 65, 127
2, 19200, Note_off_c, 1, 56, 0
2, 19280, Note_on_c, 1, 62, 127
2, 19360, Note_off_c, 1, 62, 0
2, 19440, Note_on_c, 1, 61, 127
2, 19520, Note_off_c, 1, 37, 0
2, 19560, Note_off_c, 1, 61, 0
2, 19600, Note_on_c, 1, 59, 127
2, 19720, Note_off_c, 1, 59, 0
2, 19760, Note_on_c, 1, 57, 127
2, 19880, Note_off_c, 1, 57, 0
2, 19920, Note_on_c, 1, 56, 127
2, 20040, Note_off_c, 1, 56, 0
2, 20040, Note_off_c, 1, 65, 0
2, 20080, Note_on_c, 1, 57, 127
2, 20080, Note_on_c, 1, 68, 127
2, 20120, Note_off_c, 1, 68, 0
2, 20160, Note_on_c, 1, 66, 127
2, 20200, Note_off_c, 1, 57, 0
2, 20200, Note_off_c, 1, 66, 0
2, 20240, Note_on_c, 1, 61, 127
2, 20240, Note_on_c, 1, 65, 127
2, 20280, Note_off_c, 1, 65, 0
2, 20320, Note_on_c, 1, 66, 127
2, 20360, Note_off_c, 1, 61, 0
2, 20360, Note_off_c, 1, 66, 0
2, 20400, Note_on_c, 1, 59, 127
2, 20400, Note_on_c, 1, 68, 127
2, 20440, Note_off_c, 1, 68, 0
2, 20480, Note_on_c, 1, 66, 127
2, 20520, Note_off_c, 1, 59, 0
2, 20520, Note_off_c, 1, 66, 0
2, 20560, Note_on_c, 1, 57, 127
2, 20560, Note_on_c, 1, 68, 127
2, 20600, Note_off_c, 1, 68, 0
2, 20640, Note_on_c, 1, 66, 127
2, 20680, Note_off_c, 1, 57, 0
2, 20680, Note_off_c, 1, 66, 0
2, 20720, Note_on_c, 1, 56, 127
2, 20720, Note_on_c, 1, 68, 127
2, 20760, Note_off_c, 1, 68, 0
2, 20800, Note_on_c, 1, 66, 127
2, 20840, Note_off_c, 1, 56, 0
2, 20840, Note_off_c, 1, 66, 0
2, 20880, Note_on_c, 1, 54, 127
2, 20880, Note_on_c, 1, 65, 127
2, 20920, Note_off_c, 1, 65, 0
2, 20960, Note_on_c, 1, 66, 127
2, 21000, Note_off_c, 1, 54, 0
2, 21000, Note_off_c, 1, 66, 0
2, 21040, Note_on_c, 1, 53, 127
2, 21040, Note_on_c, 1, 68, 127
2, 21160, Note_off_c, 1, 53, 0
2, 21200, Note_on_c, 1, 54, 127
2, 21320, Note_off_c, 1, 54, 0
2, 21320, Note_off_c, 1, 68, 0
2, 21360, Note_on_c, 1, 53, 127
2, 21360, Note_on_c, 1, 65, 127
2, 21360, Note_on_c, 1, 68, 127
2, 21360, Note_on_c, 1, 73, 127
2, 21480, Note_off_c, 1, 53, 0
2, 21520, Note_on_c, 1, 51, 127
2, 21640, Note_off_c, 1, 51, 0
2, 21640, Note_off_c, 1, 65, 0
2, 21640, Note_off_c, 1, 68, 0
2, 21640, Note_off_c, 1, 73, 0
2, 21680, Note_on_c, 1, 49, 127
2, 21680, Note_on_c, 1, 65, 127
2, 21680, Note_on_c, 1, 68, 127
2, 21680, Note_on_c, 1, 73, 127
2, 21800, Note_off_c, 1, 49, 0
2, 21840, Note_on_c, 1, 47, 127
2, 21960, Note_off_c, 1, 47, 0
2, 21960, Note_off_c, 1, 65, 0
2, 21960, Note_off_c, 1, 68, 0
2, 21960, Note_off_c, 1, 73, 0
2, 22000, Note_on_c, 1, 46, 127
2, 22000, Note_on_c, 1, 66, 127
2, 22000, Note_on_c, 1, 70, 127
2, 22000, Note_on_c, 1, 73, 127
2, 22000, Note_on_c, 1, 76, 127
2, 22120, Note_off_c, 1, 46, 0
2, 22160, Note_on_c, 1, 44, 127
2, 22280, Note_off_c, 1, 44, 0
2, 22280, Note_off_c, 1, 66, 0
2, 22280, Note_off_c, 1, 70, 0
2, 22280, Note_off_c, 1, 73, 0
2, 22280, Note_off_c, 1, 76, 0
2, 22320, Note_on_c, 1, 42, 127
2, 22320, Note_on_c, 1, 66, 127
2, 22320, Note_on_c, 1, 70, 127
2, 22320, Note_on_c, 1, 73, 127
2, 22320, Note_on_c, 1, 76, 127
2, 22440, Note_off_c, 1, 42, 0
2, 22520, Note_on_c, 1, 40, 127
2, 22600, Note_off_c, 1, 66, 0
2, 22600, Note_off_c, 1, 70, 0
2, 22600, Note_off_c, 1, 73, 0
2, 22600, Note_off_c, 1, 76, 0
2, 22640, Note_off_c, 1, 40, 0
2, 22680, Note_on_c, 1, 39, 127
2, 22680, Note_on_c, 1, 66, 127
2, 22680, Note_on_c, 1, 70, 127
2, 22680, Note_on_c, 1, 73, 127
2, 22680, Note_on_c, 1, 76, 127
2, 22800, Note_off_c, 1, 39, 0
2, 22840, Note_on_c, 1, 37, 127
2, 22960, Note_off_c, 1, 37, 0
2, 22960, Note_off_c, 1, 66, 0
2, 22960, Note_off_c, 1, 70, 0
2, 22960, Note_off_c, 1, 73, 0
2, 22960, Note_off_c, 1, 76, 0
2, 23000, Note_on_c, 1, 35, 127
2, 23000, Note_on_c, 1, 66, 127
2, 23000, Note_on_c, 1, 70, 127
2, 23000, Note_on_c, 1, 73, 127
2, 23000, Note_on_c, 1, 76, 127
2, 23280, Note_off_c, 1, 35, 0
2, 23280, Note_off_c, 1, 70, 0
2, 23280, Note_off_c, 1, 73, 0
2, 23280, Note_off_c, 1, 76, 0
2, 23320, Note_on_c, 1, 54, 127
2, 23320, Note_on_c, 1, 71, 127
2, 23320, Note_on_c, 1, 75, 127
2, 23440, Note_off_c, 1, 54, 0
2, 23480, Note_on_c, 1, 52, 127
2, 23560, Note_off_c, 1, 66, 0
2, 23560, Note_off_c, 1, 71, 0
2, 23560, Note_off_c, 1, 75, 0
2, 23600, Note_off_c, 1, 52, 0
2, 23640, Note_on_c, 1, 51, 127
2, 23640, Note_on_c, 1, 66, 127
2, 23640, Note_on_c, 1, 71, 127
2, 23640, Note_on_c, 1, 75, 127
2, 23760, Note_off_c, 1, 51, 0
2, 23800, Note_on_c, 1, 49, 127
2, 23920, Note_off_c, 1, 49, 0
2, 23920, Note_off_c, 1, 66, 0
2, 23920, Note_off_c, 1, 71, 0
2, 23920, Note_off_c, 1, 75, 0
2, 23960, Note_on_c, 1, 48, 127
2, 23960, Note_on_c, 1, 68, 127
2, 23960, Note_on_c, 1, 72, 127
2, 23960, Note_on_c, 1, 75, 127
2, 23960, Note_on_c, 1, 78, 127
2, 24080, Note_off_c, 1, 48, 0
2, 24120, Note_on_c, 1, 46, 127
2, 24240, Note_off_c, 1, 46, 0
2, 24240, Note_off_c, 1, 68, 0
2, 24240, Note_off_c, 1, 72, 0
2, 24240, Note_off_c, 1, 75, 0
2, 24240, Note_off_c, 1, 78, 0
2, 24280, Note_on_c, 1, 44, 127
2, 24280, Note_on_c, 1, 68, 127
2, 24280, Note_on_c, 1, 72, 127
2, 24280, Note_on_c, 1, 75, 127
2, 24280, Note_on_c, 1, 78, 127
2, 24400, Note_off_c, 1, 44, 0
2, 24440, Note_on_c, 1, 42, 127
2, 24560, Note_off_c, 1, 42, 0
2, 24560, Note_off_c, 1, 68, 0
2, 24560, Note_off_c, 1, 72, 0
2, 24560, Note_off_c, 1, 75, 0
2, 24560, Note_off_c, 1, 78, 0
2, 24600, Note_on_c, 1, 41, 127
2, 24600, Note_on_c, 1, 68, 127
2, 24600, Note_on_c, 1, 72, 127
2, 24600, Note_on_c, 1, 75, 127
2, 24600, Note_on_c, 1, 78, 127
2, 24720, Note_off_c, 1, 41, 0
2, 24760, Note_on_c, 1, 39, 127
2, 24880, Note_off_c, 1, 39, 0
2, 24880, Note_off_c, 1, 68, 0
2, 24880, Note_off_c, 1, 72, 0
2, 24880, Note_off_c, 1, 75, 0
2, 24880, Note_off_c, 1, 78, 0
2, 24920, Note_on_c, 1, 37, 127
2, 24920, Note_on_c, 1, 68, 127
2, 24920, Note_on_c, 1, 72, 127
2, 24920, Note_on_c, 1, 75, 127
2, 24920, Note_on_c, 1, 78, 127
2, 25200, Note_off_c, 1, 37, 0
2, 25200, Note_off_c, 1, 72, 0
2, 25200, Note_off_c, 1, 75, 0
2, 25200, Note_off_c, 1, 78, 0
2, 25240, Note_on_c, 1, 59, 127
2, 25240, Note_on_c, 1, 73, 127
2, 25240, Note_on_c, 1, 77, 127
2, 25360, Note_off_c, 1, 59, 0
2, 25400, Note_on_c, 1, 57, 127
2, 25520, Note_off_c, 1, 57, 0
2, 25520, Note_off_c, 1, 68, 0
2, 25520, Note_off_c, 1, 73, 0
2, 25520, Note_off_c, 1, 77, 0
2, 25560, Note_on_c, 1, 56, 127
2, 25560, Note_on_c, 1, 68, 127
2, 25560, Note_on_c, 1, 73, 127
2, 25560, Note_on_c, 1, 77, 127
2, 25680, Note_off_c, 1, 56, 0
2, 25760, Note_on_c, 1, 54, 127
2, 25840, Note_off_c, 1, 54, 0
2, 25840, Note_off_c, 1, 68, 0
2, 25840, Note_off_c, 1, 73, 0
2, 25840, Note_off_c, 1, 77, 0
2, 25920, Note_on_c, 1, 53, 127
2, 25920, Note_on_c, 1, 71, 127
2, 25920, Note_on_c, 1, 73, 127
2, 25920, Note_on_c, 1, 80, 127
2, 26040, Note_off_c, 1, 53, 0
2, 26080, Note_on_c, 1, 51, 127
2, 26200, Note_off_c, 1, 51, 0
2, 26200, Note_off_c, 1, 71, 0
2, 26200, Note_off_c, 1, 73, 0
2, 26200, Note_off_c, 1, 80, 0
2, 26240, Note_on_c, 1, 49, 127
2, 26240, Note_on_c, 1, 71, 127
2, 26240, Note_on_c, 1, 73, 127
2, 26240, Note_on_c, 1, 80, 127
2, 26360, Note_off_c, 1, 49, 0
2, 26400, Note_on_c, 1, 47, 127
2, 26520, Note_off_c, 1, 47, 0
2, 26520, Note_off_c, 1, 71, 0
2, 26520, Note_off_c, 1, 73, 0
2, 26520, Note_off_c, 1, 80, 0
2, 26560, Note_on_c, 1, 45, 127
2, 26560, Note_on_c, 1, 71, 127
2, 26560, Note_on_c, 1, 73, 127
2, 26560, Note_on_c, 1, 80, 127
2, 26680, Note_off_c, 1, 45, 0
2, 26720, Note_on_c, 1, 44, 127
2, 26840, Note_off_c, 1, 44, 0
2, 26840, Note_off_c, 1, 71, 0
2, 26840, Note_off_c, 1, 73, 0
2, 26840, Note_off_c, 1, 80, 0
2, 26880, Note_on_c, 1, 42, 127
2, 26880, Note_on_c, 1, 71, 127
2, 26880, Note_on_c, 1, 73, 127
2, 26880, Note_on_c, 1, 80, 127
2, 27000, Note_off_c, 1, 42, 0
2, 27040, Note_on_c, 1, 41, 127
2, 27160, Note_off_c, 1, 41, 0
2, 27160, Note_off_c, 1, 71, 0
2, 27160, Note_off_c, 1, 80, 0
2, 27200, Note_on_c, 1, 42, 127
2, 27200, Note_on_c, 1, 69, 127
2, 27200, Note_on_c, 1, 78, 127
2, 27320, Note_off_c, 1, 42, 0
2, 27360, Note_on_c, 1, 44, 127
2, 27480, Note_off_c, 1, 44, 0
2, 27480, Note_off_c, 1, 69, 0
2, 27480, Note_off_c, 1, 73, 0
2, 27480, Note_off_c, 1, 78, 0
2, 27520, Note_on_c, 1, 45, 127
2, 27520, Note_on_c, 1, 66, 127
2, 27520, Note_on_c, 1, 73, 127
2, 27520, Note_on_c, 1, 76, 127
2, 27640, Note_off_c, 1, 45, 0
2, 27680, Note_on_c, 1, 42, 127
2, 27800, Note_off_c, 1, 42, 0
2, 27800, Note_off_c, 1, 66, 0
2, 27800, Note_off_c, 1, 73, 0
2, 27800, Note_off_c, 1, 76, 0
2, 27840, Note_on_c, 1, 47, 127
2, 27840, Note_on_c, 1, 66, 127
2, 27840, Note_on_c, 1, 71, 127
2, 27840, Note_on_c, 1, 74, 127
2, 27960, Note_off_c, 1, 47, 0
2, 28000, Note_on_c, 1, 45, 127
2, 28120, Note_off_c, 1, 45, 0
2, 28120, Note_off_c, 1, 71, 0
2, 28120, Note_off_c, 1, 74, 0
2, 28160, Note_on_c, 1, 47, 127
2, 28160, Note_on_c, 1, 69, 127
2, 28160, Note_on_c, 1, 73, 127
2, 28280, Note_off_c, 1, 47, 0
2, 28320, Note_on_c, 1, 49, 127
2, 28440, Note_off_c, 1, 49, 0
2, 28440, Note_off_c, 1, 69, 0
2, 28440, Note_off_c, 1, 73, 0
2, 28480, Note_on_c, 1, 50, 127
2, 28480, Note_on_c, 1, 68, 127
2, 28480, Note_on_c, 1, 71, 127
2, 28600, Note_off_c, 1, 50, 0
2, 28640, Note_on_c, 1, 47, 127
2, 28760, Note_off_c, 1, 47, 0
2, 28760, Note_off_c, 1, 66, 0
2, 28800, Note_on_c, 1, 49, 127
2, 28800, Note_on_c, 1, 65, 127
2, 28840, Note_off_c, 1, 68, 0
2, 28920, Note_off_c, 1, 49, 0
2, 28920, Note_on_c, 1, 68, 127
2, 28920, Note_off_c, 1, 71, 0
2, 29000, Note_on_c, 1, 51, 127
2, 29000, Note_on_c, 1, 71, 127
2, 29120, Note_off_c, 1, 51, 0
2, 29160, Note_on_c, 1, 53, 127
2, 29280, Note_off_c, 1, 53, 0
2, 29280, Note_off_c, 1, 71, 0
2, 29320, Note_on_c, 1, 49, 127
2, 29320, Note_on_c, 1, 73, 127
2, 29400, Note_off_c, 1, 68, 0
2, 29440, Note_off_c, 1, 49, 0
2, 29440, Note_off_c, 1, 65, 0
2, 29440, Note_off_c, 1, 73, 0
2, 29480, Note_on_c, 1, 54, 127
2, 29480, Note_on_c, 1, 61, 127
2, 29480, Note_on_c, 1, 66, 127
2, 29480, Note_on_c, 1, 71, 127
2, 29600, Note_off_c, 1, 71, 0
2, 29640, Note_on_c, 1, 69, 127
2, 29760, Note_off_c, 1, 54, 0
2, 29760, Note_off_c, 1, 61, 0
2, 29800, Note_on_c, 1, 47, 127
2, 29920, Note_off_c, 1, 69, 0
2, 29960, Note_on_c, 1, 68, 127
2, 30080, Note_off_c, 1, 47, 0
2, 30080, Note_off_c, 1, 66, 0
2, 30080, Note_off_c, 1, 68, 0
2, 30120, Note_on_c, 1, 49, 127
2, 30120, Note_on_c, 1, 65, 127
2, 30120, Note_on_c, 1, 69, 127
2, 30160, Note_off_c, 1, 69, 0
2, 30200, Note_on_c, 1, 68, 127
2, 30240, Note_off_c, 1, 68, 0
2, 30280, Note_on_c, 1, 69, 127
2, 30320, Note_off_c, 1, 69, 0
2, 30360, Note_on_c, 1, 68, 127
2, 30400, Note_off_c, 1, 49, 0
2, 30400, Note_off_c, 1, 68, 0
2, 30440, Note_on_c, 1, 37, 127
2, 30440, Note_on_c, 1, 69, 127
2, 30480, Note_off_c, 1, 69, 0
2, 30520, Note_on_c, 1, 68, 127
2, 30560, Note_off_c, 1, 68, 0
2, 30600, Note_on_c, 1, 66, 127
2, 30720, Note_off_c, 1, 37, 0
2, 30720, Note_off_c, 1, 65, 0
2, 30720, Note_off_c, 1, 66, 0
2, 30760, Note_on_c, 1, 42, 127
2, 30760, Note_on_c, 1, 66, 127
2, 30880, Note_off_c, 1, 66, 0
2, 30960, Note_on_c, 1, 68, 127
2, 31080, Note_off_c, 1, 68, 0
2, 31120, Note_on_c, 1, 69, 127
2, 31240, Note_off_c, 1, 69, 0
2, 31280, Note_on_c, 1, 66, 127
2, 31320, Note_off_c, 1, 42, 0
2, 31400, Note_off_c, 1, 66, 0
2, 31440, Note_on_c, 1, 65, 127
2, 31560, Note_off_c, 1, 65, 0
2, 31600, Note_on_c, 1, 66, 127
2, 31720, Note_off_c, 1, 66, 0
2, 31760, Note_on_c, 1, 61, 127
2, 31920, Note_on_c, 1, 66, 127
2, 32040, Note_off_c, 1, 61, 0
2, 32040, Note_off_c, 1, 66, 0
2, 32080, Note_on_c, 1, 69, 127
2, 32200, Note_off_c, 1, 69, 0
2, 32240, Note_on_c, 1, 66, 127
2, 32360, Note_off_c, 1, 66, 0
2, 32400, Note_on_c, 1, 72, 127
2, 32520, Note_off_c, 1, 72, 0
2, 32560, Note_on_c, 1, 66, 127
2, 32680, Note_off_c, 1, 66, 0
2, 32720, Note_on_c, 1, 73, 127
2, 32880, Note_on_c, 1, 61, 127
2, 32920, Note_off_c, 1, 61, 0
2, 32960, Note_on_c, 1, 63, 127
2, 33000, Note_off_c, 1, 63, 0
2, 33000, Note_off_c, 1, 73, 0
2, 33040, Note_on_c, 1, 64, 127
2, 33040, Note_on_c, 1, 80, 127
2, 33160, Note_off_c, 1, 64, 0
2, 33200, Note_on_c, 1, 61, 127
2, 33320, Note_off_c, 1, 61, 0
2, 33320, Note_off_c, 1, 80, 0
2, 33360, Note_on_c, 1, 60, 127
2, 33360, Note_on_c, 1, 80, 127
2, 33480, Note_off_c, 1, 60, 0
2, 33520, Note_on_c, 1, 61, 127
2, 33640, Note_off_c, 1, 61, 0
2, 33640, Note_off_c, 1, 80, 0
2, 33680, Note_on_c, 1, 56, 127
2, 33680, Note_on_c, 1, 76, 127
2, 33800, Note_off_c, 1, 56, 0
2, 33840, Note_on_c, 1, 61, 127
2, 33960, Note_off_c, 1, 61, 0
2, 33960, Note_off_c, 1, 76, 0
2, 34040, Note_on_c, 1, 64, 127
2, 34040, Note_on_c, 1, 73, 127
2, 34120, Note_off_c, 1, 64, 0
2, 34200, Note_on_c, 1, 61, 127
2, 34320, Note_off_c, 1, 61, 0
2, 34320, Note_off_c, 1, 73, 0
2, 34360, Note_on_c, 1, 67, 127
2, 34360, Note_on_c, 1, 73, 127
2, 34480, Note_off_c, 1, 67, 0
2, 34520, Note_on_c, 1, 61, 127
2, 34640, Note_off_c, 1, 61, 0
2, 34640, Note_off_c, 1, 73, 0
2, 34680, Note_on_c, 1, 68, 127
2, 34680, Note_on_c, 1, 73, 127
2, 34800, Note_off_c, 1, 73, 0
2, 34840, Note_on_c, 1, 70, 127
2, 34960, Note_off_c, 1, 68, 0
2, 34960, Note_off_c, 1, 70, 0
2, 35000, Note_on_c, 1, 68, 127
2, 35000, Note_on_c, 1, 71, 127
2, 35120, Note_off_c, 1, 71, 0
2, 35160, Note_on_c, 1, 75, 127
2, 35280, Note_off_c, 1, 68, 0
2, 35280, Note_off_c, 1, 75, 0
2, 35320, Note_on_c, 1, 68, 127
2, 35320, Note_on_c, 1, 76, 127
2, 35440, Note_off_c, 1, 76, 0
2, 35480, Note_on_c, 1, 71, 127
2, 35600, Note_off_c, 1, 68, 0
2, 35600, Note_off_c, 1, 71, 0
2, 35640, Note_on_c, 1, 68, 127
2, 35640, Note_on_c, 1, 69, 127
2, 35760, Note_off_c, 1, 69, 0
2, 35800, Note_on_c, 1, 71, 127
2, 35920, Note_off_c, 1, 68, 0
2, 35920, Note_off_c, 1, 71, 0
2, 35960, Note_on_c, 1, 66, 127
2, 35960, Note_on_c, 1, 73, 127
2, 36080, Note_off_c, 1, 73, 0
2, 36120, Note_on_c, 1, 69, 127
2, 36240, Note_off_c, 1, 66, 0
2, 36240, Note_off_c, 1, 69, 0
2, 36280, Note_on_c, 1, 66, 127
2, 36280, Note_on_c, 1, 74, 127
2, 36400, Note_off_c, 1, 74, 0
2, 36440, Note_on_c, 1, 69, 127
2, 36560, Note_off_c, 1, 66, 0
2, 36560, Note_off_c, 1, 69, 0
2, 36600, Note_on_c, 1, 66, 127
2, 36600, Note_on_c, 1, 68, 127
2, 36720, Note_off_c, 1, 68, 0
2, 36760, Note_on_c, 1, 71, 127
2, 36880, Note_off_c, 1, 66, 0
2, 36880, Note_off_c, 1, 71, 0
2, 36920, Note_on_c, 1, 64, 127
2, 36920, Note_on_c, 1, 73, 127
2, 37040, Note_off_c, 1, 73, 0
2, 37080, Note_on_c, 1, 74, 127
2, 37200, Note_off_c, 1, 64, 0
2, 37200, Note_off_c, 1, 74, 0
2, 37280, Note_on_c, 1, 64, 127
2, 37280, Note_on_c, 1, 76, 127
2, 37360, Note_off_c, 1, 76, 0
2, 37440, Note_on_c, 1, 73, 127
2, 37560, Note_off_c, 1, 73, 0
2, 37600, Note_on_c, 1, 71, 127
2, 37640, Note_off_c, 1, 64, 0
2, 37720, Note_off_c, 1, 71, 0
2, 37760, Note_on_c, 1, 64, 127
2, 37760, Note_on_c, 1, 70, 127
2, 37880, Note_off_c, 1, 64, 0
2, 37880, Note_off_c, 1, 70, 0
2, 37920, Note_on_c, 1, 62, 127
2, 37920, Note_on_c, 1, 71, 127
2, 38040, Note_off_c, 1, 62, 0
2, 38080, Note_on_c, 1, 61, 127
2, 38200, Note_off_c, 1, 61, 0
2, 38200, Note_off_c, 1, 71, 0
2, 38240, Note_on_c, 1, 59, 127
2, 38240, Note_on_c, 1, 71, 127
2, 38360, Note_off_c, 1, 59, 0
2, 38400, Note_on_c, 1, 62, 127
2, 38520, Note_off_c, 1, 62, 0
2, 38520, Note_off_c, 1, 71, 0
2, 38560, Note_on_c, 1, 55, 127
2, 38560, Note_on_c, 1, 71, 127
2, 38680, Note_off_c, 1, 71, 0
2, 38720, Note_on_c, 1, 73, 127
2, 38840, Note_off_c, 1, 55, 0
2, 38840, Note_off_c, 1, 73, 0
2, 38880, Note_on_c, 1, 59, 127
2, 38880, Note_on_c, 1, 74, 127
2, 39000, Note_off_c, 1, 74, 0
2, 39040, Note_on_c, 1, 71, 127
2, 39160, Note_off_c, 1, 59, 0
2, 39160, Note_off_c, 1, 71, 0
2, 39200, Note_on_c, 1, 62, 127
2, 39200, Note_on_c, 1, 77, 127
2, 39320, Note_off_c, 1, 77, 0
2, 39360, Note_on_c, 1, 71, 127
2, 39480, Note_off_c, 1, 62, 0
2, 39480, Note_off_c, 1, 71, 0
2, 39520, Note_on_c, 1, 53, 127
2, 39520, Note_on_c, 1, 80, 127
2, 39640, Note_off_c, 1, 80, 0
2, 39680, Note_on_c, 1, 74, 127
2, 39800, Note_off_c, 1, 53, 0
2, 39800, Note_off_c, 1, 74, 0
2, 39840, Note_on_c, 1, 56, 127
2, 39840, Note_on_c, 1, 73, 127
2, 39960, Note_off_c, 1, 73, 0
2, 40000, Note_on_c, 1, 71, 127
2, 40120, Note_off_c, 1, 56, 0
2, 40120, Note_off_c, 1, 71, 0
2, 40160, Note_on_c, 1, 61, 127
2, 40160, Note_on_c, 1, 69, 127
2, 40280, Note_off_c, 1, 69, 0
2, 40320, Note_on_c, 1, 68, 127
2, 40440, Note_off_c, 1, 61, 0
2, 40440, Note_off_c, 1, 68, 0
2, 40520, Note_on_c, 1, 66, 127
2, 40520, Note_on_c, 1, 69, 127
2, 40680, Note_on_c, 1, 54, 127
2, 40720, Note_off_c, 1, 54, 0
2, 40760, Note_on_c, 1, 56, 127
2, 40800, Note_off_c, 1, 56, 0
2, 40800, Note_off_c, 1, 66, 0
2, 40800, Note_off_c, 1, 69, 0
2, 40840, Note_on_c, 1, 57, 127
2, 40840, Note_on_c, 1, 66, 127
2, 40840, Note_on_c, 1, 73, 127
2, 40960, Note_off_c, 1, 57, 0
2, 41000, Note_on_c, 1, 54, 127
2, 41120, Note_off_c, 1, 54, 0
2, 41120, Note_off_c, 1, 66, 0
2, 41120, Note_off_c, 1, 73, 0
2, 41160, Note_on_c, 1, 53, 127
2, 41160, Note_on_c, 1, 68, 127
2, 41160, Note_on_c, 1, 72, 127
2, 41160, Note_on_c, 1, 73, 127
2, 41280, Note_off_c, 1, 53, 0
2, 41320, Note_on_c, 1, 54, 127
2, 41440, Note_off_c, 1, 54, 0
2, 41440, Note_off_c, 1, 68, 0
2, 41440, Note_off_c, 1, 72, 0
2, 41440, Note_off_c, 1, 73, 0
2, 41480, Note_on_c, 1, 49, 127
2, 41480, Note_on_c, 1, 68, 127
2, 41480, Note_on_c, 1, 69, 127
2, 41600, Note_off_c, 1, 49, 0
2, 41640, Note_on_c, 1, 54, 127
2, 41760, Note_off_c, 1, 54, 0
2, 41760, Note_off_c, 1, 68, 0
2, 41760, Note_off_c, 1, 69, 0
2, 41800, Note_on_c, 1, 57, 127
2, 41800, Note_on_c, 1, 66, 127
2, 41800, Note_on_c, 1, 69, 127
2, 41920, Note_off_c, 1, 57, 0
2, 41960, Note_on_c, 1, 54, 127
2, 42080, Note_off_c, 1, 54, 0
2, 42080, Note_off_c, 1, 66, 0
2, 42080, Note_off_c, 1, 69, 0
2, 42120, Note_on_c, 1, 60, 127
2, 42120, Note_on_c, 1, 66, 127
2, 42120, Note_on_c, 1, 69, 127
2, 42240, Note_off_c, 1, 60, 0
2, 42280, Note_on_c, 1, 54, 127
2, 42400, Note_off_c, 1, 54, 0
2, 42400, Note_off_c, 1, 66, 0
2, 42400, Note_off_c, 1, 69, 0
2, 42440, Note_on_c, 1, 61, 127
2, 42440, Note_on_c, 1, 66, 127
2, 42440, Note_on_c, 1, 68, 127
2, 42560, Note_off_c, 1, 68, 0
2, 42600, Note_on_c, 1, 80, 127
2, 42720, Note_off_c, 1, 66, 0
2, 42720, Note_off_c, 1, 80, 0
2, 42760, Note_on_c, 1, 64, 127
2, 42760, Note_on_c, 1, 73, 127
2, 42880, Note_off_c, 1, 73, 0
2, 42920, Note_on_c, 1, 80, 127
2, 43040, Note_off_c, 1, 61, 0
2, 43040, Note_off_c, 1, 64, 0
2, 43040, Note_off_c, 1, 80, 0
2, 43080, Note_on_c, 1, 63, 127
2, 43080, Note_on_c, 1, 72, 127
2, 43200, Note_off_c, 1, 72, 0
2, 43240, Note_on_c, 1, 78, 127
2, 43360, Note_off_c, 1, 63, 0
2, 43360, Note_off_c, 1, 78, 0
2, 43400, Note_on_c, 1, 49, 127
2, 43400, Note_on_c, 1, 61, 127
2, 43400, Note_on_c, 1, 76, 127
2, 43520, Note_off_c, 1, 76, 0
2, 43560, Note_on_c, 1, 80, 127
2, 43680, Note_off_c, 1, 49, 0
2, 43680, Note_off_c, 1, 61, 0
2, 43680, Note_off_c, 1, 80, 0
2, 43760, Note_on_c, 1, 64, 127
2, 43760, Note_on_c, 1, 73, 127
2, 43840, Note_off_c, 1, 73, 0
2, 43920, Note_on_c, 1, 80, 127
2, 44040, Note_off_c, 1, 64, 0
2, 44040, Note_off_c, 1, 80, 0
2, 44080, Note_on_c, 1, 63, 127
2, 44080, Note_on_c, 1, 72, 127
2, 44200, Note_off_c, 1, 72, 0
2, 44240, Note_on_c, 1, 78, 127
2, 44360, Note_off_c, 1, 63, 0
2, 44360, Note_off_c, 1, 78, 0
2, 44400, Note_on_c, 1, 61, 127
2, 44400, Note_on_c, 1, 76, 127
2, 44520, Note_off_c, 1, 76, 0
2, 44560, Note_on_c, 1, 73, 127
2, 44680, Note_off_c, 1, 73, 0
2, 44720, Note_on_c, 1, 54, 127
2, 44720, Note_on_c, 1, 70, 127
2, 44840, Note_off_c, 1, 70, 0
2, 44880, Note_on_c, 1, 76, 127
2, 45000, Note_off_c, 1, 54, 0
2, 45000, Note_off_c, 1, 76, 0
2, 45040, Note_on_c, 1, 56, 127
2, 45040, Note_on_c, 1, 68, 127
2, 45160, Note_off_c, 1, 68, 0
2, 45200, Note_on_c, 1, 76, 127
2, 45320, Note_off_c, 1, 56, 0
2, 45320, Note_off_c, 1, 76, 0
2, 45360, Note_on_c, 1, 58, 127
2, 45360, Note_on_c, 1, 66, 127
2, 45480, Note_off_c, 1, 66, 0
2, 45520, Note_on_c, 1, 76, 127
2, 45640, Note_off_c, 1, 58, 0
2, 45640, Note_off_c, 1, 76, 0
2, 45680, Note_on_c, 1, 56, 127
2, 45680, Note_on_c, 1, 68, 127
2, 45800, Note_off_c, 1, 68, 0
2, 45840, Note_on_c, 1, 76, 127
2, 45960, Note_off_c, 1, 56, 0
2, 45960, Note_off_c, 1, 76, 0
2, 46000, Note_on_c, 1, 54, 127
2, 46000, Note_on_c, 1, 70, 127
2, 46120, Note_off_c, 1, 70, 0
2, 46160, Note_on_c, 1, 76, 127
2, 46280, Note_off_c, 1, 54, 0
2, 46280, Note_off_c, 1, 61, 0
2, 46280, Note_off_c, 1, 76, 0
2, 46320, Note_on_c, 1, 59, 127
2, 46320, Note_on_c, 1, 74, 127
2, 46440, Note_off_c, 1, 74, 0
2, 46480, Note_on_c, 1, 78, 127
2, 46600, Note_off_c, 1, 78, 0
2, 46640, Note_on_c, 1, 62, 127
2, 46640, Note_on_c, 1, 71, 127
2, 46760, Note_off_c, 1, 71, 0
2, 46800, Note_on_c, 1, 78, 127
2, 46920, Note_off_c, 1, 59, 0
2, 46920, Note_off_c, 1, 62, 0
2, 46920, Note_off_c, 1, 78, 0
2, 46960, Note_on_c, 1, 61, 127
2, 46960, Note_on_c, 1, 70, 127
2, 47080, Note_off_c, 1, 70, 0
2, 47160, Note_on_c, 1, 76, 127
2, 47240, Note_off_c, 1, 61, 0
2, 47280, Note_off_c, 1, 76, 0
2, 47320, Note_on_c, 1, 47, 127
2, 47320, Note_on_c, 1, 59, 127
2, 47320, Note_on_c, 1, 74, 127
2, 47440, Note_off_c, 1, 74, 0
2, 47480, Note_on_c, 1, 78, 127
2, 47600, Note_off_c, 1, 47, 0
2, 47600, Note_off_c, 1, 59, 0
2, 47600, Note_off_c, 1, 78, 0
2, 47640, Note_on_c, 1, 62, 127
2, 47640, Note_on_c, 1, 71, 127
2, 47760, Note_off_c, 1, 71, 0
2, 47800, Note_on_c, 1, 78, 127
2, 47920, Note_off_c, 1, 62, 0
2, 47920, Note_off_c, 1, 78, 0
2, 47960, Note_on_c, 1, 61, 127
2, 47960, Note_on_c, 1, 70, 127
2, 48080, Note_off_c, 1, 70, 0
2, 48120, Note_on_c, 1, 76, 127
2, 48240, Note_off_c, 1, 61, 0
2, 48240, Note_off_c, 1, 76, 0
2, 48280, Note_on_c, 1, 59, 127
2, 48280, Note_on_c, 1, 74, 127
2, 48400, Note_off_c, 1, 74, 0
2, 48440, Note_on_c, 1, 71, 127
2, 48560, Note_off_c, 1, 71, 0
2, 48600, Note_on_c, 1, 52, 127
2, 48600, Note_on_c, 1, 68, 127
2, 48720, Note_off_c, 1, 68, 0
2, 48760, Note_on_c, 1, 74, 127
2, 48880, Note_off_c, 1, 52, 0
2, 48880, Note_off_c, 1, 74, 0
2, 48920, Note_on_c, 1, 54, 127
2, 48920, Note_on_c, 1, 66, 127
2, 49040, Note_off_c, 1, 66, 0
2, 49080, Note_on_c, 1, 74, 127
2, 49200, Note_off_c, 1, 54, 0
2, 49200, Note_off_c, 1, 74, 0
2, 49240, Note_on_c, 1, 56, 127
2, 49240, Note_on_c, 1, 64, 127
2, 49360, Note_off_c, 1, 64, 0
2, 49400, Note_on_c, 1, 74, 127
2, 49520, Note_off_c, 1, 56, 0
2, 49520, Note_off_c, 1, 74, 0
2, 49560, Note_on_c, 1, 54, 127
2, 49560, Note_on_c, 1, 66, 127
2, 49680, Note_off_c, 1, 66, 0
2, 49720, Note_on_c, 1, 74, 127
2, 49840, Note_off_c, 1, 54, 0
2, 49840, Note_off_c, 1, 74, 0
2, 49880, Note_on_c, 1, 52, 127
2, 49880, Note_on_c, 1, 68, 127
2, 50000, Note_off_c, 1, 68, 0
2, 50040, Note_on_c, 1, 74, 127
2, 50160, Note_off_c, 1, 52, 0
2, 50160, Note_off_c, 1, 59, 0
2, 50160, Note_off_c, 1, 74, 0
2, 50240, Note_on_c, 1, 57, 127
2, 50240, Note_on_c, 1, 73, 127
2, 50320, Note_off_c, 1, 57, 0
2, 50400, Note_on_c, 1, 59, 127
2, 50520, Note_off_c, 1, 59, 0
2, 50520, Note_off_c, 1, 73, 0
2, 50560, Note_on_c, 1, 61, 127
2, 50560, Note_on_c, 1, 76, 127
2, 50680, Note_off_c, 1, 61, 0
2, 50720, Note_on_c, 1, 57, 127
2, 50840, Note_off_c, 1, 57, 0
2, 50840, Note_off_c, 1, 76, 0
2, 50880, Note_on_c, 1, 56, 127
2, 50880, Note_on_c, 1, 76, 127
2, 51000, Note_off_c, 1, 56, 0
2, 51040, Note_on_c, 1, 57, 127
2, 51160, Note_off_c, 1, 57, 0
2, 51160, Note_off_c, 1, 76, 0
2, 51200, Note_on_c, 1, 52, 127
2, 51200, Note_on_c, 1, 73, 127
2, 51320, Note_off_c, 1, 52, 0
2, 51360, Note_on_c, 1, 57, 127
2, 51480, Note_off_c, 1, 57, 0
2, 51480, Note_off_c, 1, 73, 0
2, 51520, Note_on_c, 1, 61, 127
2, 51520, Note_on_c, 1, 69, 127
2, 51520, Note_on_c, 1, 73, 127
2, 51640, Note_off_c, 1, 61, 0
2, 51680, Note_on_c, 1, 57, 127
2, 51800, Note_off_c, 1, 57, 0
2, 51800, Note_off_c, 1, 69, 0
2, 51800, Note_off_c, 1, 73, 0
2, 51840, Note_on_c, 1, 63, 127
2, 51840, Note_on_c, 1, 69, 127
2, 51840, Note_on_c, 1, 73, 127
2, 51960, Note_off_c, 1, 63, 0
2, 52000, Note_on_c, 1, 57, 127
2, 52120, Note_off_c, 1, 57, 0
2, 52120, Note_off_c, 1, 69, 0
2, 52120, Note_off_c, 1, 73, 0
2, 52160, Note_on_c, 1, 64, 127
2, 52160, Note_on_c, 1, 69, 127
2, 52160, Note_on_c, 1, 71, 127
2, 52280, Note_off_c, 1, 71, 0
2, 52320, Note_on_c, 1, 83, 127
2, 52440, Note_off_c, 1, 69, 0
2, 52440, Note_off_c, 1, 83, 0
2, 52480, Note_on_c, 1, 68, 127
2, 52480, Note_on_c, 1, 76, 127
2, 52600, Note_off_c, 1, 76, 0
2, 52640, Note_on_c, 1, 83, 127
2, 52760, Note_off_c, 1, 64, 0
2, 52760, Note_off_c, 1, 68, 0
2, 52760, Note_off_c, 1, 83, 0
2, 52800, Note_on_c, 1, 66, 127
2, 52800, Note_on_c, 1, 75, 127
2, 52920, Note_off_c, 1, 75, 0
2, 52960, Note_on_c, 1, 81, 127
2, 53080, Note_off_c, 1, 66, 0
2, 53080, Note_off_c, 1, 81, 0
2, 53120, Note_on_c, 1, 52, 127
2, 53120, Note_on_c, 1, 64, 127
2, 53120, Note_on_c, 1, 80, 127
2, 53240, Note_off_c, 1, 80, 0
2, 53280, Note_on_c, 1, 83, 127
2, 53400, Note_off_c, 1, 52, 0
2, 53400, Note_off_c, 1, 64, 0
2, 53400, Note_off_c, 1, 83, 0
2, 53480, Note_on_c, 1, 68, 127
2, 53480, Note_on_c, 1, 76, 127
2, 53560, Note_off_c, 1, 76, 0
2, 53640, Note_on_c, 1, 83, 127
2, 53720, Note_off_c, 1, 68, 0
2, 53760, Note_off_c, 1, 83, 0
2, 53800, Note_on_c, 1, 66, 127
2, 53800, Note_on_c, 1, 75, 127
2, 53920, Note_off_c, 1, 75, 0
2, 53960, Note_on_c, 1, 81, 127
2, 54080, Note_off_c, 1, 66, 0
2, 54080, Note_off_c, 1, 81, 0
2, 54120, Note_on_c, 1, 64, 127
2, 54120, Note_on_c, 1, 80, 127
2, 54240, Note_off_c, 1, 80, 0
2, 54280, Note_on_c, 1, 76, 127
2, 54400, Note_off_c, 1, 76, 0
2, 54440, Note_on_c, 1, 57, 127
2, 54440, Note_on_c, 1, 73, 127
2, 54560, Note_off_c, 1, 73, 0
2, 54600, Note_on_c, 1, 79, 127
2, 54720, Note_off_c, 1, 57, 0
2, 54720, Note_off_c, 1, 79, 0
2, 54760, Note_on_c, 1, 59, 127
2, 54760, Note_on_c, 1, 71, 127
2, 54880, Note_off_c, 1, 71, 0
2, 54920, Note_on_c, 1, 79, 127
2, 55040, Note_off_c, 1, 59, 0
2, 55040, Note_off_c, 1, 79, 0
2, 55080, Note_on_c, 1, 61, 127
2, 55080, Note_on_c, 1, 69, 127
2, 55200, Note_off_c, 1, 69, 0
2, 55240, Note_on_c, 1, 79, 127
2, 55360, Note_off_c, 1, 61, 0
2, 55360, Note_off_c, 1, 79, 0
2, 55400, Note_on_c, 1, 59, 127
2, 55400, Note_on_c, 1, 71, 127
2, 55520, Note_off_c, 1, 71, 0
2, 55560, Note_on_c, 1, 79, 127
2, 55680, Note_off_c, 1, 59, 0
2, 55680, Note_off_c, 1, 79, 0
2, 55720, Note_on_c, 1, 57, 127
2, 55720, Note_on_c, 1, 73, 127
2, 55840, Note_off_c, 1, 73, 0
2, 55880, Note_on_c, 1, 79, 127
2, 56000, Note_off_c, 1, 57, 0
2, 56000, Note_off_c, 1, 64, 0
2, 56000, Note_off_c, 1, 79, 0
2, 56040, Note_on_c, 1, 62, 127
2, 56040, Note_on_c, 1, 78, 127
2, 56160, Note_off_c, 1, 78, 0
2, 56200, Note_on_c, 1, 81, 127
2, 56320, Note_off_c, 1, 81, 0
2, 56360, Note_on_c, 1, 66, 127
2, 56360, Note_on_c, 1, 74, 127
2, 56480, Note_off_c, 1, 74, 0
2, 56520, Note_on_c, 1, 81, 127
2, 56640, Note_off_c, 1, 62, 0
2, 56640, Note_off_c, 1, 66, 0
2, 56640, Note_off_c, 1, 81, 0
2, 56720, Note_on_c, 1, 64, 127
2, 56720, Note_on_c, 1, 73, 127
2, 56800, Note_off_c, 1, 73, 0
2, 56880, Note_on_c, 1, 79, 127
2, 57000, Note_off_c, 1, 64, 0
2, 57000, Note_off_c, 1, 79, 0
2, 57040, Note_on_c, 1, 50, 127
2, 57040, Note_on_c, 1, 62, 127
2, 57040, Note_on_c, 1, 78, 127
2, 57160, Note_off_c, 1, 78, 0
2, 57200, Note_on_c, 1, 81, 127
2, 57320, Note_off_c, 1, 50, 0
2, 57320, Note_off_c, 1, 62, 0
2, 57320, Note_off_c, 1, 81, 0
2, 57360, Note_on_c, 1, 66, 127
2, 57360, Note_on_c, 1, 74, 127
2, 57480, Note_off_c, 1, 74, 0
2, 57520, Note_on_c, 1, 81, 127
2, 57640, Note_off_c, 1, 66, 0
2, 57640, Note_off_c, 1, 81, 0
2, 57680, Note_on_c, 1, 64, 127
2, 57680, Note_on_c, 1, 73, 127
2, 57800, Note_off_c, 1, 73, 0
2, 57840, Note_on_c, 1, 79, 127
2, 57960, Note_off_c, 1, 64, 0
2, 57960, Note_off_c, 1, 79, 0
2, 58000, Note_on_c, 1, 62, 127
2, 58000, Note_on_c, 1, 78, 127
2, 58120, Note_off_c, 1, 78, 0
2, 58160, Note_on_c, 1, 74, 127
2, 58280, Note_off_c, 1, 74, 0
2, 58320, Note_on_c, 1, 56, 127
2, 58320, Note_on_c, 1, 71, 127
2, 58440, Note_off_c, 1, 71, 0
2, 58480, Note_on_c, 1, 78, 127
2, 58600, Note_off_c, 1, 56, 0
2, 58600, Note_off_c, 1, 78, 0
2, 58640, Note_on_c, 1, 57, 127
2, 58640, Note_on_c, 1, 69, 127
2, 58760, Note_off_c, 1, 69, 0
2, 58800, Note_on_c, 1, 78, 127
2, 58920, Note_off_c, 1, 57, 0
2, 58920, Note_off_c, 1, 78, 0
2, 58960, Note_on_c, 1, 59, 127
2, 58960, Note_on_c, 1, 68, 127
2, 59080, Note_off_c, 1, 68, 0
2, 59120, Note_on_c, 1, 78, 127
2, 59240, Note_off_c, 1, 59, 0
2, 59240, Note_off_c, 1, 78, 0
2, 59280, Note_on_c, 1, 57, 127
2, 59280, Note_on_c, 1, 69, 127
2, 59400, Note_off_c, 1, 69, 0
2, 59440, Note_on_c, 1, 78, 127
2, 59560, Note_off_c, 1, 57, 0
2, 59560, Note_off_c, 1, 78, 0
2, 59600, Note_on_c, 1, 56, 127
2, 59600, Note_on_c, 1, 71, 127
2, 59720, Note_off_c, 1, 71, 0
2, 59760, Note_on_c, 1, 78, 127
2, 59880, Note_off_c, 1, 56, 0
2, 59880, Note_off_c, 1, 62, 0
2, 59880, Note_off_c, 1, 78, 0
2, 59960, Note_on_c, 1, 61, 127
2, 59960, Note_on_c, 1, 77, 127
2, 60040, Note_off_c, 1, 61, 0
2, 60120, Note_on_c, 1, 59, 127
2, 60240, Note_off_c, 1, 59, 0
2, 60240, Note_off_c, 1, 77, 0
2, 60280, Note_on_c, 1, 57, 127
2, 60280, Note_on_c, 1, 73, 127
2, 60280, Note_on_c, 1, 78, 127
2, 60400, Note_off_c, 1, 57, 0
2, 60440, Note_on_c, 1, 59, 127
2, 60560, Note_off_c, 1, 59, 0
2, 60560, Note_off_c, 1, 73, 0
2, 60560, Note_off_c, 1, 78, 0
2, 60600, Note_on_c, 1, 56, 127
2, 60600, Note_on_c, 1, 71, 127
2, 60600, Note_on_c, 1, 76, 127
2, 60720, Note_off_c, 1, 56, 0
2, 60760, Note_on_c, 1, 57, 127
2, 60880, Note_off_c, 1, 57, 0
2, 60880, Note_off_c, 1, 71, 0
2, 60880, Note_off_c, 1, 76, 0
2, 60920, Note_on_c, 1, 54, 127
2, 60920, Note_on_c, 1, 69, 127
2, 60920, Note_on_c, 1, 74, 127
2, 61040, Note_off_c, 1, 54, 0
2, 61080, Note_on_c, 1, 57, 127
2, 61200, Note_off_c, 1, 57, 0
2, 61200, Note_off_c, 1, 69, 0
2, 61200, Note_off_c, 1, 74, 0
2, 61240, Note_on_c, 1, 52, 127
2, 61240, Note_on_c, 1, 68, 127
2, 61240, Note_on_c, 1, 73, 127
2, 61360, Note_off_c, 1, 52, 0
2, 61400, Note_on_c, 1, 57, 127
2, 61520, Note_off_c, 1, 57, 0
2, 61520, Note_off_c, 1, 68, 0
2, 61520, Note_off_c, 1, 73, 0
2, 61560, Note_on_c, 1, 50, 127
2, 61560, Note_on_c, 1, 66, 127
2, 61560, Note_on_c, 1, 71, 127
2, 61680, Note_off_c, 1, 50, 0
2, 61720, Note_on_c, 1, 57, 127
2, 61840, Note_off_c, 1, 57, 0
2, 61840, Note_off_c, 1, 66, 0
2, 61840, Note_off_c, 1, 71, 0
2, 61880, Note_on_c, 1, 49, 127
2, 61880, Note_on_c, 1, 64, 127
2, 61880, Note_on_c, 1, 69, 127
2, 61880, Note_on_c, 1, 76, 127
2, 62000, Note_off_c, 1, 49, 0
2, 62040, Note_on_c, 1, 57, 127
2, 62160, Note_off_c, 1, 57, 0
2, 62160, Note_off_c, 1, 69, 0
2, 62160, Note_off_c, 1, 76, 0
2, 62200, Note_on_c, 1, 47, 127
2, 62200, Note_on_c, 1, 68, 127
2, 62200, Note_on_c, 1, 74, 127
2, 62320, Note_off_c, 1, 47, 0
2, 62360, Note_on_c, 1, 57, 127
2, 62480, Note_off_c, 1, 57, 0
2, 62480, Note_off_c, 1, 64, 0
2, 62520, Note_on_c, 1, 45, 127
2, 62520, Note_on_c, 1, 64, 127
2, 62520, Note_off_c, 1, 68, 0
2, 62560, Note_off_c, 1, 74, 0
2, 62600, Note_on_c, 1, 69, 127
2, 62640, Note_off_c, 1, 45, 0
2, 62680, Note_on_c, 1, 57, 127
2, 62680, Note_on_c, 1, 73, 127
2, 62800, Note_off_c, 1, 57, 0
2, 62840, Note_on_c, 1, 50, 127
2, 62960, Note_off_c, 1, 64, 0
2, 62960, Note_off_c, 1, 73, 0
2, 63000, Note_on_c, 1, 78, 127
2, 63120, Note_off_c, 1, 50, 0
2, 63120, Note_off_c, 1, 69, 0
2, 63120, Note_off_c, 1, 78, 0
2, 63160, Note_on_c, 1, 52, 127
2, 63160, Note_on_c, 1, 68, 127
2, 63160, Note_on_c, 1, 73, 127
2, 63200, Note_off_c, 1, 73, 0
2, 63280, Note_on_c, 1, 71, 127
2, 63320, Note_off_c, 1, 71, 0
2, 63360, Note_on_c, 1, 73, 127
2, 63400, Note_off_c, 1, 73, 0
2, 63440, Note_off_c, 1, 52, 0
2, 63440, Note_on_c, 1, 71, 127
2, 63480, Note_off_c, 1, 71, 0
2, 63520, Note_on_c, 1, 40, 127
2, 63520, Note_on_c, 1, 73, 127
2, 63560, Note_off_c, 1, 73, 0
2, 63600, Note_off_c, 1, 68, 0
2, 63600, Note_on_c, 1, 71, 127
2, 63640, Note_off_c, 1, 71, 0
2, 63680, Note_on_c, 1, 69, 127
2, 63800, Note_off_c, 1, 40, 0
2, 63800, Note_off_c, 1, 69, 0
2, 63840, Note_on_c, 1, 45, 127
2, 63840, Note_on_c, 1, 69, 127
2, 64120, Note_off_c, 1, 69, 0
2, 64160, Note_on_c, 1, 76, 127
2, 64440, Note_off_c, 1, 76, 0
2, 64480, Note_on_c, 1, 76, 127
2, 64760, Note_off_c, 1, 45, 0
2, 64760, Note_off_c, 1, 76, 0
2, 64800, Note_on_c, 1, 73, 127
2, 65080, Note_off_c, 1, 73, 0
2, 65120, Note_on_c, 1, 69, 127
2, 65120, Note_on_c, 1, 73, 127
2, 65400, Note_off_c, 1, 69, 0
2, 65400, Note_off_c, 1, 73, 0
2, 65440, Note_on_c, 1, 69, 127
2, 65440, Note_on_c, 1, 73, 127
2, 65720, Note_off_c, 1, 69, 0
2, 65720, Note_off_c, 1, 73, 0
2, 65760, Note_on_c, 1, 68, 127
2, 65760, Note_on_c, 1, 71, 127
2, 65880, Note_off_c, 1, 71, 0
2, 65920, Note_on_c, 1, 69, 127
2, 66040, Note_off_c, 1, 68, 0
2, 66040, Note_off_c, 1, 69, 0
2, 66080, Note_on_c, 1, 64, 127
2, 66080, Note_on_c, 1, 68, 127
2, 66080, Note_on_c, 1, 71, 127
2, 66200, Note_off_c, 1, 71, 0
2, 66240, Note_on_c, 1, 73, 127
2, 66360, Note_off_c, 1, 64, 0
2, 66360, Note_off_c, 1, 68, 0
2, 66360, Note_off_c, 1, 73, 0
2, 66440, Note_on_c, 1, 64, 127
2, 66440, Note_on_c, 1, 68, 127
2, 66440, Note_on_c, 1, 71, 127
2, 66520, Note_off_c, 1, 71, 0
2, 66600, Note_on_c, 1, 73, 127
2, 66720, Note_off_c, 1, 64, 0
2, 66720, Note_off_c, 1, 68, 0
2, 66720, Note_off_c, 1, 73, 0
2, 66760, Note_on_c, 1, 61, 127
2, 66760, Note_on_c, 1, 64, 127
2, 66760, Note_on_c, 1, 69, 127
2, 66880, Note_off_c, 1, 69, 0
2, 66920, Note_on_c, 1, 68, 127
2, 67040, Note_off_c, 1, 61, 0
2, 67040, Note_off_c, 1, 64, 0
2, 67040, Note_off_c, 1, 68, 0
2, 67080, Note_on_c, 1, 57, 127
2, 67080, Note_on_c, 1, 61, 127
2, 67080, Note_on_c, 1, 64, 127
2, 67080, Note_on_c, 1, 69, 127
2, 67200, Note_off_c, 1, 69, 0
2, 67240, Note_on_c, 1, 71, 127
2, 67360, Note_off_c, 1, 57, 0
2, 67360, Note_off_c, 1, 61, 0
2, 67360, Note_off_c, 1, 64, 0
2, 67360, Note_off_c, 1, 71, 0
2, 67400, Note_on_c, 1, 57, 127
2, 67400, Note_on_c, 1, 61, 127
2, 67400, Note_on_c, 1, 64, 127
2, 67400, Note_on_c, 1, 73, 127
2, 67520, Note_off_c, 1, 73, 0
2, 67560, Note_on_c, 1, 74, 127
2, 67680, Note_off_c, 1, 57, 0
2, 67680, Note_off_c, 1, 61, 0
2, 67680, Note_off_c, 1, 64, 0
2, 67680, Note_off_c, 1, 74, 0
2, 67720, Note_on_c, 1, 56, 127
2, 67720, Note_on_c, 1, 59, 127
2, 67720, Note_on_c, 1, 64, 127
2, 67720, Note_on_c, 1, 76, 127
2, 67840, Note_off_c, 1, 76, 0
2, 67880, Note_on_c, 1, 75, 127
2, 68000, Note_off_c, 1, 56, 0
2, 68000, Note_off_c, 1, 59, 0
2, 68000, Note_off_c, 1, 64, 0
2, 68000, Note_off_c, 1, 75, 0
2, 68040, Note_on_c, 1, 52, 127
2, 68040, Note_on_c, 1, 56, 127
2, 68040, Note_on_c, 1, 59, 127
2, 68040, Note_on_c, 1, 76, 127
2, 68160, Note_off_c, 1, 76, 0
2, 68200, Note_on_c, 1, 78, 127
2, 68320, Note_off_c, 1, 52, 0
2, 68320, Note_off_c, 1, 56, 0
2, 68320, Note_off_c, 1, 59, 0
2, 68320, Note_off_c, 1, 78, 0
2, 68360, Note_on_c, 1, 52, 127
2, 68360, Note_on_c, 1, 56, 127
2, 68360, Note_on_c, 1, 59, 127
2, 68360, Note_on_c, 1, 80, 127
2, 68480, Note_off_c, 1, 80, 0
2, 68520, Note_on_c, 1, 76, 127
2, 68640, Note_off_c, 1, 52, 0
2, 68640, Note_off_c, 1, 56, 0
2, 68640, Note_off_c, 1, 59, 0
2, 68640, Note_off_c, 1, 76, 0
2, 68680, Note_on_c, 1, 49, 127
2, 68680, Note_on_c, 1, 52, 127
2, 68680, Note_on_c, 1, 57, 127
2, 68680, Note_on_c, 1, 81, 127
2, 68800, Note_off_c, 1, 81, 0
2, 68840, Note_on_c, 1, 80, 127
2, 68960, Note_off_c, 1, 49, 0
2, 68960, Note_off_c, 1, 52, 0
2, 68960, Note_off_c, 1, 57, 0
2, 68960, Note_off_c, 1, 80, 0
2, 69000, Note_on_c, 1, 45, 127
2, 69000, Note_on_c, 1, 49, 127
2, 69000, Note_on_c, 1, 52, 127
2, 69000, Note_on_c, 1, 81, 127
2, 69120, Note_off_c, 1, 81, 0
2, 69160, Note_on_c, 1, 83, 127
2, 69280, Note_off_c, 1, 45, 0
2, 69280, Note_off_c, 1, 49, 0
2, 69280, Note_off_c, 1, 52, 0
2, 69280, Note_off_c, 1, 83, 0
2, 69320, Note_on_c, 1, 45, 127
2, 69320, Note_on_c, 1, 49, 127
2, 69320, Note_on_c, 1, 52, 127
2, 69320, Note_on_c, 1, 80, 127
2, 69440, Note_off_c, 1, 80, 0
2, 69480, Note_on_c, 1, 81, 127
2, 69600, Note_off_c, 1, 45, 0
2, 69600, Note_off_c, 1, 49, 0
2, 69600, Note_off_c, 1, 52, 0
2, 69600, Note_off_c, 1, 81, 0
2, 69680, Note_on_c, 1, 40, 127
2, 69680, Note_on_c, 1, 44, 127
2, 69680, Note_on_c, 1, 47, 127
2, 69680, Note_on_c, 1, 52, 127
2, 69680, Note_on_c, 1, 83, 127
2, 69760, Note_off_c, 1, 83, 0
2, 69840, Note_on_c, 1, 81, 127
2, 69960, Note_off_c, 1, 81, 0
2, 70000, Note_on_c, 1, 80, 127
2, 70120, Note_off_c, 1, 80, 0
2, 70160, Note_on_c, 1, 78, 127
2, 70280, Note_off_c, 1, 78, 0
2, 70320, Note_on_c, 1, 76, 127
2, 70360, Note_off_c, 1, 40, 0
2, 70360, Note_off_c, 1, 44, 0
2, 70360, Note_off_c, 1, 47, 0
2, 70360, Note_off_c, 1, 52, 0
2, 70440, Note_off_c, 1, 76, 0
2, 70480, Note_on_c, 1, 74, 127
2, 70600, Note_off_c, 1, 74, 0
2, 70640, Note_on_c, 1, 73, 127
2, 70800, Note_on_c, 1, 71, 127
2, 70920, Note_off_c, 1, 71, 0
2, 70920, Note_off_c, 1, 73, 0
2, 70960, Note_on_c, 1, 69, 127
2, 70960, Note_on_c, 1, 73, 127
2, 70960, Note_on_c, 1, 76, 127
2, 70960, Note_on_c, 1, 81, 127
2, 71080, Note_off_c, 1, 69, 0
2, 71120, Note_on_c, 1, 68, 127
2, 71240, Note_off_c, 1, 68, 0
2, 71240, Note_off_c, 1, 73, 0
2, 71240, Note_off_c, 1, 76, 0
2, 71240, Note_off_c, 1, 81, 0
2, 71280, Note_on_c, 1, 66, 127
2, 71280, Note_on_c, 1, 73, 127
2, 71280, Note_on_c, 1, 76, 127
2, 71280, Note_on_c, 1, 81, 127
2, 71400, Note_off_c, 1, 66, 0
2, 71440, Note_on_c, 1, 64, 127
2, 71560, Note_off_c, 1, 64, 0
2, 71560, Note_off_c, 1, 73, 0
2, 71560, Note_off_c, 1, 76, 0
2, 71560, Note_off_c, 1, 81, 0
2, 71600, Note_on_c, 1, 62, 127
2, 71600, Note_on_c, 1, 73, 127
2, 71600, Note_on_c, 1, 78, 127
2, 71720, Note_off_c, 1, 62, 0
2, 71720, Note_off_c, 1, 78, 0
2, 71760, Note_on_c, 1, 64, 127
2, 71760, Note_on_c, 1, 80, 127
2, 71880, Note_off_c, 1, 64, 0
2, 71880, Note_off_c, 1, 80, 0
2, 71920, Note_on_c, 1, 62, 127
2, 71920, Note_on_c, 1, 78, 127
2, 72040, Note_off_c, 1, 62, 0
2, 72040, Note_off_c, 1, 73, 0
2, 72040, Note_off_c, 1, 78, 0
2, 72080, Note_on_c, 1, 61, 127
2, 72080, Note_on_c, 1, 76, 127
2, 72200, Note_off_c, 1, 61, 0
2, 72200, Note_off_c, 1, 76, 0
2, 72240, Note_on_c, 1, 59, 127
2, 72240, Note_on_c, 1, 74, 127
2, 72360, Note_off_c, 1, 59, 0
2, 72360, Note_off_c, 1, 74, 0
2, 72400, Note_on_c, 1, 57, 127
2, 72400, Note_on_c, 1, 73, 127
2, 72520, Note_off_c, 1, 57, 0
2, 72520, Note_off_c, 1, 73, 0
2, 72560, Note_on_c, 1, 56, 127
2, 72560, Note_on_c, 1, 71, 127
2, 72680, Note_off_c, 1, 56, 0
2, 72720, Note_on_c, 1, 69, 127
2, 72840, Note_off_c, 1, 69, 0
2, 72840, Note_off_c, 1, 71, 0
2, 72920, Note_on_c, 1, 68, 127
2, 72920, Note_on_c, 1, 71, 127
2, 72920, Note_on_c, 1, 74, 127
2, 72920, Note_on_c, 1, 80, 127
2, 73000, Note_off_c, 1, 68, 0
2, 73080, Note_on_c, 1, 66, 127
2, 73200, Note_off_c, 1, 66, 0
2, 73200, Note_off_c, 1, 71, 0
2, 73200, Note_off_c, 1, 74, 0
2, 73200, Note_off_c, 1, 80, 0
2, 73240, Note_on_c, 1, 64, 127
2, 73240, Note_on_c, 1, 71, 127
2, 73240, Note_on_c, 1, 74, 127
2, 73240, Note_on_c, 1, 80, 127
2, 73360, Note_off_c, 1, 64, 0
2, 73400, Note_on_c, 1, 62, 127
2, 73520, Note_off_c, 1, 62, 0
2, 73520, Note_off_c, 1, 71, 0
2, 73520, Note_off_c, 1, 74, 0
2, 73520, Note_off_c, 1, 80, 0
2, 73560, Note_on_c, 1, 61, 127
2, 73560, Note_on_c, 1, 71, 127
2, 73560, Note_on_c, 1, 76, 127
2, 73680, Note_off_c, 1, 61, 0
2, 73680, Note_off_c, 1, 76, 0
2, 73720, Note_on_c, 1, 62, 127
2, 73720, Note_on_c, 1, 78, 127
2, 73840, Note_off_c, 1, 62, 0
2, 73840, Note_off_c, 1, 78, 0
2, 73880, Note_on_c, 1, 61, 127
2, 73880, Note_on_c, 1, 76, 127
2, 74000, Note_off_c, 1, 61, 0
2, 74000, Note_off_c, 1, 71, 0
2, 74000, Note_off_c, 1, 76, 0
2, 74040, Note_on_c, 1, 59, 127
2, 74040, Note_on_c, 1, 74, 127
2, 74160, Note_off_c, 1, 59, 0
2, 74160, Note_off_c, 1, 74, 0
2, 74200, Note_on_c, 1, 57, 127
2, 74200, Note_on_c, 1, 73, 127
2, 74320, Note_off_c, 1, 57, 0
2, 74320, Note_off_c, 1, 73, 0
2, 74360, Note_on_c, 1, 56, 127
2, 74360, Note_on_c, 1, 71, 127
2, 74480, Note_off_c, 1, 56, 0
2, 74480, Note_off_c, 1, 71, 0
2, 74520, Note_on_c, 1, 54, 127
2, 74520, Note_on_c, 1, 69, 127
2, 74640, Note_off_c, 1, 54, 0
2, 74680, Note_on_c, 1, 68, 127
2, 74800, Note_off_c, 1, 68, 0
2, 74800, Note_off_c, 1, 69, 0
2, 74840, Note_on_c, 1, 66, 127
2, 74840, Note_on_c, 1, 69, 127
2, 74840, Note_on_c, 1, 73, 127
2, 74840, Note_on_c, 1, 78, 127
2, 74960, Note_off_c, 1, 66, 0
2, 75000, Note_on_c, 1, 64, 127
2, 75120, Note_off_c, 1, 64, 0
2, 75120, Note_off_c, 1, 69, 0
2, 75120, Note_off_c, 1, 73, 0
2, 75120, Note_off_c, 1, 78, 0
2, 75160, Note_on_c, 1, 62, 127
2, 75160, Note_on_c, 1, 69, 127
2, 75160, Note_on_c, 1, 73, 127
2, 75160, Note_on_c, 1, 78, 127
2, 75280, Note_off_c, 1, 62, 0
2, 75320, Note_on_c, 1, 61, 127
2, 75440, Note_off_c, 1, 61, 0
2, 75440, Note_off_c, 1, 69, 0
2, 75440, Note_off_c, 1, 73, 0
2, 75440, Note_off_c, 1, 78, 0
2, 75480, Note_on_c, 1, 59, 127
2, 75480, Note_on_c, 1, 69, 127
2, 75480, Note_on_c, 1, 74, 127
2, 75600, Note_off_c, 1, 59, 0
2, 75600, Note_off_c, 1, 74, 0
2, 75640, Note_on_c, 1, 61, 127
2, 75640, Note_on_c, 1, 76, 127
2, 75760, Note_off_c, 1, 61, 0
2, 75760, Note_off_c, 1, 76, 0
2, 75800, Note_on_c, 1, 59, 127
2, 75800, Note_on_c, 1, 74, 127
2, 75920, Note_off_c, 1, 59, 0
2, 75920, Note_off_c, 1, 69, 0
2, 75920, Note_off_c, 1, 74, 0
2, 75960, Note_on_c, 1, 57, 127
2, 75960, Note_on_c, 1, 73, 127
2, 76080, Note_off_c, 1, 57, 0
2, 76080, Note_off_c, 1, 73, 0
2, 76160, Note_on_c, 1, 56, 127
2, 76160, Note_on_c, 1, 71, 127
2, 76240, Note_off_c, 1, 56, 0
2, 76240, Note_off_c, 1, 71, 0
2, 76320, Note_on_c, 1, 54, 127
2, 76320, Note_on_c, 1, 69, 127
2, 76440, Note_off_c, 1, 54, 0
2, 76440, Note_off_c, 1, 69, 0
2, 76480, Note_on_c, 1, 52, 127
2, 76480, Note_on_c, 1, 68, 127
2, 76600, Note_off_c, 1, 52, 0
2, 76640, Note_on_c, 1, 54, 127
2, 76760, Note_off_c, 1, 54, 0
2, 76760, Note_off_c, 1, 68, 0
2, 76800, Note_on_c, 1, 52, 127
2, 76800, Note_on_c, 1, 68, 127
2, 76800, Note_on_c, 1, 71, 127
2, 76800, Note_on_c, 1, 76, 127
2, 76920, Note_off_c, 1, 52, 0
2, 76960, Note_on_c, 1, 50, 127
2, 77080, Note_off_c, 1, 50, 0
2, 77080, Note_off_c, 1, 68, 0
2, 77080, Note_off_c, 1, 71, 0
2, 77080, Note_off_c, 1, 76, 0
2, 77120, Note_on_c, 1, 49, 127
2, 77120, Note_on_c, 1, 68, 127
2, 77120, Note_on_c, 1, 71, 127
2, 77120, Note_on_c, 1, 76, 127
2, 77240, Note_off_c, 1, 49, 0
2, 77280, Note_on_c, 1, 47, 127
2, 77400, Note_off_c, 1, 47, 0
2, 77400, Note_off_c, 1, 68, 0
2, 77400, Note_off_c, 1, 71, 0
2, 77400, Note_off_c, 1, 76, 0
2, 77440, Note_on_c, 1, 45, 127
2, 77440, Note_on_c, 1, 64, 127
2, 77440, Note_on_c, 1, 69, 127
2, 77440, Note_on_c, 1, 73, 127
2, 77560, Note_off_c, 1, 45, 0
2, 77600, Note_on_c, 1, 47, 127
2, 77720, Note_off_c, 1, 47, 0
2, 77720, Note_off_c, 1, 69, 0
2, 77720, Note_off_c, 1, 73, 0
2, 77760, Note_on_c, 1, 45, 127
2, 77760, Note_on_c, 1, 69, 127
2, 77760, Note_on_c, 1, 73, 127
2, 77880, Note_off_c, 1, 45, 0
2, 77920, Note_on_c, 1, 44, 127
2, 78040, Note_off_c, 1, 44, 0
2, 78040, Note_off_c, 1, 69, 0
2, 78040, Note_off_c, 1, 73, 0
2, 78080, Note_on_c, 1, 42, 127
2, 78080, Note_on_c, 1, 69, 127
2, 78080, Note_on_c, 1, 73, 127
2, 78200, Note_off_c, 1, 42, 0
2, 78240, Note_on_c, 1, 40, 127
2, 78360, Note_off_c, 1, 40, 0
2, 78360, Note_off_c, 1, 64, 0
2, 78360, Note_off_c, 1, 69, 0
2, 78360, Note_off_c, 1, 73, 0
2, 78400, Note_on_c, 1, 38, 127
2, 78400, Note_on_c, 1, 66, 127
2, 78400, Note_on_c, 1, 73, 127
2, 78520, Note_off_c, 1, 66, 0
2, 78560, Note_on_c, 1, 64, 127
2, 78680, Note_off_c, 1, 38, 0
2, 78680, Note_off_c, 1, 64, 0
2, 78720, Note_on_c, 1, 50, 127
2, 78720, Note_on_c, 1, 66, 127
2, 78840, Note_off_c, 1, 66, 0
2, 78880, Note_on_c, 1, 68, 127
2, 79000, Note_off_c, 1, 50, 0
2, 79000, Note_off_c, 1, 68, 0
2, 79040, Note_on_c, 1, 50, 127
2, 79040, Note_on_c, 1, 69, 127
2, 79160, Note_off_c, 1, 69, 0
2, 79200, Note_on_c, 1, 66, 127
2, 79320, Note_off_c, 1, 50, 0
2, 79320, Note_off_c, 1, 66, 0
2, 79320, Note_off_c, 1, 73, 0
2, 79360, Note_on_c, 1, 56, 127
2, 79360, Note_on_c, 1, 71, 127
2, 79560, Note_on_c, 1, 69, 127
2, 79640, Note_off_c, 1, 56, 0
2, 79680, Note_off_c, 1, 69, 0
2, 79720, Note_on_c, 1, 44, 127
2, 79720, Note_on_c, 1, 68, 127
2, 79840, Note_off_c, 1, 68, 0
2, 79880, Note_on_c, 1, 66, 127
2, 80000, Note_off_c, 1, 44, 0
2, 80000, Note_off_c, 1, 66, 0
2, 80040, Note_on_c, 1, 44, 127
2, 80040, Note_on_c, 1, 64, 127
2, 80160, Note_off_c, 1, 64, 0
2, 80200, Note_on_c, 1, 62, 127
2, 80320, Note_off_c, 1, 44, 0
2, 80320, Note_off_c, 1, 62, 0
2, 80360, Note_on_c, 1, 37, 127
2, 80360, Note_on_c, 1, 64, 127
2, 80480, Note_off_c, 1, 64, 0
2, 80520, Note_on_c, 1, 62, 127
2, 80640, Note_off_c, 1, 37, 0
2, 80640, Note_off_c, 1, 62, 0
2, 80680, Note_on_c, 1, 49, 127
2, 80680, Note_on_c, 1, 64, 127
2, 80800, Note_off_c, 1, 64, 0
2, 80840, Note_on_c, 1, 66, 127
2, 80960, Note_off_c, 1, 49, 0
2, 80960, Note_off_c, 1, 66, 0
2, 81000, Note_on_c, 1, 49, 127
2, 81000, Note_on_c, 1, 68, 127
2, 81120, Note_off_c, 1, 68, 0
2, 81160, Note_on_c, 1, 64, 127
2, 81280, Note_off_c, 1, 49, 0
2, 81280, Note_off_c, 1, 64, 0
2, 81280, Note_off_c, 1, 71, 0
2, 81320, Note_on_c, 1, 54, 127
2, 81320, Note_on_c, 1, 61, 127
2, 81320, Note_on_c, 1, 69, 127
2, 81440, Note_off_c, 1, 61, 0
2, 81480, Note_on_c, 1, 68, 127
2, 81600, Note_off_c, 1, 54, 0
2, 81600, Note_off_c, 1, 68, 0
2, 81640, Note_on_c, 1, 42, 127
2, 81640, Note_on_c, 1, 66, 127
2, 81760, Note_off_c, 1, 66, 0
2, 81800, Note_on_c, 1, 64, 127
2, 81920, Note_off_c, 1, 42, 0
2, 81920, Note_off_c, 1, 64, 0
2, 81960, Note_on_c, 1, 42, 127
2, 81960, Note_on_c, 1, 62, 127
2, 82080, Note_off_c, 1, 62, 0
2, 82120, Note_on_c, 1, 61, 127
2, 82240, Note_off_c, 1, 42, 0
2, 82240, Note_off_c, 1, 61, 0
2, 82280, Note_on_c, 1, 35, 127
2, 82280, Note_on_c, 1, 62, 127
2, 82400, Note_off_c, 1, 62, 0
2, 82440, Note_on_c, 1, 61, 127
2, 82560, Note_off_c, 1, 35, 0
2, 82560, Note_off_c, 1, 61, 0
2, 82640, Note_on_c, 1, 47, 127
2, 82640, Note_on_c, 1, 62, 127
2, 82720, Note_off_c, 1, 62, 0
2, 82800, Note_on_c, 1, 64, 127
2, 82920, Note_off_c, 1, 47, 0
2, 82920, Note_off_c, 1, 64, 0
2, 82960, Note_on_c, 1, 47, 127
2, 82960, Note_on_c, 1, 66, 127
2, 83080, Note_off_c, 1, 66, 0
2, 83120, Note_on_c, 1, 62, 127
2, 83240, Note_off_c, 1, 47, 0
2, 83240, Note_off_c, 1, 62, 0
2, 83240, Note_off_c, 1, 69, 0
2, 83280, Note_on_c, 1, 52, 127
2, 83280, Note_on_c, 1, 59, 127
2, 83280, Note_on_c, 1, 68, 127
2, 83400, Note_off_c, 1, 59, 0
2, 83440, Note_on_c, 1, 66, 127
2, 83560, Note_off_c, 1, 66, 0
2, 83600, Note_on_c, 1, 64, 127
2, 83720, Note_off_c, 1, 64, 0
2, 83760, Note_on_c, 1, 62, 127
2, 83880, Note_off_c, 1, 62, 0
2, 83920, Note_on_c, 1, 61, 127
2, 84040, Note_off_c, 1, 61, 0
2, 84080, Note_on_c, 1, 59, 127
2, 84200, Note_off_c, 1, 52, 0
2, 84200, Note_off_c, 1, 59, 0
2, 84200, Note_off_c, 1, 68, 0
2, 84240, Note_on_c, 1, 61, 127
2, 84240, Note_on_c, 1, 68, 127
2, 84280, Note_off_c, 1, 68, 0
2, 84320, Note_on_c, 1, 69, 127
2, 84360, Note_off_c, 1, 61, 0
2, 84360, Note_off_c, 1, 69, 0
2, 84400, Note_on_c, 1, 64, 127
2, 84400, Note_on_c, 1, 71, 127
2, 84440, Note_off_c, 1, 71, 0
2, 84480, Note_on_c, 1, 69, 127
2, 84520, Note_off_c, 1, 64, 0
2, 84520, Note_off_c, 1, 69, 0
2, 84560, Note_on_c, 1, 62, 127
2, 84560, Note_on_c, 1, 71, 127
2, 84600, Note_off_c, 1, 71, 0
2, 84640, Note_on_c, 1, 69, 127
2, 84680, Note_off_c, 1, 62, 0
2, 84680, Note_off_c, 1, 69, 0
2, 84720, Note_on_c, 1, 61, 127
2, 84720, Note_on_c, 1, 71, 127
2, 84760, Note_off_c, 1, 71, 0
2, 84800, Note_on_c, 1, 69, 127
2, 84840, Note_off_c, 1, 61, 0
2, 84840, Note_off_c, 1, 69, 0
2, 84880, Note_on_c, 1, 59, 127
2, 84880, Note_on_c, 1, 71, 127
2, 84920, Note_off_c, 1, 71, 0
2, 84960, Note_on_c, 1, 69, 127
2, 85000, Note_off_c, 1, 59, 0
2, 85000, Note_off_c, 1, 69, 0
2, 85040, Note_on_c, 1, 57, 127
2, 85040, Note_on_c, 1, 68, 127
2, 85080, Note_off_c, 1, 68, 0
2, 85120, Note_on_c, 1, 69, 127
2, 85160, Note_off_c, 1, 57, 0
2, 85160, Note_off_c, 1, 69, 0
2, 85200, Note_on_c, 1, 56, 127
2, 85200, Note_on_c, 1, 71, 127
2, 85320, Note_off_c, 1, 56, 0
2, 85360, Note_on_c, 1, 57, 127
2, 85480, Note_off_c, 1, 57, 0
2, 85480, Note_off_c, 1, 71, 0
2, 85520, Note_on_c, 1, 56, 127
2, 85520, Note_on_c, 1, 64, 127
2, 85520, Note_on_c, 1, 68, 127
2, 85520, Note_on_c, 1, 71, 127
2, 85640, Note_off_c, 1, 56, 0
2, 85680, Note_on_c, 1, 54, 127
2, 85800, Note_off_c, 1, 54, 0
2, 85800, Note_off_c, 1, 64, 0
2, 85800, Note_off_c, 1, 68, 0
2, 85800, Note_off_c, 1, 71, 0
2, 85880, Note_on_c, 1, 52, 127
2, 85880, Note_on_c, 1, 64, 127
2, 85880, Note_on_c, 1, 68, 127
2, 85880, Note_on_c, 1, 71, 127
2, 85960, Note_off_c, 1, 52, 0
2, 86040, Note_on_c, 1, 50, 127
2, 86120, Note_off_c, 1, 64, 0
2, 86120, Note_off_c, 1, 68, 0
2, 86120, Note_off_c, 1, 71, 0
2, 86160, Note_off_c, 1, 50, 0
2, 86200, Note_on_c, 1, 49, 127
2, 86200, Note_on_c, 1, 67, 127
2, 86200, Note_on_c, 1, 69, 127
2, 86200, Note_on_c, 1, 76, 127
2, 86320, Note_off_c, 1, 49, 0
2, 86360, Note_on_c, 1, 47, 127
2, 86480, Note_off_c, 1, 47, 0
2, 86480, Note_off_c, 1, 67, 0
2, 86480, Note_off_c, 1, 76, 0
2, 86520, Note_on_c, 1, 45, 127
2, 86520, Note_on_c, 1, 67, 127
2, 86520, Note_on_c, 1, 76, 127
2, 86640, Note_off_c, 1, 45, 0
2, 86680, Note_on_c, 1, 43, 127
2, 86800, Note_off_c, 1, 43, 0
2, 86800, Note_off_c, 1, 67, 0
2, 86800, Note_off_c, 1, 76, 0
2, 86840, Note_on_c, 1, 42, 127
2, 86840, Note_on_c, 1, 67, 127
2, 86840, Note_on_c, 1, 76, 127
2, 86960, Note_off_c, 1, 42, 0
2, 87000, Note_on_c, 1, 40, 127
2, 87120, Note_off_c, 1, 40, 0
2, 87120, Note_off_c, 1, 67, 0
2, 87120, Note_off_c, 1, 76, 0
2, 87160, Note_on_c, 1, 38, 127
2, 87160, Note_on_c, 1, 67, 127
2, 87160, Note_on_c, 1, 76, 127
2, 87440, Note_off_c, 1, 38, 0
2, 87440, Note_off_c, 1, 67, 0
2, 87440, Note_off_c, 1, 76, 0
2, 87480, Note_on_c, 1, 57, 127
2, 87480, Note_on_c, 1, 66, 127
2, 87480, Note_on_c, 1, 74, 127
2, 87600, Note_off_c, 1, 57, 0
2, 87640, Note_on_c, 1, 55, 127
2, 87760, Note_off_c, 1, 55, 0
2, 87760, Note_off_c, 1, 66, 0
2, 87760, Note_off_c, 1, 69, 0
2, 87760, Note_off_c, 1, 74, 0
2, 87800, Note_on_c, 1, 54, 127
2, 87800, Note_on_c, 1, 66, 127
2, 87800, Note_on_c, 1, 69, 127
2, 87800, Note_on_c, 1, 74, 127
2, 87920, Note_off_c, 1, 54, 0
2, 87960, Note_on_c, 1, 52, 127
2, 88080, Note_off_c, 1, 52, 0
2, 88080, Note_off_c, 1, 66, 0
2, 88080, Note_off_c, 1, 69, 0
2, 88080, Note_off_c, 1, 74, 0
2, 88120, Note_on_c, 1, 51, 127
2, 88120, Note_on_c, 1, 69, 127
2, 88120, Note_on_c, 1, 71, 127
2, 88120, Note_on_c, 1, 78, 127
2, 88240, Note_off_c, 1, 51, 0
2, 88280, Note_on_c, 1, 49, 127
2, 88400, Note_off_c, 1, 49, 0
2, 88400, Note_off_c, 1, 69, 0
2, 88400, Note_off_c, 1, 78, 0
2, 88440, Note_on_c, 1, 47, 127
2, 88440, Note_on_c, 1, 69, 127
2, 88440, Note_on_c, 1, 78, 127
2, 88560, Note_off_c, 1, 47, 0
2, 88600, Note_on_c, 1, 45, 127
2, 88720, Note_off_c, 1, 45, 0
2, 88720, Note_off_c, 1, 69, 0
2, 88720, Note_off_c, 1, 78, 0
2, 88760, Note_on_c, 1, 44, 127
2, 88760, Note_on_c, 1, 69, 127
2, 88760, Note_on_c, 1, 78, 127
2, 88880, Note_off_c, 1, 44, 0
2, 88920, Note_on_c, 1, 42, 127
2, 89040, Note_off_c, 1, 42, 0
2, 89040, Note_off_c, 1, 69, 0
2, 89040, Note_off_c, 1, 78, 0
2, 89120, Note_on_c, 1, 40, 127
2, 89120, Note_on_c, 1, 69, 127
2, 89120, Note_on_c, 1, 78, 127
2, 89400, Note_off_c, 1, 40, 0
2, 89400, Note_off_c, 1, 69, 0
2, 89400, Note_off_c, 1, 78, 0
2, 89440, Note_on_c, 1, 62, 127
2, 89440, Note_on_c, 1, 68, 127
2, 89440, Note_on_c, 1, 76, 127
2, 89560, Note_off_c, 1, 62, 0
2, 89600, Note_on_c, 1, 61, 127
2, 89640, Note_off_c, 1, 71, 0
2, 89680, Note_off_c, 1, 68, 0
2, 89680, Note_off_c, 1, 76, 0
2, 89720, Note_off_c, 1, 61, 0
2, 89760, Note_on_c, 1, 59, 127
2, 89760, Note_on_c, 1, 68, 127
2, 89760, Note_on_c, 1, 71, 127
2, 89760, Note_on_c, 1, 76, 127
2, 89880, Note_off_c, 1, 59, 0
2, 89920, Note_on_c, 1, 57, 127
2, 90040, Note_off_c, 1, 57, 0
2, 90040, Note_off_c, 1, 68, 0
2, 90040, Note_off_c, 1, 71, 0
2, 90040, Note_off_c, 1, 76, 0
2, 90080, Note_on_c, 1, 56, 127
2, 90080, Note_on_c, 1, 71, 127
2, 90080, Note_on_c, 1, 74, 127
2, 90080, Note_on_c, 1, 76, 127
2, 90200, Note_off_c, 1, 56, 0
2, 90240, Note_on_c, 1, 54, 127
2, 90360, Note_off_c, 1, 54, 0
2, 90360, Note_off_c, 1, 71, 0
2, 90360, Note_off_c, 1, 74, 0
2, 90400, Note_on_c, 1, 52, 127
2, 90400, Note_on_c, 1, 71, 127
2, 90400, Note_on_c, 1, 74, 127
2, 90520, Note_off_c, 1, 52, 0
2, 90560, Note_on_c, 1, 50, 127
2, 90680, Note_off_c, 1, 50, 0
2, 90680, Note_off_c, 1, 71, 0
2, 90680, Note_off_c, 1, 74, 0
2, 90720, Note_on_c, 1, 49, 127
2, 90720, Note_on_c, 1, 71, 127
2, 90720, Note_on_c, 1, 74, 127
2, 90840, Note_off_c, 1, 49, 0
2, 90880, Note_on_c, 1, 47, 127
2, 91000, Note_off_c, 1, 47, 0
2, 91000, Note_off_c, 1, 71, 0
2, 91000, Note_off_c, 1, 74, 0
2, 91040, Note_on_c, 1, 45, 127
2, 91040, Note_on_c, 1, 71, 127
2, 91040, Note_on_c, 1, 74, 127
2, 91160, Note_off_c, 1, 45, 0
2, 91200, Note_on_c, 1, 44, 127
2, 91320, Note_off_c, 1, 44, 0
2, 91320, Note_off_c, 1, 71, 0
2, 91320, Note_off_c, 1, 74, 0
2, 91360, Note_on_c, 1, 45, 127
2, 91360, Note_on_c, 1, 69, 127
2, 91360, Note_on_c, 1, 73, 127
2, 91480, Note_off_c, 1, 45, 0
2, 91520, Note_on_c, 1, 47, 127
2, 91640, Note_off_c, 1, 47, 0
2, 91640, Note_off_c, 1, 69, 0
2, 91640, Note_off_c, 1, 73, 0
2, 91680, Note_on_c, 1, 49, 127
2, 91680, Note_on_c, 1, 67, 127
2, 91680, Note_on_c, 1, 69, 127
2, 91800, Note_off_c, 1, 49, 0
2, 91840, Note_on_c, 1, 45, 127
2, 91960, Note_off_c, 1, 45, 0
2, 91960, Note_off_c, 1, 67, 0
2, 91960, Note_off_c, 1, 69, 0
2, 91960, Note_off_c, 1, 76, 0
2, 92000, Note_on_c, 1, 50, 127
2, 92000, Note_on_c, 1, 66, 127
2, 92000, Note_on_c, 1, 69, 127
2, 92000, Note_on_c, 1, 74, 127
2, 92120, Note_off_c, 1, 50, 0
2, 92160, Note_on_c, 1, 49, 127
2, 92280, Note_off_c, 1, 49, 0
2, 92280, Note_off_c, 1, 66, 0
2, 92280, Note_off_c, 1, 74, 0
2, 92360, Note_on_c, 1, 50, 127
2, 92360, Note_on_c, 1, 64, 127
2, 92360, Note_on_c, 1, 73, 127
2, 92440, Note_off_c, 1, 50, 0
2, 92520, Note_on_c, 1, 52, 127
2, 92640, Note_off_c, 1, 52, 0
2, 92640, Note_off_c, 1, 64, 0
2, 92640, Note_off_c, 1, 73, 0
2, 92680, Note_on_c, 1, 54, 127
2, 92680, Note_on_c, 1, 62, 127
2, 92680, Note_on_c, 1, 71, 127
2, 92800, Note_off_c, 1, 54, 0
2, 92840, Note_on_c, 1, 50, 127
2, 92960, Note_off_c, 1, 50, 0
2, 92960, Note_off_c, 1, 62, 0
2, 92960, Note_off_c, 1, 69, 0
2, 92960, Note_off_c, 1, 71, 0
2, 93000, Note_on_c, 1, 52, 127
2, 93000, Note_on_c, 1, 62, 127
2, 93000, Note_on_c, 1, 68, 127
2, 93000, Note_on_c, 1, 71, 127
2, 93120, Note_off_c, 1, 52, 0
2, 93160, Note_on_c, 1, 54, 127
2, 93280, Note_off_c, 1, 54, 0
2, 93320, Note_on_c, 1, 56, 127
2, 93440, Note_off_c, 1, 56, 0
2, 93440, Note_off_c, 1, 62, 0
2, 93440, Note_off_c, 1, 71, 0
2, 93480, Note_on_c, 1, 52, 127
2, 93480, Note_on_c, 1, 64, 127
2, 93480, Note_on_c, 1, 73, 127
2, 93600, Note_off_c, 1, 52, 0
2, 93600, Note_off_c, 1, 64, 0
2, 93600, Note_off_c, 1, 68, 0
2, 93600, Note_off_c, 1, 73, 0
2, 93640, Note_on_c, 1, 57, 127
2, 93640, Note_on_c, 1, 61, 127
2, 93720, Note_on_c, 1, 64, 127
2, 93800, Note_on_c, 1, 69, 127
2, 93920, Note_off_c, 1, 57, 0
2, 93920, Note_off_c, 1, 64, 0
2, 93960, Note_on_c, 1, 50, 127
2, 93960, Note_on_c, 1, 66, 127
2, 94080, Note_off_c, 1, 61, 0
2, 94080, Note_off_c, 1, 69, 0
2, 94120, Note_on_c, 1, 62, 127
2, 94120, Note_on_c, 1, 71, 127
2, 94240, Note_off_c, 1, 50, 0
2, 94240, Note_off_c, 1, 62, 0
2, 94240, Note_off_c, 1, 66, 0
2, 94240, Note_off_c, 1, 71, 0
2, 94280, Note_on_c, 1, 52, 127
2, 94280, Note_on_c, 1, 59, 127
2, 94280, Note_on_c, 1, 69, 127
2, 94320, Note_off_c, 1, 69, 0
2, 94360, Note_on_c, 1, 68, 127
2, 94400, Note_off_c, 1, 68, 0
2, 94440, Note_on_c, 1, 69, 127
2, 94480, Note_off_c, 1, 69, 0
2, 94520, Note_on_c, 1, 68, 127
2, 94560, Note_off_c, 1, 52, 0
2, 94560, Note_off_c, 1, 68, 0
2, 94600, Note_on_c, 1, 40, 127
2, 94600, Note_on_c, 1, 69, 127
2, 94640, Note_off_c, 1, 69, 0
2, 94680, Note_on_c, 1, 68, 127
2, 94720, Note_off_c, 1, 68, 0
2, 94760, Note_on_c, 1, 69, 127
2, 94880, Note_off_c, 1, 40, 0
2, 94880, Note_off_c, 1, 59, 0
2, 94880, Note_off_c, 1, 69, 0
2, 94920, Note_on_c, 1, 45, 127
2, 94920, Note_on_c, 1, 61, 127
2, 94920, Note_on_c, 1, 64, 127
2, 94920, Note_on_c, 1, 69, 127
2, 95040, Note_off_c, 1, 69, 0
2, 95120, Note_on_c, 1, 71, 127
2, 95200, Note_off_c, 1, 45, 0
2, 95200, Note_off_c, 1, 61, 0
2, 95200, Note_off_c, 1, 64, 0
2, 95240, Note_off_c, 1, 71, 0
2, 95280, Note_on_c, 1, 64, 127
2, 95280, Note_on_c, 1, 73, 127
2, 95400, Note_off_c, 1, 73, 0
2, 95440, Note_on_c, 1, 69, 127
2, 95560, Note_off_c, 1, 64, 0
2, 95560, Note_off_c, 1, 69, 0
2, 95600, Note_on_c, 1, 64, 127
2, 95600, Note_on_c, 1, 68, 127
2, 95720, Note_off_c, 1, 68, 0
2, 95760, Note_on_c, 1, 69, 127
2, 95880, Note_off_c, 1, 64, 0
2, 95880, Note_off_c, 1, 69, 0
2, 95920, Note_on_c, 1, 61, 127
2, 95920, Note_on_c, 1, 64, 127
2, 96040, Note_off_c, 1, 64, 0
2, 96080, Note_on_c, 1, 69, 127
2, 96200, Note_off_c, 1, 61, 0
2, 96200, Note_off_c, 1, 69, 0
2, 96240, Note_on_c, 1, 57, 127
2, 96240, Note_on_c, 1, 73, 127
2, 96360, Note_off_c, 1, 73, 0
2, 96400, Note_on_c, 1, 69, 127
2, 96520, Note_off_c, 1, 57, 0
2, 96520, Note_off_c, 1, 69, 0
2, 96560, Note_on_c, 1, 57, 127
2, 96560, Note_on_c, 1, 75, 127
2, 96680, Note_off_c, 1, 75, 0
2, 96720, Note_on_c, 1, 69, 127
2, 96840, Note_off_c, 1, 57, 0
2, 96840, Note_off_c, 1, 69, 0
2, 96880, Note_on_c, 1, 56, 127
2, 96880, Note_on_c, 1, 76, 127
2, 97000, Note_off_c, 1, 56, 0
2, 97040, Note_on_c, 1, 54, 127
2, 97160, Note_off_c, 1, 54, 0
2, 97160, Note_off_c, 1, 76, 0
2, 97200, Note_on_c, 1, 56, 127
2, 97200, Note_on_c, 1, 83, 127
2, 97320, Note_off_c, 1, 56, 0
2, 97360, Note_on_c, 1, 52, 127
2, 97480, Note_off_c, 1, 52, 0
2, 97480, Note_off_c, 1, 83, 0
2, 97560, Note_on_c, 1, 51, 127
2, 97560, Note_on_c, 1, 83, 127
2, 97640, Note_off_c, 1, 51, 0
2, 97720, Note_on_c, 1, 52, 127
2, 97840, Note_off_c, 1, 52, 0
2, 97840, Note_off_c, 1, 83, 0
2, 97880, Note_on_c, 1, 47, 127
2, 97880, Note_on_c, 1, 80, 127
2, 98000, Note_off_c, 1, 47, 0
2, 98040, Note_on_c, 1, 52, 127
2, 98160, Note_off_c, 1, 52, 0
2, 98160, Note_off_c, 1, 80, 0
2, 98200, Note_on_c, 1, 56, 127
2, 98200, Note_on_c, 1, 76, 127
2, 98320, Note_off_c, 1, 56, 0
2, 98360, Note_on_c, 1, 52, 127
2, 98480, Note_off_c, 1, 52, 0
2, 98480, Note_off_c, 1, 76, 0
2, 98520, Note_on_c, 1, 58, 127
2, 98520, Note_on_c, 1, 76, 127
2, 98640, Note_off_c, 1, 58, 0
2, 98680, Note_on_c, 1, 52, 127
2, 98800, Note_off_c, 1, 52, 0
2, 98800, Note_off_c, 1, 76, 0
2, 98840, Note_on_c, 1, 59, 127
2, 98840, Note_on_c, 1, 74, 127
2, 98960, Note_off_c, 1, 74, 0
2, 99000, Note_on_c, 1, 73, 127
2, 99120, Note_off_c, 1, 59, 0
2, 99120, Note_off_c, 1, 73, 0
2, 99160, Note_on_c, 1, 54, 127
2, 99160, Note_on_c, 1, 74, 127
2, 99280, Note_off_c, 1, 74, 0
2, 99320, Note_on_c, 1, 71, 127
2, 99440, Note_off_c, 1, 54, 0
2, 99440, Note_off_c, 1, 71, 0
2, 99480, Note_on_c, 1, 54, 127
2, 99480, Note_on_c, 1, 70, 127
2, 99600, Note_off_c, 1, 70, 0
2, 99640, Note_on_c, 1, 71, 127
2, 99760, Note_off_c, 1, 54, 0
2, 99760, Note_off_c, 1, 71, 0
2, 99800, Note_on_c, 1, 50, 127
2, 99800, Note_on_c, 1, 66, 127
2, 99920, Note_off_c, 1, 66, 0
2, 99960, Note_on_c, 1, 71, 127
2, 100080, Note_off_c, 1, 50, 0
2, 100080, Note_off_c, 1, 71, 0
2, 100120, Note_on_c, 1, 47, 127
2, 100120, Note_on_c, 1, 74, 127
2, 100240, Note_off_c, 1, 74, 0
2, 100280, Note_on_c, 1, 71, 127
2, 100400, Note_off_c, 1, 47, 0
2, 100400, Note_off_c, 1, 71, 0
2, 100440, Note_on_c, 1, 47, 127
2, 100440, Note_on_c, 1, 77, 127
2, 100560, Note_off_c, 1, 77, 0
2, 100600, Note_on_c, 1, 71, 127
2, 100720, Note_off_c, 1, 47, 0
2, 100720, Note_off_c, 1, 71, 0
2, 100800, Note_on_c, 1, 45, 127
2, 100800, Note_on_c, 1, 78, 127
2, 100880, Note_off_c, 1, 45, 0
2, 100960, Note_on_c, 1, 44, 127
2, 101080, Note_off_c, 1, 44, 0
2, 101080, Note_off_c, 1, 78, 0
2, 101120, Note_on_c, 1, 45, 127
2, 101120, Note_on_c, 1, 73, 127
2, 101240, Note_off_c, 1, 45, 0
2, 101280, Note_on_c, 1, 42, 127
2, 101400, Note_off_c, 1, 42, 0
2, 101400, Note_off_c, 1, 73, 0
2, 101440, Note_on_c, 1, 41, 127
2, 101440, Note_on_c, 1, 73, 127
2, 101560, Note_off_c, 1, 41, 0
2, 101600, Note_on_c, 1, 42, 127
2, 101720, Note_off_c, 1, 42, 0
2, 101720, Note_off_c, 1, 73, 0
2, 101760, Note_on_c, 1, 37, 127
2, 101760, Note_on_c, 1, 69, 127
2, 101880, Note_off_c, 1, 37, 0
2, 101920, Note_on_c, 1, 42, 127
2, 102040, Note_off_c, 1, 42, 0
2, 102040, Note_off_c, 1, 69, 0
2, 102080, Note_on_c, 1, 45, 127
2, 102080, Note_on_c, 1, 66, 127
2, 102200, Note_off_c, 1, 45, 0
2, 102240, Note_on_c, 1, 42, 127
2, 102360, Note_off_c, 1, 42, 0
2, 102360, Note_off_c, 1, 66, 0
2, 102400, Note_on_c, 1, 48, 127
2, 102400, Note_on_c, 1, 66, 127
2, 102520, Note_off_c, 1, 48, 0
2, 102560, Note_on_c, 1, 42, 127
2, 102680, Note_off_c, 1, 42, 0
2, 102680, Note_off_c, 1, 66, 0
2, 102720, Note_on_c, 1, 49, 127
2, 102720, Note_on_c, 1, 64, 127
2, 102840, Note_off_c, 1, 49, 0
2, 102880, Note_on_c, 1, 51, 127
2, 103000, Note_off_c, 1, 51, 0
2, 103000, Note_off_c, 1, 64, 0
2, 103040, Note_on_c, 1, 52, 127
2, 103040, Note_on_c, 1, 80, 127
2, 103160, Note_off_c, 1, 52, 0
2, 103200, Note_on_c, 1, 49, 127
2, 103320, Note_off_c, 1, 49, 0
2, 103320, Note_off_c, 1, 80, 0
2, 103360, Note_on_c, 1, 48, 127
2, 103360, Note_on_c, 1, 80, 127
2, 103480, Note_off_c, 1, 48, 0
2, 103520, Note_on_c, 1, 49, 127
2, 103640, Note_off_c, 1, 49, 0
2, 103640, Note_off_c, 1, 80, 0
2, 103680, Note_on_c, 1, 44, 127
2, 103680, Note_on_c, 1, 76, 127
2, 103800, Note_off_c, 1, 44, 0
2, 103840, Note_on_c, 1, 49, 127
2, 103960, Note_off_c, 1, 49, 0
2, 103960, Note_off_c, 1, 76, 0
2, 104040, Note_on_c, 1, 52, 127
2, 104040, Note_on_c, 1, 73, 127
2, 104120, Note_off_c, 1, 52, 0
2, 104200, Note_on_c, 1, 49, 127
2, 104320, Note_off_c, 1, 49, 0
2, 104320, Note_off_c, 1, 73, 0
2, 104360, Note_on_c, 1, 55, 127
2, 104360, Note_on_c, 1, 73, 127
2, 104480, Note_off_c, 1, 55, 0
2, 104520, Note_on_c, 1, 49, 127
2, 104640, Note_off_c, 1, 49, 0
2, 104640, Note_off_c, 1, 73, 0
2, 104680, Note_on_c, 1, 56, 127
2, 104680, Note_on_c, 1, 72, 127
2, 104800, Note_off_c, 1, 72, 0
2, 104840, Note_on_c, 1, 70, 127
2, 104960, Note_off_c, 1, 56, 0
2, 104960, Note_off_c, 1, 70, 0
2, 105000, Note_on_c, 1, 68, 127
2, 105000, Note_on_c, 1, 72, 127
2, 105120, Note_off_c, 1, 72, 0
2, 105160, Note_on_c, 1, 73, 127
2, 105280, Note_off_c, 1, 68, 0
2, 105280, Note_off_c, 1, 73, 0
2, 105320, Note_on_c, 1, 68, 127
2, 105320, Note_on_c, 1, 70, 127
2, 105440, Note_off_c, 1, 70, 0
2, 105480, Note_on_c, 1, 72, 127
2, 105600, Note_off_c, 1, 68, 0
2, 105600, Note_off_c, 1, 72, 0
2, 105640, Note_on_c, 1, 64, 127
2, 105640, Note_on_c, 1, 73, 127
2, 105760, Note_off_c, 1, 73, 0
2, 105800, Note_on_c, 1, 72, 127
2, 105920, Note_off_c, 1, 64, 0
2, 105920, Note_off_c, 1, 72, 0
2, 105960, Note_on_c, 1, 61, 127
2, 105960, Note_on_c, 1, 64, 127
2, 105960, Note_on_c, 1, 73, 127
2, 106080, Note_off_c, 1, 73, 0
2, 106120, Note_on_c, 1, 75, 127
2, 106240, Note_off_c, 1, 61, 0
2, 106240, Note_off_c, 1, 64, 0
2, 106240, Note_off_c, 1, 75, 0
2, 106280, Note_on_c, 1, 61, 127
2, 106280, Note_on_c, 1, 64, 127
2, 106280, Note_on_c, 1, 72, 127
2, 106400, Note_off_c, 1, 72, 0
2, 106440, Note_on_c, 1, 73, 127
2, 106560, Note_off_c, 1, 61, 0
2, 106560, Note_off_c, 1, 64, 0
2, 106560, Note_off_c, 1, 73, 0
2, 106600, Note_on_c, 1, 60, 127
2, 106600, Note_on_c, 1, 63, 127
2, 106600, Note_on_c, 1, 75, 127
2, 106720, Note_off_c, 1, 60, 0
2, 106760, Note_on_c, 1, 58, 127
2, 106880, Note_off_c, 1, 58, 0
2, 106880, Note_off_c, 1, 63, 0
2, 106880, Note_off_c, 1, 75, 0
2, 106920, Note_on_c, 1, 56, 127
2, 106920, Note_on_c, 1, 60, 127
2, 106920, Note_on_c, 1, 68, 127
2, 107040, Note_off_c, 1, 60, 0
2, 107080, Note_on_c, 1, 61, 127
2, 107200, Note_off_c, 1, 56, 0
2, 107200, Note_off_c, 1, 61, 0
2, 107200, Note_off_c, 1, 68, 0
2, 107280, Note_on_c, 1, 56, 127
2, 107280, Note_on_c, 1, 58, 127
2, 107360, Note_off_c, 1, 58, 0
2, 107440, Note_on_c, 1, 60, 127
2, 107560, Note_off_c, 1, 56, 0
2, 107560, Note_off_c, 1, 60, 0
2, 107600, Note_on_c, 1, 52, 127
2, 107600, Note_on_c, 1, 56, 127
2, 107600, Note_on_c, 1, 61, 127
2, 107720, Note_off_c, 1, 61, 0
2, 107760, Note_on_c, 1, 60, 127
2, 107880, Note_off_c, 1, 52, 0
2, 107880, Note_off_c, 1, 56, 0
2, 107880, Note_off_c, 1, 60, 0
2, 107920, Note_on_c, 1, 49, 127
2, 107920, Note_on_c, 1, 52, 127
2, 107920, Note_on_c, 1, 56, 127
2, 107920, Note_on_c, 1, 61, 127
2, 108040, Note_off_c, 1, 61, 0
2, 108080, Note_on_c, 1, 63, 127
2, 108200, Note_off_c, 1, 49, 0
2, 108200, Note_off_c, 1, 52, 0
2, 108200, Note_off_c, 1, 56, 0
2, 108200, Note_off_c, 1, 63, 0
2, 108240, Note_on_c, 1, 49, 127
2, 108240, Note_on_c, 1, 52, 127
2, 108240, Note_on_c, 1, 56, 127
2, 108240, Note_on_c, 1, 64, 127
2, 108360, Note_off_c, 1, 64, 0
2, 108400, Note_on_c, 1, 66, 127
2, 108520, Note_off_c, 1, 49, 0
2, 108520, Note_off_c, 1, 52, 0
2, 108520, Note_off_c, 1, 56, 0
2, 108520, Note_off_c, 1, 66, 0
2, 108560, Note_on_c, 1, 48, 127
2, 108560, Note_on_c, 1, 51, 127
2, 108560, Note_on_c, 1, 56, 127
2, 108560, Note_on_c, 1, 68, 127
2, 108680, Note_off_c, 1, 68, 0
2, 108720, Note_on_c, 1, 66, 127
2, 108840, Note_off_c, 1, 48, 0
2, 108840, Note_off_c, 1, 51, 0
2, 108840, Note_off_c, 1, 56, 0
2, 108840, Note_off_c, 1, 66, 0
2, 108880, Note_on_c, 1, 44, 127
2, 108880, Note_on_c, 1, 48, 127
2, 108880, Note_on_c, 1, 51, 127
2, 108880, Note_on_c, 1, 68, 127
2, 109000, Note_off_c, 1, 68, 0
2, 109040, Note_on_c, 1, 70, 127
2, 109160, Note_off_c, 1, 44, 0
2, 109160, Note_off_c, 1, 48, 0
2, 109160, Note_off_c, 1, 51, 0
2, 109160, Note_off_c, 1, 70, 0
2, 109200, Note_on_c, 1, 44, 127
2, 109200, Note_on_c, 1, 48, 127
2, 109200, Note_on_c, 1, 51, 127
2, 109200, Note_on_c, 1, 72, 127
2, 109320, Note_off_c, 1, 72, 0
2, 109360, Note_on_c, 1, 68, 127
2, 109480, Note_off_c, 1, 44, 0
2, 109480, Note_off_c, 1, 48, 0
2, 109480, Note_off_c, 1, 51, 0
2, 109480, Note_off_c, 1, 68, 0
2, 109520, Note_on_c, 1, 40, 127
2, 109520, Note_on_c, 1, 44, 127
2, 109520, Note_on_c, 1, 49, 127
2, 109520, Note_on_c, 1, 73, 127
2, 109640, Note_off_c, 1, 73, 0
2, 109680, Note_on_c, 1, 72, 127
2, 109800, Note_off_c, 1, 40, 0
2, 109800, Note_off_c, 1, 44, 0
2, 109800, Note_off_c, 1, 49, 0
2, 109800, Note_off_c, 1, 72, 0
2, 109840, Note_on_c, 1, 37, 127
2, 109840, Note_on_c, 1, 40, 127
2, 109840, Note_on_c, 1, 44, 127
2, 109840, Note_on_c, 1, 49, 127
2, 109840, Note_on_c, 1, 73, 127
2, 109960, Note_off_c, 1, 73, 0
2, 110000, Note_on_c, 1, 75, 127
2, 110120, Note_off_c, 1, 37, 0
2, 110120, Note_off_c, 1, 40, 0
2, 110120, Note_off_c, 1, 44, 0
2, 110120, Note_off_c, 1, 49, 0
2, 110120, Note_off_c, 1, 75, 0
2, 110160, Note_on_c, 1, 37, 127
2, 110160, Note_on_c, 1, 40, 127
2, 110160, Note_on_c, 1, 44, 127
2, 110160, Note_on_c, 1, 76, 127
2, 110280, Note_off_c, 1, 76, 0
2, 110320, Note_on_c, 1, 78, 127
2, 110440, Note_off_c, 1, 37, 0
2, 110440, Note_off_c, 1, 40, 0
2, 110440, Note_off_c, 1, 44, 0
2, 110440, Note_off_c, 1, 78, 0
2, 110520, Note_on_c, 1, 36, 127
2, 110520, Note_on_c, 1, 39, 127
2, 110520, Note_on_c, 1, 44, 127
2, 110520, Note_on_c, 1, 80, 127
2, 110600, Note_off_c, 1, 80, 0
2, 110680, Note_on_c, 1, 81, 127
2, 110800, Note_off_c, 1, 81, 0
2, 110840, Note_on_c, 1, 68, 127
2, 110840, Note_on_c, 1, 80, 127
2, 110960, Note_off_c, 1, 80, 0
2, 111000, Note_on_c, 1, 78, 127
2, 111120, Note_off_c, 1, 36, 0
2, 111120, Note_off_c, 1, 39, 0
2, 111120, Note_off_c, 1, 44, 0
2, 111120, Note_off_c, 1, 68, 0
2, 111120, Note_off_c, 1, 78, 0
2, 111160, Note_on_c, 1, 68, 127
2, 111160, Note_on_c, 1, 76, 127
2, 111280, Note_off_c, 1, 76, 0
2, 111320, Note_on_c, 1, 75, 127
2, 111440, Note_off_c, 1, 68, 0
2, 111440, Note_off_c, 1, 75, 0
2, 111480, Note_on_c, 1, 73, 127
2, 111480, Note_on_c, 1, 76, 127
2, 111600, Note_off_c, 1, 73, 0
2, 111640, Note_on_c, 1, 75, 127
2, 111760, Note_off_c, 1, 75, 0
2, 111760, Note_off_c, 1, 76, 0
2, 111800, Note_on_c, 1, 73, 127
2, 111800, Note_on_c, 1, 76, 127
2, 111800, Note_on_c, 1, 80, 127
2, 111920, Note_off_c, 1, 73, 0
2, 111960, Note_on_c, 1, 71, 127
2, 112080, Note_off_c, 1, 71, 0
2, 112080, Note_off_c, 1, 76, 0
2, 112080, Note_off_c, 1, 80, 0
2, 112120, Note_on_c, 1, 69, 127
2, 112120, Note_on_c, 1, 76, 127
2, 112120, Note_on_c, 1, 80, 127
2, 112240, Note_off_c, 1, 69, 0
2, 112280, Note_on_c, 1, 68, 127
2, 112400, Note_off_c, 1, 68, 0
2, 112400, Note_off_c, 1, 76, 0
2, 112400, Note_off_c, 1, 80, 0
2, 112440, Note_on_c, 1, 66, 127
2, 112440, Note_on_c, 1, 76, 127
2, 112440, Note_on_c, 1, 81, 127
2, 112560, Note_off_c, 1, 66, 0
2, 112560, Note_off_c, 1, 81, 0
2, 112600, Note_on_c, 1, 68, 127
2, 112600, Note_on_c, 1, 83, 127
2, 112720, Note_off_c, 1, 68, 0
2, 112720, Note_off_c, 1, 83, 0
2, 112760, Note_on_c, 1, 66, 127
2, 112760, Note_on_c, 1, 81, 127
2, 112880, Note_off_c, 1, 66, 0
2, 112880, Note_off_c, 1, 76, 0
2, 112880, Note_off_c, 1, 81, 0
2, 112920, Note_on_c, 1, 64, 127
2, 112920, Note_on_c, 1, 80, 127
2, 113040, Note_off_c, 1, 64, 0
2, 113040, Note_off_c, 1, 80, 0
2, 113080, Note_on_c, 1, 63, 127
2, 113080, Note_on_c, 1, 78, 127
2, 113200, Note_off_c, 1, 63, 0
2, 113200, Note_off_c, 1, 78, 0
2, 113240, Note_on_c, 1, 61, 127
2, 113240, Note_on_c, 1, 76, 127
2, 113360, Note_off_c, 1, 61, 0
2, 113360, Note_off_c, 1, 76, 0
2, 113400, Note_on_c, 1, 59, 127
2, 113400, Note_on_c, 1, 75, 127
2, 113520, Note_off_c, 1, 59, 0
2, 113560, Note_on_c, 1, 61, 127
2, 113680, Note_off_c, 1, 61, 0
2, 113680, Note_off_c, 1, 75, 0
2, 113760, Note_on_c, 1, 59, 127
2, 113760, Note_on_c, 1, 75, 127
2, 113760, Note_on_c, 1, 78, 127
2, 113840, Note_off_c, 1, 59, 0
2, 113920, Note_on_c, 1, 57, 127
2, 114040, Note_off_c, 1, 57, 0
2, 114040, Note_off_c, 1, 75, 0
2, 114040, Note_off_c, 1, 78, 0
2, 114080, Note_on_c, 1, 56, 127
2, 114080, Note_on_c, 1, 75, 127
2, 114080, Note_on_c, 1, 78, 127
2, 114200, Note_off_c, 1, 56, 0
2, 114240, Note_on_c, 1, 54, 127
2, 114360, Note_off_c, 1, 54, 0
2, 114360, Note_off_c, 1, 75, 0
2, 114360, Note_off_c, 1, 78, 0
2, 114400, Note_on_c, 1, 52, 127
2, 114400, Note_on_c, 1, 75, 127
2, 114400, Note_on_c, 1, 80, 127
2, 114520, Note_off_c, 1, 52, 0
2, 114520, Note_off_c, 1, 80, 0
2, 114560, Note_on_c, 1, 54, 127
2, 114560, Note_on_c, 1, 81, 127
2, 114680, Note_off_c, 1, 54, 0
2, 114680, Note_off_c, 1, 81, 0
2, 114720, Note_on_c, 1, 52, 127
2, 114720, Note_on_c, 1, 80, 127
2, 114840, Note_off_c, 1, 52, 0
2, 114840, Note_off_c, 1, 75, 0
2, 114840, Note_off_c, 1, 80, 0
2, 114880, Note_on_c, 1, 51, 127
2, 114880, Note_on_c, 1, 78, 127
2, 115000, Note_off_c, 1, 51, 0
2, 115000, Note_off_c, 1, 78, 0
2, 115040, Note_on_c, 1, 49, 127
2, 115040, Note_on_c, 1, 76, 127
2, 115160, Note_off_c, 1, 49, 0
2, 115160, Note_off_c, 1, 76, 0
2, 115200, Note_on_c, 1, 47, 127
2, 115200, Note_on_c, 1, 75, 127
2, 115320, Note_off_c, 1, 47, 0
2, 115320, Note_off_c, 1, 75, 0
2, 115360, Note_on_c, 1, 45, 127
2, 115360, Note_on_c, 1, 73, 127
2, 115480, Note_off_c, 1, 45, 0
2, 115480, Note_off_c, 1, 73, 0
2, 115520, Note_on_c, 1, 47, 127
2, 115520, Note_on_c, 1, 72, 127
2, 115640, Note_off_c, 1, 47, 0
2, 115640, Note_off_c, 1, 72, 0
2, 115680, Note_on_c, 1, 45, 127
2, 115680, Note_on_c, 1, 73, 127
2, 115800, Note_off_c, 1, 45, 0
2, 115800, Note_off_c, 1, 73, 0
2, 115840, Note_on_c, 1, 44, 127
2, 115840, Note_on_c, 1, 75, 127
2, 115960, Note_off_c, 1, 44, 0
2, 115960, Note_off_c, 1, 75, 0
2, 116000, Note_on_c, 1, 42, 127
2, 116000, Note_on_c, 1, 76, 127
2, 116120, Note_off_c, 1, 42, 0
2, 116120, Note_off_c, 1, 76, 0
2, 116160, Note_on_c, 1, 40, 127
2, 116160, Note_on_c, 1, 73, 127
2, 116280, Note_off_c, 1, 40, 0
2, 116280, Note_off_c, 1, 73, 0
2, 116320, Note_on_c, 1, 39, 127
2, 116320, Note_on_c, 1, 78, 127
2, 116440, Note_off_c, 1, 39, 0
2, 116480, Note_on_c, 1, 37, 127
2, 116600, Note_off_c, 1, 37, 0
2, 116600, Note_off_c, 1, 78, 0
2, 116640, Note_on_c, 1, 39, 127
2, 116640, Note_on_c, 1, 69, 127
2, 116640, Note_on_c, 1, 73, 127
2, 116640, Note_on_c, 1, 78, 127
2, 116760, Note_off_c, 1, 39, 0
2, 116800, Note_on_c, 1, 40, 127
2, 116920, Note_off_c, 1, 40, 0
2, 116920, Note_off_c, 1, 69, 0
2, 116920, Note_off_c, 1, 73, 0
2, 116920, Note_off_c, 1, 78, 0
2, 117000, Note_on_c, 1, 42, 127
2, 117000, Note_on_c, 1, 69, 127
2, 117000, Note_on_c, 1, 73, 127
2, 117000, Note_on_c, 1, 78, 127
2, 117080, Note_off_c, 1, 42, 0
2, 117160, Note_on_c, 1, 39, 127
2, 117280, Note_off_c, 1, 39, 0
2, 117280, Note_off_c, 1, 69, 0
2, 117280, Note_off_c, 1, 73, 0
2, 117320, Note_on_c, 1, 44, 127
2, 117320, Note_on_c, 1, 69, 127
2, 117320, Note_on_c, 1, 72, 127
2, 117440, Note_off_c, 1, 44, 0
2, 117480, Note_on_c, 1, 42, 127
2, 117600, Note_off_c, 1, 42, 0
2, 117600, Note_off_c, 1, 69, 0
2, 117600, Note_off_c, 1, 72, 0
2, 117600, Note_off_c, 1, 78, 0
2, 117640, Note_on_c, 1, 44, 127
2, 117640, Note_on_c, 1, 68, 127
2, 117640, Note_on_c, 1, 72, 127
2, 117640, Note_on_c, 1, 75, 127
2, 117760, Note_off_c, 1, 44, 0
2, 117800, Note_on_c, 1, 46, 127
2, 117920, Note_off_c, 1, 46, 0
2, 117920, Note_off_c, 1, 68, 0
2, 117920, Note_off_c, 1, 72, 0
2, 117920, Note_off_c, 1, 75, 0
2, 117960, Note_on_c, 1, 48, 127
2, 117960, Note_on_c, 1, 68, 127
2, 117960, Note_on_c, 1, 72, 127
2, 117960, Note_on_c, 1, 75, 127
2, 118080, Note_off_c, 1, 48, 0
2, 118120, Note_on_c, 1, 44, 127
2, 118240, Note_off_c, 1, 44, 0
2, 118240, Note_off_c, 1, 68, 0
2, 118240, Note_off_c, 1, 72, 0
2, 118240, Note_off_c, 1, 75, 0
2, 118280, Note_on_c, 1, 57, 127
2, 118280, Note_on_c, 1, 63, 127
2, 118280, Note_on_c, 1, 66, 127
2, 118320, Note_off_c, 1, 63, 0
2, 118360, Note_on_c, 1, 61, 127
2, 118400, Note_off_c, 1, 61, 0
2, 118440, Note_on_c, 1, 63, 127
2, 118560, Note_off_c, 1, 57, 0
2, 118600, Note_on_c, 1, 48, 127
2, 118720, Note_off_c, 1, 66, 0
2, 118760, Note_on_c, 1, 68, 127
2, 118880, Note_off_c, 1, 48, 0
2, 118880, Note_off_c, 1, 63, 0
2, 118880, Note_off_c, 1, 68, 0
2, 118920, Note_on_c, 1, 49, 127
2, 118920, Note_on_c, 1, 61, 127
2, 118920, Note_on_c, 1, 64, 127
2, 119200, Note_off_c, 1, 49, 0
2, 119240, Note_on_c, 1, 54, 127
2, 119360, Note_off_c, 1, 64, 0
2, 119400, Note_on_c, 1, 63, 127
2, 119520, Note_off_c, 1, 54, 0
2, 119520, Note_off_c, 1, 61, 0
2, 119520, Note_off_c, 1, 63, 0
2, 119560, Note_on_c, 1, 56, 127
2, 119560, Note_on_c, 1, 60, 127
2, 119560, Note_on_c, 1, 64, 127
2, 119600, Note_off_c, 1, 64, 0
2, 119640, Note_on_c, 1, 63, 127
2, 119680, Note_off_c, 1, 63, 0
2, 119720, Note_on_c, 1, 64, 127
2, 119760, Note_off_c, 1, 64, 0
2, 119800, Note_on_c, 1, 63, 127
2, 119840, Note_off_c, 1, 56, 0
2, 119840, Note_off_c, 1, 63, 0
2, 119880, Note_on_c, 1, 44, 127
2, 119880, Note_on_c, 1, 64, 127
2, 119920, Note_off_c, 1, 64, 0
2, 119960, Note_on_c, 1, 63, 127
2, 120000, Note_off_c, 1, 63, 0
2, 120040, Note_on_c, 1, 61, 127
2, 120160, Note_off_c, 1, 44, 0
2, 120160, Note_off_c, 1, 60, 0
2, 120160, Note_off_c, 1, 61, 0
2, 120240, Note_on_c, 1, 37, 127
2, 120240, Note_on_c, 1, 61, 127
2, 120320, Note_off_c, 1, 61, 0
2, 120400, Note_on_c, 1, 63, 127
2, 120520, Note_off_c, 1, 63, 0
2, 120560, Note_on_c, 1, 64, 127
2, 120680, Note_off_c, 1, 64, 0
2, 120720, Note_on_c, 1, 61, 127
2, 120840, Note_off_c, 1, 61, 0
2, 120880, Note_on_c, 1, 60, 127
2, 121000, Note_off_c, 1, 37, 0
2, 121000, Note_off_c, 1, 60, 0
2, 121040, Note_on_c, 1, 61, 127
2, 121160, Note_off_c, 1, 61, 0
2, 121200, Note_on_c, 1, 56, 127
2, 121320, Note_off_c, 1, 56, 0
2, 121360, Note_on_c, 1, 61, 127
2, 121480, Note_off_c, 1, 61, 0
2, 121520, Note_on_c, 1, 64, 127
2, 121640, Note_off_c, 1, 64, 0
2, 121680, Note_on_c, 1, 61, 127
2, 121800, Note_off_c, 1, 61, 0
2, 121840, Note_on_c, 1, 67, 127
2, 121960, Note_off_c, 1, 67, 0
2, 122000, Note_on_c, 1, 61, 127
2, 122120, Note_off_c, 1, 61, 0
2, 122160, Note_on_c, 1, 68, 127
2, 122320, Note_on_c, 1, 56, 127
2, 122360, Note_off_c, 1, 56, 0
2, 122400, Note_on_c, 1, 58, 127
2, 122440, Note_off_c, 1, 58, 0
2, 122440, Note_off_c, 1, 68, 0
2, 122480, Note_on_c, 1, 59, 127
2, 122480, Note_on_c, 1, 75, 127
2, 122600, Note_off_c, 1, 59, 0
2, 122640, Note_on_c, 1, 56, 127
2, 122760, Note_off_c, 1, 56, 0
2, 122760, Note_off_c, 1, 75, 0
2, 122800, Note_on_c, 1, 55, 127
2, 122800, Note_on_c, 1, 75, 127
2, 122920, Note_off_c, 1, 55, 0
2, 122960, Note_on_c, 1, 56, 127
2, 123080, Note_off_c, 1, 56, 0
2, 123080, Note_off_c, 1, 75, 0
2, 123120, Note_on_c, 1, 51, 127
2, 123120, Note_on_c, 1, 71, 127
2, 123240, Note_off_c, 1, 51, 0
2, 123280, Note_on_c, 1, 56, 127
2, 123400, Note_off_c, 1, 56, 0
2, 123400, Note_off_c, 1, 71, 0
2, 123480, Note_on_c, 1, 59, 127
2, 123480, Note_on_c, 1, 68, 127
2, 123560, Note_off_c, 1, 59, 0
2, 123640, Note_on_c, 1, 56, 127
2, 123760, Note_off_c, 1, 56, 0
2, 123760, Note_off_c, 1, 68, 0
2, 123800, Note_on_c, 1, 62, 127
2, 123800, Note_on_c, 1, 68, 127
2, 123920, Note_off_c, 1, 62, 0
2, 123960, Note_on_c, 1, 56, 127
2, 124080, Note_off_c, 1, 56, 0
2, 124080, Note_off_c, 1, 68, 0
2, 124120, Note_on_c, 1, 63, 127
2, 124120, Note_on_c, 1, 68, 127
2, 124240, Note_off_c, 1, 68, 0
2, 124280, Note_on_c, 1, 65, 127
2, 124400, Note_off_c, 1, 63, 0
2, 124400, Note_off_c, 1, 65, 0
2, 124440, Note_on_c, 1, 63, 127
2, 124440, Note_on_c, 1, 66, 127
2, 124560, Note_off_c, 1, 66, 0
2, 124600, Note_on_c, 1, 70, 127
2, 124720, Note_off_c, 1, 63, 0
2, 124720, Note_off_c, 1, 70, 0
2, 124760, Note_on_c, 1, 63, 127
2, 124760, Note_on_c, 1, 71, 127
2, 124880, Note_off_c, 1, 71, 0
2, 124920, Note_on_c, 1, 66, 127
2, 125040, Note_off_c, 1, 63, 0
2, 125040, Note_off_c, 1, 66, 0
2, 125080, Note_on_c, 1, 63, 127
2, 125080, Note_on_c, 1, 64, 127
2, 125200, Note_off_c, 1, 64, 0
2, 125240, Note_on_c, 1, 66, 127
2, 125360, Note_off_c, 1, 63, 0
2, 125360, Note_off_c, 1, 66, 0
2, 125400, Note_on_c, 1, 61, 127
2, 125400, Note_on_c, 1, 68, 127
2, 125520, Note_off_c, 1, 68, 0
2, 125560, Note_on_c, 1, 64, 127
2, 125680, Note_off_c, 1, 61, 0
2, 125680, Note_off_c, 1, 64, 0
2, 125720, Note_on_c, 1, 61, 127
2, 125720, Note_on_c, 1, 69, 127
2, 125840, Note_off_c, 1, 69, 0
2, 125880, Note_on_c, 1, 64, 127
2, 126000, Note_off_c, 1, 61, 0
2, 126000, Note_off_c, 1, 64, 0
2, 126040, Note_on_c, 1, 61, 127
2, 126040, Note_on_c, 1, 63, 127
2, 126160, Note_off_c, 1, 63, 0
2, 126200, Note_on_c, 1, 66, 127
2, 126320, Note_off_c, 1, 61, 0
2, 126320, Note_off_c, 1, 66, 0
2, 126360, Note_on_c, 1, 59, 127
2, 126360, Note_on_c, 1, 68, 127
2, 126480, Note_off_c, 1, 68, 0
2, 126520, Note_on_c, 1, 69, 127
2, 126640, Note_off_c, 1, 59, 0
2, 126640, Note_off_c, 1, 69, 0
2, 126720, Note_on_c, 1, 59, 127
2, 126720, Note_on_c, 1, 71, 127
2, 126800, Note_off_c, 1, 71, 0
2, 126880, Note_on_c, 1, 68, 127
2, 127000, Note_off_c, 1, 68, 0
2, 127040, Note_on_c, 1, 66, 127
2, 127080, Note_off_c, 1, 59, 0
2, 127160, Note_off_c, 1, 66, 0
2, 127200, Note_on_c, 1, 59, 127
2, 127200, Note_on_c, 1, 65, 127
2, 127320, Note_off_c, 1, 59, 0
2, 127320, Note_off_c, 1, 65, 0
2, 127360, Note_on_c, 1, 57, 127
2, 127360, Note_on_c, 1, 66, 127
2, 127480, Note_off_c, 1, 57, 0
2, 127520, Note_on_c, 1, 56, 127
2, 127640, Note_off_c, 1, 56, 0
2, 127640, Note_off_c, 1, 66, 0
2, 127680, Note_on_c, 1, 54, 127
2, 127680, Note_on_c, 1, 66, 127
2, 127800, Note_off_c, 1, 54, 0
2, 127840, Note_on_c, 1, 57, 127
2, 127960, Note_off_c, 1, 57, 0
2, 127960, Note_off_c, 1, 66, 0
2, 128000, Note_on_c, 1, 48, 127
2, 128000, Note_on_c, 1, 66, 127
2, 128120, Note_off_c, 1, 66, 0
2, 128160, Note_on_c, 1, 68, 127
2, 128280, Note_off_c, 1, 48, 0
2, 128280, Note_off_c, 1, 68, 0
2, 128320, Note_on_c, 1, 54, 127
2, 128320, Note_on_c, 1, 69, 127
2, 128440, Note_off_c, 1, 69, 0
2, 128480, Note_on_c, 1, 66, 127
2, 128600, Note_off_c, 1, 54, 0
2, 128600, Note_off_c, 1, 66, 0
2, 128640, Note_on_c, 1, 57, 127
2, 128640, Note_on_c, 1, 72, 127
2, 128760, Note_off_c, 1, 72, 0
2, 128800, Note_on_c, 1, 66, 127
2, 128920, Note_off_c, 1, 57, 0
2, 128920, Note_off_c, 1, 66, 0
2, 128960, Note_on_c, 1, 48, 127
2, 128960, Note_on_c, 1, 75, 127
2, 129080, Note_off_c, 1, 75, 0
2, 129120, Note_on_c, 1, 69, 127
2, 129240, Note_off_c, 1, 48, 0
2, 129240, Note_off_c, 1, 69, 0
2, 129280, Note_on_c, 1, 51, 127
2, 129280, Note_on_c, 1, 68, 127
2, 129400, Note_off_c, 1, 68, 0
2, 129440, Note_on_c, 1, 66, 127
2, 129560, Note_off_c, 1, 51, 0
2, 129560, Note_off_c, 1, 66, 0
2, 129600, Note_on_c, 1, 56, 127
2, 129600, Note_on_c, 1, 64, 127
2, 129720, Note_off_c, 1, 64, 0
2, 129760, Note_on_c, 1, 63, 127
2, 129880, Note_off_c, 1, 56, 0
2, 129880, Note_off_c, 1, 63, 0
2, 129960, Note_on_c, 1, 49, 127
2, 129960, Note_on_c, 1, 64, 127
2, 130040, Note_off_c, 1, 64, 0
2, 130120, Note_on_c, 1, 66, 127
2, 130240, Note_off_c, 1, 49, 0
2, 130240, Note_off_c, 1, 66, 0
2, 130280, Note_on_c, 1, 52, 127
2, 130280, Note_on_c, 1, 67, 127
2, 130400, Note_off_c, 1, 67, 0
2, 130440, Note_on_c, 1, 64, 127
2, 130560, Note_off_c, 1, 52, 0
2, 130560, Note_off_c, 1, 64, 0
2, 130600, Note_on_c, 1, 55, 127
2, 130600, Note_on_c, 1, 70, 127
2, 130720, Note_off_c, 1, 70, 0
2, 130760, Note_on_c, 1, 64, 127
2, 130880, Note_off_c, 1, 55, 0
2, 130880, Note_off_c, 1, 64, 0
2, 130920, Note_on_c, 1, 58, 127
2, 130920, Note_on_c, 1, 73, 127
2, 131040, Note_off_c, 1, 73, 0
2, 131080, Note_on_c, 1, 67, 127
2, 131200, Note_off_c, 1, 58, 0
2, 131200, Note_off_c, 1, 67, 0
2, 131240, Note_on_c, 1, 61, 127
2, 131240, Note_on_c, 1, 66, 127
2, 131360, Note_off_c, 1, 66, 0
2, 131400, Note_on_c, 1, 64, 127
2, 131520, Note_off_c, 1, 61, 0
2, 131520, Note_off_c, 1, 64, 0
2, 131560, Note_on_c, 1, 54, 127
2, 131560, Note_on_c, 1, 62, 127
2, 131680, Note_off_c, 1, 62, 0
2, 131720, Note_on_c, 1, 61, 127
2, 131840, Note_off_c, 1, 54, 0
2, 131840, Note_off_c, 1, 61, 0
2, 131880, Note_on_c, 1, 59, 127
2, 131880, Note_on_c, 1, 62, 127
2, 132040, Note_on_c, 1, 47, 127
2, 132080, Note_off_c, 1, 47, 0
2, 132120, Note_on_c, 1, 49, 127
2, 132160, Note_off_c, 1, 49, 0
2, 132160, Note_off_c, 1, 59, 0
2, 132160, Note_off_c, 1, 62, 0
2, 132240, Note_on_c, 1, 50, 127
2, 132240, Note_on_c, 1, 66, 127
2, 132240, Note_on_c, 1, 71, 127
2, 132240, Note_on_c, 1, 78, 127
2, 132360, Note_off_c, 1, 50, 0
2, 132400, Note_on_c, 1, 47, 127
2, 132520, Note_off_c, 1, 47, 0
2, 132520, Note_off_c, 1, 66, 0
2, 132520, Note_off_c, 1, 71, 0
2, 132520, Note_off_c, 1, 78, 0
2, 132560, Note_on_c, 1, 46, 127
2, 132560, Note_on_c, 1, 66, 127
2, 132560, Note_on_c, 1, 71, 127
2, 132560, Note_on_c, 1, 78, 127
2, 132680, Note_off_c, 1, 46, 0
2, 132720, Note_on_c, 1, 47, 127
2, 132840, Note_off_c, 1, 47, 0
2, 132840, Note_off_c, 1, 66, 0
2, 132840, Note_off_c, 1, 71, 0
2, 132840, Note_off_c, 1, 78, 0
2, 132880, Note_on_c, 1, 42, 127
2, 132880, Note_on_c, 1, 66, 127
2, 132880, Note_on_c, 1, 73, 127
2, 132880, Note_on_c, 1, 74, 127
2, 133000, Note_off_c, 1, 42, 0
2, 133040, Note_on_c, 1, 47, 127
2, 133160, Note_off_c, 1, 47, 0
2, 133160, Note_off_c, 1, 66, 0
2, 133160, Note_off_c, 1, 73, 0
2, 133160, Note_off_c, 1, 74, 0
2, 133200, Note_on_c, 1, 50, 127
2, 133200, Note_on_c, 1, 66, 127
2, 133200, Note_on_c, 1, 71, 127
2, 133200, Note_on_c, 1, 74, 127
2, 133320, Note_off_c, 1, 50, 0
2, 133360, Note_on_c, 1, 47, 127
2, 133480, Note_off_c, 1, 47, 0
2, 133480, Note_off_c, 1, 66, 0
2, 133480, Note_off_c, 1, 71, 0
2, 133480, Note_off_c, 1, 74, 0
2, 133520, Note_on_c, 1, 53, 127
2, 133520, Note_on_c, 1, 68, 127
2, 133520, Note_on_c, 1, 71, 127
2, 133520, Note_on_c, 1, 74, 127
2, 133640, Note_off_c, 1, 53, 0
2, 133680, Note_on_c, 1, 47, 127
2, 133800, Note_off_c, 1, 47, 0
2, 133800, Note_off_c, 1, 68, 0
2, 133800, Note_off_c, 1, 71, 0
2, 133800, Note_off_c, 1, 74, 0
2, 133840, Note_on_c, 1, 54, 127
2, 133840, Note_on_c, 1, 69, 127
2, 133840, Note_on_c, 1, 73, 127
2, 133960, Note_off_c, 1, 73, 0
2, 134000, Note_on_c, 1, 73, 127
2, 134120, Note_off_c, 1, 69, 0
2, 134120, Note_off_c, 1, 73, 0
2, 134160, Note_on_c, 1, 57, 127
2, 134160, Note_on_c, 1, 66, 127
2, 134280, Note_off_c, 1, 66, 0
2, 134320, Note_on_c, 1, 73, 127
2, 134440, Note_off_c, 1, 54, 0
2, 134440, Note_off_c, 1, 57, 0
2, 134440, Note_off_c, 1, 73, 0
2, 134480, Note_on_c, 1, 56, 127
2, 134480, Note_on_c, 1, 65, 127
2, 134600, Note_off_c, 1, 65, 0
2, 134640, Note_on_c, 1, 71, 127
2, 134760, Note_off_c, 1, 56, 0
2, 134760, Note_off_c, 1, 71, 0
2, 134800, Note_on_c, 1, 42, 127
2, 134800, Note_on_c, 1, 54, 127
2, 134800, Note_on_c, 1, 69, 127
2, 134920, Note_off_c, 1, 69, 0
2, 134960, Note_on_c, 1, 73, 127
2, 135080, Note_off_c, 1, 42, 0
2, 135080, Note_off_c, 1, 54, 0
2, 135080, Note_off_c, 1, 73, 0
2, 135160, Note_on_c, 1, 57, 127
2, 135160, Note_on_c, 1, 66, 127
2, 135240, Note_off_c, 1, 66, 0
2, 135320, Note_on_c, 1, 73, 127
2, 135440, Note_off_c, 1, 57, 0
2, 135440, Note_off_c, 1, 73, 0
2, 135480, Note_on_c, 1, 56, 127
2, 135480, Note_on_c, 1, 65, 127
2, 135600, Note_off_c, 1, 65, 0
2, 135640, Note_on_c, 1, 71, 127
2, 135760, Note_off_c, 1, 56, 0
2, 135760, Note_off_c, 1, 71, 0
2, 135800, Note_on_c, 1, 54, 127
2, 135800, Note_on_c, 1, 69, 127
2, 135920, Note_off_c, 1, 69, 0
2, 135960, Note_on_c, 1, 66, 127
2, 136080, Note_off_c, 1, 66, 0
2, 136120, Note_on_c, 1, 47, 127
2, 136120, Note_on_c, 1, 63, 127
2, 136240, Note_off_c, 1, 63, 0
2, 136280, Note_on_c, 1, 69, 127
2, 136400, Note_off_c, 1, 47, 0
2, 136400, Note_off_c, 1, 69, 0
2, 136440, Note_on_c, 1, 49, 127
2, 136440, Note_on_c, 1, 61, 127
2, 136560, Note_off_c, 1, 61, 0
2, 136600, Note_on_c, 1, 69, 127
2, 136720, Note_off_c, 1, 49, 0
2, 136720, Note_off_c, 1, 69, 0
2, 136760, Note_on_c, 1, 51, 127
2, 136760, Note_on_c, 1, 59, 127
2, 136880, Note_off_c, 1, 59, 0
2, 136920, Note_on_c, 1, 69, 127
2, 137040, Note_off_c, 1, 51, 0
2, 137040, Note_off_c, 1, 69, 0
2, 137080, Note_on_c, 1, 49, 127
2, 137080, Note_on_c, 1, 61, 127
2, 137200, Note_off_c, 1, 61, 0
2, 137240, Note_on_c, 1, 69, 127
2, 137360, Note_off_c, 1, 49, 0
2, 137360, Note_off_c, 1, 69, 0
2, 137400, Note_on_c, 1, 47, 127
2, 137400, Note_on_c, 1, 63, 127
2, 137520, Note_off_c, 1, 63, 0
2, 137560, Note_on_c, 1, 69, 127
2, 137680, Note_off_c, 1, 47, 0
2, 137680, Note_off_c, 1, 54, 0
2, 137680, Note_off_c, 1, 69, 0
2, 137720, Note_on_c, 1, 52, 127
2, 137720, Note_on_c, 1, 67, 127
2, 137840, Note_off_c, 1, 67, 0
2, 137880, Note_on_c, 1, 71, 127
2, 138000, Note_off_c, 1, 71, 0
2, 138040, Note_on_c, 1, 55, 127
2, 138040, Note_on_c, 1, 64, 127
2, 138160, Note_off_c, 1, 64, 0
2, 138200, Note_on_c, 1, 71, 127
2, 138320, Note_off_c, 1, 52, 0
2, 138320, Note_off_c, 1, 55, 0
2, 138320, Note_off_c, 1, 71, 0
2, 138400, Note_on_c, 1, 54, 127
2, 138400, Note_on_c, 1, 63, 127
2, 138520, Note_off_c, 1, 63, 0
2, 138560, Note_on_c, 1, 69, 127
2, 138680, Note_off_c, 1, 54, 0
2, 138680, Note_off_c, 1, 69, 0
2, 138720, Note_on_c, 1, 40, 127
2, 138720, Note_on_c, 1, 52, 127
2, 138720, Note_on_c, 1, 67, 127
2, 138840, Note_off_c, 1, 67, 0
2, 138880, Note_on_c, 1, 71, 127
2, 139000, Note_off_c, 1, 40, 0
2, 139000, Note_off_c, 1, 52, 0
2, 139000, Note_off_c, 1, 71, 0
2, 139040, Note_on_c, 1, 55, 127
2, 139040, Note_on_c, 1, 64, 127
2, 139160, Note_off_c, 1, 64, 0
2, 139200, Note_on_c, 1, 71, 127
2, 139320, Note_off_c, 1, 55, 0
2, 139320, Note_off_c, 1, 71, 0
2, 139360, Note_on_c, 1, 54, 127
2, 139360, Note_on_c, 1, 63, 127
2, 139480, Note_off_c, 1, 63, 0
2, 139520, Note_on_c, 1, 69, 127
2, 139640, Note_off_c, 1, 54, 0
2, 139640, Note_off_c, 1, 69, 0
2, 139680, Note_on_c, 1, 52, 127
2, 139680, Note_on_c, 1, 67, 127
2, 139800, Note_off_c, 1, 67, 0
2, 139840, Note_on_c, 1, 64, 127
2, 139960, Note_off_c, 1, 64, 0
2, 140000, Note_on_c, 1, 45, 127
2, 140000, Note_on_c, 1, 61, 127
2, 140120, Note_off_c, 1, 61, 0
2, 140160, Note_on_c, 1, 67, 127
2, 140280, Note_off_c, 1, 45, 0
2, 140280, Note_off_c, 1, 67, 0
2, 140320, Note_on_c, 1, 47, 127
2, 140320, Note_on_c, 1, 59, 127
2, 140440, Note_off_c, 1, 59, 0
2, 140480, Note_on_c, 1, 67, 127
2, 140600, Note_off_c, 1, 47, 0
2, 140600, Note_off_c, 1, 67, 0
2, 140640, Note_on_c, 1, 49, 127
2, 140640, Note_on_c, 1, 57, 127
2, 140760, Note_off_c, 1, 57, 0
2, 140800, Note_on_c, 1, 67, 127
2, 140920, Note_off_c, 1, 49, 0
2, 140920, Note_off_c, 1, 67, 0
2, 140960, Note_on_c, 1, 47, 127
2, 140960, Note_on_c, 1, 59, 127
2, 141080, Note_off_c, 1, 59, 0
2, 141120, Note_on_c, 1, 67, 127
2, 141240, Note_off_c, 1, 47, 0
2, 141240, Note_off_c, 1, 67, 0
2, 141280, Note_on_c, 1, 45, 127
2, 141280, Note_on_c, 1, 61, 127
2, 141400, Note_off_c, 1, 61, 0
2, 141480, Note_on_c, 1, 67, 127
2, 141560, Note_off_c, 1, 45, 0
2, 141560, Note_off_c, 1, 52, 0
2, 141560, Note_off_c, 1, 67, 0
2, 141640, Note_on_c, 1, 50, 127
2, 141640, Note_on_c, 1, 66, 127
2, 141720, Note_off_c, 1, 50, 0
2, 141800, Note_on_c, 1, 52, 127
2, 141920, Note_off_c, 1, 52, 0
2, 141920, Note_off_c, 1, 66, 0
2, 141960, Note_on_c, 1, 54, 127
2, 141960, Note_on_c, 1, 81, 127
2, 142080, Note_off_c, 1, 54, 0
2, 142120, Note_on_c, 1, 50, 127
2, 142240, Note_off_c, 1, 50, 0
2, 142240, Note_off_c, 1, 81, 0
2, 142280, Note_on_c, 1, 49, 127
2, 142280, Note_on_c, 1, 81, 127
2, 142400, Note_off_c, 1, 49, 0
2, 142440, Note_on_c, 1, 50, 127
2, 142560, Note_off_c, 1, 50, 0
2, 142560, Note_off_c, 1, 81, 0
2, 142600, Note_on_c, 1, 45, 127
2, 142600, Note_on_c, 1, 78, 127
2, 142720, Note_off_c, 1, 45, 0
2, 142760, Note_on_c, 1, 50, 127
2, 142880, Note_off_c, 1, 50, 0
2, 142880, Note_off_c, 1, 78, 0
2, 142920, Note_on_c, 1, 54, 127
2, 142920, Note_on_c, 1, 74, 127
2, 142920, Note_on_c, 1, 78, 127
2, 143040, Note_off_c, 1, 54, 0
2, 143080, Note_on_c, 1, 50, 127
2, 143200, Note_off_c, 1, 50, 0
2, 143200, Note_off_c, 1, 74, 0
2, 143200, Note_off_c, 1, 78, 0
2, 143240, Note_on_c, 1, 56, 127
2, 143240, Note_on_c, 1, 74, 127
2, 143240, Note_on_c, 1, 78, 127
2, 143360, Note_off_c, 1, 56, 0
2, 143400, Note_on_c, 1, 50, 127
2, 143520, Note_off_c, 1, 50, 0
2, 143520, Note_off_c, 1, 74, 0
2, 143520, Note_off_c, 1, 78, 0
2, 143560, Note_on_c, 1, 57, 127
2, 143560, Note_on_c, 1, 73, 127
2, 143560, Note_on_c, 1, 76, 127
2, 143680, Note_off_c, 1, 76, 0
2, 143720, Note_on_c, 1, 76, 127
2, 143840, Note_off_c, 1, 73, 0
2, 143840, Note_off_c, 1, 76, 0
2, 143880, Note_on_c, 1, 61, 127
2, 143880, Note_on_c, 1, 69, 127
2, 144000, Note_off_c, 1, 69, 0
2, 144040, Note_on_c, 1, 76, 127
2, 144160, Note_off_c, 1, 57, 0
2, 144160, Note_off_c, 1, 61, 0
2, 144160, Note_off_c, 1, 76, 0
2, 144200, Note_on_c, 1, 59, 127
2, 144200, Note_on_c, 1, 68, 127
2, 144320, Note_off_c, 1, 68, 0
2, 144360, Note_on_c, 1, 74, 127
2, 144480, Note_off_c, 1, 59, 0
2, 144480, Note_off_c, 1, 74, 0
2, 144520, Note_on_c, 1, 45, 127
2, 144520, Note_on_c, 1, 57, 127
2, 144520, Note_on_c, 1, 73, 127
2, 144640, Note_off_c, 1, 73, 0
2, 144680, Note_on_c, 1, 76, 127
2, 144800, Note_off_c, 1, 45, 0
2, 144800, Note_off_c, 1, 57, 0
2, 144800, Note_off_c, 1, 76, 0
2, 144880, Note_on_c, 1, 61, 127
2, 144880, Note_on_c, 1, 69, 127
2, 144960, Note_off_c, 1, 69, 0
2, 145040, Note_on_c, 1, 76, 127
2, 145160, Note_off_c, 1, 61, 0
2, 145160, Note_off_c, 1, 76, 0
2, 145200, Note_on_c, 1, 59, 127
2, 145200, Note_on_c, 1, 68, 127
2, 145320, Note_off_c, 1, 68, 0
2, 145360, Note_on_c, 1, 74, 127
2, 145480, Note_off_c, 1, 59, 0
2, 145480, Note_off_c, 1, 74, 0
2, 145520, Note_on_c, 1, 57, 127
2, 145520, Note_on_c, 1, 73, 127
2, 145640, Note_off_c, 1, 73, 0
2, 145680, Note_on_c, 1, 69, 127
2, 145800, Note_off_c, 1, 69, 0
2, 145840, Note_on_c, 1, 50, 127
2, 145840, Note_on_c, 1, 66, 127
2, 145960, Note_off_c, 1, 66, 0
2, 146000, Note_on_c, 1, 72, 127
2, 146120, Note_off_c, 1, 50, 0
2, 146120, Note_off_c, 1, 72, 0
2, 146160, Note_on_c, 1, 52, 127
2, 146160, Note_on_c, 1, 64, 127
2, 146280, Note_off_c, 1, 64, 0
2, 146320, Note_on_c, 1, 72, 127
2, 146440, Note_off_c, 1, 52, 0
2, 146440, Note_off_c, 1, 72, 0
2, 146480, Note_on_c, 1, 54, 127
2, 146480, Note_on_c, 1, 62, 127
2, 146600, Note_off_c, 1, 62, 0
2, 146640, Note_on_c, 1, 72, 127
2, 146760, Note_off_c, 1, 54, 0
2, 146760, Note_off_c, 1, 72, 0
2, 146800, Note_on_c, 1, 52, 127
2, 146800, Note_on_c, 1, 64, 127
2, 146920, Note_off_c, 1, 64, 0
2, 146960, Note_on_c, 1, 72, 127
2, 147080, Note_off_c, 1, 52, 0
2, 147080, Note_off_c, 1, 72, 0
2, 147120, Note_on_c, 1, 50, 127
2, 147120, Note_on_c, 1, 66, 127
2, 147240, Note_off_c, 1, 66, 0
2, 147280, Note_on_c, 1, 72, 127
2, 147400, Note_off_c, 1, 50, 0
2, 147400, Note_off_c, 1, 57, 0
2, 147400, Note_off_c, 1, 72, 0
2, 147440, Note_on_c, 1, 55, 127
2, 147440, Note_on_c, 1, 71, 127
2, 147560, Note_off_c, 1, 71, 0
2, 147600, Note_on_c, 1, 74, 127
2, 147720, Note_off_c, 1, 74, 0
2, 147760, Note_on_c, 1, 59, 127
2, 147760, Note_on_c, 1, 67, 127
2, 147880, Note_off_c, 1, 67, 0
2, 147920, Note_on_c, 1, 74, 127
2, 148040, Note_off_c, 1, 55, 0
2, 148040, Note_off_c, 1, 59, 0
2, 148040, Note_off_c, 1, 74, 0
2, 148120, Note_on_c, 1, 57, 127
2, 148120, Note_on_c, 1, 66, 127
2, 148240, Note_off_c, 1, 66, 0
2, 148280, Note_on_c, 1, 72, 127
2, 148400, Note_off_c, 1, 57, 0
2, 148400, Note_off_c, 1, 72, 0
2, 148440, Note_on_c, 1, 43, 127
2, 148440, Note_on_c, 1, 55, 127
2, 148440, Note_on_c, 1, 71, 127
2, 148560, Note_off_c, 1, 71, 0
2, 148600, Note_on_c, 1, 74, 127
2, 148720, Note_off_c, 1, 43, 0
2, 148720, Note_off_c, 1, 55, 0
2, 148720, Note_off_c, 1, 74, 0
2, 148760, Note_on_c, 1, 59, 127
2, 148760, Note_on_c, 1, 67, 127
2, 148880, Note_off_c, 1, 67, 0
2, 148920, Note_on_c, 1, 74, 127
2, 149040, Note_off_c, 1, 59, 0
2, 149040, Note_off_c, 1, 74, 0
2, 149080, Note_on_c, 1, 57, 127
2, 149080, Note_on_c, 1, 66, 127
2, 149200, Note_off_c, 1, 66, 0
2, 149240, Note_on_c, 1, 72, 127
2, 149360, Note_off_c, 1, 57, 0
2, 149360, Note_off_c, 1, 72, 0
2, 149400, Note_on_c, 1, 55, 127
2, 149400, Note_on_c, 1, 71, 127
2, 149520, Note_off_c, 1, 71, 0
2, 149560, Note_on_c, 1, 67, 127
2, 149680, Note_off_c, 1, 67, 0
2, 149720, Note_on_c, 1, 49, 127
2, 149720, Note_on_c, 1, 64, 127
2, 149840, Note_off_c, 1, 64, 0
2, 149880, Note_on_c, 1, 71, 127
2, 150000, Note_off_c, 1, 49, 0
2, 150000, Note_off_c, 1, 71, 0
2, 150040, Note_on_c, 1, 50, 127
2, 150040, Note_on_c, 1, 62, 127
2, 150160, Note_off_c, 1, 62, 0
2, 150200, Note_on_c, 1, 71, 127
2, 150320, Note_off_c, 1, 50, 0
2, 150320, Note_off_c, 1, 71, 0
2, 150360, Note_on_c, 1, 52, 127
2, 150360, Note_on_c, 1, 61, 127
2, 150480, Note_off_c, 1, 61, 0
2, 150520, Note_on_c, 1, 71, 127
2, 150640, Note_off_c, 1, 52, 0
2, 150640, Note_off_c, 1, 71, 0
2, 150680, Note_on_c, 1, 50, 127
2, 150680, Note_on_c, 1, 62, 127
2, 150800, Note_off_c, 1, 62, 0
2, 150840, Note_on_c, 1, 71, 127
2, 150960, Note_off_c, 1, 50, 0
2, 150960, Note_off_c, 1, 71, 0
2, 151000, Note_on_c, 1, 49, 127
2, 151000, Note_on_c, 1, 64, 127
2, 151120, Note_off_c, 1, 64, 0
2, 151160, Note_on_c, 1, 71, 127
2, 151280, Note_off_c, 1, 49, 0
2, 151280, Note_off_c, 1, 55, 0
2, 151280, Note_off_c, 1, 71, 0
2, 151360, Note_on_c, 1, 54, 127
2, 151360, Note_on_c, 1, 70, 127
2, 151520, Note_on_c, 1, 52, 127
2, 151640, Note_off_c, 1, 52, 0
2, 151640, Note_off_c, 1, 54, 0
2, 151640, Note_off_c, 1, 70, 0
2, 151680, Note_on_c, 1, 50, 127
2, 151680, Note_on_c, 1, 66, 127
2, 151680, Note_on_c, 1, 71, 127
2, 151800, Note_off_c, 1, 50, 0
2, 151840, Note_on_c, 1, 52, 127
2, 151960, Note_off_c, 1, 52, 0
2, 151960, Note_off_c, 1, 66, 0
2, 151960, Note_off_c, 1, 71, 0
2, 152000, Note_on_c, 1, 49, 127
2, 152000, Note_on_c, 1, 64, 127
2, 152000, Note_on_c, 1, 69, 127
2, 152120, Note_off_c, 1, 49, 0
2, 152160, Note_on_c, 1, 50, 127
2, 152280, Note_off_c, 1, 50, 0
2, 152280, Note_off_c, 1, 64, 0
2, 152280, Note_off_c, 1, 69, 0
2, 152320, Note_on_c, 1, 47, 127
2, 152320, Note_on_c, 1, 62, 127
2, 152320, Note_on_c, 1, 67, 127
2, 152440, Note_off_c, 1, 47, 0
2, 152480, Note_on_c, 1, 50, 127
2, 152600, Note_off_c, 1, 50, 0
2, 152600, Note_off_c, 1, 62, 0
2, 152600, Note_off_c, 1, 67, 0
2, 152640, Note_on_c, 1, 45, 127
2, 152640, Note_on_c, 1, 61, 127
2, 152640, Note_on_c, 1, 66, 127
2, 152760, Note_off_c, 1, 45, 0
2, 152800, Note_on_c, 1, 50, 127
2, 152920, Note_off_c, 1, 50, 0
2, 152920, Note_off_c, 1, 61, 0
2, 152920, Note_off_c, 1, 66, 0
2, 152960, Note_on_c, 1, 43, 127
2, 152960, Note_on_c, 1, 59, 127
2, 152960, Note_on_c, 1, 64, 127
2, 153080, Note_off_c, 1, 43, 0
2, 153120, Note_on_c, 1, 50, 127
2, 153240, Note_off_c, 1, 50, 0
2, 153240, Note_off_c, 1, 59, 0
2, 153240, Note_off_c, 1, 64, 0
2, 153280, Note_on_c, 1, 42, 127
2, 153280, Note_on_c, 1, 57, 127
2, 153280, Note_on_c, 1, 62, 127
2, 153280, Note_on_c, 1, 69, 127
2, 153400, Note_off_c, 1, 42, 0
2, 153440, Note_on_c, 1, 50, 127
2, 153560, Note_off_c, 1, 50, 0
2, 153560, Note_off_c, 1, 57, 0
2, 153560, Note_off_c, 1, 62, 0
2, 153560, Note_off_c, 1, 69, 0
2, 153600, Note_on_c, 1, 40, 127
2, 153600, Note_on_c, 1, 61, 127
2, 153600, Note_on_c, 1, 67, 127
2, 153720, Note_off_c, 1, 40, 0
2, 153760, Note_on_c, 1, 50, 127
2, 153880, Note_off_c, 1, 50, 0
2, 153880, Note_off_c, 1, 61, 0
2, 153880, Note_off_c, 1, 67, 0
2, 153920, Note_on_c, 1, 38, 127
2, 153920, Note_on_c, 1, 62, 127
2, 153920, Note_on_c, 1, 66, 127
2, 154040, Note_off_c, 1, 38, 0
2, 154080, Note_on_c, 1, 50, 127
2, 154200, Note_off_c, 1, 50, 0
2, 154240, Note_on_c, 1, 43, 127
2, 154360, Note_off_c, 1, 66, 0
2, 154400, Note_on_c, 1, 71, 127
2, 154520, Note_off_c, 1, 43, 0
2, 154520, Note_off_c, 1, 62, 0
2, 154520, Note_off_c, 1, 71, 0
2, 154600, Note_on_c, 1, 45, 127
2, 154600, Note_on_c, 1, 61, 127
2, 154600, Note_on_c, 1, 66, 127
2, 154640, Note_off_c, 1, 66, 0
2, 154680, Note_on_c, 1, 64, 127
2, 154720, Note_off_c, 1, 64, 0
2, 154760, Note_on_c, 1, 66, 127
2, 154800, Note_off_c, 1, 66, 0
2, 154840, Note_on_c, 1, 64, 127
2, 154880, Note_off_c, 1, 45, 0
2, 154880, Note_off_c, 1, 64, 0
2, 154920, Note_on_c, 1, 45, 127
2, 154920, Note_on_c, 1, 66, 127
2, 154960, Note_off_c, 1, 66, 0
2, 155000, Note_on_c, 1, 64, 127
2, 155040, Note_off_c, 1, 64, 0
2, 155080, Note_on_c, 1, 62, 127
2, 155200, Note_off_c, 1, 45, 0
2, 155200, Note_off_c, 1, 61, 0
2, 155200, Note_off_c, 1, 62, 0
2, 155240, Note_on_c, 1, 38, 127
2, 155240, Note_on_c, 1, 62, 127
2, 155520, Note_off_c, 1, 62, 0
2, 155560, Note_on_c, 1, 69, 127
2, 155680, Note_off_c, 1, 38, 0
2, 155720, Note_on_c, 1, 67, 127
2, 155840, Note_off_c, 1, 67, 0
2, 155840, Note_off_c, 1, 69, 0
2, 155880, Note_on_c, 1, 66, 127
2, 155880, Note_on_c, 1, 69, 127
2, 156000, Note_off_c, 1, 66, 0
2, 156040, Note_on_c, 1, 64, 127
2, 156160, Note_off_c, 1, 64, 0
2, 156160, Note_off_c, 1, 69, 0
2, 156200, Note_on_c, 1, 63, 127
2, 156200, Note_on_c, 1, 71, 127
2, 156320, Note_off_c, 1, 63, 0
2, 156320, Note_off_c, 1, 71, 0
2, 156360, Note_on_c, 1, 64, 127
2, 156360, Note_on_c, 1, 69, 127
2, 156400, Note_on_c, 1, 68, 127
2, 156400, Note_off_c, 1, 69, 0
2, 156440, Note_off_c, 1, 68, 0
2, 156480, Note_off_c, 1, 64, 0
2, 156480, Note_on_c, 1, 69, 127
2, 156520, Note_on_c, 1, 66, 127
2, 156520, Note_off_c, 1, 69, 0
2, 156560, Note_on_c, 1, 71, 127
2, 156600, Note_on_c, 1, 69, 127
2, 156600, Note_off_c, 1, 71, 0
2, 156640, Note_off_c, 1, 66, 0
2, 156640, Note_off_c, 1, 69, 0
2, 156680, Note_on_c, 1, 63, 127
2, 156680, Note_on_c, 1, 71, 127
2, 156720, Note_off_c, 1, 71, 0
2, 156760, Note_on_c, 1, 69, 127
2, 156800, Note_off_c, 1, 63, 0
2, 156800, Note_off_c, 1, 69, 0
2, 156840, Note_on_c, 1, 60, 127
2, 156840, Note_on_c, 1, 71, 127
2, 156880, Note_on_c, 1, 69, 127
2, 156880, Note_off_c, 1, 71, 0
2, 156920, Note_off_c, 1, 69, 0
2, 156960, Note_off_c, 1, 60, 0
2, 156960, Note_on_c, 1, 71, 127
2, 157000, Note_on_c, 1, 63, 127
2, 157000, Note_off_c, 1, 71, 0
2, 157040, Note_on_c, 1, 69, 127
2, 157080, Note_off_c, 1, 69, 0
2, 157080, Note_on_c, 1, 71, 127
2, 157120, Note_off_c, 1, 63, 0
2, 157120, Note_off_c, 1, 71, 0
2, 157160, Note_on_c, 1, 57, 127
2, 157160, Note_on_c, 1, 69, 127
2, 157200, Note_off_c, 1, 69, 0
2, 157240, Note_on_c, 1, 71, 127
2, 157280, Note_off_c, 1, 57, 0
2, 157280, Note_off_c, 1, 71, 0
2, 157320, Note_on_c, 1, 59, 127
2, 157320, Note_on_c, 1, 69, 127
2, 157360, Note_off_c, 1, 69, 0
2, 157360, Note_on_c, 1, 71, 127
2, 157400, Note_off_c, 1, 71, 0
2, 157440, Note_off_c, 1, 59, 0
2, 157440, Note_on_c, 1, 69, 127
2, 157480, Note_on_c, 1, 60, 127
2, 157480, Note_off_c, 1, 69, 0
2, 157520, Note_on_c, 1, 71, 127
2, 157560, Note_on_c, 1, 69, 127
2, 157560, Note_off_c, 1, 71, 0
2, 157600, Note_off_c, 1, 60, 0
2, 157600, Note_off_c, 1, 69, 0
2, 157640, Note_on_c, 1, 71, 127
2, 157680, Note_on_c, 1, 57, 127
2, 157680, Note_off_c, 1, 71, 0
2, 157720, Note_on_c, 1, 69, 127
2, 157760, Note_off_c, 1, 57, 0
2, 157760, Note_off_c, 1, 69, 0
2, 157800, Note_on_c, 1, 71, 127
2, 157840, Note_on_c, 1, 54, 127
2, 157840, Note_on_c, 1, 69, 127
2, 157840, Note_off_c, 1, 71, 0
2, 157880, Note_off_c, 1, 69, 0
2, 157920, Note_off_c, 1, 54, 0
2, 157920, Note_on_c, 1, 71, 127
2, 157960, Note_off_c, 1, 71, 0
2, 158000, Note_on_c, 1, 57, 127
2, 158000, Note_on_c, 1, 69, 127
2, 158120, Note_off_c, 1, 57, 0
2, 158160, Note_on_c, 1, 51, 127
2, 158280, Note_off_c, 1, 51, 0
2, 158280, Note_off_c, 1, 69, 0
2, 158320, Note_on_c, 1, 52, 127
2, 158320, Note_on_c, 1, 67, 127
2, 158440, Note_off_c, 1, 52, 0
2, 158440, Note_off_c, 1, 67, 0
2, 158480, Note_on_c, 1, 54, 127
2, 158480, Note_on_c, 1, 69, 127
2, 158600, Note_off_c, 1, 54, 0
2, 158600, Note_off_c, 1, 69, 0
2, 158640, Note_on_c, 1, 51, 127
2, 158640, Note_on_c, 1, 72, 127
2, 158760, Note_off_c, 1, 51, 0
2, 158760, Note_off_c, 1, 72, 0
2, 158800, Note_on_c, 1, 47, 127
2, 158800, Note_on_c, 1, 71, 127
2, 158920, Note_off_c, 1, 47, 0
2, 158920, Note_off_c, 1, 71, 0
2, 158960, Note_on_c, 1, 51, 127
2, 158960, Note_on_c, 1, 69, 127
2, 159080, Note_off_c, 1, 51, 0
2, 159080, Note_off_c, 1, 69, 0
2, 159120, Note_on_c, 1, 40, 127
2, 159120, Note_on_c, 1, 67, 127
2, 159240, Note_off_c, 1, 67, 0
2, 159280, Note_on_c, 1, 69, 127
2, 159400, Note_off_c, 1, 69, 0
2, 159440, Note_on_c, 1, 67, 127
2, 159560, Note_off_c, 1, 40, 0
2, 159600, Note_on_c, 1, 66, 127
2, 159720, Note_off_c, 1, 66, 0
2, 159720, Note_off_c, 1, 67, 0
2, 159760, Note_on_c, 1, 64, 127
2, 159760, Note_on_c, 1, 67, 127
2, 159880, Note_off_c, 1, 64, 0
2, 159920, Note_on_c, 1, 62, 127
2, 160040, Note_off_c, 1, 62, 0
2, 160040, Note_off_c, 1, 67, 0
2, 160080, Note_on_c, 1, 61, 127
2, 160080, Note_on_c, 1, 69, 127
2, 160200, Note_off_c, 1, 61, 0
2, 160240, Note_on_c, 1, 62, 127
2, 160240, Note_off_c, 1, 69, 0
2, 160320, Note_on_c, 1, 67, 127
2, 160360, Note_off_c, 1, 62, 0
2, 160360, Note_on_c, 1, 66, 127
2, 160360, Note_off_c, 1, 67, 0
2, 160400, Note_on_c, 1, 64, 127
2, 160400, Note_off_c, 1, 66, 0
2, 160440, Note_on_c, 1, 67, 127
2, 160480, Note_off_c, 1, 67, 0
2, 160520, Note_off_c, 1, 64, 0
2, 160520, Note_on_c, 1, 69, 127
2, 160560, Note_on_c, 1, 61, 127
2, 160560, Note_on_c, 1, 67, 127
2, 160560, Note_off_c, 1, 69, 0
2, 160600, Note_off_c, 1, 67, 0
2, 160640, Note_on_c, 1, 69, 127
2, 160680, Note_off_c, 1, 61, 0
2, 160680, Note_off_c, 1, 69, 0
2, 160720, Note_on_c, 1, 57, 127
2, 160720, Note_on_c, 1, 67, 127
2, 160760, Note_off_c, 1, 67, 0
2, 160760, Note_on_c, 1, 69, 127
2, 160800, Note_off_c, 1, 69, 0
2, 160840, Note_off_c, 1, 57, 0
2, 160840, Note_on_c, 1, 67, 127
2, 160880, Note_on_c, 1, 61, 127
2, 160880, Note_off_c, 1, 67, 0
2, 160920, Note_on_c, 1, 69, 127
2, 160960, Note_off_c, 1, 69, 0
2, 161000, Note_off_c, 1, 61, 0
2, 161000, Note_on_c, 1, 67, 127
2, 161040, Note_off_c, 1, 67, 0
2, 161040, Note_on_c, 1, 69, 127
2, 161080, Note_on_c, 1, 55, 127
2, 161080, Note_off_c, 1, 69, 0
2, 161120, Note_on_c, 1, 67, 127
2, 161160, Note_off_c, 1, 55, 0
2, 161160, Note_off_c, 1, 67, 0
2, 161200, Note_on_c, 1, 69, 127
2, 161240, Note_on_c, 1, 57, 127
2, 161240, Note_on_c, 1, 67, 127
2, 161240, Note_off_c, 1, 69, 0
2, 161280, Note_off_c, 1, 67, 0
2, 161320, Note_on_c, 1, 69, 127
2, 161360, Note_off_c, 1, 57, 0
2, 161360, Note_off_c, 1, 69, 0
2, 161400, Note_on_c, 1, 59, 127
2, 161400, Note_on_c, 1, 67, 127
2, 161440, Note_off_c, 1, 67, 0
2, 161440, Note_on_c, 1, 69, 127
2, 161480, Note_off_c, 1, 69, 0
2, 161520, Note_off_c, 1, 59, 0
2, 161520, Note_on_c, 1, 67, 127
2, 161560, Note_on_c, 1, 55, 127
2, 161560, Note_off_c, 1, 67, 0
2, 161600, Note_on_c, 1, 69, 127
2, 161640, Note_off_c, 1, 69, 0
2, 161680, Note_off_c, 1, 55, 0
2, 161680, Note_on_c, 1, 67, 127
2, 161720, Note_on_c, 1, 52, 127
2, 161720, Note_off_c, 1, 67, 0
2, 161720, Note_on_c, 1, 69, 127
2, 161760, Note_off_c, 1, 69, 0
2, 161800, Note_on_c, 1, 67, 127
2, 161840, Note_off_c, 1, 52, 0
2, 161880, Note_on_c, 1, 55, 127
2, 162000, Note_off_c, 1, 55, 0
2, 162040, Note_on_c, 1, 49, 127
2, 162160, Note_off_c, 1, 49, 0
2, 162160, Note_off_c, 1, 67, 0
2, 162200, Note_on_c, 1, 50, 127
2, 162200, Note_on_c, 1, 66, 127
2, 162320, Note_off_c, 1, 50, 0
2, 162320, Note_off_c, 1, 66, 0
2, 162360, Note_on_c, 1, 52, 127
2, 162360, Note_on_c, 1, 67, 127
2, 162480, Note_off_c, 1, 52, 0
2, 162480, Note_off_c, 1, 67, 0
2, 162520, Note_on_c, 1, 49, 127
2, 162520, Note_on_c, 1, 71, 127
2, 162640, Note_off_c, 1, 49, 0
2, 162640, Note_off_c, 1, 71, 0
2, 162680, Note_on_c, 1, 45, 127
2, 162680, Note_on_c, 1, 69, 127
2, 162800, Note_off_c, 1, 45, 0
2, 162800, Note_off_c, 1, 69, 0
2, 162840, Note_on_c, 1, 49, 127
2, 162840, Note_on_c, 1, 67, 127
2, 162960, Note_off_c, 1, 49, 0
2, 162960, Note_off_c, 1, 67, 0
2, 163000, Note_on_c, 1, 38, 127
2, 163000, Note_on_c, 1, 66, 127
2, 163120, Note_off_c, 1, 66, 0
2, 163200, Note_on_c, 1, 68, 127
2, 163240, Note_off_c, 1, 68, 0
2, 163280, Note_on_c, 1, 70, 127
2, 163320, Note_off_c, 1, 70, 0
2, 163360, Note_on_c, 1, 71, 127
2, 163440, Note_off_c, 1, 38, 0
2, 163520, Note_on_c, 1, 69, 127
2, 163640, Note_off_c, 1, 69, 0
2, 163640, Note_off_c, 1, 71, 0
2, 163680, Note_on_c, 1, 68, 127
2, 163680, Note_on_c, 1, 71, 127
2, 163800, Note_off_c, 1, 68, 0
2, 163840, Note_on_c, 1, 66, 127
2, 163960, Note_off_c, 1, 66, 0
2, 163960, Note_off_c, 1, 71, 0
2, 164000, Note_on_c, 1, 65, 127
2, 164000, Note_on_c, 1, 73, 127
2, 164120, Note_off_c, 1, 65, 0
2, 164120, Note_on_c, 1, 71, 127
2, 164120, Note_off_c, 1, 73, 0
2, 164160, Note_on_c, 1, 66, 127
2, 164160, Note_off_c, 1, 71, 0
2, 164200, Note_on_c, 1, 70, 127
2, 164240, Note_off_c, 1, 70, 0
2, 164280, Note_off_c, 1, 66, 0
2, 164280, Note_on_c, 1, 71, 127
2, 164320, Note_on_c, 1, 68, 127
2, 164320, Note_off_c, 1, 71, 0
2, 164320, Note_on_c, 1, 73, 127
2, 164360, Note_off_c, 1, 73, 0
2, 164400, Note_on_c, 1, 71, 127
2, 164440, Note_off_c, 1, 68, 0
2, 164440, Note_off_c, 1, 71, 0
2, 164480, Note_on_c, 1, 65, 127
2, 164480, Note_on_c, 1, 73, 127
2, 164520, Note_on_c, 1, 71, 127
2, 164520, Note_off_c, 1, 73, 0
2, 164560, Note_off_c, 1, 71, 0
2, 164600, Note_off_c, 1, 65, 0
2, 164600, Note_on_c, 1, 73, 127
2, 164640, Note_on_c, 1, 62, 127
2, 164640, Note_off_c, 1, 73, 0
2, 164680, Note_on_c, 1, 71, 127
2, 164720, Note_off_c, 1, 71, 0
2, 164720, Note_on_c, 1, 73, 127
2, 164760, Note_off_c, 1, 62, 0
2, 164760, Note_off_c, 1, 73, 0
2, 164800, Note_on_c, 1, 65, 127
2, 164800, Note_on_c, 1, 71, 127
2, 164840, Note_off_c, 1, 71, 0
2, 164880, Note_on_c, 1, 73, 127
2, 164920, Note_off_c, 1, 65, 0
2, 164920, Note_on_c, 1, 71, 127
2, 164920, Note_off_c, 1, 73, 0
2, 164960, Note_on_c, 1, 59, 127
2, 164960, Note_off_c, 1, 71, 0
2, 165000, Note_on_c, 1, 73, 127
2, 165040, Note_off_c, 1, 73, 0
2, 165080, Note_off_c, 1, 59, 0
2, 165080, Note_on_c, 1, 71, 127
2, 165120, Note_on_c, 1, 61, 127
2, 165120, Note_off_c, 1, 71, 0
2, 165120, Note_on_c, 1, 73, 127
2, 165160, Note_off_c, 1, 73, 0
2, 165200, Note_on_c, 1, 71, 127
2, 165240, Note_off_c, 1, 61, 0
2, 165240, Note_off_c, 1, 71, 0
2, 165280, Note_on_c, 1, 62, 127
2, 165280, Note_on_c, 1, 73, 127
2, 165320, Note_off_c, 1, 73, 0
2, 165360, Note_on_c, 1, 71, 127
2, 165400, Note_off_c, 1, 62, 0
2, 165400, Note_off_c, 1, 71, 0
2, 165400, Note_on_c, 1, 73, 127
2, 165440, Note_on_c, 1, 59, 127
2, 165440, Note_off_c, 1, 73, 0
2, 165480, Note_on_c, 1, 71, 127
2, 165520, Note_off_c, 1, 71, 0
2, 165560, Note_off_c, 1, 59, 0
2, 165560, Note_on_c, 1, 73, 127
2, 165600, Note_on_c, 1, 56, 127
2, 165600, Note_on_c, 1, 71, 127
2, 165600, Note_off_c, 1, 73, 0
2, 165640, Note_off_c, 1, 71, 0
2, 165680, Note_on_c, 1, 73, 127
2, 165720, Note_off_c, 1, 56, 0
2, 165720, Note_off_c, 1, 73, 0
2, 165760, Note_on_c, 1, 59, 127
2, 165760, Note_on_c, 1, 71, 127
2, 165880, Note_off_c, 1, 59, 0
2, 165920, Note_on_c, 1, 53, 127
2, 166040, Note_off_c, 1, 53, 0
2, 166040, Note_off_c, 1, 71, 0
2, 166120, Note_on_c, 1, 54, 127
2, 166120, Note_on_c, 1, 69, 127
2, 166200, Note_off_c, 1, 54, 0
2, 166200, Note_off_c, 1, 69, 0
2, 166280, Note_on_c, 1, 56, 127
2, 166280, Note_on_c, 1, 71, 127
2, 166400, Note_off_c, 1, 56, 0
2, 166400, Note_off_c, 1, 71, 0
2, 166440, Note_on_c, 1, 53, 127
2, 166440, Note_on_c, 1, 74, 127
2, 166560, Note_off_c, 1, 53, 0
2, 166560, Note_off_c, 1, 74, 0
2, 166600, Note_on_c, 1, 49, 127
2, 166600, Note_on_c, 1, 73, 127
2, 166720, Note_off_c, 1, 49, 0
2, 166720, Note_off_c, 1, 73, 0
2, 166760, Note_on_c, 1, 53, 127
2, 166760, Note_on_c, 1, 71, 127
2, 166880, Note_off_c, 1, 53, 0
2, 166880, Note_off_c, 1, 71, 0
2, 166920, Note_on_c, 1, 42, 127
2, 166920, Note_on_c, 1, 69, 127
2, 167040, Note_off_c, 1, 69, 0
2, 167080, Note_on_c, 1, 68, 127
2, 167200, Note_off_c, 1, 42, 0
2, 167200, Note_off_c, 1, 68, 0
2, 167240, Note_on_c, 1, 45, 127
2, 167240, Note_on_c, 1, 66, 127
2, 167360, Note_off_c, 1, 66, 0
2, 167400, Note_on_c, 1, 74, 127
2, 167520, Note_off_c, 1, 45, 0
2, 167520, Note_off_c, 1, 74, 0
2, 167560, Note_on_c, 1, 50, 127
2, 167560, Note_on_c, 1, 65, 127
2, 167680, Note_off_c, 1, 65, 0
2, 167720, Note_on_c, 1, 66, 127
2, 167800, Note_off_c, 1, 50, 0
2, 167840, Note_off_c, 1, 66, 0
2, 167880, Note_on_c, 1, 40, 127
2, 167880, Note_on_c, 1, 68, 127
2, 168000, Note_off_c, 1, 68, 0
2, 168040, Note_on_c, 1, 66, 127
2, 168160, Note_off_c, 1, 40, 0
2, 168160, Note_off_c, 1, 66, 0
2, 168200, Note_on_c, 1, 44, 127
2, 168200, Note_on_c, 1, 64, 127
2, 168320, Note_off_c, 1, 64, 0
2, 168360, Note_on_c, 1, 73, 127
2, 168480, Note_off_c, 1, 44, 0
2, 168480, Note_off_c, 1, 73, 0
2, 168520, Note_on_c, 1, 49, 127
2, 168520, Note_on_c, 1, 63, 127
2, 168640, Note_off_c, 1, 63, 0
2, 168680, Note_on_c, 1, 64, 127
2, 168800, Note_off_c, 1, 49, 0
2, 168800, Note_off_c, 1, 64, 0
2, 168840, Note_on_c, 1, 38, 127
2, 168840, Note_on_c, 1, 66, 127
2, 168960, Note_off_c, 1, 66, 0
2, 169000, Note_on_c, 1, 64, 127
2, 169120, Note_off_c, 1, 38, 0
2, 169120, Note_off_c, 1, 64, 0
2, 169160, Note_on_c, 1, 42, 127
2, 169160, Note_on_c, 1, 62, 127
2, 169280, Note_off_c, 1, 62, 0
2, 169360, Note_on_c, 1, 71, 127
2, 169440, Note_off_c, 1, 42, 0
2, 169440, Note_off_c, 1, 71, 0
2, 169520, Note_on_c, 1, 47, 127
2, 169520, Note_on_c, 1, 61, 127
2, 169640, Note_off_c, 1, 61, 0
2, 169680, Note_on_c, 1, 63, 127
2, 169760, Note_off_c, 1, 47, 0
2, 169800, Note_off_c, 1, 63, 0
2, 169840, Note_on_c, 1, 37, 127
2, 169840, Note_on_c, 1, 65, 127
2, 169960, Note_off_c, 1, 65, 0
2, 170000, Note_on_c, 1, 63, 127
2, 170120, Note_off_c, 1, 63, 0
2, 170160, Note_on_c, 1, 49, 127
2, 170160, Note_on_c, 1, 61, 127
2, 170280, Note_off_c, 1, 61, 0
2, 170320, Note_on_c, 1, 71, 127
2, 170440, Note_off_c, 1, 71, 0
2, 170480, Note_on_c, 1, 63, 127
2, 170600, Note_off_c, 1, 63, 0
2, 170640, Note_on_c, 1, 65, 127
2, 170760, Note_off_c, 1, 37, 0
2, 170760, Note_off_c, 1, 65, 0
2, 170800, Note_on_c, 1, 37, 127
2, 170800, Note_on_c, 1, 66, 127
2, 170920, Note_off_c, 1, 66, 0
2, 170960, Note_on_c, 1, 65, 127
2, 171080, Note_off_c, 1, 49, 0
2, 171080, Note_off_c, 1, 65, 0
2, 171120, Note_on_c, 1, 49, 127
2, 171120, Note_on_c, 1, 63, 127
2, 171240, Note_off_c, 1, 63, 0
2, 171280, Note_on_c, 1, 69, 127
2, 171400, Note_off_c, 1, 69, 0
2, 171440, Note_on_c, 1, 60, 127
2, 171560, Note_off_c, 1, 60, 0
2, 171600, Note_on_c, 1, 61, 127
2, 171720, Note_off_c, 1, 37, 0
2, 171720, Note_off_c, 1, 61, 0
2, 171760, Note_on_c, 1, 37, 127
2, 171760, Note_on_c, 1, 63, 127
2, 171880, Note_off_c, 1, 63, 0
2, 171920, Note_on_c, 1, 61, 127
2, 172040, Note_off_c, 1, 49, 0
2, 172040, Note_off_c, 1, 61, 0
2, 172080, Note_on_c, 1, 49, 127
2, 172080, Note_on_c, 1, 60, 127
2, 172200, Note_off_c, 1, 60, 0
2, 172240, Note_on_c, 1, 68, 127
2, 172360, Note_off_c, 1, 68, 0
2, 172400, Note_on_c, 1, 63, 127
2, 172520, Note_off_c, 1, 63, 0
2, 172560, Note_on_c, 1, 65, 127
2, 172680, Note_off_c, 1, 65, 0
2, 172720, Note_off_c, 1, 37, 0
2, 172760, Note_on_c, 1, 37, 127
2, 172760, Note_on_c, 1, 66, 127
2, 172880, Note_off_c, 1, 66, 0
2, 172920, Note_on_c, 1, 65, 127
2, 173040, Note_off_c, 1, 37, 0
2, 173040, Note_off_c, 1, 49, 0
2, 173040, Note_off_c, 1, 65, 0
2, 173080, Note_on_c, 1, 49, 127
2, 173080, Note_on_c, 1, 63, 127
2, 173200, Note_off_c, 1, 63, 0
2, 173240, Note_on_c, 1, 61, 127
2, 173360, Note_off_c, 1, 49, 0
2, 173360, Note_off_c, 1, 61, 0
2, 173400, Note_on_c, 1, 49, 127
2, 173400, Note_on_c, 1, 63, 127
2, 173520, Note_off_c, 1, 63, 0
2, 173560, Note_on_c, 1, 65, 127
2, 173680, Note_off_c, 1, 49, 0
2, 173680, Note_off_c, 1, 65, 0
2, 173720, Note_on_c, 1, 45, 127
2, 173720, Note_on_c, 1, 66, 127
2, 173840, Note_off_c, 1, 45, 0
2, 173880, Note_on_c, 1, 44, 127
2, 174000, Note_off_c, 1, 44, 0
2, 174000, Note_off_c, 1, 66, 0
2, 174040, Note_on_c, 1, 42, 127
2, 174040, Note_on_c, 1, 54, 127
2, 174160, Note_off_c, 1, 42, 0
2, 174200, Note_on_c, 1, 44, 127
2, 174320, Note_off_c, 1, 44, 0
2, 174320, Note_off_c, 1, 54, 0
2, 174360, Note_on_c, 1, 45, 127
2, 174360, Note_on_c, 1, 54, 127
2, 174480, Note_off_c, 1, 45, 0
2, 174520, Note_on_c, 1, 47, 127
2, 174640, Note_off_c, 1, 47, 0
2, 174640, Note_off_c, 1, 54, 0
2, 174680, Note_on_c, 1, 49, 127
2, 174680, Note_on_c, 1, 53, 127
2, 174800, Note_off_c, 1, 49, 0
2, 174840, Note_on_c, 1, 47, 127
2, 174960, Note_off_c, 1, 47, 0
2, 174960, Note_off_c, 1, 53, 0
2, 175000, Note_on_c, 1, 49, 127
2, 175000, Note_on_c, 1, 61, 127
2, 175120, Note_off_c, 1, 49, 0
2, 175160, Note_on_c, 1, 51, 127
2, 175280, Note_off_c, 1, 51, 0
2, 175280, Note_off_c, 1, 61, 0
2, 175320, Note_on_c, 1, 53, 127
2, 175320, Note_on_c, 1, 61, 127
2, 175440, Note_off_c, 1, 53, 0
2, 175480, Note_on_c, 1, 49, 127
2, 175600, Note_off_c, 1, 49, 0
2, 175600, Note_off_c, 1, 61, 0
2, 175640, Note_on_c, 1, 54, 127
2, 175640, Note_on_c, 1, 57, 127
2, 175760, Note_off_c, 1, 54, 0
2, 175840, Note_on_c, 1, 53, 127
2, 175920, Note_off_c, 1, 53, 0
2, 175920, Note_off_c, 1, 57, 0
2, 176000, Note_on_c, 1, 54, 127
2, 176000, Note_on_c, 1, 66, 127
2, 176120, Note_off_c, 1, 54, 0
2, 176160, Note_on_c, 1, 56, 127
2, 176280, Note_off_c, 1, 56, 0
2, 176280, Note_off_c, 1, 66, 0
2, 176320, Note_on_c, 1, 57, 127
2, 176320, Note_on_c, 1, 66, 127
2, 176440, Note_off_c, 1, 57, 0
2, 176480, Note_on_c, 1, 59, 127
2, 176600, Note_off_c, 1, 59, 0
2, 176600, Note_off_c, 1, 66, 0
2, 176640, Note_on_c, 1, 61, 127
2, 176640, Note_on_c, 1, 65, 127
2, 176760, Note_off_c, 1, 61, 0
2, 176800, Note_on_c, 1, 59, 127
2, 176920, Note_off_c, 1, 59, 0
2, 176920, Note_off_c, 1, 65, 0
2, 176960, Note_on_c, 1, 61, 127
2, 176960, Note_on_c, 1, 73, 127
2, 177080, Note_off_c, 1, 61, 0
2, 177120, Note_on_c, 1, 63, 127
2, 177240, Note_off_c, 1, 63, 0
2, 177240, Note_off_c, 1, 73, 0
2, 177280, Note_on_c, 1, 65, 127
2, 177280, Note_on_c, 1, 73, 127
2, 177400, Note_off_c, 1, 65, 0
2, 177440, Note_on_c, 1, 61, 127
2, 177560, Note_off_c, 1, 61, 0
2, 177560, Note_off_c, 1, 73, 0
2, 177600, Note_on_c, 1, 66, 127
2, 177600, Note_on_c, 1, 69, 127
2, 177720, Note_off_c, 1, 69, 0
2, 177760, Note_on_c, 1, 68, 127
2, 177880, Note_off_c, 1, 66, 0
2, 177880, Note_off_c, 1, 68, 0
2, 177920, Note_on_c, 1, 54, 127
2, 177920, Note_on_c, 1, 57, 127
2, 177920, Note_on_c, 1, 61, 127
2, 177920, Note_on_c, 1, 66, 127
2, 178040, Note_off_c, 1, 66, 0
2, 178080, Note_on_c, 1, 68, 127
2, 178200, Note_off_c, 1, 54, 0
2, 178200, Note_off_c, 1, 57, 0
2, 178200, Note_off_c, 1, 61, 0
2, 178200, Note_off_c, 1, 68, 0
2, 178240, Note_on_c, 1, 54, 127
2, 178240, Note_on_c, 1, 57, 127
2, 178240, Note_on_c, 1, 61, 127
2, 178240, Note_on_c, 1, 69, 127
2, 178360, Note_off_c, 1, 69, 0
2, 178400, Note_on_c, 1, 71, 127
2, 178520, Note_off_c, 1, 54, 0
2, 178520, Note_off_c, 1, 57, 0
2, 178520, Note_off_c, 1, 61, 0
2, 178520, Note_off_c, 1, 71, 0
2, 178560, Note_on_c, 1, 53, 127
2, 178560, Note_on_c, 1, 56, 127
2, 178560, Note_on_c, 1, 61, 127
2, 178560, Note_on_c, 1, 73, 127
2, 178680, Note_off_c, 1, 73, 0
2, 178720, Note_on_c, 1, 71, 127
2, 178840, Note_off_c, 1, 53, 0
2, 178840, Note_off_c, 1, 56, 0
2, 178840, Note_off_c, 1, 61, 0
2, 178840, Note_off_c, 1, 71, 0
2, 178880, Note_on_c, 1, 49, 127
2, 178880, Note_on_c, 1, 53, 127
2, 178880, Note_on_c, 1, 56, 127
2, 178880, Note_on_c, 1, 73, 127
2, 179000, Note_off_c, 1, 73, 0
2, 179080, Note_on_c, 1, 75, 127
2, 179160, Note_off_c, 1, 49, 0
2, 179160, Note_off_c, 1, 53, 0
2, 179160, Note_off_c, 1, 56, 0
2, 179160, Note_off_c, 1, 75, 0
2, 179240, Note_on_c, 1, 49, 127
2, 179240, Note_on_c, 1, 53, 127
2, 179240, Note_on_c, 1, 56, 127
2, 179240, Note_on_c, 1, 77, 127
2, 179360, Note_off_c, 1, 77, 0
2, 179400, Note_on_c, 1, 73, 127
2, 179520, Note_off_c, 1, 49, 0
2, 179520, Note_off_c, 1, 53, 0
2, 179520, Note_off_c, 1, 56, 0
2, 179520, Note_off_c, 1, 73, 0
2, 179560, Note_on_c, 1, 45, 127
2, 179560, Note_on_c, 1, 49, 127
2, 179560, Note_on_c, 1, 54, 127
2, 179560, Note_on_c, 1, 78, 127
2, 179680, Note_off_c, 1, 78, 0
2, 179720, Note_on_c, 1, 77, 127
2, 179840, Note_off_c, 1, 45, 0
2, 179840, Note_off_c, 1, 49, 0
2, 179840, Note_off_c, 1, 54, 0
2, 179840, Note_off_c, 1, 77, 0
2, 179880, Note_on_c, 1, 42, 127
2, 179880, Note_on_c, 1, 45, 127
2, 179880, Note_on_c, 1, 49, 127
2, 179880, Note_on_c, 1, 78, 127
2, 180000, Note_off_c, 1, 78, 0
2, 180040, Note_on_c, 1, 80, 127
2, 180160, Note_off_c, 1, 42, 0
2, 180160, Note_off_c, 1, 45, 0
2, 180160, Note_off_c, 1, 49, 0
2, 180160, Note_off_c, 1, 80, 0
2, 180200, Note_on_c, 1, 42, 127
2, 180200, Note_on_c, 1, 45, 127
2, 180200, Note_on_c, 1, 49, 127
2, 180200, Note_on_c, 1, 81, 127
2, 180320, Note_off_c, 1, 81, 0
2, 180360, Note_on_c, 1, 78, 127
2, 180480, Note_off_c, 1, 42, 0
2, 180480, Note_off_c, 1, 45, 0
2, 180480, Note_off_c, 1, 49, 0
2, 180480, Note_off_c, 1, 78, 0
2, 180520, Note_on_c, 1, 37, 127
2, 180520, Note_on_c, 1, 41, 127
2, 180520, Note_on_c, 1, 44, 127
2, 180520, Note_on_c, 1, 49, 127
2, 180520, Note_on_c, 1, 80, 127
2, 180640, Note_off_c, 1, 80, 0
2, 180680, Note_on_c, 1, 78, 127
2, 180800, Note_off_c, 1, 78, 0
2, 180840, Note_on_c, 1, 77, 127
2, 180960, Note_off_c, 1, 77, 0
2, 181000, Note_on_c, 1, 75, 127
2, 181120, Note_off_c, 1, 75, 0
2, 181160, Note_on_c, 1, 73, 127
2, 181240, Note_off_c, 1, 37, 0
2, 181240, Note_off_c, 1, 41, 0
2, 181240, Note_off_c, 1, 44, 0
2, 181240, Note_off_c, 1, 49, 0
2, 181280, Note_off_c, 1, 73, 0
2, 181320, Note_on_c, 1, 71, 127
2, 181440, Note_off_c, 1, 71, 0
2, 181480, Note_on_c, 1, 69, 127
2, 181640, Note_on_c, 1, 68, 127
2, 181760, Note_off_c, 1, 68, 0
2, 181760, Note_off_c, 1, 69, 0
2, 181800, Note_on_c, 1, 66, 127
2, 181800, Note_on_c, 1, 69, 127
2, 181800, Note_on_c, 1, 73, 127
2, 181800, Note_on_c, 1, 78, 127
2, 181920, Note_off_c, 1, 66, 0
2, 181960, Note_on_c, 1, 64, 127
2, 182080, Note_off_c, 1, 64, 0
2, 182080, Note_off_c, 1, 69, 0
2, 182080, Note_off_c, 1, 73, 0
2, 182080, Note_off_c, 1, 78, 0
2, 182120, Note_on_c, 1, 62, 127
2, 182120, Note_on_c, 1, 69, 127
2, 182120, Note_on_c, 1, 73, 127
2, 182120, Note_on_c, 1, 78, 127
2, 182240, Note_off_c, 1, 62, 0
2, 182320, Note_on_c, 1, 61, 127
2, 182400, Note_off_c, 1, 61, 0
2, 182400, Note_off_c, 1, 69, 0
2, 182400, Note_off_c, 1, 73, 0
2, 182400, Note_off_c, 1, 78, 0
2, 182480, Note_on_c, 1, 59, 127
2, 182480, Note_on_c, 1, 71, 127
2, 182480, Note_on_c, 1, 74, 127
2, 182600, Note_off_c, 1, 59, 0
2, 182600, Note_off_c, 1, 74, 0
2, 182640, Note_on_c, 1, 61, 127
2, 182640, Note_on_c, 1, 76, 127
2, 182760, Note_off_c, 1, 61, 0
2, 182760, Note_off_c, 1, 76, 0
2, 182800, Note_on_c, 1, 59, 127
2, 182800, Note_on_c, 1, 74, 127
2, 182880, Note_off_c, 1, 71, 0
2, 182920, Note_off_c, 1, 59, 0
2, 182920, Note_off_c, 1, 74, 0
2, 182960, Note_on_c, 1, 57, 127
2, 182960, Note_on_c, 1, 73, 127
2, 183080, Note_off_c, 1, 57, 0
2, 183080, Note_off_c, 1, 73, 0
2, 183120, Note_on_c, 1, 56, 127
2, 183120, Note_on_c, 1, 71, 127
2, 183240, Note_off_c, 1, 56, 0
2, 183240, Note_off_c, 1, 71, 0
2, 183280, Note_on_c, 1, 54, 127
2, 183280, Note_on_c, 1, 69, 127
2, 183400, Note_off_c, 1, 54, 0
2, 183400, Note_off_c, 1, 69, 0
2, 183440, Note_on_c, 1, 52, 127
2, 183440, Note_on_c, 1, 68, 127
2, 183560, Note_off_c, 1, 52, 0
2, 183600, Note_on_c, 1, 66, 127
2, 183720, Note_off_c, 1, 66, 0
2, 183720, Note_off_c, 1, 68, 0
2, 183760, Note_on_c, 1, 64, 127
2, 183760, Note_on_c, 1, 68, 127
2, 183760, Note_on_c, 1, 71, 127
2, 183760, Note_on_c, 1, 76, 127
2, 183880, Note_off_c, 1, 64, 0
2, 183920, Note_on_c, 1, 62, 127
2, 184040, Note_off_c, 1, 62, 0
2, 184040, Note_off_c, 1, 68, 0
2, 184040, Note_off_c, 1, 71, 0
2, 184040, Note_off_c, 1, 76, 0
2, 184080, Note_on_c, 1, 61, 127
2, 184080, Note_on_c, 1, 68, 127
2, 184080, Note_on_c, 1, 71, 127
2, 184080, Note_on_c, 1, 76, 127
2, 184200, Note_off_c, 1, 61, 0
2, 184240, Note_on_c, 1, 59, 127
2, 184360, Note_off_c, 1, 59, 0
2, 184360, Note_off_c, 1, 68, 0
2, 184360, Note_off_c, 1, 71, 0
2, 184360, Note_off_c, 1, 76, 0
2, 184400, Note_on_c, 1, 57, 127
2, 184400, Note_on_c, 1, 69, 127
2, 184400, Note_on_c, 1, 73, 127
2, 184520, Note_off_c, 1, 57, 0
2, 184520, Note_off_c, 1, 73, 0
2, 184560, Note_on_c, 1, 59, 127
2, 184560, Note_on_c, 1, 74, 127
2, 184680, Note_off_c, 1, 59, 0
2, 184680, Note_off_c, 1, 74, 0
2, 184720, Note_on_c, 1, 57, 127
2, 184720, Note_on_c, 1, 73, 127
2, 184840, Note_off_c, 1, 57, 0
2, 184840, Note_off_c, 1, 69, 0
2, 184840, Note_off_c, 1, 73, 0
2, 184880, Note_on_c, 1, 56, 127
2, 184880, Note_on_c, 1, 71, 127
2, 185000, Note_off_c, 1, 56, 0
2, 185000, Note_off_c, 1, 71, 0
2, 185040, Note_on_c, 1, 54, 127
2, 185040, Note_on_c, 1, 69, 127
2, 185160, Note_off_c, 1, 54, 0
2, 185160, Note_off_c, 1, 69, 0
2, 185200, Note_on_c, 1, 52, 127
2, 185200, Note_on_c, 1, 68, 127
2, 185320, Note_off_c, 1, 52, 0
2, 185320, Note_off_c, 1, 68, 0
2, 185360, Note_on_c, 1, 50, 127
2, 185360, Note_on_c, 1, 66, 127
2, 185480, Note_off_c, 1, 50, 0
2, 185560, Note_on_c, 1, 64, 127
2, 185640, Note_off_c, 1, 64, 0
2, 185640, Note_off_c, 1, 66, 0
2, 185720, Note_on_c, 1, 62, 127
2, 185720, Note_on_c, 1, 66, 127
2, 185720, Note_on_c, 1, 69, 127
2, 185720, Note_on_c, 1, 74, 127
2, 185840, Note_off_c, 1, 62, 0
2, 185880, Note_on_c, 1, 61, 127
2, 186000, Note_off_c, 1, 61, 0
2, 186000, Note_off_c, 1, 66, 0
2, 186000, Note_off_c, 1, 69, 0
2, 186000, Note_off_c, 1, 74, 0
2, 186040, Note_on_c, 1, 59, 127
2, 186040, Note_on_c, 1, 66, 127
2, 186040, Note_on_c, 1, 69, 127
2, 186040, Note_on_c, 1, 74, 127
2, 186160, Note_off_c, 1, 59, 0
2, 186200, Note_on_c, 1, 57, 127
2, 186320, Note_off_c, 1, 57, 0
2, 186320, Note_off_c, 1, 66, 0
2, 186320, Note_off_c, 1, 69, 0
2, 186320, Note_off_c, 1, 74, 0
2, 186360, Note_on_c, 1, 56, 127
2, 186360, Note_on_c, 1, 66, 127
2, 186360, Note_on_c, 1, 71, 127
2, 186480, Note_off_c, 1, 56, 0
2, 186480, Note_off_c, 1, 71, 0
2, 186520, Note_on_c, 1, 57, 127
2, 186520, Note_on_c, 1, 73, 127
2, 186640, Note_off_c, 1, 57, 0
2, 186640, Note_off_c, 1, 73, 0
2, 186680, Note_on_c, 1, 56, 127
2, 186680, Note_on_c, 1, 71, 127
2, 186800, Note_off_c, 1, 56, 0
2, 186800, Note_off_c, 1, 66, 0
2, 186800, Note_off_c, 1, 71, 0
2, 186840, Note_on_c, 1, 54, 127
2, 186840, Note_on_c, 1, 69, 127
2, 186960, Note_off_c, 1, 54, 0
2, 186960, Note_off_c, 1, 69, 0
2, 187000, Note_on_c, 1, 53, 127
2, 187000, Note_on_c, 1, 68, 127
2, 187120, Note_off_c, 1, 53, 0
2, 187120, Note_off_c, 1, 68, 0
2, 187160, Note_on_c, 1, 51, 127
2, 187160, Note_on_c, 1, 66, 127
2, 187280, Note_off_c, 1, 51, 0
2, 187280, Note_off_c, 1, 66, 0
2, 187320, Note_on_c, 1, 49, 127
2, 187320, Note_on_c, 1, 65, 127
2, 187440, Note_off_c, 1, 49, 0
2, 187480, Note_on_c, 1, 50, 127
2, 187600, Note_off_c, 1, 50, 0
2, 187600, Note_off_c, 1, 65, 0
2, 187640, Note_on_c, 1, 49, 127
2, 187640, Note_on_c, 1, 65, 127
2, 187640, Note_on_c, 1, 68, 127
2, 187640, Note_on_c, 1, 73, 127
2, 187760, Note_off_c, 1, 49, 0
2, 187800, Note_on_c, 1, 47, 127
2, 187920, Note_off_c, 1, 47, 0
2, 187920, Note_off_c, 1, 65, 0
2, 187920, Note_off_c, 1, 68, 0
2, 187920, Note_off_c, 1, 73, 0
2, 187960, Note_on_c, 1, 45, 127
2, 187960, Note_on_c, 1, 65, 127
2, 187960, Note_on_c, 1, 68, 127
2, 187960, Note_on_c, 1, 73, 127
2, 188080, Note_off_c, 1, 45, 0
2, 188120, Note_on_c, 1, 44, 127
2, 188240, Note_off_c, 1, 44, 0
2, 188240, Note_off_c, 1, 65, 0
2, 188240, Note_off_c, 1, 68, 0
2, 188240, Note_off_c, 1, 73, 0
2, 188280, Note_on_c, 1, 42, 127
2, 188280, Note_on_c, 1, 61, 127
2, 188280, Note_on_c, 1, 66, 127
2, 188280, Note_on_c, 1, 69, 127
2, 188400, Note_off_c, 1, 42, 0
2, 188440, Note_on_c, 1, 44, 127
2, 188560, Note_off_c, 1, 44, 0
2, 188560, Note_off_c, 1, 61, 0
2, 188560, Note_off_c, 1, 66, 0
2, 188560, Note_off_c, 1, 69, 0
2, 188600, Note_on_c, 1, 42, 127
2, 188600, Note_on_c, 1, 61, 127
2, 188600, Note_on_c, 1, 66, 127
2, 188600, Note_on_c, 1, 69, 127
2, 188720, Note_off_c, 1, 42, 0
2, 188760, Note_on_c, 1, 40, 127
2, 188880, Note_off_c, 1, 40, 0
2, 188880, Note_off_c, 1, 61, 0
2, 188880, Note_off_c, 1, 66, 0
2, 188880, Note_off_c, 1, 69, 0
2, 188960, Note_on_c, 1, 38, 127
2, 188960, Note_on_c, 1, 61, 127
2, 188960, Note_on_c, 1, 66, 127
2, 188960, Note_on_c, 1, 69, 127
2, 189080, Note_off_c, 1, 38, 0
2, 189120, Note_on_c, 1, 37, 127
2, 189240, Note_off_c, 1, 37, 0
2, 189240, Note_off_c, 1, 61, 0
2, 189240, Note_off_c, 1, 66, 0
2, 189240, Note_off_c, 1, 69, 0
2, 189280, Note_on_c, 1, 35, 127
2, 189280, Note_on_c, 1, 62, 127
2, 189280, Note_on_c, 1, 69, 127
2, 189400, Note_off_c, 1, 62, 0
2, 189440, Note_on_c, 1, 61, 127
2, 189560, Note_off_c, 1, 35, 0
2, 189560, Note_off_c, 1, 61, 0
2, 189600, Note_on_c, 1, 47, 127
2, 189600, Note_on_c, 1, 62, 127
2, 189720, Note_off_c, 1, 62, 0
2, 189760, Note_on_c, 1, 64, 127
2, 189880, Note_off_c, 1, 47, 0
2, 189880, Note_off_c, 1, 64, 0
2, 189920, Note_on_c, 1, 47, 127
2, 189920, Note_on_c, 1, 66, 127
2, 190040, Note_off_c, 1, 66, 0
2, 190080, Note_on_c, 1, 62, 127
2, 190200, Note_off_c, 1, 47, 0
2, 190200, Note_off_c, 1, 62, 0
2, 190200, Note_off_c, 1, 69, 0
2, 190240, Note_on_c, 1, 40, 127
2, 190240, Note_on_c, 1, 59, 127
2, 190240, Note_on_c, 1, 68, 127
2, 190360, Note_off_c, 1, 59, 0
2, 190400, Note_on_c, 1, 66, 127
2, 190520, Note_off_c, 1, 40, 0
2, 190520, Note_off_c, 1, 66, 0
2, 190560, Note_on_c, 1, 52, 127
2, 190560, Note_on_c, 1, 64, 127
2, 190680, Note_off_c, 1, 64, 0
2, 190720, Note_on_c, 1, 62, 127
2, 190840, Note_off_c, 1, 52, 0
2, 190840, Note_off_c, 1, 62, 0
2, 190880, Note_on_c, 1, 52, 127
2, 190880, Note_on_c, 1, 61, 127
2, 191000, Note_off_c, 1, 61, 0
2, 191040, Note_on_c, 1, 59, 127
2, 191160, Note_off_c, 1, 52, 0
2, 191160, Note_off_c, 1, 59, 0
2, 191200, Note_on_c, 1, 57, 127
2, 191200, Note_on_c, 1, 61, 127
2, 191320, Note_off_c, 1, 61, 0
2, 191360, Note_on_c, 1, 59, 127
2, 191480, Note_off_c, 1, 57, 0
2, 191480, Note_off_c, 1, 59, 0
2, 191520, Note_on_c, 1, 45, 127
2, 191520, Note_on_c, 1, 61, 127
2, 191640, Note_off_c, 1, 61, 0
2, 191680, Note_on_c, 1, 62, 127
2, 191800, Note_off_c, 1, 45, 0
2, 191800, Note_off_c, 1, 62, 0
2, 191840, Note_on_c, 1, 45, 127
2, 191840, Note_on_c, 1, 64, 127
2, 191960, Note_off_c, 1, 64, 0
2, 192040, Note_on_c, 1, 61, 127
2, 192120, Note_off_c, 1, 45, 0
2, 192120, Note_off_c, 1, 61, 0
2, 192120, Note_off_c, 1, 68, 0
2, 192200, Note_on_c, 1, 38, 127
2, 192200, Note_on_c, 1, 57, 127
2, 192200, Note_on_c, 1, 66, 127
2, 192320, Note_off_c, 1, 57, 0
2, 192360, Note_on_c, 1, 64, 127
2, 192480, Note_off_c, 1, 38, 0
2, 192480, Note_off_c, 1, 64, 0
2, 192520, Note_on_c, 1, 50, 127
2, 192520, Note_on_c, 1, 62, 127
2, 192640, Note_off_c, 1, 62, 0
2, 192680, Note_on_c, 1, 61, 127
2, 192800, Note_off_c, 1, 50, 0
2, 192800, Note_off_c, 1, 61, 0
2, 192840, Note_on_c, 1, 50, 127
2, 192840, Note_on_c, 1, 59, 127
2, 192960, Note_off_c, 1, 59, 0
2, 193000, Note_on_c, 1, 57, 127
2, 193120, Note_off_c, 1, 50, 0
2, 193120, Note_off_c, 1, 57, 0
2, 193160, Note_on_c, 1, 56, 127
2, 193160, Note_on_c, 1, 59, 127
2, 193280, Note_off_c, 1, 59, 0
2, 193320, Note_on_c, 1, 57, 127
2, 193440, Note_off_c, 1, 56, 0
2, 193440, Note_off_c, 1, 57, 0
2, 193480, Note_on_c, 1, 44, 127
2, 193480, Note_on_c, 1, 59, 127
2, 193600, Note_off_c, 1, 59, 0
2, 193640, Note_on_c, 1, 61, 127
2, 193760, Note_off_c, 1, 44, 0
2, 193760, Note_off_c, 1, 61, 0
2, 193800, Note_on_c, 1, 44, 127
2, 193800, Note_on_c, 1, 62, 127
2, 193920, Note_off_c, 1, 62, 0
2, 193960, Note_on_c, 1, 59, 127
2, 194080, Note_off_c, 1, 44, 0
2, 194080, Note_off_c, 1, 59, 0
2, 194080, Note_off_c, 1, 66, 0
2, 194120, Note_on_c, 1, 37, 127
2, 194120, Note_on_c, 1, 56, 127
2, 194120, Note_on_c, 1, 65, 127
2, 194240, Note_off_c, 1, 56, 0
2, 194280, Note_on_c, 1, 62, 127
2, 194400, Note_off_c, 1, 62, 0
2, 194440, Note_on_c, 1, 61, 127
2, 194560, Note_off_c, 1, 61, 0
2, 194600, Note_on_c, 1, 59, 127
2, 194720, Note_off_c, 1, 59, 0
2, 194760, Note_on_c, 1, 57, 127
2, 194880, Note_off_c, 1, 37, 0
2, 194880, Note_off_c, 1, 57, 0
2, 194920, Note_on_c, 1, 56, 127
2, 195040, Note_off_c, 1, 56, 0
2, 195040, Note_off_c, 1, 65, 0
2, 195080, Note_on_c, 1, 57, 127
2, 195080, Note_on_c, 1, 68, 127
2, 195200, Note_off_c, 1, 57, 0
2, 195240, Note_on_c, 1, 66, 127
2, 195240, Note_off_c, 1, 68, 0
2, 195280, Note_on_c, 1, 61, 127
2, 195320, Note_off_c, 1, 66, 0
2, 195360, Note_off_c, 1, 61, 0
2, 195360, Note_on_c, 1, 68, 127
2, 195400, Note_off_c, 1, 68, 0
2, 195440, Note_on_c, 1, 59, 127
2, 195440, Note_on_c, 1, 66, 127
2, 195480, Note_off_c, 1, 66, 0
2, 195480, Note_on_c, 1, 68, 127
2, 195520, Note_off_c, 1, 68, 0
2, 195560, Note_off_c, 1, 59, 0
2, 195560, Note_on_c, 1, 66, 127
2, 195600, Note_on_c, 1, 57, 127
2, 195600, Note_off_c, 1, 66, 0
2, 195640, Note_on_c, 1, 68, 127
2, 195680, Note_off_c, 1, 68, 0
2, 195720, Note_off_c, 1, 57, 0
2, 195720, Note_on_c, 1, 66, 127
2, 195760, Note_on_c, 1, 56, 127
2, 195760, Note_off_c, 1, 66, 0
2, 195800, Note_on_c, 1, 68, 127
2, 195840, Note_on_c, 1, 66, 127
2, 195840, Note_off_c, 1, 68, 0
2, 195880, Note_off_c, 1, 56, 0
2, 195880, Note_off_c, 1, 66, 0
2, 195920, Note_on_c, 1, 54, 127
2, 195920, Note_on_c, 1, 65, 127
2, 195960, Note_off_c, 1, 65, 0
2, 196000, Note_on_c, 1, 66, 127
2, 196040, Note_off_c, 1, 54, 0
2, 196040, Note_off_c, 1, 66, 0
2, 196080, Note_on_c, 1, 53, 127
2, 196080, Note_on_c, 1, 68, 127
2, 196200, Note_off_c, 1, 53, 0
2, 196240, Note_on_c, 1, 54, 127
2, 196360, Note_off_c, 1, 54, 0
2, 196360, Note_off_c, 1, 68, 0
2, 196400, Note_on_c, 1, 53, 127
2, 196400, Note_on_c, 1, 65, 127
2, 196400, Note_on_c, 1, 68, 127
2, 196400, Note_on_c, 1, 73, 127
2, 196520, Note_off_c, 1, 53, 0
2, 196560, Note_on_c, 1, 51, 127
2, 196680, Note_off_c, 1, 51, 0
2, 196680, Note_off_c, 1, 65, 0
2, 196680, Note_off_c, 1, 68, 0
2, 196680, Note_off_c, 1, 73, 0
2, 196720, Note_on_c, 1, 49, 127
2, 196720, Note_on_c, 1, 65, 127
2, 196720, Note_on_c, 1, 68, 127
2, 196720, Note_on_c, 1, 73, 127
2, 196840, Note_off_c, 1, 49, 0
2, 196880, Note_on_c, 1, 47, 127
2, 197000, Note_off_c, 1, 47, 0
2, 197000, Note_off_c, 1, 65, 0
2, 197000, Note_off_c, 1, 68, 0
2, 197000, Note_off_c, 1, 73, 0
2, 197040, Note_on_c, 1, 46, 127
2, 197040, Note_on_c, 1, 66, 127
2, 197040, Note_on_c, 1, 70, 127
2, 197040, Note_on_c, 1, 73, 127
2, 197040, Note_on_c, 1, 76, 127
2, 197160, Note_off_c, 1, 46, 0
2, 197200, Note_on_c, 1, 44, 127
2, 197320, Note_off_c, 1, 44, 0
2, 197320, Note_off_c, 1, 66, 0
2, 197320, Note_off_c, 1, 70, 0
2, 197320, Note_off_c, 1, 73, 0
2, 197320, Note_off_c, 1, 76, 0
2, 197360, Note_on_c, 1, 42, 127
2, 197360, Note_on_c, 1, 66, 127
2, 197360, Note_on_c, 1, 70, 127
2, 197360, Note_on_c, 1, 73, 127
2, 197360, Note_on_c, 1, 76, 127
2, 197480, Note_off_c, 1, 42, 0
2, 197520, Note_on_c, 1, 40, 127
2, 197640, Note_off_c, 1, 40, 0
2, 197640, Note_off_c, 1, 66, 0
2, 197640, Note_off_c, 1, 70, 0
2, 197640, Note_off_c, 1, 73, 0
2, 197640, Note_off_c, 1, 76, 0
2, 197680, Note_on_c, 1, 39, 127
2, 197680, Note_on_c, 1, 66, 127
2, 197680, Note_on_c, 1, 70, 127
2, 197680, Note_on_c, 1, 73, 127
2, 197680, Note_on_c, 1, 76, 127
2, 197800, Note_off_c, 1, 39, 0
2, 197840, Note_on_c, 1, 37, 127
2, 197960, Note_off_c, 1, 37, 0
2, 197960, Note_off_c, 1, 66, 0
2, 197960, Note_off_c, 1, 70, 0
2, 197960, Note_off_c, 1, 73, 0
2, 197960, Note_off_c, 1, 76, 0
2, 198000, Note_on_c, 1, 35, 127
2, 198000, Note_on_c, 1, 66, 127
2, 198000, Note_on_c, 1, 70, 127
2, 198000, Note_on_c, 1, 73, 127
2, 198000, Note_on_c, 1, 76, 127
2, 198280, Note_off_c, 1, 35, 0
2, 198280, Note_off_c, 1, 66, 0
2, 198280, Note_off_c, 1, 70, 0
2, 198280, Note_off_c, 1, 73, 0
2, 198280, Note_off_c, 1, 76, 0
2, 198320, Note_on_c, 1, 54, 127
2, 198320, Note_on_c, 1, 66, 127
2, 198320, Note_on_c, 1, 71, 127
2, 198320, Note_on_c, 1, 75, 127
2, 198440, Note_off_c, 1, 54, 0
2, 198520, Note_on_c, 1, 52, 127
2, 198600, Note_off_c, 1, 52, 0
2, 198600, Note_off_c, 1, 66, 0
2, 198600, Note_off_c, 1, 71, 0
2, 198600, Note_off_c, 1, 75, 0
2, 198680, Note_on_c, 1, 51, 127
2, 198680, Note_on_c, 1, 66, 127
2, 198680, Note_on_c, 1, 71, 127
2, 198680, Note_on_c, 1, 75, 127
2, 198800, Note_off_c, 1, 51, 0
2, 198840, Note_on_c, 1, 49, 127
2, 198960, Note_off_c, 1, 49, 0
2, 198960, Note_off_c, 1, 66, 0
2, 198960, Note_off_c, 1, 71, 0
2, 198960, Note_off_c, 1, 75, 0
2, 199000, Note_on_c, 1, 48, 127
2, 199000, Note_on_c, 1, 68, 127
2, 199000, Note_on_c, 1, 72, 127
2, 199000, Note_on_c, 1, 75, 127
2, 199000, Note_on_c, 1, 78, 127
2, 199120, Note_off_c, 1, 48, 0
2, 199160, Note_on_c, 1, 46, 127
2, 199280, Note_off_c, 1, 46, 0
2, 199280, Note_off_c, 1, 68, 0
2, 199280, Note_off_c, 1, 72, 0
2, 199280, Note_off_c, 1, 75, 0
2, 199280, Note_off_c, 1, 78, 0
2, 199320, Note_on_c, 1, 44, 127
2, 199320, Note_on_c, 1, 68, 127
2, 199320, Note_on_c, 1, 72, 127
2, 199320, Note_on_c, 1, 75, 127
2, 199320, Note_on_c, 1, 78, 127
2, 199440, Note_off_c, 1, 44, 0
2, 199480, Note_on_c, 1, 42, 127
2, 199600, Note_off_c, 1, 42, 0
2, 199600, Note_off_c, 1, 68, 0
2, 199600, Note_off_c, 1, 72, 0
2, 199600, Note_off_c, 1, 75, 0
2, 199600, Note_off_c, 1, 78, 0
2, 199640, Note_on_c, 1, 41, 127
2, 199640, Note_on_c, 1, 68, 127
2, 199640, Note_on_c, 1, 72, 127
2, 199640, Note_on_c, 1, 75, 127
2, 199640, Note_on_c, 1, 78, 127
2, 199760, Note_off_c, 1, 41, 0
2, 199800, Note_on_c, 1, 39, 127
2, 199920, Note_off_c, 1, 39, 0
2, 199920, Note_off_c, 1, 68, 0
2, 199920, Note_off_c, 1, 72, 0
2, 199920, Note_off_c, 1, 75, 0
2, 199920, Note_off_c, 1, 78, 0
2, 199960, Note_on_c, 1, 37, 127
2, 199960, Note_on_c, 1, 68, 127
2, 199960, Note_on_c, 1, 72, 127
2, 199960, Note_on_c, 1, 75, 127
2, 199960, Note_on_c, 1, 78, 127
2, 200240, Note_off_c, 1, 37, 0
2, 200240, Note_off_c, 1, 68, 0
2, 200240, Note_off_c, 1, 72, 0
2, 200240, Note_off_c, 1, 75, 0
2, 200240, Note_off_c, 1, 78, 0
2, 200280, Note_on_c, 1, 59, 127
2, 200280, Note_on_c, 1, 68, 127
2, 200280, Note_on_c, 1, 73, 127
2, 200280, Note_on_c, 1, 77, 127
2, 200400, Note_off_c, 1, 59, 0
2, 200440, Note_on_c, 1, 57, 127
2, 200560, Note_off_c, 1, 57, 0
2, 200560, Note_off_c, 1, 68, 0
2, 200560, Note_off_c, 1, 73, 0
2, 200560, Note_off_c, 1, 77, 0
2, 200600, Note_on_c, 1, 56, 127
2, 200600, Note_on_c, 1, 68, 127
2, 200600, Note_on_c, 1, 73, 127
2, 200600, Note_on_c, 1, 77, 127
2, 200720, Note_off_c, 1, 56, 0
2, 200760, Note_on_c, 1, 54, 127
2, 200880, Note_off_c, 1, 54, 0
2, 200880, Note_off_c, 1, 68, 0
2, 200880, Note_off_c, 1, 73, 0
2, 200880, Note_off_c, 1, 77, 0
2, 200920, Note_on_c, 1, 53, 127
2, 200920, Note_on_c, 1, 71, 127
2, 200920, Note_on_c, 1, 73, 127
2, 200920, Note_on_c, 1, 80, 127
2, 201040, Note_off_c, 1, 53, 0
2, 201080, Note_on_c, 1, 51, 127
2, 201200, Note_off_c, 1, 51, 0
2, 201200, Note_off_c, 1, 71, 0
2, 201200, Note_off_c, 1, 73, 0
2, 201200, Note_off_c, 1, 80, 0
2, 201240, Note_on_c, 1, 49, 127
2, 201240, Note_on_c, 1, 71, 127
2, 201240, Note_on_c, 1, 73, 127
2, 201240, Note_on_c, 1, 80, 127
2, 201360, Note_off_c, 1, 49, 0
2, 201400, Note_on_c, 1, 47, 127
2, 201520, Note_off_c, 1, 47, 0
2, 201520, Note_off_c, 1, 71, 0
2, 201520, Note_off_c, 1, 73, 0
2, 201520, Note_off_c, 1, 80, 0
2, 201560, Note_on_c, 1, 45, 127
2, 201560, Note_on_c, 1, 71, 127
2, 201560, Note_on_c, 1, 73, 127
2, 201560, Note_on_c, 1, 80, 127
2, 201680, Note_off_c, 1, 45, 0
2, 201760, Note_on_c, 1, 44, 127
2, 201840, Note_off_c, 1, 44, 0
2, 201840, Note_off_c, 1, 71, 0
2, 201840, Note_off_c, 1, 73, 0
2, 201840, Note_off_c, 1, 80, 0
2, 201920, Note_on_c, 1, 42, 127
2, 201920, Note_on_c, 1, 71, 127
2, 201920, Note_on_c, 1, 73, 127
2, 201920, Note_on_c, 1, 80, 127
2, 202040, Note_off_c, 1, 42, 0
2, 202080, Note_on_c, 1, 41, 127
2, 202200, Note_off_c, 1, 41, 0
2, 202200, Note_off_c, 1, 71, 0
2, 202200, Note_off_c, 1, 80, 0
2, 202240, Note_on_c, 1, 42, 127
2, 202240, Note_on_c, 1, 69, 127
2, 202240, Note_on_c, 1, 78, 127
2, 202360, Note_off_c, 1, 42, 0
2, 202400, Note_on_c, 1, 44, 127
2, 202520, Note_off_c, 1, 44, 0
2, 202520, Note_off_c, 1, 69, 0
2, 202520, Note_off_c, 1, 73, 0
2, 202520, Note_off_c, 1, 78, 0
2, 202560, Note_on_c, 1, 45, 127
2, 202560, Note_on_c, 1, 68, 127
2, 202560, Note_on_c, 1, 73, 127
2, 202560, Note_on_c, 1, 76, 127
2, 202680, Note_off_c, 1, 45, 0
2, 202720, Note_on_c, 1, 42, 127
2, 202880, Note_off_c, 1, 42, 0
2, 202880, Note_off_c, 1, 68, 0
2, 202880, Note_off_c, 1, 73, 0
2, 202880, Note_off_c, 1, 76, 0
2, 202920, Note_on_c, 1, 47, 127
2, 202920, Note_on_c, 1, 66, 127
2, 202920, Note_on_c, 1, 71, 127
2, 202920, Note_on_c, 1, 74, 127
2, 203040, Note_off_c, 1, 47, 0
2, 203080, Note_on_c, 1, 45, 127
2, 203200, Note_off_c, 1, 45, 0
2, 203200, Note_off_c, 1, 71, 0
2, 203200, Note_off_c, 1, 74, 0
2, 203240, Note_on_c, 1, 47, 127
2, 203240, Note_on_c, 1, 69, 127
2, 203240, Note_on_c, 1, 73, 127
2, 203360, Note_off_c, 1, 47, 0
2, 203400, Note_on_c, 1, 49, 127
2, 203520, Note_off_c, 1, 49, 0
2, 203520, Note_off_c, 1, 69, 0
2, 203520, Note_off_c, 1, 73, 0
2, 203560, Note_on_c, 1, 50, 127
2, 203560, Note_on_c, 1, 68, 127
2, 203560, Note_on_c, 1, 71, 127
2, 203720, Note_off_c, 1, 50, 0
2, 203760, Note_on_c, 1, 47, 127
2, 203880, Note_off_c, 1, 47, 0
2, 203880, Note_off_c, 1, 66, 0
2, 203880, Note_off_c, 1, 68, 0
2, 203880, Note_off_c, 1, 71, 0
2, 203920, Note_on_c, 1, 49, 127
2, 203920, Note_on_c, 1, 65, 127
2, 204000, Note_on_c, 1, 68, 127
2, 204040, Note_off_c, 1, 49, 0
2, 204080, Note_on_c, 1, 51, 127
2, 204080, Note_on_c, 1, 71, 127
2, 204240, Note_off_c, 1, 51, 0
2, 204280, Note_on_c, 1, 53, 127
2, 204400, Note_off_c, 1, 53, 0
2, 204400, Note_off_c, 1, 65, 0
2, 204400, Note_off_c, 1, 71, 0
2, 204440, Note_on_c, 1, 49, 127
2, 204440, Note_on_c, 1, 73, 127
2, 204560, Note_off_c, 1, 49, 0
2, 204560, Note_off_c, 1, 68, 0
2, 204560, Note_off_c, 1, 73, 0
2, 204600, Note_on_c, 1, 54, 127
2, 204600, Note_on_c, 1, 61, 127
2, 204600, Note_on_c, 1, 66, 127
2, 204600, Note_on_c, 1, 69, 127
2, 204960, Note_off_c, 1, 54, 0
2, 205000, Note_on_c, 1, 47, 127
2, 205160, Note_off_c, 1, 61, 0
2, 205160, Note_off_c, 1, 66, 0
2, 205160, Note_off_c, 1, 69, 0
2, 205200, Note_on_c, 1, 68, 127
2, 205320, Note_off_c, 1, 47, 0
2, 205320, Note_off_c, 1, 68, 0
2, 205360, Note_on_c, 1, 49, 127
2, 205360, Note_on_c, 1, 65, 127
2, 205360, Note_on_c, 1, 69, 127
2, 205440, Note_off_c, 1, 69, 0
2, 205480, Note_on_c, 1, 68, 127
2, 205560, Note_off_c, 1, 68, 0
2, 205600, Note_on_c, 1, 69, 127
2, 205680, Note_off_c, 1, 69, 0
2, 205720, Note_on_c, 1, 68, 127
2, 205800, Note_off_c, 1, 49, 0
2, 205800, Note_off_c, 1, 68, 0
2, 205840, Note_on_c, 1, 37, 127
2, 205840, Note_on_c, 1, 69, 127
2, 205920, Note_off_c, 1, 69, 0
2, 205960, Note_on_c, 1, 68, 127
2, 206000, Note_off_c, 1, 65, 0
2, 206040, Note_off_c, 1, 68, 0
2, 206080, Note_on_c, 1, 66, 127
2, 206240, Note_off_c, 1, 37, 0
2, 206240, Note_off_c, 1, 66, 0
2, 206320, Note_on_c, 1, 42, 127
2, 206320, Note_on_c, 1, 66, 127
2, 208880, Note_off_c, 1, 42, 0
2, 208880, Note_off_c, 1, 66, 0
2, 210920, Note_on_c, 1, 69, 127
2, 211200, Note_off_c, 1, 69, 0
2, 211280, Note_on_c, 1, 66, 127
2, 211280, Note_on_c, 1, 69, 127
2, 211480, Note_on_c, 1, 42, 127
2, 211640, Note_off_c, 1, 42, 0
2, 211680, Note_on_c, 1, 45, 127
2, 211840, Note_off_c, 1, 45, 0
2, 211880, Note_on_c, 1, 49, 127
2, 212040, Note_off_c, 1, 49, 0
2, 212040, Note_off_c, 1, 66, 0
2, 212080, Note_on_c, 1, 54, 127
2, 212240, Note_off_c, 1, 54, 0
2, 212240, Note_off_c, 1, 69, 0
2, 212280, Note_on_c, 1, 57, 127
2, 212280, Note_on_c, 1, 78, 127
2, 212400, Note_off_c, 1, 57, 0
2, 212400, Note_off_c, 1, 78, 0
2, 212440, Note_on_c, 1, 56, 127
2, 212440, Note_on_c, 1, 77, 127
2, 212600, Note_off_c, 1, 56, 0
2, 212600, Note_off_c, 1, 77, 0
2, 212640, Note_on_c, 1, 54, 127
2, 212640, Note_on_c, 1, 78, 127
2, 212800, Note_off_c, 1, 54, 0
2, 212800, Note_off_c, 1, 78, 0
2, 212840, Note_on_c, 1, 53, 127
2, 212840, Note_on_c, 1, 68, 127
2, 212840, Note_on_c, 1, 71, 127
2, 213000, Note_off_c, 1, 53, 0
2, 213040, Note_on_c, 1, 54, 127
2, 213200, Note_off_c, 1, 54, 0
2, 213240, Note_on_c, 1, 56, 127
2, 213360, Note_off_c, 1, 56, 0
2, 213400, Note_on_c, 1, 50, 127
2, 213560, Note_off_c, 1, 50, 0
2, 213560, Note_off_c, 1, 68, 0
2, 213600, Note_on_c, 1, 49, 127
2, 213760, Note_off_c, 1, 49, 0
2, 213760, Note_off_c, 1, 71, 0
2, 213800, Note_on_c, 1, 47, 127
2, 213800, Note_on_c, 1, 80, 127
2, 213960, Note_off_c, 1, 47, 0
2, 213960, Note_off_c, 1, 80, 0
2, 214000, Note_on_c, 1, 45, 127
2, 214000, Note_on_c, 1, 78, 127
2, 214160, Note_off_c, 1, 45, 0
2, 214160, Note_off_c, 1, 78, 0
2, 214200, Note_on_c, 1, 44, 127
2, 214200, Note_on_c, 1, 80, 127
2, 214320, Note_off_c, 1, 44, 0
2, 214320, Note_off_c, 1, 80, 0
2, 214400, Note_on_c, 1, 45, 127
2, 214400, Note_on_c, 1, 73, 127
2, 214520, Note_off_c, 1, 73, 0
2, 214560, Note_on_c, 1, 66, 127
2, 214720, Note_off_c, 1, 66, 0
2, 214760, Note_on_c, 1, 69, 127
2, 214920, Note_off_c, 1, 69, 0
2, 214960, Note_on_c, 1, 73, 127
2, 215120, Note_off_c, 1, 73, 0
2, 215160, Note_on_c, 1, 78, 127
2, 215280, Note_off_c, 1, 45, 0
2, 215280, Note_off_c, 1, 78, 0
2, 215360, Note_on_c, 1, 49, 127
2, 215360, Note_on_c, 1, 81, 127
2, 215480, Note_off_c, 1, 49, 0
2, 215480, Note_off_c, 1, 81, 0
2, 215520, Note_on_c, 1, 47, 127
2, 215520, Note_on_c, 1, 80, 127
2, 215680, Note_off_c, 1, 47, 0
2, 215680, Note_off_c, 1, 80, 0
2, 215720, Note_on_c, 1, 50, 127
2, 215720, Note_on_c, 1, 78, 127
2, 215880, Note_off_c, 1, 50, 0
2, 215880, Note_off_c, 1, 78, 0
2, 215920, Note_on_c, 1, 49, 127
2, 215920, Note_on_c, 1, 77, 127
2, 216080, Note_off_c, 1, 77, 0
2, 216120, Note_on_c, 1, 78, 127
2, 216280, Note_off_c, 1, 78, 0
2, 216320, Note_on_c, 1, 80, 127
2, 216440, Note_off_c, 1, 80, 0
2, 216480, Note_on_c, 1, 74, 127
2, 216640, Note_off_c, 1, 74, 0
2, 216680, Note_on_c, 1, 73, 127
2, 216840, Note_off_c, 1, 49, 0
2, 216840, Note_off_c, 1, 73, 0
2, 216880, Note_on_c, 1, 51, 127
2, 216880, Note_on_c, 1, 71, 127
2, 217040, Note_off_c, 1, 51, 0
2, 217040, Note_off_c, 1, 71, 0
2, 217080, Note_on_c, 1, 53, 127
2, 217080, Note_on_c, 1, 69, 127
2, 217240, Note_off_c, 1, 53, 0
2, 217240, Note_off_c, 1, 69, 0
2, 217280, Note_on_c, 1, 49, 127
2, 217280, Note_on_c, 1, 68, 127
2, 217400, Note_off_c, 1, 49, 0
2, 217400, Note_off_c, 1, 68, 0
2, 217440, Note_on_c, 1, 54, 127
2, 217440, Note_on_c, 1, 69, 127
2, 217640, Note_on_c, 1, 66, 127
2, 217800, Note_off_c, 1, 66, 0
2, 217840, Note_on_c, 1, 64, 127
2, 218000, Note_off_c, 1, 64, 0
2, 218040, Note_on_c, 1, 61, 127
2, 218200, Note_off_c, 1, 61, 0
2, 218240, Note_on_c, 1, 62, 127
2, 218400, Note_off_c, 1, 69, 0
2, 218440, Note_on_c, 1, 69, 127
2, 218560, Note_off_c, 1, 54, 0
2, 218560, Note_off_c, 1, 69, 0
2, 218600, Note_on_c, 1, 50, 127
2, 218600, Note_on_c, 1, 71, 127
2, 218760, Note_off_c, 1, 71, 0
2, 218800, Note_on_c, 1, 74, 127
2, 218960, Note_off_c, 1, 50, 0
2, 218960, Note_off_c, 1, 74, 0
2, 219000, Note_on_c, 1, 52, 127
2, 219000, Note_on_c, 1, 68, 127
2, 219160, Note_off_c, 1, 62, 0
2, 219200, Note_on_c, 1, 64, 127
2, 219360, Note_off_c, 1, 64, 0
2, 219400, Note_on_c, 1, 62, 127
2, 219520, Note_off_c, 1, 62, 0
2, 219560, Note_on_c, 1, 59, 127
2, 219720, Note_off_c, 1, 59, 0
2, 219760, Note_on_c, 1, 61, 127
2, 219920, Note_off_c, 1, 68, 0
2, 219960, Note_on_c, 1, 68, 127
2, 220120, Note_off_c, 1, 52, 0
2, 220120, Note_off_c, 1, 68, 0
2, 220160, Note_on_c, 1, 49, 127
2, 220160, Note_on_c, 1, 69, 127
2, 220320, Note_off_c, 1, 69, 0
2, 220360, Note_on_c, 1, 73, 127
2, 220480, Note_off_c, 1, 73, 0
2, 220520, Note_off_c, 1, 49, 0
2, 220560, Note_on_c, 1, 50, 127
2, 220560, Note_on_c, 1, 66, 127
2, 220680, Note_off_c, 1, 61, 0
2, 220720, Note_on_c, 1, 62, 127
2, 220880, Note_off_c, 1, 62, 0
2, 220920, Note_on_c, 1, 61, 127
2, 221080, Note_off_c, 1, 61, 0
2, 221120, Note_on_c, 1, 57, 127
2, 221280, Note_off_c, 1, 57, 0
2, 221320, Note_on_c, 1, 59, 127
2, 221480, Note_off_c, 1, 66, 0
2, 221520, Note_on_c, 1, 66, 127
2, 221640, Note_off_c, 1, 50, 0
2, 221640, Note_off_c, 1, 66, 0
2, 221720, Note_on_c, 1, 47, 127
2, 221720, Note_on_c, 1, 68, 127
2, 221840, Note_off_c, 1, 68, 0
2, 221880, Note_on_c, 1, 71, 127
2, 222040, Note_off_c, 1, 47, 0
2, 222040, Note_off_c, 1, 71, 0
2, 222080, Note_on_c, 1, 49, 127
2, 222080, Note_on_c, 1, 65, 127
2, 222240, Note_off_c, 1, 65, 0
2, 222280, Note_on_c, 1, 68, 127
2, 222440, Note_off_c, 1, 59, 0
2, 222440, Note_off_c, 1, 68, 0
2, 222480, Note_on_c, 1, 56, 127
2, 222480, Note_on_c, 1, 71, 127
2, 222600, Note_off_c, 1, 71, 0
2, 222680, Note_on_c, 1, 73, 127
2, 222800, Note_off_c, 1, 56, 0
2, 222800, Note_off_c, 1, 73, 0
2, 222840, Note_on_c, 1, 57, 127
2, 222840, Note_on_c, 1, 66, 127
2, 223000, Note_off_c, 1, 66, 0
2, 223040, Note_on_c, 1, 69, 127
2, 223200, Note_off_c, 1, 57, 0
2, 223200, Note_off_c, 1, 69, 0
2, 223240, Note_on_c, 1, 54, 127
2, 223240, Note_on_c, 1, 73, 127
2, 223400, Note_off_c, 1, 73, 0
2, 223440, Note_on_c, 1, 74, 127
2, 223600, Note_off_c, 1, 54, 0
2, 223600, Note_off_c, 1, 74, 0
2, 223640, Note_on_c, 1, 53, 127
2, 223640, Note_on_c, 1, 68, 127
2, 223760, Note_off_c, 1, 68, 0
2, 223800, Note_on_c, 1, 71, 127
2, 223960, Note_off_c, 1, 49, 0
2, 223960, Note_off_c, 1, 53, 0
2, 223960, Note_off_c, 1, 71, 0
2, 224000, Note_on_c, 1, 47, 127
2, 224000, Note_on_c, 1, 56, 127
2, 224000, Note_on_c, 1, 73, 127
2, 224160, Note_off_c, 1, 73, 0
2, 224200, Note_on_c, 1, 77, 127
2, 224360, Note_off_c, 1, 47, 0
2, 224360, Note_off_c, 1, 56, 0
2, 224360, Note_off_c, 1, 77, 0
2, 224400, Note_on_c, 1, 45, 127
2, 224400, Note_on_c, 1, 49, 127
2, 224400, Note_on_c, 1, 69, 127
2, 224560, Note_off_c, 1, 69, 0
2, 224600, Note_on_c, 1, 73, 127
2, 224720, Note_off_c, 1, 45, 0
2, 224720, Note_off_c, 1, 73, 0
2, 224760, Note_on_c, 1, 42, 127
2, 224760, Note_on_c, 1, 77, 127
2, 224920, Note_off_c, 1, 77, 0
2, 224960, Note_on_c, 1, 78, 127
2, 225120, Note_off_c, 1, 42, 0
2, 225120, Note_off_c, 1, 78, 0
2, 225160, Note_on_c, 1, 37, 127
2, 225160, Note_on_c, 1, 80, 127
2, 225320, Note_off_c, 1, 80, 0
2, 225360, Note_on_c, 1, 78, 127
2, 225520, Note_off_c, 1, 37, 0
2, 225520, Note_off_c, 1, 49, 0
2, 225520, Note_off_c, 1, 78, 0
2, 225560, Note_on_c, 1, 61, 127
2, 225560, Note_on_c, 1, 77, 127
2, 225680, Note_off_c, 1, 77, 0
2, 225760, Note_on_c, 1, 75, 127
2, 225880, Note_off_c, 1, 75, 0
2, 225920, Note_on_c, 1, 73, 127
2, 226080, Note_off_c, 1, 61, 0
2, 226080, Note_off_c, 1, 73, 0
2, 226120, Note_on_c, 1, 59, 127
2, 226120, Note_on_c, 1, 74, 127
2, 226280, Note_off_c, 1, 59, 0
2, 226280, Note_off_c, 1, 74, 0
2, 226320, Note_on_c, 1, 58, 127
2, 226320, Note_on_c, 1, 76, 127
2, 226360, Note_off_c, 1, 76, 0
2, 226400, Note_on_c, 1, 74, 127
2, 226480, Note_off_c, 1, 58, 0
2, 226480, Note_off_c, 1, 74, 0
2, 226520, Note_on_c, 1, 56, 127
2, 226520, Note_on_c, 1, 73, 127
2, 226560, Note_off_c, 1, 73, 0
2, 226600, Note_on_c, 1, 74, 127
2, 226640, Note_off_c, 1, 56, 0
2, 226640, Note_off_c, 1, 74, 0
2, 226720, Note_on_c, 1, 54, 127
2, 226720, Note_on_c, 1, 70, 127
2, 226800, Note_on_c, 1, 73, 127
2, 226840, Note_off_c, 1, 54, 0
2, 226880, Note_on_c, 1, 49, 127
2, 226880, Note_on_c, 1, 76, 127
2, 227040, Note_off_c, 1, 49, 0
2, 227080, Note_on_c, 1, 54, 127
2, 227240, Note_off_c, 1, 54, 0
2, 227280, Note_on_c, 1, 58, 127
2, 227440, Note_off_c, 1, 58, 0
2, 227480, Note_on_c, 1, 61, 127
2, 227600, Note_off_c, 1, 73, 0
2, 227640, Note_off_c, 1, 61, 0
2, 227640, Note_off_c, 1, 70, 0
2, 227680, Note_on_c, 1, 62, 127
2, 227680, Note_on_c, 1, 71, 127
2, 227800, Note_off_c, 1, 62, 0
2, 227800, Note_off_c, 1, 71, 0
2, 227840, Note_on_c, 1, 61, 127
2, 227840, Note_on_c, 1, 73, 127
2, 227920, Note_off_c, 1, 73, 0
2, 227960, Note_on_c, 1, 71, 127
2, 228000, Note_off_c, 1, 61, 0
2, 228000, Note_off_c, 1, 71, 0
2, 228000, Note_off_c, 1, 76, 0
2, 228040, Note_on_c, 1, 59, 127
2, 228040, Note_on_c, 1, 70, 127
2, 228120, Note_off_c, 1, 70, 0
2, 228160, Note_on_c, 1, 71, 127
2, 228200, Note_off_c, 1, 59, 0
2, 228200, Note_off_c, 1, 71, 0
2, 228240, Note_on_c, 1, 58, 127
2, 228240, Note_on_c, 1, 73, 127
2, 228400, Note_off_c, 1, 58, 0
2, 228400, Note_off_c, 1, 73, 0
2, 228440, Note_on_c, 1, 59, 127
2, 228440, Note_on_c, 1, 74, 127
2, 228600, Note_off_c, 1, 59, 0
2, 228600, Note_off_c, 1, 74, 0
2, 228640, Note_on_c, 1, 61, 127
2, 228640, Note_on_c, 1, 76, 127
2, 228680, Note_off_c, 1, 76, 0
2, 228720, Note_on_c, 1, 74, 127
2, 228760, Note_off_c, 1, 61, 0
2, 228760, Note_off_c, 1, 74, 0
2, 228800, Note_on_c, 1, 55, 127
2, 228800, Note_on_c, 1, 73, 127
2, 228880, Note_off_c, 1, 73, 0
2, 228920, Note_on_c, 1, 74, 127
2, 228960, Note_off_c, 1, 55, 0
2, 228960, Note_off_c, 1, 74, 0
2, 229000, Note_on_c, 1, 54, 127
2, 229000, Note_on_c, 1, 76, 127
2, 229160, Note_off_c, 1, 54, 0
2, 229160, Note_off_c, 1, 76, 0
2, 229200, Note_on_c, 1, 52, 127
2, 229200, Note_on_c, 1, 79, 127
2, 229360, Note_off_c, 1, 52, 0
2, 229360, Note_off_c, 1, 79, 0
2, 229400, Note_on_c, 1, 50, 127
2, 229400, Note_on_c, 1, 78, 127
2, 229560, Note_off_c, 1, 50, 0
2, 229560, Note_off_c, 1, 78, 0
2, 229600, Note_on_c, 1, 49, 127
2, 229600, Note_on_c, 1, 76, 127
2, 229720, Note_off_c, 1, 49, 0
2, 229720, Note_off_c, 1, 76, 0
2, 229800, Note_on_c, 1, 47, 127
2, 229800, Note_on_c, 1, 74, 127
2, 229920, Note_off_c, 1, 74, 0
2, 229960, Note_on_c, 1, 71, 127
2, 230120, Note_off_c, 1, 71, 0
2, 230160, Note_on_c, 1, 74, 127
2, 230320, Note_off_c, 1, 74, 0
2, 230360, Note_on_c, 1, 78, 127
2, 230520, Note_off_c, 1, 78, 0
2, 230560, Note_on_c, 1, 83, 127
2, 230680, Note_off_c, 1, 47, 0
2, 230680, Note_off_c, 1, 83, 0
2, 230760, Note_on_c, 1, 47, 127
2, 230760, Note_on_c, 1, 81, 127
2, 230880, Note_off_c, 1, 47, 0
2, 230880, Note_off_c, 1, 81, 0
2, 230920, Note_on_c, 1, 50, 127
2, 230920, Note_on_c, 1, 80, 127
2, 231080, Note_off_c, 1, 50, 0
2, 231080, Note_off_c, 1, 80, 0
2, 231120, Note_on_c, 1, 54, 127
2, 231120, Note_on_c, 1, 78, 127
2, 231280, Note_off_c, 1, 54, 0
2, 231280, Note_off_c, 1, 78, 0
2, 231320, Note_on_c, 1, 59, 127
2, 231320, Note_on_c, 1, 77, 127
2, 231480, Note_off_c, 1, 77, 0
2, 231520, Note_on_c, 1, 78, 127
2, 231680, Note_off_c, 1, 59, 0
2, 231680, Note_off_c, 1, 78, 0
2, 231720, Note_on_c, 1, 47, 127
2, 231720, Note_on_c, 1, 49, 127
2, 231720, Note_on_c, 1, 80, 127
2, 231840, Note_off_c, 1, 80, 0
2, 231880, Note_on_c, 1, 74, 127
2, 232040, Note_off_c, 1, 47, 0
2, 232040, Note_off_c, 1, 49, 0
2, 232040, Note_off_c, 1, 74, 0
2, 232080, Note_on_c, 1, 45, 127
2, 232080, Note_on_c, 1, 51, 127
2, 232080, Note_on_c, 1, 73, 127
2, 232240, Note_off_c, 1, 73, 0
2, 232280, Note_on_c, 1, 71, 127
2, 232440, Note_off_c, 1, 45, 0
2, 232440, Note_off_c, 1, 51, 0
2, 232440, Note_off_c, 1, 71, 0
2, 232480, Note_on_c, 1, 44, 127
2, 232480, Note_on_c, 1, 53, 127
2, 232480, Note_on_c, 1, 69, 127
2, 232640, Note_off_c, 1, 69, 0
2, 232680, Note_on_c, 1, 68, 127
2, 232800, Note_off_c, 1, 44, 0
2, 232800, Note_off_c, 1, 53, 0
2, 232800, Note_off_c, 1, 68, 0
2, 232840, Note_on_c, 1, 42, 127
2, 232840, Note_on_c, 1, 69, 127
2, 233040, Note_on_c, 1, 54, 127
2, 233200, Note_off_c, 1, 54, 0
2, 233240, Note_on_c, 1, 57, 127
2, 233400, Note_off_c, 1, 57, 0
2, 233440, Note_on_c, 1, 61, 127
2, 233600, Note_off_c, 1, 61, 0
2, 233640, Note_on_c, 1, 66, 127
2, 233760, Note_off_c, 1, 66, 0
2, 233840, Note_on_c, 1, 64, 127
2, 233960, Note_off_c, 1, 64, 0
2, 234000, Note_on_c, 1, 62, 127
2, 234160, Note_off_c, 1, 62, 0
2, 234200, Note_on_c, 1, 61, 127
2, 234360, Note_off_c, 1, 61, 0
2, 234360, Note_off_c, 1, 69, 0
2, 234400, Note_off_c, 1, 42, 0
2, 234400, Note_on_c, 1, 60, 127
2, 234400, Note_on_c, 1, 68, 127
2, 234560, Note_off_c, 1, 60, 0
2, 234600, Note_on_c, 1, 61, 127
2, 234760, Note_off_c, 1, 61, 0
2, 234800, Note_on_c, 1, 63, 127
2, 234920, Note_off_c, 1, 63, 0
2, 234960, Note_on_c, 1, 57, 127
2, 235120, Note_off_c, 1, 57, 0
2, 235160, Note_on_c, 1, 56, 127
2, 235320, Note_off_c, 1, 56, 0
2, 235360, Note_on_c, 1, 54, 127
2, 235520, Note_off_c, 1, 54, 0
2, 235560, Note_on_c, 1, 52, 127
2, 235720, Note_off_c, 1, 52, 0
2, 235760, Note_on_c, 1, 51, 127
2, 235880, Note_off_c, 1, 51, 0
2, 235920, Note_on_c, 1, 40, 127
2, 235920, Note_on_c, 1, 49, 127
2, 236080, Note_off_c, 1, 68, 0
2, 236120, Note_on_c, 1, 61, 127
2, 236280, Note_off_c, 1, 61, 0
2, 236320, Note_on_c, 1, 64, 127
2, 236480, Note_off_c, 1, 64, 0
2, 236520, Note_on_c, 1, 68, 127
2, 236680, Note_off_c, 1, 68, 0
2, 236720, Note_on_c, 1, 73, 127
2, 236840, Note_off_c, 1, 40, 0
2, 236840, Note_off_c, 1, 49, 0
2, 236840, Note_off_c, 1, 73, 0
2, 236920, Note_on_c, 1, 76, 127
2, 237040, Note_off_c, 1, 76, 0
2, 237080, Note_on_c, 1, 52, 127
2, 237080, Note_on_c, 1, 56, 127
2, 237080, Note_on_c, 1, 75, 127
2, 237240, Note_off_c, 1, 75, 0
2, 237280, Note_on_c, 1, 73, 127
2, 237440, Note_off_c, 1, 52, 0
2, 237440, Note_off_c, 1, 56, 0
2, 237440, Note_off_c, 1, 73, 0
2, 237480, Note_on_c, 1, 51, 127
2, 237480, Note_on_c, 1, 54, 127
2, 237480, Note_on_c, 1, 72, 127
2, 237640, Note_off_c, 1, 72, 0
2, 237680, Note_on_c, 1, 73, 127
2, 237800, Note_off_c, 1, 51, 0
2, 237800, Note_off_c, 1, 73, 0
2, 237880, Note_on_c, 1, 49, 127
2, 237880, Note_on_c, 1, 75, 127
2, 238000, Note_off_c, 1, 75, 0
2, 238040, Note_on_c, 1, 69, 127
2, 238200, Note_off_c, 1, 49, 0
2, 238200, Note_off_c, 1, 54, 0
2, 238200, Note_off_c, 1, 69, 0
2, 238240, Note_on_c, 1, 48, 127
2, 238240, Note_on_c, 1, 51, 127
2, 238240, Note_on_c, 1, 68, 127
2, 238400, Note_off_c, 1, 68, 0
2, 238440, Note_on_c, 1, 66, 127
2, 238600, Note_off_c, 1, 48, 0
2, 238600, Note_off_c, 1, 66, 0
2, 238640, Note_on_c, 1, 44, 127
2, 238640, Note_on_c, 1, 64, 127
2, 238800, Note_off_c, 1, 64, 0
2, 238840, Note_on_c, 1, 63, 127
2, 238960, Note_off_c, 1, 44, 0
2, 238960, Note_off_c, 1, 51, 0
2, 238960, Note_off_c, 1, 63, 0
2, 239000, Note_on_c, 1, 49, 127
2, 239000, Note_on_c, 1, 65, 127
2, 239160, Note_off_c, 1, 65, 0
2, 239200, Note_on_c, 1, 66, 127
2, 239360, Note_off_c, 1, 49, 0
2, 239360, Note_off_c, 1, 66, 0
2, 239400, Note_on_c, 1, 47, 127
2, 239400, Note_on_c, 1, 68, 127
2, 239560, Note_off_c, 1, 68, 0
2, 239600, Note_on_c, 1, 62, 127
2, 239760, Note_off_c, 1, 47, 0
2, 239760, Note_off_c, 1, 62, 0
2, 239800, Note_on_c, 1, 45, 127
2, 239800, Note_on_c, 1, 61, 127
2, 239920, Note_off_c, 1, 61, 0
2, 239960, Note_on_c, 1, 59, 127
2, 240120, Note_off_c, 1, 45, 0
2, 240120, Note_off_c, 1, 59, 0
2, 240160, Note_on_c, 1, 44, 127
2, 240160, Note_on_c, 1, 57, 127
2, 240320, Note_off_c, 1, 57, 0
2, 240360, Note_on_c, 1, 56, 127
2, 240520, Note_off_c, 1, 44, 0
2, 240520, Note_off_c, 1, 56, 0
2, 240560, Note_on_c, 1, 42, 127
2, 240560, Note_on_c, 1, 57, 127
2, 240720, Note_off_c, 1, 57, 0
2, 240760, Note_on_c, 1, 59, 127
2, 240880, Note_off_c, 1, 42, 0
2, 240880, Note_off_c, 1, 59, 0
2, 240960, Note_on_c, 1, 40, 127
2, 240960, Note_on_c, 1, 61, 127
2, 241080, Note_off_c, 1, 61, 0
2, 241120, Note_on_c, 1, 55, 127
2, 241280, Note_off_c, 1, 40, 0
2, 241280, Note_off_c, 1, 55, 0
2, 241320, Note_on_c, 1, 38, 127
2, 241320, Note_on_c, 1, 54, 127
2, 241480, Note_off_c, 1, 54, 0
2, 241520, Note_on_c, 1, 52, 127
2, 241680, Note_off_c, 1, 38, 0
2, 241680, Note_off_c, 1, 52, 0
2, 241720, Note_on_c, 1, 37, 127
2, 241720, Note_on_c, 1, 50, 127
2, 241840, Note_off_c, 1, 50, 0
2, 241920, Note_on_c, 1, 49, 127
2, 242040, Note_off_c, 1, 37, 0
2, 242040, Note_off_c, 1, 49, 0
2, 242080, Note_on_c, 1, 39, 127
2, 242080, Note_on_c, 1, 48, 127
2, 242240, Note_off_c, 1, 48, 0
2, 242280, Note_on_c, 1, 49, 127
2, 242440, Note_off_c, 1, 49, 0
2, 242480, Note_on_c, 1, 51, 127
2, 242600, Note_off_c, 1, 39, 0
2, 242640, Note_off_c, 1, 51, 0
2, 242680, Note_on_c, 1, 45, 127
2, 242840, Note_off_c, 1, 45, 0
2, 242880, Note_on_c, 1, 44, 127
2, 243000, Note_off_c, 1, 44, 0
2, 243040, Note_on_c, 1, 42, 127
2, 243200, Note_off_c, 1, 42, 0
2, 243240, Note_on_c, 1, 40, 127
2, 243240, Note_on_c, 1, 73, 127
2, 243320, Note_off_c, 1, 73, 0
2, 243360, Note_on_c, 1, 72, 127
2, 243400, Note_off_c, 1, 40, 0
2, 243400, Note_off_c, 1, 72, 0
2, 243440, Note_on_c, 1, 39, 127
2, 243440, Note_on_c, 1, 70, 127
2, 243480, Note_off_c, 1, 70, 0
2, 243520, Note_on_c, 1, 72, 127
2, 243600, Note_off_c, 1, 39, 0
2, 243600, Note_off_c, 1, 72, 0
2, 243640, Note_on_c, 1, 40, 127
2, 243640, Note_on_c, 1, 73, 127
2, 243840, Note_on_c, 1, 75, 127
2, 243960, Note_off_c, 1, 40, 0
2, 243960, Note_off_c, 1, 75, 0
2, 244040, Note_on_c, 1, 42, 127
2, 244040, Note_on_c, 1, 76, 127
2, 244160, Note_off_c, 1, 76, 0
2, 244200, Note_on_c, 1, 81, 127
2, 244360, Note_off_c, 1, 42, 0
2, 244360, Note_off_c, 1, 73, 0
2, 244360, Note_off_c, 1, 81, 0
2, 244400, Note_on_c, 1, 44, 127
2, 244400, Note_on_c, 1, 72, 127
2, 244400, Note_on_c, 1, 76, 127
2, 244520, Note_off_c, 1, 76, 0
2, 244600, Note_on_c, 1, 75, 127
2, 244640, Note_off_c, 1, 75, 0
2, 244680, Note_on_c, 1, 76, 127
2, 244720, Note_on_c, 1, 75, 127
2, 244720, Note_off_c, 1, 76, 0
2, 244760, Note_off_c, 1, 44, 0
2, 244800, Note_on_c, 1, 44, 127
2, 244800, Note_off_c, 1, 75, 0
2, 244800, Note_on_c, 1, 76, 127
2, 244880, Note_on_c, 1, 75, 127
2, 244880, Note_off_c, 1, 76, 0
2, 244920, Note_off_c, 1, 75, 0
2, 245000, Note_on_c, 1, 73, 127
2, 245120, Note_off_c, 1, 44, 0
2, 245120, Note_off_c, 1, 72, 0
2, 245120, Note_off_c, 1, 73, 0
2, 245160, Note_on_c, 1, 37, 127
2, 245160, Note_on_c, 1, 73, 127
2, 245320, Note_off_c, 1, 73, 0
2, 245360, Note_on_c, 1, 71, 127
2, 245520, Note_off_c, 1, 71, 0
2, 245560, Note_on_c, 1, 69, 127
2, 245720, Note_off_c, 1, 69, 0
2, 245760, Note_on_c, 1, 68, 127
2, 245880, Note_off_c, 1, 37, 0
2, 245920, Note_off_c, 1, 68, 0
2, 245960, Note_on_c, 1, 66, 127
2, 246120, Note_on_c, 1, 68, 127
2, 246280, Note_off_c, 1, 68, 0
2, 246320, Note_on_c, 1, 69, 127
2, 246520, Note_on_c, 1, 60, 127
2, 246680, Note_off_c, 1, 60, 0
2, 246680, Note_off_c, 1, 66, 0
2, 246680, Note_off_c, 1, 69, 0
2, 246720, Note_on_c, 1, 61, 127
2, 246720, Note_on_c, 1, 65, 127
2, 246800, Note_on_c, 1, 68, 127
2, 246920, Note_on_c, 1, 53, 127
2, 246920, Note_on_c, 1, 73, 127
2, 247040, Note_off_c, 1, 53, 0
2, 247120, Note_on_c, 1, 54, 127
2, 247240, Note_off_c, 1, 54, 0
2, 247280, Note_on_c, 1, 56, 127
2, 247440, Note_off_c, 1, 56, 0
2, 247480, Note_on_c, 1, 49, 127
2, 247840, Note_off_c, 1, 61, 0
2, 247840, Note_off_c, 1, 65, 0
2, 247920, Note_off_c, 1, 68, 0
2, 248040, Note_off_c, 1, 73, 0
2, 248080, Note_on_c, 1, 68, 127
2, 248200, Note_off_c, 1, 49, 0
2, 248200, Note_off_c, 1, 68, 0
2, 248240, Note_on_c, 1, 49, 127
2, 248240, Note_on_c, 1, 68, 127
2, 248400, Note_off_c, 1, 68, 0
2, 248440, Note_on_c, 1, 80, 127
2, 248600, Note_off_c, 1, 80, 0
2, 248640, Note_on_c, 1, 77, 127
2, 248800, Note_off_c, 1, 77, 0
2, 248840, Note_on_c, 1, 73, 127
2, 249000, Note_off_c, 1, 73, 0
2, 249040, Note_on_c, 1, 68, 127
2, 249160, Note_off_c, 1, 49, 0
2, 249160, Note_off_c, 1, 68, 0
2, 249200, Note_on_c, 1, 56, 127
2, 249200, Note_on_c, 1, 65, 127
2, 249360, Note_off_c, 1, 56, 0
2, 249360, Note_off_c, 1, 65, 0
2, 249400, Note_on_c, 1, 57, 127
2, 249400, Note_on_c, 1, 66, 127
2, 249560, Note_off_c, 1, 57, 0
2, 249560, Note_off_c, 1, 66, 0
2, 249600, Note_on_c, 1, 59, 127
2, 249600, Note_on_c, 1, 68, 127
2, 249760, Note_off_c, 1, 59, 0
2, 249760, Note_off_c, 1, 68, 0
2, 249800, Note_on_c, 1, 52, 127
2, 249800, Note_on_c, 1, 70, 127
2, 249960, Note_off_c, 1, 70, 0
2, 250000, Note_on_c, 1, 68, 127
2, 250120, Note_off_c, 1, 52, 0
2, 250120, Note_off_c, 1, 68, 0
2, 250200, Note_on_c, 1, 50, 127
2, 250200, Note_on_c, 1, 59, 127
2, 250200, Note_on_c, 1, 66, 127
2, 250320, Note_off_c, 1, 66, 0
2, 250360, Note_on_c, 1, 71, 127
2, 250520, Note_off_c, 1, 50, 0
2, 250520, Note_off_c, 1, 71, 0
2, 250560, Note_on_c, 1, 52, 127
2, 250560, Note_on_c, 1, 73, 127
2, 250720, Note_off_c, 1, 73, 0
2, 250760, Note_on_c, 1, 74, 127
2, 250920, Note_off_c, 1, 52, 0
2, 250920, Note_off_c, 1, 59, 0
2, 250920, Note_off_c, 1, 74, 0
2, 250960, Note_on_c, 1, 54, 127
2, 250960, Note_on_c, 1, 58, 127
2, 250960, Note_on_c, 1, 76, 127
2, 251080, Note_off_c, 1, 76, 0
2, 251160, Note_on_c, 1, 78, 127
2, 251280, Note_off_c, 1, 54, 0
2, 251280, Note_off_c, 1, 58, 0
2, 251280, Note_off_c, 1, 78, 0
2, 251320, Note_on_c, 1, 47, 127
2, 251320, Note_on_c, 1, 76, 127
2, 251360, Note_off_c, 1, 76, 0
2, 251400, Note_on_c, 1, 74, 127
2, 251440, Note_off_c, 1, 74, 0
2, 251480, Note_on_c, 1, 76, 127
2, 251520, Note_on_c, 1, 59, 127
2, 251520, Note_off_c, 1, 76, 0
2, 251560, Note_on_c, 1, 74, 127
2, 251680, Note_off_c, 1, 47, 0
2, 251680, Note_off_c, 1, 59, 0
2, 251680, Note_off_c, 1, 74, 0
2, 251720, Note_on_c, 1, 54, 127
2, 251720, Note_on_c, 1, 73, 127
2, 251880, Note_off_c, 1, 54, 0
2, 251880, Note_off_c, 1, 73, 0
2, 251920, Note_on_c, 1, 50, 127
2, 251920, Note_on_c, 1, 71, 127
2, 252080, Note_off_c, 1, 50, 0
2, 252080, Note_off_c, 1, 71, 0
2, 252120, Note_on_c, 1, 47, 127
2, 252120, Note_on_c, 1, 78, 127
2, 252160, Note_off_c, 1, 78, 0
2, 252200, Note_on_c, 1, 76, 127
2, 252240, Note_off_c, 1, 47, 0
2, 252240, Note_off_c, 1, 76, 0
2, 252280, Note_on_c, 1, 46, 127
2, 252280, Note_on_c, 1, 78, 127
2, 252440, Note_off_c, 1, 46, 0
2, 252480, Note_on_c, 1, 47, 127
2, 252640, Note_off_c, 1, 47, 0
2, 252640, Note_off_c, 1, 78, 0
2, 252680, Note_on_c, 1, 49, 127
2, 252680, Note_on_c, 1, 78, 127
2, 252840, Note_off_c, 1, 49, 0
2, 252840, Note_off_c, 1, 78, 0
2, 252880, Note_on_c, 1, 51, 127
2, 252880, Note_on_c, 1, 78, 127
2, 253040, Note_off_c, 1, 51, 0
2, 253040, Note_off_c, 1, 78, 0
2, 253080, Note_on_c, 1, 49, 127
2, 253080, Note_on_c, 1, 69, 127
2, 253200, Note_off_c, 1, 49, 0
2, 253200, Note_off_c, 1, 69, 0
2, 253240, Note_on_c, 1, 47, 127
2, 253240, Note_on_c, 1, 68, 127
2, 253400, Note_off_c, 1, 47, 0
2, 253400, Note_off_c, 1, 68, 0
2, 253440, Note_on_c, 1, 52, 127
2, 253440, Note_on_c, 1, 71, 127
2, 253600, Note_off_c, 1, 52, 0
2, 253600, Note_off_c, 1, 71, 0
2, 253640, Note_on_c, 1, 54, 127
2, 253640, Note_on_c, 1, 69, 127
2, 253800, Note_off_c, 1, 54, 0
2, 253800, Note_off_c, 1, 69, 0
2, 253840, Note_on_c, 1, 56, 127
2, 253840, Note_on_c, 1, 68, 127
2, 254000, Note_off_c, 1, 56, 0
2, 254000, Note_off_c, 1, 68, 0
2, 254040, Note_on_c, 1, 57, 127
2, 254040, Note_on_c, 1, 66, 127
2, 254160, Note_off_c, 1, 57, 0
2, 254160, Note_off_c, 1, 66, 0
2, 254240, Note_on_c, 1, 59, 127
2, 254240, Note_on_c, 1, 75, 127
2, 254360, Note_off_c, 1, 59, 0
2, 254360, Note_off_c, 1, 75, 0
2, 254400, Note_on_c, 1, 56, 127
2, 254400, Note_on_c, 1, 75, 127
2, 254560, Note_off_c, 1, 56, 0
2, 254560, Note_off_c, 1, 75, 0
2, 254600, Note_on_c, 1, 54, 127
2, 254600, Note_on_c, 1, 76, 127
2, 254640, Note_off_c, 1, 76, 0
2, 254680, Note_on_c, 1, 75, 127
2, 254720, Note_off_c, 1, 75, 0
2, 254720, Note_on_c, 1, 76, 127
2, 254760, Note_off_c, 1, 54, 0
2, 254800, Note_on_c, 1, 52, 127
2, 254960, Note_off_c, 1, 76, 0
2, 255000, Note_on_c, 1, 74, 127
2, 255120, Note_off_c, 1, 52, 0
2, 255120, Note_off_c, 1, 74, 0
2, 255200, Note_on_c, 1, 57, 127
2, 255200, Note_on_c, 1, 73, 127
2, 255320, Note_off_c, 1, 73, 0
2, 255360, Note_on_c, 1, 71, 127
2, 255520, Note_off_c, 1, 57, 0
2, 255520, Note_off_c, 1, 71, 0
2, 255560, Note_on_c, 1, 49, 127
2, 255560, Note_on_c, 1, 69, 127
2, 255720, Note_off_c, 1, 69, 0
2, 255760, Note_on_c, 1, 68, 127
2, 255920, Note_off_c, 1, 49, 0
2, 255920, Note_off_c, 1, 68, 0
2, 255960, Note_on_c, 1, 50, 127
2, 255960, Note_on_c, 1, 66, 127
2, 256120, Note_off_c, 1, 66, 0
2, 256160, Note_on_c, 1, 64, 127
2, 256280, Note_off_c, 1, 50, 0
2, 256280, Note_off_c, 1, 64, 0
2, 256320, Note_on_c, 1, 38, 127
2, 256320, Note_on_c, 1, 66, 127
2, 256480, Note_off_c, 1, 66, 0
2, 256520, Note_on_c, 1, 69, 127
2, 256680, Note_off_c, 1, 38, 0
2, 256680, Note_off_c, 1, 69, 0
2, 256720, Note_on_c, 1, 50, 127
2, 256720, Note_on_c, 1, 71, 127
2, 256880, Note_off_c, 1, 71, 0
2, 256920, Note_on_c, 1, 73, 127
2, 257080, Note_off_c, 1, 50, 0
2, 257080, Note_off_c, 1, 73, 0
2, 257120, Note_on_c, 1, 47, 127
2, 257120, Note_on_c, 1, 74, 127
2, 257240, Note_off_c, 1, 74, 0
2, 257280, Note_on_c, 1, 71, 127
2, 257440, Note_off_c, 1, 47, 0
2, 257440, Note_off_c, 1, 71, 0
2, 257480, Note_on_c, 1, 52, 127
2, 257480, Note_on_c, 1, 69, 127
2, 257640, Note_off_c, 1, 52, 0
2, 257640, Note_off_c, 1, 69, 0
2, 257680, Note_on_c, 1, 40, 127
2, 257680, Note_on_c, 1, 68, 127
2, 257840, Note_off_c, 1, 40, 0
2, 257840, Note_off_c, 1, 68, 0
2, 257880, Note_on_c, 1, 44, 127
2, 257880, Note_on_c, 1, 66, 127
2, 258040, Note_off_c, 1, 44, 0
2, 258040, Note_off_c, 1, 66, 0
2, 258080, Note_on_c, 1, 47, 127
2, 258080, Note_on_c, 1, 64, 127
2, 258200, Note_off_c, 1, 47, 0
2, 258200, Note_off_c, 1, 64, 0
2, 258280, Note_on_c, 1, 50, 127
2, 258280, Note_on_c, 1, 76, 127
2, 258400, Note_off_c, 1, 50, 0
2, 258440, Note_on_c, 1, 54, 127
2, 258600, Note_off_c, 1, 54, 0
2, 258640, Note_on_c, 1, 52, 127
2, 258800, Note_off_c, 1, 52, 0
2, 258800, Note_off_c, 1, 76, 0
2, 258840, Note_on_c, 1, 50, 127
2, 258840, Note_on_c, 1, 68, 127
2, 259000, Note_off_c, 1, 50, 0
2, 259000, Note_off_c, 1, 68, 0
2, 259040, Note_on_c, 1, 49, 127
2, 259040, Note_on_c, 1, 69, 127
2, 259160, Note_off_c, 1, 49, 0
2, 259160, Note_off_c, 1, 69, 0
2, 259240, Note_on_c, 1, 47, 127
2, 259240, Note_on_c, 1, 74, 127
2, 259360, Note_off_c, 1, 47, 0
2, 259360, Note_off_c, 1, 74, 0
2, 259400, Note_on_c, 1, 45, 127
2, 259400, Note_on_c, 1, 73, 127
2, 259560, Note_off_c, 1, 45, 0
2, 259560, Note_off_c, 1, 73, 0
2, 259600, Note_on_c, 1, 50, 127
2, 259600, Note_on_c, 1, 71, 127
2, 259760, Note_off_c, 1, 50, 0
2, 259760, Note_off_c, 1, 71, 0
2, 259800, Note_on_c, 1, 52, 127
2, 259800, Note_on_c, 1, 68, 127
2, 259800, Note_on_c, 1, 73, 127
2, 259920, Note_off_c, 1, 73, 0
2, 259960, Note_on_c, 1, 71, 127
2, 260000, Note_off_c, 1, 71, 0
2, 260040, Note_on_c, 1, 73, 127
2, 260080, Note_off_c, 1, 73, 0
2, 260120, Note_on_c, 1, 71, 127
2, 260160, Note_off_c, 1, 52, 0
2, 260160, Note_off_c, 1, 71, 0
2, 260200, Note_on_c, 1, 40, 127
2, 260200, Note_on_c, 1, 73, 127
2, 260240, Note_off_c, 1, 73, 0
2, 260280, Note_on_c, 1, 71, 127
2, 260320, Note_off_c, 1, 71, 0
2, 260360, Note_on_c, 1, 69, 127
2, 260520, Note_off_c, 1, 40, 0
2, 260520, Note_off_c, 1, 68, 0
2, 260520, Note_off_c, 1, 69, 0
2, 260560, Note_on_c, 1, 45, 127
2, 260560, Note_on_c, 1, 69, 127
2, 260720, Note_off_c, 1, 45, 0
2, 260760, Note_on_c, 1, 57, 127
2, 260920, Note_off_c, 1, 57, 0
2, 260960, Note_on_c, 1, 52, 127
2, 261120, Note_off_c, 1, 52, 0
2, 261160, Note_on_c, 1, 49, 127
2, 261280, Note_off_c, 1, 49, 0
2, 261320, Note_on_c, 1, 45, 127
2, 261480, Note_off_c, 1, 45, 0
2, 261480, Note_off_c, 1, 69, 0
2, 261520, Note_on_c, 1, 42, 127
2, 261520, Note_on_c, 1, 73, 127
2, 261680, Note_off_c, 1, 42, 0
2, 261680, Note_off_c, 1, 73, 0
2, 261720, Note_on_c, 1, 44, 127
2, 261720, Note_on_c, 1, 71, 127
2, 261880, Note_off_c, 1, 44, 0
2, 261880, Note_off_c, 1, 71, 0
2, 261920, Note_on_c, 1, 45, 127
2, 261920, Note_on_c, 1, 73, 127
2, 262080, Note_off_c, 1, 45, 0
2, 262080, Note_off_c, 1, 73, 0
2, 262120, Note_on_c, 1, 47, 127
2, 262120, Note_on_c, 1, 62, 127
2, 262240, Note_off_c, 1, 47, 0
2, 262240, Note_off_c, 1, 62, 0
2, 262320, Note_on_c, 1, 45, 127
2, 262320, Note_on_c, 1, 61, 127
2, 262440, Note_off_c, 1, 45, 0
2, 262440, Note_off_c, 1, 61, 0
2, 262480, Note_on_c, 1, 44, 127
2, 262480, Note_on_c, 1, 59, 127
2, 262640, Note_off_c, 1, 44, 0
2, 262680, Note_on_c, 1, 49, 127
2, 262840, Note_off_c, 1, 49, 0
2, 262880, Note_on_c, 1, 51, 127
2, 262960, Note_off_c, 1, 59, 0
2, 263040, Note_off_c, 1, 51, 0
2, 263080, Note_on_c, 1, 53, 127
2, 263080, Note_on_c, 1, 68, 127
2, 263200, Note_off_c, 1, 53, 0
2, 263200, Note_off_c, 1, 68, 0
2, 263280, Note_on_c, 1, 54, 127
2, 263280, Note_on_c, 1, 69, 127
2, 263400, Note_off_c, 1, 54, 0
2, 263400, Note_off_c, 1, 69, 0
2, 263440, Note_on_c, 1, 56, 127
2, 263440, Note_on_c, 1, 71, 127
2, 263600, Note_off_c, 1, 56, 0
2, 263600, Note_off_c, 1, 71, 0
2, 263640, Note_on_c, 1, 49, 127
2, 263640, Note_on_c, 1, 65, 127
2, 263800, Note_off_c, 1, 65, 0
2, 263840, Note_on_c, 1, 73, 127
2, 264000, Note_off_c, 1, 73, 0
2, 264040, Note_on_c, 1, 68, 127
2, 264200, Note_off_c, 1, 68, 0
2, 264240, Note_on_c, 1, 65, 127
2, 264360, Note_off_c, 1, 65, 0
2, 264400, Note_on_c, 1, 61, 127
2, 264560, Note_off_c, 1, 49, 0
2, 264560, Note_off_c, 1, 61, 0
2, 264600, Note_on_c, 1, 54, 127
2, 264600, Note_on_c, 1, 60, 127
2, 264760, Note_off_c, 1, 54, 0
2, 264760, Note_off_c, 1, 60, 0
2, 264800, Note_on_c, 1, 53, 127
2, 264800, Note_on_c, 1, 61, 127
2, 264960, Note_off_c, 1, 53, 0
2, 264960, Note_off_c, 1, 61, 0
2, 265000, Note_on_c, 1, 54, 127
2, 265000, Note_on_c, 1, 63, 127
2, 265160, Note_off_c, 1, 54, 0
2, 265160, Note_off_c, 1, 63, 0
2, 265200, Note_on_c, 1, 47, 127
2, 265200, Note_on_c, 1, 65, 127
2, 265320, Note_off_c, 1, 65, 0
2, 265360, Note_on_c, 1, 63, 127
2, 265520, Note_off_c, 1, 47, 0
2, 265520, Note_off_c, 1, 63, 0
2, 265560, Note_on_c, 1, 45, 127
2, 265560, Note_on_c, 1, 54, 127
2, 265560, Note_on_c, 1, 61, 127
2, 265720, Note_off_c, 1, 61, 0
2, 265760, Note_on_c, 1, 66, 127
2, 265920, Note_off_c, 1, 45, 0
2, 265920, Note_off_c, 1, 66, 0
2, 265960, Note_on_c, 1, 47, 127
2, 265960, Note_on_c, 1, 68, 127
2, 266120, Note_off_c, 1, 68, 0
2, 266160, Note_on_c, 1, 69, 127
2, 266280, Note_off_c, 1, 47, 0
2, 266280, Note_off_c, 1, 54, 0
2, 266280, Note_off_c, 1, 69, 0
2, 266360, Note_on_c, 1, 49, 127
2, 266360, Note_on_c, 1, 53, 127
2, 266360, Note_on_c, 1, 71, 127
2, 266480, Note_off_c, 1, 71, 0
2, 266520, Note_on_c, 1, 73, 127
2, 266680, Note_off_c, 1, 49, 0
2, 266680, Note_off_c, 1, 53, 0
2, 266680, Note_off_c, 1, 73, 0
2, 266720, Note_on_c, 1, 54, 127
2, 266720, Note_on_c, 1, 69, 127
2, 266880, Note_off_c, 1, 69, 0
2, 266920, Note_on_c, 1, 42, 127
2, 266920, Note_on_c, 1, 68, 127
2, 267080, Note_off_c, 1, 42, 0
2, 267080, Note_off_c, 1, 54, 0
2, 267080, Note_off_c, 1, 68, 0
2, 267120, Note_on_c, 1, 45, 127
2, 267120, Note_on_c, 1, 66, 127
2, 267240, Note_off_c, 1, 45, 0
2, 267240, Note_off_c, 1, 66, 0
2, 267320, Note_on_c, 1, 49, 127
2, 267320, Note_on_c, 1, 68, 127
2, 267440, Note_off_c, 1, 49, 0
2, 267440, Note_off_c, 1, 68, 0
2, 267480, Note_on_c, 1, 54, 127
2, 267480, Note_on_c, 1, 69, 127
2, 267640, Note_off_c, 1, 54, 0
2, 267640, Note_off_c, 1, 69, 0
2, 267680, Note_on_c, 1, 54, 127
2, 267680, Note_on_c, 1, 71, 127
2, 267840, Note_off_c, 1, 54, 0
2, 267840, Note_off_c, 1, 71, 0
2, 267880, Note_on_c, 1, 52, 127
2, 267880, Note_on_c, 1, 73, 127
2, 268040, Note_off_c, 1, 52, 0
2, 268040, Note_off_c, 1, 73, 0
2, 268080, Note_on_c, 1, 50, 127
2, 268080, Note_on_c, 1, 74, 127
2, 268240, Note_off_c, 1, 50, 0
2, 268240, Note_off_c, 1, 74, 0
2, 268280, Note_on_c, 1, 49, 127
2, 268280, Note_on_c, 1, 76, 127
2, 268400, Note_off_c, 1, 49, 0
2, 268440, Note_on_c, 1, 50, 127
2, 268600, Note_off_c, 1, 50, 0
2, 268600, Note_off_c, 1, 76, 0
2, 268640, Note_on_c, 1, 52, 127
2, 268640, Note_on_c, 1, 69, 127
2, 268800, Note_off_c, 1, 52, 0
2, 268840, Note_on_c, 1, 47, 127
2, 269000, Note_off_c, 1, 47, 0
2, 269000, Note_off_c, 1, 69, 0
2, 269040, Note_on_c, 1, 45, 127
2, 269040, Note_on_c, 1, 79, 127
2, 269080, Note_off_c, 1, 79, 0
2, 269120, Note_on_c, 1, 78, 127
2, 269200, Note_off_c, 1, 45, 0
2, 269200, Note_off_c, 1, 78, 0
2, 269240, Note_on_c, 1, 43, 127
2, 269240, Note_on_c, 1, 79, 127
2, 269360, Note_off_c, 1, 43, 0
2, 269400, Note_on_c, 1, 42, 127
2, 269560, Note_off_c, 1, 42, 0
2, 269560, Note_off_c, 1, 79, 0
2, 269600, Note_on_c, 1, 40, 127
2, 269600, Note_on_c, 1, 81, 127
2, 269760, Note_off_c, 1, 40, 0
2, 269760, Note_off_c, 1, 81, 0
2, 269800, Note_on_c, 1, 38, 127
2, 269800, Note_on_c, 1, 78, 127
2, 270000, Note_on_c, 1, 76, 127
2, 270160, Note_off_c, 1, 76, 0
2, 270200, Note_on_c, 1, 74, 127
2, 270320, Note_off_c, 1, 74, 0
2, 270400, Note_on_c, 1, 73, 127
2, 270520, Note_off_c, 1, 38, 0
2, 270520, Note_off_c, 1, 73, 0
2, 270560, Note_on_c, 1, 50, 127
2, 270560, Note_on_c, 1, 71, 127
2, 270720, Note_off_c, 1, 71, 0
2, 270760, Note_on_c, 1, 73, 127
2, 270920, Note_off_c, 1, 73, 0
2, 270960, Note_on_c, 1, 74, 127
2, 271120, Note_off_c, 1, 74, 0
2, 271160, Note_on_c, 1, 69, 127
2, 271320, Note_off_c, 1, 69, 0
2, 271320, Note_off_c, 1, 78, 0
2, 271360, Note_on_c, 1, 68, 127
2, 271360, Note_on_c, 1, 76, 127
2, 271480, Note_off_c, 1, 50, 0
2, 271520, Note_on_c, 1, 66, 127
2, 271680, Note_off_c, 1, 66, 0
2, 271720, Note_on_c, 1, 64, 127
2, 271880, Note_off_c, 1, 64, 0
2, 271920, Note_on_c, 1, 62, 127
2, 272080, Note_off_c, 1, 62, 0
2, 272080, Note_off_c, 1, 68, 0
2, 272120, Note_on_c, 1, 61, 127
2, 272120, Note_on_c, 1, 67, 127
2, 272280, Note_off_c, 1, 61, 0
2, 272280, Note_off_c, 1, 76, 0
2, 272320, Note_on_c, 1, 62, 127
2, 272320, Note_on_c, 1, 74, 127
2, 272440, Note_off_c, 1, 62, 0
2, 272440, Note_off_c, 1, 74, 0
2, 272480, Note_on_c, 1, 64, 127
2, 272480, Note_on_c, 1, 73, 127
2, 272640, Note_off_c, 1, 64, 0
2, 272640, Note_off_c, 1, 73, 0
2, 272680, Note_on_c, 1, 55, 127
2, 272680, Note_on_c, 1, 71, 127
2, 272840, Note_off_c, 1, 55, 0
2, 272840, Note_off_c, 1, 71, 0
2, 272880, Note_on_c, 1, 54, 127
2, 272880, Note_on_c, 1, 70, 127
2, 273040, Note_off_c, 1, 54, 0
2, 273040, Note_off_c, 1, 67, 0
2, 273040, Note_off_c, 1, 70, 0
2, 273080, Note_on_c, 1, 52, 127
2, 273080, Note_on_c, 1, 68, 127
2, 273240, Note_off_c, 1, 52, 0
2, 273240, Note_off_c, 1, 68, 0
2, 273280, Note_on_c, 1, 50, 127
2, 273280, Note_on_c, 1, 66, 127
2, 273400, Note_off_c, 1, 50, 0
2, 273480, Note_on_c, 1, 49, 127
2, 273600, Note_off_c, 1, 49, 0
2, 273640, Note_on_c, 1, 47, 127
2, 273640, Note_on_c, 1, 74, 127
2, 273720, Note_off_c, 1, 74, 0
2, 273760, Note_on_c, 1, 73, 127
2, 273800, Note_off_c, 1, 47, 0
2, 273800, Note_off_c, 1, 73, 0
2, 273840, Note_on_c, 1, 49, 127
2, 273840, Note_on_c, 1, 74, 127
2, 274000, Note_off_c, 1, 49, 0
2, 274040, Note_on_c, 1, 50, 127
2, 274200, Note_off_c, 1, 50, 0
2, 274200, Note_off_c, 1, 74, 0
2, 274240, Note_on_c, 1, 42, 127
2, 274240, Note_on_c, 1, 74, 127
2, 274360, Note_off_c, 1, 42, 0
2, 274360, Note_off_c, 1, 66, 0
2, 274360, Note_off_c, 1, 74, 0
2, 274440, Note_on_c, 1, 41, 127
2, 274440, Note_on_c, 1, 68, 127
2, 274440, Note_on_c, 1, 74, 127
2, 274560, Note_off_c, 1, 74, 0
2, 274600, Note_on_c, 1, 73, 127
2, 274760, Note_off_c, 1, 41, 0
2, 274760, Note_off_c, 1, 68, 0
2, 274760, Note_off_c, 1, 73, 0
2, 274800, Note_on_c, 1, 42, 127
2, 274800, Note_on_c, 1, 71, 127
2, 274960, Note_off_c, 1, 71, 0
2, 275000, Note_on_c, 1, 69, 127
2, 275160, Note_off_c, 1, 42, 0
2, 275160, Note_off_c, 1, 69, 0
2, 275200, Note_on_c, 1, 47, 127
2, 275200, Note_on_c, 1, 68, 127
2, 275320, Note_off_c, 1, 68, 0
2, 275400, Note_on_c, 1, 69, 127
2, 275520, Note_off_c, 1, 47, 0
2, 275520, Note_off_c, 1, 69, 0
2, 275560, Note_on_c, 1, 44, 127
2, 275560, Note_on_c, 1, 71, 127
2, 275720, Note_off_c, 1, 71, 0
2, 275760, Note_on_c, 1, 66, 127
2, 275920, Note_off_c, 1, 44, 0
2, 275920, Note_off_c, 1, 66, 0
2, 275960, Note_on_c, 1, 49, 127
2, 275960, Note_on_c, 1, 65, 127
2, 276120, Note_off_c, 1, 65, 0
2, 276160, Note_on_c, 1, 66, 127
2, 276320, Note_off_c, 1, 66, 0
2, 276360, Note_on_c, 1, 68, 127
2, 276480, Note_off_c, 1, 49, 0
2, 276520, Note_on_c, 1, 62, 127
2, 276680, Note_off_c, 1, 62, 0
2, 276680, Note_off_c, 1, 68, 0
2, 276720, Note_on_c, 1, 61, 127
2, 276720, Note_on_c, 1, 68, 127
2, 276800, Note_off_c, 1, 68, 0
2, 276840, Note_on_c, 1, 66, 127
2, 276880, Note_off_c, 1, 61, 0
2, 276880, Note_off_c, 1, 66, 0
2, 276920, Note_on_c, 1, 59, 127
2, 276920, Note_on_c, 1, 68, 127
2, 277080, Note_off_c, 1, 59, 0
2, 277120, Note_on_c, 1, 57, 127
2, 277280, Note_off_c, 1, 57, 0
2, 277280, Note_off_c, 1, 68, 0
2, 277320, Note_on_c, 1, 56, 127
2, 277320, Note_on_c, 1, 68, 127
2, 277440, Note_off_c, 1, 56, 0
2, 277440, Note_off_c, 1, 68, 0
2, 277480, Note_on_c, 1, 57, 127
2, 277480, Note_on_c, 1, 68, 127
2, 277640, Note_off_c, 1, 57, 0
2, 277640, Note_off_c, 1, 68, 0
2, 277680, Note_on_c, 1, 59, 127
2, 277680, Note_on_c, 1, 66, 127
2, 277840, Note_off_c, 1, 59, 0
2, 277840, Note_off_c, 1, 66, 0
2, 277880, Note_on_c, 1, 61, 127
2, 277880, Note_on_c, 1, 65, 127
2, 278040, Note_off_c, 1, 61, 0
2, 278040, Note_off_c, 1, 65, 0
2, 278080, Note_on_c, 1, 57, 127
2, 278080, Note_on_c, 1, 66, 127
2, 278240, Note_off_c, 1, 57, 0
2, 278240, Note_off_c, 1, 66, 0
2, 278280, Note_on_c, 1, 56, 127
2, 278280, Note_on_c, 1, 71, 127
2, 278400, Note_off_c, 1, 56, 0
2, 278480, Note_on_c, 1, 54, 127
2, 278480, Note_on_c, 1, 69, 127
2, 278600, Note_off_c, 1, 54, 0
2, 278600, Note_off_c, 1, 69, 0
2, 278640, Note_on_c, 1, 53, 127
2, 278640, Note_on_c, 1, 68, 127
2, 278800, Note_off_c, 1, 53, 0
2, 278800, Note_off_c, 1, 68, 0
2, 278800, Note_off_c, 1, 71, 0
2, 278840, Note_on_c, 1, 51, 127
2, 278840, Note_on_c, 1, 66, 127
2, 278840, Note_on_c, 1, 71, 127
2, 279000, Note_off_c, 1, 51, 0
2, 279000, Note_off_c, 1, 66, 0
2, 279000, Note_off_c, 1, 71, 0
2, 279040, Note_on_c, 1, 53, 127
2, 279040, Note_on_c, 1, 68, 127
2, 279040, Note_on_c, 1, 71, 127
2, 279200, Note_off_c, 1, 53, 0
2, 279240, Note_on_c, 1, 54, 127
2, 279360, Note_off_c, 1, 54, 0
2, 279440, Note_on_c, 1, 56, 127
2, 279560, Note_off_c, 1, 56, 0
2, 279600, Note_on_c, 1, 50, 127
2, 279760, Note_off_c, 1, 50, 0
2, 279800, Note_on_c, 1, 49, 127
2, 279960, Note_off_c, 1, 49, 0
2, 280000, Note_on_c, 1, 47, 127
2, 280160, Note_off_c, 1, 47, 0
2, 280160, Note_off_c, 1, 68, 0
2, 280160, Note_off_c, 1, 71, 0
2, 280200, Note_on_c, 1, 45, 127
2, 280200, Note_on_c, 1, 66, 127
2, 280240, Note_off_c, 1, 66, 0
2, 280280, Note_on_c, 1, 65, 127
2, 280360, Note_off_c, 1, 45, 0
2, 280360, Note_off_c, 1, 65, 0
2, 280400, Note_on_c, 1, 44, 127
2, 280400, Note_on_c, 1, 63, 127
2, 280440, Note_off_c, 1, 63, 0
2, 280480, Note_on_c, 1, 65, 127
2, 280520, Note_off_c, 1, 44, 0
2, 280520, Note_off_c, 1, 65, 0
2, 280560, Note_on_c, 1, 45, 127
2, 280560, Note_on_c, 1, 66, 127
2, 280760, Note_on_c, 1, 68, 127
2, 280920, Note_off_c, 1, 45, 0
2, 280920, Note_off_c, 1, 68, 0
2, 280960, Note_on_c, 1, 47, 127
2, 280960, Note_on_c, 1, 69, 127
2, 281120, Note_off_c, 1, 69, 0
2, 281160, Note_on_c, 1, 74, 127
2, 281320, Note_off_c, 1, 47, 0
2, 281320, Note_off_c, 1, 66, 0
2, 281320, Note_off_c, 1, 74, 0
2, 281360, Note_on_c, 1, 49, 127
2, 281360, Note_on_c, 1, 65, 127
2, 281360, Note_on_c, 1, 69, 127
2, 281400, Note_off_c, 1, 69, 0
2, 281440, Note_on_c, 1, 68, 127
2, 281520, Note_off_c, 1, 68, 0
2, 281560, Note_on_c, 1, 69, 127
2, 281600, Note_off_c, 1, 69, 0
2, 281640, Note_on_c, 1, 68, 127
2, 281720, Note_off_c, 1, 49, 0
2, 281720, Note_off_c, 1, 68, 0
2, 281760, Note_on_c, 1, 37, 127
2, 281760, Note_on_c, 1, 69, 127
2, 281800, Note_off_c, 1, 69, 0
2, 281840, Note_on_c, 1, 68, 127
2, 281880, Note_off_c, 1, 65, 0
2, 281920, Note_off_c, 1, 68, 0
2, 281960, Note_on_c, 1, 66, 127
2, 282120, Note_off_c, 1, 37, 0
2, 282120, Note_off_c, 1, 66, 0
2, 282160, Note_on_c, 1, 42, 127
2, 282160, Note_on_c, 1, 66, 127
2, 282360, Note_on_c, 1, 64, 127
2, 282520, Note_off_c, 1, 64, 0
2, 282560, Note_on_c, 1, 62, 127
2, 282720, Note_off_c, 1, 62, 0
2, 282760, Note_on_c, 1, 61, 127
2, 282960, Note_off_c, 1, 61, 0
2, 283000, Note_on_c, 1, 59, 127
2, 283160, Note_off_c, 1, 42, 0
2, 283160, Note_off_c, 1, 59, 0
2, 283200, Note_on_c, 1, 61, 127
2, 283360, Note_off_c, 1, 61, 0
2, 283400, Note_on_c, 1, 62, 127
2, 283640, Note_on_c, 1, 53, 127
2, 283800, Note_off_c, 1, 53, 0
2, 283800, Note_off_c, 1, 62, 0
2, 283840, Note_on_c, 1, 54, 127
2, 283840, Note_on_c, 1, 57, 127
2, 283960, Note_on_c, 1, 61, 127
2, 284000, Note_off_c, 1, 66, 0
2, 284080, Note_on_c, 1, 45, 127
2, 284080, Note_on_c, 1, 66, 127
2, 284280, Note_off_c, 1, 45, 0
2, 284320, Note_on_c, 1, 47, 127
2, 284520, Note_off_c, 1, 47, 0
2, 284560, Note_on_c, 1, 49, 127
2, 284800, Note_off_c, 1, 49, 0
2, 284840, Note_on_c, 1, 42, 127
2, 287600, Note_off_c, 1, 54, 0
2, 287600, Note_off_c, 1, 57, 0
2, 287640, Note_off_c, 1, 61, 0
2, 287640, Note_off_c, 1, 66, 0
2, 287680, Note_off_c, 1, 42, 0
2, 289360, Note_on_c, 1, 61, 127
2, 289480, Note_off_c, 1, 61, 0
2, 289560, Note_on_c, 1, 54, 127
2, 289560, Note_on_c, 1, 61, 127
2, 289720, Note_on_c, 1, 59, 127
2, 289880, Note_off_c, 1, 59, 0
2, 289920, Note_on_c, 1, 57, 127
2, 290080, Note_off_c, 1, 57, 0
2, 290120, Note_on_c, 1, 56, 127
2, 290280, Note_off_c, 1, 56, 0
2, 290320, Note_on_c, 1, 57, 127
2, 290480, Note_off_c, 1, 54, 0
2, 290520, Note_on_c, 1, 53, 127
2, 290680, Note_off_c, 1, 53, 0
2, 290720, Note_on_c, 1, 54, 127
2, 290880, Note_off_c, 1, 54, 0
2, 290880, Note_off_c, 1, 61, 0
2, 290920, Note_on_c, 1, 49, 127
2, 290920, Note_on_c, 1, 61, 127
2, 291080, Note_off_c, 1, 49, 0
2, 291080, Note_off_c, 1, 57, 0
2, 291080, Note_off_c, 1, 61, 0
2, 291120, Note_on_c, 1, 50, 127
2, 291120, Note_on_c, 1, 66, 127
2, 291280, Note_off_c, 1, 50, 0
2, 291280, Note_off_c, 1, 66, 0
2, 291320, Note_on_c, 1, 47, 127
2, 291320, Note_on_c, 1, 68, 127
2, 291440, Note_off_c, 1, 47, 0
2, 291440, Note_off_c, 1, 68, 0
2, 291520, Note_on_c, 1, 49, 127
2, 291520, Note_on_c, 1, 65, 127
2, 291640, Note_off_c, 1, 49, 0
2, 291640, Note_off_c, 1, 65, 0
2, 291680, Note_on_c, 1, 50, 127
2, 291680, Note_on_c, 1, 66, 127
2, 291840, Note_off_c, 1, 50, 0
2, 291840, Note_off_c, 1, 66, 0
2, 291880, Note_on_c, 1, 41, 127
2, 291880, Note_on_c, 1, 68, 127
2, 292080, Note_on_c, 1, 62, 127
2, 292240, Note_off_c, 1, 62, 0
2, 292280, Note_on_c, 1, 61, 127
2, 292440, Note_off_c, 1, 61, 0
2, 292480, Note_on_c, 1, 59, 127
2, 292640, Note_off_c, 1, 41, 0
2, 292640, Note_off_c, 1, 59, 0
2, 292680, Note_on_c, 1, 61, 127
2, 292720, Note_off_c, 1, 61, 0
2, 292760, Note_on_c, 1, 59, 127
2, 292840, Note_off_c, 1, 59, 0
2, 292880, Note_on_c, 1, 56, 127
2, 292880, Note_on_c, 1, 61, 127
2, 293040, Note_off_c, 1, 56, 0
2, 293080, Note_on_c, 1, 57, 127
2, 293240, Note_off_c, 1, 57, 0
2, 293240, Note_off_c, 1, 61, 0
2, 293240, Note_off_c, 1, 68, 0
2, 293280, Note_on_c, 1, 59, 127
2, 293280, Note_on_c, 1, 61, 127
2, 293400, Note_off_c, 1, 59, 0
2, 293400, Note_off_c, 1, 61, 0
2, 293480, Note_on_c, 1, 53, 127
2, 293480, Note_on_c, 1, 68, 127
2, 293600, Note_off_c, 1, 53, 0
2, 293600, Note_off_c, 1, 68, 0
2, 293640, Note_on_c, 1, 54, 127
2, 293640, Note_on_c, 1, 69, 127
2, 293800, Note_off_c, 1, 54, 0
2, 293800, Note_off_c, 1, 69, 0
2, 293840, Note_on_c, 1, 56, 127
2, 293840, Note_on_c, 1, 66, 127
2, 294000, Note_off_c, 1, 56, 0
2, 294000, Note_off_c, 1, 66, 0
2, 294040, Note_on_c, 1, 49, 127
2, 294040, Note_on_c, 1, 68, 127
2, 294200, Note_off_c, 1, 49, 0
2, 294200, Note_off_c, 1, 68, 0
2, 294240, Note_on_c, 1, 54, 127
2, 294240, Note_on_c, 1, 69, 127
2, 294440, Note_on_c, 1, 68, 127
2, 294600, Note_off_c, 1, 54, 0
2, 294600, Note_off_c, 1, 68, 0
2, 294640, Note_on_c, 1, 49, 127
2, 294640, Note_on_c, 1, 66, 127
2, 294800, Note_off_c, 1, 66, 0
2, 294840, Note_on_c, 1, 65, 127
2, 295000, Note_off_c, 1, 49, 0
2, 295000, Note_off_c, 1, 65, 0
2, 295040, Note_on_c, 1, 50, 127
2, 295040, Note_on_c, 1, 66, 127
2, 295160, Note_off_c, 1, 66, 0
2, 295240, Note_on_c, 1, 61, 127
2, 295360, Note_off_c, 1, 50, 0
2, 295360, Note_off_c, 1, 61, 0
2, 295400, Note_on_c, 1, 54, 127
2, 295400, Note_on_c, 1, 62, 127
2, 295560, Note_off_c, 1, 62, 0
2, 295560, Note_off_c, 1, 69, 0
2, 295600, Note_on_c, 1, 69, 127
2, 295760, Note_off_c, 1, 54, 0
2, 295760, Note_off_c, 1, 69, 0
2, 295800, Note_on_c, 1, 47, 127
2, 295800, Note_on_c, 1, 68, 127
2, 295960, Note_off_c, 1, 68, 0
2, 296000, Note_on_c, 1, 71, 127
2, 296160, Note_off_c, 1, 47, 0
2, 296160, Note_off_c, 1, 71, 0
2, 296200, Note_on_c, 1, 50, 127
2, 296200, Note_on_c, 1, 65, 127
2, 296360, Note_off_c, 1, 65, 0
2, 296400, Note_on_c, 1, 66, 127
2, 296560, Note_off_c, 1, 50, 0
2, 296560, Note_off_c, 1, 66, 0
2, 296600, Note_on_c, 1, 49, 127
2, 296600, Note_on_c, 1, 66, 127
2, 296640, Note_off_c, 1, 66, 0
2, 296680, Note_on_c, 1, 65, 127
2, 296720, Note_off_c, 1, 65, 0
2, 296760, Note_on_c, 1, 66, 127
2, 296800, Note_off_c, 1, 66, 0
2, 296840, Note_on_c, 1, 65, 127
2, 296920, Note_off_c, 1, 65, 0
2, 297000, Note_on_c, 1, 63, 127
2, 297120, Note_off_c, 1, 49, 0
2, 297120, Note_off_c, 1, 63, 0
2, 297160, Note_on_c, 1, 47, 127
2, 297160, Note_on_c, 1, 61, 127
2, 297320, Note_off_c, 1, 47, 0
2, 297320, Note_off_c, 1, 61, 0
2, 297360, Note_on_c, 1, 45, 127
2, 297360, Note_on_c, 1, 73, 127
2, 297520, Note_off_c, 1, 45, 0
2, 297560, Note_on_c, 1, 44, 127
2, 297720, Note_off_c, 1, 44, 0
2, 297760, Note_on_c, 1, 45, 127
2, 297920, Note_off_c, 1, 45, 0
2, 297920, Note_off_c, 1, 73, 0
2, 297960, Note_on_c, 1, 42, 127
2, 297960, Note_on_c, 1, 74, 127
2, 298120, Note_off_c, 1, 42, 0
2, 298120, Note_off_c, 1, 74, 0
2, 298160, Note_on_c, 1, 49, 127
2, 298160, Note_on_c, 1, 73, 127
2, 298320, Note_off_c, 1, 73, 0
2, 298360, Note_on_c, 1, 71, 127
2, 298520, Note_off_c, 1, 49, 0
2, 298520, Note_off_c, 1, 71, 0
2, 298560, Note_on_c, 1, 37, 127
2, 298560, Note_on_c, 1, 69, 127
2, 298720, Note_off_c, 1, 69, 0
2, 298760, Note_on_c, 1, 68, 127
2, 298880, Note_off_c, 1, 37, 0
2, 298880, Note_off_c, 1, 68, 0
2, 298960, Note_on_c, 1, 42, 127
2, 298960, Note_on_c, 1, 69, 127
2, 299080, Note_off_c, 1, 69, 0
2, 299120, Note_on_c, 1, 68, 127
2, 299280, Note_off_c, 1, 68, 0
2, 299320, Note_on_c, 1, 45, 127
2, 299320, Note_on_c, 1, 66, 127
2, 299480, Note_off_c, 1, 66, 0
2, 299520, Note_on_c, 1, 68, 127
2, 299680, Note_off_c, 1, 45, 0
2, 299680, Note_off_c, 1, 68, 0
2, 299720, Note_on_c, 1, 49, 127
2, 299720, Note_on_c, 1, 69, 127
2, 299880, Note_off_c, 1, 69, 0
2, 299920, Note_on_c, 1, 71, 127
2, 300080, Note_off_c, 1, 42, 0
2, 300080, Note_off_c, 1, 49, 0
2, 300080, Note_off_c, 1, 71, 0
2, 300120, Note_on_c, 1, 54, 127
2, 300120, Note_on_c, 1, 73, 127
2, 300280, Note_off_c, 1, 73, 0
2, 300320, Note_on_c, 1, 74, 127
2, 300480, Note_off_c, 1, 54, 0
2, 300480, Note_off_c, 1, 74, 0
2, 300520, Note_on_c, 1, 52, 127
2, 300520, Note_on_c, 1, 76, 127
2, 300640, Note_off_c, 1, 76, 0
2, 300680, Note_on_c, 1, 74, 127
2, 300720, Note_off_c, 1, 74, 0
2, 300760, Note_on_c, 1, 76, 127
2, 300800, Note_off_c, 1, 76, 0
2, 300840, Note_off_c, 1, 52, 0
2, 300840, Note_on_c, 1, 74, 127
2, 300880, Note_on_c, 1, 50, 127
2, 300920, Note_off_c, 1, 74, 0
2, 300960, Note_on_c, 1, 76, 127
2, 301000, Note_off_c, 1, 76, 0
2, 301040, Note_on_c, 1, 74, 127
2, 301080, Note_off_c, 1, 74, 0
2, 301120, Note_on_c, 1, 73, 127
2, 301160, Note_off_c, 1, 73, 0
2, 301200, Note_on_c, 1, 74, 127
2, 301240, Note_off_c, 1, 50, 0
2, 301240, Note_off_c, 1, 74, 0
2, 301280, Note_on_c, 1, 49, 127
2, 301280, Note_on_c, 1, 76, 127
2, 301440, Note_off_c, 1, 49, 0
2, 301480, Note_on_c, 1, 52, 127
2, 301640, Note_off_c, 1, 52, 0
2, 301680, Note_on_c, 1, 54, 127
2, 301840, Note_off_c, 1, 54, 0
2, 301840, Note_off_c, 1, 76, 0
2, 301880, Note_on_c, 1, 56, 127
2, 301880, Note_on_c, 1, 74, 127
2, 302040, Note_off_c, 1, 56, 0
2, 302040, Note_off_c, 1, 74, 0
2, 302080, Note_on_c, 1, 57, 127
2, 302080, Note_on_c, 1, 73, 127
2, 302240, Note_off_c, 1, 57, 0
2, 302240, Note_off_c, 1, 73, 0
2, 302280, Note_on_c, 1, 56, 127
2, 302280, Note_on_c, 1, 71, 127
2, 302440, Note_off_c, 1, 56, 0
2, 302440, Note_off_c, 1, 71, 0
2, 302480, Note_on_c, 1, 57, 127
2, 302480, Note_on_c, 1, 69, 127
2, 302600, Note_off_c, 1, 57, 0
2, 302600, Note_off_c, 1, 69, 0
2, 302680, Note_on_c, 1, 59, 127
2, 302680, Note_on_c, 1, 68, 127
2, 302800, Note_off_c, 1, 59, 0
2, 302800, Note_off_c, 1, 68, 0
2, 302840, Note_on_c, 1, 61, 127
2, 302840, Note_on_c, 1, 69, 127
2, 303000, Note_off_c, 1, 69, 0
2, 303040, Note_on_c, 1, 71, 127
2, 303200, Note_off_c, 1, 61, 0
2, 303200, Note_off_c, 1, 71, 0
2, 303240, Note_on_c, 1, 57, 127
2, 303240, Note_on_c, 1, 64, 127
2, 303400, Note_off_c, 1, 64, 0
2, 303440, Note_on_c, 1, 67, 127
2, 303600, Note_off_c, 1, 57, 0
2, 303600, Note_off_c, 1, 67, 0
2, 303640, Note_on_c, 1, 62, 127
2, 303640, Note_on_c, 1, 66, 127
2, 303800, Note_off_c, 1, 62, 0
2, 303840, Note_on_c, 1, 64, 127
2, 304000, Note_off_c, 1, 64, 0
2, 304000, Note_off_c, 1, 66, 0
2, 304040, Note_on_c, 1, 62, 127
2, 304040, Note_on_c, 1, 78, 127
2, 304200, Note_off_c, 1, 62, 0
2, 304240, Note_on_c, 1, 61, 127
2, 304360, Note_off_c, 1, 61, 0
2, 304440, Note_on_c, 1, 59, 127
2, 304560, Note_off_c, 1, 78, 0
2, 304600, Note_on_c, 1, 76, 127
2, 304760, Note_off_c, 1, 59, 0
2, 304760, Note_off_c, 1, 76, 0
2, 304800, Note_on_c, 1, 61, 127
2, 304800, Note_on_c, 1, 74, 127
2, 304960, Note_off_c, 1, 74, 0
2, 305000, Note_on_c, 1, 73, 127
2, 305160, Note_off_c, 1, 61, 0
2, 305160, Note_off_c, 1, 73, 0
2, 305200, Note_on_c, 1, 62, 127
2, 305200, Note_on_c, 1, 71, 127
2, 305360, Note_off_c, 1, 71, 0
2, 305400, Note_on_c, 1, 73, 127
2, 305560, Note_off_c, 1, 62, 0
2, 305560, Note_off_c, 1, 73, 0
2, 305600, Note_on_c, 1, 59, 127
2, 305600, Note_on_c, 1, 74, 127
2, 305760, Note_off_c, 1, 74, 0
2, 305800, Note_on_c, 1, 69, 127
2, 305960, Note_off_c, 1, 59, 0
2, 305960, Note_off_c, 1, 69, 0
2, 306000, Note_on_c, 1, 64, 127
2, 306000, Note_on_c, 1, 68, 127
2, 306160, Note_off_c, 1, 68, 0
2, 306200, Note_on_c, 1, 71, 127
2, 306320, Note_off_c, 1, 64, 0
2, 306320, Note_off_c, 1, 71, 0
2, 306360, Note_on_c, 1, 62, 127
2, 306360, Note_on_c, 1, 73, 127
2, 306520, Note_off_c, 1, 73, 0
2, 306560, Note_on_c, 1, 74, 127
2, 306720, Note_off_c, 1, 62, 0
2, 306720, Note_off_c, 1, 74, 0
2, 306760, Note_on_c, 1, 61, 127
2, 306760, Note_on_c, 1, 76, 127
2, 306920, Note_off_c, 1, 76, 0
2, 306960, Note_on_c, 1, 74, 127
2, 307120, Note_off_c, 1, 61, 0
2, 307120, Note_off_c, 1, 74, 0
2, 307160, Note_on_c, 1, 59, 127
2, 307160, Note_on_c, 1, 76, 127
2, 307320, Note_off_c, 1, 59, 0
2, 307320, Note_off_c, 1, 76, 0
2, 307360, Note_on_c, 1, 57, 127
2, 307360, Note_on_c, 1, 78, 127
2, 307520, Note_off_c, 1, 57, 0
2, 307520, Note_off_c, 1, 78, 0
2, 307560, Note_on_c, 1, 64, 127
2, 307560, Note_on_c, 1, 76, 127
2, 307720, Note_off_c, 1, 76, 0
2, 307760, Note_on_c, 1, 74, 127
2, 307920, Note_off_c, 1, 64, 0
2, 307920, Note_off_c, 1, 74, 0
2, 307960, Note_on_c, 1, 52, 127
2, 307960, Note_on_c, 1, 73, 127
2, 308080, Note_off_c, 1, 73, 0
2, 308160, Note_on_c, 1, 71, 127
2, 308280, Note_off_c, 1, 52, 0
2, 308280, Note_off_c, 1, 71, 0
2, 308320, Note_on_c, 1, 57, 127
2, 308320, Note_on_c, 1, 71, 127
2, 308480, Note_off_c, 1, 71, 0
2, 308520, Note_on_c, 1, 73, 127
2, 308680, Note_off_c, 1, 57, 0
2, 308680, Note_off_c, 1, 73, 0
2, 308720, Note_on_c, 1, 45, 127
2, 308720, Note_on_c, 1, 71, 127
2, 308880, Note_off_c, 1, 45, 0
2, 308880, Note_off_c, 1, 71, 0
2, 308920, Note_on_c, 1, 44, 127
2, 308920, Note_on_c, 1, 69, 127
2, 309080, Note_off_c, 1, 44, 0
2, 309080, Note_off_c, 1, 69, 0
2, 309120, Note_on_c, 1, 42, 127
2, 309120, Note_on_c, 1, 73, 127
2, 309200, Note_on_c, 1, 78, 127
2, 309280, Note_off_c, 1, 42, 0
2, 309320, Note_on_c, 1, 41, 127
2, 309320, Note_on_c, 1, 81, 127
2, 309480, Note_off_c, 1, 41, 0
2, 309520, Note_on_c, 1, 42, 127
2, 309680, Note_off_c, 1, 42, 0
2, 309680, Note_off_c, 1, 73, 0
2, 309680, Note_off_c, 1, 78, 0
2, 309680, Note_off_c, 1, 81, 0
2, 309720, Note_on_c, 1, 44, 127
2, 309720, Note_on_c, 1, 80, 127
2, 309880, Note_off_c, 1, 44, 0
2, 309880, Note_off_c, 1, 80, 0
2, 309920, Note_on_c, 1, 45, 127
2, 309920, Note_on_c, 1, 78, 127
2, 310040, Note_off_c, 1, 78, 0
2, 310080, Note_on_c, 1, 80, 127
2, 310240, Note_off_c, 1, 45, 0
2, 310240, Note_off_c, 1, 80, 0
2, 310280, Note_on_c, 1, 42, 127
2, 310280, Note_on_c, 1, 81, 127
2, 310440, Note_off_c, 1, 81, 0
2, 310480, Note_on_c, 1, 76, 127
2, 310640, Note_off_c, 1, 42, 0
2, 310640, Note_off_c, 1, 76, 0
2, 310680, Note_on_c, 1, 47, 127
2, 310680, Note_on_c, 1, 76, 127
2, 310840, Note_off_c, 1, 47, 0
2, 310840, Note_off_c, 1, 76, 0
2, 310880, Note_on_c, 1, 46, 127
2, 310880, Note_on_c, 1, 74, 127
2, 310920, Note_off_c, 1, 74, 0
2, 310960, Note_on_c, 1, 76, 127
2, 311000, Note_on_c, 1, 74, 127
2, 311000, Note_off_c, 1, 76, 0
2, 311040, Note_off_c, 1, 46, 0
2, 311080, Note_on_c, 1, 47, 127
2, 311080, Note_off_c, 1, 74, 0
2, 311080, Note_on_c, 1, 76, 127
2, 311160, Note_on_c, 1, 74, 127
2, 311160, Note_off_c, 1, 76, 0
2, 311240, Note_off_c, 1, 47, 0
2, 311240, Note_off_c, 1, 74, 0
2, 311280, Note_on_c, 1, 49, 127
2, 311280, Note_on_c, 1, 73, 127
2, 311440, Note_off_c, 1, 49, 0
2, 311440, Note_off_c, 1, 73, 0
2, 311480, Note_on_c, 1, 50, 127
2, 311480, Note_on_c, 1, 71, 127
2, 311640, Note_off_c, 1, 71, 0
2, 311680, Note_on_c, 1, 73, 127
2, 311840, Note_off_c, 1, 50, 0
2, 311840, Note_off_c, 1, 73, 0
2, 311880, Note_on_c, 1, 49, 127
2, 311880, Note_on_c, 1, 74, 127
2, 312000, Note_off_c, 1, 74, 0
2, 312040, Note_on_c, 1, 69, 127
2, 312200, Note_off_c, 1, 49, 0
2, 312200, Note_off_c, 1, 69, 0
2, 312240, Note_on_c, 1, 47, 127
2, 312240, Note_on_c, 1, 68, 127
2, 312400, Note_off_c, 1, 68, 0
2, 312440, Note_on_c, 1, 69, 127
2, 312600, Note_off_c, 1, 47, 0
2, 312600, Note_off_c, 1, 69, 0
2, 312640, Note_on_c, 1, 44, 127
2, 312640, Note_on_c, 1, 71, 127
2, 312800, Note_off_c, 1, 71, 0
2, 312840, Note_on_c, 1, 66, 127
2, 313000, Note_off_c, 1, 44, 0
2, 313000, Note_off_c, 1, 66, 0
2, 313040, Note_on_c, 1, 49, 127
2, 313040, Note_on_c, 1, 65, 127
2, 313200, Note_off_c, 1, 65, 0
2, 313240, Note_on_c, 1, 66, 127
2, 313400, Note_off_c, 1, 66, 0
2, 313440, Note_on_c, 1, 68, 127
2, 313600, Note_off_c, 1, 68, 0
2, 313640, Note_on_c, 1, 62, 127
2, 313760, Note_off_c, 1, 49, 0
2, 313760, Note_off_c, 1, 62, 0
2, 313840, Note_on_c, 1, 61, 127
2, 313960, Note_off_c, 1, 61, 0
2, 314000, Note_on_c, 1, 63, 127
2, 314160, Note_off_c, 1, 63, 0
2, 314200, Note_on_c, 1, 65, 127
2, 314400, Note_on_c, 1, 59, 127
2, 314560, Note_off_c, 1, 59, 0
2, 314560, Note_off_c, 1, 65, 0
2, 314600, Note_on_c, 1, 57, 127
2, 314600, Note_on_c, 1, 66, 127
2, 314760, Note_off_c, 1, 57, 0
2, 314800, Note_on_c, 1, 59, 127
2, 314960, Note_off_c, 1, 59, 0
2, 314960, Note_off_c, 1, 66, 0
2, 315000, Note_on_c, 1, 61, 127
2, 315000, Note_on_c, 1, 69, 127
2, 315160, Note_off_c, 1, 61, 0
2, 315160, Note_off_c, 1, 69, 0
2, 315200, Note_on_c, 1, 53, 127
2, 315200, Note_on_c, 1, 68, 127
2, 315360, Note_off_c, 1, 53, 0
2, 315360, Note_off_c, 1, 68, 0
2, 315400, Note_on_c, 1, 54, 127
2, 315400, Note_on_c, 1, 69, 127
2, 315560, Note_off_c, 1, 54, 0
2, 315600, Note_on_c, 1, 56, 127
2, 315720, Note_off_c, 1, 56, 0
2, 315720, Note_off_c, 1, 69, 0
2, 315760, Note_on_c, 1, 57, 127
2, 315760, Note_on_c, 1, 66, 127
2, 315920, Note_off_c, 1, 57, 0
2, 315960, Note_on_c, 1, 49, 127
2, 316120, Note_off_c, 1, 49, 0
2, 316120, Note_off_c, 1, 66, 0
2, 316160, Note_on_c, 1, 50, 127
2, 316160, Note_on_c, 1, 78, 127
2, 316240, Note_off_c, 1, 78, 0
2, 316280, Note_on_c, 1, 76, 127
2, 316320, Note_off_c, 1, 50, 0
2, 316320, Note_off_c, 1, 76, 0
2, 316360, Note_on_c, 1, 52, 127
2, 316360, Note_on_c, 1, 78, 127
2, 316520, Note_off_c, 1, 52, 0
2, 316560, Note_on_c, 1, 54, 127
2, 316720, Note_off_c, 1, 54, 0
2, 316720, Note_off_c, 1, 78, 0
2, 316760, Note_on_c, 1, 47, 127
2, 316760, Note_on_c, 1, 79, 127
2, 316920, Note_off_c, 1, 47, 0
2, 316920, Note_off_c, 1, 79, 0
2, 316960, Note_on_c, 1, 46, 127
2, 316960, Note_on_c, 1, 78, 127
2, 317120, Note_off_c, 1, 46, 0
2, 317120, Note_off_c, 1, 78, 0
2, 317160, Note_on_c, 1, 47, 127
2, 317160, Note_on_c, 1, 76, 127
2, 317320, Note_off_c, 1, 47, 0
2, 317320, Note_off_c, 1, 76, 0
2, 317360, Note_on_c, 1, 49, 127
2, 317360, Note_on_c, 1, 74, 127
2, 317480, Note_off_c, 1, 49, 0
2, 317480, Note_off_c, 1, 74, 0
2, 317560, Note_on_c, 1, 42, 127
2, 317560, Note_on_c, 1, 73, 127
2, 317680, Note_off_c, 1, 42, 0
2, 317680, Note_off_c, 1, 73, 0
2, 317720, Note_on_c, 1, 47, 127
2, 317720, Note_on_c, 1, 74, 127
2, 317920, Note_on_c, 1, 73, 127
2, 318080, Note_off_c, 1, 73, 0
2, 318120, Note_on_c, 1, 71, 127
2, 318280, Note_off_c, 1, 71, 0
2, 318320, Note_on_c, 1, 69, 127
2, 318480, Note_off_c, 1, 47, 0
2, 318480, Note_off_c, 1, 69, 0
2, 318520, Note_on_c, 1, 71, 127
2, 318720, Note_on_c, 1, 68, 127
2, 318880, Note_off_c, 1, 68, 0
2, 318880, Note_off_c, 1, 71, 0
2, 318880, Note_off_c, 1, 74, 0
2, 318920, Note_on_c, 1, 69, 127
2, 319000, Note_on_c, 1, 74, 127
2, 319040, Note_on_c, 1, 78, 127
2, 319080, Note_off_c, 1, 69, 0
2, 319120, Note_on_c, 1, 71, 127
2, 319280, Note_off_c, 1, 71, 0
2, 319280, Note_off_c, 1, 74, 0
2, 319280, Note_off_c, 1, 78, 0
2, 319320, Note_on_c, 1, 65, 127
2, 319320, Note_on_c, 1, 73, 127
2, 319320, Note_on_c, 1, 80, 127
2, 319440, Note_off_c, 1, 65, 0
2, 319440, Note_off_c, 1, 73, 0
2, 319480, Note_on_c, 1, 66, 127
2, 319480, Note_on_c, 1, 71, 127
2, 319640, Note_off_c, 1, 66, 0
2, 319640, Note_off_c, 1, 71, 0
2, 319680, Note_on_c, 1, 68, 127
2, 319680, Note_on_c, 1, 69, 127
2, 319840, Note_off_c, 1, 68, 0
2, 319840, Note_off_c, 1, 69, 0
2, 319880, Note_on_c, 1, 61, 127
2, 319880, Note_on_c, 1, 68, 127
2, 320040, Note_off_c, 1, 61, 0
2, 320040, Note_off_c, 1, 68, 0
2, 320080, Note_on_c, 1, 66, 127
2, 320080, Note_on_c, 1, 69, 127
2, 320240, Note_off_c, 1, 66, 0
2, 320280, Note_on_c, 1, 64, 127
2, 320440, Note_off_c, 1, 64, 0
2, 320440, Note_off_c, 1, 80, 0
2, 320480, Note_on_c, 1, 63, 127
2, 320480, Note_on_c, 1, 78, 127
2, 320640, Note_off_c, 1, 63, 0
2, 320640, Note_off_c, 1, 78, 0
2, 320680, Note_on_c, 1, 61, 127
2, 320680, Note_on_c, 1, 76, 127
2, 320840, Note_off_c, 1, 61, 0
2, 320840, Note_off_c, 1, 76, 0
2, 320880, Note_on_c, 1, 63, 127
2, 320880, Note_on_c, 1, 78, 127
2, 321040, Note_off_c, 1, 63, 0
2, 321080, Note_on_c, 1, 60, 127
2, 321200, Note_off_c, 1, 60, 0
2, 321200, Note_off_c, 1, 69, 0
2, 321280, Note_on_c, 1, 61, 127
2, 321280, Note_on_c, 1, 68, 127
2, 321400, Note_off_c, 1, 61, 0
2, 321400, Note_off_c, 1, 68, 0
2, 321440, Note_on_c, 1, 63, 127
2, 321440, Note_on_c, 1, 66, 127
2, 321600, Note_off_c, 1, 63, 0
2, 321600, Note_off_c, 1, 66, 0
2, 321640, Note_on_c, 1, 56, 127
2, 321640, Note_on_c, 1, 72, 127
2, 321800, Note_off_c, 1, 56, 0
2, 321800, Note_off_c, 1, 72, 0
2, 321840, Note_on_c, 1, 58, 127
2, 321840, Note_on_c, 1, 73, 127
2, 322000, Note_off_c, 1, 58, 0
2, 322000, Note_off_c, 1, 73, 0
2, 322040, Note_on_c, 1, 60, 127
2, 322040, Note_on_c, 1, 75, 127
2, 322200, Note_off_c, 1, 60, 0
2, 322200, Note_off_c, 1, 75, 0
2, 322240, Note_on_c, 1, 54, 127
2, 322240, Note_on_c, 1, 69, 127
2, 322400, Note_off_c, 1, 54, 0
2, 322400, Note_off_c, 1, 69, 0
2, 322440, Note_on_c, 1, 52, 127
2, 322440, Note_on_c, 1, 68, 127
2, 322640, Note_on_c, 1, 56, 127
2, 322800, Note_off_c, 1, 56, 0
2, 322840, Note_on_c, 1, 58, 127
2, 322880, Note_off_c, 1, 78, 0
2, 323000, Note_off_c, 1, 58, 0
2, 323040, Note_on_c, 1, 60, 127
2, 323040, Note_on_c, 1, 80, 127
2, 323160, Note_off_c, 1, 60, 0
2, 323160, Note_off_c, 1, 80, 0
2, 323200, Note_on_c, 1, 61, 127
2, 323200, Note_on_c, 1, 78, 127
2, 323360, Note_off_c, 1, 78, 0
2, 323400, Note_on_c, 1, 76, 127
2, 323440, Note_off_c, 1, 76, 0
2, 323480, Note_on_c, 1, 78, 127
2, 323520, Note_off_c, 1, 78, 0
2, 323560, Note_off_c, 1, 52, 0
2, 323560, Note_off_c, 1, 68, 0
2, 323560, Note_on_c, 1, 76, 127
2, 323600, Note_on_c, 1, 54, 127
2, 323600, Note_off_c, 1, 76, 0
2, 323640, Note_on_c, 1, 78, 127
2, 323680, Note_off_c, 1, 78, 0
2, 323720, Note_on_c, 1, 76, 127
2, 323760, Note_off_c, 1, 76, 0
2, 323800, Note_on_c, 1, 75, 127
2, 323960, Note_off_c, 1, 54, 0
2, 323960, Note_off_c, 1, 61, 0
2, 323960, Note_off_c, 1, 75, 0
2, 324000, Note_on_c, 1, 56, 127
2, 324000, Note_on_c, 1, 72, 127
2, 324000, Note_on_c, 1, 76, 127
2, 324120, Note_off_c, 1, 76, 0
2, 324160, Note_on_c, 1, 75, 127
2, 324240, Note_off_c, 1, 75, 0
2, 324240, Note_on_c, 1, 76, 127
2, 324320, Note_on_c, 1, 75, 127
2, 324320, Note_off_c, 1, 76, 0
2, 324400, Note_on_c, 1, 44, 127
2, 324400, Note_off_c, 1, 75, 0
2, 324400, Note_on_c, 1, 76, 127
2, 324480, Note_on_c, 1, 75, 127
2, 324480, Note_off_c, 1, 76, 0
2, 324560, Note_off_c, 1, 72, 0
2, 324560, Note_off_c, 1, 75, 0
2, 324600, Note_on_c, 1, 73, 127
2, 324760, Note_off_c, 1, 44, 0
2, 324760, Note_off_c, 1, 56, 0
2, 324760, Note_off_c, 1, 73, 0
2, 324800, Note_on_c, 1, 49, 127
2, 324800, Note_on_c, 1, 73, 127
2, 325200, Note_on_c, 1, 37, 127
2, 325560, Note_on_c, 1, 44, 127
2, 325920, Note_off_c, 1, 44, 0
2, 325920, Note_off_c, 1, 49, 0
2, 325920, Note_off_c, 1, 73, 0
2, 325960, Note_on_c, 1, 49, 127
2, 325960, Note_on_c, 1, 65, 127
2, 325960, Note_on_c, 1, 68, 127
2, 326920, Note_off_c, 1, 65, 0
2, 326920, Note_off_c, 1, 68, 0
2, 326960, Note_on_c, 1, 80, 127
2, 327120, Note_off_c, 1, 37, 0
2, 327120, Note_off_c, 1, 49, 0
2, 327120, Note_off_c, 1, 80, 0
2, 327160, Note_on_c, 1, 49, 127
2, 327160, Note_on_c, 1, 80, 127
2, 327360, Note_on_c, 1, 78, 127
2, 327480, Note_off_c, 1, 78, 0
2, 327520, Note_on_c, 1, 77, 127
2, 327680, Note_off_c, 1, 77, 0
2, 327720, Note_on_c, 1, 75, 127
2, 327880, Note_off_c, 1, 49, 0
2, 327880, Note_off_c, 1, 75, 0
2, 327880, Note_off_c, 1, 80, 0
2, 327920, Note_on_c, 1, 77, 127
2, 328120, Note_on_c, 1, 74, 127
2, 328280, Note_off_c, 1, 74, 0
2, 328280, Note_off_c, 1, 77, 0
2, 328320, Note_on_c, 1, 73, 127
2, 328320, Note_on_c, 1, 77, 127
2, 328480, Note_off_c, 1, 73, 0
2, 328520, Note_on_c, 1, 71, 127
2, 328680, Note_off_c, 1, 71, 0
2, 328680, Note_off_c, 1, 77, 0
2, 328720, Note_on_c, 1, 69, 127
2, 328800, Note_on_c, 1, 73, 127
2, 328880, Note_off_c, 1, 69, 0
2, 328880, Note_on_c, 1, 78, 127
2, 328920, Note_on_c, 1, 68, 127
2, 329080, Note_off_c, 1, 68, 0
2, 329120, Note_on_c, 1, 66, 127
2, 329240, Note_off_c, 1, 66, 0
2, 329280, Note_off_c, 1, 78, 0
2, 329320, Note_on_c, 1, 65, 127
2, 329320, Note_on_c, 1, 80, 127
2, 329440, Note_off_c, 1, 65, 0
2, 329440, Note_off_c, 1, 80, 0
2, 329480, Note_on_c, 1, 66, 127
2, 329480, Note_on_c, 1, 80, 127
2, 329640, Note_off_c, 1, 80, 0
2, 329680, Note_on_c, 1, 81, 127
2, 329840, Note_off_c, 1, 66, 0
2, 329880, Note_on_c, 1, 54, 127
2, 330040, Note_off_c, 1, 54, 0
2, 330040, Note_off_c, 1, 81, 0
2, 330080, Note_on_c, 1, 56, 127
2, 330080, Note_on_c, 1, 80, 127
2, 330240, Note_off_c, 1, 56, 0
2, 330240, Note_off_c, 1, 73, 0
2, 330240, Note_off_c, 1, 80, 0
2, 330280, Note_on_c, 1, 57, 127
2, 330280, Note_on_c, 1, 78, 127
2, 330440, Note_off_c, 1, 78, 0
2, 330480, Note_on_c, 1, 80, 127
2, 330640, Note_off_c, 1, 57, 0
2, 330640, Note_off_c, 1, 80, 0
2, 330680, Note_on_c, 1, 54, 127
2, 330680, Note_on_c, 1, 81, 127
2, 330840, Note_off_c, 1, 81, 0
2, 330880, Note_on_c, 1, 76, 127
2, 331040, Note_off_c, 1, 54, 0
2, 331040, Note_off_c, 1, 76, 0
2, 331080, Note_on_c, 1, 59, 127
2, 331080, Note_on_c, 1, 76, 127
2, 331200, Note_off_c, 1, 76, 0
2, 331280, Note_on_c, 1, 75, 127
2, 331400, Note_off_c, 1, 59, 0
2, 331400, Note_off_c, 1, 75, 0
2, 331440, Note_on_c, 1, 57, 127
2, 331440, Note_on_c, 1, 73, 127
2, 331600, Note_off_c, 1, 73, 0
2, 331640, Note_on_c, 1, 71, 127
2, 331800, Note_off_c, 1, 57, 0
2, 331800, Note_off_c, 1, 71, 0
2, 331840, Note_on_c, 1, 56, 127
2, 331840, Note_on_c, 1, 83, 127
2, 332000, Note_off_c, 1, 56, 0
2, 332040, Note_on_c, 1, 59, 127
2, 332200, Note_off_c, 1, 59, 0
2, 332240, Note_on_c, 1, 61, 127
2, 332400, Note_off_c, 1, 61, 0
2, 332400, Note_off_c, 1, 83, 0
2, 332440, Note_on_c, 1, 63, 127
2, 332440, Note_on_c, 1, 78, 127
2, 332600, Note_off_c, 1, 63, 0
2, 332600, Note_off_c, 1, 78, 0
2, 332640, Note_on_c, 1, 64, 127
2, 332640, Note_on_c, 1, 80, 127
2, 332800, Note_off_c, 1, 80, 0
2, 332840, Note_on_c, 1, 75, 127
2, 332960, Note_off_c, 1, 64, 0
2, 332960, Note_off_c, 1, 75, 0
2, 333040, Note_on_c, 1, 57, 127
2, 333040, Note_on_c, 1, 76, 127
2, 333160, Note_off_c, 1, 76, 0
2, 333200, Note_on_c, 1, 81, 127
2, 333360, Note_off_c, 1, 57, 0
2, 333360, Note_off_c, 1, 81, 0
2, 333400, Note_on_c, 1, 59, 127
2, 333400, Note_on_c, 1, 75, 127
2, 333400, Note_on_c, 1, 80, 127
2, 333560, Note_off_c, 1, 80, 0
2, 333600, Note_on_c, 1, 78, 127
2, 333640, Note_off_c, 1, 78, 0
2, 333680, Note_on_c, 1, 80, 127
2, 333720, Note_off_c, 1, 80, 0
2, 333760, Note_on_c, 1, 78, 127
2, 333800, Note_on_c, 1, 47, 127
2, 333800, Note_off_c, 1, 78, 0
2, 333840, Note_on_c, 1, 80, 127
2, 333880, Note_off_c, 1, 80, 0
2, 333920, Note_on_c, 1, 78, 127
2, 333960, Note_off_c, 1, 78, 0
2, 334000, Note_on_c, 1, 76, 127
2, 334040, Note_off_c, 1, 76, 0
2, 334080, Note_on_c, 1, 78, 127
2, 334160, Note_off_c, 1, 47, 0
2, 334160, Note_off_c, 1, 59, 0
2, 334160, Note_off_c, 1, 75, 0
2, 334160, Note_off_c, 1, 78, 0
2, 334200, Note_on_c, 1, 52, 127
2, 334200, Note_on_c, 1, 76, 127
2, 334360, Note_off_c, 1, 52, 0
2, 334400, Note_on_c, 1, 54, 127
2, 334560, Note_off_c, 1, 54, 0
2, 334600, Note_on_c, 1, 55, 127
2, 334760, Note_off_c, 1, 55, 0
2, 334800, Note_on_c, 1, 54, 127
2, 334920, Note_off_c, 1, 54, 0
2, 335000, Note_on_c, 1, 52, 127
2, 335120, Note_off_c, 1, 52, 0
2, 335120, Note_off_c, 1, 76, 0
2, 335160, Note_on_c, 1, 50, 127
2, 335160, Note_on_c, 1, 78, 127
2, 335320, Note_off_c, 1, 50, 0
2, 335320, Note_off_c, 1, 78, 0
2, 335360, Note_on_c, 1, 49, 127
2, 335360, Note_on_c, 1, 79, 127
2, 335520, Note_off_c, 1, 49, 0
2, 335520, Note_off_c, 1, 79, 0
2, 335560, Note_on_c, 1, 50, 127
2, 335560, Note_on_c, 1, 78, 127
2, 335720, Note_off_c, 1, 50, 0
2, 335720, Note_off_c, 1, 78, 0
2, 335760, Note_on_c, 1, 46, 127
2, 335760, Note_on_c, 1, 76, 127
2, 335920, Note_off_c, 1, 76, 0
2, 335960, Note_on_c, 1, 74, 127
2, 336120, Note_off_c, 1, 46, 0
2, 336120, Note_off_c, 1, 74, 0
2, 336160, Note_on_c, 1, 47, 127
2, 336160, Note_on_c, 1, 73, 127
2, 336320, Note_off_c, 1, 73, 0
2, 336360, Note_on_c, 1, 74, 127
2, 336520, Note_off_c, 1, 47, 0
2, 336520, Note_off_c, 1, 74, 0
2, 336560, Note_on_c, 1, 42, 127
2, 336560, Note_on_c, 1, 71, 127
2, 336720, Note_off_c, 1, 71, 0
2, 336760, Note_on_c, 1, 70, 127
2, 336880, Note_off_c, 1, 42, 0
2, 336880, Note_off_c, 1, 70, 0
2, 336920, Note_on_c, 1, 54, 127
2, 336920, Note_on_c, 1, 68, 127
2, 337080, Note_off_c, 1, 54, 0
2, 337080, Note_off_c, 1, 68, 0
2, 337120, Note_on_c, 1, 52, 127
2, 337120, Note_on_c, 1, 66, 127
2, 337280, Note_off_c, 1, 52, 0
2, 337280, Note_off_c, 1, 66, 0
2, 337320, Note_on_c, 1, 50, 127
2, 337320, Note_on_c, 1, 71, 127
2, 337480, Note_off_c, 1, 71, 0
2, 337520, Note_on_c, 1, 70, 127
2, 337680, Note_off_c, 1, 50, 0
2, 337680, Note_off_c, 1, 70, 0
2, 337720, Note_on_c, 1, 55, 127
2, 337720, Note_on_c, 1, 71, 127
2, 337880, Note_off_c, 1, 71, 0
2, 337920, Note_on_c, 1, 74, 127
2, 338080, Note_off_c, 1, 55, 0
2, 338080, Note_off_c, 1, 74, 0
2, 338120, Note_on_c, 1, 52, 127
2, 338120, Note_on_c, 1, 73, 127
2, 338280, Note_off_c, 1, 73, 0
2, 338320, Note_on_c, 1, 74, 127
2, 338480, Note_off_c, 1, 52, 0
2, 338480, Note_off_c, 1, 74, 0
2, 338520, Note_on_c, 1, 54, 127
2, 338520, Note_on_c, 1, 76, 127
2, 338640, Note_off_c, 1, 76, 0
2, 338680, Note_on_c, 1, 73, 127
2, 338840, Note_off_c, 1, 54, 0
2, 338840, Note_off_c, 1, 73, 0
2, 338880, Note_on_c, 1, 47, 127
2, 338880, Note_on_c, 1, 76, 127
2, 339040, Note_off_c, 1, 76, 0
2, 339080, Note_on_c, 1, 74, 127
2, 339240, Note_off_c, 1, 47, 0
2, 339240, Note_off_c, 1, 74, 0
2, 339280, Note_on_c, 1, 59, 127
2, 339280, Note_on_c, 1, 73, 127
2, 339440, Note_off_c, 1, 59, 0
2, 339440, Note_off_c, 1, 73, 0
2, 339480, Note_on_c, 1, 57, 127
2, 339480, Note_on_c, 1, 71, 127
2, 339640, Note_off_c, 1, 57, 0
2, 339640, Note_off_c, 1, 71, 0
2, 339680, Note_on_c, 1, 55, 127
2, 339680, Note_on_c, 1, 73, 127
2, 339840, Note_off_c, 1, 73, 0
2, 339880, Note_on_c, 1, 75, 127
2, 340040, Note_off_c, 1, 55, 0
2, 340040, Note_off_c, 1, 75, 0
2, 340080, Note_on_c, 1, 60, 127
2, 340080, Note_on_c, 1, 76, 127
2, 340240, Note_off_c, 1, 76, 0
2, 340280, Note_on_c, 1, 78, 127
2, 340440, Note_off_c, 1, 60, 0
2, 340440, Note_off_c, 1, 78, 0
2, 340480, Note_on_c, 1, 57, 127
2, 340480, Note_on_c, 1, 79, 127
2, 340600, Note_off_c, 1, 79, 0
2, 340640, Note_on_c, 1, 78, 127
2, 340680, Note_off_c, 1, 78, 0
2, 340720, Note_on_c, 1, 79, 127
2, 340760, Note_off_c, 1, 79, 0
2, 340800, Note_off_c, 1, 57, 0
2, 340800, Note_on_c, 1, 78, 127
2, 340840, Note_on_c, 1, 59, 127
2, 340880, Note_off_c, 1, 78, 0
2, 340880, Note_on_c, 1, 79, 127
2, 340960, Note_off_c, 1, 79, 0
2, 341000, Note_on_c, 1, 78, 127
2, 341040, Note_off_c, 1, 78, 0
2, 341080, Note_on_c, 1, 76, 127
2, 341120, Note_off_c, 1, 76, 0
2, 341160, Note_on_c, 1, 78, 127
2, 341200, Note_off_c, 1, 59, 0
2, 341200, Note_off_c, 1, 78, 0
2, 341240, Note_on_c, 1, 52, 127
2, 341240, Note_on_c, 1, 79, 127
2, 341400, Note_off_c, 1, 52, 0
2, 341440, Note_on_c, 1, 50, 127
2, 341600, Note_off_c, 1, 50, 0
2, 341640, Note_on_c, 1, 52, 127
2, 341800, Note_off_c, 1, 52, 0
2, 341800, Note_off_c, 1, 79, 0
2, 341840, Note_on_c, 1, 49, 127
2, 341840, Note_on_c, 1, 70, 127
2, 342000, Note_off_c, 1, 49, 0
2, 342000, Note_off_c, 1, 70, 0
2, 342040, Note_on_c, 1, 50, 127
2, 342040, Note_on_c, 1, 71, 127
2, 342080, Note_off_c, 1, 71, 0
2, 342120, Note_on_c, 1, 70, 127
2, 342200, Note_off_c, 1, 50, 0
2, 342200, Note_off_c, 1, 70, 0
2, 342240, Note_on_c, 1, 55, 127
2, 342240, Note_on_c, 1, 71, 127
2, 342360, Note_off_c, 1, 55, 0
2, 342400, Note_on_c, 1, 54, 127
2, 342560, Note_off_c, 1, 54, 0
2, 342560, Note_off_c, 1, 71, 0
2, 342600, Note_on_c, 1, 52, 127
2, 342600, Note_on_c, 1, 73, 127
2, 342760, Note_off_c, 1, 52, 0
2, 342760, Note_off_c, 1, 73, 0
2, 342800, Note_on_c, 1, 54, 127
2, 342800, Note_on_c, 1, 70, 127
2, 342800, Note_on_c, 1, 74, 127
2, 342920, Note_off_c, 1, 74, 0
2, 342960, Note_on_c, 1, 73, 127
2, 343000, Note_off_c, 1, 73, 0
2, 343040, Note_on_c, 1, 74, 127
2, 343120, Note_on_c, 1, 73, 127
2, 343120, Note_off_c, 1, 74, 0
2, 343160, Note_off_c, 1, 54, 0
2, 343200, Note_on_c, 1, 42, 127
2, 343200, Note_off_c, 1, 73, 0
2, 343240, Note_on_c, 1, 74, 127
2, 343280, Note_off_c, 1, 74, 0
2, 343320, Note_on_c, 1, 73, 127
2, 343360, Note_off_c, 1, 70, 0
2, 343360, Note_off_c, 1, 73, 0
2, 343400, Note_on_c, 1, 71, 127
2, 343560, Note_off_c, 1, 42, 0
2, 343560, Note_off_c, 1, 71, 0
2, 343600, Note_on_c, 1, 35, 127
2, 343600, Note_on_c, 1, 71, 127
2, 343960, Note_off_c, 1, 35, 0
2, 344000, Note_on_c, 1, 59, 127
2, 344160, Note_off_c, 1, 59, 0
2, 344200, Note_on_c, 1, 57, 127
2, 344320, Note_off_c, 1, 57, 0
2, 344360, Note_on_c, 1, 59, 127
2, 344520, Note_off_c, 1, 59, 0
2, 344520, Note_off_c, 1, 71, 0
2, 344560, Note_on_c, 1, 57, 127
2, 344560, Note_on_c, 1, 73, 127
2, 344720, Note_off_c, 1, 57, 0
2, 344720, Note_off_c, 1, 73, 0
2, 344760, Note_on_c, 1, 56, 127
2, 344760, Note_on_c, 1, 74, 127
2, 344920, Note_off_c, 1, 56, 0
2, 344920, Note_off_c, 1, 74, 0
2, 344960, Note_on_c, 1, 57, 127
2, 344960, Note_on_c, 1, 73, 127
2, 345120, Note_off_c, 1, 57, 0
2, 345120, Note_off_c, 1, 73, 0
2, 345160, Note_on_c, 1, 50, 127
2, 345160, Note_on_c, 1, 71, 127
2, 345320, Note_off_c, 1, 71, 0
2, 345360, Note_on_c, 1, 69, 127
2, 345520, Note_off_c, 1, 50, 0
2, 345520, Note_off_c, 1, 69, 0
2, 345560, Note_on_c, 1, 54, 127
2, 345560, Note_on_c, 1, 68, 127
2, 345720, Note_off_c, 1, 68, 0
2, 345760, Note_on_c, 1, 69, 127
2, 345920, Note_off_c, 1, 54, 0
2, 345920, Note_off_c, 1, 69, 0
2, 345960, Note_on_c, 1, 52, 127
2, 345960, Note_on_c, 1, 69, 127
2, 346080, Note_off_c, 1, 69, 0
2, 346160, Note_on_c, 1, 68, 127
2, 346280, Note_off_c, 1, 52, 0
2, 346280, Note_off_c, 1, 68, 0
2, 346320, Note_on_c, 1, 50, 127
2, 346320, Note_on_c, 1, 66, 127
2, 346480, Note_off_c, 1, 66, 0
2, 346520, Note_on_c, 1, 64, 127
2, 346680, Note_off_c, 1, 50, 0
2, 346680, Note_off_c, 1, 64, 0
2, 346720, Note_on_c, 1, 49, 127
2, 346720, Note_on_c, 1, 66, 127
2, 346880, Note_off_c, 1, 66, 0
2, 346920, Note_on_c, 1, 68, 127
2, 347080, Note_off_c, 1, 49, 0
2, 347080, Note_off_c, 1, 68, 0
2, 347120, Note_on_c, 1, 54, 127
2, 347120, Note_on_c, 1, 69, 127
2, 347280, Note_off_c, 1, 69, 0
2, 347320, Note_on_c, 1, 71, 127
2, 347480, Note_off_c, 1, 54, 0
2, 347480, Note_off_c, 1, 71, 0
2, 347520, Note_on_c, 1, 50, 127
2, 347520, Note_on_c, 1, 73, 127
2, 347640, Note_off_c, 1, 73, 0
2, 347680, Note_on_c, 1, 71, 127
2, 347720, Note_off_c, 1, 71, 0
2, 347760, Note_on_c, 1, 73, 127
2, 347840, Note_on_c, 1, 71, 127
2, 347840, Note_off_c, 1, 73, 0
2, 347880, Note_off_c, 1, 50, 0
2, 347920, Note_on_c, 1, 52, 127
2, 347920, Note_off_c, 1, 71, 0
2, 347960, Note_on_c, 1, 73, 127
2, 348000, Note_off_c, 1, 73, 0
2, 348040, Note_on_c, 1, 71, 127
2, 348080, Note_off_c, 1, 71, 0
2, 348120, Note_on_c, 1, 69, 127
2, 348160, Note_off_c, 1, 69, 0
2, 348200, Note_on_c, 1, 71, 127
2, 348240, Note_off_c, 1, 52, 0
2, 348280, Note_on_c, 1, 45, 127
2, 348280, Note_off_c, 1, 71, 0
2, 348280, Note_on_c, 1, 73, 127
2, 348480, Note_on_c, 1, 71, 127
2, 348640, Note_off_c, 1, 45, 0
2, 348640, Note_off_c, 1, 71, 0
2, 348680, Note_on_c, 1, 52, 127
2, 348680, Note_on_c, 1, 69, 127
2, 348840, Note_off_c, 1, 69, 0
2, 348880, Note_on_c, 1, 68, 127
2, 349040, Note_off_c, 1, 52, 0
2, 349040, Note_off_c, 1, 68, 0
2, 349080, Note_on_c, 1, 57, 127
2, 349080, Note_on_c, 1, 69, 127
2, 349240, Note_off_c, 1, 69, 0
2, 349280, Note_on_c, 1, 66, 127
2, 349440, Note_off_c, 1, 66, 0
2, 349480, Note_on_c, 1, 68, 127
2, 349640, Note_off_c, 1, 68, 0
2, 349680, Note_on_c, 1, 69, 127
2, 349800, Note_off_c, 1, 69, 0
2, 349800, Note_off_c, 1, 73, 0
2, 349880, Note_on_c, 1, 63, 127
2, 350000, Note_off_c, 1, 57, 0
2, 350040, Note_on_c, 1, 61, 127
2, 350040, Note_on_c, 1, 66, 127
2, 350200, Note_off_c, 1, 61, 0
2, 350200, Note_off_c, 1, 66, 0
2, 350240, Note_on_c, 1, 59, 127
2, 350240, Note_on_c, 1, 68, 127
2, 350400, Note_off_c, 1, 59, 0
2, 350400, Note_off_c, 1, 68, 0
2, 350440, Note_on_c, 1, 57, 127
2, 350440, Note_on_c, 1, 69, 127
2, 350600, Note_off_c, 1, 57, 0
2, 350600, Note_off_c, 1, 63, 0
2, 350600, Note_off_c, 1, 69, 0
2, 350640, Note_on_c, 1, 56, 127
2, 350640, Note_on_c, 1, 71, 127
2, 350840, Note_on_c, 1, 69, 127
2, 351000, Note_off_c, 1, 56, 0
2, 351000, Note_off_c, 1, 69, 0
2, 351040, Note_on_c, 1, 54, 127
2, 351040, Note_on_c, 1, 68, 127
2, 351200, Note_off_c, 1, 68, 0
2, 351240, Note_on_c, 1, 66, 127
2, 351400, Note_off_c, 1, 54, 0
2, 351400, Note_off_c, 1, 66, 0
2, 351440, Note_on_c, 1, 53, 127
2, 351440, Note_on_c, 1, 68, 127
2, 351600, Note_off_c, 1, 68, 0
2, 351640, Note_on_c, 1, 65, 127
2, 351760, Note_off_c, 1, 65, 0
2, 351840, Note_on_c, 1, 66, 127
2, 351960, Note_off_c, 1, 66, 0
2, 352000, Note_on_c, 1, 68, 127
2, 352160, Note_off_c, 1, 68, 0
2, 352200, Note_on_c, 1, 61, 127
2, 352360, Note_off_c, 1, 53, 0
2, 352360, Note_off_c, 1, 71, 0
2, 352400, Note_on_c, 1, 49, 127
2, 352400, Note_on_c, 1, 71, 127
2, 352560, Note_off_c, 1, 49, 0
2, 352560, Note_off_c, 1, 71, 0
2, 352600, Note_on_c, 1, 51, 127
2, 352600, Note_on_c, 1, 69, 127
2, 352760, Note_off_c, 1, 51, 0
2, 352760, Note_off_c, 1, 69, 0
2, 352800, Note_on_c, 1, 53, 127
2, 352800, Note_on_c, 1, 68, 127
2, 352960, Note_off_c, 1, 53, 0
2, 352960, Note_off_c, 1, 61, 0
2, 352960, Note_off_c, 1, 68, 0
2, 353000, Note_on_c, 1, 54, 127
2, 353000, Note_on_c, 1, 69, 127
2, 353200, Note_on_c, 1, 68, 127
2, 353360, Note_off_c, 1, 54, 0
2, 353360, Note_off_c, 1, 68, 0
2, 353400, Note_on_c, 1, 49, 127
2, 353400, Note_on_c, 1, 66, 127
2, 353560, Note_off_c, 1, 66, 0
2, 353600, Note_on_c, 1, 65, 127
2, 353720, Note_off_c, 1, 49, 0
2, 353720, Note_off_c, 1, 65, 0
2, 353800, Note_on_c, 1, 42, 127
2, 353800, Note_on_c, 1, 66, 127
2, 353920, Note_off_c, 1, 66, 0
2, 353960, Note_on_c, 1, 62, 127
2, 354120, Note_off_c, 1, 62, 0
2, 354160, Note_on_c, 1, 64, 127
2, 354320, Note_off_c, 1, 64, 0
2, 354320, Note_off_c, 1, 69, 0
2, 354360, Note_on_c, 1, 66, 127
2, 354360, Note_on_c, 1, 69, 127
2, 354520, Note_off_c, 1, 42, 0
2, 354520, Note_off_c, 1, 66, 0
2, 354520, Note_off_c, 1, 69, 0
2, 354560, Note_on_c, 1, 61, 127
2, 354560, Note_on_c, 1, 69, 127
2, 354720, Note_on_c, 1, 60, 127
2, 354720, Note_off_c, 1, 61, 0
2, 354720, Note_off_c, 1, 69, 0
2, 354760, Note_on_c, 1, 68, 127
2, 354800, Note_off_c, 1, 60, 0
2, 354840, Note_on_c, 1, 61, 127
2, 354880, Note_off_c, 1, 61, 0
2, 354920, Note_on_c, 1, 60, 127
2, 354920, Note_off_c, 1, 68, 0
2, 354960, Note_off_c, 1, 60, 0
2, 354960, Note_on_c, 1, 69, 127
2, 355000, Note_on_c, 1, 61, 127
2, 355040, Note_off_c, 1, 61, 0
2, 355080, Note_on_c, 1, 60, 127
2, 355120, Note_off_c, 1, 69, 0
2, 355160, Note_on_c, 1, 58, 127
2, 355160, Note_off_c, 1, 60, 0
2, 355160, Note_on_c, 1, 66, 127
2, 355240, Note_off_c, 1, 58, 0
2, 355280, Note_on_c, 1, 60, 127
2, 355320, Note_off_c, 1, 60, 0
2, 355320, Note_off_c, 1, 66, 0
2, 355360, Note_on_c, 1, 61, 127
2, 355360, Note_on_c, 1, 66, 127
2, 355560, Note_on_c, 1, 57, 127
2, 355560, Note_off_c, 1, 66, 0
2, 355600, Note_on_c, 1, 65, 127
2, 355640, Note_off_c, 1, 65, 0
2, 355680, Note_off_c, 1, 57, 0
2, 355680, Note_on_c, 1, 66, 127
2, 355720, Note_off_c, 1, 66, 0
2, 355760, Note_on_c, 1, 56, 127
2, 355760, Note_on_c, 1, 65, 127
2, 355840, Note_off_c, 1, 65, 0
2, 355840, Note_on_c, 1, 66, 127
2, 355880, Note_off_c, 1, 56, 0
2, 355920, Note_on_c, 1, 54, 127
2, 355920, Note_on_c, 1, 65, 127
2, 355920, Note_off_c, 1, 66, 0
2, 355960, Note_off_c, 1, 65, 0
2, 356000, Note_on_c, 1, 66, 127
2, 356040, Note_off_c, 1, 66, 0
2, 356080, Note_off_c, 1, 54, 0
2, 356080, Note_on_c, 1, 65, 127
2, 356120, Note_on_c, 1, 56, 127
2, 356120, Note_off_c, 1, 65, 0
2, 356160, Note_on_c, 1, 66, 127
2, 356200, Note_off_c, 1, 66, 0
2, 356240, Note_on_c, 1, 65, 127
2, 356280, Note_off_c, 1, 56, 0
2, 356280, Note_off_c, 1, 65, 0
2, 356320, Note_on_c, 1, 49, 127
2, 356320, Note_on_c, 1, 66, 127
2, 356360, Note_off_c, 1, 66, 0
2, 356400, Note_on_c, 1, 65, 127
2, 356480, Note_off_c, 1, 49, 0
2, 356480, Note_off_c, 1, 65, 0
2, 356520, Note_on_c, 1, 50, 127
2, 356520, Note_on_c, 1, 66, 127
2, 356680, Note_off_c, 1, 50, 0
2, 356680, Note_off_c, 1, 66, 0
2, 356720, Note_on_c, 1, 47, 127
2, 356720, Note_on_c, 1, 68, 127
2, 356880, Note_off_c, 1, 47, 0
2, 356880, Note_off_c, 1, 68, 0
2, 356920, Note_on_c, 1, 46, 127
2, 356920, Note_on_c, 1, 66, 127
2, 357080, Note_off_c, 1, 46, 0
2, 357080, Note_off_c, 1, 61, 0
2, 357080, Note_off_c, 1, 66, 0
2, 357120, Note_on_c, 1, 47, 127
2, 357120, Note_on_c, 1, 64, 127
2, 357280, Note_off_c, 1, 47, 0
2, 357280, Note_off_c, 1, 64, 0
2, 357320, Note_on_c, 1, 49, 127
2, 357320, Note_on_c, 1, 62, 127
2, 357480, Note_off_c, 1, 49, 0
2, 357480, Note_off_c, 1, 62, 0
2, 357520, Note_on_c, 1, 42, 127
2, 357520, Note_on_c, 1, 61, 127
2, 357640, Note_off_c, 1, 42, 0
2, 357640, Note_off_c, 1, 61, 0
2, 357680, Note_on_c, 1, 47, 127
2, 357680, Note_on_c, 1, 62, 127
2, 357840, Note_off_c, 1, 47, 0
2, 357880, Note_on_c, 1, 49, 127
2, 357880, Note_on_c, 1, 57, 127
2, 358040, Note_off_c, 1, 49, 0
2, 358040, Note_off_c, 1, 57, 0
2, 358080, Note_on_c, 1, 47, 127
2, 358080, Note_on_c, 1, 56, 127
2, 358240, Note_off_c, 1, 47, 0
2, 358240, Note_off_c, 1, 56, 0
2, 358280, Note_on_c, 1, 45, 127
2, 358280, Note_on_c, 1, 54, 127
2, 358440, Note_off_c, 1, 45, 0
2, 358440, Note_off_c, 1, 54, 0
2, 358440, Note_off_c, 1, 62, 0
2, 358480, Note_on_c, 1, 44, 127
2, 358480, Note_on_c, 1, 59, 127
2, 358640, Note_off_c, 1, 59, 0
2, 358680, Note_on_c, 1, 62, 127
2, 358840, Note_off_c, 1, 44, 0
2, 358840, Note_off_c, 1, 62, 0
2, 358880, Note_on_c, 1, 45, 127
2, 358880, Note_on_c, 1, 66, 127
2, 359040, Note_off_c, 1, 66, 0
2, 359080, Note_on_c, 1, 69, 127
2, 359240, Note_off_c, 1, 45, 0
2, 359240, Note_off_c, 1, 69, 0
2, 359280, Note_on_c, 1, 47, 127
2, 359280, Note_on_c, 1, 68, 127
2, 359440, Note_off_c, 1, 47, 0
2, 359440, Note_off_c, 1, 68, 0
2, 359480, Note_on_c, 1, 50, 127
2, 359480, Note_on_c, 1, 65, 127
2, 359600, Note_off_c, 1, 50, 0
2, 359600, Note_off_c, 1, 65, 0
2, 359640, Note_on_c, 1, 49, 127
2, 359640, Note_on_c, 1, 66, 127
2, 359800, Note_off_c, 1, 49, 0
2, 359800, Note_off_c, 1, 66, 0
2, 359840, Note_on_c, 1, 47, 127
2, 359840, Note_on_c, 1, 68, 127
2, 360000, Note_off_c, 1, 47, 0
2, 360000, Note_off_c, 1, 68, 0
2, 360040, Note_on_c, 1, 53, 127
2, 360040, Note_on_c, 1, 61, 127
2, 360240, Note_on_c, 1, 65, 127
2, 360400, Note_off_c, 1, 53, 0
2, 360400, Note_off_c, 1, 65, 0
2, 360440, Note_on_c, 1, 49, 127
2, 360440, Note_on_c, 1, 68, 127
2, 360600, Note_off_c, 1, 68, 0
2, 360640, Note_on_c, 1, 71, 127
2, 360800, Note_off_c, 1, 49, 0
2, 360800, Note_off_c, 1, 61, 0
2, 360800, Note_off_c, 1, 71, 0
2, 360840, Note_on_c, 1, 54, 127
2, 360840, Note_on_c, 1, 66, 127
2, 360840, Note_on_c, 1, 71, 127
2, 360960, Note_off_c, 1, 71, 0
2, 361000, Note_on_c, 1, 69, 127
2, 361080, Note_off_c, 1, 69, 0
2, 361080, Note_on_c, 1, 71, 127
2, 361160, Note_on_c, 1, 69, 127
2, 361160, Note_off_c, 1, 71, 0
2, 361200, Note_off_c, 1, 54, 0
2, 361240, Note_on_c, 1, 47, 127
2, 361240, Note_off_c, 1, 69, 0
2, 361240, Note_on_c, 1, 71, 127
2, 361320, Note_on_c, 1, 69, 127
2, 361320, Note_off_c, 1, 71, 0
2, 361400, Note_off_c, 1, 66, 0
2, 361400, Note_off_c, 1, 69, 0
2, 361440, Note_on_c, 1, 68, 127
2, 361560, Note_off_c, 1, 47, 0
2, 361560, Note_off_c, 1, 68, 0
2, 361640, Note_on_c, 1, 49, 127
2, 361640, Note_on_c, 1, 65, 127
2, 361640, Note_on_c, 1, 69, 127
2, 361680, Note_off_c, 1, 69, 0
2, 361720, Note_on_c, 1, 68, 127
2, 361800, Note_off_c, 1, 68, 0
2, 361840, Note_on_c, 1, 69, 127
2, 361880, Note_off_c, 1, 69, 0
2, 361920, Note_on_c, 1, 68, 127
2, 362000, Note_off_c, 1, 68, 0
2, 362040, Note_on_c, 1, 37, 127
2, 362040, Note_on_c, 1, 69, 127
2, 362080, Note_off_c, 1, 69, 0
2, 362120, Note_on_c, 1, 68, 127
2, 362200, Note_off_c, 1, 65, 0
2, 362200, Note_off_c, 1, 68, 0
2, 362240, Note_on_c, 1, 66, 127
2, 362400, Note_off_c, 1, 37, 0
2, 362400, Note_off_c, 1, 49, 0
2, 362400, Note_off_c, 1, 66, 0
2, 362440, Note_on_c, 1, 42, 127
2, 362440, Note_on_c, 1, 66, 127
2, 362880, Note_on_c, 1, 45, 127
2, 363240, Note_off_c, 1, 45, 0
2, 363280, Note_on_c, 1, 49, 127
2, 363680, Note_off_c, 1, 49, 0
2, 363720, Note_on_c, 1, 54, 127
2, 363720, Note_on_c, 1, 57, 127
2, 363720, Note_on_c, 1, 61, 127
2, 365960, Note_off_c, 1, 54, 0
2, 365960, Note_off_c, 1, 57, 0
2, 365960, Note_off_c, 1, 61, 0
2, 366000, Note_off_c, 1, 42, 0
2, 366000, Note_off_c, 1, 66, 0
2, 367960, Note_on_c, 1, 42, 127
2, 367960, Note_on_c, 1, 49, 127
2, 367960, Note_on_c, 1, 54, 127
2, 367960, Note_on_c, 1, 61, 127
2, 367960, Note_on_c, 1, 66, 127
2, 367960, Note_on_c, 1, 69, 127
2, 368360, Note_off_c, 1, 61, 0
2, 368360, Note_off_c, 1, 66, 0
2, 368360, Note_off_c, 1, 69, 0
2, 368400, Note_on_c, 1, 59, 127
2, 368400, Note_on_c, 1, 68, 127
2, 368800, Note_off_c, 1, 49, 0
2, 368800, Note_off_c, 1, 54, 0
2, 368800, Note_off_c, 1, 59, 0
2, 368800, Note_off_c, 1, 68, 0
2, 368840, Note_on_c, 1, 50, 127
2, 368840, Note_on_c, 1, 59, 127
2, 368840, Note_on_c, 1, 68, 127
2, 370080, Note_off_c, 1, 68, 0
2, 370120, Note_on_c, 1, 71, 127
2, 370280, Note_off_c, 1, 71, 0
2, 370320, Note_on_c, 1, 69, 127
2, 370480, Note_off_c, 1, 69, 0
2, 370520, Note_on_c, 1, 71, 127
2, 370920, Note_off_c, 1, 71, 0
2, 370960, Note_on_c, 1, 68, 127
2, 371360, Note_off_c, 1, 59, 0
2, 371360, Note_off_c, 1, 68, 0
2, 371400, Note_on_c, 1, 56, 127
2, 371400, Note_on_c, 1, 59, 127
2, 371400, Note_on_c, 1, 65, 127
2, 372640, Note_off_c, 1, 65, 0
2, 372680, Note_on_c, 1, 68, 127
2, 372840, Note_off_c, 1, 68, 0
2, 372880, Note_on_c, 1, 66, 127
2, 373080, Note_off_c, 1, 66, 0
2, 373120, Note_on_c, 1, 68, 127
2, 373480, Note_off_c, 1, 68, 0
2, 373520, Note_on_c, 1, 62, 127
2, 373920, Note_off_c, 1, 50, 0
2, 373920, Note_off_c, 1, 56, 0
2, 373920, Note_off_c, 1, 59, 0
2, 373920, Note_off_c, 1, 62, 0
2, 373960, Note_on_c, 1, 47, 127
2, 373960, Note_on_c, 1, 53, 127
2, 373960, Note_on_c, 1, 56, 127
2, 373960, Note_on_c, 1, 62, 127
2, 374760, Note_off_c, 1, 62, 0
2, 374840, Note_on_c, 1, 62, 127
2, 374920, Note_off_c, 1, 62, 0
2, 374960, Note_on_c, 1, 61, 127
2, 375080, Note_off_c, 1, 61, 0
2, 375120, Note_on_c, 1, 62, 127
2, 375200, Note_off_c, 1, 62, 0
2, 375240, Note_on_c, 1, 61, 127
2, 375440, Note_off_c, 1, 61, 0
2, 375480, Note_on_c, 1, 59, 127
2, 375640, Note_off_c, 1, 47, 0
2, 375640, Note_off_c, 1, 53, 0
2, 375640, Note_off_c, 1, 56, 0
2, 375640, Note_off_c, 1, 59, 0
2, 375680, Note_on_c, 1, 49, 127
2, 375680, Note_on_c, 1, 54, 127
2, 375680, Note_on_c, 1, 57, 127
2, 376440, Note_off_c, 1, 42, 0
2, 376520, Note_on_c, 1, 42, 127
2, 376920, Note_off_c, 1, 57, 0
2, 376960, Note_on_c, 1, 56, 127
2, 377360, Note_off_c, 1, 54, 0
2, 377360, Note_off_c, 1, 56, 0
2, 377400, Note_on_c, 1, 54, 127
2, 378200, Note_off_c, 1, 54, 0
2, 378240, Note_on_c, 1, 57, 127
2, 378240, Note_on_c, 1, 61, 127
2, 378640, Note_off_c, 1, 61, 0
2, 378680, Note_on_c, 1, 64, 127
2, 378840, Note_off_c, 1, 64, 0
2, 378880, Note_on_c, 1, 63, 127
2, 379040, Note_off_c, 1, 57, 0
2, 379080, Note_off_c, 1, 49, 0
2, 379080, Note_off_c, 1, 63, 0
2, 379120, Note_on_c, 1, 49, 127
2, 379120, Note_on_c, 1, 54, 127
2, 379120, Note_on_c, 1, 58, 127
2, 379120, Note_on_c, 1, 64, 127
2, 380360, Note_off_c, 1, 64, 0
2, 380400, Note_on_c, 1, 61, 127
2, 380760, Note_off_c, 1, 49, 0
2, 380760, Note_off_c, 1, 58, 0
2, 380760, Note_off_c, 1, 61, 0
2, 380800, Note_on_c, 1, 47, 127
2, 380800, Note_on_c, 1, 59, 127
2, 380800, Note_on_c, 1, 63, 127
2, 381200, Note_off_c, 1, 47, 0
2, 381200, Note_off_c, 1, 63, 0
2, 381240, Note_on_c, 1, 49, 127
2, 381240, Note_on_c, 1, 66, 127
2, 381400, Note_off_c, 1, 66, 0
2, 381480, Note_on_c, 1, 65, 127
2, 381640, Note_off_c, 1, 49, 0
2, 381640, Note_off_c, 1, 54, 0
2, 381640, Note_off_c, 1, 59, 0
2, 381640, Note_off_c, 1, 65, 0
2, 381680, Note_on_c, 1, 50, 127
2, 381680, Note_on_c, 1, 56, 127
2, 381680, Note_on_c, 1, 59, 127
2, 381680, Note_on_c, 1, 66, 127
2, 382920, Note_off_c, 1, 66, 0
2, 382960, Note_on_c, 1, 68, 127
2, 383360, Note_off_c, 1, 68, 0
2, 383400, Note_on_c, 1, 65, 127
2, 383560, Note_off_c, 1, 65, 0
2, 383600, Note_on_c, 1, 66, 127
2, 383760, Note_off_c, 1, 66, 0
2, 383840, Note_on_c, 1, 65, 127
2, 384000, Note_off_c, 1, 65, 0
2, 384040, Note_on_c, 1, 66, 127
2, 384200, Note_off_c, 1, 50, 0
2, 384200, Note_off_c, 1, 56, 0
2, 384200, Note_off_c, 1, 59, 0
2, 384200, Note_off_c, 1, 66, 0
2, 384240, Note_on_c, 1, 51, 127
2, 384240, Note_on_c, 1, 57, 127
2, 384240, Note_on_c, 1, 60, 127
2, 384240, Note_on_c, 1, 68, 127
2, 384400, Note_off_c, 1, 68, 0
2, 384480, Note_on_c, 1, 66, 127
2, 384640, Note_off_c, 1, 66, 0
2, 384680, Note_on_c, 1, 68, 127
2, 384840, Note_off_c, 1, 68, 0
2, 384880, Note_on_c, 1, 66, 127
2, 385040, Note_off_c, 1, 66, 0
2, 385120, Note_on_c, 1, 68, 127
2, 385280, Note_off_c, 1, 68, 0
2, 385320, Note_on_c, 1, 66, 127
2, 385480, Note_off_c, 1, 66, 0
2, 385520, Note_on_c, 1, 65, 127
2, 385720, Note_off_c, 1, 65, 0
2, 385760, Note_on_c, 1, 66, 127
2, 385920, Note_off_c, 1, 42, 0
2, 385920, Note_off_c, 1, 51, 0
2, 385920, Note_off_c, 1, 57, 0
2, 385920, Note_off_c, 1, 60, 0
2, 385920, Note_off_c, 1, 66, 0
2, 385960, Note_on_c, 1, 49, 127
2, 385960, Note_on_c, 1, 68, 127
2, 386400, Note_on_c, 1, 51, 127
2, 386400, Note_on_c, 1, 60, 127
2, 386760, Note_off_c, 1, 49, 0
2, 386760, Note_off_c, 1, 51, 0
2, 386760, Note_off_c, 1, 60, 0
2, 386760, Note_off_c, 1, 68, 0
2, 386800, Note_on_c, 1, 49, 127
2, 386800, Note_on_c, 1, 53, 127
2, 386800, Note_on_c, 1, 56, 127
2, 386800, Note_on_c, 1, 61, 127
2, 386800, Note_on_c, 1, 68, 127
2, 388480, Note_off_c, 1, 49, 0
2, 388480, Note_off_c, 1, 53, 0
2, 388480, Note_off_c, 1, 56, 0
2, 388480, Note_off_c, 1, 61, 0
2, 388480, Note_off_c, 1, 68, 0
2, 388560, Note_on_c, 1, 49, 127
2, 388560, Note_on_c, 1, 52, 127
2, 388560, Note_on_c, 1, 57, 127
2, 388560, Note_on_c, 1, 64, 127
2, 388560, Note_on_c, 1, 69, 127
2, 388920, Note_off_c, 1, 69, 0
2, 388960, Note_on_c, 1, 73, 127
2, 389360, Note_off_c, 1, 64, 0
2, 389360, Note_off_c, 1, 73, 0
2, 389400, Note_on_c, 1, 64, 127
2, 389400, Note_on_c, 1, 69, 127
2, 389400, Note_on_c, 1, 73, 127
2, 389400, Note_on_c, 1, 76, 127
2, 390640, Note_off_c, 1, 69, 0
2, 390640, Note_off_c, 1, 73, 0
2, 390640, Note_off_c, 1, 76, 0
2, 390680, Note_on_c, 1, 69, 127
2, 391080, Note_off_c, 1, 69, 0
2, 391120, Note_on_c, 1, 67, 127
2, 391280, Note_off_c, 1, 64, 0
2, 391280, Note_off_c, 1, 67, 0
2, 391320, Note_on_c, 1, 64, 127
2, 391560, Note_on_c, 1, 66, 127
2, 391720, Note_off_c, 1, 64, 0
2, 391920, Note_off_c, 1, 49, 0
2, 391920, Note_off_c, 1, 52, 0
2, 391920, Note_off_c, 1, 57, 0
2, 391920, Note_off_c, 1, 66, 0
2, 391960, Note_on_c, 1, 46, 127
2, 391960, Note_on_c, 1, 54, 127
2, 391960, Note_on_c, 1, 61, 127
2, 391960, Note_on_c, 1, 64, 127
2, 391960, Note_on_c, 1, 66, 127
2, 393640, Note_off_c, 1, 61, 0
2, 393640, Note_off_c, 1, 64, 0
2, 393640, Note_off_c, 1, 66, 0
2, 393680, Note_on_c, 1, 73, 127
2, 394120, Note_on_c, 1, 76, 127
2, 394520, Note_off_c, 1, 54, 0
2, 394520, Note_off_c, 1, 76, 0
2, 394560, Note_on_c, 1, 52, 127
2, 394560, Note_on_c, 1, 79, 127
2, 395360, Note_off_c, 1, 52, 0
2, 395360, Note_off_c, 1, 79, 0
2, 395400, Note_on_c, 1, 50, 127
2, 395400, Note_on_c, 1, 79, 127
2, 395560, Note_off_c, 1, 79, 0
2, 395600, Note_on_c, 1, 78, 127
2, 395800, Note_off_c, 1, 50, 0
2, 395800, Note_off_c, 1, 78, 0
2, 395840, Note_on_c, 1, 49, 127
2, 395840, Note_on_c, 1, 76, 127
2, 396000, Note_off_c, 1, 76, 0
2, 396040, Note_on_c, 1, 79, 127
2, 396120, Note_off_c, 1, 79, 0
2, 396160, Note_on_c, 1, 78, 127
2, 396200, Note_off_c, 1, 49, 0
2, 396200, Note_off_c, 1, 73, 0
2, 396200, Note_off_c, 1, 78, 0
2, 396240, Note_off_c, 1, 46, 0
2, 396280, Note_on_c, 1, 47, 127
2, 396280, Note_on_c, 1, 66, 127
2, 396280, Note_on_c, 1, 74, 127
2, 397120, Note_on_c, 1, 54, 127
2, 397520, Note_off_c, 1, 66, 0
2, 397520, Note_off_c, 1, 74, 0
2, 397560, Note_on_c, 1, 64, 127
2, 397560, Note_on_c, 1, 73, 127
2, 397920, Note_off_c, 1, 54, 0
2, 397920, Note_off_c, 1, 64, 0
2, 397920, Note_off_c, 1, 73, 0
2, 397960, Note_on_c, 1, 59, 127
2, 397960, Note_on_c, 1, 62, 127
2, 397960, Note_on_c, 1, 71, 127
2, 398800, Note_off_c, 1, 47, 0
2, 398800, Note_off_c, 1, 59, 0
2, 398800, Note_off_c, 1, 62, 0
2, 398800, Note_off_c, 1, 71, 0
2, 398840, Note_on_c, 1, 41, 127
2, 398840, Note_on_c, 1, 68, 127
2, 398840, Note_on_c, 1, 71, 127
2, 398840, Note_on_c, 1, 74, 127
2, 399200, Note_off_c, 1, 41, 0
2, 399280, Note_on_c, 1, 44, 127
2, 399640, Note_off_c, 1, 44, 0
2, 399640, Note_off_c, 1, 68, 0
2, 399640, Note_off_c, 1, 71, 0
2, 399680, Note_on_c, 1, 47, 127
2, 399680, Note_on_c, 1, 65, 127
2, 399680, Note_on_c, 1, 68, 127
2, 400080, Note_off_c, 1, 47, 0
2, 400120, Note_on_c, 1, 44, 127
2, 400520, Note_off_c, 1, 44, 0
2, 400560, Note_on_c, 1, 44, 127
2, 400720, Note_off_c, 1, 44, 0
2, 400760, Note_on_c, 1, 42, 127
2, 400920, Note_off_c, 1, 42, 0
2, 400960, Note_on_c, 1, 41, 127
2, 401360, Note_off_c, 1, 41, 0
2, 401360, Note_off_c, 1, 65, 0
2, 401360, Note_off_c, 1, 68, 0
2, 401400, Note_on_c, 1, 42, 127
2, 401400, Note_on_c, 1, 69, 127
2, 401400, Note_on_c, 1, 73, 127
2, 401800, Note_off_c, 1, 42, 0
2, 401840, Note_on_c, 1, 45, 127
2, 402200, Note_off_c, 1, 45, 0
2, 402200, Note_off_c, 1, 69, 0
2, 402200, Note_off_c, 1, 73, 0
2, 402280, Note_on_c, 1, 48, 127
2, 402280, Note_on_c, 1, 66, 127
2, 402280, Note_on_c, 1, 69, 127
2, 402640, Note_off_c, 1, 48, 0
2, 402680, Note_on_c, 1, 45, 127
2, 403080, Note_off_c, 1, 45, 0
2, 403120, Note_on_c, 1, 45, 127
2, 403280, Note_off_c, 1, 45, 0
2, 403320, Note_on_c, 1, 43, 127
2, 403520, Note_off_c, 1, 43, 0
2, 403560, Note_on_c, 1, 42, 127
2, 403920, Note_off_c, 1, 42, 0
2, 403920, Note_off_c, 1, 66, 0
2, 403920, Note_off_c, 1, 69, 0
2, 403960, Note_on_c, 1, 43, 127
2, 403960, Note_on_c, 1, 64, 127
2, 403960, Note_on_c, 1, 70, 127
2, 404360, Note_off_c, 1, 43, 0
2, 404400, Note_on_c, 1, 46, 127
2, 404800, Note_off_c, 1, 46, 0
2, 404800, Note_off_c, 1, 64, 0
2, 404800, Note_off_c, 1, 70, 0
2, 404840, Note_on_c, 1, 49, 127
2, 404840, Note_on_c, 1, 64, 127
2, 404840, Note_on_c, 1, 67, 127
2, 405200, Note_off_c, 1, 49, 0
2, 405280, Note_on_c, 1, 46, 127
2, 405640, Note_off_c, 1, 46, 0
2, 405640, Note_off_c, 1, 67, 0
2, 405680, Note_on_c, 1, 46, 127
2, 405680, Note_on_c, 1, 70, 127
2, 405840, Note_off_c, 1, 46, 0
2, 405920, Note_on_c, 1, 45, 127
2, 406080, Note_off_c, 1, 45, 0
2, 406120, Note_on_c, 1, 43, 127
2, 406520, Note_off_c, 1, 43, 0
2, 406520, Note_off_c, 1, 70, 0
2, 406560, Note_on_c, 1, 50, 127
2, 406560, Note_on_c, 1, 70, 127
2, 406920, Note_off_c, 1, 70, 0
2, 406960, Note_on_c, 1, 67, 127
2, 407360, Note_off_c, 1, 50, 0
2, 407360, Note_off_c, 1, 64, 0
2, 407360, Note_off_c, 1, 67, 0
2, 407360, Note_off_c, 1, 74, 0
2, 407400, Note_on_c, 1, 38, 127
2, 407400, Note_on_c, 1, 66, 127
2, 407400, Note_on_c, 1, 69, 127
2, 407400, Note_on_c, 1, 74, 127
2, 409120, Note_off_c, 1, 38, 0
2, 409120, Note_off_c, 1, 66, 0
2, 409120, Note_off_c, 1, 69, 0
2, 409120, Note_off_c, 1, 74, 0
2, 409160, Note_on_c, 1, 39, 127
2, 409160, Note_on_c, 1, 72, 127
2, 409520, Note_off_c, 1, 72, 0
2, 409600, Note_on_c, 1, 69, 127
2, 409960, Note_off_c, 1, 69, 0
2, 410000, Note_on_c, 1, 51, 127
2, 410000, Note_on_c, 1, 60, 127
2, 410000, Note_on_c, 1, 66, 127
2, 410000, Note_on_c, 1, 69, 127
2, 411240, Note_off_c, 1, 66, 0
2, 411240, Note_off_c, 1, 69, 0
2, 411280, Note_on_c, 1, 69, 127
2, 411480, Note_off_c, 1, 69, 0
2, 411520, Note_on_c, 1, 67, 127
2, 411680, Note_off_c, 1, 51, 0
2, 411680, Note_off_c, 1, 60, 0
2, 411680, Note_off_c, 1, 67, 0
2, 411720, Note_on_c, 1, 69, 127
2, 412120, Note_off_c, 1, 69, 0
2, 412160, Note_on_c, 1, 66, 127
2, 412520, Note_off_c, 1, 66, 0
2, 412560, Note_on_c, 1, 51, 127
2, 412560, Note_on_c, 1, 60, 127
2, 412560, Note_on_c, 1, 63, 127
2, 412560, Note_on_c, 1, 66, 127
2, 413800, Note_off_c, 1, 63, 0
2, 413800, Note_off_c, 1, 66, 0
2, 413880, Note_on_c, 1, 66, 127
2, 414040, Note_off_c, 1, 66, 0
2, 414080, Note_on_c, 1, 64, 127
2, 414240, Note_off_c, 1, 51, 0
2, 414240, Note_off_c, 1, 60, 0
2, 414240, Note_off_c, 1, 64, 0
2, 414280, Note_on_c, 1, 66, 127
2, 414680, Note_off_c, 1, 66, 0
2, 414720, Note_on_c, 1, 63, 127
2, 415120, Note_off_c, 1, 63, 0
2, 415160, Note_on_c, 1, 51, 127
2, 415160, Note_on_c, 1, 54, 127
2, 415160, Note_on_c, 1, 60, 127
2, 415160, Note_on_c, 1, 63, 127
2, 416400, Note_off_c, 1, 60, 0
2, 416400, Note_off_c, 1, 63, 0
2, 416440, Note_on_c, 1, 69, 127
2, 416600, Note_off_c, 1, 69, 0
2, 416640, Note_on_c, 1, 68, 127
2, 416800, Note_off_c, 1, 39, 0
2, 416800, Note_off_c, 1, 51, 0
2, 416800, Note_off_c, 1, 54, 0
2, 416800, Note_off_c, 1, 68, 0
2, 416840, Note_on_c, 1, 41, 127
2, 416840, Note_on_c, 1, 68, 127
2, 417040, Note_off_c, 1, 68, 0
2, 417080, Note_on_c, 1, 71, 127
2, 417120, Note_off_c, 1, 71, 0
2, 417160, Note_on_c, 1, 69, 127
2, 417240, Note_off_c, 1, 69, 0
2, 417280, Note_on_c, 1, 68, 127
2, 417360, Note_off_c, 1, 68, 0
2, 417400, Note_on_c, 1, 69, 127
2, 417440, Note_off_c, 1, 69, 0
2, 417520, Note_on_c, 1, 71, 127
2, 417680, Note_off_c, 1, 41, 0
2, 417720, Note_on_c, 1, 56, 127
2, 417720, Note_on_c, 1, 61, 127
2, 418320, Note_off_c, 1, 71, 0
2, 418360, Note_on_c, 1, 63, 127
2, 418440, Note_off_c, 1, 63, 0
2, 418480, Note_on_c, 1, 65, 127
2, 418520, Note_off_c, 1, 65, 0
2, 418560, Note_on_c, 1, 66, 127
2, 418640, Note_off_c, 1, 66, 0
2, 418680, Note_on_c, 1, 65, 127
2, 418760, Note_off_c, 1, 65, 0
2, 418800, Note_on_c, 1, 66, 127
2, 418840, Note_off_c, 1, 66, 0
2, 418920, Note_on_c, 1, 65, 127
2, 418960, Note_off_c, 1, 65, 0
2, 419000, Note_on_c, 1, 66, 127
2, 419080, Note_off_c, 1, 66, 0
2, 419120, Note_on_c, 1, 65, 127
2, 419160, Note_off_c, 1, 65, 0
2, 419240, Note_off_c, 1, 61, 0
2, 419240, Note_on_c, 1, 63, 127
2, 419320, Note_off_c, 1, 63, 0
2, 419320, Note_on_c, 1, 65, 127
2, 419400, Note_off_c, 1, 56, 0
2, 419400, Note_off_c, 1, 65, 0
2, 419440, Note_on_c, 1, 40, 127
2, 419440, Note_on_c, 1, 58, 127
2, 419440, Note_on_c, 1, 61, 127
2, 419440, Note_on_c, 1, 66, 127
2, 419840, Note_off_c, 1, 40, 0
2, 419880, Note_on_c, 1, 46, 127
2, 420240, Note_off_c, 1, 46, 0
2, 420240, Note_off_c, 1, 58, 0
2, 420240, Note_off_c, 1, 61, 0
2, 420280, Note_on_c, 1, 49, 127
2, 420280, Note_on_c, 1, 58, 127
2, 420280, Note_on_c, 1, 64, 127
2, 420680, Note_off_c, 1, 49, 0
2, 420720, Note_on_c, 1, 52, 127
2, 421120, Note_off_c, 1, 52, 0
2, 421160, Note_on_c, 1, 55, 127
2, 421520, Note_off_c, 1, 55, 0
2, 421600, Note_on_c, 1, 49, 127
2, 421960, Note_off_c, 1, 49, 0
2, 421960, Note_off_c, 1, 58, 0
2, 421960, Note_off_c, 1, 64, 0
2, 422000, Note_on_c, 1, 50, 127
2, 422000, Note_on_c, 1, 59, 127
2, 422000, Note_on_c, 1, 62, 127
2, 422400, Note_off_c, 1, 50, 0
2, 422440, Note_on_c, 1, 46, 127
2, 422840, Note_off_c, 1, 46, 0
2, 422840, Note_off_c, 1, 59, 0
2, 422840, Note_off_c, 1, 62, 0
2, 422880, Note_on_c, 1, 47, 127
2, 422880, Note_on_c, 1, 59, 127
2, 422880, Note_on_c, 1, 62, 127
2, 423240, Note_off_c, 1, 47, 0
2, 423280, Note_on_c, 1, 43, 127
2, 423680, Note_off_c, 1, 43, 0
2, 423720, Note_on_c, 1, 41, 127
2, 424120, Note_off_c, 1, 41, 0
2, 424160, Note_on_c, 1, 42, 127
2, 424520, Note_off_c, 1, 42, 0
2, 424520, Note_off_c, 1, 59, 0
2, 424520, Note_off_c, 1, 62, 0
2, 424600, Note_on_c, 1, 36, 127
2, 424600, Note_on_c, 1, 57, 127
2, 424600, Note_on_c, 1, 63, 127
2, 424800, Note_off_c, 1, 66, 0
2, 424840, Note_off_c, 1, 63, 0
2, 424840, Note_on_c, 1, 68, 127
2, 425000, Note_off_c, 1, 57, 0
2, 425040, Note_off_c, 1, 68, 0
2, 425080, Note_on_c, 1, 69, 127
2, 425240, Note_off_c, 1, 69, 0
2, 425320, Note_on_c, 1, 66, 127
2, 425440, Note_off_c, 1, 36, 0
2, 425480, Note_off_c, 1, 66, 0
2, 425520, Note_on_c, 1, 37, 127
2, 425520, Note_on_c, 1, 65, 127
2, 425680, Note_off_c, 1, 65, 0
2, 425760, Note_on_c, 1, 66, 127
2, 425960, Note_on_c, 1, 60, 127
2, 425960, Note_off_c, 1, 66, 0
2, 426200, Note_on_c, 1, 69, 127
2, 426360, Note_off_c, 1, 60, 0
2, 426360, Note_off_c, 1, 69, 0
2, 426400, Note_on_c, 1, 59, 127
2, 426400, Note_on_c, 1, 61, 127
2, 426400, Note_on_c, 1, 68, 127
2, 426600, Note_off_c, 1, 68, 0
2, 426640, Note_on_c, 1, 66, 127
2, 426800, Note_off_c, 1, 66, 0
2, 426840, Note_on_c, 1, 68, 127
2, 427040, Note_off_c, 1, 68, 0
2, 427080, Note_on_c, 1, 65, 127
2, 427240, Note_off_c, 1, 37, 0
2, 427240, Note_off_c, 1, 59, 0
2, 427240, Note_off_c, 1, 61, 0
2, 427240, Note_off_c, 1, 65, 0
2, 427320, Note_on_c, 1, 42, 127
2, 427320, Note_on_c, 1, 59, 127
2, 427320, Note_on_c, 1, 61, 127
2, 427320, Note_on_c, 1, 66, 127
2, 427760, Note_off_c, 1, 59, 0
2, 427800, Note_on_c, 1, 56, 127
2, 428240, Note_off_c, 1, 56, 0
2, 428240, Note_off_c, 1, 61, 0
2, 428240, Note_off_c, 1, 66, 0
2, 428320, Note_on_c, 1, 54, 127
2, 428320, Note_on_c, 1, 57, 127
2, 428320, Note_on_c, 1, 61, 127
2, 428320, Note_on_c, 1, 66, 127
2, 431240, Note_off_c, 1, 42, 0
2, 431240, Note_off_c, 1, 54, 0
2, 431240, Note_off_c, 1, 57, 0
2, 431240, Note_off_c, 1, 61, 0
2, 431240, Note_off_c, 1, 66, 0
2, 433200, Note_on_c, 1, 42, 127
2, 433200, Note_on_c, 1, 78, 127
2, 433520, Note_off_c, 1, 42, 0
2, 433520, Note_off_c, 1, 78, 0
2, 433560, Note_on_c, 1, 49, 127
2, 433560, Note_on_c, 1, 81, 127
2, 433720, Note_off_c, 1, 81, 0
2, 433760, Note_on_c, 1, 80, 127
2, 433920, Note_off_c, 1, 49, 0
2, 433920, Note_off_c, 1, 80, 0
2, 433960, Note_on_c, 1, 54, 127
2, 433960, Note_on_c, 1, 81, 127
2, 434280, Note_off_c, 1, 54, 0
2, 434280, Note_off_c, 1, 81, 0
2, 434320, Note_on_c, 1, 57, 127
2, 434320, Note_on_c, 1, 78, 127
2, 434480, Note_off_c, 1, 78, 0
2, 434520, Note_on_c, 1, 73, 127
2, 434640, Note_off_c, 1, 57, 0
2, 434640, Note_off_c, 1, 73, 0
2, 434680, Note_on_c, 1, 59, 127
2, 434680, Note_on_c, 1, 80, 127
2, 435040, Note_off_c, 1, 59, 0
2, 435040, Note_off_c, 1, 80, 0
2, 435080, Note_on_c, 1, 61, 127
2, 435080, Note_on_c, 1, 77, 127
2, 435200, Note_off_c, 1, 77, 0
2, 435240, Note_on_c, 1, 73, 127
2, 435400, Note_off_c, 1, 61, 0
2, 435400, Note_off_c, 1, 73, 0
2, 435440, Note_on_c, 1, 62, 127
2, 435440, Note_on_c, 1, 78, 127
2, 435600, Note_off_c, 1, 62, 0
2, 435640, Note_on_c, 1, 64, 127
2, 435760, Note_off_c, 1, 64, 0
2, 435800, Note_on_c, 1, 62, 127
2, 435960, Note_off_c, 1, 62, 0
2, 436000, Note_on_c, 1, 61, 127
2, 436160, Note_off_c, 1, 61, 0
2, 436160, Note_off_c, 1, 78, 0
2, 436200, Note_on_c, 1, 59, 127
2, 436200, Note_on_c, 1, 74, 127
2, 436320, Note_off_c, 1, 59, 0
2, 436360, Note_on_c, 1, 57, 127
2, 436520, Note_off_c, 1, 57, 0
2, 436520, Note_off_c, 1, 74, 0
2, 436560, Note_on_c, 1, 56, 127
2, 436560, Note_on_c, 1, 71, 127
2, 436720, Note_off_c, 1, 56, 0
2, 436720, Note_off_c, 1, 71, 0
2, 436760, Note_on_c, 1, 59, 127
2, 436760, Note_on_c, 1, 68, 127
2, 436880, Note_off_c, 1, 59, 0
2, 436880, Note_off_c, 1, 68, 0
2, 436960, Note_on_c, 1, 57, 127
2, 436960, Note_on_c, 1, 73, 127
2, 437080, Note_off_c, 1, 57, 0
2, 437120, Note_on_c, 1, 56, 127
2, 437280, Note_off_c, 1, 56, 0
2, 437280, Note_off_c, 1, 73, 0
2, 437320, Note_on_c, 1, 54, 127
2, 437320, Note_on_c, 1, 69, 127
2, 437480, Note_off_c, 1, 54, 0
2, 437480, Note_off_c, 1, 69, 0
2, 437520, Note_on_c, 1, 57, 127
2, 437520, Note_on_c, 1, 66, 127
2, 437640, Note_off_c, 1, 57, 0
2, 437640, Note_off_c, 1, 66, 0
2, 437680, Note_on_c, 1, 56, 127
2, 437680, Note_on_c, 1, 71, 127
2, 437840, Note_off_c, 1, 56, 0
2, 437840, Note_off_c, 1, 71, 0
2, 437880, Note_on_c, 1, 54, 127
2, 437880, Note_on_c, 1, 68, 127
2, 438040, Note_off_c, 1, 54, 0
2, 438040, Note_off_c, 1, 68, 0
2, 438080, Note_on_c, 1, 53, 127
2, 438080, Note_on_c, 1, 73, 127
2, 438200, Note_off_c, 1, 53, 0
2, 438240, Note_on_c, 1, 49, 127
2, 438400, Note_off_c, 1, 49, 0
2, 438400, Note_off_c, 1, 73, 0
2, 438440, Note_on_c, 1, 54, 127
2, 438440, Note_on_c, 1, 69, 127
2, 438760, Note_off_c, 1, 54, 0
2, 438760, Note_off_c, 1, 69, 0
2, 438800, Note_on_c, 1, 49, 127
2, 438800, Note_on_c, 1, 68, 127
2, 438960, Note_off_c, 1, 68, 0
2, 439000, Note_on_c, 1, 66, 127
2, 439160, Note_off_c, 1, 49, 0
2, 439160, Note_off_c, 1, 66, 0
2, 439200, Note_on_c, 1, 45, 127
2, 439200, Note_on_c, 1, 78, 127
2, 439520, Note_off_c, 1, 45, 0
2, 439520, Note_off_c, 1, 78, 0
2, 439560, Note_on_c, 1, 49, 127
2, 439560, Note_on_c, 1, 81, 127
2, 439720, Note_off_c, 1, 81, 0
2, 439760, Note_on_c, 1, 80, 127
2, 439880, Note_off_c, 1, 49, 0
2, 439880, Note_off_c, 1, 80, 0
2, 439920, Note_on_c, 1, 54, 127
2, 439920, Note_on_c, 1, 81, 127
2, 440280, Note_off_c, 1, 54, 0
2, 440280, Note_off_c, 1, 81, 0
2, 440320, Note_on_c, 1, 57, 127
2, 440320, Note_on_c, 1, 78, 127
2, 440440, Note_off_c, 1, 78, 0
2, 440520, Note_on_c, 1, 73, 127
2, 440640, Note_off_c, 1, 57, 0
2, 440640, Note_off_c, 1, 73, 0
2, 440680, Note_on_c, 1, 59, 127
2, 440680, Note_on_c, 1, 80, 127
2, 441040, Note_off_c, 1, 59, 0
2, 441040, Note_off_c, 1, 80, 0
2, 441080, Note_on_c, 1, 61, 127
2, 441080, Note_on_c, 1, 77, 127
2, 441200, Note_off_c, 1, 77, 0
2, 441240, Note_on_c, 1, 73, 127
2, 441400, Note_off_c, 1, 61, 0
2, 441400, Note_off_c, 1, 73, 0
2, 441440, Note_on_c, 1, 62, 127
2, 441440, Note_on_c, 1, 78, 127
2, 441600, Note_off_c, 1, 62, 0
2, 441640, Note_on_c, 1, 64, 127
2, 441760, Note_off_c, 1, 64, 0
2, 441800, Note_on_c, 1, 62, 127
2, 441960, Note_off_c, 1, 62, 0
2, 441960, Note_off_c, 1, 78, 0
2, 442000, Note_on_c, 1, 61, 127
2, 442000, Note_on_c, 1, 76, 127
2, 442160, Note_off_c, 1, 61, 0
2, 442160, Note_off_c, 1, 76, 0
2, 442200, Note_on_c, 1, 59, 127
2, 442200, Note_on_c, 1, 74, 127
2, 442320, Note_off_c, 1, 59, 0
2, 442320, Note_off_c, 1, 74, 0
2, 442360, Note_on_c, 1, 57, 127
2, 442360, Note_on_c, 1, 73, 127
2, 442520, Note_off_c, 1, 57, 0
2, 442520, Note_off_c, 1, 73, 0
2, 442560, Note_on_c, 1, 56, 127
2, 442560, Note_on_c, 1, 71, 127
2, 442720, Note_off_c, 1, 56, 0
2, 442720, Note_off_c, 1, 71, 0
2, 442760, Note_on_c, 1, 54, 127
2, 442760, Note_on_c, 1, 69, 127
2, 442880, Note_off_c, 1, 54, 0
2, 442880, Note_off_c, 1, 69, 0
2, 442920, Note_on_c, 1, 52, 127
2, 442920, Note_on_c, 1, 80, 127
2, 443080, Note_off_c, 1, 80, 0
2, 443120, Note_on_c, 1, 81, 127
2, 443280, Note_off_c, 1, 52, 0
2, 443280, Note_off_c, 1, 81, 0
2, 443320, Note_on_c, 1, 54, 127
2, 443320, Note_on_c, 1, 73, 127
2, 443440, Note_off_c, 1, 73, 0
2, 443480, Note_on_c, 1, 74, 127
2, 443640, Note_off_c, 1, 54, 0
2, 443640, Note_off_c, 1, 74, 0
2, 443680, Note_on_c, 1, 50, 127
2, 443680, Note_on_c, 1, 76, 127
2, 443840, Note_off_c, 1, 76, 0
2, 443880, Note_on_c, 1, 71, 127
2, 444000, Note_off_c, 1, 50, 0
2, 444000, Note_off_c, 1, 71, 0
2, 444040, Note_on_c, 1, 52, 127
2, 444040, Note_on_c, 1, 73, 127
2, 444400, Note_off_c, 1, 52, 0
2, 444400, Note_off_c, 1, 73, 0
2, 444440, Note_on_c, 1, 45, 127
2, 444440, Note_on_c, 1, 71, 127
2, 444560, Note_off_c, 1, 45, 0
2, 444640, Note_on_c, 1, 52, 127
2, 444760, Note_off_c, 1, 52, 0
2, 444760, Note_off_c, 1, 71, 0
2, 444800, Note_on_c, 1, 54, 127
2, 444800, Note_on_c, 1, 69, 127
2, 444960, Note_off_c, 1, 54, 0
2, 445000, Note_on_c, 1, 56, 127
2, 445160, Note_off_c, 1, 56, 0
2, 445160, Note_off_c, 1, 69, 0
2, 445200, Note_on_c, 1, 57, 127
2, 445200, Note_on_c, 1, 73, 127
2, 445520, Note_off_c, 1, 57, 0
2, 445520, Note_off_c, 1, 73, 0
2, 445560, Note_on_c, 1, 59, 127
2, 445560, Note_on_c, 1, 76, 127
2, 445720, Note_off_c, 1, 76, 0
2, 445760, Note_on_c, 1, 74, 127
2, 445880, Note_off_c, 1, 59, 0
2, 445880, Note_off_c, 1, 74, 0
2, 445920, Note_on_c, 1, 61, 127
2, 445920, Note_on_c, 1, 76, 127
2, 446280, Note_off_c, 1, 61, 0
2, 446280, Note_off_c, 1, 76, 0
2, 446320, Note_on_c, 1, 57, 127
2, 446320, Note_on_c, 1, 73, 127
2, 446440, Note_off_c, 1, 73, 0
2, 446480, Note_on_c, 1, 69, 127
2, 446640, Note_off_c, 1, 57, 0
2, 446640, Note_off_c, 1, 69, 0
2, 446680, Note_on_c, 1, 62, 127
2, 446680, Note_on_c, 1, 78, 127
2, 447000, Note_off_c, 1, 62, 0
2, 447000, Note_off_c, 1, 78, 0
2, 447040, Note_on_c, 1, 59, 127
2, 447040, Note_on_c, 1, 74, 127
2, 447200, Note_off_c, 1, 74, 0
2, 447240, Note_on_c, 1, 69, 127
2, 447400, Note_off_c, 1, 59, 0
2, 447400, Note_off_c, 1, 69, 0
2, 447440, Note_on_c, 1, 61, 127
2, 447440, Note_on_c, 1, 76, 127
2, 447560, Note_off_c, 1, 61, 0
2, 447600, Note_on_c, 1, 59, 127
2, 447760, Note_off_c, 1, 59, 0
2, 447800, Note_on_c, 1, 57, 127
2, 447960, Note_off_c, 1, 57, 0
2, 448000, Note_on_c, 1, 56, 127
2, 448120, Note_off_c, 1, 56, 0
2, 448120, Note_off_c, 1, 76, 0
2, 448160, Note_on_c, 1, 54, 127
2, 448160, Note_on_c, 1, 81, 127
2, 448320, Note_off_c, 1, 81, 0
2, 448360, Note_on_c, 1, 80, 127
2, 448520, Note_off_c, 1, 54, 0
2, 448520, Note_off_c, 1, 80, 0
2, 448560, Note_on_c, 1, 52, 127
2, 448560, Note_on_c, 1, 78, 127
2, 448720, Note_off_c, 1, 78, 0
2, 448760, Note_on_c, 1, 80, 127
2, 448880, Note_off_c, 1, 52, 0
2, 448880, Note_off_c, 1, 80, 0
2, 448920, Note_on_c, 1, 51, 127
2, 448920, Note_on_c, 1, 81, 127
2, 449080, Note_off_c, 1, 81, 0
2, 449120, Note_on_c, 1, 78, 127
2, 449280, Note_off_c, 1, 51, 0
2, 449280, Note_off_c, 1, 78, 0
2, 449320, Note_on_c, 1, 47, 127
2, 449320, Note_on_c, 1, 75, 127
2, 449440, Note_off_c, 1, 75, 0
2, 449480, Note_on_c, 1, 71, 127
2, 449640, Note_off_c, 1, 47, 0
2, 449640, Note_off_c, 1, 71, 0
2, 449680, Note_on_c, 1, 49, 127
2, 449680, Note_on_c, 1, 81, 127
2, 449840, Note_off_c, 1, 81, 0
2, 449880, Note_on_c, 1, 80, 127
2, 450000, Note_off_c, 1, 49, 0
2, 450000, Note_off_c, 1, 80, 0
2, 450040, Note_on_c, 1, 51, 127
2, 450040, Note_on_c, 1, 78, 127
2, 450200, Note_off_c, 1, 78, 0
2, 450240, Note_on_c, 1, 80, 127
2, 450400, Note_off_c, 1, 51, 0
2, 450400, Note_off_c, 1, 80, 0
2, 450440, Note_on_c, 1, 52, 127
2, 450440, Note_on_c, 1, 81, 127
2, 450560, Note_off_c, 1, 81, 0
2, 450600, Note_on_c, 1, 80, 127
2, 450760, Note_off_c, 1, 52, 0
2, 450760, Note_off_c, 1, 80, 0
2, 450800, Note_on_c, 1, 54, 127
2, 450800, Note_on_c, 1, 78, 127
2, 450960, Note_off_c, 1, 54, 0
2, 450960, Note_off_c, 1, 78, 0
2, 451000, Note_on_c, 1, 56, 127
2, 451000, Note_on_c, 1, 76, 127
2, 451120, Note_off_c, 1, 56, 0
2, 451120, Note_off_c, 1, 76, 0
2, 451160, Note_on_c, 1, 57, 127
2, 451160, Note_on_c, 1, 78, 127
2, 451320, Note_off_c, 1, 78, 0
2, 451360, Note_on_c, 1, 76, 127
2, 451520, Note_off_c, 1, 57, 0
2, 451520, Note_off_c, 1, 76, 0
2, 451560, Note_on_c, 1, 54, 127
2, 451560, Note_on_c, 1, 75, 127
2, 451680, Note_off_c, 1, 75, 0
2, 451720, Note_on_c, 1, 76, 127
2, 451880, Note_off_c, 1, 54, 0
2, 451880, Note_off_c, 1, 76, 0
2, 451920, Note_on_c, 1, 51, 127
2, 451920, Note_on_c, 1, 78, 127
2, 452080, Note_off_c, 1, 78, 0
2, 452120, Note_on_c, 1, 75, 127
2, 452240, Note_off_c, 1, 51, 0
2, 452240, Note_off_c, 1, 75, 0
2, 452320, Note_on_c, 1, 44, 127
2, 452320, Note_on_c, 1, 72, 127
2, 452440, Note_off_c, 1, 72, 0
2, 452480, Note_on_c, 1, 68, 127
2, 452640, Note_off_c, 1, 44, 0
2, 452640, Note_off_c, 1, 68, 0
2, 452680, Note_on_c, 1, 46, 127
2, 452680, Note_on_c, 1, 78, 127
2, 452840, Note_off_c, 1, 78, 0
2, 452880, Note_on_c, 1, 76, 127
2, 453000, Note_off_c, 1, 46, 0
2, 453000, Note_off_c, 1, 76, 0
2, 453040, Note_on_c, 1, 48, 127
2, 453040, Note_on_c, 1, 75, 127
2, 453200, Note_off_c, 1, 75, 0
2, 453240, Note_on_c, 1, 76, 127
2, 453400, Note_off_c, 1, 48, 0
2, 453400, Note_off_c, 1, 76, 0
2, 453440, Note_on_c, 1, 49, 127
2, 453440, Note_on_c, 1, 78, 127
2, 453560, Note_off_c, 1, 78, 0
2, 453600, Note_on_c, 1, 76, 127
2, 453760, Note_off_c, 1, 49, 0
2, 453760, Note_off_c, 1, 76, 0
2, 453800, Note_on_c, 1, 37, 127
2, 453800, Note_on_c, 1, 75, 127
2, 453960, Note_off_c, 1, 75, 0
2, 454000, Note_on_c, 1, 73, 127
2, 454120, Note_off_c, 1, 37, 0
2, 454120, Note_off_c, 1, 73, 0
2, 454160, Note_on_c, 1, 61, 127
2, 454160, Note_on_c, 1, 80, 127
2, 454520, Note_off_c, 1, 61, 0
2, 454520, Note_off_c, 1, 80, 0
2, 454560, Note_on_c, 1, 64, 127
2, 454560, Note_on_c, 1, 80, 127
2, 454680, Note_off_c, 1, 64, 0
2, 454720, Note_on_c, 1, 63, 127
2, 454880, Note_off_c, 1, 63, 0
2, 454880, Note_off_c, 1, 80, 0
2, 454920, Note_on_c, 1, 64, 127
2, 454920, Note_on_c, 1, 81, 127
2, 454960, Note_off_c, 1, 81, 0
2, 455000, Note_on_c, 1, 80, 127
2, 455080, Note_off_c, 1, 80, 0
2, 455080, Note_on_c, 1, 81, 127
2, 455120, Note_off_c, 1, 81, 0
2, 455160, Note_on_c, 1, 80, 127
2, 455200, Note_off_c, 1, 80, 0
2, 455240, Note_off_c, 1, 64, 0
2, 455240, Note_on_c, 1, 81, 127
2, 455280, Note_on_c, 1, 61, 127
2, 455280, Note_off_c, 1, 81, 0
2, 455320, Note_on_c, 1, 80, 127
2, 455360, Note_off_c, 1, 80, 0
2, 455400, Note_on_c, 1, 81, 127
2, 455440, Note_off_c, 1, 61, 0
2, 455440, Note_off_c, 1, 81, 0
2, 455480, Note_on_c, 1, 56, 127
2, 455480, Note_on_c, 1, 80, 127
2, 455520, Note_off_c, 1, 80, 0
2, 455560, Note_on_c, 1, 81, 127
2, 455600, Note_off_c, 1, 81, 0
2, 455640, Note_off_c, 1, 56, 0
2, 455640, Note_on_c, 1, 80, 127
2, 455680, Note_on_c, 1, 63, 127
2, 455680, Note_off_c, 1, 80, 0
2, 455680, Note_on_c, 1, 81, 127
2, 455760, Note_on_c, 1, 80, 127
2, 455760, Note_off_c, 1, 81, 0
2, 455840, Note_off_c, 1, 80, 0
2, 455840, Note_on_c, 1, 81, 127
2, 455920, Note_on_c, 1, 80, 127
2, 455920, Note_off_c, 1, 81, 0
2, 455960, Note_off_c, 1, 80, 0
2, 456000, Note_off_c, 1, 63, 0
2, 456000, Note_on_c, 1, 81, 127
2, 456040, Note_on_c, 1, 60, 127
2, 456040, Note_off_c, 1, 81, 0
2, 456080, Note_on_c, 1, 80, 127
2, 456120, Note_off_c, 1, 80, 0
2, 456160, Note_on_c, 1, 81, 127
2, 456200, Note_off_c, 1, 60, 0
2, 456200, Note_off_c, 1, 81, 0
2, 456240, Note_on_c, 1, 56, 127
2, 456240, Note_on_c, 1, 80, 127
2, 456360, Note_off_c, 1, 56, 0
2, 456400, Note_on_c, 1, 61, 127
2, 456480, Note_off_c, 1, 80, 0
2, 456600, Note_on_c, 1, 76, 127
2, 456760, Note_off_c, 1, 76, 0
2, 456800, Note_on_c, 1, 78, 127
2, 456920, Note_off_c, 1, 78, 0
2, 456960, Note_on_c, 1, 80, 127
2, 457120, Note_off_c, 1, 61, 0
2, 457120, Note_off_c, 1, 80, 0
2, 457160, Note_on_c, 1, 54, 127
2, 457160, Note_on_c, 1, 81, 127
2, 457320, Note_off_c, 1, 81, 0
2, 457360, Note_on_c, 1, 80, 127
2, 457480, Note_off_c, 1, 54, 0
2, 457480, Note_off_c, 1, 80, 0
2, 457520, Note_on_c, 1, 56, 127
2, 457520, Note_on_c, 1, 78, 127
2, 457680, Note_off_c, 1, 78, 0
2, 457720, Note_on_c, 1, 76, 127
2, 457880, Note_off_c, 1, 56, 0
2, 457880, Note_off_c, 1, 76, 0
2, 457920, Note_on_c, 1, 57, 127
2, 457920, Note_on_c, 1, 75, 127
2, 458040, Note_off_c, 1, 75, 0
2, 458080, Note_on_c, 1, 73, 127
2, 458240, Note_off_c, 1, 57, 0
2, 458240, Note_off_c, 1, 73, 0
2, 458280, Note_on_c, 1, 54, 127
2, 458280, Note_on_c, 1, 72, 127
2, 458440, Note_off_c, 1, 72, 0
2, 458480, Note_on_c, 1, 73, 127
2, 458600, Note_off_c, 1, 54, 0
2, 458600, Note_off_c, 1, 73, 0
2, 458640, Note_on_c, 1, 56, 127
2, 458640, Note_on_c, 1, 78, 127
2, 458800, Note_off_c, 1, 78, 0
2, 458840, Note_on_c, 1, 76, 127
2, 459000, Note_off_c, 1, 56, 0
2, 459000, Note_off_c, 1, 76, 0
2, 459040, Note_on_c, 1, 44, 127
2, 459040, Note_on_c, 1, 75, 127
2, 459160, Note_off_c, 1, 75, 0
2, 459200, Note_on_c, 1, 76, 127
2, 459360, Note_off_c, 1, 44, 0
2, 459360, Note_off_c, 1, 76, 0
2, 459400, Note_on_c, 1, 37, 127
2, 459400, Note_on_c, 1, 73, 127
2, 459560, Note_off_c, 1, 37, 0
2, 459600, Note_on_c, 1, 49, 127
2, 459720, Note_off_c, 1, 49, 0
2, 459760, Note_on_c, 1, 50, 127
2, 459920, Note_off_c, 1, 50, 0
2, 459960, Note_on_c, 1, 52, 127
2, 460120, Note_off_c, 1, 52, 0
2, 460120, Note_off_c, 1, 73, 0
2, 460160, Note_on_c, 1, 54, 127
2, 460160, Note_on_c, 1, 73, 127
2, 460200, Note_off_c, 1, 54, 0
2, 460240, Note_on_c, 1, 53, 127
2, 460280, Note_off_c, 1, 53, 0
2, 460360, Note_on_c, 1, 54, 127
2, 460480, Note_off_c, 1, 54, 0
2, 460480, Note_off_c, 1, 73, 0
2, 460520, Note_on_c, 1, 54, 127
2, 460520, Note_on_c, 1, 76, 127
2, 460560, Note_off_c, 1, 54, 0
2, 460640, Note_on_c, 1, 53, 127
2, 460680, Note_off_c, 1, 53, 0
2, 460680, Note_off_c, 1, 76, 0
2, 460720, Note_on_c, 1, 54, 127
2, 460720, Note_on_c, 1, 74, 127
2, 460840, Note_off_c, 1, 54, 0
2, 460840, Note_off_c, 1, 74, 0
2, 460920, Note_on_c, 1, 54, 127
2, 460920, Note_on_c, 1, 76, 127
2, 460960, Note_off_c, 1, 54, 0
2, 461000, Note_on_c, 1, 53, 127
2, 461040, Note_off_c, 1, 53, 0
2, 461080, Note_on_c, 1, 54, 127
2, 461240, Note_off_c, 1, 76, 0
2, 461280, Note_on_c, 1, 73, 127
2, 461400, Note_off_c, 1, 73, 0
2, 461480, Note_on_c, 1, 70, 127
2, 461600, Note_off_c, 1, 70, 0
2, 461640, Note_on_c, 1, 79, 127
2, 462000, Note_off_c, 1, 79, 0
2, 462040, Note_on_c, 1, 76, 127
2, 462160, Note_off_c, 1, 76, 0
2, 462200, Note_on_c, 1, 73, 127
2, 462360, Note_off_c, 1, 73, 0
2, 462400, Note_on_c, 1, 74, 127
2, 462720, Note_off_c, 1, 74, 0
2, 462760, Note_on_c, 1, 71, 127
2, 462920, Note_off_c, 1, 71, 0
2, 462960, Note_on_c, 1, 66, 127
2, 463120, Note_off_c, 1, 54, 0
2, 463120, Note_off_c, 1, 66, 0
2, 463160, Note_on_c, 1, 54, 127
2, 463160, Note_on_c, 1, 78, 127
2, 463200, Note_off_c, 1, 54, 0
2, 463240, Note_on_c, 1, 53, 127
2, 463280, Note_off_c, 1, 53, 0
2, 463320, Note_on_c, 1, 54, 127
2, 463480, Note_off_c, 1, 54, 0
2, 463480, Note_off_c, 1, 78, 0
2, 463520, Note_on_c, 1, 54, 127
2, 463520, Note_on_c, 1, 74, 127
2, 463560, Note_off_c, 1, 54, 0
2, 463600, Note_on_c, 1, 53, 127
2, 463680, Note_off_c, 1, 53, 0
2, 463680, Note_off_c, 1, 74, 0
2, 463720, Note_on_c, 1, 54, 127
2, 463720, Note_on_c, 1, 71, 127
2, 463840, Note_off_c, 1, 54, 0
2, 463840, Note_off_c, 1, 71, 0
2, 463880, Note_on_c, 1, 54, 127
2, 463880, Note_on_c, 1, 73, 127
2, 464240, Note_off_c, 1, 73, 0
2, 464280, Note_on_c, 1, 69, 127
2, 464400, Note_off_c, 1, 69, 0
2, 464440, Note_on_c, 1, 66, 127
2, 464600, Note_off_c, 1, 54, 0
2, 464600, Note_off_c, 1, 66, 0
2, 464640, Note_on_c, 1, 54, 127
2, 464640, Note_on_c, 1, 78, 127
2, 464680, Note_off_c, 1, 54, 0
2, 464720, Note_on_c, 1, 53, 127
2, 464800, Note_off_c, 1, 53, 0
2, 464840, Note_on_c, 1, 54, 127
2, 464960, Note_off_c, 1, 54, 0
2, 464960, Note_off_c, 1, 78, 0
2, 465000, Note_on_c, 1, 54, 127
2, 465000, Note_on_c, 1, 73, 127
2, 465160, Note_off_c, 1, 73, 0
2, 465200, Note_on_c, 1, 69, 127
2, 465360, Note_off_c, 1, 54, 0
2, 465360, Note_off_c, 1, 69, 0
2, 465400, Note_on_c, 1, 54, 127
2, 465400, Note_on_c, 1, 71, 127
2, 465720, Note_off_c, 1, 71, 0
2, 465760, Note_on_c, 1, 68, 127
2, 465920, Note_off_c, 1, 68, 0
2, 465960, Note_on_c, 1, 65, 127
2, 466080, Note_off_c, 1, 54, 0
2, 466080, Note_off_c, 1, 65, 0
2, 466120, Note_on_c, 1, 54, 127
2, 466120, Note_on_c, 1, 74, 127
2, 466280, Note_off_c, 1, 54, 0
2, 466320, Note_on_c, 1, 54, 127
2, 466480, Note_off_c, 1, 54, 0
2, 466480, Note_off_c, 1, 74, 0
2, 466520, Note_on_c, 1, 54, 127
2, 466520, Note_on_c, 1, 71, 127
2, 466640, Note_off_c, 1, 54, 0
2, 466640, Note_off_c, 1, 71, 0
2, 466720, Note_on_c, 1, 54, 127
2, 466720, Note_on_c, 1, 68, 127
2, 466840, Note_off_c, 1, 54, 0
2, 466840, Note_off_c, 1, 68, 0
2, 466880, Note_on_c, 1, 54, 127
2, 466880, Note_on_c, 1, 73, 127
2, 467040, Note_off_c, 1, 54, 0
2, 467080, Note_on_c, 1, 54, 127
2, 467240, Note_off_c, 1, 54, 0
2, 467240, Note_off_c, 1, 73, 0
2, 467280, Note_on_c, 1, 54, 127
2, 467280, Note_on_c, 1, 69, 127
2, 467400, Note_off_c, 1, 54, 0
2, 467400, Note_off_c, 1, 69, 0
2, 467440, Note_on_c, 1, 54, 127
2, 467440, Note_on_c, 1, 66, 127
2, 467600, Note_off_c, 1, 54, 0
2, 467600, Note_off_c, 1, 66, 0
2, 467640, Note_on_c, 1, 54, 127
2, 467640, Note_on_c, 1, 71, 127
2, 467800, Note_off_c, 1, 54, 0
2, 467800, Note_off_c, 1, 71, 0
2, 467840, Note_on_c, 1, 53, 127
2, 467840, Note_on_c, 1, 68, 127
2, 467960, Note_off_c, 1, 53, 0
2, 467960, Note_off_c, 1, 68, 0
2, 468000, Note_on_c, 1, 54, 127
2, 468000, Note_on_c, 1, 69, 127
2, 468160, Note_off_c, 1, 69, 0
2, 468200, Note_on_c, 1, 66, 127
2, 468360, Note_off_c, 1, 54, 0
2, 468360, Note_off_c, 1, 66, 0
2, 468400, Note_on_c, 1, 49, 127
2, 468400, Note_on_c, 1, 68, 127
2, 468520, Note_off_c, 1, 68, 0
2, 468560, Note_on_c, 1, 61, 127
2, 468720, Note_off_c, 1, 49, 0
2, 468720, Note_off_c, 1, 61, 0
2, 468760, Note_on_c, 1, 47, 127
2, 468760, Note_on_c, 1, 63, 127
2, 468920, Note_off_c, 1, 63, 0
2, 468960, Note_on_c, 1, 65, 127
2, 469080, Note_off_c, 1, 47, 0
2, 469080, Note_off_c, 1, 65, 0
2, 469120, Note_on_c, 1, 45, 127
2, 469120, Note_on_c, 1, 66, 127
2, 469280, Note_off_c, 1, 66, 0
2, 469320, Note_on_c, 1, 68, 127
2, 469480, Note_off_c, 1, 45, 0
2, 469480, Note_off_c, 1, 68, 0
2, 469520, Note_on_c, 1, 49, 127
2, 469520, Note_on_c, 1, 69, 127
2, 469640, Note_off_c, 1, 69, 0
2, 469680, Note_on_c, 1, 66, 127
2, 469840, Note_off_c, 1, 49, 0
2, 469840, Note_off_c, 1, 66, 0
2, 469880, Note_on_c, 1, 41, 127
2, 469880, Note_on_c, 1, 74, 127
2, 470040, Note_off_c, 1, 74, 0
2, 470080, Note_on_c, 1, 71, 127
2, 470200, Note_off_c, 1, 41, 0
2, 470200, Note_off_c, 1, 71, 0
2, 470280, Note_on_c, 1, 49, 127
2, 470280, Note_on_c, 1, 73, 127
2, 470400, Note_off_c, 1, 73, 0
2, 470440, Note_on_c, 1, 69, 127
2, 470600, Note_off_c, 1, 49, 0
2, 470600, Note_off_c, 1, 69, 0
2, 470640, Note_on_c, 1, 42, 127
2, 470640, Note_on_c, 1, 71, 127
2, 470760, Note_off_c, 1, 71, 0
2, 470840, Note_on_c, 1, 68, 127
2, 470960, Note_off_c, 1, 42, 0
2, 470960, Note_off_c, 1, 68, 0
2, 471000, Note_on_c, 1, 49, 127
2, 471000, Note_on_c, 1, 69, 127
2, 471160, Note_off_c, 1, 69, 0
2, 471200, Note_on_c, 1, 66, 127
2, 471360, Note_off_c, 1, 49, 0
2, 471360, Note_off_c, 1, 66, 0
2, 471400, Note_on_c, 1, 37, 127
2, 471400, Note_on_c, 1, 68, 127
2, 471720, Note_off_c, 1, 37, 0
2, 471760, Note_on_c, 1, 49, 127
2, 471760, Note_on_c, 1, 61, 127
2, 471760, Note_off_c, 1, 68, 0
2, 471920, Note_off_c, 1, 49, 0
2, 471960, Note_on_c, 1, 47, 127
2, 472000, Note_off_c, 1, 61, 0
2, 472080, Note_off_c, 1, 47, 0
2, 472120, Note_on_c, 1, 45, 127
2, 472120, Note_on_c, 1, 66, 127
2, 472480, Note_off_c, 1, 45, 0
2, 472480, Note_off_c, 1, 66, 0
2, 472520, Note_on_c, 1, 44, 127
2, 472520, Note_on_c, 1, 69, 127
2, 472640, Note_off_c, 1, 69, 0
2, 472680, Note_on_c, 1, 68, 127
2, 472840, Note_off_c, 1, 44, 0
2, 472840, Note_off_c, 1, 68, 0
2, 472880, Note_on_c, 1, 42, 127
2, 472880, Note_on_c, 1, 69, 127
2, 473080, Note_on_c, 1, 65, 127
2, 473080, Note_off_c, 1, 69, 0
2, 473200, Note_off_c, 1, 65, 0
2, 473240, Note_on_c, 1, 66, 127
2, 473320, Note_off_c, 1, 42, 0
2, 473400, Note_off_c, 1, 66, 0
2, 473440, Note_on_c, 1, 61, 127
2, 473600, Note_off_c, 1, 61, 0
2, 473640, Note_on_c, 1, 40, 127
2, 473640, Note_on_c, 1, 70, 127
2, 473800, Note_on_c, 1, 64, 127
2, 473840, Note_off_c, 1, 70, 0
2, 473960, Note_off_c, 1, 64, 0
2, 474000, Note_on_c, 1, 66, 127
2, 474040, Note_off_c, 1, 40, 0
2, 474160, Note_off_c, 1, 66, 0
2, 474200, Note_on_c, 1, 61, 127
2, 474320, Note_off_c, 1, 61, 0
2, 474400, Note_on_c, 1, 38, 127
2, 474400, Note_on_c, 1, 71, 127
2, 474560, Note_on_c, 1, 61, 127
2, 474560, Note_off_c, 1, 71, 0
2, 474720, Note_off_c, 1, 38, 0
2, 474720, Note_off_c, 1, 61, 0
2, 474760, Note_on_c, 1, 54, 127
2, 474760, Note_on_c, 1, 62, 127
2, 474920, Note_off_c, 1, 54, 0
2, 474920, Note_off_c, 1, 62, 0
2, 474960, Note_on_c, 1, 52, 127
2, 474960, Note_on_c, 1, 66, 127
2, 475080, Note_off_c, 1, 52, 0
2, 475080, Note_off_c, 1, 66, 0
2, 475120, Note_on_c, 1, 50, 127
2, 475120, Note_on_c, 1, 71, 127
2, 475280, Note_off_c, 1, 71, 0
2, 475320, Note_on_c, 1, 66, 127
2, 475480, Note_off_c, 1, 50, 0
2, 475480, Note_off_c, 1, 66, 0
2, 475520, Note_on_c, 1, 49, 127
2, 475520, Note_on_c, 1, 73, 127
2, 475640, Note_off_c, 1, 73, 0
2, 475680, Note_on_c, 1, 66, 127
2, 475840, Note_off_c, 1, 49, 0
2, 475840, Note_off_c, 1, 66, 0
2, 475880, Note_on_c, 1, 47, 127
2, 475880, Note_on_c, 1, 74, 127
2, 476080, Note_on_c, 1, 70, 127
2, 476080, Note_off_c, 1, 74, 0
2, 476200, Note_off_c, 1, 70, 0
2, 476240, Note_on_c, 1, 71, 127
2, 476320, Note_off_c, 1, 47, 0
2, 476400, Note_off_c, 1, 71, 0
2, 476440, Note_on_c, 1, 66, 127
2, 476600, Note_off_c, 1, 66, 0
2, 476640, Note_on_c, 1, 45, 127
2, 476640, Note_on_c, 1, 75, 127
2, 476800, Note_on_c, 1, 69, 127
2, 476800, Note_off_c, 1, 75, 0
2, 476960, Note_off_c, 1, 69, 0
2, 477000, Note_on_c, 1, 71, 127
2, 477040, Note_off_c, 1, 45, 0
2, 477160, Note_off_c, 1, 71, 0
2, 477200, Note_on_c, 1, 66, 127
2, 477320, Note_off_c, 1, 66, 0
2, 477360, Note_on_c, 1, 44, 127
2, 477360, Note_on_c, 1, 76, 127
2, 477560, Note_on_c, 1, 66, 127
2, 477560, Note_off_c, 1, 76, 0
2, 477720, Note_off_c, 1, 44, 0
2, 477720, Note_off_c, 1, 66, 0
2, 477760, Note_on_c, 1, 59, 127
2, 477760, Note_on_c, 1, 68, 127
2, 477880, Note_off_c, 1, 59, 0
2, 477880, Note_off_c, 1, 68, 0
2, 477920, Note_on_c, 1, 57, 127
2, 477920, Note_on_c, 1, 71, 127
2, 478080, Note_off_c, 1, 57, 0
2, 478080, Note_off_c, 1, 71, 0
2, 478120, Note_on_c, 1, 56, 127
2, 478120, Note_on_c, 1, 77, 127
2, 478320, Note_on_c, 1, 71, 127
2, 478320, Note_off_c, 1, 77, 0
2, 478440, Note_off_c, 1, 56, 0
2, 478440, Note_off_c, 1, 71, 0
2, 478520, Note_on_c, 1, 54, 127
2, 478520, Note_on_c, 1, 78, 127
2, 478680, Note_on_c, 1, 71, 127
2, 478680, Note_off_c, 1, 78, 0
2, 478840, Note_off_c, 1, 54, 0
2, 478840, Note_off_c, 1, 71, 0
2, 478880, Note_on_c, 1, 53, 127
2, 478880, Note_on_c, 1, 80, 127
2, 479080, Note_on_c, 1, 75, 127
2, 479080, Note_off_c, 1, 80, 0
2, 479200, Note_off_c, 1, 75, 0
2, 479240, Note_on_c, 1, 77, 127
2, 479320, Note_off_c, 1, 53, 0
2, 479440, Note_on_c, 1, 73, 127
2, 479440, Note_off_c, 1, 77, 0
2, 479600, Note_off_c, 1, 73, 0
2, 479640, Note_on_c, 1, 51, 127
2, 479640, Note_on_c, 1, 81, 127
2, 479760, Note_off_c, 1, 81, 0
2, 479800, Note_on_c, 1, 77, 127
2, 479960, Note_off_c, 1, 77, 0
2, 480000, Note_on_c, 1, 78, 127
2, 480040, Note_off_c, 1, 51, 0
2, 480160, Note_off_c, 1, 78, 0
2, 480200, Note_on_c, 1, 73, 127
2, 480320, Note_off_c, 1, 73, 0
2, 480360, Note_on_c, 1, 49, 127
2, 480360, Note_on_c, 1, 83, 127
2, 480520, Note_off_c, 1, 83, 0
2, 480560, Note_on_c, 1, 80, 127
2, 480720, Note_off_c, 1, 49, 0
2, 480720, Note_off_c, 1, 80, 0
2, 480760, Note_on_c, 1, 53, 127
2, 480760, Note_on_c, 1, 73, 127
2, 480880, Note_off_c, 1, 73, 0
2, 480920, Note_on_c, 1, 83, 127
2, 481080, Note_off_c, 1, 53, 0
2, 481080, Note_off_c, 1, 83, 0
2, 481120, Note_on_c, 1, 54, 127
2, 481120, Note_on_c, 1, 81, 127
2, 481280, Note_off_c, 1, 81, 0
2, 481320, Note_on_c, 1, 80, 127
2, 481440, Note_off_c, 1, 54, 0
2, 481440, Note_off_c, 1, 80, 0
2, 481480, Note_on_c, 1, 56, 127
2, 481480, Note_on_c, 1, 78, 127
2, 481640, Note_off_c, 1, 78, 0
2, 481680, Note_on_c, 1, 77, 127
2, 481840, Note_off_c, 1, 56, 0
2, 481840, Note_off_c, 1, 77, 0
2, 481880, Note_on_c, 1, 57, 127
2, 481880, Note_on_c, 1, 78, 127
2, 482000, Note_off_c, 1, 78, 0
2, 482080, Note_on_c, 1, 73, 127
2, 482200, Note_off_c, 1, 57, 0
2, 482200, Note_off_c, 1, 73, 0
2, 482240, Note_on_c, 1, 59, 127
2, 482240, Note_on_c, 1, 74, 127
2, 482400, Note_off_c, 1, 74, 0
2, 482440, Note_on_c, 1, 71, 127
2, 482600, Note_off_c, 1, 59, 0
2, 482600, Note_off_c, 1, 71, 0
2, 482640, Note_on_c, 1, 61, 127
2, 482640, Note_on_c, 1, 71, 127
2, 482680, Note_off_c, 1, 71, 0
2, 482720, Note_on_c, 1, 69, 127
2, 482760, Note_off_c, 1, 69, 0
2, 482800, Note_on_c, 1, 71, 127
2, 482840, Note_off_c, 1, 71, 0
2, 482920, Note_on_c, 1, 69, 127
2, 482960, Note_off_c, 1, 61, 0
2, 482960, Note_off_c, 1, 69, 0
2, 483000, Note_on_c, 1, 49, 127
2, 483000, Note_on_c, 1, 68, 127
2, 483120, Note_off_c, 1, 68, 0
2, 483200, Note_on_c, 1, 66, 127
2, 483320, Note_off_c, 1, 49, 0
2, 483320, Note_off_c, 1, 66, 0
2, 483360, Note_on_c, 1, 42, 127
2, 483360, Note_on_c, 1, 66, 127
2, 484080, Note_off_c, 1, 42, 0
2, 484080, Note_off_c, 1, 66, 0
2, 484120, Note_on_c, 1, 54, 127
2, 484120, Note_on_c, 1, 58, 127
2, 484120, Note_on_c, 1, 61, 127
2, 484440, Note_off_c, 1, 58, 0
2, 484440, Note_off_c, 1, 61, 0
2, 484480, Note_on_c, 1, 56, 127
2, 484480, Note_on_c, 1, 63, 127
2, 484640, Note_off_c, 1, 63, 0
2, 484680, Note_on_c, 1, 59, 127
2, 484840, Note_off_c, 1, 56, 0
2, 484840, Note_off_c, 1, 59, 0
2, 484880, Note_on_c, 1, 58, 127
2, 484880, Note_on_c, 1, 61, 127
2, 485200, Note_off_c, 1, 58, 0
2, 485200, Note_off_c, 1, 61, 0
2, 485240, Note_on_c, 1, 59, 127
2, 485240, Note_on_c, 1, 66, 127
2, 485400, Note_off_c, 1, 66, 0
2, 485440, Note_on_c, 1, 68, 127
2, 485560, Note_off_c, 1, 59, 0
2, 485560, Note_off_c, 1, 68, 0
2, 485600, Note_on_c, 1, 61, 127
2, 485600, Note_on_c, 1, 70, 127
2, 485960, Note_off_c, 1, 61, 0
2, 485960, Note_off_c, 1, 70, 0
2, 486000, Note_on_c, 1, 59, 127
2, 486000, Note_on_c, 1, 68, 127
2, 486120, Note_off_c, 1, 68, 0
2, 486160, Note_on_c, 1, 65, 127
2, 486320, Note_off_c, 1, 59, 0
2, 486320, Note_off_c, 1, 65, 0
2, 486360, Note_on_c, 1, 58, 127
2, 486360, Note_on_c, 1, 66, 127
2, 486680, Note_off_c, 1, 58, 0
2, 486680, Note_off_c, 1, 66, 0
2, 486720, Note_on_c, 1, 59, 127
2, 486720, Note_on_c, 1, 61, 127
2, 487080, Note_off_c, 1, 54, 0
2, 487080, Note_off_c, 1, 59, 0
2, 487080, Note_off_c, 1, 61, 0
2, 487120, Note_on_c, 1, 54, 127
2, 487120, Note_on_c, 1, 58, 127
2, 487120, Note_on_c, 1, 66, 127
2, 487440, Note_off_c, 1, 58, 0
2, 487440, Note_off_c, 1, 66, 0
2, 487480, Note_on_c, 1, 56, 127
2, 487480, Note_on_c, 1, 68, 127
2, 487640, Note_off_c, 1, 68, 0
2, 487680, Note_on_c, 1, 65, 127
2, 487840, Note_off_c, 1, 56, 0
2, 487840, Note_off_c, 1, 65, 0
2, 487880, Note_on_c, 1, 58, 127
2, 487880, Note_on_c, 1, 66, 127
2, 488000, Note_off_c, 1, 66, 0
2, 488040, Note_on_c, 1, 68, 127
2, 488200, Note_off_c, 1, 58, 0
2, 488200, Note_off_c, 1, 68, 0
2, 488240, Note_on_c, 1, 59, 127
2, 488240, Note_on_c, 1, 70, 127
2, 488400, Note_off_c, 1, 70, 0
2, 488440, Note_on_c, 1, 71, 127
2, 488560, Note_off_c, 1, 59, 0
2, 488560, Note_off_c, 1, 71, 0
2, 488600, Note_on_c, 1, 58, 127
2, 488600, Note_on_c, 1, 73, 127
2, 488760, Note_off_c, 1, 73, 0
2, 488800, Note_on_c, 1, 70, 127
2, 488960, Note_off_c, 1, 58, 0
2, 488960, Note_off_c, 1, 70, 0
2, 489000, Note_on_c, 1, 56, 127
2, 489000, Note_on_c, 1, 71, 127
2, 489120, Note_off_c, 1, 71, 0
2, 489160, Note_on_c, 1, 68, 127
2, 489320, Note_off_c, 1, 54, 0
2, 489320, Note_off_c, 1, 56, 0
2, 489320, Note_off_c, 1, 68, 0
2, 489360, Note_on_c, 1, 54, 127
2, 489360, Note_on_c, 1, 70, 127
2, 490080, Note_off_c, 1, 54, 0
2, 490080, Note_off_c, 1, 70, 0
2, 490120, Note_on_c, 1, 54, 127
2, 490120, Note_on_c, 1, 58, 127
2, 490120, Note_on_c, 1, 73, 127
2, 490440, Note_off_c, 1, 58, 0
2, 490440, Note_off_c, 1, 73, 0
2, 490480, Note_on_c, 1, 56, 127
2, 490480, Note_on_c, 1, 75, 127
2, 490640, Note_off_c, 1, 75, 0
2, 490680, Note_on_c, 1, 71, 127
2, 490800, Note_off_c, 1, 56, 0
2, 490800, Note_off_c, 1, 71, 0
2, 490840, Note_on_c, 1, 58, 127
2, 490840, Note_on_c, 1, 73, 127
2, 491200, Note_off_c, 1, 58, 0
2, 491200, Note_off_c, 1, 73, 0
2, 491240, Note_on_c, 1, 63, 127
2, 491240, Note_on_c, 1, 71, 127
2, 491360, Note_off_c, 1, 71, 0
2, 491440, Note_on_c, 1, 68, 127
2, 491560, Note_off_c, 1, 63, 0
2, 491560, Note_off_c, 1, 68, 0
2, 491600, Note_on_c, 1, 61, 127
2, 491600, Note_on_c, 1, 70, 127
2, 491760, Note_off_c, 1, 70, 0
2, 491800, Note_on_c, 1, 66, 127
2, 491960, Note_off_c, 1, 61, 0
2, 491960, Note_off_c, 1, 66, 0
2, 492000, Note_on_c, 1, 59, 127
2, 492000, Note_on_c, 1, 68, 127
2, 492120, Note_off_c, 1, 68, 0
2, 492160, Note_on_c, 1, 65, 127
2, 492320, Note_off_c, 1, 59, 0
2, 492320, Note_off_c, 1, 65, 0
2, 492360, Note_on_c, 1, 59, 127
2, 492360, Note_on_c, 1, 66, 127
2, 492520, Note_off_c, 1, 59, 0
2, 492560, Note_on_c, 1, 58, 127
2, 492680, Note_off_c, 1, 58, 0
2, 492680, Note_off_c, 1, 66, 0
2, 492720, Note_on_c, 1, 56, 127
2, 492720, Note_on_c, 1, 61, 127
2, 492880, Note_off_c, 1, 56, 0
2, 492920, Note_on_c, 1, 58, 127
2, 493040, Note_off_c, 1, 54, 0
2, 493080, Note_off_c, 1, 58, 0
2, 493080, Note_off_c, 1, 61, 0
2, 493120, Note_on_c, 1, 54, 127
2, 493120, Note_on_c, 1, 59, 127
2, 493120, Note_on_c, 1, 63, 127
2, 493240, Note_off_c, 1, 63, 0
2, 493280, Note_on_c, 1, 61, 127
2, 493440, Note_off_c, 1, 59, 0
2, 493440, Note_off_c, 1, 61, 0
2, 493480, Note_on_c, 1, 58, 127
2, 493480, Note_on_c, 1, 66, 127
2, 493640, Note_off_c, 1, 66, 0
2, 493680, Note_on_c, 1, 61, 127
2, 493800, Note_off_c, 1, 58, 0
2, 493800, Note_off_c, 1, 61, 0
2, 493840, Note_on_c, 1, 59, 127
2, 493840, Note_on_c, 1, 63, 127
2, 494000, Note_off_c, 1, 63, 0
2, 494040, Note_on_c, 1, 61, 127
2, 494200, Note_off_c, 1, 59, 0
2, 494200, Note_off_c, 1, 61, 0
2, 494240, Note_on_c, 1, 58, 127
2, 494240, Note_on_c, 1, 66, 127
2, 494360, Note_off_c, 1, 66, 0
2, 494400, Note_on_c, 1, 61, 127
2, 494560, Note_off_c, 1, 58, 0
2, 494560, Note_off_c, 1, 61, 0
2, 494600, Note_on_c, 1, 59, 127
2, 494600, Note_on_c, 1, 63, 127
2, 494760, Note_off_c, 1, 63, 0
2, 494800, Note_on_c, 1, 61, 127
2, 494920, Note_off_c, 1, 59, 0
2, 494920, Note_off_c, 1, 61, 0
2, 494960, Note_on_c, 1, 59, 127
2, 494960, Note_on_c, 1, 68, 127
2, 495120, Note_off_c, 1, 59, 0
2, 495160, Note_on_c, 1, 56, 127
2, 495320, Note_off_c, 1, 56, 0
2, 495320, Note_off_c, 1, 68, 0
2, 495360, Note_on_c, 1, 59, 127
2, 495360, Note_on_c, 1, 65, 127
2, 495360, Note_on_c, 1, 68, 127
2, 496040, Note_off_c, 1, 54, 0
2, 496040, Note_off_c, 1, 59, 0
2, 496040, Note_off_c, 1, 65, 0
2, 496040, Note_off_c, 1, 68, 0
2, 496120, Note_on_c, 1, 54, 127
2, 496120, Note_on_c, 1, 59, 127
2, 496120, Note_on_c, 1, 68, 127
2, 496440, Note_off_c, 1, 59, 0
2, 496440, Note_off_c, 1, 68, 0
2, 496480, Note_on_c, 1, 61, 127
2, 496480, Note_on_c, 1, 70, 127
2, 496640, Note_off_c, 1, 70, 0
2, 496680, Note_on_c, 1, 66, 127
2, 496800, Note_off_c, 1, 61, 0
2, 496800, Note_off_c, 1, 66, 0
2, 496840, Note_on_c, 1, 63, 127
2, 496840, Note_on_c, 1, 71, 127
2, 497200, Note_off_c, 1, 63, 0
2, 497200, Note_off_c, 1, 71, 0
2, 497240, Note_on_c, 1, 61, 127
2, 497240, Note_on_c, 1, 70, 127
2, 497360, Note_off_c, 1, 70, 0
2, 497400, Note_on_c, 1, 66, 127
2, 497560, Note_off_c, 1, 61, 0
2, 497560, Note_off_c, 1, 66, 0
2, 497600, Note_on_c, 1, 59, 127
2, 497600, Note_on_c, 1, 75, 127
2, 497760, Note_off_c, 1, 75, 0
2, 497800, Note_on_c, 1, 71, 127
2, 497920, Note_off_c, 1, 59, 0
2, 497920, Note_off_c, 1, 71, 0
2, 497960, Note_on_c, 1, 58, 127
2, 497960, Note_on_c, 1, 73, 127
2, 498120, Note_off_c, 1, 73, 0
2, 498160, Note_on_c, 1, 70, 127
2, 498320, Note_off_c, 1, 58, 0
2, 498320, Note_off_c, 1, 70, 0
2, 498360, Note_on_c, 1, 56, 127
2, 498360, Note_on_c, 1, 71, 127
2, 498480, Note_off_c, 1, 71, 0
2, 498520, Note_on_c, 1, 70, 127
2, 498680, Note_off_c, 1, 56, 0
2, 498680, Note_off_c, 1, 70, 0
2, 498720, Note_on_c, 1, 58, 127
2, 498720, Note_on_c, 1, 68, 127
2, 498880, Note_off_c, 1, 68, 0
2, 498920, Note_on_c, 1, 66, 127
2, 499040, Note_off_c, 1, 54, 0
2, 499040, Note_off_c, 1, 58, 0
2, 499040, Note_off_c, 1, 66, 0
2, 499080, Note_on_c, 1, 54, 127
2, 499080, Note_on_c, 1, 59, 127
2, 499080, Note_on_c, 1, 68, 127
2, 499240, Note_off_c, 1, 68, 0
2, 499280, Note_on_c, 1, 70, 127
2, 499440, Note_off_c, 1, 59, 0
2, 499440, Note_off_c, 1, 70, 0
2, 499480, Note_on_c, 1, 61, 127
2, 499480, Note_on_c, 1, 71, 127
2, 499600, Note_off_c, 1, 71, 0
2, 499640, Note_on_c, 1, 70, 127
2, 499800, Note_off_c, 1, 61, 0
2, 499800, Note_off_c, 1, 70, 0
2, 499840, Note_on_c, 1, 59, 127
2, 499840, Note_on_c, 1, 68, 127
2, 500000, Note_off_c, 1, 68, 0
2, 500040, Note_on_c, 1, 66, 127
2, 500160, Note_off_c, 1, 59, 0
2, 500160, Note_off_c, 1, 66, 0
2, 500200, Note_on_c, 1, 63, 127
2, 500200, Note_on_c, 1, 65, 127
2, 500360, Note_off_c, 1, 65, 0
2, 500400, Note_on_c, 1, 66, 127
2, 500560, Note_off_c, 1, 63, 0
2, 500560, Note_off_c, 1, 66, 0
2, 500600, Note_on_c, 1, 61, 127
2, 500600, Note_on_c, 1, 68, 127
2, 500720, Note_off_c, 1, 68, 0
2, 500800, Note_on_c, 1, 66, 127
2, 500920, Note_off_c, 1, 61, 0
2, 500920, Note_off_c, 1, 66, 0
2, 500960, Note_on_c, 1, 59, 127
2, 500960, Note_on_c, 1, 65, 127
2, 501120, Note_off_c, 1, 65, 0
2, 501160, Note_on_c, 1, 63, 127
2, 501320, Note_off_c, 1, 59, 0
2, 501320, Note_off_c, 1, 63, 0
2, 501360, Note_on_c, 1, 58, 127
2, 501360, Note_on_c, 1, 61, 127
2, 501680, Note_off_c, 1, 58, 0
2, 501720, Note_on_c, 1, 59, 127
2, 502040, Note_off_c, 1, 54, 0
2, 502040, Note_off_c, 1, 59, 0
2, 502080, Note_on_c, 1, 54, 127
2, 502080, Note_on_c, 1, 58, 127
2, 502440, Note_off_c, 1, 58, 0
2, 502440, Note_off_c, 1, 61, 0
2, 502480, Note_on_c, 1, 56, 127
2, 502480, Note_on_c, 1, 63, 127
2, 502600, Note_off_c, 1, 63, 0
2, 502640, Note_on_c, 1, 59, 127
2, 502800, Note_off_c, 1, 56, 0
2, 502800, Note_off_c, 1, 59, 0
2, 502840, Note_on_c, 1, 58, 127
2, 502840, Note_on_c, 1, 61, 127
2, 503160, Note_off_c, 1, 58, 0
2, 503160, Note_off_c, 1, 61, 0
2, 503200, Note_on_c, 1, 59, 127
2, 503200, Note_on_c, 1, 66, 127
2, 503360, Note_off_c, 1, 66, 0
2, 503400, Note_on_c, 1, 68, 127
2, 503560, Note_off_c, 1, 59, 0
2, 503560, Note_off_c, 1, 68, 0
2, 503600, Note_on_c, 1, 61, 127
2, 503600, Note_on_c, 1, 70, 127
2, 503920, Note_off_c, 1, 61, 0
2, 503920, Note_off_c, 1, 70, 0
2, 503960, Note_on_c, 1, 59, 127
2, 503960, Note_on_c, 1, 68, 127
2, 504120, Note_off_c, 1, 68, 0
2, 504160, Note_on_c, 1, 65, 127
2, 504280, Note_off_c, 1, 59, 0
2, 504280, Note_off_c, 1, 65, 0
2, 504320, Note_on_c, 1, 58, 127
2, 504320, Note_on_c, 1, 66, 127
2, 504680, Note_off_c, 1, 66, 0
2, 504720, Note_on_c, 1, 61, 127
2, 505040, Note_off_c, 1, 54, 0
2, 505040, Note_off_c, 1, 58, 0
2, 505040, Note_off_c, 1, 61, 0
2, 505120, Note_on_c, 1, 54, 127
2, 505120, Note_on_c, 1, 61, 127
2, 505120, Note_on_c, 1, 70, 127
2, 505240, Note_off_c, 1, 70, 0
2, 505280, Note_on_c, 1, 65, 127
2, 505440, Note_off_c, 1, 65, 0
2, 505480, Note_on_c, 1, 66, 127
2, 505640, Note_off_c, 1, 61, 0
2, 505680, Note_on_c, 1, 61, 127
2, 505680, Note_off_c, 1, 66, 0
2, 505840, Note_off_c, 1, 61, 0
2, 505880, Note_on_c, 1, 58, 127
2, 505880, Note_on_c, 1, 73, 127
2, 506000, Note_off_c, 1, 73, 0
2, 506040, Note_on_c, 1, 65, 127
2, 506200, Note_off_c, 1, 65, 0
2, 506240, Note_on_c, 1, 66, 127
2, 506440, Note_on_c, 1, 61, 127
2, 506440, Note_off_c, 1, 66, 0
2, 506560, Note_off_c, 1, 58, 0
2, 506600, Note_off_c, 1, 61, 0
2, 506640, Note_on_c, 1, 61, 127
2, 506640, Note_on_c, 1, 70, 127
2, 506800, Note_off_c, 1, 70, 0
2, 506840, Note_on_c, 1, 65, 127
2, 506960, Note_off_c, 1, 65, 0
2, 507000, Note_on_c, 1, 66, 127
2, 507160, Note_off_c, 1, 61, 0
2, 507200, Note_on_c, 1, 61, 127
2, 507240, Note_off_c, 1, 66, 0
2, 507360, Note_off_c, 1, 61, 0
2, 507440, Note_on_c, 1, 58, 127
2, 507440, Note_on_c, 1, 61, 127
2, 507440, Note_on_c, 1, 66, 127
2, 509760, Note_off_c, 1, 54, 0
2, 509840, Note_off_c, 1, 58, 0
2, 509840, Note_off_c, 1, 61, 0
2, 509840, Note_off_c, 1, 66, 0
2, 511520, Note_on_c, 1, 73, 127
2, 511640, Note_off_c, 1, 73, 0
2, 511680, Note_on_c, 1, 74, 127
2, 511840, Note_off_c, 1, 74, 0
2, 511880, Note_on_c, 1, 73, 127
2, 512000, Note_off_c, 1, 73, 0
2, 512040, Note_on_c, 1, 71, 127
2, 512160, Note_off_c, 1, 71, 0
2, 512240, Note_on_c, 1, 69, 127
2, 512360, Note_off_c, 1, 69, 0
2, 512400, Note_on_c, 1, 68, 127
2, 512560, Note_off_c, 1, 68, 0
2, 512600, Note_on_c, 1, 66, 127
2, 512720, Note_off_c, 1, 66, 0
2, 512760, Note_on_c, 1, 65, 127
2, 512920, Note_off_c, 1, 65, 0
2, 512960, Note_on_c, 1, 68, 127
2, 513080, Note_off_c, 1, 68, 0
2, 513120, Note_on_c, 1, 61, 127
2, 513240, Note_off_c, 1, 61, 0
2, 513320, Note_on_c, 1, 59, 127
2, 513440, Note_off_c, 1, 59, 0
2, 513480, Note_on_c, 1, 57, 127
2, 513600, Note_off_c, 1, 57, 0
2, 513680, Note_on_c, 1, 56, 127
2, 513800, Note_off_c, 1, 56, 0
2, 513840, Note_on_c, 1, 57, 127
2, 513960, Note_off_c, 1, 57, 0
2, 514000, Note_on_c, 1, 61, 127
2, 514160, Note_off_c, 1, 61, 0
2, 514200, Note_on_c, 1, 66, 127
2, 514320, Note_off_c, 1, 66, 0
2, 514360, Note_on_c, 1, 56, 127
2, 514520, Note_off_c, 1, 56, 0
2, 514560, Note_on_c, 1, 66, 127
2, 514680, Note_off_c, 1, 66, 0
2, 514720, Note_on_c, 1, 65, 127
2, 514840, Note_off_c, 1, 65, 0
2, 514920, Note_on_c, 1, 66, 127
2, 515040, Note_off_c, 1, 66, 0
2, 515080, Note_on_c, 1, 69, 127
2, 515200, Note_off_c, 1, 69, 0
2, 515280, Note_on_c, 1, 68, 127
2, 515400, Note_off_c, 1, 68, 0
2, 515440, Note_on_c, 1, 69, 127
2, 515560, Note_off_c, 1, 69, 0
2, 515640, Note_on_c, 1, 73, 127
2, 515760, Note_off_c, 1, 73, 0
2, 515800, Note_on_c, 1, 66, 127
2, 515800, Note_on_c, 1, 71, 127
2, 515920, Note_off_c, 1, 66, 0
2, 515920, Note_off_c, 1, 71, 0
2, 515960, Note_on_c, 1, 69, 127
2, 515960, Note_on_c, 1, 73, 127
2, 516120, Note_off_c, 1, 69, 0
2, 516160, Note_on_c, 1, 68, 127
2, 516280, Note_off_c, 1, 68, 0
2, 516320, Note_on_c, 1, 66, 127
2, 516440, Note_off_c, 1, 66, 0
2, 516520, Note_on_c, 1, 64, 127
2, 516640, Note_off_c, 1, 64, 0
2, 516640, Note_off_c, 1, 73, 0
2, 516680, Note_on_c, 1, 63, 127
2, 516680, Note_on_c, 1, 75, 127
2, 516840, Note_off_c, 1, 63, 0
2, 516840, Note_off_c, 1, 75, 0
2, 516880, Note_on_c, 1, 61, 127
2, 516880, Note_on_c, 1, 76, 127
2, 517000, Note_off_c, 1, 61, 0
2, 517000, Note_off_c, 1, 76, 0
2, 517040, Note_on_c, 1, 60, 127
2, 517040, Note_on_c, 1, 75, 127
2, 517200, Note_off_c, 1, 60, 0
2, 517240, Note_on_c, 1, 63, 127
2, 517360, Note_off_c, 1, 63, 0
2, 517400, Note_on_c, 1, 56, 127
2, 517520, Note_off_c, 1, 56, 0
2, 517600, Note_on_c, 1, 54, 127
2, 517720, Note_off_c, 1, 54, 0
2, 517720, Note_off_c, 1, 75, 0
2, 517760, Note_on_c, 1, 52, 127
2, 517760, Note_on_c, 1, 76, 127
2, 517880, Note_off_c, 1, 52, 0
2, 517880, Note_off_c, 1, 76, 0
2, 517960, Note_on_c, 1, 51, 127
2, 517960, Note_on_c, 1, 78, 127
2, 518040, Note_off_c, 1, 51, 0
2, 518040, Note_off_c, 1, 78, 0
2, 518120, Note_on_c, 1, 52, 127
2, 518120, Note_on_c, 1, 80, 127
2, 518240, Note_off_c, 1, 52, 0
2, 518240, Note_off_c, 1, 80, 0
2, 518280, Note_on_c, 1, 56, 127
2, 518280, Note_on_c, 1, 78, 127
2, 518440, Note_off_c, 1, 56, 0
2, 518440, Note_off_c, 1, 78, 0
2, 518480, Note_on_c, 1, 61, 127
2, 518480, Note_on_c, 1, 76, 127
2, 518600, Note_off_c, 1, 61, 0
2, 518600, Note_off_c, 1, 76, 0
2, 518640, Note_on_c, 1, 51, 127
2, 518640, Note_on_c, 1, 78, 127
2, 518800, Note_off_c, 1, 51, 0
2, 518800, Note_off_c, 1, 78, 0
2, 518840, Note_on_c, 1, 61, 127
2, 518840, Note_on_c, 1, 76, 127
2, 518960, Note_off_c, 1, 61, 0
2, 518960, Note_off_c, 1, 76, 0
2, 519000, Note_on_c, 1, 60, 127
2, 519000, Note_on_c, 1, 75, 127
2, 519120, Note_off_c, 1, 60, 0
2, 519120, Note_off_c, 1, 75, 0
2, 519200, Note_on_c, 1, 61, 127
2, 519200, Note_on_c, 1, 76, 127
2, 519320, Note_off_c, 1, 76, 0
2, 519360, Note_on_c, 1, 78, 127
2, 519480, Note_off_c, 1, 78, 0
2, 519560, Note_on_c, 1, 80, 127
2, 519680, Note_off_c, 1, 80, 0
2, 519720, Note_on_c, 1, 73, 127
2, 519840, Note_off_c, 1, 61, 0
2, 519920, Note_on_c, 1, 63, 127
2, 520040, Note_off_c, 1, 63, 0
2, 520080, Note_on_c, 1, 64, 127
2, 520200, Note_off_c, 1, 64, 0
2, 520240, Note_on_c, 1, 63, 127
2, 520400, Note_off_c, 1, 73, 0
2, 520440, Note_on_c, 1, 71, 127
2, 520560, Note_off_c, 1, 71, 0
2, 520600, Note_on_c, 1, 69, 127
2, 520720, Note_off_c, 1, 69, 0
2, 520800, Note_on_c, 1, 71, 127
2, 520920, Note_off_c, 1, 63, 0
2, 520960, Note_on_c, 1, 65, 127
2, 521080, Note_off_c, 1, 65, 0
2, 521160, Note_on_c, 1, 66, 127
2, 521280, Note_off_c, 1, 66, 0
2, 521320, Note_on_c, 1, 68, 127
2, 521480, Note_off_c, 1, 68, 0
2, 521520, Note_on_c, 1, 66, 127
2, 521640, Note_off_c, 1, 66, 0
2, 521640, Note_off_c, 1, 71, 0
2, 521680, Note_on_c, 1, 65, 127
2, 521680, Note_on_c, 1, 73, 127
2, 521800, Note_off_c, 1, 65, 0
2, 521800, Note_off_c, 1, 73, 0
2, 521880, Note_on_c, 1, 66, 127
2, 521880, Note_on_c, 1, 69, 127
2, 522000, Note_off_c, 1, 66, 0
2, 522040, Note_on_c, 1, 65, 127
2, 522160, Note_off_c, 1, 65, 0
2, 522160, Note_off_c, 1, 69, 0
2, 522200, Note_on_c, 1, 63, 127
2, 522200, Note_on_c, 1, 71, 127
2, 522320, Note_off_c, 1, 63, 0
2, 522320, Note_off_c, 1, 71, 0
2, 522400, Note_on_c, 1, 65, 127
2, 522400, Note_on_c, 1, 68, 127
2, 522520, Note_off_c, 1, 65, 0
2, 522560, Note_on_c, 1, 63, 127
2, 522720, Note_off_c, 1, 63, 0
2, 522720, Note_off_c, 1, 68, 0
2, 522760, Note_on_c, 1, 61, 127
2, 522760, Note_on_c, 1, 69, 127
2, 522880, Note_off_c, 1, 61, 0
2, 522880, Note_off_c, 1, 69, 0
2, 522920, Note_on_c, 1, 63, 127
2, 522920, Note_on_c, 1, 71, 127
2, 523080, Note_off_c, 1, 63, 0
2, 523120, Note_on_c, 1, 66, 127
2, 523240, Note_off_c, 1, 66, 0
2, 523240, Note_off_c, 1, 71, 0
2, 523280, Note_on_c, 1, 61, 127
2, 523280, Note_on_c, 1, 65, 127
2, 523280, Note_on_c, 1, 73, 127
2, 523400, Note_off_c, 1, 61, 0
2, 523400, Note_off_c, 1, 65, 0
2, 523400, Note_off_c, 1, 73, 0
2, 523480, Note_on_c, 1, 62, 127
2, 523480, Note_on_c, 1, 66, 127
2, 523480, Note_on_c, 1, 69, 127
2, 523600, Note_off_c, 1, 62, 0
2, 523640, Note_on_c, 1, 61, 127
2, 523760, Note_off_c, 1, 61, 0
2, 523800, Note_off_c, 1, 69, 0
2, 523840, Note_on_c, 1, 59, 127
2, 523840, Note_on_c, 1, 71, 127
2, 523960, Note_off_c, 1, 59, 0
2, 523960, Note_off_c, 1, 71, 0
2, 524000, Note_on_c, 1, 57, 127
2, 524000, Note_on_c, 1, 73, 127
2, 524120, Note_off_c, 1, 57, 0
2, 524120, Note_off_c, 1, 66, 0
2, 524200, Note_on_c, 1, 56, 127
2, 524200, Note_on_c, 1, 68, 127
2, 524320, Note_off_c, 1, 56, 0
2, 524320, Note_off_c, 1, 68, 0
2, 524360, Note_on_c, 1, 54, 127
2, 524360, Note_on_c, 1, 69, 127
2, 524480, Note_off_c, 1, 54, 0
2, 524480, Note_off_c, 1, 69, 0
2, 524520, Note_on_c, 1, 53, 127
2, 524520, Note_on_c, 1, 68, 127
2, 524680, Note_off_c, 1, 53, 0
2, 524720, Note_on_c, 1, 56, 127
2, 524840, Note_off_c, 1, 56, 0
2, 524840, Note_off_c, 1, 73, 0
2, 524880, Note_on_c, 1, 49, 127
2, 524880, Note_on_c, 1, 75, 127
2, 525000, Note_off_c, 1, 49, 0
2, 525000, Note_off_c, 1, 75, 0
2, 525080, Note_on_c, 1, 47, 127
2, 525080, Note_on_c, 1, 77, 127
2, 525200, Note_off_c, 1, 47, 0
2, 525200, Note_off_c, 1, 68, 0
2, 525240, Note_on_c, 1, 45, 127
2, 525240, Note_on_c, 1, 69, 127
2, 525360, Note_off_c, 1, 45, 0
2, 525360, Note_off_c, 1, 69, 0
2, 525440, Note_on_c, 1, 44, 127
2, 525440, Note_on_c, 1, 71, 127
2, 525560, Note_off_c, 1, 44, 0
2, 525560, Note_off_c, 1, 71, 0
2, 525560, Note_off_c, 1, 77, 0
2, 525600, Note_on_c, 1, 45, 127
2, 525600, Note_on_c, 1, 73, 127
2, 525600, Note_on_c, 1, 78, 127
2, 525760, Note_off_c, 1, 45, 0
2, 525760, Note_off_c, 1, 73, 0
2, 525800, Note_on_c, 1, 49, 127
2, 525800, Note_on_c, 1, 71, 127
2, 525920, Note_off_c, 1, 49, 0
2, 525920, Note_off_c, 1, 71, 0
2, 525960, Note_on_c, 1, 54, 127
2, 525960, Note_on_c, 1, 69, 127
2, 526080, Note_off_c, 1, 54, 0
2, 526080, Note_off_c, 1, 69, 0
2, 526080, Note_off_c, 1, 78, 0
2, 526160, Note_on_c, 1, 44, 127
2, 526160, Note_on_c, 1, 71, 127
2, 526160, Note_on_c, 1, 80, 127
2, 526280, Note_off_c, 1, 44, 0
2, 526280, Note_off_c, 1, 71, 0
2, 526320, Note_on_c, 1, 54, 127
2, 526320, Note_on_c, 1, 69, 127
2, 526440, Note_off_c, 1, 54, 0
2, 526440, Note_off_c, 1, 69, 0
2, 526480, Note_on_c, 1, 53, 127
2, 526480, Note_on_c, 1, 68, 127
2, 526600, Note_off_c, 1, 53, 0
2, 526600, Note_off_c, 1, 68, 0
2, 526680, Note_on_c, 1, 54, 127
2, 526680, Note_on_c, 1, 69, 127
2, 526800, Note_off_c, 1, 54, 0
2, 526840, Note_on_c, 1, 57, 127
2, 527000, Note_off_c, 1, 57, 0
2, 527040, Note_on_c, 1, 56, 127
2, 527160, Note_off_c, 1, 56, 0
2, 527160, Note_off_c, 1, 80, 0
2, 527200, Note_on_c, 1, 57, 127
2, 527200, Note_on_c, 1, 78, 127
2, 527360, Note_off_c, 1, 57, 0
2, 527400, Note_on_c, 1, 61, 127
2, 527520, Note_off_c, 1, 61, 0
2, 527560, Note_on_c, 1, 59, 127
2, 527680, Note_off_c, 1, 59, 0
2, 527720, Note_off_c, 1, 69, 0
2, 527760, Note_on_c, 1, 61, 127
2, 527760, Note_on_c, 1, 68, 127
2, 527880, Note_off_c, 1, 78, 0
2, 527920, Note_on_c, 1, 76, 127
2, 528040, Note_off_c, 1, 76, 0
2, 528120, Note_on_c, 1, 75, 127
2, 528240, Note_off_c, 1, 75, 0
2, 528280, Note_on_c, 1, 76, 127
2, 528400, Note_off_c, 1, 61, 0
2, 528480, Note_on_c, 1, 56, 127
2, 528600, Note_off_c, 1, 56, 0
2, 528640, Note_on_c, 1, 49, 127
2, 528760, Note_off_c, 1, 49, 0
2, 528760, Note_off_c, 1, 68, 0
2, 528800, Note_on_c, 1, 50, 127
2, 528800, Note_on_c, 1, 66, 127
2, 528960, Note_off_c, 1, 50, 0
2, 529000, Note_on_c, 1, 54, 127
2, 529120, Note_off_c, 1, 54, 0
2, 529160, Note_on_c, 1, 52, 127
2, 529280, Note_off_c, 1, 52, 0
2, 529320, Note_off_c, 1, 76, 0
2, 529360, Note_on_c, 1, 54, 127
2, 529360, Note_on_c, 1, 74, 127
2, 529480, Note_off_c, 1, 54, 0
2, 529520, Note_on_c, 1, 57, 127
2, 529640, Note_off_c, 1, 57, 0
2, 529720, Note_on_c, 1, 56, 127
2, 529840, Note_off_c, 1, 56, 0
2, 529840, Note_off_c, 1, 66, 0
2, 529880, Note_on_c, 1, 57, 127
2, 529880, Note_on_c, 1, 64, 127
2, 530040, Note_off_c, 1, 74, 0
2, 530080, Note_on_c, 1, 73, 127
2, 530200, Note_off_c, 1, 73, 0
2, 530240, Note_on_c, 1, 71, 127
2, 530360, Note_off_c, 1, 71, 0
2, 530440, Note_on_c, 1, 73, 127
2, 530560, Note_off_c, 1, 57, 0
2, 530600, Note_on_c, 1, 52, 127
2, 530720, Note_off_c, 1, 52, 0
2, 530760, Note_on_c, 1, 45, 127
2, 530880, Note_off_c, 1, 45, 0
2, 530920, Note_off_c, 1, 64, 0
2, 530960, Note_on_c, 1, 47, 127
2, 530960, Note_on_c, 1, 62, 127
2, 531080, Note_off_c, 1, 47, 0
2, 531120, Note_on_c, 1, 50, 127
2, 531280, Note_off_c, 1, 50, 0
2, 531320, Note_on_c, 1, 49, 127
2, 531440, Note_off_c, 1, 49, 0
2, 531440, Note_off_c, 1, 73, 0
2, 531480, Note_on_c, 1, 50, 127
2, 531480, Note_on_c, 1, 71, 127
2, 531640, Note_off_c, 1, 50, 0
2, 531680, Note_on_c, 1, 54, 127
2, 531800, Note_off_c, 1, 54, 0
2, 531840, Note_on_c, 1, 52, 127
2, 531960, Note_off_c, 1, 52, 0
2, 532000, Note_off_c, 1, 62, 0
2, 532040, Note_on_c, 1, 54, 127
2, 532040, Note_on_c, 1, 61, 127
2, 532160, Note_off_c, 1, 71, 0
2, 532200, Note_on_c, 1, 69, 127
2, 532320, Note_off_c, 1, 69, 0
2, 532400, Note_on_c, 1, 68, 127
2, 532520, Note_off_c, 1, 68, 0
2, 532560, Note_on_c, 1, 69, 127
2, 532680, Note_off_c, 1, 61, 0
2, 532760, Note_on_c, 1, 64, 127
2, 532880, Note_off_c, 1, 54, 0
2, 532880, Note_off_c, 1, 64, 0
2, 532920, Note_on_c, 1, 48, 127
2, 532920, Note_on_c, 1, 63, 127
2, 533040, Note_off_c, 1, 48, 0
2, 533040, Note_off_c, 1, 63, 0
2, 533080, Note_on_c, 1, 49, 127
2, 533080, Note_on_c, 1, 64, 127
2, 533240, Note_off_c, 1, 69, 0
2, 533280, Note_on_c, 1, 68, 127
2, 533400, Note_off_c, 1, 49, 0
2, 533400, Note_off_c, 1, 64, 0
2, 533440, Note_on_c, 1, 47, 127
2, 533440, Note_on_c, 1, 63, 127
2, 533560, Note_off_c, 1, 47, 0
2, 533560, Note_off_c, 1, 63, 0
2, 533640, Note_on_c, 1, 47, 127
2, 533640, Note_on_c, 1, 61, 127
2, 533680, Note_off_c, 1, 47, 0
2, 533720, Note_on_c, 1, 45, 127
2, 533760, Note_off_c, 1, 45, 0
2, 533760, Note_off_c, 1, 68, 0
2, 533800, Note_on_c, 1, 47, 127
2, 533800, Note_on_c, 1, 68, 127
2, 533840, Note_off_c, 1, 47, 0
2, 533920, Note_on_c, 1, 45, 127
2, 533960, Note_off_c, 1, 45, 0
2, 533960, Note_off_c, 1, 68, 0
2, 534000, Note_on_c, 1, 47, 127
2, 534000, Note_on_c, 1, 66, 127
2, 534040, Note_off_c, 1, 47, 0
2, 534080, Note_on_c, 1, 45, 127
2, 534120, Note_off_c, 1, 45, 0
2, 534120, Note_off_c, 1, 66, 0
2, 534160, Note_on_c, 1, 44, 127
2, 534160, Note_on_c, 1, 68, 127
2, 534320, Note_off_c, 1, 61, 0
2, 534360, Note_on_c, 1, 60, 127
2, 534480, Note_off_c, 1, 60, 0
2, 534520, Note_on_c, 1, 58, 127
2, 534640, Note_off_c, 1, 44, 0
2, 534640, Note_off_c, 1, 58, 0
2, 534640, Note_off_c, 1, 68, 0
2, 534720, Note_on_c, 1, 60, 127
2, 534880, Note_on_c, 1, 63, 127
2, 535000, Note_off_c, 1, 63, 0
2, 535040, Note_on_c, 1, 56, 127
2, 535040, Note_on_c, 1, 66, 127
2, 535160, Note_off_c, 1, 56, 0
2, 535160, Note_off_c, 1, 66, 0
2, 535200, Note_off_c, 1, 60, 0
2, 535240, Note_on_c, 1, 57, 127
2, 535240, Note_on_c, 1, 61, 127
2, 535240, Note_on_c, 1, 64, 127
2, 535360, Note_off_c, 1, 57, 0
2, 535400, Note_on_c, 1, 56, 127
2, 535560, Note_off_c, 1, 56, 0
2, 535600, Note_on_c, 1, 54, 127
2, 535720, Note_off_c, 1, 54, 0
2, 535760, Note_on_c, 1, 52, 127
2, 535920, Note_off_c, 1, 52, 0
2, 535920, Note_off_c, 1, 61, 0
2, 535920, Note_off_c, 1, 64, 0
2, 535960, Note_on_c, 1, 51, 127
2, 535960, Note_on_c, 1, 63, 127
2, 535960, Note_on_c, 1, 66, 127
2, 536080, Note_off_c, 1, 51, 0
2, 536080, Note_off_c, 1, 63, 0
2, 536080, Note_off_c, 1, 66, 0
2, 536120, Note_on_c, 1, 49, 127
2, 536120, Note_on_c, 1, 64, 127
2, 536120, Note_on_c, 1, 68, 127
2, 536240, Note_off_c, 1, 49, 0
2, 536240, Note_off_c, 1, 64, 0
2, 536240, Note_off_c, 1, 68, 0
2, 536320, Note_on_c, 1, 48, 127
2, 536320, Note_on_c, 1, 63, 127
2, 536320, Note_on_c, 1, 66, 127
2, 536440, Note_off_c, 1, 48, 0
2, 536480, Note_on_c, 1, 51, 127
2, 536600, Note_off_c, 1, 51, 0
2, 536680, Note_on_c, 1, 44, 127
2, 536800, Note_off_c, 1, 44, 0
2, 536840, Note_on_c, 1, 42, 127
2, 536960, Note_off_c, 1, 42, 0
2, 536960, Note_off_c, 1, 63, 0
2, 536960, Note_off_c, 1, 66, 0
2, 537000, Note_on_c, 1, 40, 127
2, 537000, Note_on_c, 1, 64, 127
2, 537000, Note_on_c, 1, 68, 127
2, 537160, Note_off_c, 1, 40, 0
2, 537160, Note_off_c, 1, 64, 0
2, 537160, Note_off_c, 1, 68, 0
2, 537200, Note_on_c, 1, 39, 127
2, 537200, Note_on_c, 1, 66, 127
2, 537200, Note_on_c, 1, 69, 127
2, 537320, Note_off_c, 1, 39, 0
2, 537320, Note_off_c, 1, 66, 0
2, 537320, Note_off_c, 1, 69, 0
2, 537360, Note_on_c, 1, 40, 127
2, 537360, Note_on_c, 1, 68, 127
2, 537520, Note_off_c, 1, 40, 0
2, 537560, Note_on_c, 1, 44, 127
2, 537560, Note_on_c, 1, 73, 127
2, 537680, Note_off_c, 1, 44, 0
2, 537680, Note_off_c, 1, 73, 0
2, 537720, Note_on_c, 1, 49, 127
2, 537720, Note_on_c, 1, 76, 127
2, 537840, Note_off_c, 1, 49, 0
2, 537880, Note_off_c, 1, 68, 0
2, 537920, Note_on_c, 1, 39, 127
2, 537920, Note_on_c, 1, 66, 127
2, 538040, Note_off_c, 1, 39, 0
2, 538040, Note_off_c, 1, 76, 0
2, 538080, Note_on_c, 1, 49, 127
2, 538080, Note_on_c, 1, 78, 127
2, 538200, Note_off_c, 1, 49, 0
2, 538200, Note_off_c, 1, 78, 0
2, 538280, Note_on_c, 1, 48, 127
2, 538280, Note_on_c, 1, 75, 127
2, 538400, Note_off_c, 1, 48, 0
2, 538400, Note_off_c, 1, 66, 0
2, 538400, Note_off_c, 1, 75, 0
2, 538440, Note_on_c, 1, 49, 127
2, 538440, Note_on_c, 1, 76, 127
2, 538560, Note_off_c, 1, 76, 0
2, 538640, Note_on_c, 1, 80, 127
2, 538760, Note_off_c, 1, 80, 0
2, 538800, Note_on_c, 1, 78, 127
2, 538920, Note_off_c, 1, 78, 0
2, 538960, Note_on_c, 1, 80, 127
2, 539120, Note_off_c, 1, 49, 0
2, 539160, Note_on_c, 1, 52, 127
2, 539280, Note_off_c, 1, 52, 0
2, 539320, Note_on_c, 1, 51, 127
2, 539440, Note_off_c, 1, 51, 0
2, 539480, Note_off_c, 1, 80, 0
2, 539520, Note_on_c, 1, 52, 127
2, 539520, Note_on_c, 1, 68, 127
2, 539640, Note_off_c, 1, 52, 0
2, 539640, Note_off_c, 1, 68, 0
2, 539680, Note_on_c, 1, 56, 127
2, 539680, Note_on_c, 1, 72, 127
2, 539800, Note_off_c, 1, 56, 0
2, 539800, Note_off_c, 1, 72, 0
2, 539880, Note_on_c, 1, 54, 127
2, 539880, Note_on_c, 1, 70, 127
2, 540000, Note_off_c, 1, 54, 0
2, 540000, Note_off_c, 1, 70, 0
2, 540040, Note_on_c, 1, 56, 127
2, 540040, Note_on_c, 1, 72, 127
2, 540200, Note_off_c, 1, 72, 0
2, 540240, Note_on_c, 1, 75, 127
2, 540360, Note_off_c, 1, 75, 0
2, 540400, Note_on_c, 1, 73, 127
2, 540520, Note_off_c, 1, 56, 0
2, 540520, Note_off_c, 1, 73, 0
2, 540600, Note_on_c, 1, 44, 127
2, 540600, Note_on_c, 1, 75, 127
2, 540720, Note_off_c, 1, 44, 0
2, 540760, Note_on_c, 1, 48, 127
2, 540880, Note_off_c, 1, 48, 0
2, 540920, Note_on_c, 1, 46, 127
2, 541040, Note_off_c, 1, 46, 0
2, 541080, Note_off_c, 1, 75, 0
2, 541120, Note_on_c, 1, 48, 127
2, 541120, Note_on_c, 1, 63, 127
2, 541240, Note_off_c, 1, 48, 0
2, 541240, Note_off_c, 1, 63, 0
2, 541280, Note_on_c, 1, 51, 127
2, 541280, Note_on_c, 1, 66, 127
2, 541440, Note_off_c, 1, 51, 0
2, 541440, Note_off_c, 1, 66, 0
2, 541480, Note_on_c, 1, 49, 127
2, 541480, Note_on_c, 1, 64, 127
2, 541600, Note_off_c, 1, 49, 0
2, 541600, Note_off_c, 1, 64, 0
2, 541640, Note_on_c, 1, 51, 127
2, 541640, Note_on_c, 1, 66, 127
2, 541800, Note_off_c, 1, 66, 0
2, 541840, Note_on_c, 1, 69, 127
2, 541960, Note_off_c, 1, 69, 0
2, 542000, Note_on_c, 1, 68, 127
2, 542120, Note_off_c, 1, 68, 0
2, 542200, Note_on_c, 1, 69, 127
2, 542320, Note_off_c, 1, 51, 0
2, 542360, Note_on_c, 1, 54, 127
2, 542480, Note_off_c, 1, 54, 0
2, 542560, Note_on_c, 1, 52, 127
2, 542680, Note_off_c, 1, 52, 0
2, 542680, Note_off_c, 1, 69, 0
2, 542720, Note_on_c, 1, 54, 127
2, 542720, Note_on_c, 1, 60, 127
2, 542840, Note_off_c, 1, 60, 0
2, 542880, Note_on_c, 1, 63, 127
2, 543040, Note_off_c, 1, 63, 0
2, 543080, Note_on_c, 1, 61, 127
2, 543200, Note_off_c, 1, 61, 0
2, 543240, Note_on_c, 1, 63, 127
2, 543400, Note_off_c, 1, 54, 0
2, 543400, Note_off_c, 1, 63, 0
2, 543440, Note_on_c, 1, 57, 127
2, 543440, Note_on_c, 1, 66, 127
2, 543560, Note_off_c, 1, 57, 0
2, 543560, Note_off_c, 1, 66, 0
2, 543600, Note_on_c, 1, 56, 127
2, 543600, Note_on_c, 1, 64, 127
2, 543720, Note_off_c, 1, 56, 0
2, 543720, Note_off_c, 1, 64, 0
2, 543800, Note_on_c, 1, 57, 127
2, 543800, Note_on_c, 1, 66, 127
2, 543920, Note_off_c, 1, 57, 0
2, 543920, Note_off_c, 1, 66, 0
2, 543960, Note_on_c, 1, 54, 127
2, 543960, Note_on_c, 1, 69, 127
2, 544080, Note_off_c, 1, 54, 0
2, 544080, Note_off_c, 1, 69, 0
2, 544160, Note_on_c, 1, 52, 127
2, 544160, Note_on_c, 1, 68, 127
2, 544280, Note_off_c, 1, 52, 0
2, 544280, Note_off_c, 1, 68, 0
2, 544320, Note_on_c, 1, 51, 127
2, 544320, Note_on_c, 1, 69, 127
2, 544480, Note_off_c, 1, 51, 0
2, 544480, Note_off_c, 1, 69, 0
2, 544520, Note_on_c, 1, 52, 127
2, 544520, Note_on_c, 1, 68, 127
2, 544640, Note_off_c, 1, 52, 0
2, 544640, Note_off_c, 1, 68, 0
2, 544680, Note_on_c, 1, 54, 127
2, 544680, Note_on_c, 1, 66, 127
2, 544800, Note_off_c, 1, 54, 0
2, 544800, Note_off_c, 1, 66, 0
2, 544880, Note_on_c, 1, 44, 127
2, 544880, Note_on_c, 1, 72, 127
2, 545000, Note_off_c, 1, 72, 0
2, 545040, Note_on_c, 1, 69, 127
2, 545160, Note_off_c, 1, 69, 0
2, 545200, Note_off_c, 1, 44, 0
2, 545200, Note_on_c, 1, 68, 127
2, 545320, Note_off_c, 1, 68, 0
2, 545400, Note_on_c, 1, 46, 127
2, 545400, Note_on_c, 1, 73, 127
2, 545520, Note_off_c, 1, 73, 0
2, 545560, Note_on_c, 1, 68, 127
2, 545720, Note_off_c, 1, 68, 0
2, 545760, Note_off_c, 1, 46, 0
2, 545760, Note_on_c, 1, 66, 127
2, 545880, Note_off_c, 1, 66, 0
2, 545920, Note_on_c, 1, 48, 127
2, 545920, Note_on_c, 1, 75, 127
2, 546080, Note_off_c, 1, 75, 0
2, 546120, Note_on_c, 1, 68, 127
2, 546240, Note_off_c, 1, 48, 0
2, 546240, Note_off_c, 1, 68, 0
2, 546280, Note_on_c, 1, 44, 127
2, 546280, Note_on_c, 1, 66, 127
2, 546400, Note_off_c, 1, 44, 0
2, 546400, Note_off_c, 1, 66, 0
2, 546480, Note_on_c, 1, 46, 127
2, 546480, Note_on_c, 1, 64, 127
2, 546600, Note_off_c, 1, 64, 0
2, 546640, Note_on_c, 1, 66, 127
2, 546760, Note_off_c, 1, 46, 0
2, 546760, Note_off_c, 1, 66, 0
2, 546840, Note_on_c, 1, 48, 127
2, 546840, Note_on_c, 1, 63, 127
2, 546960, Note_off_c, 1, 48, 0
2, 546960, Note_off_c, 1, 63, 0
2, 547000, Note_on_c, 1, 49, 127
2, 547000, Note_on_c, 1, 64, 127
2, 547120, Note_off_c, 1, 64, 0
2, 547160, Note_on_c, 1, 63, 127
2, 547320, Note_off_c, 1, 63, 0
2, 547360, Note_off_c, 1, 49, 0
2, 547360, Note_on_c, 1, 61, 127
2, 547480, Note_off_c, 1, 61, 0
2, 547520, Note_on_c, 1, 51, 127
2, 547520, Note_on_c, 1, 66, 127
2, 547680, Note_off_c, 1, 66, 0
2, 547720, Note_on_c, 1, 63, 127
2, 547840, Note_off_c, 1, 63, 0
2, 547880, Note_off_c, 1, 51, 0
2, 547880, Note_on_c, 1, 61, 127
2, 548000, Note_off_c, 1, 61, 0
2, 548080, Note_on_c, 1, 52, 127
2, 548080, Note_on_c, 1, 68, 127
2, 548200, Note_off_c, 1, 68, 0
2, 548240, Note_on_c, 1, 63, 127
2, 548360, Note_off_c, 1, 63, 0
2, 548440, Note_off_c, 1, 52, 0
2, 548440, Note_on_c, 1, 61, 127
2, 548560, Note_off_c, 1, 61, 0
2, 548600, Note_on_c, 1, 54, 127
2, 548600, Note_on_c, 1, 69, 127
2, 548760, Note_off_c, 1, 69, 0
2, 548800, Note_on_c, 1, 63, 127
2, 548920, Note_off_c, 1, 63, 0
2, 548960, Note_on_c, 1, 61, 127
2, 549080, Note_off_c, 1, 61, 0
2, 549160, Note_on_c, 1, 60, 127
2, 549240, Note_off_c, 1, 54, 0
2, 549280, Note_off_c, 1, 60, 0
2, 549320, Note_on_c, 1, 52, 127
2, 549320, Note_on_c, 1, 61, 127
2, 549440, Note_off_c, 1, 52, 0
2, 549440, Note_off_c, 1, 61, 0
2, 549480, Note_on_c, 1, 51, 127
2, 549480, Note_on_c, 1, 63, 127
2, 549600, Note_off_c, 1, 51, 0
2, 549600, Note_off_c, 1, 63, 0
2, 549680, Note_on_c, 1, 52, 127
2, 549680, Note_on_c, 1, 56, 127
2, 549800, Note_off_c, 1, 52, 0
2, 549840, Note_on_c, 1, 60, 127
2, 550000, Note_off_c, 1, 56, 0
2, 550000, Note_off_c, 1, 60, 0
2, 550040, Note_on_c, 1, 61, 127
2, 550040, Note_on_c, 1, 80, 127
2, 550160, Note_off_c, 1, 61, 0
2, 550160, Note_off_c, 1, 80, 0
2, 550200, Note_on_c, 1, 54, 127
2, 550200, Note_on_c, 1, 81, 127
2, 550360, Note_off_c, 1, 54, 0
2, 550360, Note_off_c, 1, 81, 0
2, 550400, Note_on_c, 1, 60, 127
2, 550400, Note_on_c, 1, 80, 127
2, 550520, Note_off_c, 1, 60, 0
2, 550520, Note_off_c, 1, 80, 0
2, 550560, Note_on_c, 1, 61, 127
2, 550560, Note_on_c, 1, 78, 127
2, 550680, Note_off_c, 1, 61, 0
2, 550680, Note_off_c, 1, 78, 0
2, 550760, Note_on_c, 1, 55, 127
2, 550760, Note_on_c, 1, 76, 127
2, 550880, Note_off_c, 1, 55, 0
2, 550880, Note_off_c, 1, 76, 0
2, 550920, Note_on_c, 1, 60, 127
2, 550920, Note_on_c, 1, 75, 127
2, 551040, Note_off_c, 1, 60, 0
2, 551040, Note_off_c, 1, 75, 0
2, 551120, Note_on_c, 1, 61, 127
2, 551120, Note_on_c, 1, 73, 127
2, 551240, Note_off_c, 1, 61, 0
2, 551240, Note_off_c, 1, 73, 0
2, 551280, Note_on_c, 1, 56, 127
2, 551280, Note_on_c, 1, 72, 127
2, 551400, Note_off_c, 1, 56, 0
2, 551400, Note_off_c, 1, 72, 0
2, 551440, Note_on_c, 1, 60, 127
2, 551440, Note_on_c, 1, 75, 127
2, 551600, Note_off_c, 1, 60, 0
2, 551600, Note_off_c, 1, 75, 0
2, 551640, Note_on_c, 1, 61, 127
2, 551640, Note_on_c, 1, 68, 127
2, 551760, Note_off_c, 1, 61, 0
2, 551760, Note_off_c, 1, 68, 0
2, 551800, Note_on_c, 1, 63, 127
2, 551800, Note_on_c, 1, 66, 127
2, 551960, Note_off_c, 1, 63, 0
2, 551960, Note_off_c, 1, 66, 0
2, 552000, Note_on_c, 1, 61, 127
2, 552000, Note_on_c, 1, 64, 127
2, 552120, Note_off_c, 1, 61, 0
2, 552120, Note_off_c, 1, 64, 0
2, 552160, Note_on_c, 1, 60, 127
2, 552160, Note_on_c, 1, 63, 127
2, 552280, Note_off_c, 1, 60, 0
2, 552280, Note_off_c, 1, 63, 0
2, 552360, Note_on_c, 1, 61, 127
2, 552360, Note_on_c, 1, 64, 127
2, 552480, Note_off_c, 1, 61, 0
2, 552480, Note_off_c, 1, 64, 0
2, 552520, Note_on_c, 1, 52, 127
2, 552520, Note_on_c, 1, 68, 127
2, 552640, Note_off_c, 1, 52, 0
2, 552640, Note_off_c, 1, 68, 0
2, 552720, Note_on_c, 1, 54, 127
2, 552720, Note_on_c, 1, 73, 127
2, 552840, Note_off_c, 1, 54, 0
2, 552840, Note_off_c, 1, 73, 0
2, 552880, Note_on_c, 1, 56, 127
2, 552880, Note_on_c, 1, 63, 127
2, 553040, Note_off_c, 1, 56, 0
2, 553040, Note_off_c, 1, 63, 0
2, 553080, Note_on_c, 1, 54, 127
2, 553080, Note_on_c, 1, 73, 127
2, 553200, Note_off_c, 1, 54, 0
2, 553200, Note_off_c, 1, 73, 0
2, 553240, Note_on_c, 1, 56, 127
2, 553240, Note_on_c, 1, 72, 127
2, 553360, Note_off_c, 1, 56, 0
2, 553360, Note_off_c, 1, 72, 0
2, 553440, Note_on_c, 1, 49, 127
2, 553440, Note_on_c, 1, 73, 127
2, 553560, Note_off_c, 1, 49, 0
2, 553560, Note_off_c, 1, 73, 0
2, 553600, Note_on_c, 1, 53, 127
2, 553600, Note_on_c, 1, 68, 127
2, 553720, Note_off_c, 1, 53, 0
2, 553720, Note_off_c, 1, 68, 0
2, 553760, Note_on_c, 1, 56, 127
2, 553760, Note_on_c, 1, 65, 127
2, 553880, Note_off_c, 1, 56, 0
2, 553880, Note_off_c, 1, 65, 0
2, 553960, Note_on_c, 1, 61, 127
2, 554280, Note_off_c, 1, 61, 0
2, 554320, Note_on_c, 1, 56, 127
2, 554440, Note_off_c, 1, 56, 0
2, 554480, Note_on_c, 1, 53, 127
2, 554640, Note_off_c, 1, 53, 0
2, 554680, Note_on_c, 1, 54, 127
2, 554800, Note_off_c, 1, 54, 0
2, 554840, Note_on_c, 1, 56, 127
2, 554960, Note_off_c, 1, 56, 0
2, 555040, Note_on_c, 1, 57, 127
2, 555160, Note_off_c, 1, 57, 0
2, 555200, Note_on_c, 1, 59, 127
2, 555320, Note_off_c, 1, 59, 0
2, 555400, Note_on_c, 1, 61, 127
2, 555520, Note_off_c, 1, 61, 0
2, 555560, Note_on_c, 1, 62, 127
2, 555680, Note_off_c, 1, 62, 0
2, 555720, Note_on_c, 1, 59, 127
2, 555880, Note_off_c, 1, 59, 0
2, 555920, Note_on_c, 1, 66, 127
2, 556040, Note_off_c, 1, 66, 0
2, 556080, Note_on_c, 1, 68, 127
2, 556240, Note_off_c, 1, 68, 0
2, 556280, Note_on_c, 1, 69, 127
2, 556400, Note_off_c, 1, 69, 0
2, 556440, Note_on_c, 1, 71, 127
2, 556560, Note_off_c, 1, 71, 0
2, 556640, Note_on_c, 1, 69, 127
2, 556760, Note_off_c, 1, 69, 0
2, 556800, Note_on_c, 1, 66, 127
2, 556920, Note_off_c, 1, 66, 0
2, 557000, Note_on_c, 1, 61, 127
2, 557120, Note_off_c, 1, 61, 0
2, 557160, Note_on_c, 1, 71, 127
2, 557280, Note_off_c, 1, 71, 0
2, 557360, Note_on_c, 1, 63, 127
2, 557480, Note_off_c, 1, 63, 0
2, 557520, Note_on_c, 1, 65, 127
2, 557640, Note_off_c, 1, 65, 0
2, 557680, Note_on_c, 1, 66, 127
2, 557840, Note_off_c, 1, 66, 0
2, 557880, Note_on_c, 1, 63, 127
2, 558000, Note_off_c, 1, 63, 0
2, 558040, Note_on_c, 1, 64, 127
2, 558160, Note_off_c, 1, 64, 0
2, 558240, Note_on_c, 1, 63, 127
2, 558360, Note_off_c, 1, 63, 0
2, 558400, Note_on_c, 1, 60, 127
2, 558520, Note_off_c, 1, 60, 0
2, 558600, Note_on_c, 1, 37, 127
2, 558600, Note_on_c, 1, 61, 127
2, 558720, Note_off_c, 1, 37, 0
2, 558720, Note_off_c, 1, 61, 0
2, 558760, Note_on_c, 1, 36, 127
2, 558760, Note_on_c, 1, 68, 127
2, 558920, Note_off_c, 1, 36, 0
2, 558960, Note_on_c, 1, 37, 127
2, 559080, Note_off_c, 1, 37, 0
2, 559120, Note_on_c, 1, 39, 127
2, 559240, Note_off_c, 1, 39, 0
2, 559320, Note_on_c, 1, 40, 127
2, 559440, Note_off_c, 1, 40, 0
2, 559440, Note_off_c, 1, 68, 0
2, 559480, Note_on_c, 1, 42, 127
2, 559480, Note_on_c, 1, 66, 127
2, 559600, Note_off_c, 1, 42, 0
2, 559600, Note_off_c, 1, 66, 0
2, 559680, Note_on_c, 1, 44, 127
2, 559680, Note_on_c, 1, 64, 127
2, 559760, Note_off_c, 1, 44, 0
2, 559760, Note_off_c, 1, 64, 0
2, 559840, Note_on_c, 1, 45, 127
2, 559840, Note_on_c, 1, 66, 127
2, 559960, Note_off_c, 1, 45, 0
2, 560000, Note_on_c, 1, 42, 127
2, 560160, Note_off_c, 1, 42, 0
2, 560200, Note_on_c, 1, 49, 127
2, 560320, Note_off_c, 1, 49, 0
2, 560360, Note_on_c, 1, 51, 127
2, 560520, Note_off_c, 1, 51, 0
2, 560520, Note_off_c, 1, 66, 0
2, 560560, Note_on_c, 1, 52, 127
2, 560560, Note_on_c, 1, 64, 127
2, 560680, Note_off_c, 1, 52, 0
2, 560680, Note_off_c, 1, 64, 0
2, 560720, Note_on_c, 1, 54, 127
2, 560720, Note_on_c, 1, 63, 127
2, 560840, Note_off_c, 1, 54, 0
2, 560840, Note_off_c, 1, 63, 0
2, 560920, Note_on_c, 1, 52, 127
2, 560920, Note_on_c, 1, 61, 127
2, 561040, Note_off_c, 1, 52, 0
2, 561040, Note_off_c, 1, 61, 0
2, 561080, Note_on_c, 1, 49, 127
2, 561080, Note_on_c, 1, 63, 127
2, 561200, Note_off_c, 1, 49, 0
2, 561200, Note_off_c, 1, 63, 0
2, 561280, Note_on_c, 1, 44, 127
2, 561280, Note_on_c, 1, 64, 127
2, 561400, Note_off_c, 1, 44, 0
2, 561400, Note_off_c, 1, 64, 0
2, 561440, Note_on_c, 1, 54, 127
2, 561440, Note_on_c, 1, 63, 127
2, 561560, Note_off_c, 1, 54, 0
2, 561560, Note_off_c, 1, 63, 0
2, 561640, Note_on_c, 1, 46, 127
2, 561640, Note_on_c, 1, 68, 127
2, 561760, Note_off_c, 1, 46, 0
2, 561760, Note_off_c, 1, 68, 0
2, 561800, Note_on_c, 1, 48, 127
2, 561800, Note_on_c, 1, 66, 127
2, 561920, Note_off_c, 1, 48, 0
2, 561920, Note_off_c, 1, 66, 0
2, 561960, Note_on_c, 1, 49, 127
2, 561960, Note_on_c, 1, 64, 127
2, 562120, Note_off_c, 1, 64, 0
2, 562160, Note_on_c, 1, 63, 127
2, 562280, Note_off_c, 1, 63, 0
2, 562320, Note_on_c, 1, 61, 127
2, 562440, Note_off_c, 1, 61, 0
2, 562520, Note_on_c, 1, 69, 127
2, 562640, Note_off_c, 1, 49, 0
2, 562680, Note_on_c, 1, 47, 127
2, 562800, Note_off_c, 1, 47, 0
2, 562880, Note_on_c, 1, 45, 127
2, 563000, Note_off_c, 1, 45, 0
2, 563040, Note_on_c, 1, 47, 127
2, 563200, Note_off_c, 1, 69, 0
2, 563240, Note_on_c, 1, 68, 127
2, 563360, Note_off_c, 1, 68, 0
2, 563400, Note_on_c, 1, 66, 127
2, 563520, Note_off_c, 1, 66, 0
2, 563600, Note_on_c, 1, 68, 127
2, 563720, Note_off_c, 1, 68, 0
2, 563760, Note_on_c, 1, 66, 127
2, 563880, Note_off_c, 1, 47, 0
2, 563880, Note_off_c, 1, 66, 0
2, 563960, Note_on_c, 1, 49, 127
2, 563960, Note_on_c, 1, 65, 127
2, 564040, Note_off_c, 1, 49, 0
2, 564040, Note_off_c, 1, 65, 0
2, 564120, Note_on_c, 1, 50, 127
2, 564120, Note_on_c, 1, 66, 127
2, 564240, Note_off_c, 1, 50, 0
2, 564280, Note_on_c, 1, 49, 127
2, 564440, Note_off_c, 1, 49, 0
2, 564440, Note_off_c, 1, 66, 0
2, 564480, Note_on_c, 1, 47, 127
2, 564480, Note_on_c, 1, 74, 127
2, 564600, Note_off_c, 1, 47, 0
2, 564600, Note_off_c, 1, 74, 0
2, 564640, Note_on_c, 1, 49, 127
2, 564640, Note_on_c, 1, 64, 127
2, 564800, Note_off_c, 1, 49, 0
2, 564840, Note_on_c, 1, 47, 127
2, 564960, Note_off_c, 1, 47, 0
2, 564960, Note_off_c, 1, 64, 0
2, 565000, Note_on_c, 1, 46, 127
2, 565000, Note_on_c, 1, 73, 127
2, 565120, Note_off_c, 1, 46, 0
2, 565120, Note_off_c, 1, 73, 0
2, 565200, Note_on_c, 1, 47, 127
2, 565200, Note_on_c, 1, 62, 127
2, 565320, Note_off_c, 1, 62, 0
2, 565360, Note_on_c, 1, 61, 127
2, 565480, Note_off_c, 1, 61, 0
2, 565520, Note_off_c, 1, 47, 0
2, 565560, Note_on_c, 1, 56, 127
2, 565560, Note_on_c, 1, 59, 127
2, 565680, Note_off_c, 1, 56, 0
2, 565680, Note_off_c, 1, 59, 0
2, 565720, Note_on_c, 1, 45, 127
2, 565720, Note_on_c, 1, 61, 127
2, 565840, Note_off_c, 1, 61, 0
2, 565920, Note_on_c, 1, 59, 127
2, 566040, Note_off_c, 1, 45, 0
2, 566040, Note_off_c, 1, 59, 0
2, 566080, Note_on_c, 1, 54, 127
2, 566080, Note_on_c, 1, 57, 127
2, 566200, Note_off_c, 1, 54, 0
2, 566200, Note_off_c, 1, 57, 0
2, 566240, Note_on_c, 1, 56, 127
2, 566240, Note_on_c, 1, 59, 127
2, 566400, Note_off_c, 1, 56, 0
2, 566440, Note_on_c, 1, 54, 127
2, 566560, Note_off_c, 1, 54, 0
2, 566560, Note_off_c, 1, 59, 0
2, 566600, Note_on_c, 1, 53, 127
2, 566600, Note_on_c, 1, 68, 127
2, 566720, Note_off_c, 1, 53, 0
2, 566720, Note_off_c, 1, 68, 0
2, 566800, Note_on_c, 1, 54, 127
2, 566800, Note_on_c, 1, 57, 127
2, 566920, Note_off_c, 1, 54, 0
2, 566960, Note_on_c, 1, 52, 127
2, 567080, Note_off_c, 1, 52, 0
2, 567120, Note_off_c, 1, 57, 0
2, 567160, Note_on_c, 1, 50, 127
2, 567160, Note_on_c, 1, 59, 127
2, 567160, Note_on_c, 1, 66, 127
2, 567280, Note_off_c, 1, 50, 0
2, 567280, Note_off_c, 1, 59, 0
2, 567280, Note_off_c, 1, 66, 0
2, 567320, Note_on_c, 1, 49, 127
2, 567320, Note_on_c, 1, 61, 127
2, 567320, Note_on_c, 1, 65, 127
2, 567480, Note_off_c, 1, 49, 0
2, 567480, Note_off_c, 1, 65, 0
2, 567520, Note_on_c, 1, 51, 127
2, 567520, Note_on_c, 1, 66, 127
2, 567640, Note_off_c, 1, 51, 0
2, 567640, Note_off_c, 1, 66, 0
2, 567680, Note_on_c, 1, 53, 127
2, 567680, Note_on_c, 1, 68, 127
2, 567800, Note_off_c, 1, 53, 0
2, 567800, Note_off_c, 1, 68, 0
2, 567880, Note_on_c, 1, 54, 127
2, 567880, Note_on_c, 1, 69, 127
2, 568000, Note_off_c, 1, 61, 0
2, 568000, Note_off_c, 1, 69, 0
2, 568040, Note_on_c, 1, 59, 127
2, 568040, Note_on_c, 1, 71, 127
2, 568160, Note_off_c, 1, 59, 0
2, 568160, Note_off_c, 1, 71, 0
2, 568200, Note_on_c, 1, 57, 127
2, 568200, Note_on_c, 1, 73, 127
2, 568320, Note_off_c, 1, 57, 0
2, 568320, Note_off_c, 1, 73, 0
2, 568400, Note_on_c, 1, 59, 127
2, 568400, Note_on_c, 1, 74, 127
2, 568520, Note_off_c, 1, 54, 0
2, 568520, Note_off_c, 1, 74, 0
2, 568560, Note_on_c, 1, 56, 127
2, 568560, Note_on_c, 1, 71, 127
2, 568720, Note_off_c, 1, 56, 0
2, 568720, Note_off_c, 1, 71, 0
2, 568760, Note_on_c, 1, 57, 127
2, 568760, Note_on_c, 1, 78, 127
2, 568880, Note_off_c, 1, 57, 0
2, 568880, Note_off_c, 1, 78, 0
2, 568920, Note_on_c, 1, 53, 127
2, 568920, Note_on_c, 1, 80, 127
2, 569080, Note_off_c, 1, 59, 0
2, 569080, Note_off_c, 1, 80, 0
2, 569120, Note_on_c, 1, 57, 127
2, 569120, Note_on_c, 1, 81, 127
2, 569240, Note_off_c, 1, 57, 0
2, 569240, Note_off_c, 1, 81, 0
2, 569280, Note_on_c, 1, 56, 127
2, 569280, Note_on_c, 1, 83, 127
2, 569400, Note_off_c, 1, 56, 0
2, 569400, Note_off_c, 1, 83, 0
2, 569440, Note_off_c, 1, 53, 0
2, 569480, Note_on_c, 1, 54, 127
2, 569480, Note_on_c, 1, 81, 127
2, 569600, Note_off_c, 1, 81, 0
2, 569640, Note_on_c, 1, 78, 127
2, 569760, Note_off_c, 1, 78, 0
2, 569840, Note_on_c, 1, 50, 127
2, 569840, Note_on_c, 1, 73, 127
2, 569960, Note_off_c, 1, 50, 0
2, 569960, Note_off_c, 1, 54, 0
2, 569960, Note_off_c, 1, 73, 0
2, 570000, Note_on_c, 1, 47, 127
2, 570000, Note_on_c, 1, 56, 127
2, 570000, Note_on_c, 1, 83, 127
2, 570120, Note_off_c, 1, 56, 0
2, 570120, Note_off_c, 1, 83, 0
2, 570160, Note_on_c, 1, 57, 127
2, 570160, Note_on_c, 1, 75, 127
2, 570320, Note_off_c, 1, 47, 0
2, 570320, Note_off_c, 1, 57, 0
2, 570320, Note_off_c, 1, 75, 0
2, 570360, Note_on_c, 1, 49, 127
2, 570360, Note_on_c, 1, 59, 127
2, 570360, Note_on_c, 1, 77, 127
2, 570480, Note_off_c, 1, 49, 0
2, 570480, Note_off_c, 1, 59, 0
2, 570480, Note_off_c, 1, 77, 0
2, 570520, Note_on_c, 1, 54, 127
2, 570520, Note_on_c, 1, 57, 127
2, 570520, Note_on_c, 1, 78, 127
2, 570680, Note_off_c, 1, 78, 0
2, 570720, Note_on_c, 1, 73, 127
2, 570840, Note_off_c, 1, 73, 0
2, 570880, Note_on_c, 1, 74, 127
2, 571000, Note_off_c, 1, 74, 0
2, 571040, Note_off_c, 1, 57, 0
2, 571080, Note_on_c, 1, 59, 127
2, 571080, Note_on_c, 1, 76, 127
2, 571120, Note_off_c, 1, 59, 0
2, 571160, Note_on_c, 1, 58, 127
2, 571200, Note_off_c, 1, 58, 0
2, 571200, Note_off_c, 1, 76, 0
2, 571240, Note_on_c, 1, 59, 127
2, 571240, Note_on_c, 1, 71, 127
2, 571280, Note_off_c, 1, 59, 0
2, 571320, Note_on_c, 1, 58, 127
2, 571360, Note_off_c, 1, 71, 0
2, 571400, Note_off_c, 1, 58, 0
2, 571440, Note_on_c, 1, 56, 127
2, 571440, Note_on_c, 1, 73, 127
2, 571480, Note_off_c, 1, 56, 0
2, 571520, Note_on_c, 1, 58, 127
2, 571560, Note_off_c, 1, 54, 0
2, 571560, Note_off_c, 1, 58, 0
2, 571560, Note_off_c, 1, 73, 0
2, 571600, Note_on_c, 1, 59, 127
2, 571600, Note_on_c, 1, 74, 127
2, 571760, Note_off_c, 1, 59, 0
2, 571800, Note_on_c, 1, 54, 127
2, 571920, Note_off_c, 1, 54, 0
2, 571960, Note_on_c, 1, 56, 127
2, 572080, Note_off_c, 1, 56, 0
2, 572080, Note_off_c, 1, 74, 0
2, 572160, Note_on_c, 1, 57, 127
2, 572160, Note_on_c, 1, 76, 127
2, 572200, Note_off_c, 1, 76, 0
2, 572240, Note_on_c, 1, 75, 127
2, 572280, Note_off_c, 1, 57, 0
2, 572280, Note_off_c, 1, 75, 0
2, 572320, Note_on_c, 1, 52, 127
2, 572320, Note_on_c, 1, 76, 127
2, 572360, Note_off_c, 1, 76, 0
2, 572400, Note_on_c, 1, 75, 127
2, 572440, Note_off_c, 1, 52, 0
2, 572440, Note_off_c, 1, 75, 0
2, 572480, Note_on_c, 1, 54, 127
2, 572480, Note_on_c, 1, 73, 127
2, 572560, Note_off_c, 1, 73, 0
2, 572600, Note_off_c, 1, 54, 0
2, 572600, Note_on_c, 1, 75, 127
2, 572640, Note_off_c, 1, 75, 0
2, 572680, Note_on_c, 1, 56, 127
2, 572680, Note_on_c, 1, 76, 127
2, 572800, Note_off_c, 1, 76, 0
2, 572840, Note_on_c, 1, 71, 127
2, 573000, Note_off_c, 1, 56, 0
2, 573000, Note_off_c, 1, 71, 0
2, 573040, Note_on_c, 1, 52, 127
2, 573040, Note_on_c, 1, 73, 127
2, 573160, Note_off_c, 1, 52, 0
2, 573160, Note_off_c, 1, 73, 0
2, 573200, Note_on_c, 1, 54, 127
2, 573200, Note_on_c, 1, 74, 127
2, 573360, Note_off_c, 1, 74, 0
2, 573400, Note_on_c, 1, 69, 127
2, 573520, Note_off_c, 1, 54, 0
2, 573520, Note_off_c, 1, 69, 0
2, 573560, Note_on_c, 1, 56, 127
2, 573560, Note_on_c, 1, 71, 127
2, 573680, Note_off_c, 1, 56, 0
2, 573680, Note_off_c, 1, 71, 0
2, 573760, Note_on_c, 1, 57, 127
2, 573760, Note_on_c, 1, 73, 127
2, 573880, Note_off_c, 1, 57, 0
2, 573880, Note_off_c, 1, 73, 0
2, 573920, Note_on_c, 1, 53, 127
2, 573920, Note_on_c, 1, 68, 127
2, 574040, Note_off_c, 1, 53, 0
2, 574040, Note_off_c, 1, 68, 0
2, 574120, Note_on_c, 1, 54, 127
2, 574120, Note_on_c, 1, 69, 127
2, 574240, Note_off_c, 1, 54, 0
2, 574240, Note_off_c, 1, 69, 0
2, 574280, Note_on_c, 1, 56, 127
2, 574280, Note_on_c, 1, 71, 127
2, 574400, Note_off_c, 1, 56, 0
2, 574400, Note_off_c, 1, 71, 0
2, 574480, Note_on_c, 1, 51, 127
2, 574480, Note_on_c, 1, 66, 127
2, 574600, Note_off_c, 1, 51, 0
2, 574600, Note_off_c, 1, 66, 0
2, 574640, Note_on_c, 1, 53, 127
2, 574640, Note_on_c, 1, 68, 127
2, 574760, Note_off_c, 1, 53, 0
2, 574760, Note_off_c, 1, 68, 0
2, 574800, Note_on_c, 1, 54, 127
2, 574800, Note_on_c, 1, 69, 127
2, 574960, Note_off_c, 1, 54, 0
2, 575000, Note_on_c, 1, 49, 127
2, 575120, Note_off_c, 1, 49, 0
2, 575120, Note_off_c, 1, 69, 0
2, 575160, Note_on_c, 1, 50, 127
2, 575160, Note_on_c, 1, 78, 127
2, 575280, Note_off_c, 1, 50, 0
2, 575280, Note_off_c, 1, 78, 0
2, 575360, Note_on_c, 1, 52, 127
2, 575360, Note_on_c, 1, 67, 127
2, 575480, Note_off_c, 1, 52, 0
2, 575520, Note_on_c, 1, 47, 127
2, 575640, Note_off_c, 1, 47, 0
2, 575680, Note_off_c, 1, 67, 0
2, 575720, Note_on_c, 1, 49, 127
2, 575720, Note_on_c, 1, 76, 127
2, 575840, Note_off_c, 1, 49, 0
2, 575840, Note_off_c, 1, 76, 0
2, 575880, Note_on_c, 1, 50, 127
2, 575880, Note_on_c, 1, 66, 127
2, 576040, Note_off_c, 1, 50, 0
2, 576080, Note_on_c, 1, 46, 127
2, 576200, Note_off_c, 1, 46, 0
2, 576200, Note_off_c, 1, 66, 0
2, 576240, Note_on_c, 1, 47, 127
2, 576240, Note_on_c, 1, 74, 127
2, 576360, Note_off_c, 1, 47, 0
2, 576360, Note_off_c, 1, 74, 0
2, 576440, Note_on_c, 1, 49, 127
2, 576440, Note_on_c, 1, 64, 127
2, 576560, Note_off_c, 1, 49, 0
2, 576600, Note_on_c, 1, 44, 127
2, 576720, Note_off_c, 1, 44, 0
2, 576720, Note_off_c, 1, 64, 0
2, 576760, Note_on_c, 1, 46, 127
2, 576760, Note_on_c, 1, 73, 127
2, 576880, Note_off_c, 1, 46, 0
2, 576880, Note_off_c, 1, 73, 0
2, 576960, Note_on_c, 1, 47, 127
2, 576960, Note_on_c, 1, 62, 127
2, 577080, Note_off_c, 1, 47, 0
2, 577080, Note_off_c, 1, 62, 0
2, 577120, Note_on_c, 1, 49, 127
2, 577120, Note_on_c, 1, 64, 127
2, 577280, Note_off_c, 1, 49, 0
2, 577280, Note_off_c, 1, 64, 0
2, 577320, Note_on_c, 1, 50, 127
2, 577320, Note_on_c, 1, 66, 127
2, 577440, Note_off_c, 1, 50, 0
2, 577440, Note_off_c, 1, 66, 0
2, 577480, Note_on_c, 1, 52, 127
2, 577480, Note_on_c, 1, 61, 127
2, 577640, Note_off_c, 1, 52, 0
2, 577640, Note_off_c, 1, 61, 0
2, 577680, Note_on_c, 1, 54, 127
2, 577680, Note_on_c, 1, 62, 127
2, 577800, Note_off_c, 1, 54, 0
2, 577800, Note_off_c, 1, 62, 0
2, 577840, Note_on_c, 1, 55, 127
2, 577840, Note_on_c, 1, 59, 127
2, 577960, Note_off_c, 1, 55, 0
2, 577960, Note_off_c, 1, 59, 0
2, 578040, Note_on_c, 1, 54, 127
2, 578040, Note_on_c, 1, 58, 127
2, 578160, Note_off_c, 1, 54, 0
2, 578160, Note_off_c, 1, 58, 0
2, 578200, Note_on_c, 1, 56, 127
2, 578200, Note_on_c, 1, 59, 127
2, 578320, Note_off_c, 1, 56, 0
2, 578320, Note_off_c, 1, 59, 0
2, 578400, Note_on_c, 1, 58, 127
2, 578400, Note_on_c, 1, 61, 127
2, 578520, Note_off_c, 1, 58, 0
2, 578520, Note_off_c, 1, 61, 0
2, 578560, Note_on_c, 1, 47, 127
2, 578560, Note_on_c, 1, 62, 127
2, 578680, Note_off_c, 1, 47, 0
2, 578680, Note_off_c, 1, 62, 0
2, 578760, Note_on_c, 1, 49, 127
2, 578760, Note_on_c, 1, 64, 127
2, 578880, Note_off_c, 1, 49, 0
2, 578880, Note_off_c, 1, 64, 0
2, 578920, Note_on_c, 1, 50, 127
2, 578920, Note_on_c, 1, 66, 127
2, 579040, Note_off_c, 1, 50, 0
2, 579040, Note_off_c, 1, 66, 0
2, 579080, Note_on_c, 1, 52, 127
2, 579080, Note_on_c, 1, 67, 127
2, 579240, Note_off_c, 1, 52, 0
2, 579240, Note_off_c, 1, 67, 0
2, 579280, Note_on_c, 1, 54, 127
2, 579280, Note_on_c, 1, 64, 127
2, 579400, Note_off_c, 1, 54, 0
2, 579400, Note_off_c, 1, 64, 0
2, 579440, Note_on_c, 1, 55, 127
2, 579440, Note_on_c, 1, 71, 127
2, 579560, Note_off_c, 1, 55, 0
2, 579560, Note_off_c, 1, 71, 0
2, 579640, Note_on_c, 1, 46, 127
2, 579640, Note_on_c, 1, 73, 127
2, 579760, Note_off_c, 1, 46, 0
2, 579760, Note_off_c, 1, 73, 0
2, 579800, Note_on_c, 1, 47, 127
2, 579800, Note_on_c, 1, 74, 127
2, 579920, Note_off_c, 1, 47, 0
2, 579920, Note_off_c, 1, 74, 0
2, 580000, Note_on_c, 1, 49, 127
2, 580000, Note_on_c, 1, 76, 127
2, 580120, Note_off_c, 1, 49, 0
2, 580120, Note_off_c, 1, 76, 0
2, 580160, Note_on_c, 1, 50, 127
2, 580160, Note_on_c, 1, 78, 127
2, 580320, Note_off_c, 1, 78, 0
2, 580360, Note_on_c, 1, 74, 127
2, 580480, Note_off_c, 1, 50, 0
2, 580480, Note_off_c, 1, 74, 0
2, 580520, Note_on_c, 1, 55, 127
2, 580520, Note_on_c, 1, 71, 127
2, 580640, Note_off_c, 1, 55, 0
2, 580640, Note_off_c, 1, 71, 0
2, 580720, Note_on_c, 1, 49, 127
2, 580720, Note_on_c, 1, 76, 127
2, 580840, Note_off_c, 1, 76, 0
2, 580880, Note_on_c, 1, 68, 127
2, 581000, Note_off_c, 1, 49, 0
2, 581000, Note_off_c, 1, 68, 0
2, 581040, Note_on_c, 1, 54, 127
2, 581040, Note_on_c, 1, 70, 127
2, 581160, Note_off_c, 1, 54, 0
2, 581160, Note_off_c, 1, 70, 0
2, 581240, Note_on_c, 1, 47, 127
2, 581240, Note_on_c, 1, 74, 127
2, 581360, Note_off_c, 1, 74, 0
2, 581400, Note_on_c, 1, 71, 127
2, 581560, Note_off_c, 1, 71, 0
2, 581600, Note_on_c, 1, 68, 127
2, 581720, Note_off_c, 1, 68, 0
2, 581760, Note_on_c, 1, 73, 127
2, 581880, Note_off_c, 1, 47, 0
2, 581920, Note_off_c, 1, 73, 0
2, 581960, Note_on_c, 1, 65, 127
2, 582080, Note_off_c, 1, 65, 0
2, 582120, Note_on_c, 1, 57, 127
2, 582120, Note_on_c, 1, 66, 127
2, 582240, Note_off_c, 1, 57, 0
2, 582240, Note_off_c, 1, 66, 0
2, 582320, Note_on_c, 1, 56, 127
2, 582320, Note_on_c, 1, 71, 127
2, 582440, Note_off_c, 1, 71, 0
2, 582480, Note_on_c, 1, 68, 127
2, 582600, Note_off_c, 1, 68, 0
2, 582680, Note_on_c, 1, 65, 127
2, 582800, Note_off_c, 1, 65, 0
2, 582840, Note_on_c, 1, 69, 127
2, 582960, Note_off_c, 1, 69, 0
2, 583040, Note_on_c, 1, 61, 127
2, 583080, Note_off_c, 1, 56, 0
2, 583160, Note_off_c, 1, 61, 0
2, 583200, Note_on_c, 1, 54, 127
2, 583200, Note_on_c, 1, 62, 127
2, 583320, Note_off_c, 1, 54, 0
2, 583320, Note_off_c, 1, 62, 0
2, 583360, Note_on_c, 1, 52, 127
2, 583360, Note_on_c, 1, 68, 127
2, 583520, Note_off_c, 1, 68, 0
2, 583560, Note_on_c, 1, 64, 127
2, 583680, Note_off_c, 1, 64, 0
2, 583720, Note_on_c, 1, 61, 127
2, 583840, Note_off_c, 1, 61, 0
2, 583920, Note_on_c, 1, 66, 127
2, 584040, Note_off_c, 1, 66, 0
2, 584080, Note_on_c, 1, 57, 127
2, 584120, Note_off_c, 1, 52, 0
2, 584240, Note_off_c, 1, 57, 0
2, 584280, Note_on_c, 1, 50, 127
2, 584280, Note_on_c, 1, 59, 127
2, 584400, Note_off_c, 1, 50, 0
2, 584400, Note_off_c, 1, 59, 0
2, 584440, Note_on_c, 1, 41, 127
2, 584440, Note_on_c, 1, 61, 127
2, 584600, Note_off_c, 1, 41, 0
2, 584640, Note_on_c, 1, 42, 127
2, 584760, Note_off_c, 1, 42, 0
2, 584800, Note_on_c, 1, 44, 127
2, 584920, Note_off_c, 1, 44, 0
2, 585000, Note_on_c, 1, 45, 127
2, 585120, Note_off_c, 1, 45, 0
2, 585120, Note_off_c, 1, 61, 0
2, 585160, Note_on_c, 1, 47, 127
2, 585160, Note_on_c, 1, 63, 127
2, 585280, Note_off_c, 1, 47, 0
2, 585280, Note_off_c, 1, 63, 0
2, 585360, Note_on_c, 1, 49, 127
2, 585360, Note_on_c, 1, 65, 127
2, 585440, Note_off_c, 1, 49, 0
2, 585440, Note_off_c, 1, 65, 0
2, 585520, Note_on_c, 1, 50, 127
2, 585520, Note_on_c, 1, 66, 127
2, 585640, Note_off_c, 1, 50, 0
2, 585640, Note_off_c, 1, 66, 0
2, 585680, Note_on_c, 1, 47, 127
2, 585680, Note_on_c, 1, 68, 127
2, 585840, Note_off_c, 1, 47, 0
2, 585840, Note_off_c, 1, 68, 0
2, 585880, Note_on_c, 1, 54, 127
2, 585880, Note_on_c, 1, 69, 127
2, 586000, Note_off_c, 1, 54, 0
2, 586000, Note_off_c, 1, 69, 0
2, 586040, Note_on_c, 1, 56, 127
2, 586040, Note_on_c, 1, 71, 127
2, 586200, Note_off_c, 1, 56, 0
2, 586200, Note_off_c, 1, 71, 0
2, 586240, Note_on_c, 1, 57, 127
2, 586240, Note_on_c, 1, 73, 127
2, 586360, Note_off_c, 1, 57, 0
2, 586360, Note_off_c, 1, 73, 0
2, 586400, Note_on_c, 1, 59, 127
2, 586400, Note_on_c, 1, 74, 127
2, 586520, Note_off_c, 1, 59, 0
2, 586520, Note_off_c, 1, 74, 0
2, 586600, Note_on_c, 1, 57, 127
2, 586600, Note_on_c, 1, 73, 127
2, 586720, Note_off_c, 1, 57, 0
2, 586760, Note_on_c, 1, 54, 127
2, 586880, Note_off_c, 1, 54, 0
2, 586920, Note_off_c, 1, 73, 0
2, 586960, Note_on_c, 1, 49, 127
2, 586960, Note_on_c, 1, 81, 127
2, 587080, Note_off_c, 1, 49, 0
2, 587080, Note_off_c, 1, 81, 0
2, 587120, Note_on_c, 1, 59, 127
2, 587120, Note_on_c, 1, 74, 127
2, 587240, Note_off_c, 1, 59, 0
2, 587240, Note_off_c, 1, 74, 0
2, 587320, Note_on_c, 1, 51, 127
2, 587320, Note_on_c, 1, 73, 127
2, 587440, Note_off_c, 1, 51, 0
2, 587440, Note_off_c, 1, 73, 0
2, 587480, Note_on_c, 1, 53, 127
2, 587480, Note_on_c, 1, 71, 127
2, 587600, Note_off_c, 1, 53, 0
2, 587600, Note_off_c, 1, 71, 0
2, 587640, Note_on_c, 1, 54, 127
2, 587640, Note_on_c, 1, 69, 127
2, 587800, Note_off_c, 1, 54, 0
2, 587840, Note_on_c, 1, 49, 127
2, 587960, Note_off_c, 1, 49, 0
2, 587960, Note_off_c, 1, 69, 0
2, 588000, Note_on_c, 1, 45, 127
2, 588000, Note_on_c, 1, 78, 127
2, 588120, Note_off_c, 1, 45, 0
2, 588120, Note_off_c, 1, 78, 0
2, 588200, Note_on_c, 1, 55, 127
2, 588200, Note_on_c, 1, 71, 127
2, 588320, Note_off_c, 1, 55, 0
2, 588320, Note_off_c, 1, 71, 0
2, 588360, Note_on_c, 1, 47, 127
2, 588360, Note_on_c, 1, 69, 127
2, 588520, Note_off_c, 1, 47, 0
2, 588520, Note_off_c, 1, 69, 0
2, 588560, Note_on_c, 1, 49, 127
2, 588560, Note_on_c, 1, 67, 127
2, 588680, Note_off_c, 1, 49, 0
2, 588680, Note_off_c, 1, 67, 0
2, 588720, Note_on_c, 1, 50, 127
2, 588720, Note_on_c, 1, 66, 127
2, 588880, Note_off_c, 1, 50, 0
2, 588920, Note_on_c, 1, 45, 127
2, 589040, Note_off_c, 1, 45, 0
2, 589040, Note_off_c, 1, 66, 0
2, 589080, Note_on_c, 1, 42, 127
2, 589080, Note_on_c, 1, 74, 127
2, 589200, Note_off_c, 1, 42, 0
2, 589200, Note_off_c, 1, 74, 0
2, 589280, Note_on_c, 1, 52, 127
2, 589280, Note_on_c, 1, 67, 127
2, 589400, Note_off_c, 1, 52, 0
2, 589400, Note_off_c, 1, 67, 0
2, 589440, Note_on_c, 1, 44, 127
2, 589440, Note_on_c, 1, 66, 127
2, 589560, Note_off_c, 1, 44, 0
2, 589560, Note_off_c, 1, 66, 0
2, 589640, Note_on_c, 1, 46, 127
2, 589640, Note_on_c, 1, 64, 127
2, 589720, Note_off_c, 1, 46, 0
2, 589720, Note_off_c, 1, 64, 0
2, 589800, Note_on_c, 1, 47, 127
2, 589800, Note_on_c, 1, 62, 127
2, 589920, Note_off_c, 1, 62, 0
2, 589960, Note_on_c, 1, 71, 127
2, 590120, Note_off_c, 1, 71, 0
2, 590160, Note_off_c, 1, 47, 0
2, 590160, Note_on_c, 1, 62, 127
2, 590280, Note_off_c, 1, 62, 0
2, 590320, Note_on_c, 1, 42, 127
2, 590320, Note_on_c, 1, 61, 127
2, 590480, Note_off_c, 1, 61, 0
2, 590520, Note_on_c, 1, 71, 127
2, 590640, Note_off_c, 1, 71, 0
2, 590680, Note_off_c, 1, 42, 0
2, 590680, Note_on_c, 1, 69, 127
2, 590800, Note_off_c, 1, 69, 0
2, 590880, Note_on_c, 1, 39, 127
2, 590880, Note_on_c, 1, 59, 127
2, 591000, Note_off_c, 1, 59, 0
2, 591040, Note_on_c, 1, 69, 127
2, 591160, Note_off_c, 1, 69, 0
2, 591200, Note_off_c, 1, 39, 0
2, 591240, Note_on_c, 1, 68, 127
2, 591360, Note_off_c, 1, 68, 0
2, 591400, Note_on_c, 1, 41, 127
2, 591400, Note_on_c, 1, 61, 127
2, 591520, Note_off_c, 1, 61, 0
2, 591600, Note_on_c, 1, 71, 127
2, 591720, Note_off_c, 1, 71, 0
2, 591760, Note_off_c, 1, 41, 0
2, 591760, Note_on_c, 1, 69, 127
2, 591880, Note_off_c, 1, 69, 0
2, 591920, Note_on_c, 1, 42, 127
2, 591920, Note_on_c, 1, 63, 127
2, 592080, Note_off_c, 1, 63, 0
2, 592120, Note_on_c, 1, 73, 127
2, 592240, Note_off_c, 1, 73, 0
2, 592280, Note_off_c, 1, 42, 0
2, 592280, Note_on_c, 1, 71, 127
2, 592400, Note_off_c, 1, 71, 0
2, 592480, Note_on_c, 1, 44, 127
2, 592480, Note_on_c, 1, 65, 127
2, 592600, Note_off_c, 1, 65, 0
2, 592640, Note_on_c, 1, 74, 127
2, 592760, Note_off_c, 1, 74, 0
2, 592840, Note_off_c, 1, 44, 0
2, 592840, Note_on_c, 1, 73, 127
2, 592960, Note_off_c, 1, 73, 0
2, 593000, Note_on_c, 1, 45, 127
2, 593000, Note_on_c, 1, 66, 127
2, 593160, Note_off_c, 1, 66, 0
2, 593200, Note_on_c, 1, 71, 127
2, 593320, Note_off_c, 1, 71, 0
2, 593360, Note_off_c, 1, 45, 0
2, 593360, Note_on_c, 1, 69, 127
2, 593480, Note_off_c, 1, 69, 0
2, 593560, Note_on_c, 1, 47, 127
2, 593560, Note_on_c, 1, 68, 127
2, 593680, Note_off_c, 1, 68, 0
2, 593720, Note_on_c, 1, 69, 127
2, 593840, Note_off_c, 1, 69, 0
2, 593880, Note_off_c, 1, 47, 0
2, 593880, Note_on_c, 1, 66, 127
2, 594000, Note_off_c, 1, 66, 0
2, 594080, Note_on_c, 1, 49, 127
2, 594080, Note_on_c, 1, 65, 127
2, 594240, Note_on_c, 1, 62, 127
2, 594400, Note_off_c, 1, 62, 0
2, 594400, Note_off_c, 1, 65, 0
2, 594440, Note_off_c, 1, 49, 0
2, 594440, Note_on_c, 1, 61, 127
2, 594560, Note_off_c, 1, 61, 0
2, 594600, Note_on_c, 1, 51, 127
2, 594600, Note_on_c, 1, 66, 127
2, 594800, Note_on_c, 1, 61, 127
2, 594920, Note_off_c, 1, 61, 0
2, 594920, Note_off_c, 1, 66, 0
2, 594960, Note_off_c, 1, 51, 0
2, 594960, Note_on_c, 1, 59, 127
2, 595080, Note_off_c, 1, 59, 0
2, 595160, Note_on_c, 1, 53, 127
2, 595160, Note_on_c, 1, 68, 127
2, 595320, Note_on_c, 1, 61, 127
2, 595440, Note_off_c, 1, 53, 0
2, 595440, Note_off_c, 1, 61, 0
2, 595440, Note_off_c, 1, 68, 0
2, 595480, Note_on_c, 1, 37, 127
2, 595480, Note_on_c, 1, 59, 127
2, 595600, Note_off_c, 1, 37, 0
2, 595600, Note_off_c, 1, 59, 0
2, 595680, Note_on_c, 1, 39, 127
2, 595680, Note_on_c, 1, 57, 127
2, 595800, Note_off_c, 1, 57, 0
2, 595840, Note_on_c, 1, 59, 127
2, 596000, Note_off_c, 1, 39, 0
2, 596000, Note_off_c, 1, 59, 0
2, 596040, Note_on_c, 1, 41, 127
2, 596040, Note_on_c, 1, 56, 127
2, 596160, Note_off_c, 1, 41, 0
2, 596160, Note_off_c, 1, 56, 0
2, 596200, Note_on_c, 1, 42, 127
2, 596200, Note_on_c, 1, 57, 127
2, 596400, Note_on_c, 1, 56, 127
2, 596440, Note_off_c, 1, 57, 0
2, 596520, Note_off_c, 1, 56, 0
2, 596560, Note_off_c, 1, 42, 0
2, 596560, Note_on_c, 1, 54, 127
2, 596680, Note_off_c, 1, 54, 0
2, 596760, Note_on_c, 1, 44, 127
2, 596760, Note_on_c, 1, 59, 127
2, 596920, Note_on_c, 1, 56, 127
2, 596960, Note_off_c, 1, 59, 0
2, 597040, Note_off_c, 1, 56, 0
2, 597080, Note_off_c, 1, 44, 0
2, 597120, Note_on_c, 1, 54, 127
2, 597240, Note_off_c, 1, 54, 0
2, 597280, Note_on_c, 1, 45, 127
2, 597280, Note_on_c, 1, 61, 127
2, 597480, Note_on_c, 1, 56, 127
2, 597480, Note_off_c, 1, 61, 0
2, 597600, Note_off_c, 1, 56, 0
2, 597640, Note_off_c, 1, 45, 0
2, 597640, Note_on_c, 1, 54, 127
2, 597760, Note_off_c, 1, 54, 0
2, 597800, Note_on_c, 1, 47, 127
2, 597800, Note_on_c, 1, 62, 127
2, 598000, Note_on_c, 1, 56, 127
2, 598000, Note_off_c, 1, 62, 0
2, 598120, Note_off_c, 1, 56, 0
2, 598160, Note_off_c, 1, 47, 0
2, 598160, Note_on_c, 1, 54, 127
2, 598280, Note_off_c, 1, 54, 0
2, 598360, Note_on_c, 1, 49, 127
2, 598360, Note_on_c, 1, 53, 127
2, 598480, Note_off_c, 1, 49, 0
2, 598480, Note_off_c, 1, 53, 0
2, 598520, Note_on_c, 1, 51, 127
2, 598520, Note_on_c, 1, 54, 127
2, 598640, Note_off_c, 1, 51, 0
2, 598640, Note_off_c, 1, 54, 0
2, 598720, Note_on_c, 1, 53, 127
2, 598720, Note_on_c, 1, 56, 127
2, 598840, Note_off_c, 1, 53, 0
2, 598840, Note_off_c, 1, 56, 0
2, 598880, Note_on_c, 1, 42, 127
2, 598880, Note_on_c, 1, 57, 127
2, 599040, Note_off_c, 1, 42, 0
2, 599040, Note_off_c, 1, 57, 0
2, 599080, Note_on_c, 1, 44, 127
2, 599080, Note_on_c, 1, 59, 127
2, 599200, Note_off_c, 1, 44, 0
2, 599200, Note_off_c, 1, 59, 0
2, 599240, Note_on_c, 1, 45, 127
2, 599240, Note_on_c, 1, 61, 127
2, 599360, Note_off_c, 1, 45, 0
2, 599360, Note_off_c, 1, 61, 0
2, 599440, Note_on_c, 1, 47, 127
2, 599440, Note_on_c, 1, 62, 127
2, 599560, Note_off_c, 1, 47, 0
2, 599600, Note_on_c, 1, 49, 127
2, 599600, Note_on_c, 1, 59, 127
2, 599600, Note_off_c, 1, 62, 0
2, 599720, Note_off_c, 1, 49, 0
2, 599720, Note_off_c, 1, 59, 0
2, 599760, Note_on_c, 1, 50, 127
2, 599760, Note_on_c, 1, 66, 127
2, 599880, Note_off_c, 1, 50, 0
2, 599880, Note_off_c, 1, 66, 0
2, 599960, Note_on_c, 1, 41, 127
2, 599960, Note_on_c, 1, 68, 127
2, 600080, Note_off_c, 1, 41, 0
2, 600080, Note_off_c, 1, 68, 0
2, 600120, Note_on_c, 1, 42, 127
2, 600120, Note_on_c, 1, 69, 127
2, 600280, Note_off_c, 1, 42, 0
2, 600280, Note_off_c, 1, 69, 0
2, 600320, Note_on_c, 1, 44, 127
2, 600320, Note_on_c, 1, 71, 127
2, 600440, Note_off_c, 1, 44, 0
2, 600440, Note_off_c, 1, 71, 0
2, 600480, Note_on_c, 1, 45, 127
2, 600480, Note_on_c, 1, 73, 127
2, 600680, Note_on_c, 1, 69, 127
2, 600680, Note_off_c, 1, 73, 0
2, 600800, Note_off_c, 1, 45, 0
2, 600800, Note_off_c, 1, 69, 0
2, 600840, Note_on_c, 1, 50, 127
2, 600840, Note_on_c, 1, 66, 127
2, 600960, Note_off_c, 1, 50, 0
2, 600960, Note_off_c, 1, 66, 0
2, 601040, Note_on_c, 1, 44, 127
2, 601040, Note_on_c, 1, 71, 127
2, 601160, Note_off_c, 1, 71, 0
2, 601200, Note_on_c, 1, 63, 127
2, 601320, Note_off_c, 1, 44, 0
2, 601320, Note_off_c, 1, 63, 0
2, 601400, Note_on_c, 1, 61, 127
2, 601400, Note_on_c, 1, 65, 127
2, 601520, Note_off_c, 1, 61, 0
2, 601520, Note_off_c, 1, 65, 0
2, 601560, Note_on_c, 1, 62, 127
2, 601560, Note_on_c, 1, 66, 127
2, 601680, Note_off_c, 1, 62, 0
2, 601760, Note_on_c, 1, 61, 127
2, 601880, Note_off_c, 1, 61, 0
2, 601920, Note_on_c, 1, 59, 127
2, 601920, Note_on_c, 1, 73, 127
2, 602040, Note_off_c, 1, 59, 0
2, 602040, Note_off_c, 1, 73, 0
2, 602080, Note_on_c, 1, 57, 127
2, 602080, Note_on_c, 1, 78, 127
2, 602160, Note_off_c, 1, 66, 0
2, 602240, Note_off_c, 1, 57, 0
2, 602240, Note_off_c, 1, 78, 0
2, 602280, Note_on_c, 1, 56, 127
2, 602280, Note_on_c, 1, 76, 127
2, 602400, Note_off_c, 1, 56, 0
2, 602400, Note_off_c, 1, 76, 0
2, 602440, Note_on_c, 1, 54, 127
2, 602440, Note_on_c, 1, 74, 127
2, 602560, Note_off_c, 1, 54, 0
2, 602560, Note_off_c, 1, 74, 0
2, 602640, Note_on_c, 1, 53, 127
2, 602640, Note_on_c, 1, 73, 127
2, 602760, Note_off_c, 1, 53, 0
2, 602760, Note_off_c, 1, 73, 0
2, 602800, Note_on_c, 1, 56, 127
2, 602800, Note_on_c, 1, 71, 127
2, 602920, Note_off_c, 1, 56, 0
2, 602920, Note_off_c, 1, 71, 0
2, 603000, Note_on_c, 1, 49, 127
2, 603000, Note_on_c, 1, 69, 127
2, 603120, Note_off_c, 1, 49, 0
2, 603120, Note_off_c, 1, 69, 0
2, 603160, Note_on_c, 1, 47, 127
2, 603160, Note_on_c, 1, 68, 127
2, 603320, Note_off_c, 1, 47, 0
2, 603320, Note_off_c, 1, 68, 0
2, 603360, Note_on_c, 1, 45, 127
2, 603360, Note_on_c, 1, 66, 127
2, 603480, Note_off_c, 1, 45, 0
2, 603480, Note_off_c, 1, 66, 0
2, 603520, Note_on_c, 1, 44, 127
2, 603520, Note_on_c, 1, 65, 127
2, 603640, Note_off_c, 1, 44, 0
2, 603640, Note_off_c, 1, 65, 0
2, 603720, Note_on_c, 1, 45, 127
2, 603720, Note_on_c, 1, 66, 127
2, 603840, Note_off_c, 1, 45, 0
2, 603840, Note_off_c, 1, 66, 0
2, 603880, Note_on_c, 1, 54, 127
2, 603880, Note_on_c, 1, 74, 127
2, 604000, Note_off_c, 1, 54, 0
2, 604000, Note_off_c, 1, 74, 0
2, 604040, Note_on_c, 1, 47, 127
2, 604040, Note_on_c, 1, 73, 127
2, 604160, Note_off_c, 1, 47, 0
2, 604160, Note_off_c, 1, 73, 0
2, 604240, Note_on_c, 1, 49, 127
2, 604240, Note_on_c, 1, 71, 127
2, 604280, Note_off_c, 1, 71, 0
2, 604320, Note_on_c, 1, 69, 127
2, 604360, Note_off_c, 1, 49, 0
2, 604360, Note_off_c, 1, 69, 0
2, 604400, Note_on_c, 1, 47, 127
2, 604400, Note_on_c, 1, 68, 127
2, 604560, Note_off_c, 1, 47, 0
2, 604560, Note_off_c, 1, 68, 0
2, 604600, Note_on_c, 1, 49, 127
2, 604600, Note_on_c, 1, 66, 127
2, 604720, Note_off_c, 1, 49, 0
2, 604720, Note_off_c, 1, 66, 0
2, 604760, Note_on_c, 1, 42, 127
2, 604760, Note_on_c, 1, 66, 127
2, 604960, Note_off_c, 1, 42, 0
2, 604960, Note_off_c, 1, 66, 0
2, 605000, Note_on_c, 1, 45, 127
2, 605000, Note_on_c, 1, 61, 127
2, 605160, Note_off_c, 1, 45, 0
2, 605160, Note_off_c, 1, 61, 0
2, 605200, Note_on_c, 1, 49, 127
2, 605200, Note_on_c, 1, 57, 127
2, 605400, Note_off_c, 1, 49, 0
2, 605400, Note_off_c, 1, 57, 0
2, 605480, Note_on_c, 1, 54, 127
2, 607640, Note_off_c, 1, 54, 0
2, 608600, End_track
3, 0, Start_track
3, 0, Title_t, "MIDI"
3, 1536, End_track
0, 0, End_of_file
